0
SECTION
2
HEADER
9
$INSUNITS
70
4
9
$ACADVER
1
AC1014
9
$HANDSEED
5
FFFF
0
ENDSEC
0
SECTION
2
TABLES
0
TABLE
2
VPORT
5
8
100
AcDbSymbolTable
0
ENDTAB
0
TABLE
2
LTYPE
5
5
100
AcDbSymbolTable
0
LTYPE
5
14
100
AcDbSymbolTableRecord
100
AcDbLinetypeTableRecord
2
BYBLOCK
70
0
0
LTYPE
5
15
100
AcDbSymbolTableRecord
100
AcDbLinetypeTableRecord
2
BYLAYER
70
0
0
LTYPE
5
16
100
AcDbSymbolTableRecord
100
AcDbLinetypeTableRecord
2
DASHED
70
0
3
Dashed __ __ __ __ __ __ __ __ __ __ __ __ __ _
72
65
73
2
40
0.75
49
0.5
74
0
49
-0.25
74
0
0
ENDTAB
0
TABLE
2
LAYER
5
2
100
AcDbSymbolTable
70
2
0
LAYER
5
50
100
AcDbSymbolTableRecord
100
AcDbLayerTableRecord
2
0
70
0
62
7
6
CONTINUOUS
0
ENDTAB
0
TABLE
2
STYLE
5
3
100
AcDbSymbolTable
70
1
0
STYLE
5
11
100
AcDbSymbolTableRecord
100
AcDbTextStyleTableRecord
2
STANDARD
70
0
0
ENDTAB
0
TABLE
2
VIEW
5
6
100
AcDbSymbolTable
70
0
0
ENDTAB
0
TABLE
2
UCS
5
7
100
AcDbSymbolTable
70
0
0
ENDTAB
0
TABLE
2
APPID
5
9
100
AcDbSymbolTable
70
2
0
APPID
5
12
100
AcDbSymbolTableRecord
100
AcDbRegAppTableRecord
2
ACAD
70
0
0
ENDTAB
0
TABLE
2
DIMSTYLE
5
A
100
AcDbSymbolTable
70
1
0
ENDTAB
0
TABLE
2
BLOCK_RECORD
5
1
100
AcDbSymbolTable
70
1
0
BLOCK_RECORD
5
1F
100
AcDbSymbolTableRecord
100
AcDbBlockTableRecord
2
*MODEL_SPACE
0
BLOCK_RECORD
5
1B
100
AcDbSymbolTableRecord
100
AcDbBlockTableRecord
2
*PAPER_SPACE
0
ENDTAB
0
ENDSEC
0
SECTION
2
BLOCKS
0
BLOCK
5
20
100
AcDbEntity
100
AcDbBlockBegin
2
*MODEL_SPACE
0
ENDBLK
5
21
100
AcDbEntity
100
AcDbBlockEnd
0
BLOCK
5
1C
100
AcDbEntity
100
AcDbBlockBegin
2
*PAPER_SPACE
0
ENDBLK
5
1D
100
AcDbEntity
100
AcDbBlockEnd
0
ENDSEC
0
SECTION
2
ENTITIES
0
LINE
5
100
100
AcDbEntity
8
0
100
AcDbLine
10
-213.73199999999829
20
-60.127018769904609
30
0
11
-213.73199999999986
21
-111.62701876990471
31
0
0
LINE
5
101
100
AcDbEntity
8
0
100
AcDbLine
10
-211.73199999999991
20
-113.62701876990469
30
0
11
-168.93199999999979
21
-113.62701876990511
31
0
0
LINE
5
102
100
AcDbEntity
8
0
100
AcDbLine
10
-66.131999999999422
20
-111.62701876990158
30
0
11
-66.131999999999422
21
-95.683450000000093
31
0
0
LINE
5
103
100
AcDbEntity
8
0
100
AcDbLine
10
-64.931999999999562
20
-94.483450000000104
30
0
11
-58.931999999999441
21
-94.483449999999465
31
0
0
LINE
5
104
100
AcDbEntity
8
0
100
AcDbLine
10
-56.931999999999654
20
-92.483449999999223
30
0
11
-56.932000000000897
21
-81.483449999999422
31
0
0
LINE
5
105
100
AcDbEntity
8
0
100
AcDbLine
10
-58.932000000001288
20
-79.483449999999664
30
0
11
-60.731999999999147
21
-79.483450000000019
31
0
0
LINE
5
106
100
AcDbEntity
8
0
100
AcDbLine
10
-61.931999999999391
20
-78.28345000000003
30
0
11
-61.931999999999654
21
-62.483450000000417
31
0
0
LINE
5
107
100
AcDbEntity
8
0
100
AcDbLine
10
-63.931999999999469
20
-60.483450000000445
30
0
11
-69.931999999999775
21
-60.483449999999877
31
0
0
LINE
5
108
100
AcDbEntity
8
0
100
AcDbLine
10
-71.131999999999664
20
-59.283449999999846
30
0
11
-71.131999999998996
21
-37.271176462543181
31
0
0
LINE
5
109
100
AcDbEntity
8
0
100
AcDbLine
10
-61.131999999999643
20
-18.563449999999559
30
0
11
-61.132000000000318
21
2.3729812300973219
31
0
0
LINE
5
110
100
AcDbEntity
8
0
100
AcDbLine
10
-166.13415584229182
20
-130.01880554586776
30
0
11
-133.41702060670144
21
-136.73466891799248
31
0
0
LINE
5
111
100
AcDbEntity
8
0
100
AcDbLine
10
-131.05571426521081
20
-135.17767426108574
30
0
11
-126.82879418095403
21
-114.58572526452502
31
0
0
LINE
5
112
100
AcDbEntity
8
0
100
AcDbLine
10
-63.132000000000346
20
4.3729812300972632
30
0
11
-211.73200000000136
21
4.3729812300953625
31
0
0
ARC
5
113
100
AcDbEntity
8
0
100
AcDbCircle
10
-63.132000000000318
20
2.3729812300972615
30
0
40
2.0000000000000018
210
0
220
-0
230
1
100
AcDbArc
50
0
51
90.00000000000081
0
ARC
5
114
100
AcDbEntity
8
0
100
AcDbCircle
10
-211.73200000000136
20
2.372981230095391
30
0
40
1.9999999999999718
210
0
220
-0
230
1
100
AcDbArc
50
90
51
180
0
ARC
5
115
100
AcDbEntity
8
0
100
AcDbCircle
10
-211.73199999999991
20
-111.62701876990474
30
0
40
1.9999999999999218
210
0
220
0
230
1
100
AcDbArc
50
180
51
270
0
ARC
5
116
100
AcDbEntity
8
0
100
AcDbCircle
10
-133.01486476440951
20
-134.77551841879378
30
0
40
1.9999999999999971
210
0
220
0
230
1
100
AcDbArc
50
258.39999999999992
51
348.39999999999918
0
ARC
5
117
100
AcDbEntity
8
0
100
AcDbCircle
10
-64.931999999999434
20
-95.683450000000093
30
0
40
1.1999999999999922
210
0
220
0
230
1
100
AcDbArc
50
90.000000000006096
51
180
0
ARC
5
118
100
AcDbEntity
8
0
100
AcDbCircle
10
-58.931999999999654
20
-92.483449999999451
30
0
40
2.0000000000000107
210
0
220
0
230
1
100
AcDbArc
50
-89.999999999993889
51
0
0
ARC
5
119
100
AcDbEntity
8
0
100
AcDbCircle
10
-58.932000000000883
20
-81.483449999999635
30
0
40
1.999999999999984
210
0
220
-0
230
1
100
AcDbArc
50
0
51
90.000000000011596
0
ARC
5
120
100
AcDbEntity
8
0
100
AcDbCircle
10
-60.731999999999388
20
-78.283450000000016
30
0
40
1.2000000000000011
210
0
220
0
230
1
100
AcDbArc
50
180
51
270.0000000000116
0
ARC
5
121
100
AcDbEntity
8
0
100
AcDbCircle
10
-63.931999999999675
20
-62.483450000000467
30
0
40
2.0000000000000195
210
0
220
-0
230
1
100
AcDbArc
50
0
51
89.999999999994102
0
ARC
5
122
100
AcDbEntity
8
0
100
AcDbCircle
10
-69.931999999999661
20
-59.283449999999867
30
0
40
1.2000000000000011
210
0
220
0
230
1
100
AcDbArc
50
180
51
269.99999999999454
0
ARC
5
123
100
AcDbEntity
8
0
100
AcDbCircle
10
-69.931999999998993
20
-37.271176462543217
30
0
40
1.200000000000002
210
0
220
0
230
1
100
AcDbArc
50
95.019800131685813
51
180
0
LINE
5
124
100
AcDbEntity
8
0
100
AcDbLine
10
-125.65330388143479
20
-113.62701876990019
30
0
11
-68.131999999999422
21
-113.62701876990158
31
0
0
ARC
5
125
100
AcDbEntity
8
0
100
AcDbCircle
10
-68.131999999999422
20
-111.62701876990157
30
0
40
2.0000000000000107
210
0
220
0
230
1
100
AcDbArc
50
270
51
360
0
ARC
5
126
100
AcDbEntity
8
0
100
AcDbCircle
10
-125.65330388143482
20
-114.82701876990019
30
0
40
1.1999999999999922
210
0
220
-0
230
1
100
AcDbArc
50
89.99999999999865
51
168.39999999999949
0
LINE
5
127
100
AcDbEntity
8
0
100
AcDbLine
10
-167.73199999999977
20
-114.82701876990511
30
0
11
-167.7319999999998
21
-128.05965504666912
31
0
0
ARC
5
128
100
AcDbEntity
8
0
100
AcDbCircle
10
-165.73199999999986
20
-128.05965504666909
30
0
40
1.9999999999999574
210
0
220
0
230
1
100
AcDbArc
50
180
51
258.39999999999901
0
ARC
5
129
100
AcDbEntity
8
0
100
AcDbCircle
10
-168.93199999999979
20
-114.8270187699051
30
0
40
1.2000000000000099
210
-0
220
0
230
1
100
AcDbArc
50
0
51
90
0
LINE
5
130
100
AcDbEntity
8
0
100
AcDbLine
10
-68.211999999999435
20
-34.08344999999975
30
0
11
-68.211999999999577
21
-21.763449999999761
31
0
0
LINE
5
131
100
AcDbEntity
8
0
100
AcDbLine
10
-67.011999999999617
20
-20.563449999999747
30
0
11
-63.131999999999586
21
-20.563449999999619
31
0
0
LINE
5
132
100
AcDbEntity
8
0
100
AcDbLine
10
-207.93199999999959
20
-58.127018769904602
30
0
11
-211.73199999999832
21
-58.127018769904659
31
0
0
LINE
5
133
100
AcDbEntity
8
0
100
AcDbLine
10
-206.7319999999998
20
-40.327018769904683
30
0
11
-206.73199999999954
21
-56.927018769904585
31
0
0
LINE
5
134
100
AcDbEntity
8
0
100
AcDbLine
10
-211.73199999999923
20
-39.127018769904673
30
0
11
-207.93199999999982
21
-39.127018769904694
31
0
0
ARC
5
135
100
AcDbEntity
8
0
100
AcDbCircle
10
-211.73199999999835
20
-60.127018769904623
30
0
40
1.9999999999999662
210
0
220
-0
230
1
100
AcDbArc
50
89.99999999999919
51
180
0
ARC
5
136
100
AcDbEntity
8
0
100
AcDbCircle
10
-211.7319999999992
20
-37.127018769904666
30
0
40
2.0000000000000284
210
0
220
0
230
1
100
AcDbArc
50
180
51
269.9999999999992
0
ARC
5
137
100
AcDbEntity
8
0
100
AcDbCircle
10
-70.211999999999449
20
-34.083449999999765
30
0
40
2.0000000000000089
210
0
220
0
230
1
100
AcDbArc
50
-84.98019986831342
51
0
0
ARC
5
138
100
AcDbEntity
8
0
100
AcDbCircle
10
-63.131999999999657
20
-18.563449999999616
30
0
40
2.0000000000000062
210
0
220
0
230
1
100
AcDbArc
50
-89.999999999997954
51
0
0
LINE
5
139
100
AcDbEntity
8
0
100
AcDbLine
10
-213.73200000000134
20
2.3729812300953368
30
0
11
-213.73199999999926
21
-37.12701876990478
31
0
0
ARC
5
140
100
AcDbEntity
8
0
100
AcDbCircle
10
-207.93199999999959
20
-56.927018769904606
30
0
40
1.2000000000000011
210
0
220
0
230
1
100
AcDbArc
50
-90
51
0
0
ARC
5
141
100
AcDbEntity
8
0
100
AcDbCircle
10
-207.93199999999982
20
-40.327018769904697
30
0
40
1.2000000000000099
210
-0
220
0
230
1
100
AcDbArc
50
0
51
90
0
ARC
5
142
100
AcDbEntity
8
0
100
AcDbCircle
10
-67.011999999999588
20
-21.763449999999747
30
0
40
1.2000000000000011
210
0
220
0
230
1
100
AcDbArc
50
90.000000000001364
51
180
0
ENDSEC
0
SECTION
2
OBJECTS
0
DICTIONARY
5
C
100
AcDbDictionary
3
ACAD_GROUP
350
D
3
ACAD_MLINESTYLE
350
17
0
DICTIONARY
5
D
100
AcDbDictionary
0
DICTIONARY
5
1A
330
C
100
AcDbDictionary
0
DICTIONARY
5
17
100
AcDbDictionary
0
ENDSEC
0
EOF
