0
SECTION
2
HEADER
9
$INSUNITS
70
4
9
$ACADVER
1
AC1014
9
$HANDSEED
5
FFFF
0
ENDSEC
0
SECTION
2
TABLES
0
TABLE
2
VPORT
5
8
100
AcDbSymbolTable
0
ENDTAB
0
TABLE
2
LTYPE
5
5
100
AcDbSymbolTable
0
LTYPE
5
14
100
AcDbSymbolTableRecord
100
AcDbLinetypeTableRecord
2
BYBLOCK
70
0
0
LTYPE
5
15
100
AcDbSymbolTableRecord
100
AcDbLinetypeTableRecord
2
BYLAYER
70
0
0
LTYPE
5
16
100
AcDbSymbolTableRecord
100
AcDbLinetypeTableRecord
2
DASHED
70
0
3
Dashed __ __ __ __ __ __ __ __ __ __ __ __ __ _
72
65
73
2
40
0.75
49
0.5
74
0
49
-0.25
74
0
0
ENDTAB
0
TABLE
2
LAYER
5
2
100
AcDbSymbolTable
70
2
0
LAYER
5
50
100
AcDbSymbolTableRecord
100
AcDbLayerTableRecord
2
0
70
0
62
7
6
CONTINUOUS
0
ENDTAB
0
TABLE
2
STYLE
5
3
100
AcDbSymbolTable
70
1
0
STYLE
5
11
100
AcDbSymbolTableRecord
100
AcDbTextStyleTableRecord
2
STANDARD
70
0
0
ENDTAB
0
TABLE
2
VIEW
5
6
100
AcDbSymbolTable
70
0
0
ENDTAB
0
TABLE
2
UCS
5
7
100
AcDbSymbolTable
70
0
0
ENDTAB
0
TABLE
2
APPID
5
9
100
AcDbSymbolTable
70
2
0
APPID
5
12
100
AcDbSymbolTableRecord
100
AcDbRegAppTableRecord
2
ACAD
70
0
0
ENDTAB
0
TABLE
2
DIMSTYLE
5
A
100
AcDbSymbolTable
70
1
0
ENDTAB
0
TABLE
2
BLOCK_RECORD
5
1
100
AcDbSymbolTable
70
1
0
BLOCK_RECORD
5
1F
100
AcDbSymbolTableRecord
100
AcDbBlockTableRecord
2
*MODEL_SPACE
0
BLOCK_RECORD
5
1B
100
AcDbSymbolTableRecord
100
AcDbBlockTableRecord
2
*PAPER_SPACE
0
ENDTAB
0
ENDSEC
0
SECTION
2
BLOCKS
0
BLOCK
5
20
100
AcDbEntity
100
AcDbBlockBegin
2
*MODEL_SPACE
0
ENDBLK
5
21
100
AcDbEntity
100
AcDbBlockEnd
0
BLOCK
5
1C
100
AcDbEntity
100
AcDbBlockBegin
2
*PAPER_SPACE
0
ENDBLK
5
1D
100
AcDbEntity
100
AcDbBlockEnd
0
ENDSEC
0
SECTION
2
ENTITIES
0
LWPOLYLINE
5
100
100
AcDbEntity
8
0
100
AcDbPolyline
90
36
70
1
43
0.0
10
-213.73200000000134
20
2.3729812300953412
10
-213.73199999999986
20
-111.62701876990471
42
0.41421356237309759
10
-211.73199999999991
20
-113.62701876990469
10
-203.93199999999982
20
-113.62701876990477
42
-0.41421356237309509
10
-202.7319999999998
20
-114.82701876990477
10
-202.7319999999998
20
-116.12701876990478
42
0.41421356237309759
10
-200.7319999999998
20
-118.12701876990477
10
-168.93199999999982
20
-118.12701876990474
42
-0.41421356237309509
10
-167.7319999999998
20
-119.32701876990475
10
-167.7319999999998
20
-128.05965504666912
42
0.35608398273134834
10
-166.13415584229182
20
-130.01880554586776
10
-133.41702060670144
20
-136.73466891799248
42
0.41421356237309048
10
-131.05571426521081
20
-135.17767426108574
10
-126.82879418095403
20
-114.58572526452502
42
-0.35608398273136183
10
-125.65330388143479
20
-113.62701876990019
10
-68.131999999999422
20
-113.62701876990158
42
0.41421356237309243
10
-66.131999999999422
20
-111.62701876990158
10
-66.131999999999422
20
-95.683450000000093
42
-0.41421356237306461
10
-64.931999999999562
20
-94.483450000000104
10
-58.931999999999441
20
-94.483449999999465
42
0.41421356237309759
10
-56.931999999999654
20
-92.483449999999223
10
-56.932000000000897
20
-81.483449999999422
42
0.41421356237312362
10
-58.932000000001288
20
-79.483449999999664
10
-60.731999999999147
20
-79.483450000000019
42
-0.41421356237314921
10
-61.931999999999391
20
-78.28345000000003
10
-61.931999999999654
20
-62.483450000000417
42
0.41421356237305734
10
-63.931999999999469
20
-60.483450000000445
10
-69.931999999999775
20
-60.48344999999987
42
-0.41421356237307339
10
-71.131999999999664
20
-59.283449999999846
10
-71.131999999999152
20
-38.283449999999746
42
-0.41421356237308965
10
-69.93199999999915
20
-37.083449999999772
10
-63.131999999999202
20
-37.083449999999814
42
0.41421356237310281
10
-61.131999999999195
20
-35.083449999999758
10
-61.132000000000318
20
2.3729812300973219
42
0.41421356237309004
10
-63.132000000000346
20
4.3729812300972632
10
-211.73200000000136
20
4.3729812300953625
42
0.41421356237310236
0
ENDSEC
0
SECTION
2
OBJECTS
0
DICTIONARY
5
C
100
AcDbDictionary
3
ACAD_GROUP
350
D
3
ACAD_MLINESTYLE
350
17
0
DICTIONARY
5
D
100
AcDbDictionary
0
DICTIONARY
5
1A
330
C
100
AcDbDictionary
0
DICTIONARY
5
17
100
AcDbDictionary
0
ENDSEC
0
EOF
