0
SECTION
2
HEADER
9
$INSUNITS
70
4
9
$ACADVER
1
AC1014
9
$HANDSEED
5
FFFF
0
ENDSEC
0
SECTION
2
TABLES
0
TABLE
2
VPORT
5
8
100
AcDbSymbolTable
0
ENDTAB
0
TABLE
2
LTYPE
5
5
100
AcDbSymbolTable
0
LTYPE
5
14
100
AcDbSymbolTableRecord
100
AcDbLinetypeTableRecord
2
BYBLOCK
70
0
0
LTYPE
5
15
100
AcDbSymbolTableRecord
100
AcDbLinetypeTableRecord
2
BYLAYER
70
0
0
LTYPE
5
16
100
AcDbSymbolTableRecord
100
AcDbLinetypeTableRecord
2
DASHED
70
0
3
Dashed __ __ __ __ __ __ __ __ __ __ __ __ __ _
72
65
73
2
40
0.75
49
0.5
74
0
49
-0.25
74
0
0
ENDTAB
0
TABLE
2
LAYER
5
2
100
AcDbSymbolTable
70
2
0
LAYER
5
50
100
AcDbSymbolTableRecord
100
AcDbLayerTableRecord
2
0
70
0
62
7
6
CONTINUOUS
0
ENDTAB
0
TABLE
2
STYLE
5
3
100
AcDbSymbolTable
70
1
0
STYLE
5
11
100
AcDbSymbolTableRecord
100
AcDbTextStyleTableRecord
2
STANDARD
70
0
0
ENDTAB
0
TABLE
2
VIEW
5
6
100
AcDbSymbolTable
70
0
0
ENDTAB
0
TABLE
2
UCS
5
7
100
AcDbSymbolTable
70
0
0
ENDTAB
0
TABLE
2
APPID
5
9
100
AcDbSymbolTable
70
2
0
APPID
5
12
100
AcDbSymbolTableRecord
100
AcDbRegAppTableRecord
2
ACAD
70
0
0
ENDTAB
0
TABLE
2
DIMSTYLE
5
A
100
AcDbSymbolTable
70
1
0
ENDTAB
0
TABLE
2
BLOCK_RECORD
5
1
100
AcDbSymbolTable
70
1
0
BLOCK_RECORD
5
1F
100
AcDbSymbolTableRecord
100
AcDbBlockTableRecord
2
*MODEL_SPACE
0
BLOCK_RECORD
5
1B
100
AcDbSymbolTableRecord
100
AcDbBlockTableRecord
2
*PAPER_SPACE
0
ENDTAB
0
ENDSEC
0
SECTION
2
BLOCKS
0
BLOCK
5
20
100
AcDbEntity
100
AcDbBlockBegin
2
*MODEL_SPACE
0
ENDBLK
5
21
100
AcDbEntity
100
AcDbBlockEnd
0
BLOCK
5
1C
100
AcDbEntity
100
AcDbBlockBegin
2
*PAPER_SPACE
0
ENDBLK
5
1D
100
AcDbEntity
100
AcDbBlockEnd
0
ENDSEC
0
SECTION
2
ENTITIES
0
LINE
5
100
100
AcDbEntity
8
0
100
AcDbLine
10
-125.64099055936273
20
-160.75899999999038
30
0
11
-46.548261893237701
21
-154.99417689517298
31
0
0
LINE
5
101
100
AcDbEntity
8
0
100
AcDbLine
10
-43.493649999999953
20
-146.4589999999904
30
0
11
-35.693649999999963
21
-146.4589999999904
31
0
0
ARC
5
102
100
AcDbEntity
8
0
100
AcDbCircle
10
-35.693649999999963
20
-144.4589999999904
30
0
40
1.9999999999999929
210
0
220
0
230
1
100
AcDbArc
50
-90
51
0
0
LINE
5
103
100
AcDbEntity
8
0
100
AcDbLine
10
-33.693649999999963
20
-144.4589999999904
30
0
11
-33.693649999999842
21
-55.259
31
0
0
LINE
5
104
100
AcDbEntity
8
0
100
AcDbLine
10
-52.793649999999843
20
-47.859000000000009
30
0
11
-71.593649999999784
21
-47.858999999999973
31
0
0
LINE
5
105
100
AcDbEntity
8
0
100
AcDbLine
10
-72.193649999999792
20
-47.258999999999972
30
0
11
-72.193649999999806
21
-33.458999999999989
31
0
0
LINE
5
106
100
AcDbEntity
8
0
100
AcDbLine
10
-71.593649999999798
20
-32.858999999999988
30
0
11
-52.793649999999772
21
-32.859000000000002
31
0
0
LINE
5
107
100
AcDbEntity
8
0
100
AcDbLine
10
-52.793649999999772
20
-26.559000000000022
30
0
11
-156.19364999999985
21
-26.558999999999997
31
0
0
ARC
5
108
100
AcDbEntity
8
0
100
AcDbCircle
10
-156.19364999999985
20
-28.55899999999999
30
0
40
1.9999999999999929
210
0
220
-0
230
1
100
AcDbArc
50
90
51
180
0
LINE
5
109
100
AcDbEntity
8
0
100
AcDbLine
10
-158.19364999999982
20
-28.55899999999999
30
0
11
-158.19364999999996
21
-50.855248048995406
31
0
0
LINE
5
110
100
AcDbEntity
8
0
100
AcDbLine
10
-159.76447039325041
20
-51.996515868549409
30
0
11
-194.98847590175555
21
-40.551542698601821
31
0
0
ARC
5
111
100
AcDbEntity
8
0
100
AcDbCircle
10
-195.60650989050632
20
-42.453655731191809
30
0
40
1.9999999999999718
210
0
220
-0
230
1
100
AcDbArc
50
71.999999999973411
51
150.00000000000662
0
LINE
5
112
100
AcDbEntity
8
0
100
AcDbLine
10
-197.3385606980753
20
-41.453655731192015
30
0
11
-205.77877666496917
21
-56.072538612709423
31
0
0
ARC
5
113
100
AcDbEntity
8
0
100
AcDbCircle
10
-204.04672585740028
20
-57.072538612709252
30
0
40
1.9999999999999363
210
0
220
0
230
1
100
AcDbArc
50
150.00000000000452
51
239.99999999480974
0
LINE
5
114
100
AcDbEntity
8
0
100
AcDbLine
10
-205.04672585755716
20
-58.804589420187519
30
0
11
-188.11999999984309
21
-68.577239152682836
31
0
0
ARC
5
115
100
AcDbEntity
8
0
100
AcDbCircle
10
-189.12000000000003
20
-70.309289960161095
30
0
40
1.9999999999999929
210
-0
220
0
230
1
100
AcDbArc
50
0
51
59.999999994808235
0
LINE
5
116
100
AcDbEntity
8
0
100
AcDbLine
10
-187.12000000000003
20
-70.309289960161124
30
0
11
-187.1200000000002
21
-87.159100000001203
31
0
0
ARC
5
117
100
AcDbEntity
8
0
100
AcDbCircle
10
-185.12000000000026
20
-87.159100000001274
30
0
40
1.9999999999999574
210
0
220
0
230
1
100
AcDbArc
50
180
51
270.00000000000324
0
LINE
5
118
100
AcDbEntity
8
0
100
AcDbLine
10
-185.12000000000015
20
-89.159100000001231
30
0
11
-159.82000000000039
21
-89.159100000000109
31
0
0
LINE
5
119
100
AcDbEntity
8
0
100
AcDbLine
10
-158.62000000000037
20
-90.359100000000069
30
0
11
-158.62000000000003
21
-105.15910000000008
31
0
0
ARC
5
120
100
AcDbEntity
8
0
100
AcDbCircle
10
-156.62000000000009
20
-105.15910000000007
30
0
40
1.9999999999999574
210
0
220
0
230
1
100
AcDbArc
50
180
51
270.00000000000159
0
LINE
5
121
100
AcDbEntity
8
0
100
AcDbLine
10
-156.62000000000003
20
-107.15910000000005
30
0
11
-155.12
21
-107.15910000000002
31
0
0
LINE
5
122
100
AcDbEntity
8
0
100
AcDbLine
10
-153.91999999999999
20
-108.35910000000001
30
0
11
-153.91999999999999
21
-128.85899999999032
31
0
0
LINE
5
123
100
AcDbEntity
8
0
100
AcDbLine
10
-155.11999999999998
20
-130.05899999999033
30
0
11
-161.24099055936296
21
-130.05899999999031
31
0
0
ARC
5
124
100
AcDbEntity
8
0
100
AcDbCircle
10
-161.24099055936296
20
-132.05899999999031
30
0
40
2.0000000000000107
210
0
220
-0
230
1
100
AcDbArc
50
90
51
180
0
LINE
5
125
100
AcDbEntity
8
0
100
AcDbLine
10
-163.24099055936296
20
-132.05899999999031
30
0
11
-163.24099055936287
21
-144.05899999999031
31
0
0
LINE
5
126
100
AcDbEntity
8
0
100
AcDbLine
10
-161.2409905593629
20
-146.05899999999031
30
0
11
-133.84099055936281
21
-146.05899999999036
31
0
0
LINE
5
127
100
AcDbEntity
8
0
100
AcDbLine
10
-132.64099055936282
20
-147.25899999999032
30
0
11
-132.64099055936271
21
-160.25899999999038
31
0
0
ARC
5
128
100
AcDbEntity
8
0
100
AcDbCircle
10
-130.64099055936276
20
-160.25899999999041
30
0
40
1.9999999999999574
210
0
220
0
230
1
100
AcDbArc
50
180
51
270.0000000000008
0
LINE
5
129
100
AcDbEntity
8
0
100
AcDbLine
10
-130.64099055936273
20
-162.25899999999035
30
0
11
-127.57748223246645
21
-162.25899999999035
31
0
0
ARC
5
130
100
AcDbEntity
8
0
100
AcDbCircle
10
-71.593649999999784
20
-47.258999999999972
30
0
40
0.59999999999999609
210
0
220
0
230
1
100
AcDbArc
50
180
51
270
0
ARC
5
131
100
AcDbEntity
8
0
100
AcDbCircle
10
-71.593649999999798
20
-33.458999999999989
30
0
40
0.60000000000000053
210
0
220
-0
230
1
100
AcDbArc
50
90
51
180
0
ARC
5
132
100
AcDbEntity
8
0
100
AcDbCircle
10
-159.39364999999995
20
-50.855248048995392
30
0
40
1.2000000000000011
210
0
220
0
230
1
100
AcDbArc
50
251.99999999997402
51
360
0
ARC
5
133
100
AcDbEntity
8
0
100
AcDbCircle
10
-159.82000000000033
20
-90.359100000000083
30
0
40
1.1999999999999744
210
0
220
-0
230
1
100
AcDbArc
50
0
51
90.000000000002714
0
ARC
5
134
100
AcDbEntity
8
0
100
AcDbCircle
10
-155.11999999999998
20
-108.35910000000001
30
0
40
1.1999999999999922
210
0
220
0
230
1
100
AcDbArc
50
0
51
90.000000000001364
0
ARC
5
135
100
AcDbEntity
8
0
100
AcDbCircle
10
-155.11999999999998
20
-128.85899999999032
30
0
40
1.1999999999999922
210
-0
220
0
230
1
100
AcDbArc
50
-90
51
0
0
ARC
5
136
100
AcDbEntity
8
0
100
AcDbCircle
10
-133.84099055936281
20
-147.25899999999035
30
0
40
1.1999999999999922
210
0
220
-0
230
1
100
AcDbArc
50
0
51
90
0
ARC
5
137
100
AcDbEntity
8
0
100
AcDbCircle
10
-161.2409905593629
20
-144.05899999999033
30
0
40
1.9999999999999574
210
0
220
0
230
1
100
AcDbArc
50
180
51
270
0
LINE
5
138
100
AcDbEntity
8
0
100
AcDbLine
10
-44.69364999999997
20
-152.99946832036508
30
0
11
-44.693649999999963
21
-147.65899999999039
31
0
0
ARC
5
139
100
AcDbEntity
8
0
100
AcDbCircle
10
-127.57748223246651
20
-160.25899999999035
30
0
40
2.0000000000000284
210
0
220
0
230
1
100
AcDbArc
50
270.00000000000159
51
345.52248781406979
0
ARC
5
140
100
AcDbEntity
8
0
100
AcDbCircle
10
-46.693649999999977
20
-152.99946832036508
30
0
40
2.0000000000000049
210
0
220
0
230
1
100
AcDbArc
50
-85.831260467805052
51
0
0
ARC
5
141
100
AcDbEntity
8
0
100
AcDbCircle
10
-43.493649999999953
20
-147.65899999999039
30
0
40
1.1999999999999922
210
0
220
-0
230
1
100
AcDbArc
50
90
51
180
0
LINE
5
142
100
AcDbEntity
8
0
100
AcDbLine
10
-34.293649999999843
20
-54.659000000000006
30
0
11
-51.593649999999855
21
-54.659000000000006
31
0
0
LINE
5
143
100
AcDbEntity
8
0
100
AcDbLine
10
-52.193649999999849
20
-54.059000000000012
30
0
11
-52.193649999999856
21
-48.459000000000003
31
0
0
ARC
5
144
100
AcDbEntity
8
0
100
AcDbCircle
10
-34.293649999999843
20
-55.259
30
0
40
0.60000000000000497
210
0
220
0
230
1
100
AcDbArc
50
0
51
90
0
ARC
5
145
100
AcDbEntity
8
0
100
AcDbCircle
10
-51.593649999999855
20
-54.059000000000012
30
0
40
0.59999999999999609
210
0
220
0
230
1
100
AcDbArc
50
180
51
270
0
ARC
5
146
100
AcDbEntity
8
0
100
AcDbCircle
10
-52.793649999999836
20
-48.458999999999996
30
0
40
0.59999999999997833
210
0
220
0
230
1
100
AcDbArc
50
0
51
90.000000000000668
0
LINE
5
147
100
AcDbEntity
8
0
100
AcDbLine
10
-52.193649999999778
20
-32.259
30
0
11
-52.193649999999778
21
-27.15900000000002
31
0
0
ARC
5
148
100
AcDbEntity
8
0
100
AcDbCircle
10
-52.793649999999772
20
-32.259
30
0
40
0.60000000000000053
210
0
220
0
230
1
100
AcDbArc
50
-90
51
0
0
ARC
5
149
100
AcDbEntity
8
0
100
AcDbCircle
10
-52.793649999999772
20
-27.15900000000002
30
0
40
0.59999999999999609
210
0
220
0
230
1
100
AcDbArc
50
0
51
90
0
ENDSEC
0
SECTION
2
OBJECTS
0
DICTIONARY
5
C
100
AcDbDictionary
3
ACAD_GROUP
350
D
3
ACAD_MLINESTYLE
350
17
0
DICTIONARY
5
D
100
AcDbDictionary
0
DICTIONARY
5
1A
330
C
100
AcDbDictionary
0
DICTIONARY
5
17
100
AcDbDictionary
0
ENDSEC
0
EOF
