%TF.GenerationSoftware,KiCad,Pcbnew,8.0.7*%
%TF.CreationDate,2025-08-07T21:50:34+02:00*%
%TF.ProjectId,pcb_keyboard_sx_rj11,7063625f-6b65-4796-926f-6172645f7378,rev?*%
%TF.SameCoordinates,Original*%
%TF.FileFunction,Soldermask,Top*%
%TF.FilePolarity,Negative*%
%FSLAX46Y46*%
G04 Gerber Fmt 4.6, Leading zero omitted, Abs format (unit mm)*
G04 Created by KiCad (PCBNEW 8.0.7) date 2025-08-07 21:50:34*
%MOMM*%
%LPD*%
G01*
G04 APERTURE LIST*
G04 Aperture macros list*
%AMRoundRect*
0 Rectangle with rounded corners*
0 $1 Rounding radius*
0 $2 $3 $4 $5 $6 $7 $8 $9 X,Y pos of 4 corners*
0 Add a 4 corners polygon primitive as box body*
4,1,4,$2,$3,$4,$5,$6,$7,$8,$9,$2,$3,0*
0 Add four circle primitives for the rounded corners*
1,1,$1+$1,$2,$3*
1,1,$1+$1,$4,$5*
1,1,$1+$1,$6,$7*
1,1,$1+$1,$8,$9*
0 Add four rect primitives between the rounded corners*
20,1,$1+$1,$2,$3,$4,$5,0*
20,1,$1+$1,$4,$5,$6,$7,0*
20,1,$1+$1,$6,$7,$8,$9,0*
20,1,$1+$1,$8,$9,$2,$3,0*%
%AMHorizOval*
0 Thick line with rounded ends*
0 $1 width*
0 $2 $3 position (X,Y) of the first rounded end (center of the circle)*
0 $4 $5 position (X,Y) of the second rounded end (center of the circle)*
0 Add line between two ends*
20,1,$1,$2,$3,$4,$5,0*
0 Add two circle primitives to create the rounded ends*
1,1,$1,$2,$3*
1,1,$1,$4,$5*%
%AMRotRect*
0 Rectangle, with rotation*
0 The origin of the aperture is its center*
0 $1 length*
0 $2 width*
0 $3 Rotation angle, in degrees counterclockwise*
0 Add horizontal line*
21,1,$1,$2,0,0,$3*%
G04 Aperture macros list end*
%ADD10C,1.750000*%
%ADD11C,3.050000*%
%ADD12C,4.000000*%
%ADD13C,3.200000*%
%ADD14C,1.200000*%
%ADD15C,3.250000*%
%ADD16RotRect,1.520000X1.520000X101.899000*%
%ADD17C,1.520000*%
%ADD18R,1.700000X1.700000*%
%ADD19O,1.700000X1.700000*%
%ADD20C,1.900000*%
%ADD21C,3.450000*%
%ADD22C,2.200000*%
%ADD23R,1.400000X1.400000*%
%ADD24RoundRect,0.300000X0.450000X0.300000X-0.450000X0.300000X-0.450000X-0.300000X0.450000X-0.300000X0*%
%ADD25RoundRect,0.300000X0.400000X0.300000X-0.400000X0.300000X-0.400000X-0.300000X0.400000X-0.300000X0*%
%ADD26C,1.400000*%
%ADD27O,1.700000X1.400000*%
%ADD28RotRect,1.400000X1.400000X150.000000*%
%ADD29RoundRect,0.300000X0.496410X0.059808X-0.196410X0.459808X-0.496410X-0.059808X0.196410X-0.459808X0*%
%ADD30RotRect,1.700000X1.700000X191.899000*%
%ADD31HorizOval,1.700000X0.000000X0.000000X0.000000X0.000000X0*%
%ADD32RoundRect,0.300000X-0.300000X0.400000X-0.300000X-0.400000X0.300000X-0.400000X0.300000X0.400000X0*%
G04 APERTURE END LIST*
D10*
%TO.C,S34*%
X173829000Y-104157000D03*
D11*
X172559000Y-106697000D03*
D12*
X168749000Y-104157000D03*
D11*
X166209000Y-109237000D03*
D10*
X163669000Y-104157000D03*
%TD*%
%TO.C,S17*%
X102429000Y-66067000D03*
D11*
X101159000Y-68607000D03*
D12*
X97349000Y-66067000D03*
D11*
X94809000Y-71147000D03*
D10*
X92269000Y-66067000D03*
%TD*%
%TO.C,S8*%
X64349000Y-66067000D03*
D11*
X63079000Y-68607000D03*
D12*
X59269000Y-66067000D03*
D11*
X56729000Y-71147000D03*
D10*
X54189000Y-66067000D03*
%TD*%
D13*
%TO.C,H9*%
X116379000Y-47017000D03*
%TD*%
D10*
%TO.C,S3*%
X42927750Y-85107000D03*
D11*
X41657750Y-87647000D03*
D12*
X37847750Y-85107000D03*
D11*
X35307750Y-90187000D03*
D10*
X32767750Y-85107000D03*
%TD*%
%TO.C,S11*%
X78629000Y-104157000D03*
D11*
X77359000Y-106697000D03*
D12*
X73549000Y-104157000D03*
D11*
X71009000Y-109237000D03*
D10*
X68469000Y-104157000D03*
%TD*%
D13*
%TO.C,H6*%
X44979000Y-123187000D03*
%TD*%
D10*
%TO.C,S4*%
X38165250Y-123187000D03*
D11*
X36895250Y-125727000D03*
D12*
X33085250Y-123187000D03*
D11*
X30545250Y-128267000D03*
D10*
X28005250Y-123187000D03*
%TD*%
%TO.C,S13*%
X85765250Y-123187000D03*
D11*
X84495250Y-125727000D03*
D12*
X80685250Y-123187000D03*
D11*
X78145250Y-128267000D03*
D10*
X75605250Y-123187000D03*
%TD*%
%TO.C,S16*%
X97669000Y-104157000D03*
D11*
X96399000Y-106697000D03*
D12*
X92589000Y-104157000D03*
D11*
X90049000Y-109237000D03*
D10*
X87509000Y-104157000D03*
%TD*%
D13*
%TO.C,H7*%
X111619000Y-85107000D03*
%TD*%
D14*
%TO.C,H13*%
X90949000Y-139825000D03*
%TD*%
D13*
%TO.C,H4*%
X171724000Y-125187000D03*
%TD*%
%TO.C,H11*%
X103949000Y-141202000D03*
%TD*%
D10*
%TO.C,S21*%
X109565250Y-123187000D03*
D11*
X108295250Y-125727000D03*
D12*
X104485250Y-123187000D03*
D11*
X101945250Y-128267000D03*
D10*
X99405250Y-123187000D03*
%TD*%
D13*
%TO.C,H5*%
X146127000Y-123187000D03*
%TD*%
D15*
%TO.C,J1*%
X101417158Y-27421526D03*
X99846012Y-19965260D03*
D16*
X94820093Y-26910781D03*
X93772663Y-21939937D03*
D17*
X92072816Y-26191785D03*
X94296379Y-24425357D03*
X91549100Y-23706363D03*
%TD*%
D10*
%TO.C,S22*%
X116709000Y-104157000D03*
D11*
X115439000Y-106697000D03*
D12*
X111629000Y-104157000D03*
D11*
X109089000Y-109237000D03*
D10*
X106549000Y-104157000D03*
%TD*%
D13*
%TO.C,H8*%
X50935750Y-85107000D03*
%TD*%
D18*
%TO.C,J2*%
X70524000Y-32677000D03*
D19*
X70524000Y-30137000D03*
X70524000Y-27597000D03*
X70524000Y-25057000D03*
%TD*%
D13*
%TO.C,H10*%
X59269000Y-47017000D03*
%TD*%
D10*
%TO.C,S7*%
X61965250Y-123187000D03*
D11*
X60695250Y-125727000D03*
D12*
X56885250Y-123187000D03*
D11*
X54345250Y-128267000D03*
D10*
X51805250Y-123187000D03*
%TD*%
%TO.C,S5*%
X47690250Y-104157000D03*
D11*
X46420250Y-106697000D03*
D12*
X42610250Y-104157000D03*
D11*
X40070250Y-109237000D03*
D10*
X37530250Y-104157000D03*
%TD*%
%TO.C,S27*%
X135749000Y-104157000D03*
D11*
X134479000Y-106697000D03*
D12*
X130669000Y-104157000D03*
D11*
X128129000Y-109237000D03*
D10*
X125589000Y-104157000D03*
%TD*%
%TO.C,S28*%
X140509000Y-66067000D03*
D11*
X139239000Y-68607000D03*
D12*
X135429000Y-66067000D03*
D11*
X132889000Y-71147000D03*
D10*
X130349000Y-66067000D03*
%TD*%
D20*
%TO.C,S29*%
X146199000Y-141202000D03*
D21*
X140699000Y-141202000D03*
D20*
X135199000Y-141202000D03*
D22*
X140699000Y-147102000D03*
X135699000Y-145002000D03*
%TD*%
D20*
%TO.C,S20*%
X121449000Y-141202000D03*
D21*
X115949000Y-141202000D03*
D20*
X110449000Y-141202000D03*
D22*
X115949000Y-147102000D03*
X110949000Y-145002000D03*
%TD*%
D14*
%TO.C,H3*%
X62621000Y-104157000D03*
%TD*%
D10*
%TO.C,S23*%
X121469000Y-66067000D03*
D11*
X120199000Y-68607000D03*
D12*
X116389000Y-66067000D03*
D11*
X113849000Y-71147000D03*
D10*
X111309000Y-66067000D03*
%TD*%
%TO.C,S32*%
X154789000Y-104157000D03*
D11*
X153519000Y-106697000D03*
D12*
X149709000Y-104157000D03*
D11*
X147169000Y-109237000D03*
D10*
X144629000Y-104157000D03*
%TD*%
%TO.C,S9*%
X69104000Y-85107000D03*
D11*
X67834000Y-87647000D03*
D12*
X64024000Y-85107000D03*
D11*
X61484000Y-90187000D03*
D10*
X58944000Y-85107000D03*
%TD*%
%TO.C,S2*%
X40546500Y-66057000D03*
D11*
X39276500Y-68597000D03*
D12*
X35466500Y-66057000D03*
D11*
X32926500Y-71137000D03*
D10*
X30386500Y-66057000D03*
%TD*%
D14*
%TO.C,H2*%
X125914000Y-65067000D03*
%TD*%
D18*
%TO.C,TP3*%
X96859000Y-145062000D03*
%TD*%
D14*
%TO.C,H1*%
X47367500Y-66057000D03*
%TD*%
D23*
%TO.C,D6*%
X53774000Y-55537000D03*
D24*
X51724000Y-55537000D03*
D25*
X47874000Y-55537000D03*
D26*
X45774000Y-55537000D03*
%TD*%
D10*
%TO.C,S19*%
X111944000Y-47017000D03*
D11*
X110674000Y-49557000D03*
D12*
X106864000Y-47017000D03*
D11*
X104324000Y-52097000D03*
D10*
X101784000Y-47017000D03*
%TD*%
D18*
%TO.C,TP1*%
X40774000Y-41757000D03*
%TD*%
D10*
%TO.C,S18*%
X107184000Y-85107000D03*
D11*
X105914000Y-87647000D03*
D12*
X102104000Y-85107000D03*
D11*
X99564000Y-90187000D03*
D10*
X97024000Y-85107000D03*
%TD*%
D14*
%TO.C,H12*%
X173224000Y-120187000D03*
%TD*%
D10*
%TO.C,S12*%
X83389000Y-66067000D03*
D11*
X82119000Y-68607000D03*
D12*
X78309000Y-66067000D03*
D11*
X75769000Y-71147000D03*
D10*
X73229000Y-66067000D03*
%TD*%
%TO.C,S10*%
X73864000Y-47017000D03*
D11*
X72594000Y-49557000D03*
D12*
X68784000Y-47017000D03*
D11*
X66244000Y-52097000D03*
D10*
X63704000Y-47017000D03*
%TD*%
%TO.C,S15*%
X92904000Y-47017000D03*
D11*
X91634000Y-49557000D03*
D12*
X87824000Y-47017000D03*
D11*
X85284000Y-52097000D03*
D10*
X82744000Y-47017000D03*
%TD*%
%TO.C,S26*%
X138127750Y-123187000D03*
D11*
X136857750Y-125727000D03*
D12*
X133047750Y-123187000D03*
D11*
X130507750Y-128267000D03*
D10*
X127967750Y-123187000D03*
%TD*%
%TO.C,S25*%
X130984000Y-47017000D03*
D11*
X129714000Y-49557000D03*
D12*
X125904000Y-47017000D03*
D11*
X123364000Y-52097000D03*
D10*
X120824000Y-47017000D03*
%TD*%
D14*
%TO.C,H14*%
X107025400Y-34488774D03*
%TD*%
D10*
%TO.C,S30*%
X145264000Y-85107000D03*
D11*
X143994000Y-87647000D03*
D12*
X140184000Y-85107000D03*
D11*
X137644000Y-90187000D03*
D10*
X135104000Y-85107000D03*
%TD*%
%TO.C,S1*%
X35784000Y-47017000D03*
D11*
X34514000Y-49557000D03*
D12*
X30704000Y-47017000D03*
D11*
X28164000Y-52097000D03*
D10*
X25624000Y-47017000D03*
%TD*%
%TO.C,S33*%
X164304000Y-123187000D03*
D11*
X163034000Y-125727000D03*
D12*
X159224000Y-123187000D03*
D11*
X156684000Y-128267000D03*
D10*
X154144000Y-123187000D03*
%TD*%
%TO.C,S14*%
X88144000Y-85107000D03*
D11*
X86874000Y-87647000D03*
D12*
X83064000Y-85107000D03*
D11*
X80524000Y-90187000D03*
D10*
X77984000Y-85107000D03*
%TD*%
%TO.C,S6*%
X54824000Y-47017000D03*
D11*
X53554000Y-49557000D03*
D12*
X49744000Y-47017000D03*
D11*
X47204000Y-52097000D03*
D10*
X44664000Y-47017000D03*
%TD*%
D18*
%TO.C,TP2*%
X59274000Y-41757000D03*
%TD*%
D10*
%TO.C,S24*%
X126224000Y-85107000D03*
D11*
X124954000Y-87647000D03*
D12*
X121144000Y-85107000D03*
D11*
X118604000Y-90187000D03*
D10*
X116064000Y-85107000D03*
%TD*%
%TO.C,S35*%
X189185409Y-132165000D03*
D11*
X186815557Y-133729705D03*
D12*
X184786000Y-129625000D03*
D11*
X180046295Y-132754409D03*
D10*
X180386591Y-127085000D03*
%TD*%
%TO.C,S31*%
X150024000Y-47017000D03*
D11*
X148754000Y-49557000D03*
D12*
X144944000Y-47017000D03*
D11*
X142404000Y-52097000D03*
D10*
X139864000Y-47017000D03*
%TD*%
D23*
%TO.C,D12*%
X82314000Y-74787000D03*
D25*
X80214000Y-74787000D03*
X76414000Y-74787000D03*
D26*
X74314000Y-74787000D03*
%TD*%
D23*
%TO.C,D33*%
X163814000Y-132467000D03*
D25*
X161714000Y-132467000D03*
X157914000Y-132467000D03*
D26*
X155814000Y-132467000D03*
%TD*%
D19*
%TO.C,U2*%
X74734000Y-152547000D03*
X72194000Y-152547000D03*
D18*
X69654000Y-152547000D03*
D19*
X67114000Y-152547000D03*
X64574000Y-152547000D03*
X62034000Y-152547000D03*
X59494000Y-152547000D03*
D18*
X56954000Y-152547000D03*
D19*
X54414000Y-152547000D03*
X51874000Y-152547000D03*
X49334000Y-152547000D03*
X46794000Y-152547000D03*
D18*
X44254000Y-152547000D03*
D19*
X41714000Y-152547000D03*
X39174000Y-152547000D03*
X36634000Y-152547000D03*
X34094000Y-152547000D03*
D18*
X31554000Y-152547000D03*
D19*
X29014000Y-152547000D03*
X26474000Y-152547000D03*
X26474000Y-134767000D03*
X29014000Y-134767000D03*
D18*
X31554000Y-134767000D03*
D19*
X34094000Y-134767000D03*
X36634000Y-134767000D03*
X39174000Y-134767000D03*
X41714000Y-134767000D03*
D18*
X44254000Y-134767000D03*
D19*
X46794000Y-134767000D03*
X49334000Y-134767000D03*
X51874000Y-134767000D03*
X54414000Y-134767000D03*
D18*
X56954000Y-134767000D03*
D19*
X59494000Y-134767000D03*
X62034000Y-134767000D03*
X64574000Y-134767000D03*
X67114000Y-134767000D03*
D18*
X69654000Y-134767000D03*
D19*
X72194000Y-134767000D03*
X74734000Y-134767000D03*
X26704000Y-146197000D03*
D18*
X26704000Y-143657000D03*
D19*
X26704000Y-141117000D03*
D27*
X75004000Y-144557000D03*
X75004000Y-142757000D03*
%TD*%
D23*
%TO.C,D16*%
X95344000Y-112767000D03*
D25*
X93244000Y-112767000D03*
X89444000Y-112767000D03*
D26*
X87344000Y-112767000D03*
%TD*%
D23*
%TO.C,D15*%
X90651500Y-55768250D03*
D25*
X88551500Y-55768250D03*
X84751500Y-55768250D03*
D26*
X82651500Y-55768250D03*
%TD*%
D23*
%TO.C,D28*%
X139734000Y-74697000D03*
D25*
X137634000Y-74697000D03*
X133834000Y-74697000D03*
D26*
X131734000Y-74697000D03*
%TD*%
D23*
%TO.C,D9*%
X67904000Y-93697000D03*
D25*
X65804000Y-93697000D03*
X62004000Y-93697000D03*
D26*
X59904000Y-93697000D03*
%TD*%
D23*
%TO.C,D30*%
X144251500Y-93728250D03*
D25*
X142151500Y-93728250D03*
X138351500Y-93728250D03*
D26*
X136251500Y-93728250D03*
%TD*%
D23*
%TO.C,D3*%
X41644000Y-93727000D03*
D25*
X39544000Y-93727000D03*
X35744000Y-93727000D03*
D26*
X33644000Y-93727000D03*
%TD*%
D23*
%TO.C,D27*%
X134364000Y-112817000D03*
D25*
X132264000Y-112817000D03*
X128464000Y-112817000D03*
D26*
X126364000Y-112817000D03*
%TD*%
D23*
%TO.C,D11*%
X77244000Y-112847000D03*
D25*
X75144000Y-112847000D03*
X71344000Y-112847000D03*
D26*
X69244000Y-112847000D03*
%TD*%
D23*
%TO.C,D2*%
X39431500Y-74788250D03*
D25*
X37331500Y-74788250D03*
X33531500Y-74788250D03*
D26*
X31431500Y-74788250D03*
%TD*%
D28*
%TO.C,D35*%
X181958102Y-140457000D03*
D29*
X180139448Y-139407000D03*
X176848552Y-137507000D03*
D26*
X175029898Y-136457000D03*
%TD*%
D23*
%TO.C,D22*%
X115151500Y-112768250D03*
D25*
X113051500Y-112768250D03*
X109251500Y-112768250D03*
D26*
X107151500Y-112768250D03*
%TD*%
D23*
%TO.C,D18*%
X106114000Y-93677000D03*
D25*
X104014000Y-93677000D03*
X100214000Y-93677000D03*
D26*
X98114000Y-93677000D03*
%TD*%
D23*
%TO.C,D26*%
X135001500Y-132088250D03*
D25*
X132901500Y-132088250D03*
X129101500Y-132088250D03*
D26*
X127001500Y-132088250D03*
%TD*%
D30*
%TO.C,J4*%
X88204000Y-32687000D03*
D31*
X88727715Y-35172422D03*
%TD*%
D23*
%TO.C,D14*%
X87064000Y-93767000D03*
D25*
X84964000Y-93767000D03*
X81164000Y-93767000D03*
D26*
X79064000Y-93767000D03*
%TD*%
D23*
%TO.C,D17*%
X98494000Y-74877000D03*
D25*
X96394000Y-74877000D03*
X92594000Y-74877000D03*
D26*
X90494000Y-74877000D03*
%TD*%
D23*
%TO.C,D32*%
X153384000Y-112817000D03*
D25*
X151284000Y-112817000D03*
X147484000Y-112817000D03*
D26*
X145384000Y-112817000D03*
%TD*%
D31*
%TO.C,J3*%
X85872101Y-21674435D03*
X86375197Y-24062006D03*
X86898913Y-26547428D03*
X87422628Y-29032850D03*
%TD*%
D23*
%TO.C,D1*%
X34354000Y-55567000D03*
D25*
X32254000Y-55567000D03*
X28454000Y-55567000D03*
D26*
X26354000Y-55567000D03*
%TD*%
D23*
%TO.C,D8*%
X62544000Y-74787000D03*
D25*
X60444000Y-74787000D03*
X56644000Y-74787000D03*
D26*
X54544000Y-74787000D03*
%TD*%
D23*
%TO.C,D13*%
X93054000Y-120887000D03*
D32*
X93054000Y-122987000D03*
X93054000Y-126787000D03*
D26*
X93054000Y-128887000D03*
%TD*%
D23*
%TO.C,D7*%
X71285250Y-121039500D03*
D32*
X71285250Y-123139500D03*
X71285250Y-126939500D03*
D26*
X71285250Y-129039500D03*
%TD*%
D23*
%TO.C,D24*%
X128094000Y-93757000D03*
D25*
X125994000Y-93757000D03*
X122194000Y-93757000D03*
D26*
X120094000Y-93757000D03*
%TD*%
D23*
%TO.C,D4*%
X67285250Y-121039500D03*
D32*
X67285250Y-123139500D03*
X67285250Y-126939500D03*
D26*
X67285250Y-129039500D03*
%TD*%
D23*
%TO.C,D25*%
X125564000Y-55687000D03*
D25*
X123464000Y-55687000D03*
X119664000Y-55687000D03*
D26*
X117564000Y-55687000D03*
%TD*%
D23*
%TO.C,D29*%
X130244000Y-139557000D03*
D32*
X130244000Y-141657000D03*
X130244000Y-145457000D03*
D26*
X130244000Y-147557000D03*
%TD*%
D23*
%TO.C,D23*%
X119934000Y-74597000D03*
D25*
X117834000Y-74597000D03*
X114034000Y-74597000D03*
D26*
X111934000Y-74597000D03*
%TD*%
D23*
%TO.C,D5*%
X54044000Y-112787000D03*
D25*
X51944000Y-112787000D03*
X48144000Y-112787000D03*
D26*
X46044000Y-112787000D03*
%TD*%
D23*
%TO.C,D21*%
X107774000Y-131697000D03*
D25*
X105674000Y-131697000D03*
X101874000Y-131697000D03*
D26*
X99774000Y-131697000D03*
%TD*%
D23*
%TO.C,D20*%
X126244000Y-139517000D03*
D32*
X126244000Y-141617000D03*
X126244000Y-145417000D03*
D26*
X126244000Y-147517000D03*
%TD*%
D23*
%TO.C,D31*%
X138161500Y-55628250D03*
D25*
X136061500Y-55628250D03*
X132261500Y-55628250D03*
D26*
X130161500Y-55628250D03*
%TD*%
D23*
%TO.C,D19*%
X110024000Y-55707000D03*
D25*
X107924000Y-55707000D03*
X104124000Y-55707000D03*
D26*
X102024000Y-55707000D03*
%TD*%
D23*
%TO.C,D34*%
X172181500Y-112818250D03*
D25*
X170081500Y-112818250D03*
X166281500Y-112818250D03*
D26*
X164181500Y-112818250D03*
%TD*%
D23*
%TO.C,D10*%
X72704000Y-55667000D03*
D25*
X70604000Y-55667000D03*
X66804000Y-55667000D03*
D26*
X64704000Y-55667000D03*
%TD*%
M02*
