%TF.GenerationSoftware,KiCad,Pcbnew,8.0.7*%
%TF.CreationDate,2025-05-09T14:20:51+02:00*%
%TF.ProjectId,plate6_sx,706c6174-6536-45f7-9378-2e6b69636164,rev?*%
%TF.SameCoordinates,Original*%
%TF.FileFunction,Copper,L1,Top*%
%TF.FilePolarity,Positive*%
%FSLAX46Y46*%
G04 Gerber Fmt 4.6, Leading zero omitted, Abs format (unit mm)*
G04 Created by KiCad (PCBNEW 8.0.7) date 2025-05-09 14:20:51*
%MOMM*%
%LPD*%
G01*
G04 APERTURE LIST*
G04 APERTURE END LIST*
%TA.AperFunction,NonConductor*%
G36*
X173401889Y-31100185D02*
G01*
X173447644Y-31152989D01*
X173458850Y-31204500D01*
X173458850Y-50480700D01*
X173439165Y-50547739D01*
X173386361Y-50593494D01*
X173334850Y-50604700D01*
X164368458Y-50604700D01*
X164241162Y-50638808D01*
X164127036Y-50704700D01*
X164127033Y-50704702D01*
X164033852Y-50797883D01*
X164033850Y-50797886D01*
X163967958Y-50912012D01*
X163933850Y-51039308D01*
X163933850Y-67745791D01*
X163967958Y-67873087D01*
X164000904Y-67930150D01*
X164033850Y-67987214D01*
X164127036Y-68080400D01*
X164241164Y-68146292D01*
X164368458Y-68180400D01*
X168572850Y-68180400D01*
X168639889Y-68200085D01*
X168685644Y-68252889D01*
X168696850Y-68304400D01*
X168696850Y-86129563D01*
X168696900Y-86130323D01*
X168696900Y-86187010D01*
X168696901Y-86187027D01*
X168731128Y-86447011D01*
X168798997Y-86700305D01*
X168799002Y-86700321D01*
X168899342Y-86942566D01*
X168899345Y-86942573D01*
X168899348Y-86942579D01*
X169030462Y-87169681D01*
X169190097Y-87377727D01*
X169190101Y-87377731D01*
X169375514Y-87563152D01*
X169375524Y-87563162D01*
X169583546Y-87722788D01*
X169583552Y-87722792D01*
X169583561Y-87722799D01*
X169810659Y-87853922D01*
X170052929Y-87954280D01*
X170306225Y-88022159D01*
X170566214Y-88056395D01*
X170622392Y-88056396D01*
X170622430Y-88056400D01*
X170631456Y-88056400D01*
X170697330Y-88056400D01*
X170697331Y-88056400D01*
X170763223Y-88056402D01*
X170763226Y-88056400D01*
X170771846Y-88056401D01*
X170771875Y-88056400D01*
X194963414Y-88056400D01*
X194974224Y-88056871D01*
X195131583Y-88070644D01*
X195152867Y-88074398D01*
X195300194Y-88113878D01*
X195320505Y-88121271D01*
X195458734Y-88185732D01*
X195477452Y-88196539D01*
X195602392Y-88284026D01*
X195618950Y-88297920D01*
X195726801Y-88405775D01*
X195740694Y-88422333D01*
X195828175Y-88547272D01*
X195838982Y-88565991D01*
X195903440Y-88704226D01*
X195910832Y-88724536D01*
X195950308Y-88871864D01*
X195954061Y-88893150D01*
X195967876Y-89051059D01*
X195968348Y-89061866D01*
X195968348Y-106246615D01*
X195967876Y-106257427D01*
X195954103Y-106414790D01*
X195950349Y-106436074D01*
X195910868Y-106583406D01*
X195903475Y-106603716D01*
X195839014Y-106741948D01*
X195828207Y-106760666D01*
X195740715Y-106885615D01*
X195726822Y-106902172D01*
X195618971Y-107010023D01*
X195602414Y-107023916D01*
X195477465Y-107111408D01*
X195458747Y-107122215D01*
X195320515Y-107186676D01*
X195300205Y-107194069D01*
X195152874Y-107233549D01*
X195131590Y-107237303D01*
X194990740Y-107249630D01*
X194974201Y-107251078D01*
X194963391Y-107251550D01*
X188821075Y-107251550D01*
X188821046Y-107251548D01*
X188812423Y-107251548D01*
X188746538Y-107251549D01*
X188746530Y-107251550D01*
X188673075Y-107251550D01*
X188673037Y-107251552D01*
X188615414Y-107251553D01*
X188355424Y-107285789D01*
X188355416Y-107285791D01*
X188102127Y-107353666D01*
X188102111Y-107353672D01*
X187859861Y-107454020D01*
X187859844Y-107454028D01*
X187632767Y-107585135D01*
X187632750Y-107585146D01*
X187424714Y-107744780D01*
X187424704Y-107744789D01*
X187239289Y-107930203D01*
X187239282Y-107930211D01*
X187079650Y-108138244D01*
X187079635Y-108138267D01*
X186948527Y-108365346D01*
X186948519Y-108365363D01*
X186848167Y-108607624D01*
X186780290Y-108860919D01*
X186780288Y-108860929D01*
X186746053Y-109120916D01*
X186746052Y-109178539D01*
X186746050Y-109178577D01*
X186746050Y-109252032D01*
X186746048Y-109326548D01*
X186746050Y-109326577D01*
X186746050Y-124499798D01*
X186745578Y-124510607D01*
X186731807Y-124667979D01*
X186728053Y-124689265D01*
X186688572Y-124836601D01*
X186681179Y-124856912D01*
X186616714Y-124995153D01*
X186605907Y-125013872D01*
X186518412Y-125138823D01*
X186504518Y-125155380D01*
X186396655Y-125263240D01*
X186380096Y-125277134D01*
X186255143Y-125364623D01*
X186236424Y-125375430D01*
X186098179Y-125439891D01*
X186077869Y-125447283D01*
X185930530Y-125486760D01*
X185909242Y-125490513D01*
X185751297Y-125504327D01*
X185740491Y-125504799D01*
X185688572Y-125504798D01*
X185680587Y-125504798D01*
X185680586Y-125504798D01*
X185671963Y-125504798D01*
X185671935Y-125504800D01*
X170149987Y-125504800D01*
X170149252Y-125504846D01*
X170092331Y-125504846D01*
X170092330Y-125504846D01*
X170092326Y-125504846D01*
X169969650Y-125520994D01*
X169832322Y-125539070D01*
X169579000Y-125606941D01*
X169578992Y-125606944D01*
X169336723Y-125707289D01*
X169336707Y-125707297D01*
X169109610Y-125838406D01*
X169109601Y-125838412D01*
X168901542Y-125998055D01*
X168901540Y-125998057D01*
X168716099Y-126183492D01*
X168556449Y-126391546D01*
X168425322Y-126618659D01*
X168425319Y-126618664D01*
X168425317Y-126618670D01*
X168324962Y-126860939D01*
X168324959Y-126860948D01*
X168257083Y-127114253D01*
X168222850Y-127374255D01*
X168222850Y-127505389D01*
X168222849Y-127581266D01*
X168222850Y-127581279D01*
X168222850Y-143180450D01*
X168203165Y-143247489D01*
X168150361Y-143293244D01*
X168098850Y-143304450D01*
X117409850Y-143304450D01*
X117342811Y-143284765D01*
X117297056Y-143231961D01*
X117285850Y-143180450D01*
X117285850Y-134305561D01*
X120129746Y-134305561D01*
X120150128Y-134564551D01*
X120210777Y-134817171D01*
X120310193Y-135057184D01*
X120310195Y-135057188D01*
X120310196Y-135057189D01*
X120445938Y-135278701D01*
X120614661Y-135476250D01*
X120812210Y-135644973D01*
X121033722Y-135780715D01*
X121033724Y-135780715D01*
X121033726Y-135780717D01*
X121095043Y-135806115D01*
X121273740Y-135880134D01*
X121526356Y-135940782D01*
X121785350Y-135961165D01*
X122044344Y-135940782D01*
X122296960Y-135880134D01*
X122536978Y-135780715D01*
X122758490Y-135644973D01*
X122956039Y-135476250D01*
X123124762Y-135278701D01*
X123260504Y-135057189D01*
X123359923Y-134817171D01*
X123420571Y-134564555D01*
X123440954Y-134305561D01*
X123420571Y-134046567D01*
X123359923Y-133793951D01*
X123260504Y-133553933D01*
X123124762Y-133332421D01*
X122956039Y-133134872D01*
X122758490Y-132966149D01*
X122536978Y-132830407D01*
X122536977Y-132830406D01*
X122536973Y-132830404D01*
X122370977Y-132761647D01*
X122296960Y-132730988D01*
X122296961Y-132730988D01*
X122159271Y-132697931D01*
X122044344Y-132670340D01*
X122044342Y-132670339D01*
X122044341Y-132670339D01*
X121785350Y-132649957D01*
X121526359Y-132670339D01*
X121273739Y-132730988D01*
X121033726Y-132830404D01*
X120812209Y-132966149D01*
X120614661Y-133134872D01*
X120445938Y-133332420D01*
X120310193Y-133553937D01*
X120210777Y-133793950D01*
X120150128Y-134046570D01*
X120129746Y-134305561D01*
X117285850Y-134305561D01*
X117285850Y-127362605D01*
X117285850Y-127362603D01*
X117252910Y-127239669D01*
X126284850Y-127239669D01*
X126284850Y-141371452D01*
X126318958Y-141498748D01*
X126351904Y-141555811D01*
X126384850Y-141612875D01*
X126478036Y-141706061D01*
X126592164Y-141771953D01*
X126719458Y-141806061D01*
X126719460Y-141806061D01*
X140851240Y-141806061D01*
X140851242Y-141806061D01*
X140978536Y-141771953D01*
X141092664Y-141706061D01*
X141185850Y-141612875D01*
X141251742Y-141498747D01*
X141285850Y-141371453D01*
X141285850Y-127239669D01*
X151034850Y-127239669D01*
X151034850Y-141371452D01*
X151068958Y-141498748D01*
X151101904Y-141555811D01*
X151134850Y-141612875D01*
X151228036Y-141706061D01*
X151342164Y-141771953D01*
X151469458Y-141806061D01*
X151469460Y-141806061D01*
X165601240Y-141806061D01*
X165601242Y-141806061D01*
X165728536Y-141771953D01*
X165842664Y-141706061D01*
X165935850Y-141612875D01*
X166001742Y-141498747D01*
X166035850Y-141371453D01*
X166035850Y-127239669D01*
X166001742Y-127112375D01*
X165935850Y-126998247D01*
X165842664Y-126905061D01*
X165769622Y-126862890D01*
X165728537Y-126839169D01*
X165664889Y-126822115D01*
X165601242Y-126805061D01*
X151601242Y-126805061D01*
X151469458Y-126805061D01*
X151342162Y-126839169D01*
X151228036Y-126905061D01*
X151228033Y-126905063D01*
X151134852Y-126998244D01*
X151134850Y-126998247D01*
X151068958Y-127112373D01*
X151034850Y-127239669D01*
X141285850Y-127239669D01*
X141251742Y-127112375D01*
X141185850Y-126998247D01*
X141092664Y-126905061D01*
X141019622Y-126862890D01*
X140978537Y-126839169D01*
X140914889Y-126822115D01*
X140851242Y-126805061D01*
X126851242Y-126805061D01*
X126719458Y-126805061D01*
X126592162Y-126839169D01*
X126478036Y-126905061D01*
X126478033Y-126905063D01*
X126384852Y-126998244D01*
X126384850Y-126998247D01*
X126318958Y-127112373D01*
X126284850Y-127239669D01*
X117252910Y-127239669D01*
X117251742Y-127235309D01*
X117185850Y-127121181D01*
X117092664Y-127027995D01*
X117035600Y-126995049D01*
X116978537Y-126962103D01*
X116914889Y-126945049D01*
X116851242Y-126927995D01*
X116851241Y-126927995D01*
X39584500Y-126927995D01*
X39517461Y-126908310D01*
X39471706Y-126855506D01*
X39460500Y-126803995D01*
X39460500Y-109239660D01*
X43539699Y-109239660D01*
X43539699Y-123239660D01*
X43539699Y-123371444D01*
X43556753Y-123435091D01*
X43573807Y-123498739D01*
X43606753Y-123555802D01*
X43639699Y-123612866D01*
X43732885Y-123706052D01*
X43847013Y-123771944D01*
X43974307Y-123806052D01*
X43974309Y-123806052D01*
X58106089Y-123806052D01*
X58106091Y-123806052D01*
X58233385Y-123771944D01*
X58347513Y-123706052D01*
X58440699Y-123612866D01*
X58506591Y-123498738D01*
X58540699Y-123371444D01*
X58540699Y-116305552D01*
X61290680Y-116305552D01*
X61311062Y-116564542D01*
X61371711Y-116817162D01*
X61471127Y-117057175D01*
X61471129Y-117057179D01*
X61471130Y-117057180D01*
X61606872Y-117278692D01*
X61775595Y-117476241D01*
X61973144Y-117644964D01*
X62194656Y-117780706D01*
X62194658Y-117780706D01*
X62194660Y-117780708D01*
X62255977Y-117806106D01*
X62434674Y-117880125D01*
X62687290Y-117940773D01*
X62946284Y-117961156D01*
X63205278Y-117940773D01*
X63457894Y-117880125D01*
X63697912Y-117780706D01*
X63919424Y-117644964D01*
X64116973Y-117476241D01*
X64285696Y-117278692D01*
X64421438Y-117057180D01*
X64520857Y-116817162D01*
X64581505Y-116564546D01*
X64601888Y-116305552D01*
X64581505Y-116046558D01*
X64520857Y-115793942D01*
X64458163Y-115642587D01*
X64421440Y-115553928D01*
X64285701Y-115332421D01*
X64285696Y-115332412D01*
X64116973Y-115134863D01*
X63919424Y-114966140D01*
X63697912Y-114830398D01*
X63697911Y-114830397D01*
X63697907Y-114830395D01*
X63531911Y-114761638D01*
X63457894Y-114730979D01*
X63457895Y-114730979D01*
X63205315Y-114670340D01*
X63205278Y-114670331D01*
X63205276Y-114670330D01*
X63205275Y-114670330D01*
X62946284Y-114649948D01*
X62687293Y-114670330D01*
X62434673Y-114730979D01*
X62194660Y-114830395D01*
X61973143Y-114966140D01*
X61775595Y-115134863D01*
X61606872Y-115332411D01*
X61471127Y-115553928D01*
X61371711Y-115793941D01*
X61311062Y-116046561D01*
X61290680Y-116305552D01*
X58540699Y-116305552D01*
X58540699Y-109239660D01*
X67351869Y-109239660D01*
X67351869Y-123239660D01*
X67351869Y-123371444D01*
X67368923Y-123435091D01*
X67385977Y-123498739D01*
X67418923Y-123555802D01*
X67451869Y-123612866D01*
X67545055Y-123706052D01*
X67659183Y-123771944D01*
X67786477Y-123806052D01*
X67786479Y-123806052D01*
X81918259Y-123806052D01*
X81918261Y-123806052D01*
X82045555Y-123771944D01*
X82159683Y-123706052D01*
X82252869Y-123612866D01*
X82318761Y-123498738D01*
X82352869Y-123371444D01*
X82352869Y-109239660D01*
X91165942Y-109239660D01*
X91165942Y-123239660D01*
X91165942Y-123371444D01*
X91182996Y-123435091D01*
X91200050Y-123498739D01*
X91232996Y-123555802D01*
X91265942Y-123612866D01*
X91359128Y-123706052D01*
X91473256Y-123771944D01*
X91600550Y-123806052D01*
X105575885Y-123806059D01*
X105575889Y-123806061D01*
X105600550Y-123806061D01*
X105732332Y-123806061D01*
X105732334Y-123806061D01*
X105859628Y-123771953D01*
X105973756Y-123706061D01*
X106066942Y-123612875D01*
X106132834Y-123498747D01*
X106166942Y-123371453D01*
X106166942Y-123239669D01*
X106166942Y-109239669D01*
X114976950Y-109239669D01*
X114976950Y-123371452D01*
X115011058Y-123498748D01*
X115044004Y-123555811D01*
X115076950Y-123612875D01*
X115170136Y-123706061D01*
X115268971Y-123763124D01*
X115284246Y-123771943D01*
X115284264Y-123771953D01*
X115411558Y-123806061D01*
X115411560Y-123806061D01*
X129543340Y-123806061D01*
X129543342Y-123806061D01*
X129670636Y-123771953D01*
X129784764Y-123706061D01*
X129877950Y-123612875D01*
X129943842Y-123498747D01*
X129977950Y-123371453D01*
X129977950Y-116305561D01*
X135109396Y-116305561D01*
X135129778Y-116564551D01*
X135190427Y-116817171D01*
X135289843Y-117057184D01*
X135289845Y-117057188D01*
X135289846Y-117057189D01*
X135425588Y-117278701D01*
X135594311Y-117476250D01*
X135791860Y-117644973D01*
X136013372Y-117780715D01*
X136013374Y-117780715D01*
X136013376Y-117780717D01*
X136074693Y-117806115D01*
X136253390Y-117880134D01*
X136506006Y-117940782D01*
X136765000Y-117961165D01*
X137023994Y-117940782D01*
X137276610Y-117880134D01*
X137516628Y-117780715D01*
X137738140Y-117644973D01*
X137935689Y-117476250D01*
X138104412Y-117278701D01*
X138240154Y-117057189D01*
X138339573Y-116817171D01*
X138400221Y-116564555D01*
X138420604Y-116305561D01*
X138400221Y-116046567D01*
X138339573Y-115793951D01*
X138240154Y-115553933D01*
X138104412Y-115332421D01*
X137935689Y-115134872D01*
X137738140Y-114966149D01*
X137516628Y-114830407D01*
X137516627Y-114830406D01*
X137516623Y-114830404D01*
X137350627Y-114761647D01*
X137276610Y-114730988D01*
X137276611Y-114730988D01*
X137138921Y-114697931D01*
X137023994Y-114670340D01*
X137023992Y-114670339D01*
X137023991Y-114670339D01*
X136765000Y-114649957D01*
X136506009Y-114670339D01*
X136253389Y-114730988D01*
X136013376Y-114830404D01*
X135791859Y-114966149D01*
X135594311Y-115134872D01*
X135425588Y-115332420D01*
X135289843Y-115553937D01*
X135190427Y-115793950D01*
X135129778Y-116046570D01*
X135109396Y-116305561D01*
X129977950Y-116305561D01*
X129977950Y-109239669D01*
X143552050Y-109239669D01*
X143552050Y-123371452D01*
X143586158Y-123498748D01*
X143619104Y-123555811D01*
X143652050Y-123612875D01*
X143745236Y-123706061D01*
X143844071Y-123763124D01*
X143859346Y-123771943D01*
X143859364Y-123771953D01*
X143986658Y-123806061D01*
X143986660Y-123806061D01*
X158118440Y-123806061D01*
X158118442Y-123806061D01*
X158245736Y-123771953D01*
X158359864Y-123706061D01*
X158453050Y-123612875D01*
X158518942Y-123498747D01*
X158553050Y-123371453D01*
X158553050Y-116305561D01*
X162493946Y-116305561D01*
X162514328Y-116564551D01*
X162574977Y-116817171D01*
X162674393Y-117057184D01*
X162674395Y-117057188D01*
X162674396Y-117057189D01*
X162810138Y-117278701D01*
X162978861Y-117476250D01*
X163176410Y-117644973D01*
X163397922Y-117780715D01*
X163397924Y-117780715D01*
X163397926Y-117780717D01*
X163459243Y-117806115D01*
X163637940Y-117880134D01*
X163890556Y-117940782D01*
X164149550Y-117961165D01*
X164408544Y-117940782D01*
X164661160Y-117880134D01*
X164901178Y-117780715D01*
X165122690Y-117644973D01*
X165320239Y-117476250D01*
X165488962Y-117278701D01*
X165624704Y-117057189D01*
X165724123Y-116817171D01*
X165784771Y-116564555D01*
X165805154Y-116305561D01*
X165784771Y-116046567D01*
X165724123Y-115793951D01*
X165624704Y-115553933D01*
X165488962Y-115332421D01*
X165320239Y-115134872D01*
X165122690Y-114966149D01*
X164901178Y-114830407D01*
X164901177Y-114830406D01*
X164901173Y-114830404D01*
X164735177Y-114761647D01*
X164661160Y-114730988D01*
X164661161Y-114730988D01*
X164523471Y-114697931D01*
X164408544Y-114670340D01*
X164408542Y-114670339D01*
X164408541Y-114670339D01*
X164149550Y-114649957D01*
X163890559Y-114670339D01*
X163637939Y-114730988D01*
X163397926Y-114830404D01*
X163176409Y-114966149D01*
X162978861Y-115134872D01*
X162810138Y-115332420D01*
X162674393Y-115553937D01*
X162574977Y-115793950D01*
X162514328Y-116046570D01*
X162493946Y-116305561D01*
X158553050Y-116305561D01*
X158553050Y-109239669D01*
X169746050Y-109239669D01*
X169746050Y-123371452D01*
X169780158Y-123498748D01*
X169813104Y-123555811D01*
X169846050Y-123612875D01*
X169939236Y-123706061D01*
X170038071Y-123763124D01*
X170053346Y-123771943D01*
X170053364Y-123771953D01*
X170180658Y-123806061D01*
X170180660Y-123806061D01*
X184312440Y-123806061D01*
X184312442Y-123806061D01*
X184439736Y-123771953D01*
X184553864Y-123706061D01*
X184647050Y-123612875D01*
X184712942Y-123498747D01*
X184747050Y-123371453D01*
X184747050Y-109239669D01*
X184712942Y-109112375D01*
X184647050Y-108998247D01*
X184553864Y-108905061D01*
X184496800Y-108872115D01*
X184439737Y-108839169D01*
X184376089Y-108822115D01*
X184312442Y-108805061D01*
X170312442Y-108805061D01*
X170180658Y-108805061D01*
X170053362Y-108839169D01*
X169939236Y-108905061D01*
X169939233Y-108905063D01*
X169846052Y-108998244D01*
X169846050Y-108998247D01*
X169780158Y-109112373D01*
X169746050Y-109239669D01*
X158553050Y-109239669D01*
X158518942Y-109112375D01*
X158453050Y-108998247D01*
X158359864Y-108905061D01*
X158302800Y-108872115D01*
X158245737Y-108839169D01*
X158182089Y-108822115D01*
X158118442Y-108805061D01*
X144118442Y-108805061D01*
X143986658Y-108805061D01*
X143859362Y-108839169D01*
X143745236Y-108905061D01*
X143745233Y-108905063D01*
X143652052Y-108998244D01*
X143652050Y-108998247D01*
X143586158Y-109112373D01*
X143552050Y-109239669D01*
X129977950Y-109239669D01*
X129943842Y-109112375D01*
X129877950Y-108998247D01*
X129784764Y-108905061D01*
X129727700Y-108872115D01*
X129670637Y-108839169D01*
X129606989Y-108822115D01*
X129543342Y-108805061D01*
X115543342Y-108805061D01*
X115411558Y-108805061D01*
X115284262Y-108839169D01*
X115170136Y-108905061D01*
X115170133Y-108905063D01*
X115076952Y-108998244D01*
X115076950Y-108998247D01*
X115011058Y-109112373D01*
X114976950Y-109239669D01*
X106166942Y-109239669D01*
X106166942Y-109239660D01*
X106132834Y-109112366D01*
X106066942Y-108998238D01*
X105973756Y-108905052D01*
X105897316Y-108860919D01*
X105859629Y-108839160D01*
X105795981Y-108822106D01*
X105732334Y-108805052D01*
X91732334Y-108805052D01*
X91600550Y-108805052D01*
X91473254Y-108839160D01*
X91359128Y-108905052D01*
X91359125Y-108905054D01*
X91265944Y-108998235D01*
X91265942Y-108998238D01*
X91200050Y-109112364D01*
X91165942Y-109239660D01*
X82352869Y-109239660D01*
X82318761Y-109112366D01*
X82252869Y-108998238D01*
X82159683Y-108905052D01*
X82083243Y-108860919D01*
X82045556Y-108839160D01*
X81981908Y-108822106D01*
X81918261Y-108805052D01*
X67918261Y-108805052D01*
X67786477Y-108805052D01*
X67659181Y-108839160D01*
X67545055Y-108905052D01*
X67545052Y-108905054D01*
X67451871Y-108998235D01*
X67451869Y-108998238D01*
X67385977Y-109112364D01*
X67351869Y-109239660D01*
X58540699Y-109239660D01*
X58506591Y-109112366D01*
X58440699Y-108998238D01*
X58347513Y-108905052D01*
X58271073Y-108860919D01*
X58233386Y-108839160D01*
X58169738Y-108822106D01*
X58106091Y-108805052D01*
X44106091Y-108805052D01*
X43974307Y-108805052D01*
X43847011Y-108839160D01*
X43732885Y-108905052D01*
X43732882Y-108905054D01*
X43639701Y-108998235D01*
X43639699Y-108998238D01*
X43573807Y-109112364D01*
X43539699Y-109239660D01*
X39460500Y-109239660D01*
X39460500Y-94890508D01*
X43965180Y-94890508D01*
X43965180Y-97821191D01*
X43999288Y-97948487D01*
X44032234Y-98005550D01*
X44065180Y-98062614D01*
X44158366Y-98155800D01*
X44272494Y-98221692D01*
X44399788Y-98255800D01*
X44666650Y-98255800D01*
X44733689Y-98275485D01*
X44779444Y-98328289D01*
X44790650Y-98379800D01*
X44790650Y-104091091D01*
X44824758Y-104218387D01*
X44857704Y-104275450D01*
X44890650Y-104332514D01*
X44983836Y-104425700D01*
X45097964Y-104491592D01*
X45225258Y-104525700D01*
X46391940Y-104525700D01*
X46458979Y-104545385D01*
X46504734Y-104598189D01*
X46515940Y-104649700D01*
X46515940Y-105291291D01*
X46550048Y-105418587D01*
X46582994Y-105475650D01*
X46615940Y-105532714D01*
X46709126Y-105625900D01*
X46823254Y-105691792D01*
X46950548Y-105725900D01*
X46950550Y-105725900D01*
X50381340Y-105725900D01*
X50381342Y-105725900D01*
X50508636Y-105691792D01*
X50622764Y-105625900D01*
X50715950Y-105532714D01*
X50781842Y-105418586D01*
X50815950Y-105291292D01*
X50815950Y-104649700D01*
X50835635Y-104582661D01*
X50888439Y-104536906D01*
X50939950Y-104525700D01*
X52106640Y-104525700D01*
X52106642Y-104525700D01*
X52233936Y-104491592D01*
X52348064Y-104425700D01*
X52441250Y-104332514D01*
X52507142Y-104218386D01*
X52541250Y-104091092D01*
X52541250Y-100179300D01*
X52560935Y-100112261D01*
X52613739Y-100066506D01*
X52665250Y-100055300D01*
X52941750Y-100055300D01*
X53008789Y-100074985D01*
X53054544Y-100127789D01*
X53065750Y-100179300D01*
X53065750Y-104189308D01*
X53065750Y-104321092D01*
X53068811Y-104332516D01*
X53099858Y-104448387D01*
X53124802Y-104491591D01*
X53165750Y-104562514D01*
X53258936Y-104655700D01*
X53373064Y-104721592D01*
X53500358Y-104755700D01*
X53500360Y-104755700D01*
X67631640Y-104755700D01*
X67631642Y-104755700D01*
X67758936Y-104721592D01*
X67873064Y-104655700D01*
X67966250Y-104562514D01*
X68032142Y-104448386D01*
X68066250Y-104321092D01*
X68066250Y-100179300D01*
X68085935Y-100112261D01*
X68138739Y-100066506D01*
X68190250Y-100055300D01*
X68466750Y-100055300D01*
X68533789Y-100074985D01*
X68579544Y-100127789D01*
X68590750Y-100179300D01*
X68590750Y-104091091D01*
X68624858Y-104218387D01*
X68657804Y-104275450D01*
X68690750Y-104332514D01*
X68783936Y-104425700D01*
X68898064Y-104491592D01*
X69025358Y-104525700D01*
X70190650Y-104525700D01*
X70257689Y-104545385D01*
X70303444Y-104598189D01*
X70314650Y-104649700D01*
X70314650Y-105291291D01*
X70348758Y-105418587D01*
X70381704Y-105475650D01*
X70414650Y-105532714D01*
X70507836Y-105625900D01*
X70621964Y-105691792D01*
X70749258Y-105725900D01*
X70749260Y-105725900D01*
X74181440Y-105725900D01*
X74181442Y-105725900D01*
X74308736Y-105691792D01*
X74422864Y-105625900D01*
X74516050Y-105532714D01*
X74581942Y-105418586D01*
X74616050Y-105291292D01*
X74616050Y-104649700D01*
X74635735Y-104582661D01*
X74688539Y-104536906D01*
X74740050Y-104525700D01*
X75906640Y-104525700D01*
X75906642Y-104525700D01*
X76033936Y-104491592D01*
X76148064Y-104425700D01*
X76241250Y-104332514D01*
X76307142Y-104218386D01*
X76341250Y-104091092D01*
X76341250Y-98379800D01*
X76360935Y-98312761D01*
X76413739Y-98267006D01*
X76465250Y-98255800D01*
X76732140Y-98255800D01*
X76732142Y-98255800D01*
X76859436Y-98221692D01*
X76973564Y-98155800D01*
X77066750Y-98062614D01*
X77132642Y-97948486D01*
X77166750Y-97821192D01*
X77166750Y-97255550D01*
X78938796Y-97255550D01*
X78959178Y-97514540D01*
X79019827Y-97767160D01*
X79119243Y-98007173D01*
X79119245Y-98007177D01*
X79119246Y-98007178D01*
X79254988Y-98228690D01*
X79423711Y-98426239D01*
X79621260Y-98594962D01*
X79842772Y-98730704D01*
X79842774Y-98730704D01*
X79842776Y-98730706D01*
X79904093Y-98756104D01*
X80082790Y-98830123D01*
X80335406Y-98890771D01*
X80594400Y-98911154D01*
X80853394Y-98890771D01*
X81106010Y-98830123D01*
X81346028Y-98730704D01*
X81567540Y-98594962D01*
X81765089Y-98426239D01*
X81933812Y-98228690D01*
X82069554Y-98007178D01*
X82168973Y-97767160D01*
X82229621Y-97514544D01*
X82250004Y-97255550D01*
X82229621Y-96996556D01*
X82168973Y-96743940D01*
X82069554Y-96503922D01*
X81933812Y-96282410D01*
X81765089Y-96084861D01*
X81567540Y-95916138D01*
X81346028Y-95780396D01*
X81346027Y-95780395D01*
X81346023Y-95780393D01*
X81180027Y-95711636D01*
X81106010Y-95680977D01*
X81106011Y-95680977D01*
X80968321Y-95647920D01*
X80853394Y-95620329D01*
X80853392Y-95620328D01*
X80853391Y-95620328D01*
X80594400Y-95599946D01*
X80335409Y-95620328D01*
X80082789Y-95680977D01*
X79842776Y-95780393D01*
X79621259Y-95916138D01*
X79423711Y-96084861D01*
X79254988Y-96282409D01*
X79119243Y-96503926D01*
X79019827Y-96743939D01*
X78959178Y-96996559D01*
X78938796Y-97255550D01*
X77166750Y-97255550D01*
X77166750Y-94890508D01*
X77132642Y-94763214D01*
X77066750Y-94649086D01*
X76973564Y-94555900D01*
X76916500Y-94522954D01*
X76859437Y-94490008D01*
X76795789Y-94472954D01*
X76732142Y-94455900D01*
X76732141Y-94455900D01*
X76465250Y-94455900D01*
X76398211Y-94436215D01*
X76352456Y-94383411D01*
X76341250Y-94331900D01*
X76341250Y-91660410D01*
X76341250Y-91660408D01*
X76307142Y-91533114D01*
X76241250Y-91418986D01*
X76148064Y-91325800D01*
X76091000Y-91292854D01*
X76033937Y-91259908D01*
X75970289Y-91242854D01*
X75906642Y-91225800D01*
X69157142Y-91225800D01*
X69025358Y-91225800D01*
X68898062Y-91259908D01*
X68783936Y-91325800D01*
X68783933Y-91325802D01*
X68690752Y-91418983D01*
X68690750Y-91418986D01*
X68624858Y-91533112D01*
X68590750Y-91660408D01*
X68590750Y-94331900D01*
X68571065Y-94398939D01*
X68518261Y-94444694D01*
X68466750Y-94455900D01*
X68190250Y-94455900D01*
X68123211Y-94436215D01*
X68077456Y-94383411D01*
X68066250Y-94331900D01*
X68066250Y-90190010D01*
X68066250Y-90190008D01*
X84022050Y-90190008D01*
X84022050Y-104189308D01*
X84022050Y-104321092D01*
X84025111Y-104332516D01*
X84056158Y-104448387D01*
X84081102Y-104491591D01*
X84122050Y-104562514D01*
X84215236Y-104655700D01*
X84329364Y-104721592D01*
X84456658Y-104755700D01*
X84456660Y-104755700D01*
X98587740Y-104755700D01*
X98587742Y-104755700D01*
X98715036Y-104721592D01*
X98829164Y-104655700D01*
X98922350Y-104562514D01*
X98988242Y-104448386D01*
X99022350Y-104321092D01*
X99022350Y-90190008D01*
X103072050Y-90190008D01*
X103072050Y-104189308D01*
X103072050Y-104321092D01*
X103075111Y-104332516D01*
X103106158Y-104448387D01*
X103131102Y-104491591D01*
X103172050Y-104562514D01*
X103265236Y-104655700D01*
X103379364Y-104721592D01*
X103506658Y-104755700D01*
X103506660Y-104755700D01*
X117637740Y-104755700D01*
X117637742Y-104755700D01*
X117765036Y-104721592D01*
X117879164Y-104655700D01*
X117972350Y-104562514D01*
X118038242Y-104448386D01*
X118072350Y-104321092D01*
X118072350Y-90190008D01*
X122122050Y-90190008D01*
X122122050Y-104189308D01*
X122122050Y-104321092D01*
X122125111Y-104332516D01*
X122156158Y-104448387D01*
X122181102Y-104491591D01*
X122222050Y-104562514D01*
X122315236Y-104655700D01*
X122429364Y-104721592D01*
X122556658Y-104755700D01*
X122556660Y-104755700D01*
X136687740Y-104755700D01*
X136687742Y-104755700D01*
X136815036Y-104721592D01*
X136929164Y-104655700D01*
X137022350Y-104562514D01*
X137088242Y-104448386D01*
X137122350Y-104321092D01*
X137122350Y-90190008D01*
X141171850Y-90190008D01*
X141171850Y-104189308D01*
X141171850Y-104321092D01*
X141174911Y-104332516D01*
X141205958Y-104448387D01*
X141230902Y-104491591D01*
X141271850Y-104562514D01*
X141365036Y-104655700D01*
X141479164Y-104721592D01*
X141606458Y-104755700D01*
X141606460Y-104755700D01*
X155738240Y-104755700D01*
X155738242Y-104755700D01*
X155865536Y-104721592D01*
X155979664Y-104655700D01*
X156072850Y-104562514D01*
X156138742Y-104448386D01*
X156172850Y-104321092D01*
X156172850Y-90190008D01*
X160221850Y-90190008D01*
X160221850Y-104189308D01*
X160221850Y-104321092D01*
X160224911Y-104332516D01*
X160255958Y-104448387D01*
X160280902Y-104491591D01*
X160321850Y-104562514D01*
X160415036Y-104655700D01*
X160529164Y-104721592D01*
X160656458Y-104755700D01*
X160656460Y-104755700D01*
X174788240Y-104755700D01*
X174788242Y-104755700D01*
X174915536Y-104721592D01*
X175029664Y-104655700D01*
X175122850Y-104562514D01*
X175188742Y-104448386D01*
X175222681Y-104321722D01*
X179268339Y-104321722D01*
X179268339Y-104321727D01*
X179302429Y-104449022D01*
X179368303Y-104563155D01*
X179368308Y-104563162D01*
X179403326Y-104598189D01*
X179461478Y-104656357D01*
X179575597Y-104722265D01*
X179575603Y-104722266D01*
X179575604Y-104722267D01*
X179702883Y-104756390D01*
X179702887Y-104756391D01*
X193687753Y-104758329D01*
X193687759Y-104758331D01*
X193702186Y-104758332D01*
X193702187Y-104758333D01*
X193817650Y-104758347D01*
X193834979Y-104760631D01*
X193850059Y-104758765D01*
X193865576Y-104749887D01*
X193961269Y-104724261D01*
X193961272Y-104724259D01*
X193961273Y-104724259D01*
X193995140Y-104704711D01*
X194075406Y-104658385D01*
X194168605Y-104565212D01*
X194234513Y-104451093D01*
X194268639Y-104323803D01*
X194270599Y-90192720D01*
X194269873Y-90190010D01*
X194236508Y-90065419D01*
X194170634Y-89951286D01*
X194170629Y-89951279D01*
X194077461Y-89858086D01*
X194077460Y-89858085D01*
X193963341Y-89792177D01*
X193963338Y-89792176D01*
X193963333Y-89792174D01*
X193836054Y-89758051D01*
X193836049Y-89758050D01*
X179840634Y-89756109D01*
X179836752Y-89756109D01*
X179836751Y-89756109D01*
X179836749Y-89756108D01*
X179704967Y-89756091D01*
X179704962Y-89756091D01*
X179577667Y-89790181D01*
X179463534Y-89856055D01*
X179463527Y-89856060D01*
X179370334Y-89949228D01*
X179369210Y-89951175D01*
X179369207Y-89951179D01*
X179304427Y-90063343D01*
X179304422Y-90063356D01*
X179270299Y-90190635D01*
X179270298Y-90190640D01*
X179268357Y-104189939D01*
X179268339Y-104321722D01*
X175222681Y-104321722D01*
X175222850Y-104321092D01*
X175222850Y-90190008D01*
X175188742Y-90062714D01*
X175122850Y-89948586D01*
X175029664Y-89855400D01*
X174972600Y-89822454D01*
X174915537Y-89789508D01*
X174851889Y-89772454D01*
X174788242Y-89755400D01*
X160788242Y-89755400D01*
X160656458Y-89755400D01*
X160529162Y-89789508D01*
X160415036Y-89855400D01*
X160415033Y-89855402D01*
X160321852Y-89948583D01*
X160321850Y-89948586D01*
X160255958Y-90062712D01*
X160221850Y-90190008D01*
X156172850Y-90190008D01*
X156138742Y-90062714D01*
X156072850Y-89948586D01*
X155979664Y-89855400D01*
X155922600Y-89822454D01*
X155865537Y-89789508D01*
X155801889Y-89772454D01*
X155738242Y-89755400D01*
X141738242Y-89755400D01*
X141606458Y-89755400D01*
X141479162Y-89789508D01*
X141365036Y-89855400D01*
X141365033Y-89855402D01*
X141271852Y-89948583D01*
X141271850Y-89948586D01*
X141205958Y-90062712D01*
X141171850Y-90190008D01*
X137122350Y-90190008D01*
X137088242Y-90062714D01*
X137022350Y-89948586D01*
X136929164Y-89855400D01*
X136872100Y-89822454D01*
X136815037Y-89789508D01*
X136751389Y-89772454D01*
X136687742Y-89755400D01*
X122688442Y-89755400D01*
X122556658Y-89755400D01*
X122429362Y-89789508D01*
X122315236Y-89855400D01*
X122315233Y-89855402D01*
X122222052Y-89948583D01*
X122222050Y-89948586D01*
X122156158Y-90062712D01*
X122122050Y-90190008D01*
X118072350Y-90190008D01*
X118038242Y-90062714D01*
X117972350Y-89948586D01*
X117879164Y-89855400D01*
X117822100Y-89822454D01*
X117765037Y-89789508D01*
X117701389Y-89772454D01*
X117637742Y-89755400D01*
X103638442Y-89755400D01*
X103506658Y-89755400D01*
X103379362Y-89789508D01*
X103265236Y-89855400D01*
X103265233Y-89855402D01*
X103172052Y-89948583D01*
X103172050Y-89948586D01*
X103106158Y-90062712D01*
X103072050Y-90190008D01*
X99022350Y-90190008D01*
X98988242Y-90062714D01*
X98922350Y-89948586D01*
X98829164Y-89855400D01*
X98772100Y-89822454D01*
X98715037Y-89789508D01*
X98651389Y-89772454D01*
X98587742Y-89755400D01*
X84588442Y-89755400D01*
X84456658Y-89755400D01*
X84329362Y-89789508D01*
X84215236Y-89855400D01*
X84215233Y-89855402D01*
X84122052Y-89948583D01*
X84122050Y-89948586D01*
X84056158Y-90062712D01*
X84022050Y-90190008D01*
X68066250Y-90190008D01*
X68032142Y-90062714D01*
X67966250Y-89948586D01*
X67873064Y-89855400D01*
X67816000Y-89822454D01*
X67758937Y-89789508D01*
X67695289Y-89772454D01*
X67631642Y-89755400D01*
X53632142Y-89755400D01*
X53500358Y-89755400D01*
X53373062Y-89789508D01*
X53258936Y-89855400D01*
X53258933Y-89855402D01*
X53165752Y-89948583D01*
X53165750Y-89948586D01*
X53099858Y-90062712D01*
X53065750Y-90190008D01*
X53065750Y-94331900D01*
X53046065Y-94398939D01*
X52993261Y-94444694D01*
X52941750Y-94455900D01*
X52665250Y-94455900D01*
X52598211Y-94436215D01*
X52552456Y-94383411D01*
X52541250Y-94331900D01*
X52541250Y-91660410D01*
X52541250Y-91660408D01*
X52507142Y-91533114D01*
X52441250Y-91418986D01*
X52348064Y-91325800D01*
X52291000Y-91292854D01*
X52233937Y-91259908D01*
X52170289Y-91242854D01*
X52106642Y-91225800D01*
X45357042Y-91225800D01*
X45225258Y-91225800D01*
X45097962Y-91259908D01*
X44983836Y-91325800D01*
X44983833Y-91325802D01*
X44890652Y-91418983D01*
X44890650Y-91418986D01*
X44824758Y-91533112D01*
X44790650Y-91660408D01*
X44790650Y-94331900D01*
X44770965Y-94398939D01*
X44718161Y-94444694D01*
X44666650Y-94455900D01*
X44399788Y-94455900D01*
X44272492Y-94490008D01*
X44158366Y-94555900D01*
X44158363Y-94555902D01*
X44065182Y-94649083D01*
X44065180Y-94649086D01*
X43999288Y-94763212D01*
X43965180Y-94890508D01*
X39460500Y-94890508D01*
X39460500Y-71140008D01*
X48301880Y-71140008D01*
X48301880Y-85271091D01*
X48335988Y-85398387D01*
X48368934Y-85455450D01*
X48401880Y-85512514D01*
X48495066Y-85605700D01*
X48609194Y-85671592D01*
X48736488Y-85705700D01*
X48736490Y-85705700D01*
X62869140Y-85705700D01*
X62869142Y-85705700D01*
X62996436Y-85671592D01*
X63110564Y-85605700D01*
X63203750Y-85512514D01*
X63269642Y-85398386D01*
X63303750Y-85271092D01*
X63303750Y-78205550D01*
X67244796Y-78205550D01*
X67265178Y-78464540D01*
X67325827Y-78717160D01*
X67425243Y-78957173D01*
X67425245Y-78957177D01*
X67425246Y-78957178D01*
X67560988Y-79178690D01*
X67729711Y-79376239D01*
X67927260Y-79544962D01*
X68148772Y-79680704D01*
X68148774Y-79680704D01*
X68148776Y-79680706D01*
X68210093Y-79706104D01*
X68388790Y-79780123D01*
X68641406Y-79840771D01*
X68900400Y-79861154D01*
X69159394Y-79840771D01*
X69412010Y-79780123D01*
X69652028Y-79680704D01*
X69873540Y-79544962D01*
X70071089Y-79376239D01*
X70239812Y-79178690D01*
X70375554Y-78957178D01*
X70474973Y-78717160D01*
X70535621Y-78464544D01*
X70556004Y-78205550D01*
X70535621Y-77946556D01*
X70474973Y-77693940D01*
X70375554Y-77453922D01*
X70239812Y-77232410D01*
X70071089Y-77034861D01*
X69873540Y-76866138D01*
X69652028Y-76730396D01*
X69652027Y-76730395D01*
X69652023Y-76730393D01*
X69486027Y-76661636D01*
X69412010Y-76630977D01*
X69412011Y-76630977D01*
X69274321Y-76597920D01*
X69159394Y-76570329D01*
X69159392Y-76570328D01*
X69159391Y-76570328D01*
X68900400Y-76549946D01*
X68641409Y-76570328D01*
X68388789Y-76630977D01*
X68148776Y-76730393D01*
X67927259Y-76866138D01*
X67729711Y-77034861D01*
X67560988Y-77232409D01*
X67425243Y-77453926D01*
X67325827Y-77693939D01*
X67265178Y-77946559D01*
X67244796Y-78205550D01*
X63303750Y-78205550D01*
X63303750Y-71140008D01*
X74497050Y-71140008D01*
X74497050Y-85271091D01*
X74531158Y-85398387D01*
X74564104Y-85455450D01*
X74597050Y-85512514D01*
X74690236Y-85605700D01*
X74804364Y-85671592D01*
X74931658Y-85705700D01*
X74931660Y-85705700D01*
X89062740Y-85705700D01*
X89062742Y-85705700D01*
X89190036Y-85671592D01*
X89304164Y-85605700D01*
X89397350Y-85512514D01*
X89463242Y-85398386D01*
X89497350Y-85271092D01*
X89497350Y-71140008D01*
X93547050Y-71140008D01*
X93547050Y-85271091D01*
X93581158Y-85398387D01*
X93614104Y-85455450D01*
X93647050Y-85512514D01*
X93740236Y-85605700D01*
X93854364Y-85671592D01*
X93981658Y-85705700D01*
X93981660Y-85705700D01*
X108112740Y-85705700D01*
X108112742Y-85705700D01*
X108240036Y-85671592D01*
X108354164Y-85605700D01*
X108447350Y-85512514D01*
X108513242Y-85398386D01*
X108547350Y-85271092D01*
X108547350Y-71140008D01*
X112597050Y-71140008D01*
X112597050Y-85271091D01*
X112631158Y-85398387D01*
X112664104Y-85455450D01*
X112697050Y-85512514D01*
X112790236Y-85605700D01*
X112904364Y-85671592D01*
X113031658Y-85705700D01*
X113031660Y-85705700D01*
X127162740Y-85705700D01*
X127162742Y-85705700D01*
X127290036Y-85671592D01*
X127404164Y-85605700D01*
X127497350Y-85512514D01*
X127563242Y-85398386D01*
X127597350Y-85271092D01*
X127597350Y-78205550D01*
X127966596Y-78205550D01*
X127986978Y-78464540D01*
X128047627Y-78717160D01*
X128147043Y-78957173D01*
X128147045Y-78957177D01*
X128147046Y-78957178D01*
X128282788Y-79178690D01*
X128451511Y-79376239D01*
X128649060Y-79544962D01*
X128870572Y-79680704D01*
X128870574Y-79680704D01*
X128870576Y-79680706D01*
X128931893Y-79706104D01*
X129110590Y-79780123D01*
X129363206Y-79840771D01*
X129622200Y-79861154D01*
X129881194Y-79840771D01*
X130133810Y-79780123D01*
X130373828Y-79680704D01*
X130595340Y-79544962D01*
X130792889Y-79376239D01*
X130961612Y-79178690D01*
X131097354Y-78957178D01*
X131196773Y-78717160D01*
X131257421Y-78464544D01*
X131277804Y-78205550D01*
X131257421Y-77946556D01*
X131196773Y-77693940D01*
X131097354Y-77453922D01*
X130961612Y-77232410D01*
X130792889Y-77034861D01*
X130595340Y-76866138D01*
X130373828Y-76730396D01*
X130373827Y-76730395D01*
X130373823Y-76730393D01*
X130207827Y-76661636D01*
X130133810Y-76630977D01*
X130133811Y-76630977D01*
X129996121Y-76597920D01*
X129881194Y-76570329D01*
X129881192Y-76570328D01*
X129881191Y-76570328D01*
X129622200Y-76549946D01*
X129363209Y-76570328D01*
X129110589Y-76630977D01*
X128870576Y-76730393D01*
X128649059Y-76866138D01*
X128451511Y-77034861D01*
X128282788Y-77232409D01*
X128147043Y-77453926D01*
X128047627Y-77693939D01*
X127986978Y-77946559D01*
X127966596Y-78205550D01*
X127597350Y-78205550D01*
X127597350Y-71140008D01*
X131647050Y-71140008D01*
X131647050Y-85271091D01*
X131681158Y-85398387D01*
X131714104Y-85455450D01*
X131747050Y-85512514D01*
X131840236Y-85605700D01*
X131954364Y-85671592D01*
X132081658Y-85705700D01*
X132081660Y-85705700D01*
X146213240Y-85705700D01*
X146213242Y-85705700D01*
X146340536Y-85671592D01*
X146454664Y-85605700D01*
X146547850Y-85512514D01*
X146613742Y-85398386D01*
X146647850Y-85271092D01*
X146647850Y-71140008D01*
X150696850Y-71140008D01*
X150696850Y-85271091D01*
X150730958Y-85398387D01*
X150763904Y-85455450D01*
X150796850Y-85512514D01*
X150890036Y-85605700D01*
X151004164Y-85671592D01*
X151131458Y-85705700D01*
X151131460Y-85705700D01*
X165263240Y-85705700D01*
X165263242Y-85705700D01*
X165390536Y-85671592D01*
X165504664Y-85605700D01*
X165597850Y-85512514D01*
X165663742Y-85398386D01*
X165697850Y-85271092D01*
X165697850Y-71140008D01*
X165663742Y-71012714D01*
X165597850Y-70898586D01*
X165504664Y-70805400D01*
X165447600Y-70772454D01*
X165390537Y-70739508D01*
X165326889Y-70722454D01*
X165263242Y-70705400D01*
X151263242Y-70705400D01*
X151131458Y-70705400D01*
X151004162Y-70739508D01*
X150890036Y-70805400D01*
X150890033Y-70805402D01*
X150796852Y-70898583D01*
X150796850Y-70898586D01*
X150730958Y-71012712D01*
X150696850Y-71140008D01*
X146647850Y-71140008D01*
X146613742Y-71012714D01*
X146547850Y-70898586D01*
X146454664Y-70805400D01*
X146397600Y-70772454D01*
X146340537Y-70739508D01*
X146276889Y-70722454D01*
X146213242Y-70705400D01*
X132213442Y-70705400D01*
X132081658Y-70705400D01*
X131954362Y-70739508D01*
X131840236Y-70805400D01*
X131840233Y-70805402D01*
X131747052Y-70898583D01*
X131747050Y-70898586D01*
X131681158Y-71012712D01*
X131647050Y-71140008D01*
X127597350Y-71140008D01*
X127563242Y-71012714D01*
X127497350Y-70898586D01*
X127404164Y-70805400D01*
X127347100Y-70772454D01*
X127290037Y-70739508D01*
X127226389Y-70722454D01*
X127162742Y-70705400D01*
X113163442Y-70705400D01*
X113031658Y-70705400D01*
X112904362Y-70739508D01*
X112790236Y-70805400D01*
X112790233Y-70805402D01*
X112697052Y-70898583D01*
X112697050Y-70898586D01*
X112631158Y-71012712D01*
X112597050Y-71140008D01*
X108547350Y-71140008D01*
X108513242Y-71012714D01*
X108447350Y-70898586D01*
X108354164Y-70805400D01*
X108297100Y-70772454D01*
X108240037Y-70739508D01*
X108176389Y-70722454D01*
X108112742Y-70705400D01*
X94113442Y-70705400D01*
X93981658Y-70705400D01*
X93854362Y-70739508D01*
X93740236Y-70805400D01*
X93740233Y-70805402D01*
X93647052Y-70898583D01*
X93647050Y-70898586D01*
X93581158Y-71012712D01*
X93547050Y-71140008D01*
X89497350Y-71140008D01*
X89463242Y-71012714D01*
X89397350Y-70898586D01*
X89304164Y-70805400D01*
X89247100Y-70772454D01*
X89190037Y-70739508D01*
X89126389Y-70722454D01*
X89062742Y-70705400D01*
X75063442Y-70705400D01*
X74931658Y-70705400D01*
X74804362Y-70739508D01*
X74690236Y-70805400D01*
X74690233Y-70805402D01*
X74597052Y-70898583D01*
X74597050Y-70898586D01*
X74531158Y-71012712D01*
X74497050Y-71140008D01*
X63303750Y-71140008D01*
X63269642Y-71012714D01*
X63203750Y-70898586D01*
X63110564Y-70805400D01*
X63053500Y-70772454D01*
X62996437Y-70739508D01*
X62932789Y-70722454D01*
X62869142Y-70705400D01*
X48868272Y-70705400D01*
X48736488Y-70705400D01*
X48609192Y-70739508D01*
X48495066Y-70805400D01*
X48495063Y-70805402D01*
X48401882Y-70898583D01*
X48401880Y-70898586D01*
X48335988Y-71012712D01*
X48301880Y-71140008D01*
X39460500Y-71140008D01*
X39460500Y-52090008D01*
X45922010Y-52090008D01*
X45922010Y-66221091D01*
X45956118Y-66348387D01*
X45989064Y-66405450D01*
X46022010Y-66462514D01*
X46115196Y-66555700D01*
X46229324Y-66621592D01*
X46356618Y-66655700D01*
X46356620Y-66655700D01*
X60487940Y-66655700D01*
X60487942Y-66655700D01*
X60615236Y-66621592D01*
X60729364Y-66555700D01*
X60822550Y-66462514D01*
X60888442Y-66348386D01*
X60922550Y-66221092D01*
X60922550Y-52090008D01*
X69734550Y-52090008D01*
X69734550Y-66221091D01*
X69768658Y-66348387D01*
X69801604Y-66405450D01*
X69834550Y-66462514D01*
X69927736Y-66555700D01*
X70041864Y-66621592D01*
X70169158Y-66655700D01*
X70169160Y-66655700D01*
X84300240Y-66655700D01*
X84300242Y-66655700D01*
X84427536Y-66621592D01*
X84541664Y-66555700D01*
X84634850Y-66462514D01*
X84700742Y-66348386D01*
X84734850Y-66221092D01*
X84734850Y-52090008D01*
X88784550Y-52090008D01*
X88784550Y-66221091D01*
X88818658Y-66348387D01*
X88851604Y-66405450D01*
X88884550Y-66462514D01*
X88977736Y-66555700D01*
X89091864Y-66621592D01*
X89219158Y-66655700D01*
X89219160Y-66655700D01*
X103350240Y-66655700D01*
X103350242Y-66655700D01*
X103477536Y-66621592D01*
X103591664Y-66555700D01*
X103684850Y-66462514D01*
X103750742Y-66348386D01*
X103784850Y-66221092D01*
X103784850Y-52090008D01*
X107834550Y-52090008D01*
X107834550Y-66221091D01*
X107868658Y-66348387D01*
X107901604Y-66405450D01*
X107934550Y-66462514D01*
X108027736Y-66555700D01*
X108141864Y-66621592D01*
X108269158Y-66655700D01*
X108269160Y-66655700D01*
X122400240Y-66655700D01*
X122400242Y-66655700D01*
X122527536Y-66621592D01*
X122641664Y-66555700D01*
X122734850Y-66462514D01*
X122800742Y-66348386D01*
X122834850Y-66221092D01*
X122834850Y-52090008D01*
X126884550Y-52090008D01*
X126884550Y-66221091D01*
X126918658Y-66348387D01*
X126951604Y-66405450D01*
X126984550Y-66462514D01*
X127077736Y-66555700D01*
X127191864Y-66621592D01*
X127319158Y-66655700D01*
X127319160Y-66655700D01*
X141450240Y-66655700D01*
X141450242Y-66655700D01*
X141577536Y-66621592D01*
X141691664Y-66555700D01*
X141784850Y-66462514D01*
X141850742Y-66348386D01*
X141884850Y-66221092D01*
X141884850Y-59155550D01*
X142254246Y-59155550D01*
X142274628Y-59414540D01*
X142335277Y-59667160D01*
X142434693Y-59907173D01*
X142434695Y-59907177D01*
X142434696Y-59907178D01*
X142570438Y-60128690D01*
X142739161Y-60326239D01*
X142936710Y-60494962D01*
X143158222Y-60630704D01*
X143158224Y-60630704D01*
X143158226Y-60630706D01*
X143219543Y-60656104D01*
X143398240Y-60730123D01*
X143650856Y-60790771D01*
X143909850Y-60811154D01*
X144168844Y-60790771D01*
X144421460Y-60730123D01*
X144661478Y-60630704D01*
X144882990Y-60494962D01*
X145080539Y-60326239D01*
X145249262Y-60128690D01*
X145385004Y-59907178D01*
X145484423Y-59667160D01*
X145545071Y-59414544D01*
X145565454Y-59155550D01*
X145545071Y-58896556D01*
X145484423Y-58643940D01*
X145385004Y-58403922D01*
X145249262Y-58182410D01*
X145080539Y-57984861D01*
X144882990Y-57816138D01*
X144661478Y-57680396D01*
X144661477Y-57680395D01*
X144661473Y-57680393D01*
X144495477Y-57611636D01*
X144421460Y-57580977D01*
X144421461Y-57580977D01*
X144283771Y-57547920D01*
X144168844Y-57520329D01*
X144168842Y-57520328D01*
X144168841Y-57520328D01*
X143909850Y-57499946D01*
X143650859Y-57520328D01*
X143398239Y-57580977D01*
X143158226Y-57680393D01*
X142936709Y-57816138D01*
X142739161Y-57984861D01*
X142570438Y-58182409D01*
X142434693Y-58403926D01*
X142335277Y-58643939D01*
X142274628Y-58896559D01*
X142254246Y-59155550D01*
X141884850Y-59155550D01*
X141884850Y-52090008D01*
X145934850Y-52090008D01*
X145934850Y-66221091D01*
X145968958Y-66348387D01*
X146001904Y-66405450D01*
X146034850Y-66462514D01*
X146128036Y-66555700D01*
X146242164Y-66621592D01*
X146369458Y-66655700D01*
X146369460Y-66655700D01*
X160500240Y-66655700D01*
X160500242Y-66655700D01*
X160627536Y-66621592D01*
X160741664Y-66555700D01*
X160834850Y-66462514D01*
X160900742Y-66348386D01*
X160934850Y-66221092D01*
X160934850Y-52090008D01*
X160900742Y-51962714D01*
X160834850Y-51848586D01*
X160741664Y-51755400D01*
X160684600Y-51722454D01*
X160627537Y-51689508D01*
X160563889Y-51672454D01*
X160500242Y-51655400D01*
X146501242Y-51655400D01*
X146369458Y-51655400D01*
X146242162Y-51689508D01*
X146128036Y-51755400D01*
X146128033Y-51755402D01*
X146034852Y-51848583D01*
X146034850Y-51848586D01*
X145968958Y-51962712D01*
X145934850Y-52090008D01*
X141884850Y-52090008D01*
X141850742Y-51962714D01*
X141784850Y-51848586D01*
X141691664Y-51755400D01*
X141634600Y-51722454D01*
X141577537Y-51689508D01*
X141513889Y-51672454D01*
X141450242Y-51655400D01*
X127450942Y-51655400D01*
X127319158Y-51655400D01*
X127191862Y-51689508D01*
X127077736Y-51755400D01*
X127077733Y-51755402D01*
X126984552Y-51848583D01*
X126984550Y-51848586D01*
X126918658Y-51962712D01*
X126884550Y-52090008D01*
X122834850Y-52090008D01*
X122800742Y-51962714D01*
X122734850Y-51848586D01*
X122641664Y-51755400D01*
X122584600Y-51722454D01*
X122527537Y-51689508D01*
X122463889Y-51672454D01*
X122400242Y-51655400D01*
X108400942Y-51655400D01*
X108269158Y-51655400D01*
X108141862Y-51689508D01*
X108027736Y-51755400D01*
X108027733Y-51755402D01*
X107934552Y-51848583D01*
X107934550Y-51848586D01*
X107868658Y-51962712D01*
X107834550Y-52090008D01*
X103784850Y-52090008D01*
X103750742Y-51962714D01*
X103684850Y-51848586D01*
X103591664Y-51755400D01*
X103534600Y-51722454D01*
X103477537Y-51689508D01*
X103413889Y-51672454D01*
X103350242Y-51655400D01*
X89350942Y-51655400D01*
X89219158Y-51655400D01*
X89091862Y-51689508D01*
X88977736Y-51755400D01*
X88977733Y-51755402D01*
X88884552Y-51848583D01*
X88884550Y-51848586D01*
X88818658Y-51962712D01*
X88784550Y-52090008D01*
X84734850Y-52090008D01*
X84700742Y-51962714D01*
X84634850Y-51848586D01*
X84541664Y-51755400D01*
X84484600Y-51722454D01*
X84427537Y-51689508D01*
X84363889Y-51672454D01*
X84300242Y-51655400D01*
X70300942Y-51655400D01*
X70169158Y-51655400D01*
X70041862Y-51689508D01*
X69927736Y-51755400D01*
X69927733Y-51755402D01*
X69834552Y-51848583D01*
X69834550Y-51848586D01*
X69768658Y-51962712D01*
X69734550Y-52090008D01*
X60922550Y-52090008D01*
X60888442Y-51962714D01*
X60822550Y-51848586D01*
X60729364Y-51755400D01*
X60672300Y-51722454D01*
X60615237Y-51689508D01*
X60551589Y-51672454D01*
X60487942Y-51655400D01*
X46488402Y-51655400D01*
X46356618Y-51655400D01*
X46229322Y-51689508D01*
X46115196Y-51755400D01*
X46115193Y-51755402D01*
X46022012Y-51848583D01*
X46022010Y-51848586D01*
X45956118Y-51962712D01*
X45922010Y-52090008D01*
X39460500Y-52090008D01*
X39460500Y-33040108D01*
X41159500Y-33040108D01*
X41159500Y-47171091D01*
X41193608Y-47298387D01*
X41226554Y-47355450D01*
X41259500Y-47412514D01*
X41352686Y-47505700D01*
X41466814Y-47571592D01*
X41594108Y-47605700D01*
X41594110Y-47605700D01*
X55725440Y-47605700D01*
X55725442Y-47605700D01*
X55852736Y-47571592D01*
X55966864Y-47505700D01*
X56060050Y-47412514D01*
X56125942Y-47298386D01*
X56160050Y-47171092D01*
X56160050Y-33040108D01*
X60209550Y-33040108D01*
X60209550Y-47171091D01*
X60243658Y-47298387D01*
X60276604Y-47355450D01*
X60309550Y-47412514D01*
X60402736Y-47505700D01*
X60516864Y-47571592D01*
X60644158Y-47605700D01*
X60644160Y-47605700D01*
X74775240Y-47605700D01*
X74775242Y-47605700D01*
X74902536Y-47571592D01*
X75016664Y-47505700D01*
X75109850Y-47412514D01*
X75175742Y-47298386D01*
X75209850Y-47171092D01*
X75209850Y-40105600D01*
X75579096Y-40105600D01*
X75599478Y-40364590D01*
X75660127Y-40617210D01*
X75759543Y-40857223D01*
X75759545Y-40857227D01*
X75759546Y-40857228D01*
X75895288Y-41078740D01*
X76064011Y-41276289D01*
X76261560Y-41445012D01*
X76483072Y-41580754D01*
X76483074Y-41580754D01*
X76483076Y-41580756D01*
X76544393Y-41606154D01*
X76723090Y-41680173D01*
X76975706Y-41740821D01*
X77234700Y-41761204D01*
X77493694Y-41740821D01*
X77746310Y-41680173D01*
X77986328Y-41580754D01*
X78207840Y-41445012D01*
X78405389Y-41276289D01*
X78574112Y-41078740D01*
X78709854Y-40857228D01*
X78809273Y-40617210D01*
X78869921Y-40364594D01*
X78890304Y-40105600D01*
X78869921Y-39846606D01*
X78809273Y-39593990D01*
X78709854Y-39353972D01*
X78574112Y-39132460D01*
X78405389Y-38934911D01*
X78207840Y-38766188D01*
X77986328Y-38630446D01*
X77986327Y-38630445D01*
X77986323Y-38630443D01*
X77820327Y-38561686D01*
X77746310Y-38531027D01*
X77746311Y-38531027D01*
X77608621Y-38497970D01*
X77493694Y-38470379D01*
X77493692Y-38470378D01*
X77493691Y-38470378D01*
X77234700Y-38449996D01*
X76975709Y-38470378D01*
X76723089Y-38531027D01*
X76483076Y-38630443D01*
X76261559Y-38766188D01*
X76064011Y-38934911D01*
X75895288Y-39132459D01*
X75759543Y-39353976D01*
X75660127Y-39593989D01*
X75599478Y-39846609D01*
X75579096Y-40105600D01*
X75209850Y-40105600D01*
X75209850Y-33040108D01*
X79259550Y-33040108D01*
X79259550Y-47171091D01*
X79293658Y-47298387D01*
X79326604Y-47355450D01*
X79359550Y-47412514D01*
X79452736Y-47505700D01*
X79566864Y-47571592D01*
X79694158Y-47605700D01*
X79694160Y-47605700D01*
X93825240Y-47605700D01*
X93825242Y-47605700D01*
X93952536Y-47571592D01*
X94066664Y-47505700D01*
X94159850Y-47412514D01*
X94225742Y-47298386D01*
X94259850Y-47171092D01*
X94259850Y-33040108D01*
X98309550Y-33040108D01*
X98309550Y-47171091D01*
X98343658Y-47298387D01*
X98376604Y-47355450D01*
X98409550Y-47412514D01*
X98502736Y-47505700D01*
X98616864Y-47571592D01*
X98744158Y-47605700D01*
X98744160Y-47605700D01*
X112875240Y-47605700D01*
X112875242Y-47605700D01*
X113002536Y-47571592D01*
X113116664Y-47505700D01*
X113209850Y-47412514D01*
X113275742Y-47298386D01*
X113309850Y-47171092D01*
X113309850Y-33040108D01*
X117359550Y-33040108D01*
X117359550Y-47171091D01*
X117393658Y-47298387D01*
X117426604Y-47355450D01*
X117459550Y-47412514D01*
X117552736Y-47505700D01*
X117666864Y-47571592D01*
X117794158Y-47605700D01*
X117794160Y-47605700D01*
X131925240Y-47605700D01*
X131925242Y-47605700D01*
X132052536Y-47571592D01*
X132166664Y-47505700D01*
X132259850Y-47412514D01*
X132325742Y-47298386D01*
X132359850Y-47171092D01*
X132359850Y-40105600D01*
X132728396Y-40105600D01*
X132748778Y-40364590D01*
X132809427Y-40617210D01*
X132908843Y-40857223D01*
X132908845Y-40857227D01*
X132908846Y-40857228D01*
X133044588Y-41078740D01*
X133213311Y-41276289D01*
X133410860Y-41445012D01*
X133632372Y-41580754D01*
X133632374Y-41580754D01*
X133632376Y-41580756D01*
X133693693Y-41606154D01*
X133872390Y-41680173D01*
X134125006Y-41740821D01*
X134384000Y-41761204D01*
X134642994Y-41740821D01*
X134895610Y-41680173D01*
X135135628Y-41580754D01*
X135357140Y-41445012D01*
X135554689Y-41276289D01*
X135723412Y-41078740D01*
X135859154Y-40857228D01*
X135958573Y-40617210D01*
X136019221Y-40364594D01*
X136039604Y-40105600D01*
X136019221Y-39846606D01*
X135958573Y-39593990D01*
X135859154Y-39353972D01*
X135723412Y-39132460D01*
X135554689Y-38934911D01*
X135357140Y-38766188D01*
X135135628Y-38630446D01*
X135135627Y-38630445D01*
X135135623Y-38630443D01*
X134969627Y-38561686D01*
X134895610Y-38531027D01*
X134895611Y-38531027D01*
X134757921Y-38497970D01*
X134642994Y-38470379D01*
X134642992Y-38470378D01*
X134642991Y-38470378D01*
X134384000Y-38449996D01*
X134125009Y-38470378D01*
X133872389Y-38531027D01*
X133632376Y-38630443D01*
X133410859Y-38766188D01*
X133213311Y-38934911D01*
X133044588Y-39132459D01*
X132908843Y-39353976D01*
X132809427Y-39593989D01*
X132748778Y-39846609D01*
X132728396Y-40105600D01*
X132359850Y-40105600D01*
X132359850Y-33040108D01*
X136408150Y-33040108D01*
X136408150Y-47171091D01*
X136442258Y-47298387D01*
X136475204Y-47355450D01*
X136508150Y-47412514D01*
X136601336Y-47505700D01*
X136715464Y-47571592D01*
X136842758Y-47605700D01*
X136842760Y-47605700D01*
X150975240Y-47605700D01*
X150975242Y-47605700D01*
X151102536Y-47571592D01*
X151216664Y-47505700D01*
X151309850Y-47412514D01*
X151375742Y-47298386D01*
X151409850Y-47171092D01*
X151409850Y-33040108D01*
X155457850Y-33040108D01*
X155457850Y-47171091D01*
X155491958Y-47298387D01*
X155524904Y-47355450D01*
X155557850Y-47412514D01*
X155651036Y-47505700D01*
X155765164Y-47571592D01*
X155892458Y-47605700D01*
X155892460Y-47605700D01*
X170025240Y-47605700D01*
X170025242Y-47605700D01*
X170152536Y-47571592D01*
X170266664Y-47505700D01*
X170359850Y-47412514D01*
X170425742Y-47298386D01*
X170459850Y-47171092D01*
X170459850Y-33040108D01*
X170425742Y-32912814D01*
X170359850Y-32798686D01*
X170266664Y-32705500D01*
X170209600Y-32672554D01*
X170152537Y-32639608D01*
X170088889Y-32622554D01*
X170025242Y-32605500D01*
X156024242Y-32605500D01*
X155892458Y-32605500D01*
X155765162Y-32639608D01*
X155651036Y-32705500D01*
X155651033Y-32705502D01*
X155557852Y-32798683D01*
X155557850Y-32798686D01*
X155491958Y-32912812D01*
X155457850Y-33040108D01*
X151409850Y-33040108D01*
X151375742Y-32912814D01*
X151309850Y-32798686D01*
X151216664Y-32705500D01*
X151159600Y-32672554D01*
X151102537Y-32639608D01*
X151038889Y-32622554D01*
X150975242Y-32605500D01*
X136974542Y-32605500D01*
X136842758Y-32605500D01*
X136715462Y-32639608D01*
X136601336Y-32705500D01*
X136601333Y-32705502D01*
X136508152Y-32798683D01*
X136508150Y-32798686D01*
X136442258Y-32912812D01*
X136408150Y-33040108D01*
X132359850Y-33040108D01*
X132325742Y-32912814D01*
X132259850Y-32798686D01*
X132166664Y-32705500D01*
X132109600Y-32672554D01*
X132052537Y-32639608D01*
X131988889Y-32622554D01*
X131925242Y-32605500D01*
X117925942Y-32605500D01*
X117794158Y-32605500D01*
X117666862Y-32639608D01*
X117552736Y-32705500D01*
X117552733Y-32705502D01*
X117459552Y-32798683D01*
X117459550Y-32798686D01*
X117393658Y-32912812D01*
X117359550Y-33040108D01*
X113309850Y-33040108D01*
X113275742Y-32912814D01*
X113209850Y-32798686D01*
X113116664Y-32705500D01*
X113059600Y-32672554D01*
X113002537Y-32639608D01*
X112938889Y-32622554D01*
X112875242Y-32605500D01*
X98875942Y-32605500D01*
X98744158Y-32605500D01*
X98616862Y-32639608D01*
X98502736Y-32705500D01*
X98502733Y-32705502D01*
X98409552Y-32798683D01*
X98409550Y-32798686D01*
X98343658Y-32912812D01*
X98309550Y-33040108D01*
X94259850Y-33040108D01*
X94225742Y-32912814D01*
X94159850Y-32798686D01*
X94066664Y-32705500D01*
X94009600Y-32672554D01*
X93952537Y-32639608D01*
X93888889Y-32622554D01*
X93825242Y-32605500D01*
X79825942Y-32605500D01*
X79694158Y-32605500D01*
X79566862Y-32639608D01*
X79452736Y-32705500D01*
X79452733Y-32705502D01*
X79359552Y-32798683D01*
X79359550Y-32798686D01*
X79293658Y-32912812D01*
X79259550Y-33040108D01*
X75209850Y-33040108D01*
X75175742Y-32912814D01*
X75109850Y-32798686D01*
X75016664Y-32705500D01*
X74959600Y-32672554D01*
X74902537Y-32639608D01*
X74838889Y-32622554D01*
X74775242Y-32605500D01*
X60775942Y-32605500D01*
X60644158Y-32605500D01*
X60516862Y-32639608D01*
X60402736Y-32705500D01*
X60402733Y-32705502D01*
X60309552Y-32798683D01*
X60309550Y-32798686D01*
X60243658Y-32912812D01*
X60209550Y-33040108D01*
X56160050Y-33040108D01*
X56125942Y-32912814D01*
X56060050Y-32798686D01*
X55966864Y-32705500D01*
X55909800Y-32672554D01*
X55852737Y-32639608D01*
X55789089Y-32622554D01*
X55725442Y-32605500D01*
X41725892Y-32605500D01*
X41594108Y-32605500D01*
X41466812Y-32639608D01*
X41352686Y-32705500D01*
X41352683Y-32705502D01*
X41259502Y-32798683D01*
X41259500Y-32798686D01*
X41193608Y-32912812D01*
X41159500Y-33040108D01*
X39460500Y-33040108D01*
X39460500Y-31204500D01*
X39480185Y-31137461D01*
X39532989Y-31091706D01*
X39584500Y-31080500D01*
X173334850Y-31080500D01*
X173401889Y-31100185D01*
G37*
%TD.AperFunction*%
M02*
