%TF.GenerationSoftware,KiCad,Pcbnew,8.0.7*%
%TF.CreationDate,2025-08-07T20:29:42+02:00*%
%TF.ProjectId,plate6_sx,706c6174-6536-45f7-9378-2e6b69636164,rev?*%
%TF.SameCoordinates,Original*%
%TF.FileFunction,Profile,NP*%
%FSLAX46Y46*%
G04 Gerber Fmt 4.6, Leading zero omitted, Abs format (unit mm)*
G04 Created by KiCad (PCBNEW 8.0.7) date 2025-08-07 20:29:42*
%MOMM*%
%LPD*%
G01*
G04 APERTURE LIST*
%TA.AperFunction,Profile*%
%ADD10C,0.100000*%
%TD*%
G04 APERTURE END LIST*
D10*
X47502380Y-84765200D02*
X47502380Y-70765900D01*
X54359550Y-46665200D02*
X40360000Y-46665200D01*
X164235350Y-126865561D02*
X164235350Y-140865561D01*
X140372350Y-89815900D02*
X154372350Y-89815900D01*
X144847350Y-70765900D02*
X144847350Y-84765200D01*
X159134350Y-65715200D02*
X145135350Y-65715200D01*
X43991150Y-97315300D02*
X43165680Y-97315300D01*
X82934350Y-51715900D02*
X82934350Y-65715200D01*
X77084700Y-39665600D02*
G75*
G02*
X74784700Y-39665600I-1150000J0D01*
G01*
X74784700Y-39665600D02*
G75*
G02*
X77084700Y-39665600I1150000J0D01*
G01*
X111509350Y-32666000D02*
X111509350Y-46665200D01*
X74540750Y-103585200D02*
X72815550Y-103585200D01*
X92747550Y-70765900D02*
X106746850Y-70765900D01*
X66552369Y-108865552D02*
X80552369Y-108865552D01*
X73409350Y-32666000D02*
X73409350Y-46665200D01*
X182946550Y-108865561D02*
X182946550Y-122865561D01*
X125796850Y-70765900D02*
X125796850Y-84765200D01*
X49015450Y-103585200D02*
X49015450Y-104785400D01*
X67791250Y-99114800D02*
X66265750Y-99114800D01*
X45716440Y-103585200D02*
X43991150Y-103585200D01*
X142752550Y-122865561D02*
X142752550Y-108865561D01*
X104366442Y-108865552D02*
X104366442Y-122865561D01*
X74540750Y-94516400D02*
X75366250Y-94516400D01*
X97510050Y-32666000D02*
X111509350Y-32666000D01*
X68750400Y-77765550D02*
G75*
G02*
X66450400Y-77765550I-1150000J0D01*
G01*
X66450400Y-77765550D02*
G75*
G02*
X68750400Y-77765550I1150000J0D01*
G01*
X90366442Y-122865552D02*
X90366442Y-108865552D01*
X59410050Y-32666000D02*
X73409350Y-32666000D01*
X192468148Y-103817842D02*
X178470143Y-103815900D01*
X159134350Y-51715900D02*
X159134350Y-65715200D01*
X37660000Y-126988495D02*
X115485350Y-126988495D01*
X83222550Y-89815900D02*
X97221850Y-89815900D01*
X149609350Y-32666000D02*
X149609350Y-46665200D01*
X111797550Y-70765900D02*
X125796850Y-70765900D01*
X83222550Y-103815200D02*
X83222550Y-89815900D01*
X134234000Y-39665600D02*
G75*
G02*
X131934000Y-39665600I-1150000J0D01*
G01*
X131934000Y-39665600D02*
G75*
G02*
X134234000Y-39665600I1150000J0D01*
G01*
X42531190Y-80021596D02*
G75*
G02*
X40231190Y-80021596I-1150000J0D01*
G01*
X40231190Y-80021596D02*
G75*
G02*
X42531190Y-80021596I1150000J0D01*
G01*
X68935050Y-51715900D02*
X82934350Y-51715900D01*
X168659350Y-32666000D02*
X168659350Y-46665200D01*
X192470090Y-89818542D02*
X192468148Y-103817842D01*
X52266250Y-94516400D02*
X52266250Y-89815900D01*
X116560050Y-46665200D02*
X116560050Y-32666000D01*
X114177450Y-122865561D02*
X114177450Y-108865561D01*
X164235350Y-140865561D02*
X150235350Y-140865561D01*
X145135350Y-51715900D02*
X159134350Y-51715900D01*
X149897350Y-70765900D02*
X163897350Y-70765900D01*
X125485350Y-126865561D02*
X139485350Y-126865561D01*
X61503250Y-70765900D02*
X61503250Y-84765200D01*
X135321850Y-103815200D02*
X121322550Y-103815200D01*
X128177450Y-122865561D02*
X114177450Y-122865561D01*
X68935050Y-65715200D02*
X68935050Y-51715900D01*
X72815550Y-104785400D02*
X69515150Y-104785400D01*
X52266250Y-99114800D02*
X50740750Y-99114800D01*
X168946550Y-108865561D02*
X182946550Y-108865561D01*
X101984350Y-51715900D02*
X101984350Y-65715200D01*
X80552369Y-122865552D02*
X66552369Y-122865552D01*
X66265750Y-89815900D02*
X66265750Y-94516400D01*
X135608650Y-32666000D02*
X149609350Y-32666000D01*
X45122510Y-51715900D02*
X59122050Y-51715900D01*
X142752550Y-108865561D02*
X156752550Y-108865561D01*
X106746850Y-84765200D02*
X92747550Y-84765200D01*
X172659350Y-30140000D02*
X37660000Y-30140000D01*
X111797550Y-84765200D02*
X111797550Y-70765900D01*
X156752550Y-108865561D02*
X156752550Y-122865561D01*
X80552369Y-108865552D02*
X80552369Y-122865552D01*
X56740199Y-108865552D02*
X56740199Y-122865552D01*
X43991150Y-103585200D02*
X43991150Y-97315300D01*
X66552369Y-122865552D02*
X66552369Y-108865552D01*
X111509350Y-46665200D02*
X97510050Y-46665200D01*
X128177450Y-108865561D02*
X128177450Y-122865561D01*
X59410050Y-46665200D02*
X59410050Y-32666000D01*
X69515150Y-103585200D02*
X67791250Y-103585200D01*
X195228969Y-105630545D02*
G75*
G02*
X193728958Y-107130469I-1499969J45D01*
G01*
X163134350Y-50665200D02*
X172659350Y-50665200D01*
X129472200Y-77765550D02*
G75*
G02*
X127172200Y-77765550I-1150000J0D01*
G01*
X127172200Y-77765550D02*
G75*
G02*
X129472200Y-77765550I1150000J0D01*
G01*
X90366442Y-108865552D02*
X104366442Y-108865552D01*
X121322550Y-89815900D02*
X135321850Y-89815900D01*
X167897350Y-85615900D02*
X167897350Y-67239900D01*
X92747550Y-84765200D02*
X92747550Y-70765900D01*
X139485350Y-126865561D02*
X139485350Y-140865561D01*
X169397369Y-87115900D02*
G75*
G02*
X167897300Y-85615900I31J1500100D01*
G01*
X193728969Y-87115900D02*
G75*
G02*
X195229000Y-88615900I31J-1500000D01*
G01*
X56740199Y-122865552D02*
X42740199Y-122865552D01*
X59122050Y-65715200D02*
X45122510Y-65715200D01*
X74540750Y-91286300D02*
X74540750Y-94516400D01*
X185946550Y-124065200D02*
X185946550Y-108630560D01*
X116271850Y-103815200D02*
X102272550Y-103815200D01*
X126085050Y-65715200D02*
X126085050Y-51715900D01*
X52266250Y-89815900D02*
X66265750Y-89815900D01*
X87696850Y-84765200D02*
X73697550Y-84765200D01*
X62796284Y-115865552D02*
G75*
G02*
X60496284Y-115865552I-1150000J0D01*
G01*
X60496284Y-115865552D02*
G75*
G02*
X62796284Y-115865552I1150000J0D01*
G01*
X42740199Y-122865552D02*
X42740199Y-108865552D01*
X163897350Y-70765900D02*
X163897350Y-84765200D01*
X140084350Y-65715200D02*
X126085050Y-65715200D01*
X135608650Y-46665200D02*
X135608650Y-32666000D01*
X182946550Y-122865561D02*
X168946550Y-122865561D01*
X50740750Y-94516400D02*
X52266250Y-94516400D01*
X121635350Y-133865561D02*
G75*
G02*
X119335350Y-133865561I-1150000J0D01*
G01*
X119335350Y-133865561D02*
G75*
G02*
X121635350Y-133865561I1150000J0D01*
G01*
X193728969Y-87115900D02*
X169397369Y-87115900D01*
X87985050Y-65715200D02*
X87985050Y-51715900D01*
X50740750Y-99114800D02*
X50740750Y-103585200D01*
X168659350Y-46665200D02*
X154658350Y-46665200D01*
X43991150Y-91286300D02*
X50740750Y-91286300D01*
X154658350Y-46665200D02*
X154658350Y-32666000D01*
X178470143Y-89818542D02*
X192470090Y-89818542D01*
X116560050Y-32666000D02*
X130559350Y-32666000D01*
X159422350Y-89815900D02*
X173422350Y-89815900D01*
X67791250Y-94516400D02*
X67791250Y-91286300D01*
X54359550Y-32666000D02*
X54359550Y-46665200D01*
X121034350Y-51715900D02*
X121034350Y-65715200D01*
X67791250Y-91286300D02*
X74540750Y-91286300D01*
X87696850Y-70765900D02*
X87696850Y-84765200D01*
X52266250Y-103815200D02*
X52266250Y-99114800D01*
X130559350Y-32666000D02*
X130559350Y-46665200D01*
X173422350Y-103815200D02*
X159422350Y-103815200D01*
X156752550Y-122865561D02*
X142752550Y-122865561D01*
X73409350Y-46665200D02*
X59410050Y-46665200D01*
X154372350Y-89815900D02*
X154372350Y-103815200D01*
X102272550Y-89815900D02*
X116271850Y-89815900D01*
X115485350Y-126988495D02*
X115485350Y-143364950D01*
X144847350Y-84765200D02*
X130847550Y-84765200D01*
X66265750Y-103815200D02*
X52266250Y-103815200D01*
X82934350Y-65715200D02*
X68935050Y-65715200D01*
X43991150Y-94516400D02*
X43991150Y-91286300D01*
X159422350Y-103815200D02*
X159422350Y-89815900D01*
X130559350Y-46665200D02*
X116560050Y-46665200D01*
X69515150Y-104785400D02*
X69515150Y-103585200D01*
X140372350Y-103815200D02*
X140372350Y-89815900D01*
X72815550Y-103585200D02*
X72815550Y-104785400D01*
X107035050Y-65715200D02*
X107035050Y-51715900D01*
X167423350Y-143364950D02*
X167423350Y-127065350D01*
X185946550Y-108630560D02*
G75*
G02*
X187446559Y-107130650I1499950J-40D01*
G01*
X92459350Y-46665200D02*
X78460050Y-46665200D01*
X172659350Y-50665200D02*
X172659350Y-30140000D01*
X74540750Y-97315300D02*
X74540750Y-103585200D01*
X126085050Y-51715900D02*
X140084350Y-51715900D01*
X40360000Y-32666000D02*
X54359550Y-32666000D01*
X59122050Y-51715900D02*
X59122050Y-65715200D01*
X195228969Y-105630545D02*
X195228969Y-88615900D01*
X97221850Y-103815200D02*
X83222550Y-103815200D01*
X130847550Y-84765200D02*
X130847550Y-70765900D01*
X45122510Y-65715200D02*
X45122510Y-51715900D01*
X102272550Y-103815200D02*
X102272550Y-89815900D01*
X104366442Y-122865561D02*
X90366442Y-122865552D01*
X37660000Y-30140000D02*
X37660000Y-126988495D01*
X185946550Y-124065200D02*
G75*
G02*
X184446449Y-125565250I-1500050J0D01*
G01*
X121034350Y-65715200D02*
X107035050Y-65715200D01*
X66265750Y-99114800D02*
X66265750Y-103815200D01*
X154372350Y-103815200D02*
X140372350Y-103815200D01*
X75366250Y-94516400D02*
X75366250Y-97315300D01*
X43165680Y-97315300D02*
X43165680Y-94516400D01*
X50740750Y-91286300D02*
X50740750Y-94516400D01*
X61503250Y-84765200D02*
X47502380Y-84765200D01*
X168937752Y-125565300D02*
X184446449Y-125565300D01*
X107035050Y-51715900D02*
X121034350Y-51715900D01*
X75366250Y-97315300D02*
X74540750Y-97315300D01*
X135321850Y-89815900D02*
X135321850Y-103815200D01*
X114177450Y-108865561D02*
X128177450Y-108865561D01*
X150235350Y-126865561D02*
X164235350Y-126865561D01*
X140084350Y-51715900D02*
X140084350Y-65715200D01*
X163897350Y-84765200D02*
X149897350Y-84765200D01*
X150235350Y-140865561D02*
X150235350Y-126865561D01*
X121322550Y-103815200D02*
X121322550Y-89815900D01*
X167423350Y-127065350D02*
G75*
G02*
X168937752Y-125565318I1500150J-50D01*
G01*
X125796850Y-84765200D02*
X111797550Y-84765200D01*
X101984350Y-65715200D02*
X87985050Y-65715200D01*
X49015450Y-104785400D02*
X45716440Y-104785400D01*
X145135350Y-65715200D02*
X145135350Y-51715900D01*
X43165680Y-94516400D02*
X43991150Y-94516400D01*
X40360000Y-46665200D02*
X40360000Y-32666000D01*
X78460050Y-46665200D02*
X78460050Y-32666000D01*
X97221850Y-89815900D02*
X97221850Y-103815200D01*
X92459350Y-32666000D02*
X92459350Y-46665200D01*
X163999550Y-115865561D02*
G75*
G02*
X161699550Y-115865561I-1150000J0D01*
G01*
X161699550Y-115865561D02*
G75*
G02*
X163999550Y-115865561I1150000J0D01*
G01*
X106746850Y-70765900D02*
X106746850Y-84765200D01*
X73697550Y-70765900D02*
X87696850Y-70765900D01*
X163134350Y-67239900D02*
X163134350Y-50665200D01*
X73697550Y-84765200D02*
X73697550Y-70765900D01*
X50740750Y-103585200D02*
X49015450Y-103585200D01*
X116271850Y-89815900D02*
X116271850Y-103815200D01*
X149897350Y-84765200D02*
X149897350Y-70765900D01*
X125485350Y-140865561D02*
X125485350Y-126865561D01*
X97510050Y-46665200D02*
X97510050Y-32666000D01*
X168946550Y-122865561D02*
X168946550Y-108865561D01*
X154658350Y-32666000D02*
X168659350Y-32666000D01*
X167897350Y-67239900D02*
X163134350Y-67239900D01*
X47502380Y-70765900D02*
X61503250Y-70765900D01*
X66265750Y-94516400D02*
X67791250Y-94516400D01*
X87985050Y-51715900D02*
X101984350Y-51715900D01*
X45716440Y-104785400D02*
X45716440Y-103585200D01*
X173422350Y-89815900D02*
X173422350Y-103815200D01*
X178470143Y-103815900D02*
X178470143Y-89818542D01*
X115485350Y-143364950D02*
X167423350Y-143364950D01*
X149609350Y-46665200D02*
X135608650Y-46665200D01*
X42740199Y-108865552D02*
X56740199Y-108865552D01*
X78460050Y-32666000D02*
X92459350Y-32666000D01*
X187446559Y-107130556D02*
X193728958Y-107130556D01*
X130847550Y-70765900D02*
X144847350Y-70765900D01*
X67791250Y-103585200D02*
X67791250Y-99114800D01*
X139485350Y-140865561D02*
X125485350Y-140865561D01*
M02*
