%TF.GenerationSoftware,KiCad,Pcbnew,8.0.7*%
%TF.CreationDate,2025-08-07T20:29:42+02:00*%
%TF.ProjectId,plate6_sx,706c6174-6536-45f7-9378-2e6b69636164,rev?*%
%TF.SameCoordinates,Original*%
%TF.FileFunction,Copper,L1,Top*%
%TF.FilePolarity,Positive*%
%FSLAX46Y46*%
G04 Gerber Fmt 4.6, Leading zero omitted, Abs format (unit mm)*
G04 Created by KiCad (PCBNEW 8.0.7) date 2025-08-07 20:29:42*
%MOMM*%
%LPD*%
G01*
G04 APERTURE LIST*
G04 APERTURE END LIST*
%TA.AperFunction,NonConductor*%
G36*
X172602389Y-30159685D02*
G01*
X172648144Y-30212489D01*
X172659350Y-30264000D01*
X172659350Y-50541200D01*
X172639665Y-50608239D01*
X172586861Y-50653994D01*
X172535350Y-50665200D01*
X163134350Y-50665200D01*
X163134350Y-67239900D01*
X167773350Y-67239900D01*
X167840389Y-67259585D01*
X167886144Y-67312389D01*
X167897350Y-67363900D01*
X167897350Y-85615899D01*
X167899670Y-85733768D01*
X167936559Y-85966598D01*
X167936559Y-85966599D01*
X167991547Y-86135805D01*
X168009418Y-86190794D01*
X168065021Y-86299911D01*
X168116446Y-86400829D01*
X168255014Y-86591540D01*
X168421714Y-86758232D01*
X168612420Y-86896783D01*
X168612427Y-86896788D01*
X168822470Y-87003809D01*
X169046668Y-87076656D01*
X169279501Y-87113536D01*
X169344983Y-87114849D01*
X169397365Y-87115900D01*
X169397369Y-87115900D01*
X193727798Y-87115900D01*
X193730099Y-87115920D01*
X193838256Y-87117929D01*
X193855341Y-87119433D01*
X194070078Y-87153440D01*
X194088985Y-87157978D01*
X194294665Y-87224805D01*
X194312626Y-87232245D01*
X194505315Y-87330421D01*
X194521899Y-87340584D01*
X194696849Y-87467689D01*
X194711639Y-87480320D01*
X194864555Y-87633233D01*
X194877191Y-87648028D01*
X195004297Y-87822970D01*
X195014464Y-87839561D01*
X195112639Y-88032237D01*
X195120086Y-88050215D01*
X195186910Y-88255878D01*
X195191452Y-88274798D01*
X195225459Y-88489506D01*
X195226965Y-88506630D01*
X195228948Y-88614753D01*
X195228969Y-88617027D01*
X195228969Y-105629330D01*
X195228945Y-105631767D01*
X195226820Y-105739878D01*
X195225317Y-105756842D01*
X195191296Y-105971606D01*
X195186753Y-105990527D01*
X195119931Y-106196163D01*
X195112484Y-106214139D01*
X195014318Y-106406785D01*
X195004151Y-106423375D01*
X194877058Y-106598293D01*
X194864421Y-106613089D01*
X194711524Y-106765977D01*
X194696728Y-106778613D01*
X194521800Y-106905699D01*
X194505208Y-106915866D01*
X194312557Y-107014019D01*
X194294581Y-107021464D01*
X194088943Y-107088274D01*
X194070022Y-107092816D01*
X193855208Y-107126832D01*
X193838335Y-107128332D01*
X193733640Y-107130460D01*
X193730236Y-107130530D01*
X193727717Y-107130556D01*
X187446559Y-107130556D01*
X187334878Y-107132627D01*
X187328673Y-107132743D01*
X187328668Y-107132743D01*
X187095803Y-107169617D01*
X187095801Y-107169618D01*
X186871573Y-107242465D01*
X186669038Y-107345652D01*
X186661499Y-107349494D01*
X186566126Y-107418781D01*
X186470751Y-107488070D01*
X186304037Y-107654773D01*
X186239512Y-107743577D01*
X186165446Y-107845514D01*
X186165443Y-107845518D01*
X186165440Y-107845524D01*
X186058404Y-108055580D01*
X185985539Y-108279810D01*
X185948651Y-108512670D01*
X185948650Y-108512678D01*
X185946550Y-108630542D01*
X185946550Y-124064024D01*
X185946529Y-124066330D01*
X185944517Y-124174494D01*
X185943011Y-124191586D01*
X185909001Y-124406313D01*
X185904459Y-124425234D01*
X185837629Y-124630911D01*
X185830182Y-124648888D01*
X185732005Y-124841567D01*
X185721838Y-124858158D01*
X185594724Y-125033110D01*
X185582087Y-125047906D01*
X185429167Y-125200821D01*
X185414371Y-125213457D01*
X185239415Y-125340565D01*
X185222823Y-125350732D01*
X185030139Y-125448903D01*
X185012162Y-125456349D01*
X184806489Y-125523170D01*
X184787568Y-125527712D01*
X184572806Y-125561720D01*
X184555766Y-125563224D01*
X184447608Y-125565278D01*
X184445254Y-125565300D01*
X168937703Y-125565300D01*
X168819143Y-125566420D01*
X168819139Y-125566420D01*
X168745555Y-125577430D01*
X168584541Y-125601523D01*
X168584538Y-125601524D01*
X168584535Y-125601524D01*
X168358400Y-125673103D01*
X168358387Y-125673108D01*
X168146339Y-125779378D01*
X168146328Y-125779385D01*
X167953641Y-125917705D01*
X167953632Y-125917712D01*
X167785115Y-126084630D01*
X167785108Y-126084638D01*
X167644950Y-126276005D01*
X167644949Y-126276008D01*
X167536656Y-126487047D01*
X167462921Y-126712501D01*
X167462919Y-126712509D01*
X167425583Y-126946746D01*
X167425583Y-126946749D01*
X167423350Y-127065348D01*
X167423350Y-143240950D01*
X167403665Y-143307989D01*
X167350861Y-143353744D01*
X167299350Y-143364950D01*
X115609350Y-143364950D01*
X115542311Y-143345265D01*
X115496556Y-143292461D01*
X115485350Y-143240950D01*
X115485350Y-140865561D01*
X125485350Y-140865561D01*
X139485350Y-140865561D01*
X150235350Y-140865561D01*
X164235350Y-140865561D01*
X164235350Y-126865561D01*
X150235350Y-126865561D01*
X150235350Y-140865561D01*
X139485350Y-140865561D01*
X139485350Y-126865561D01*
X125485350Y-126865561D01*
X125485350Y-140865561D01*
X115485350Y-140865561D01*
X115485350Y-133759225D01*
X119337803Y-133759225D01*
X119337803Y-133971897D01*
X119376881Y-134180948D01*
X119453706Y-134379255D01*
X119453708Y-134379261D01*
X119565658Y-134560066D01*
X119565664Y-134560075D01*
X119708940Y-134717242D01*
X119878656Y-134845405D01*
X119976239Y-134893995D01*
X120069021Y-134940196D01*
X120069025Y-134940197D01*
X120069032Y-134940201D01*
X120273585Y-134998402D01*
X120485349Y-135018025D01*
X120485350Y-135018025D01*
X120485351Y-135018025D01*
X120555938Y-135011484D01*
X120697115Y-134998402D01*
X120901668Y-134940201D01*
X121092044Y-134845405D01*
X121261760Y-134717242D01*
X121405036Y-134560075D01*
X121516993Y-134379258D01*
X121593819Y-134180948D01*
X121632897Y-133971897D01*
X121635350Y-133865561D01*
X121632897Y-133759225D01*
X121593819Y-133550174D01*
X121516993Y-133351864D01*
X121405036Y-133171047D01*
X121261760Y-133013880D01*
X121092044Y-132885717D01*
X120901678Y-132790925D01*
X120901665Y-132790920D01*
X120832167Y-132771146D01*
X120697115Y-132732720D01*
X120591232Y-132722909D01*
X120485351Y-132713098D01*
X120485349Y-132713098D01*
X120273585Y-132732720D01*
X120069034Y-132790920D01*
X120069021Y-132790925D01*
X119878655Y-132885717D01*
X119708941Y-133013879D01*
X119708940Y-133013880D01*
X119565664Y-133171047D01*
X119565662Y-133171048D01*
X119565660Y-133171052D01*
X119565658Y-133171055D01*
X119453708Y-133351860D01*
X119453707Y-133351864D01*
X119376881Y-133550174D01*
X119337803Y-133759225D01*
X115485350Y-133759225D01*
X115485350Y-126988495D01*
X37784000Y-126988495D01*
X37716961Y-126968810D01*
X37671206Y-126916006D01*
X37660000Y-126864495D01*
X37660000Y-122865552D01*
X42740199Y-122865552D01*
X56740199Y-122865552D01*
X66552369Y-122865552D01*
X80552369Y-122865552D01*
X90366442Y-122865552D01*
X104366442Y-122865561D01*
X114177450Y-122865561D01*
X128177450Y-122865561D01*
X142752550Y-122865561D01*
X156752550Y-122865561D01*
X168946550Y-122865561D01*
X182946550Y-122865561D01*
X182946550Y-108865561D01*
X168946550Y-108865561D01*
X168946550Y-122865561D01*
X156752550Y-122865561D01*
X156752550Y-115759225D01*
X161702003Y-115759225D01*
X161702003Y-115971897D01*
X161741081Y-116180948D01*
X161817904Y-116379249D01*
X161817906Y-116379255D01*
X161817908Y-116379261D01*
X161929858Y-116560066D01*
X161929864Y-116560075D01*
X162073140Y-116717242D01*
X162242856Y-116845405D01*
X162340439Y-116893995D01*
X162433221Y-116940196D01*
X162433225Y-116940197D01*
X162433232Y-116940201D01*
X162637785Y-116998402D01*
X162849549Y-117018025D01*
X162849550Y-117018025D01*
X162849551Y-117018025D01*
X162920138Y-117011484D01*
X163061315Y-116998402D01*
X163265868Y-116940201D01*
X163456244Y-116845405D01*
X163625960Y-116717242D01*
X163769236Y-116560075D01*
X163881193Y-116379258D01*
X163958019Y-116180948D01*
X163997097Y-115971897D01*
X163999550Y-115865561D01*
X163997097Y-115759225D01*
X163958019Y-115550174D01*
X163881193Y-115351864D01*
X163881187Y-115351855D01*
X163769241Y-115171055D01*
X163769239Y-115171052D01*
X163769236Y-115171047D01*
X163625960Y-115013880D01*
X163456244Y-114885717D01*
X163456226Y-114885708D01*
X163265878Y-114790925D01*
X163265865Y-114790920D01*
X163196367Y-114771146D01*
X163061315Y-114732720D01*
X162955432Y-114722909D01*
X162849551Y-114713098D01*
X162849549Y-114713098D01*
X162637785Y-114732720D01*
X162433234Y-114790920D01*
X162433221Y-114790925D01*
X162242855Y-114885717D01*
X162073153Y-115013870D01*
X162073140Y-115013880D01*
X161929864Y-115171047D01*
X161929862Y-115171048D01*
X161929860Y-115171052D01*
X161929858Y-115171055D01*
X161817908Y-115351860D01*
X161817907Y-115351864D01*
X161741081Y-115550174D01*
X161702003Y-115759225D01*
X156752550Y-115759225D01*
X156752550Y-108865561D01*
X142752550Y-108865561D01*
X142752550Y-122865561D01*
X128177450Y-122865561D01*
X128177450Y-108865561D01*
X114177450Y-108865561D01*
X114177450Y-122865561D01*
X104366442Y-122865561D01*
X104366442Y-108865552D01*
X90366442Y-108865552D01*
X90366442Y-122865552D01*
X80552369Y-122865552D01*
X80552369Y-108865552D01*
X66552369Y-108865552D01*
X66552369Y-122865552D01*
X56740199Y-122865552D01*
X56740199Y-115759216D01*
X60498737Y-115759216D01*
X60498737Y-115971888D01*
X60537815Y-116180939D01*
X60614640Y-116379246D01*
X60614642Y-116379252D01*
X60614648Y-116379261D01*
X60726598Y-116560066D01*
X60869874Y-116717233D01*
X61039590Y-116845396D01*
X61137173Y-116893986D01*
X61229955Y-116940187D01*
X61229959Y-116940188D01*
X61229966Y-116940192D01*
X61434519Y-116998393D01*
X61646283Y-117018016D01*
X61646284Y-117018016D01*
X61646285Y-117018016D01*
X61716872Y-117011475D01*
X61858049Y-116998393D01*
X62062602Y-116940192D01*
X62252978Y-116845396D01*
X62422694Y-116717233D01*
X62565970Y-116560066D01*
X62677927Y-116379249D01*
X62754753Y-116180939D01*
X62793831Y-115971888D01*
X62796284Y-115865552D01*
X62793831Y-115759216D01*
X62754753Y-115550165D01*
X62677927Y-115351855D01*
X62565970Y-115171038D01*
X62422694Y-115013871D01*
X62252978Y-114885708D01*
X62062612Y-114790916D01*
X62062599Y-114790911D01*
X61993101Y-114771137D01*
X61858049Y-114732711D01*
X61752166Y-114722900D01*
X61646285Y-114713089D01*
X61646283Y-114713089D01*
X61434519Y-114732711D01*
X61229968Y-114790911D01*
X61229955Y-114790916D01*
X61039589Y-114885708D01*
X60869875Y-115013870D01*
X60869874Y-115013871D01*
X60726598Y-115171038D01*
X60726596Y-115171039D01*
X60726594Y-115171043D01*
X60726592Y-115171046D01*
X60614642Y-115351851D01*
X60614640Y-115351857D01*
X60614637Y-115351866D01*
X60537815Y-115550165D01*
X60498737Y-115759216D01*
X56740199Y-115759216D01*
X56740199Y-108865552D01*
X42740199Y-108865552D01*
X42740199Y-122865552D01*
X37660000Y-122865552D01*
X37660000Y-94516400D01*
X43165680Y-94516400D01*
X43165680Y-97315300D01*
X43867150Y-97315300D01*
X43934189Y-97334985D01*
X43979944Y-97387789D01*
X43991150Y-97439300D01*
X43991150Y-103585200D01*
X45592440Y-103585200D01*
X45659479Y-103604885D01*
X45705234Y-103657689D01*
X45716440Y-103709200D01*
X45716440Y-104785400D01*
X49015450Y-104785400D01*
X49015450Y-103709200D01*
X49035135Y-103642161D01*
X49087939Y-103596406D01*
X49139450Y-103585200D01*
X50740750Y-103585200D01*
X50740750Y-99238800D01*
X50760435Y-99171761D01*
X50813239Y-99126006D01*
X50864750Y-99114800D01*
X52142250Y-99114800D01*
X52209289Y-99134485D01*
X52255044Y-99187289D01*
X52266250Y-99238800D01*
X52266250Y-103815200D01*
X66265750Y-103815200D01*
X66265750Y-99238800D01*
X66285435Y-99171761D01*
X66338239Y-99126006D01*
X66389750Y-99114800D01*
X67667250Y-99114800D01*
X67734289Y-99134485D01*
X67780044Y-99187289D01*
X67791250Y-99238800D01*
X67791250Y-103585200D01*
X69391150Y-103585200D01*
X69458189Y-103604885D01*
X69503944Y-103657689D01*
X69515150Y-103709200D01*
X69515150Y-104785400D01*
X72815550Y-104785400D01*
X72815550Y-103815900D01*
X178470143Y-103815900D01*
X192468148Y-103817842D01*
X192470090Y-89818542D01*
X192470089Y-89818542D01*
X178470143Y-89818542D01*
X178470143Y-103815900D01*
X72815550Y-103815900D01*
X72815550Y-103815200D01*
X83222550Y-103815200D01*
X97221850Y-103815200D01*
X102272550Y-103815200D01*
X116271850Y-103815200D01*
X121322550Y-103815200D01*
X135321850Y-103815200D01*
X140372350Y-103815200D01*
X154372350Y-103815200D01*
X159422350Y-103815200D01*
X173422350Y-103815200D01*
X173422350Y-89815900D01*
X159422350Y-89815900D01*
X159422350Y-103815200D01*
X154372350Y-103815200D01*
X154372350Y-89815900D01*
X140372350Y-89815900D01*
X140372350Y-103815200D01*
X135321850Y-103815200D01*
X135321850Y-89815900D01*
X121322550Y-89815900D01*
X121322550Y-103815200D01*
X116271850Y-103815200D01*
X116271850Y-89815900D01*
X102272550Y-89815900D01*
X102272550Y-103815200D01*
X97221850Y-103815200D01*
X97221850Y-89815900D01*
X83222550Y-89815900D01*
X83222550Y-103815200D01*
X72815550Y-103815200D01*
X72815550Y-103709200D01*
X72835235Y-103642161D01*
X72888039Y-103596406D01*
X72939550Y-103585200D01*
X74540750Y-103585200D01*
X74540750Y-97439300D01*
X74560435Y-97372261D01*
X74613239Y-97326506D01*
X74664750Y-97315300D01*
X75366250Y-97315300D01*
X75366250Y-94516400D01*
X74664750Y-94516400D01*
X74597711Y-94496715D01*
X74551956Y-94443911D01*
X74540750Y-94392400D01*
X74540750Y-91286300D01*
X67791250Y-91286300D01*
X67791250Y-94392400D01*
X67771565Y-94459439D01*
X67718761Y-94505194D01*
X67667250Y-94516400D01*
X66389750Y-94516400D01*
X66322711Y-94496715D01*
X66276956Y-94443911D01*
X66265750Y-94392400D01*
X66265750Y-89815900D01*
X52266250Y-89815900D01*
X52266250Y-94392400D01*
X52246565Y-94459439D01*
X52193761Y-94505194D01*
X52142250Y-94516400D01*
X50864750Y-94516400D01*
X50797711Y-94496715D01*
X50751956Y-94443911D01*
X50740750Y-94392400D01*
X50740750Y-91286300D01*
X43991150Y-91286300D01*
X43991150Y-94392400D01*
X43971465Y-94459439D01*
X43918661Y-94505194D01*
X43867150Y-94516400D01*
X43165680Y-94516400D01*
X37660000Y-94516400D01*
X37660000Y-84765200D01*
X47502380Y-84765200D01*
X61503250Y-84765200D01*
X73697550Y-84765200D01*
X87696850Y-84765200D01*
X92747550Y-84765200D01*
X106746850Y-84765200D01*
X111797550Y-84765200D01*
X125796850Y-84765200D01*
X130847550Y-84765200D01*
X144847350Y-84765200D01*
X149897350Y-84765200D01*
X163897350Y-84765200D01*
X163897350Y-70765900D01*
X149897350Y-70765900D01*
X149897350Y-84765200D01*
X144847350Y-84765200D01*
X144847350Y-70765900D01*
X130847550Y-70765900D01*
X130847550Y-84765200D01*
X125796850Y-84765200D01*
X125796850Y-77659214D01*
X127174653Y-77659214D01*
X127174653Y-77871886D01*
X127213731Y-78080937D01*
X127290556Y-78279244D01*
X127290558Y-78279250D01*
X127402508Y-78460055D01*
X127402514Y-78460064D01*
X127545790Y-78617231D01*
X127715506Y-78745394D01*
X127813089Y-78793984D01*
X127905871Y-78840185D01*
X127905875Y-78840186D01*
X127905882Y-78840190D01*
X128110435Y-78898391D01*
X128322199Y-78918014D01*
X128322200Y-78918014D01*
X128322201Y-78918014D01*
X128392788Y-78911473D01*
X128533965Y-78898391D01*
X128738518Y-78840190D01*
X128928894Y-78745394D01*
X129098610Y-78617231D01*
X129241886Y-78460064D01*
X129353843Y-78279247D01*
X129430669Y-78080937D01*
X129469747Y-77871886D01*
X129472200Y-77765550D01*
X129469747Y-77659214D01*
X129430669Y-77450163D01*
X129353843Y-77251853D01*
X129241886Y-77071036D01*
X129098610Y-76913869D01*
X128928894Y-76785706D01*
X128738528Y-76690914D01*
X128738515Y-76690909D01*
X128669017Y-76671135D01*
X128533965Y-76632709D01*
X128428082Y-76622898D01*
X128322201Y-76613087D01*
X128322199Y-76613087D01*
X128110435Y-76632709D01*
X127905884Y-76690909D01*
X127905871Y-76690914D01*
X127715505Y-76785706D01*
X127545791Y-76913868D01*
X127545790Y-76913869D01*
X127402514Y-77071036D01*
X127402512Y-77071037D01*
X127402510Y-77071041D01*
X127402508Y-77071044D01*
X127290558Y-77251849D01*
X127290557Y-77251853D01*
X127213731Y-77450163D01*
X127174653Y-77659214D01*
X125796850Y-77659214D01*
X125796850Y-70765900D01*
X111797550Y-70765900D01*
X111797550Y-84765200D01*
X106746850Y-84765200D01*
X106746850Y-70765900D01*
X92747550Y-70765900D01*
X92747550Y-84765200D01*
X87696850Y-84765200D01*
X87696850Y-70765900D01*
X73697550Y-70765900D01*
X73697550Y-84765200D01*
X61503250Y-84765200D01*
X61503250Y-77659214D01*
X66452853Y-77659214D01*
X66452853Y-77871886D01*
X66491931Y-78080937D01*
X66568756Y-78279244D01*
X66568758Y-78279250D01*
X66680708Y-78460055D01*
X66680714Y-78460064D01*
X66823990Y-78617231D01*
X66993706Y-78745394D01*
X67091289Y-78793984D01*
X67184071Y-78840185D01*
X67184075Y-78840186D01*
X67184082Y-78840190D01*
X67388635Y-78898391D01*
X67600399Y-78918014D01*
X67600400Y-78918014D01*
X67600401Y-78918014D01*
X67670988Y-78911473D01*
X67812165Y-78898391D01*
X68016718Y-78840190D01*
X68207094Y-78745394D01*
X68376810Y-78617231D01*
X68520086Y-78460064D01*
X68632043Y-78279247D01*
X68708869Y-78080937D01*
X68747947Y-77871886D01*
X68750400Y-77765550D01*
X68747947Y-77659214D01*
X68708869Y-77450163D01*
X68632043Y-77251853D01*
X68520086Y-77071036D01*
X68376810Y-76913869D01*
X68207094Y-76785706D01*
X68016728Y-76690914D01*
X68016715Y-76690909D01*
X67947217Y-76671135D01*
X67812165Y-76632709D01*
X67706282Y-76622898D01*
X67600401Y-76613087D01*
X67600399Y-76613087D01*
X67388635Y-76632709D01*
X67184084Y-76690909D01*
X67184071Y-76690914D01*
X66993705Y-76785706D01*
X66823991Y-76913868D01*
X66823990Y-76913869D01*
X66680714Y-77071036D01*
X66680712Y-77071037D01*
X66680710Y-77071041D01*
X66680708Y-77071044D01*
X66568758Y-77251849D01*
X66568757Y-77251853D01*
X66491931Y-77450163D01*
X66452853Y-77659214D01*
X61503250Y-77659214D01*
X61503250Y-70765900D01*
X47502380Y-70765900D01*
X47502380Y-84765200D01*
X37660000Y-84765200D01*
X37660000Y-79915260D01*
X40233643Y-79915260D01*
X40233643Y-80127932D01*
X40272721Y-80336983D01*
X40349546Y-80535290D01*
X40349548Y-80535296D01*
X40461498Y-80716101D01*
X40461504Y-80716110D01*
X40604780Y-80873277D01*
X40774496Y-81001440D01*
X40872079Y-81050030D01*
X40964861Y-81096231D01*
X40964865Y-81096232D01*
X40964872Y-81096236D01*
X41169425Y-81154437D01*
X41381189Y-81174060D01*
X41381190Y-81174060D01*
X41381191Y-81174060D01*
X41451778Y-81167519D01*
X41592955Y-81154437D01*
X41797508Y-81096236D01*
X41987884Y-81001440D01*
X42157600Y-80873277D01*
X42300876Y-80716110D01*
X42412833Y-80535293D01*
X42489659Y-80336983D01*
X42528737Y-80127932D01*
X42531190Y-80021596D01*
X42528737Y-79915260D01*
X42489659Y-79706209D01*
X42412833Y-79507899D01*
X42300876Y-79327082D01*
X42157600Y-79169915D01*
X41987884Y-79041752D01*
X41797518Y-78946960D01*
X41797505Y-78946955D01*
X41728007Y-78927181D01*
X41592955Y-78888755D01*
X41487072Y-78878944D01*
X41381191Y-78869133D01*
X41381189Y-78869133D01*
X41169425Y-78888755D01*
X40964874Y-78946955D01*
X40964861Y-78946960D01*
X40774495Y-79041752D01*
X40604781Y-79169914D01*
X40604780Y-79169915D01*
X40461504Y-79327082D01*
X40461502Y-79327083D01*
X40461500Y-79327087D01*
X40461498Y-79327090D01*
X40349548Y-79507895D01*
X40349547Y-79507899D01*
X40272721Y-79706209D01*
X40233643Y-79915260D01*
X37660000Y-79915260D01*
X37660000Y-65715200D01*
X45122510Y-65715200D01*
X59122050Y-65715200D01*
X68935050Y-65715200D01*
X82934350Y-65715200D01*
X87985050Y-65715200D01*
X101984350Y-65715200D01*
X107035050Y-65715200D01*
X121034350Y-65715200D01*
X126085050Y-65715200D01*
X140084350Y-65715200D01*
X145135350Y-65715200D01*
X159134350Y-65715200D01*
X159134350Y-51715900D01*
X145135350Y-51715900D01*
X145135350Y-65715200D01*
X140084350Y-65715200D01*
X140084350Y-51715900D01*
X126085050Y-51715900D01*
X126085050Y-65715200D01*
X121034350Y-65715200D01*
X121034350Y-51715900D01*
X107035050Y-51715900D01*
X107035050Y-65715200D01*
X101984350Y-65715200D01*
X101984350Y-51715900D01*
X87985050Y-51715900D01*
X87985050Y-65715200D01*
X82934350Y-65715200D01*
X82934350Y-51715900D01*
X68935050Y-51715900D01*
X68935050Y-65715200D01*
X59122050Y-65715200D01*
X59122050Y-51715900D01*
X45122510Y-51715900D01*
X45122510Y-65715200D01*
X37660000Y-65715200D01*
X37660000Y-46665200D01*
X40360000Y-46665200D01*
X54359550Y-46665200D01*
X59410050Y-46665200D01*
X73409350Y-46665200D01*
X78460050Y-46665200D01*
X92459350Y-46665200D01*
X97510050Y-46665200D01*
X111509350Y-46665200D01*
X116560050Y-46665200D01*
X130559350Y-46665200D01*
X135608650Y-46665200D01*
X149609350Y-46665200D01*
X154658350Y-46665200D01*
X168659350Y-46665200D01*
X168659350Y-32666000D01*
X154658350Y-32666000D01*
X154658350Y-46665200D01*
X149609350Y-46665200D01*
X149609350Y-32666000D01*
X135608650Y-32666000D01*
X135608650Y-46665200D01*
X130559350Y-46665200D01*
X130559350Y-39559264D01*
X131936453Y-39559264D01*
X131936453Y-39771936D01*
X131975531Y-39980987D01*
X132052356Y-40179294D01*
X132052358Y-40179300D01*
X132164308Y-40360105D01*
X132164314Y-40360114D01*
X132307590Y-40517281D01*
X132477306Y-40645444D01*
X132574889Y-40694034D01*
X132667671Y-40740235D01*
X132667675Y-40740236D01*
X132667682Y-40740240D01*
X132872235Y-40798441D01*
X133083999Y-40818064D01*
X133084000Y-40818064D01*
X133084001Y-40818064D01*
X133154588Y-40811523D01*
X133295765Y-40798441D01*
X133500318Y-40740240D01*
X133690694Y-40645444D01*
X133860410Y-40517281D01*
X134003686Y-40360114D01*
X134115643Y-40179297D01*
X134192469Y-39980987D01*
X134231547Y-39771936D01*
X134234000Y-39665600D01*
X134231547Y-39559264D01*
X134192469Y-39350213D01*
X134115643Y-39151903D01*
X134003686Y-38971086D01*
X133860410Y-38813919D01*
X133690694Y-38685756D01*
X133500328Y-38590964D01*
X133500315Y-38590959D01*
X133430817Y-38571185D01*
X133295765Y-38532759D01*
X133189882Y-38522948D01*
X133084001Y-38513137D01*
X133083999Y-38513137D01*
X132872235Y-38532759D01*
X132667684Y-38590959D01*
X132667671Y-38590964D01*
X132477305Y-38685756D01*
X132307591Y-38813918D01*
X132307590Y-38813919D01*
X132164314Y-38971086D01*
X132164312Y-38971087D01*
X132164310Y-38971091D01*
X132164308Y-38971094D01*
X132052358Y-39151899D01*
X132052357Y-39151903D01*
X131975531Y-39350213D01*
X131936453Y-39559264D01*
X130559350Y-39559264D01*
X130559350Y-32666000D01*
X116560050Y-32666000D01*
X116560050Y-46665200D01*
X111509350Y-46665200D01*
X111509350Y-32666000D01*
X97510050Y-32666000D01*
X97510050Y-46665200D01*
X92459350Y-46665200D01*
X92459350Y-32666000D01*
X78460050Y-32666000D01*
X78460050Y-46665200D01*
X73409350Y-46665200D01*
X73409350Y-39559264D01*
X74787153Y-39559264D01*
X74787153Y-39771936D01*
X74826231Y-39980987D01*
X74903056Y-40179294D01*
X74903058Y-40179300D01*
X75015008Y-40360105D01*
X75015014Y-40360114D01*
X75158290Y-40517281D01*
X75328006Y-40645444D01*
X75425589Y-40694034D01*
X75518371Y-40740235D01*
X75518375Y-40740236D01*
X75518382Y-40740240D01*
X75722935Y-40798441D01*
X75934699Y-40818064D01*
X75934700Y-40818064D01*
X75934701Y-40818064D01*
X76005288Y-40811523D01*
X76146465Y-40798441D01*
X76351018Y-40740240D01*
X76541394Y-40645444D01*
X76711110Y-40517281D01*
X76854386Y-40360114D01*
X76966343Y-40179297D01*
X77043169Y-39980987D01*
X77082247Y-39771936D01*
X77084700Y-39665600D01*
X77082247Y-39559264D01*
X77043169Y-39350213D01*
X76966343Y-39151903D01*
X76854386Y-38971086D01*
X76711110Y-38813919D01*
X76541394Y-38685756D01*
X76351028Y-38590964D01*
X76351015Y-38590959D01*
X76281517Y-38571185D01*
X76146465Y-38532759D01*
X76040582Y-38522948D01*
X75934701Y-38513137D01*
X75934699Y-38513137D01*
X75722935Y-38532759D01*
X75518384Y-38590959D01*
X75518371Y-38590964D01*
X75328005Y-38685756D01*
X75158291Y-38813918D01*
X75158290Y-38813919D01*
X75015014Y-38971086D01*
X75015012Y-38971087D01*
X75015010Y-38971091D01*
X75015008Y-38971094D01*
X74903058Y-39151899D01*
X74903057Y-39151903D01*
X74826231Y-39350213D01*
X74787153Y-39559264D01*
X73409350Y-39559264D01*
X73409350Y-32666000D01*
X59410050Y-32666000D01*
X59410050Y-46665200D01*
X54359550Y-46665200D01*
X54359550Y-32666000D01*
X40360000Y-32666000D01*
X40360000Y-46665200D01*
X37660000Y-46665200D01*
X37660000Y-30264000D01*
X37679685Y-30196961D01*
X37732489Y-30151206D01*
X37784000Y-30140000D01*
X172535350Y-30140000D01*
X172602389Y-30159685D01*
G37*
%TD.AperFunction*%
M02*
