%TF.GenerationSoftware,KiCad,Pcbnew,8.0.7*%
%TF.CreationDate,2025-08-07T20:18:05+02:00*%
%TF.ProjectId,pcb_keyboard_dx_rj11,7063625f-6b65-4796-926f-6172645f6478,rev?*%
%TF.SameCoordinates,Original*%
%TF.FileFunction,Legend,Top*%
%TF.FilePolarity,Positive*%
%FSLAX46Y46*%
G04 Gerber Fmt 4.6, Leading zero omitted, Abs format (unit mm)*
G04 Created by KiCad (PCBNEW 8.0.7) date 2025-08-07 20:18:05*
%MOMM*%
%LPD*%
G01*
G04 APERTURE LIST*
G04 Aperture macros list*
%AMRoundRect*
0 Rectangle with rounded corners*
0 $1 Rounding radius*
0 $2 $3 $4 $5 $6 $7 $8 $9 X,Y pos of 4 corners*
0 Add a 4 corners polygon primitive as box body*
4,1,4,$2,$3,$4,$5,$6,$7,$8,$9,$2,$3,0*
0 Add four circle primitives for the rounded corners*
1,1,$1+$1,$2,$3*
1,1,$1+$1,$4,$5*
1,1,$1+$1,$6,$7*
1,1,$1+$1,$8,$9*
0 Add four rect primitives between the rounded corners*
20,1,$1+$1,$2,$3,$4,$5,0*
20,1,$1+$1,$4,$5,$6,$7,0*
20,1,$1+$1,$6,$7,$8,$9,0*
20,1,$1+$1,$8,$9,$2,$3,0*%
%AMRotRect*
0 Rectangle, with rotation*
0 The origin of the aperture is its center*
0 $1 length*
0 $2 width*
0 $3 Rotation angle, in degrees counterclockwise*
0 Add horizontal line*
21,1,$1,$2,0,0,$3*%
G04 Aperture macros list end*
%ADD10C,0.200000*%
%ADD11C,0.120000*%
%ADD12C,0.250000*%
%ADD13C,1.900000*%
%ADD14C,3.450000*%
%ADD15C,2.200000*%
%ADD16C,1.200000*%
%ADD17C,3.200000*%
%ADD18C,1.750000*%
%ADD19C,3.050000*%
%ADD20C,4.000000*%
%ADD21R,1.700000X1.700000*%
%ADD22C,3.250000*%
%ADD23RotRect,1.520000X1.520000X258.400000*%
%ADD24C,1.520000*%
%ADD25RotRect,2.000000X2.000000X168.400000*%
%ADD26C,2.000000*%
%ADD27RotRect,3.200000X2.000000X168.400000*%
%ADD28R,1.400000X1.400000*%
%ADD29RoundRect,0.300000X-0.300000X0.400000X-0.300000X-0.400000X0.300000X-0.400000X0.300000X0.400000X0*%
%ADD30C,1.400000*%
%ADD31RoundRect,0.300000X0.400000X0.300000X-0.400000X0.300000X-0.400000X-0.300000X0.400000X-0.300000X0*%
%ADD32O,1.700000X1.700000*%
%ADD33O,1.700000X1.400000*%
%ADD34RotRect,1.400000X1.400000X168.400000*%
%ADD35RoundRect,0.300000X0.452153X0.213441X-0.331507X0.374304X-0.452153X-0.213441X0.331507X-0.374304X0*%
G04 APERTURE END LIST*
D10*
X149271651Y-66141838D02*
X149176413Y-66094219D01*
X149176413Y-66094219D02*
X149033556Y-66094219D01*
X149033556Y-66094219D02*
X148890699Y-66141838D01*
X148890699Y-66141838D02*
X148795461Y-66237076D01*
X148795461Y-66237076D02*
X148747842Y-66332314D01*
X148747842Y-66332314D02*
X148700223Y-66522790D01*
X148700223Y-66522790D02*
X148700223Y-66665647D01*
X148700223Y-66665647D02*
X148747842Y-66856123D01*
X148747842Y-66856123D02*
X148795461Y-66951361D01*
X148795461Y-66951361D02*
X148890699Y-67046600D01*
X148890699Y-67046600D02*
X149033556Y-67094219D01*
X149033556Y-67094219D02*
X149128794Y-67094219D01*
X149128794Y-67094219D02*
X149271651Y-67046600D01*
X149271651Y-67046600D02*
X149319270Y-66998980D01*
X149319270Y-66998980D02*
X149319270Y-66665647D01*
X149319270Y-66665647D02*
X149128794Y-66665647D01*
X149747842Y-67094219D02*
X149747842Y-66094219D01*
X149747842Y-66094219D02*
X150319270Y-67094219D01*
X150319270Y-67094219D02*
X150319270Y-66094219D01*
X150795461Y-67094219D02*
X150795461Y-66094219D01*
X150795461Y-66094219D02*
X151033556Y-66094219D01*
X151033556Y-66094219D02*
X151176413Y-66141838D01*
X151176413Y-66141838D02*
X151271651Y-66237076D01*
X151271651Y-66237076D02*
X151319270Y-66332314D01*
X151319270Y-66332314D02*
X151366889Y-66522790D01*
X151366889Y-66522790D02*
X151366889Y-66665647D01*
X151366889Y-66665647D02*
X151319270Y-66856123D01*
X151319270Y-66856123D02*
X151271651Y-66951361D01*
X151271651Y-66951361D02*
X151176413Y-67046600D01*
X151176413Y-67046600D02*
X151033556Y-67094219D01*
X151033556Y-67094219D02*
X150795461Y-67094219D01*
X115603973Y-38498083D02*
X116349507Y-38340988D01*
X116055287Y-38792302D02*
X115898192Y-38046769D01*
X117153783Y-37538874D02*
X116687825Y-37637058D01*
X116687825Y-37637058D02*
X116739414Y-38112835D01*
X116739414Y-38112835D02*
X116776191Y-38056421D01*
X116776191Y-38056421D02*
X116859564Y-37990188D01*
X116859564Y-37990188D02*
X117092543Y-37941096D01*
X117092543Y-37941096D02*
X117195554Y-37968055D01*
X117195554Y-37968055D02*
X117251968Y-38004832D01*
X117251968Y-38004832D02*
X117318201Y-38088205D01*
X117318201Y-38088205D02*
X117367293Y-38321184D01*
X117367293Y-38321184D02*
X117340334Y-38424195D01*
X117340334Y-38424195D02*
X117303556Y-38480609D01*
X117303556Y-38480609D02*
X117220183Y-38546842D01*
X117220183Y-38546842D02*
X116987204Y-38595934D01*
X116987204Y-38595934D02*
X116884194Y-38568975D01*
X116884194Y-38568975D02*
X116827780Y-38532197D01*
X117479954Y-37470145D02*
X118012312Y-38379928D01*
X118012312Y-38379928D02*
X118132296Y-37332687D01*
X135689973Y-42561870D02*
X136016144Y-42630599D01*
X136047929Y-43172609D02*
X135581970Y-43074425D01*
X135581970Y-43074425D02*
X135788157Y-42095912D01*
X135788157Y-42095912D02*
X136254116Y-42194096D01*
X136479606Y-42971581D02*
X136945564Y-43069766D01*
X136327504Y-43231519D02*
X136859862Y-42321736D01*
X136859862Y-42321736D02*
X136979845Y-43368978D01*
X121526063Y-39987923D02*
X121469649Y-40024700D01*
X121469649Y-40024700D02*
X121320043Y-40041841D01*
X121320043Y-40041841D02*
X121226851Y-40022204D01*
X121226851Y-40022204D02*
X121096882Y-39946153D01*
X121096882Y-39946153D02*
X121023327Y-39833324D01*
X121023327Y-39833324D02*
X120996368Y-39730314D01*
X120996368Y-39730314D02*
X120989046Y-39534113D01*
X120989046Y-39534113D02*
X121018502Y-39394325D01*
X121018502Y-39394325D02*
X121104371Y-39217760D01*
X121104371Y-39217760D02*
X121170604Y-39134387D01*
X121170604Y-39134387D02*
X121283432Y-39060832D01*
X121283432Y-39060832D02*
X121433038Y-39043692D01*
X121433038Y-39043692D02*
X121526230Y-39063328D01*
X121526230Y-39063328D02*
X121656199Y-39139380D01*
X121656199Y-39139380D02*
X121692976Y-39195794D01*
X122318359Y-39230242D02*
X122504743Y-39269516D01*
X122504743Y-39269516D02*
X122588116Y-39335748D01*
X122588116Y-39335748D02*
X122661671Y-39448577D01*
X122661671Y-39448577D02*
X122668993Y-39644779D01*
X122668993Y-39644779D02*
X122600264Y-39970949D01*
X122600264Y-39970949D02*
X122514394Y-40147514D01*
X122514394Y-40147514D02*
X122401566Y-40221069D01*
X122401566Y-40221069D02*
X122298555Y-40248028D01*
X122298555Y-40248028D02*
X122112172Y-40208754D01*
X122112172Y-40208754D02*
X122028799Y-40142522D01*
X122028799Y-40142522D02*
X121955244Y-40029693D01*
X121955244Y-40029693D02*
X121947922Y-39833491D01*
X121947922Y-39833491D02*
X122016651Y-39507320D01*
X122016651Y-39507320D02*
X122102521Y-39330756D01*
X122102521Y-39330756D02*
X122215349Y-39257201D01*
X122215349Y-39257201D02*
X122318359Y-39230242D01*
X123416855Y-40483670D02*
X122950897Y-40385486D01*
X122950897Y-40385486D02*
X123157084Y-39406974D01*
X124135597Y-39613161D02*
X124228789Y-39632798D01*
X124228789Y-39632798D02*
X124312162Y-39699030D01*
X124312162Y-39699030D02*
X124348939Y-39755445D01*
X124348939Y-39755445D02*
X124375898Y-39858455D01*
X124375898Y-39858455D02*
X124383220Y-40054656D01*
X124383220Y-40054656D02*
X124334128Y-40287636D01*
X124334128Y-40287636D02*
X124248259Y-40464201D01*
X124248259Y-40464201D02*
X124182026Y-40547574D01*
X124182026Y-40547574D02*
X124125612Y-40584351D01*
X124125612Y-40584351D02*
X124022602Y-40611310D01*
X124022602Y-40611310D02*
X123929410Y-40591673D01*
X123929410Y-40591673D02*
X123846037Y-40525441D01*
X123846037Y-40525441D02*
X123809259Y-40469026D01*
X123809259Y-40469026D02*
X123782300Y-40366016D01*
X123782300Y-40366016D02*
X123774978Y-40169814D01*
X123774978Y-40169814D02*
X123824070Y-39936835D01*
X123824070Y-39936835D02*
X123909940Y-39760270D01*
X123909940Y-39760270D02*
X123976173Y-39676897D01*
X123976173Y-39676897D02*
X124032587Y-39640120D01*
X124032587Y-39640120D02*
X124135597Y-39613161D01*
X158257842Y-60464219D02*
X158257842Y-59464219D01*
X158257842Y-59464219D02*
X158495937Y-59464219D01*
X158495937Y-59464219D02*
X158638794Y-59511838D01*
X158638794Y-59511838D02*
X158734032Y-59607076D01*
X158734032Y-59607076D02*
X158781651Y-59702314D01*
X158781651Y-59702314D02*
X158829270Y-59892790D01*
X158829270Y-59892790D02*
X158829270Y-60035647D01*
X158829270Y-60035647D02*
X158781651Y-60226123D01*
X158781651Y-60226123D02*
X158734032Y-60321361D01*
X158734032Y-60321361D02*
X158638794Y-60416600D01*
X158638794Y-60416600D02*
X158495937Y-60464219D01*
X158495937Y-60464219D02*
X158257842Y-60464219D01*
X159257842Y-60083266D02*
X160019747Y-60083266D01*
X123096426Y-30591115D02*
X122868440Y-30056427D01*
X122537276Y-30473294D02*
X122743463Y-29494781D01*
X122743463Y-29494781D02*
X123116230Y-29573328D01*
X123116230Y-29573328D02*
X123199603Y-29639561D01*
X123199603Y-29639561D02*
X123236381Y-29695975D01*
X123236381Y-29695975D02*
X123263340Y-29798985D01*
X123263340Y-29798985D02*
X123233884Y-29938773D01*
X123233884Y-29938773D02*
X123167652Y-30022146D01*
X123167652Y-30022146D02*
X123111237Y-30058924D01*
X123111237Y-30058924D02*
X123008227Y-30085883D01*
X123008227Y-30085883D02*
X122635460Y-30007335D01*
X123908359Y-29740242D02*
X124094743Y-29779516D01*
X124094743Y-29779516D02*
X124178116Y-29845748D01*
X124178116Y-29845748D02*
X124251671Y-29958577D01*
X124251671Y-29958577D02*
X124258993Y-30154779D01*
X124258993Y-30154779D02*
X124190264Y-30480949D01*
X124190264Y-30480949D02*
X124104394Y-30657514D01*
X124104394Y-30657514D02*
X123991566Y-30731069D01*
X123991566Y-30731069D02*
X123888555Y-30758028D01*
X123888555Y-30758028D02*
X123702172Y-30718754D01*
X123702172Y-30718754D02*
X123618799Y-30652522D01*
X123618799Y-30652522D02*
X123545244Y-30539693D01*
X123545244Y-30539693D02*
X123537922Y-30343491D01*
X123537922Y-30343491D02*
X123606651Y-30017320D01*
X123606651Y-30017320D02*
X123692521Y-29840756D01*
X123692521Y-29840756D02*
X123805349Y-29767201D01*
X123805349Y-29767201D02*
X123908359Y-29740242D01*
X124653893Y-29897337D02*
X124680685Y-30924941D01*
X124680685Y-30924941D02*
X125014344Y-30265278D01*
X125014344Y-30265278D02*
X125053451Y-31003489D01*
X125053451Y-31003489D02*
X125492618Y-30074069D01*
X126051768Y-30191890D02*
X126144959Y-30211527D01*
X126144959Y-30211527D02*
X126228332Y-30277759D01*
X126228332Y-30277759D02*
X126265110Y-30334174D01*
X126265110Y-30334174D02*
X126292069Y-30437184D01*
X126292069Y-30437184D02*
X126299391Y-30633385D01*
X126299391Y-30633385D02*
X126250299Y-30866365D01*
X126250299Y-30866365D02*
X126164429Y-31042930D01*
X126164429Y-31042930D02*
X126098196Y-31126303D01*
X126098196Y-31126303D02*
X126041782Y-31163080D01*
X126041782Y-31163080D02*
X125938772Y-31190039D01*
X125938772Y-31190039D02*
X125845580Y-31170402D01*
X125845580Y-31170402D02*
X125762207Y-31104170D01*
X125762207Y-31104170D02*
X125725430Y-31047755D01*
X125725430Y-31047755D02*
X125698471Y-30944745D01*
X125698471Y-30944745D02*
X125691149Y-30748543D01*
X125691149Y-30748543D02*
X125740241Y-30515564D01*
X125740241Y-30515564D02*
X125826110Y-30338999D01*
X125826110Y-30338999D02*
X125892343Y-30255626D01*
X125892343Y-30255626D02*
X125948757Y-30218849D01*
X125948757Y-30218849D02*
X126051768Y-30191890D01*
X153277842Y-60484219D02*
X153277842Y-59484219D01*
X153277842Y-59484219D02*
X153515937Y-59484219D01*
X153515937Y-59484219D02*
X153658794Y-59531838D01*
X153658794Y-59531838D02*
X153754032Y-59627076D01*
X153754032Y-59627076D02*
X153801651Y-59722314D01*
X153801651Y-59722314D02*
X153849270Y-59912790D01*
X153849270Y-59912790D02*
X153849270Y-60055647D01*
X153849270Y-60055647D02*
X153801651Y-60246123D01*
X153801651Y-60246123D02*
X153754032Y-60341361D01*
X153754032Y-60341361D02*
X153658794Y-60436600D01*
X153658794Y-60436600D02*
X153515937Y-60484219D01*
X153515937Y-60484219D02*
X153277842Y-60484219D01*
X154277842Y-60103266D02*
X155039747Y-60103266D01*
X154658794Y-60484219D02*
X154658794Y-59722314D01*
X110918706Y-37130930D02*
X110815696Y-37103971D01*
X110815696Y-37103971D02*
X110675909Y-37133427D01*
X110675909Y-37133427D02*
X110545940Y-37209478D01*
X110545940Y-37209478D02*
X110472385Y-37322306D01*
X110472385Y-37322306D02*
X110445426Y-37425316D01*
X110445426Y-37425316D02*
X110438104Y-37621518D01*
X110438104Y-37621518D02*
X110467559Y-37761306D01*
X110467559Y-37761306D02*
X110553429Y-37937871D01*
X110553429Y-37937871D02*
X110619661Y-38021244D01*
X110619661Y-38021244D02*
X110732490Y-38094799D01*
X110732490Y-38094799D02*
X110882096Y-38111939D01*
X110882096Y-38111939D02*
X110975287Y-38092302D01*
X110975287Y-38092302D02*
X111105256Y-38016251D01*
X111105256Y-38016251D02*
X111142034Y-37959837D01*
X111142034Y-37959837D02*
X111073305Y-37633666D01*
X111073305Y-37633666D02*
X110886921Y-37672940D01*
X111581033Y-37964663D02*
X111374846Y-36986150D01*
X111374846Y-36986150D02*
X112140183Y-37846842D01*
X112140183Y-37846842D02*
X111933996Y-36868329D01*
X112606142Y-37748657D02*
X112399955Y-36770145D01*
X112399955Y-36770145D02*
X112632934Y-36721052D01*
X112632934Y-36721052D02*
X112782540Y-36738193D01*
X112782540Y-36738193D02*
X112895368Y-36811748D01*
X112895368Y-36811748D02*
X112961601Y-36895121D01*
X112961601Y-36895121D02*
X113047470Y-37071686D01*
X113047470Y-37071686D02*
X113076926Y-37211473D01*
X113076926Y-37211473D02*
X113069604Y-37407675D01*
X113069604Y-37407675D02*
X113042645Y-37510685D01*
X113042645Y-37510685D02*
X112969090Y-37623514D01*
X112969090Y-37623514D02*
X112839121Y-37699565D01*
X112839121Y-37699565D02*
X112606142Y-37748657D01*
X112366671Y-34593029D02*
X111942316Y-34195799D01*
X111807521Y-34710850D02*
X111601334Y-33732337D01*
X111601334Y-33732337D02*
X111974100Y-33653790D01*
X111974100Y-33653790D02*
X112077110Y-33680749D01*
X112077110Y-33680749D02*
X112133525Y-33717526D01*
X112133525Y-33717526D02*
X112199757Y-33800899D01*
X112199757Y-33800899D02*
X112229213Y-33940687D01*
X112229213Y-33940687D02*
X112202254Y-34043697D01*
X112202254Y-34043697D02*
X112165476Y-34100111D01*
X112165476Y-34100111D02*
X112082103Y-34166344D01*
X112082103Y-34166344D02*
X111709336Y-34244891D01*
X112486654Y-33545787D02*
X113345183Y-34386842D01*
X113138996Y-33408329D02*
X112692842Y-34524300D01*
X137604225Y-33021071D02*
X137930396Y-33089800D01*
X137962181Y-33631810D02*
X137496222Y-33533626D01*
X137496222Y-33533626D02*
X137702409Y-32555113D01*
X137702409Y-32555113D02*
X138168368Y-32653297D01*
X138815717Y-33276351D02*
X138945686Y-33352402D01*
X138945686Y-33352402D02*
X138982463Y-33408816D01*
X138982463Y-33408816D02*
X139009422Y-33511826D01*
X139009422Y-33511826D02*
X138979967Y-33651614D01*
X138979967Y-33651614D02*
X138913734Y-33734987D01*
X138913734Y-33734987D02*
X138857320Y-33771764D01*
X138857320Y-33771764D02*
X138754310Y-33798723D01*
X138754310Y-33798723D02*
X138381543Y-33720176D01*
X138381543Y-33720176D02*
X138587730Y-32741663D01*
X138587730Y-32741663D02*
X138913901Y-32810392D01*
X138913901Y-32810392D02*
X138997274Y-32876625D01*
X138997274Y-32876625D02*
X139034052Y-32933039D01*
X139034052Y-32933039D02*
X139061011Y-33036049D01*
X139061011Y-33036049D02*
X139041374Y-33129241D01*
X139041374Y-33129241D02*
X138975141Y-33212614D01*
X138975141Y-33212614D02*
X138918727Y-33249392D01*
X138918727Y-33249392D02*
X138815717Y-33276351D01*
X138815717Y-33276351D02*
X138489546Y-33207622D01*
X113618706Y-29810930D02*
X113515696Y-29783971D01*
X113515696Y-29783971D02*
X113375909Y-29813427D01*
X113375909Y-29813427D02*
X113245940Y-29889478D01*
X113245940Y-29889478D02*
X113172385Y-30002306D01*
X113172385Y-30002306D02*
X113145426Y-30105316D01*
X113145426Y-30105316D02*
X113138104Y-30301518D01*
X113138104Y-30301518D02*
X113167559Y-30441306D01*
X113167559Y-30441306D02*
X113253429Y-30617871D01*
X113253429Y-30617871D02*
X113319661Y-30701244D01*
X113319661Y-30701244D02*
X113432490Y-30774799D01*
X113432490Y-30774799D02*
X113582096Y-30791939D01*
X113582096Y-30791939D02*
X113675287Y-30772302D01*
X113675287Y-30772302D02*
X113805256Y-30696251D01*
X113805256Y-30696251D02*
X113842034Y-30639837D01*
X113842034Y-30639837D02*
X113773305Y-30313666D01*
X113773305Y-30313666D02*
X113586921Y-30352940D01*
X114281033Y-30644663D02*
X114074846Y-29666150D01*
X114074846Y-29666150D02*
X114840183Y-30526842D01*
X114840183Y-30526842D02*
X114633996Y-29548329D01*
X115306142Y-30428657D02*
X115099955Y-29450145D01*
X115099955Y-29450145D02*
X115332934Y-29401052D01*
X115332934Y-29401052D02*
X115482540Y-29418193D01*
X115482540Y-29418193D02*
X115595368Y-29491748D01*
X115595368Y-29491748D02*
X115661601Y-29575121D01*
X115661601Y-29575121D02*
X115747470Y-29751686D01*
X115747470Y-29751686D02*
X115776926Y-29891473D01*
X115776926Y-29891473D02*
X115769604Y-30087675D01*
X115769604Y-30087675D02*
X115742645Y-30190685D01*
X115742645Y-30190685D02*
X115669090Y-30303514D01*
X115669090Y-30303514D02*
X115539121Y-30379565D01*
X115539121Y-30379565D02*
X115306142Y-30428657D01*
X117726546Y-31521793D02*
X118285696Y-31403971D01*
X118212308Y-32441395D02*
X118006121Y-31462882D01*
X118518676Y-31354879D02*
X119377204Y-32195934D01*
X119171017Y-31217421D02*
X118724863Y-32333392D01*
X133746199Y-36709380D02*
X133662826Y-36643147D01*
X133662826Y-36643147D02*
X133523038Y-36613692D01*
X133523038Y-36613692D02*
X133373432Y-36630832D01*
X133373432Y-36630832D02*
X133260604Y-36704387D01*
X133260604Y-36704387D02*
X133194371Y-36787760D01*
X133194371Y-36787760D02*
X133108502Y-36964325D01*
X133108502Y-36964325D02*
X133079046Y-37104113D01*
X133079046Y-37104113D02*
X133086368Y-37300314D01*
X133086368Y-37300314D02*
X133113327Y-37403324D01*
X133113327Y-37403324D02*
X133186882Y-37516153D01*
X133186882Y-37516153D02*
X133316851Y-37592204D01*
X133316851Y-37592204D02*
X133410043Y-37611841D01*
X133410043Y-37611841D02*
X133559649Y-37594700D01*
X133559649Y-37594700D02*
X133616063Y-37557923D01*
X133616063Y-37557923D02*
X133684792Y-37231752D01*
X133684792Y-37231752D02*
X133498409Y-37192478D01*
X134015789Y-37739481D02*
X134221976Y-36760968D01*
X134221976Y-36760968D02*
X134574939Y-37857302D01*
X134574939Y-37857302D02*
X134781126Y-36878789D01*
X135040897Y-37955486D02*
X135247084Y-36976974D01*
X135247084Y-36976974D02*
X135480063Y-37026066D01*
X135480063Y-37026066D02*
X135610032Y-37102117D01*
X135610032Y-37102117D02*
X135683587Y-37214945D01*
X135683587Y-37214945D02*
X135710546Y-37317956D01*
X135710546Y-37317956D02*
X135717868Y-37514157D01*
X135717868Y-37514157D02*
X135688413Y-37653945D01*
X135688413Y-37653945D02*
X135602543Y-37830510D01*
X135602543Y-37830510D02*
X135536311Y-37913883D01*
X135536311Y-37913883D02*
X135423482Y-37987438D01*
X135423482Y-37987438D02*
X135273876Y-38004578D01*
X135273876Y-38004578D02*
X135040897Y-37955486D01*
X161787842Y-66583266D02*
X162549747Y-66583266D01*
X162168794Y-66964219D02*
X162168794Y-66202314D01*
X163502127Y-65964219D02*
X163025937Y-65964219D01*
X163025937Y-65964219D02*
X162978318Y-66440409D01*
X162978318Y-66440409D02*
X163025937Y-66392790D01*
X163025937Y-66392790D02*
X163121175Y-66345171D01*
X163121175Y-66345171D02*
X163359270Y-66345171D01*
X163359270Y-66345171D02*
X163454508Y-66392790D01*
X163454508Y-66392790D02*
X163502127Y-66440409D01*
X163502127Y-66440409D02*
X163549746Y-66535647D01*
X163549746Y-66535647D02*
X163549746Y-66773742D01*
X163549746Y-66773742D02*
X163502127Y-66868980D01*
X163502127Y-66868980D02*
X163454508Y-66916600D01*
X163454508Y-66916600D02*
X163359270Y-66964219D01*
X163359270Y-66964219D02*
X163121175Y-66964219D01*
X163121175Y-66964219D02*
X163025937Y-66916600D01*
X163025937Y-66916600D02*
X162978318Y-66868980D01*
X163835461Y-65964219D02*
X164168794Y-66964219D01*
X164168794Y-66964219D02*
X164502127Y-65964219D01*
X102012842Y-48240219D02*
X102012842Y-47240219D01*
X102441413Y-48240219D02*
X102441413Y-47716409D01*
X102441413Y-47716409D02*
X102393794Y-47621171D01*
X102393794Y-47621171D02*
X102298556Y-47573552D01*
X102298556Y-47573552D02*
X102155699Y-47573552D01*
X102155699Y-47573552D02*
X102060461Y-47621171D01*
X102060461Y-47621171D02*
X102012842Y-47668790D01*
X103060461Y-48240219D02*
X102965223Y-48192600D01*
X102965223Y-48192600D02*
X102917604Y-48144980D01*
X102917604Y-48144980D02*
X102869985Y-48049742D01*
X102869985Y-48049742D02*
X102869985Y-47764028D01*
X102869985Y-47764028D02*
X102917604Y-47668790D01*
X102917604Y-47668790D02*
X102965223Y-47621171D01*
X102965223Y-47621171D02*
X103060461Y-47573552D01*
X103060461Y-47573552D02*
X103203318Y-47573552D01*
X103203318Y-47573552D02*
X103298556Y-47621171D01*
X103298556Y-47621171D02*
X103346175Y-47668790D01*
X103346175Y-47668790D02*
X103393794Y-47764028D01*
X103393794Y-47764028D02*
X103393794Y-48049742D01*
X103393794Y-48049742D02*
X103346175Y-48144980D01*
X103346175Y-48144980D02*
X103298556Y-48192600D01*
X103298556Y-48192600D02*
X103203318Y-48240219D01*
X103203318Y-48240219D02*
X103060461Y-48240219D01*
X103965223Y-48240219D02*
X103869985Y-48192600D01*
X103869985Y-48192600D02*
X103822366Y-48097361D01*
X103822366Y-48097361D02*
X103822366Y-47240219D01*
X104727128Y-48192600D02*
X104631890Y-48240219D01*
X104631890Y-48240219D02*
X104441414Y-48240219D01*
X104441414Y-48240219D02*
X104346176Y-48192600D01*
X104346176Y-48192600D02*
X104298557Y-48097361D01*
X104298557Y-48097361D02*
X104298557Y-47716409D01*
X104298557Y-47716409D02*
X104346176Y-47621171D01*
X104346176Y-47621171D02*
X104441414Y-47573552D01*
X104441414Y-47573552D02*
X104631890Y-47573552D01*
X104631890Y-47573552D02*
X104727128Y-47621171D01*
X104727128Y-47621171D02*
X104774747Y-47716409D01*
X104774747Y-47716409D02*
X104774747Y-47811647D01*
X104774747Y-47811647D02*
X104298557Y-47906885D01*
X100472842Y-46860219D02*
X100472842Y-46193552D01*
X100472842Y-46288790D02*
X100520461Y-46241171D01*
X100520461Y-46241171D02*
X100615699Y-46193552D01*
X100615699Y-46193552D02*
X100758556Y-46193552D01*
X100758556Y-46193552D02*
X100853794Y-46241171D01*
X100853794Y-46241171D02*
X100901413Y-46336409D01*
X100901413Y-46336409D02*
X100901413Y-46860219D01*
X100901413Y-46336409D02*
X100949032Y-46241171D01*
X100949032Y-46241171D02*
X101044270Y-46193552D01*
X101044270Y-46193552D02*
X101187127Y-46193552D01*
X101187127Y-46193552D02*
X101282366Y-46241171D01*
X101282366Y-46241171D02*
X101329985Y-46336409D01*
X101329985Y-46336409D02*
X101329985Y-46860219D01*
X101949032Y-46860219D02*
X101853794Y-46812600D01*
X101853794Y-46812600D02*
X101806175Y-46764980D01*
X101806175Y-46764980D02*
X101758556Y-46669742D01*
X101758556Y-46669742D02*
X101758556Y-46384028D01*
X101758556Y-46384028D02*
X101806175Y-46288790D01*
X101806175Y-46288790D02*
X101853794Y-46241171D01*
X101853794Y-46241171D02*
X101949032Y-46193552D01*
X101949032Y-46193552D02*
X102091889Y-46193552D01*
X102091889Y-46193552D02*
X102187127Y-46241171D01*
X102187127Y-46241171D02*
X102234746Y-46288790D01*
X102234746Y-46288790D02*
X102282365Y-46384028D01*
X102282365Y-46384028D02*
X102282365Y-46669742D01*
X102282365Y-46669742D02*
X102234746Y-46764980D01*
X102234746Y-46764980D02*
X102187127Y-46812600D01*
X102187127Y-46812600D02*
X102091889Y-46860219D01*
X102091889Y-46860219D02*
X101949032Y-46860219D01*
X103139508Y-46193552D02*
X103139508Y-46860219D01*
X102710937Y-46193552D02*
X102710937Y-46717361D01*
X102710937Y-46717361D02*
X102758556Y-46812600D01*
X102758556Y-46812600D02*
X102853794Y-46860219D01*
X102853794Y-46860219D02*
X102996651Y-46860219D01*
X102996651Y-46860219D02*
X103091889Y-46812600D01*
X103091889Y-46812600D02*
X103139508Y-46764980D01*
X103615699Y-46193552D02*
X103615699Y-46860219D01*
X103615699Y-46288790D02*
X103663318Y-46241171D01*
X103663318Y-46241171D02*
X103758556Y-46193552D01*
X103758556Y-46193552D02*
X103901413Y-46193552D01*
X103901413Y-46193552D02*
X103996651Y-46241171D01*
X103996651Y-46241171D02*
X104044270Y-46336409D01*
X104044270Y-46336409D02*
X104044270Y-46860219D01*
X104377604Y-46193552D02*
X104758556Y-46193552D01*
X104520461Y-45860219D02*
X104520461Y-46717361D01*
X104520461Y-46717361D02*
X104568080Y-46812600D01*
X104568080Y-46812600D02*
X104663318Y-46860219D01*
X104663318Y-46860219D02*
X104758556Y-46860219D01*
X105091890Y-46860219D02*
X105091890Y-46193552D01*
X105091890Y-45860219D02*
X105044271Y-45907838D01*
X105044271Y-45907838D02*
X105091890Y-45955457D01*
X105091890Y-45955457D02*
X105139509Y-45907838D01*
X105139509Y-45907838D02*
X105091890Y-45860219D01*
X105091890Y-45860219D02*
X105091890Y-45955457D01*
X105568080Y-46193552D02*
X105568080Y-46860219D01*
X105568080Y-46288790D02*
X105615699Y-46241171D01*
X105615699Y-46241171D02*
X105710937Y-46193552D01*
X105710937Y-46193552D02*
X105853794Y-46193552D01*
X105853794Y-46193552D02*
X105949032Y-46241171D01*
X105949032Y-46241171D02*
X105996651Y-46336409D01*
X105996651Y-46336409D02*
X105996651Y-46860219D01*
X106901413Y-46193552D02*
X106901413Y-47003076D01*
X106901413Y-47003076D02*
X106853794Y-47098314D01*
X106853794Y-47098314D02*
X106806175Y-47145933D01*
X106806175Y-47145933D02*
X106710937Y-47193552D01*
X106710937Y-47193552D02*
X106568080Y-47193552D01*
X106568080Y-47193552D02*
X106472842Y-47145933D01*
X106901413Y-46812600D02*
X106806175Y-46860219D01*
X106806175Y-46860219D02*
X106615699Y-46860219D01*
X106615699Y-46860219D02*
X106520461Y-46812600D01*
X106520461Y-46812600D02*
X106472842Y-46764980D01*
X106472842Y-46764980D02*
X106425223Y-46669742D01*
X106425223Y-46669742D02*
X106425223Y-46384028D01*
X106425223Y-46384028D02*
X106472842Y-46288790D01*
X106472842Y-46288790D02*
X106520461Y-46241171D01*
X106520461Y-46241171D02*
X106615699Y-46193552D01*
X106615699Y-46193552D02*
X106806175Y-46193552D01*
X106806175Y-46193552D02*
X106901413Y-46241171D01*
X162434342Y-69177552D02*
X162434342Y-70177552D01*
X162434342Y-69225171D02*
X162529580Y-69177552D01*
X162529580Y-69177552D02*
X162720056Y-69177552D01*
X162720056Y-69177552D02*
X162815294Y-69225171D01*
X162815294Y-69225171D02*
X162862913Y-69272790D01*
X162862913Y-69272790D02*
X162910532Y-69368028D01*
X162910532Y-69368028D02*
X162910532Y-69653742D01*
X162910532Y-69653742D02*
X162862913Y-69748980D01*
X162862913Y-69748980D02*
X162815294Y-69796600D01*
X162815294Y-69796600D02*
X162720056Y-69844219D01*
X162720056Y-69844219D02*
X162529580Y-69844219D01*
X162529580Y-69844219D02*
X162434342Y-69796600D01*
X163767675Y-69796600D02*
X163672437Y-69844219D01*
X163672437Y-69844219D02*
X163481961Y-69844219D01*
X163481961Y-69844219D02*
X163386723Y-69796600D01*
X163386723Y-69796600D02*
X163339104Y-69748980D01*
X163339104Y-69748980D02*
X163291485Y-69653742D01*
X163291485Y-69653742D02*
X163291485Y-69368028D01*
X163291485Y-69368028D02*
X163339104Y-69272790D01*
X163339104Y-69272790D02*
X163386723Y-69225171D01*
X163386723Y-69225171D02*
X163481961Y-69177552D01*
X163481961Y-69177552D02*
X163672437Y-69177552D01*
X163672437Y-69177552D02*
X163767675Y-69225171D01*
X164196247Y-69844219D02*
X164196247Y-68844219D01*
X164196247Y-69225171D02*
X164291485Y-69177552D01*
X164291485Y-69177552D02*
X164481961Y-69177552D01*
X164481961Y-69177552D02*
X164577199Y-69225171D01*
X164577199Y-69225171D02*
X164624818Y-69272790D01*
X164624818Y-69272790D02*
X164672437Y-69368028D01*
X164672437Y-69368028D02*
X164672437Y-69653742D01*
X164672437Y-69653742D02*
X164624818Y-69748980D01*
X164624818Y-69748980D02*
X164577199Y-69796600D01*
X164577199Y-69796600D02*
X164481961Y-69844219D01*
X164481961Y-69844219D02*
X164291485Y-69844219D01*
X164291485Y-69844219D02*
X164196247Y-69796600D01*
X160936723Y-71176600D02*
X161031961Y-71224219D01*
X161031961Y-71224219D02*
X161222437Y-71224219D01*
X161222437Y-71224219D02*
X161317675Y-71176600D01*
X161317675Y-71176600D02*
X161365294Y-71081361D01*
X161365294Y-71081361D02*
X161365294Y-71033742D01*
X161365294Y-71033742D02*
X161317675Y-70938504D01*
X161317675Y-70938504D02*
X161222437Y-70890885D01*
X161222437Y-70890885D02*
X161079580Y-70890885D01*
X161079580Y-70890885D02*
X160984342Y-70843266D01*
X160984342Y-70843266D02*
X160936723Y-70748028D01*
X160936723Y-70748028D02*
X160936723Y-70700409D01*
X160936723Y-70700409D02*
X160984342Y-70605171D01*
X160984342Y-70605171D02*
X161079580Y-70557552D01*
X161079580Y-70557552D02*
X161222437Y-70557552D01*
X161222437Y-70557552D02*
X161317675Y-70605171D01*
X162222437Y-70557552D02*
X162222437Y-71224219D01*
X161793866Y-70557552D02*
X161793866Y-71081361D01*
X161793866Y-71081361D02*
X161841485Y-71176600D01*
X161841485Y-71176600D02*
X161936723Y-71224219D01*
X161936723Y-71224219D02*
X162079580Y-71224219D01*
X162079580Y-71224219D02*
X162174818Y-71176600D01*
X162174818Y-71176600D02*
X162222437Y-71128980D01*
X162698628Y-70557552D02*
X162698628Y-71557552D01*
X162698628Y-70605171D02*
X162793866Y-70557552D01*
X162793866Y-70557552D02*
X162984342Y-70557552D01*
X162984342Y-70557552D02*
X163079580Y-70605171D01*
X163079580Y-70605171D02*
X163127199Y-70652790D01*
X163127199Y-70652790D02*
X163174818Y-70748028D01*
X163174818Y-70748028D02*
X163174818Y-71033742D01*
X163174818Y-71033742D02*
X163127199Y-71128980D01*
X163127199Y-71128980D02*
X163079580Y-71176600D01*
X163079580Y-71176600D02*
X162984342Y-71224219D01*
X162984342Y-71224219D02*
X162793866Y-71224219D01*
X162793866Y-71224219D02*
X162698628Y-71176600D01*
X163603390Y-70557552D02*
X163603390Y-71557552D01*
X163603390Y-70605171D02*
X163698628Y-70557552D01*
X163698628Y-70557552D02*
X163889104Y-70557552D01*
X163889104Y-70557552D02*
X163984342Y-70605171D01*
X163984342Y-70605171D02*
X164031961Y-70652790D01*
X164031961Y-70652790D02*
X164079580Y-70748028D01*
X164079580Y-70748028D02*
X164079580Y-71033742D01*
X164079580Y-71033742D02*
X164031961Y-71128980D01*
X164031961Y-71128980D02*
X163984342Y-71176600D01*
X163984342Y-71176600D02*
X163889104Y-71224219D01*
X163889104Y-71224219D02*
X163698628Y-71224219D01*
X163698628Y-71224219D02*
X163603390Y-71176600D01*
X164651009Y-71224219D02*
X164555771Y-71176600D01*
X164555771Y-71176600D02*
X164508152Y-71128980D01*
X164508152Y-71128980D02*
X164460533Y-71033742D01*
X164460533Y-71033742D02*
X164460533Y-70748028D01*
X164460533Y-70748028D02*
X164508152Y-70652790D01*
X164508152Y-70652790D02*
X164555771Y-70605171D01*
X164555771Y-70605171D02*
X164651009Y-70557552D01*
X164651009Y-70557552D02*
X164793866Y-70557552D01*
X164793866Y-70557552D02*
X164889104Y-70605171D01*
X164889104Y-70605171D02*
X164936723Y-70652790D01*
X164936723Y-70652790D02*
X164984342Y-70748028D01*
X164984342Y-70748028D02*
X164984342Y-71033742D01*
X164984342Y-71033742D02*
X164936723Y-71128980D01*
X164936723Y-71128980D02*
X164889104Y-71176600D01*
X164889104Y-71176600D02*
X164793866Y-71224219D01*
X164793866Y-71224219D02*
X164651009Y-71224219D01*
X165412914Y-71224219D02*
X165412914Y-70557552D01*
X165412914Y-70748028D02*
X165460533Y-70652790D01*
X165460533Y-70652790D02*
X165508152Y-70605171D01*
X165508152Y-70605171D02*
X165603390Y-70557552D01*
X165603390Y-70557552D02*
X165698628Y-70557552D01*
X165889105Y-70557552D02*
X166270057Y-70557552D01*
X166031962Y-70224219D02*
X166031962Y-71081361D01*
X166031962Y-71081361D02*
X166079581Y-71176600D01*
X166079581Y-71176600D02*
X166174819Y-71224219D01*
X166174819Y-71224219D02*
X166270057Y-71224219D01*
X140036842Y-107257552D02*
X140036842Y-108257552D01*
X140036842Y-107305171D02*
X140132080Y-107257552D01*
X140132080Y-107257552D02*
X140322556Y-107257552D01*
X140322556Y-107257552D02*
X140417794Y-107305171D01*
X140417794Y-107305171D02*
X140465413Y-107352790D01*
X140465413Y-107352790D02*
X140513032Y-107448028D01*
X140513032Y-107448028D02*
X140513032Y-107733742D01*
X140513032Y-107733742D02*
X140465413Y-107828980D01*
X140465413Y-107828980D02*
X140417794Y-107876600D01*
X140417794Y-107876600D02*
X140322556Y-107924219D01*
X140322556Y-107924219D02*
X140132080Y-107924219D01*
X140132080Y-107924219D02*
X140036842Y-107876600D01*
X141370175Y-107876600D02*
X141274937Y-107924219D01*
X141274937Y-107924219D02*
X141084461Y-107924219D01*
X141084461Y-107924219D02*
X140989223Y-107876600D01*
X140989223Y-107876600D02*
X140941604Y-107828980D01*
X140941604Y-107828980D02*
X140893985Y-107733742D01*
X140893985Y-107733742D02*
X140893985Y-107448028D01*
X140893985Y-107448028D02*
X140941604Y-107352790D01*
X140941604Y-107352790D02*
X140989223Y-107305171D01*
X140989223Y-107305171D02*
X141084461Y-107257552D01*
X141084461Y-107257552D02*
X141274937Y-107257552D01*
X141274937Y-107257552D02*
X141370175Y-107305171D01*
X141798747Y-107924219D02*
X141798747Y-106924219D01*
X141798747Y-107305171D02*
X141893985Y-107257552D01*
X141893985Y-107257552D02*
X142084461Y-107257552D01*
X142084461Y-107257552D02*
X142179699Y-107305171D01*
X142179699Y-107305171D02*
X142227318Y-107352790D01*
X142227318Y-107352790D02*
X142274937Y-107448028D01*
X142274937Y-107448028D02*
X142274937Y-107733742D01*
X142274937Y-107733742D02*
X142227318Y-107828980D01*
X142227318Y-107828980D02*
X142179699Y-107876600D01*
X142179699Y-107876600D02*
X142084461Y-107924219D01*
X142084461Y-107924219D02*
X141893985Y-107924219D01*
X141893985Y-107924219D02*
X141798747Y-107876600D01*
X138539223Y-109256600D02*
X138634461Y-109304219D01*
X138634461Y-109304219D02*
X138824937Y-109304219D01*
X138824937Y-109304219D02*
X138920175Y-109256600D01*
X138920175Y-109256600D02*
X138967794Y-109161361D01*
X138967794Y-109161361D02*
X138967794Y-109113742D01*
X138967794Y-109113742D02*
X138920175Y-109018504D01*
X138920175Y-109018504D02*
X138824937Y-108970885D01*
X138824937Y-108970885D02*
X138682080Y-108970885D01*
X138682080Y-108970885D02*
X138586842Y-108923266D01*
X138586842Y-108923266D02*
X138539223Y-108828028D01*
X138539223Y-108828028D02*
X138539223Y-108780409D01*
X138539223Y-108780409D02*
X138586842Y-108685171D01*
X138586842Y-108685171D02*
X138682080Y-108637552D01*
X138682080Y-108637552D02*
X138824937Y-108637552D01*
X138824937Y-108637552D02*
X138920175Y-108685171D01*
X139824937Y-108637552D02*
X139824937Y-109304219D01*
X139396366Y-108637552D02*
X139396366Y-109161361D01*
X139396366Y-109161361D02*
X139443985Y-109256600D01*
X139443985Y-109256600D02*
X139539223Y-109304219D01*
X139539223Y-109304219D02*
X139682080Y-109304219D01*
X139682080Y-109304219D02*
X139777318Y-109256600D01*
X139777318Y-109256600D02*
X139824937Y-109208980D01*
X140301128Y-108637552D02*
X140301128Y-109637552D01*
X140301128Y-108685171D02*
X140396366Y-108637552D01*
X140396366Y-108637552D02*
X140586842Y-108637552D01*
X140586842Y-108637552D02*
X140682080Y-108685171D01*
X140682080Y-108685171D02*
X140729699Y-108732790D01*
X140729699Y-108732790D02*
X140777318Y-108828028D01*
X140777318Y-108828028D02*
X140777318Y-109113742D01*
X140777318Y-109113742D02*
X140729699Y-109208980D01*
X140729699Y-109208980D02*
X140682080Y-109256600D01*
X140682080Y-109256600D02*
X140586842Y-109304219D01*
X140586842Y-109304219D02*
X140396366Y-109304219D01*
X140396366Y-109304219D02*
X140301128Y-109256600D01*
X141205890Y-108637552D02*
X141205890Y-109637552D01*
X141205890Y-108685171D02*
X141301128Y-108637552D01*
X141301128Y-108637552D02*
X141491604Y-108637552D01*
X141491604Y-108637552D02*
X141586842Y-108685171D01*
X141586842Y-108685171D02*
X141634461Y-108732790D01*
X141634461Y-108732790D02*
X141682080Y-108828028D01*
X141682080Y-108828028D02*
X141682080Y-109113742D01*
X141682080Y-109113742D02*
X141634461Y-109208980D01*
X141634461Y-109208980D02*
X141586842Y-109256600D01*
X141586842Y-109256600D02*
X141491604Y-109304219D01*
X141491604Y-109304219D02*
X141301128Y-109304219D01*
X141301128Y-109304219D02*
X141205890Y-109256600D01*
X142253509Y-109304219D02*
X142158271Y-109256600D01*
X142158271Y-109256600D02*
X142110652Y-109208980D01*
X142110652Y-109208980D02*
X142063033Y-109113742D01*
X142063033Y-109113742D02*
X142063033Y-108828028D01*
X142063033Y-108828028D02*
X142110652Y-108732790D01*
X142110652Y-108732790D02*
X142158271Y-108685171D01*
X142158271Y-108685171D02*
X142253509Y-108637552D01*
X142253509Y-108637552D02*
X142396366Y-108637552D01*
X142396366Y-108637552D02*
X142491604Y-108685171D01*
X142491604Y-108685171D02*
X142539223Y-108732790D01*
X142539223Y-108732790D02*
X142586842Y-108828028D01*
X142586842Y-108828028D02*
X142586842Y-109113742D01*
X142586842Y-109113742D02*
X142539223Y-109208980D01*
X142539223Y-109208980D02*
X142491604Y-109256600D01*
X142491604Y-109256600D02*
X142396366Y-109304219D01*
X142396366Y-109304219D02*
X142253509Y-109304219D01*
X143015414Y-109304219D02*
X143015414Y-108637552D01*
X143015414Y-108828028D02*
X143063033Y-108732790D01*
X143063033Y-108732790D02*
X143110652Y-108685171D01*
X143110652Y-108685171D02*
X143205890Y-108637552D01*
X143205890Y-108637552D02*
X143301128Y-108637552D01*
X143491605Y-108637552D02*
X143872557Y-108637552D01*
X143634462Y-108304219D02*
X143634462Y-109161361D01*
X143634462Y-109161361D02*
X143682081Y-109256600D01*
X143682081Y-109256600D02*
X143777319Y-109304219D01*
X143777319Y-109304219D02*
X143872557Y-109304219D01*
X105235342Y-152303219D02*
X105235342Y-151636552D01*
X105235342Y-151731790D02*
X105282961Y-151684171D01*
X105282961Y-151684171D02*
X105378199Y-151636552D01*
X105378199Y-151636552D02*
X105521056Y-151636552D01*
X105521056Y-151636552D02*
X105616294Y-151684171D01*
X105616294Y-151684171D02*
X105663913Y-151779409D01*
X105663913Y-151779409D02*
X105663913Y-152303219D01*
X105663913Y-151779409D02*
X105711532Y-151684171D01*
X105711532Y-151684171D02*
X105806770Y-151636552D01*
X105806770Y-151636552D02*
X105949627Y-151636552D01*
X105949627Y-151636552D02*
X106044866Y-151684171D01*
X106044866Y-151684171D02*
X106092485Y-151779409D01*
X106092485Y-151779409D02*
X106092485Y-152303219D01*
X106711532Y-152303219D02*
X106616294Y-152255600D01*
X106616294Y-152255600D02*
X106568675Y-152207980D01*
X106568675Y-152207980D02*
X106521056Y-152112742D01*
X106521056Y-152112742D02*
X106521056Y-151827028D01*
X106521056Y-151827028D02*
X106568675Y-151731790D01*
X106568675Y-151731790D02*
X106616294Y-151684171D01*
X106616294Y-151684171D02*
X106711532Y-151636552D01*
X106711532Y-151636552D02*
X106854389Y-151636552D01*
X106854389Y-151636552D02*
X106949627Y-151684171D01*
X106949627Y-151684171D02*
X106997246Y-151731790D01*
X106997246Y-151731790D02*
X107044865Y-151827028D01*
X107044865Y-151827028D02*
X107044865Y-152112742D01*
X107044865Y-152112742D02*
X106997246Y-152207980D01*
X106997246Y-152207980D02*
X106949627Y-152255600D01*
X106949627Y-152255600D02*
X106854389Y-152303219D01*
X106854389Y-152303219D02*
X106711532Y-152303219D01*
X107902008Y-151636552D02*
X107902008Y-152303219D01*
X107473437Y-151636552D02*
X107473437Y-152160361D01*
X107473437Y-152160361D02*
X107521056Y-152255600D01*
X107521056Y-152255600D02*
X107616294Y-152303219D01*
X107616294Y-152303219D02*
X107759151Y-152303219D01*
X107759151Y-152303219D02*
X107854389Y-152255600D01*
X107854389Y-152255600D02*
X107902008Y-152207980D01*
X108378199Y-151636552D02*
X108378199Y-152303219D01*
X108378199Y-151731790D02*
X108425818Y-151684171D01*
X108425818Y-151684171D02*
X108521056Y-151636552D01*
X108521056Y-151636552D02*
X108663913Y-151636552D01*
X108663913Y-151636552D02*
X108759151Y-151684171D01*
X108759151Y-151684171D02*
X108806770Y-151779409D01*
X108806770Y-151779409D02*
X108806770Y-152303219D01*
X109140104Y-151636552D02*
X109521056Y-151636552D01*
X109282961Y-151303219D02*
X109282961Y-152160361D01*
X109282961Y-152160361D02*
X109330580Y-152255600D01*
X109330580Y-152255600D02*
X109425818Y-152303219D01*
X109425818Y-152303219D02*
X109521056Y-152303219D01*
X109854390Y-152303219D02*
X109854390Y-151636552D01*
X109854390Y-151303219D02*
X109806771Y-151350838D01*
X109806771Y-151350838D02*
X109854390Y-151398457D01*
X109854390Y-151398457D02*
X109902009Y-151350838D01*
X109902009Y-151350838D02*
X109854390Y-151303219D01*
X109854390Y-151303219D02*
X109854390Y-151398457D01*
X110330580Y-151636552D02*
X110330580Y-152303219D01*
X110330580Y-151731790D02*
X110378199Y-151684171D01*
X110378199Y-151684171D02*
X110473437Y-151636552D01*
X110473437Y-151636552D02*
X110616294Y-151636552D01*
X110616294Y-151636552D02*
X110711532Y-151684171D01*
X110711532Y-151684171D02*
X110759151Y-151779409D01*
X110759151Y-151779409D02*
X110759151Y-152303219D01*
X111663913Y-151636552D02*
X111663913Y-152446076D01*
X111663913Y-152446076D02*
X111616294Y-152541314D01*
X111616294Y-152541314D02*
X111568675Y-152588933D01*
X111568675Y-152588933D02*
X111473437Y-152636552D01*
X111473437Y-152636552D02*
X111330580Y-152636552D01*
X111330580Y-152636552D02*
X111235342Y-152588933D01*
X111663913Y-152255600D02*
X111568675Y-152303219D01*
X111568675Y-152303219D02*
X111378199Y-152303219D01*
X111378199Y-152303219D02*
X111282961Y-152255600D01*
X111282961Y-152255600D02*
X111235342Y-152207980D01*
X111235342Y-152207980D02*
X111187723Y-152112742D01*
X111187723Y-152112742D02*
X111187723Y-151827028D01*
X111187723Y-151827028D02*
X111235342Y-151731790D01*
X111235342Y-151731790D02*
X111282961Y-151684171D01*
X111282961Y-151684171D02*
X111378199Y-151636552D01*
X111378199Y-151636552D02*
X111568675Y-151636552D01*
X111568675Y-151636552D02*
X111663913Y-151684171D01*
X107185342Y-153603219D02*
X107185342Y-152603219D01*
X107613913Y-153603219D02*
X107613913Y-153079409D01*
X107613913Y-153079409D02*
X107566294Y-152984171D01*
X107566294Y-152984171D02*
X107471056Y-152936552D01*
X107471056Y-152936552D02*
X107328199Y-152936552D01*
X107328199Y-152936552D02*
X107232961Y-152984171D01*
X107232961Y-152984171D02*
X107185342Y-153031790D01*
X108232961Y-153603219D02*
X108137723Y-153555600D01*
X108137723Y-153555600D02*
X108090104Y-153507980D01*
X108090104Y-153507980D02*
X108042485Y-153412742D01*
X108042485Y-153412742D02*
X108042485Y-153127028D01*
X108042485Y-153127028D02*
X108090104Y-153031790D01*
X108090104Y-153031790D02*
X108137723Y-152984171D01*
X108137723Y-152984171D02*
X108232961Y-152936552D01*
X108232961Y-152936552D02*
X108375818Y-152936552D01*
X108375818Y-152936552D02*
X108471056Y-152984171D01*
X108471056Y-152984171D02*
X108518675Y-153031790D01*
X108518675Y-153031790D02*
X108566294Y-153127028D01*
X108566294Y-153127028D02*
X108566294Y-153412742D01*
X108566294Y-153412742D02*
X108518675Y-153507980D01*
X108518675Y-153507980D02*
X108471056Y-153555600D01*
X108471056Y-153555600D02*
X108375818Y-153603219D01*
X108375818Y-153603219D02*
X108232961Y-153603219D01*
X109137723Y-153603219D02*
X109042485Y-153555600D01*
X109042485Y-153555600D02*
X108994866Y-153460361D01*
X108994866Y-153460361D02*
X108994866Y-152603219D01*
X109899628Y-153555600D02*
X109804390Y-153603219D01*
X109804390Y-153603219D02*
X109613914Y-153603219D01*
X109613914Y-153603219D02*
X109518676Y-153555600D01*
X109518676Y-153555600D02*
X109471057Y-153460361D01*
X109471057Y-153460361D02*
X109471057Y-153079409D01*
X109471057Y-153079409D02*
X109518676Y-152984171D01*
X109518676Y-152984171D02*
X109613914Y-152936552D01*
X109613914Y-152936552D02*
X109804390Y-152936552D01*
X109804390Y-152936552D02*
X109899628Y-152984171D01*
X109899628Y-152984171D02*
X109947247Y-153079409D01*
X109947247Y-153079409D02*
X109947247Y-153174647D01*
X109947247Y-153174647D02*
X109471057Y-153269885D01*
X63663092Y-126297552D02*
X63663092Y-127297552D01*
X63663092Y-126345171D02*
X63758330Y-126297552D01*
X63758330Y-126297552D02*
X63948806Y-126297552D01*
X63948806Y-126297552D02*
X64044044Y-126345171D01*
X64044044Y-126345171D02*
X64091663Y-126392790D01*
X64091663Y-126392790D02*
X64139282Y-126488028D01*
X64139282Y-126488028D02*
X64139282Y-126773742D01*
X64139282Y-126773742D02*
X64091663Y-126868980D01*
X64091663Y-126868980D02*
X64044044Y-126916600D01*
X64044044Y-126916600D02*
X63948806Y-126964219D01*
X63948806Y-126964219D02*
X63758330Y-126964219D01*
X63758330Y-126964219D02*
X63663092Y-126916600D01*
X64996425Y-126916600D02*
X64901187Y-126964219D01*
X64901187Y-126964219D02*
X64710711Y-126964219D01*
X64710711Y-126964219D02*
X64615473Y-126916600D01*
X64615473Y-126916600D02*
X64567854Y-126868980D01*
X64567854Y-126868980D02*
X64520235Y-126773742D01*
X64520235Y-126773742D02*
X64520235Y-126488028D01*
X64520235Y-126488028D02*
X64567854Y-126392790D01*
X64567854Y-126392790D02*
X64615473Y-126345171D01*
X64615473Y-126345171D02*
X64710711Y-126297552D01*
X64710711Y-126297552D02*
X64901187Y-126297552D01*
X64901187Y-126297552D02*
X64996425Y-126345171D01*
X65424997Y-126964219D02*
X65424997Y-125964219D01*
X65424997Y-126345171D02*
X65520235Y-126297552D01*
X65520235Y-126297552D02*
X65710711Y-126297552D01*
X65710711Y-126297552D02*
X65805949Y-126345171D01*
X65805949Y-126345171D02*
X65853568Y-126392790D01*
X65853568Y-126392790D02*
X65901187Y-126488028D01*
X65901187Y-126488028D02*
X65901187Y-126773742D01*
X65901187Y-126773742D02*
X65853568Y-126868980D01*
X65853568Y-126868980D02*
X65805949Y-126916600D01*
X65805949Y-126916600D02*
X65710711Y-126964219D01*
X65710711Y-126964219D02*
X65520235Y-126964219D01*
X65520235Y-126964219D02*
X65424997Y-126916600D01*
X62165473Y-128296600D02*
X62260711Y-128344219D01*
X62260711Y-128344219D02*
X62451187Y-128344219D01*
X62451187Y-128344219D02*
X62546425Y-128296600D01*
X62546425Y-128296600D02*
X62594044Y-128201361D01*
X62594044Y-128201361D02*
X62594044Y-128153742D01*
X62594044Y-128153742D02*
X62546425Y-128058504D01*
X62546425Y-128058504D02*
X62451187Y-128010885D01*
X62451187Y-128010885D02*
X62308330Y-128010885D01*
X62308330Y-128010885D02*
X62213092Y-127963266D01*
X62213092Y-127963266D02*
X62165473Y-127868028D01*
X62165473Y-127868028D02*
X62165473Y-127820409D01*
X62165473Y-127820409D02*
X62213092Y-127725171D01*
X62213092Y-127725171D02*
X62308330Y-127677552D01*
X62308330Y-127677552D02*
X62451187Y-127677552D01*
X62451187Y-127677552D02*
X62546425Y-127725171D01*
X63451187Y-127677552D02*
X63451187Y-128344219D01*
X63022616Y-127677552D02*
X63022616Y-128201361D01*
X63022616Y-128201361D02*
X63070235Y-128296600D01*
X63070235Y-128296600D02*
X63165473Y-128344219D01*
X63165473Y-128344219D02*
X63308330Y-128344219D01*
X63308330Y-128344219D02*
X63403568Y-128296600D01*
X63403568Y-128296600D02*
X63451187Y-128248980D01*
X63927378Y-127677552D02*
X63927378Y-128677552D01*
X63927378Y-127725171D02*
X64022616Y-127677552D01*
X64022616Y-127677552D02*
X64213092Y-127677552D01*
X64213092Y-127677552D02*
X64308330Y-127725171D01*
X64308330Y-127725171D02*
X64355949Y-127772790D01*
X64355949Y-127772790D02*
X64403568Y-127868028D01*
X64403568Y-127868028D02*
X64403568Y-128153742D01*
X64403568Y-128153742D02*
X64355949Y-128248980D01*
X64355949Y-128248980D02*
X64308330Y-128296600D01*
X64308330Y-128296600D02*
X64213092Y-128344219D01*
X64213092Y-128344219D02*
X64022616Y-128344219D01*
X64022616Y-128344219D02*
X63927378Y-128296600D01*
X64832140Y-127677552D02*
X64832140Y-128677552D01*
X64832140Y-127725171D02*
X64927378Y-127677552D01*
X64927378Y-127677552D02*
X65117854Y-127677552D01*
X65117854Y-127677552D02*
X65213092Y-127725171D01*
X65213092Y-127725171D02*
X65260711Y-127772790D01*
X65260711Y-127772790D02*
X65308330Y-127868028D01*
X65308330Y-127868028D02*
X65308330Y-128153742D01*
X65308330Y-128153742D02*
X65260711Y-128248980D01*
X65260711Y-128248980D02*
X65213092Y-128296600D01*
X65213092Y-128296600D02*
X65117854Y-128344219D01*
X65117854Y-128344219D02*
X64927378Y-128344219D01*
X64927378Y-128344219D02*
X64832140Y-128296600D01*
X65879759Y-128344219D02*
X65784521Y-128296600D01*
X65784521Y-128296600D02*
X65736902Y-128248980D01*
X65736902Y-128248980D02*
X65689283Y-128153742D01*
X65689283Y-128153742D02*
X65689283Y-127868028D01*
X65689283Y-127868028D02*
X65736902Y-127772790D01*
X65736902Y-127772790D02*
X65784521Y-127725171D01*
X65784521Y-127725171D02*
X65879759Y-127677552D01*
X65879759Y-127677552D02*
X66022616Y-127677552D01*
X66022616Y-127677552D02*
X66117854Y-127725171D01*
X66117854Y-127725171D02*
X66165473Y-127772790D01*
X66165473Y-127772790D02*
X66213092Y-127868028D01*
X66213092Y-127868028D02*
X66213092Y-128153742D01*
X66213092Y-128153742D02*
X66165473Y-128248980D01*
X66165473Y-128248980D02*
X66117854Y-128296600D01*
X66117854Y-128296600D02*
X66022616Y-128344219D01*
X66022616Y-128344219D02*
X65879759Y-128344219D01*
X66641664Y-128344219D02*
X66641664Y-127677552D01*
X66641664Y-127868028D02*
X66689283Y-127772790D01*
X66689283Y-127772790D02*
X66736902Y-127725171D01*
X66736902Y-127725171D02*
X66832140Y-127677552D01*
X66832140Y-127677552D02*
X66927378Y-127677552D01*
X67117855Y-127677552D02*
X67498807Y-127677552D01*
X67260712Y-127344219D02*
X67260712Y-128201361D01*
X67260712Y-128201361D02*
X67308331Y-128296600D01*
X67308331Y-128296600D02*
X67403569Y-128344219D01*
X67403569Y-128344219D02*
X67498807Y-128344219D01*
X63345223Y-70176600D02*
X63440461Y-70224219D01*
X63440461Y-70224219D02*
X63630937Y-70224219D01*
X63630937Y-70224219D02*
X63726175Y-70176600D01*
X63726175Y-70176600D02*
X63773794Y-70081361D01*
X63773794Y-70081361D02*
X63773794Y-70033742D01*
X63773794Y-70033742D02*
X63726175Y-69938504D01*
X63726175Y-69938504D02*
X63630937Y-69890885D01*
X63630937Y-69890885D02*
X63488080Y-69890885D01*
X63488080Y-69890885D02*
X63392842Y-69843266D01*
X63392842Y-69843266D02*
X63345223Y-69748028D01*
X63345223Y-69748028D02*
X63345223Y-69700409D01*
X63345223Y-69700409D02*
X63392842Y-69605171D01*
X63392842Y-69605171D02*
X63488080Y-69557552D01*
X63488080Y-69557552D02*
X63630937Y-69557552D01*
X63630937Y-69557552D02*
X63726175Y-69605171D01*
X64630937Y-69557552D02*
X64630937Y-70224219D01*
X64202366Y-69557552D02*
X64202366Y-70081361D01*
X64202366Y-70081361D02*
X64249985Y-70176600D01*
X64249985Y-70176600D02*
X64345223Y-70224219D01*
X64345223Y-70224219D02*
X64488080Y-70224219D01*
X64488080Y-70224219D02*
X64583318Y-70176600D01*
X64583318Y-70176600D02*
X64630937Y-70128980D01*
X65107128Y-69557552D02*
X65107128Y-70557552D01*
X65107128Y-69605171D02*
X65202366Y-69557552D01*
X65202366Y-69557552D02*
X65392842Y-69557552D01*
X65392842Y-69557552D02*
X65488080Y-69605171D01*
X65488080Y-69605171D02*
X65535699Y-69652790D01*
X65535699Y-69652790D02*
X65583318Y-69748028D01*
X65583318Y-69748028D02*
X65583318Y-70033742D01*
X65583318Y-70033742D02*
X65535699Y-70128980D01*
X65535699Y-70128980D02*
X65488080Y-70176600D01*
X65488080Y-70176600D02*
X65392842Y-70224219D01*
X65392842Y-70224219D02*
X65202366Y-70224219D01*
X65202366Y-70224219D02*
X65107128Y-70176600D01*
X66011890Y-69557552D02*
X66011890Y-70557552D01*
X66011890Y-69605171D02*
X66107128Y-69557552D01*
X66107128Y-69557552D02*
X66297604Y-69557552D01*
X66297604Y-69557552D02*
X66392842Y-69605171D01*
X66392842Y-69605171D02*
X66440461Y-69652790D01*
X66440461Y-69652790D02*
X66488080Y-69748028D01*
X66488080Y-69748028D02*
X66488080Y-70033742D01*
X66488080Y-70033742D02*
X66440461Y-70128980D01*
X66440461Y-70128980D02*
X66392842Y-70176600D01*
X66392842Y-70176600D02*
X66297604Y-70224219D01*
X66297604Y-70224219D02*
X66107128Y-70224219D01*
X66107128Y-70224219D02*
X66011890Y-70176600D01*
X67059509Y-70224219D02*
X66964271Y-70176600D01*
X66964271Y-70176600D02*
X66916652Y-70128980D01*
X66916652Y-70128980D02*
X66869033Y-70033742D01*
X66869033Y-70033742D02*
X66869033Y-69748028D01*
X66869033Y-69748028D02*
X66916652Y-69652790D01*
X66916652Y-69652790D02*
X66964271Y-69605171D01*
X66964271Y-69605171D02*
X67059509Y-69557552D01*
X67059509Y-69557552D02*
X67202366Y-69557552D01*
X67202366Y-69557552D02*
X67297604Y-69605171D01*
X67297604Y-69605171D02*
X67345223Y-69652790D01*
X67345223Y-69652790D02*
X67392842Y-69748028D01*
X67392842Y-69748028D02*
X67392842Y-70033742D01*
X67392842Y-70033742D02*
X67345223Y-70128980D01*
X67345223Y-70128980D02*
X67297604Y-70176600D01*
X67297604Y-70176600D02*
X67202366Y-70224219D01*
X67202366Y-70224219D02*
X67059509Y-70224219D01*
X67821414Y-70224219D02*
X67821414Y-69557552D01*
X67821414Y-69748028D02*
X67869033Y-69652790D01*
X67869033Y-69652790D02*
X67916652Y-69605171D01*
X67916652Y-69605171D02*
X68011890Y-69557552D01*
X68011890Y-69557552D02*
X68107128Y-69557552D01*
X68297605Y-69557552D02*
X68678557Y-69557552D01*
X68440462Y-69224219D02*
X68440462Y-70081361D01*
X68440462Y-70081361D02*
X68488081Y-70176600D01*
X68488081Y-70176600D02*
X68583319Y-70224219D01*
X68583319Y-70224219D02*
X68678557Y-70224219D01*
X64842842Y-68177552D02*
X64842842Y-69177552D01*
X64842842Y-68225171D02*
X64938080Y-68177552D01*
X64938080Y-68177552D02*
X65128556Y-68177552D01*
X65128556Y-68177552D02*
X65223794Y-68225171D01*
X65223794Y-68225171D02*
X65271413Y-68272790D01*
X65271413Y-68272790D02*
X65319032Y-68368028D01*
X65319032Y-68368028D02*
X65319032Y-68653742D01*
X65319032Y-68653742D02*
X65271413Y-68748980D01*
X65271413Y-68748980D02*
X65223794Y-68796600D01*
X65223794Y-68796600D02*
X65128556Y-68844219D01*
X65128556Y-68844219D02*
X64938080Y-68844219D01*
X64938080Y-68844219D02*
X64842842Y-68796600D01*
X66176175Y-68796600D02*
X66080937Y-68844219D01*
X66080937Y-68844219D02*
X65890461Y-68844219D01*
X65890461Y-68844219D02*
X65795223Y-68796600D01*
X65795223Y-68796600D02*
X65747604Y-68748980D01*
X65747604Y-68748980D02*
X65699985Y-68653742D01*
X65699985Y-68653742D02*
X65699985Y-68368028D01*
X65699985Y-68368028D02*
X65747604Y-68272790D01*
X65747604Y-68272790D02*
X65795223Y-68225171D01*
X65795223Y-68225171D02*
X65890461Y-68177552D01*
X65890461Y-68177552D02*
X66080937Y-68177552D01*
X66080937Y-68177552D02*
X66176175Y-68225171D01*
X66604747Y-68844219D02*
X66604747Y-67844219D01*
X66604747Y-68225171D02*
X66699985Y-68177552D01*
X66699985Y-68177552D02*
X66890461Y-68177552D01*
X66890461Y-68177552D02*
X66985699Y-68225171D01*
X66985699Y-68225171D02*
X67033318Y-68272790D01*
X67033318Y-68272790D02*
X67080937Y-68368028D01*
X67080937Y-68368028D02*
X67080937Y-68653742D01*
X67080937Y-68653742D02*
X67033318Y-68748980D01*
X67033318Y-68748980D02*
X66985699Y-68796600D01*
X66985699Y-68796600D02*
X66890461Y-68844219D01*
X66890461Y-68844219D02*
X66699985Y-68844219D01*
X66699985Y-68844219D02*
X66604747Y-68796600D01*
D11*
%TO.C,S3*%
X33975669Y-142282000D02*
X33975669Y-157482000D01*
X33975669Y-157482000D02*
X49175669Y-157482000D01*
X49175669Y-142282000D02*
X33975669Y-142282000D01*
X49175669Y-157482000D02*
X49175669Y-142282000D01*
%TO.C,S8*%
X42144419Y-124757000D02*
X42144419Y-138957000D01*
X42144419Y-138957000D02*
X56344419Y-138957000D01*
X56344419Y-124757000D02*
X42144419Y-124757000D01*
X56344419Y-138957000D02*
X56344419Y-124757000D01*
%TO.C,S18*%
X82608169Y-105717000D02*
X82608169Y-119917000D01*
X82608169Y-119917000D02*
X96808169Y-119917000D01*
X96808169Y-105717000D02*
X82608169Y-105717000D01*
X96808169Y-119917000D02*
X96808169Y-105717000D01*
%TO.C,S6*%
X54048169Y-86677000D02*
X54048169Y-100877000D01*
X54048169Y-100877000D02*
X68248169Y-100877000D01*
X68248169Y-86677000D02*
X54048169Y-86677000D01*
X68248169Y-100877000D02*
X68248169Y-86677000D01*
%TO.C,S32*%
X163538169Y-48587000D02*
X163538169Y-62787000D01*
X163538169Y-62787000D02*
X177738169Y-62787000D01*
X177738169Y-48587000D02*
X163538169Y-48587000D01*
X177738169Y-62787000D02*
X177738169Y-48587000D01*
%TO.C,S33*%
X168300669Y-67637000D02*
X168300669Y-81837000D01*
X168300669Y-81837000D02*
X182500669Y-81837000D01*
X182500669Y-67637000D02*
X168300669Y-67637000D01*
X182500669Y-81837000D02*
X182500669Y-67637000D01*
%TO.C,S25*%
X125448169Y-67637000D02*
X125448169Y-81837000D01*
X125448169Y-81837000D02*
X139648169Y-81837000D01*
X139648169Y-67637000D02*
X125448169Y-67637000D01*
X139648169Y-81837000D02*
X139648169Y-67637000D01*
%TO.C,S5*%
X49288169Y-67637000D02*
X49288169Y-81837000D01*
X49288169Y-81837000D02*
X63488169Y-81837000D01*
X63488169Y-67637000D02*
X49288169Y-67637000D01*
X63488169Y-81837000D02*
X63488169Y-67637000D01*
%TO.C,S7*%
X44528169Y-105717000D02*
X44528169Y-119917000D01*
X44528169Y-119917000D02*
X58728169Y-119917000D01*
X58728169Y-105717000D02*
X44528169Y-105717000D01*
X58728169Y-119917000D02*
X58728169Y-105717000D01*
%TO.C,S36*%
X170681919Y-124757000D02*
X170681919Y-138957000D01*
X170681919Y-138957000D02*
X184881919Y-138957000D01*
X184881919Y-124757000D02*
X170681919Y-124757000D01*
X184881919Y-138957000D02*
X184881919Y-124757000D01*
%TO.C,S30*%
X144488169Y-67637000D02*
X144488169Y-81837000D01*
X144488169Y-81837000D02*
X158688169Y-81837000D01*
X158688169Y-67637000D02*
X144488169Y-67637000D01*
X158688169Y-81837000D02*
X158688169Y-67637000D01*
%TO.C,S2*%
X35008169Y-86677000D02*
X35008169Y-100877000D01*
X35008169Y-100877000D02*
X49208169Y-100877000D01*
X49208169Y-86677000D02*
X35008169Y-86677000D01*
X49208169Y-100877000D02*
X49208169Y-86677000D01*
%TO.C,S27*%
X120688169Y-105717000D02*
X120688169Y-119917000D01*
X120688169Y-119917000D02*
X134888169Y-119917000D01*
X134888169Y-105717000D02*
X120688169Y-105717000D01*
X134888169Y-119917000D02*
X134888169Y-105717000D01*
%TO.C,S9*%
X58803169Y-48587000D02*
X58803169Y-62787000D01*
X58803169Y-62787000D02*
X73003169Y-62787000D01*
X73003169Y-48587000D02*
X58803169Y-48587000D01*
X73003169Y-62787000D02*
X73003169Y-48587000D01*
%TO.C,S10*%
X68328169Y-67637000D02*
X68328169Y-81837000D01*
X68328169Y-81837000D02*
X82528169Y-81837000D01*
X82528169Y-67637000D02*
X68328169Y-67637000D01*
X82528169Y-81837000D02*
X82528169Y-67637000D01*
%TO.C,S1*%
X30248169Y-67637000D02*
X30248169Y-81837000D01*
X30248169Y-81837000D02*
X44448169Y-81837000D01*
X44448169Y-67637000D02*
X30248169Y-67637000D01*
X44448169Y-81837000D02*
X44448169Y-67637000D01*
%TO.C,S13*%
X73085669Y-124757000D02*
X73085669Y-138957000D01*
X73085669Y-138957000D02*
X87285669Y-138957000D01*
X87285669Y-124757000D02*
X73085669Y-124757000D01*
X87285669Y-138957000D02*
X87285669Y-124757000D01*
%TO.C,S17*%
X92128169Y-86677000D02*
X92128169Y-100877000D01*
X92128169Y-100877000D02*
X106328169Y-100877000D01*
X106328169Y-86677000D02*
X92128169Y-86677000D01*
X106328169Y-100877000D02*
X106328169Y-86677000D01*
%TO.C,S23*%
X99266919Y-124757000D02*
X99266919Y-138957000D01*
X99266919Y-138957000D02*
X113466919Y-138957000D01*
X113466919Y-124757000D02*
X99266919Y-124757000D01*
X113466919Y-138957000D02*
X113466919Y-124757000D01*
%TO.C,S21*%
X111168169Y-86677000D02*
X111168169Y-100877000D01*
X111168169Y-100877000D02*
X125368169Y-100877000D01*
X125368169Y-86677000D02*
X111168169Y-86677000D01*
X125368169Y-100877000D02*
X125368169Y-86677000D01*
%TO.C,S31*%
X146866919Y-124757000D02*
X146866919Y-138957000D01*
X146866919Y-138957000D02*
X161066919Y-138957000D01*
X161066919Y-124757000D02*
X146866919Y-124757000D01*
X161066919Y-138957000D02*
X161066919Y-124757000D01*
%TO.C,S28*%
X123066919Y-124757000D02*
X123066919Y-138957000D01*
X123066919Y-138957000D02*
X137266919Y-138957000D01*
X137266919Y-124757000D02*
X123066919Y-124757000D01*
X137266919Y-138957000D02*
X137266919Y-124757000D01*
%TO.C,S24*%
X115923169Y-48587000D02*
X115923169Y-62787000D01*
X115923169Y-62787000D02*
X130123169Y-62787000D01*
X130123169Y-48587000D02*
X115923169Y-48587000D01*
X130123169Y-62787000D02*
X130123169Y-48587000D01*
%TO.C,S35*%
X156394419Y-105717000D02*
X156394419Y-119917000D01*
X156394419Y-119917000D02*
X170594419Y-119917000D01*
X170594419Y-105717000D02*
X156394419Y-105717000D01*
X170594419Y-119917000D02*
X170594419Y-105717000D01*
%TO.C,J1*%
X100271160Y-36359081D02*
X102567468Y-25172336D01*
X102565458Y-25182130D02*
X120295771Y-28821641D01*
X118001470Y-39998594D02*
X100271160Y-36359081D01*
X120295771Y-28821641D02*
X118001470Y-39998594D01*
%TO.C,S26*%
X130208169Y-86677000D02*
X130208169Y-100877000D01*
X130208169Y-100877000D02*
X144408169Y-100877000D01*
X144408169Y-86677000D02*
X130208169Y-86677000D01*
X144408169Y-100877000D02*
X144408169Y-86677000D01*
%TO.C,S11*%
X73088169Y-86677000D02*
X73088169Y-100877000D01*
X73088169Y-100877000D02*
X87288169Y-100877000D01*
X87288169Y-86677000D02*
X73088169Y-86677000D01*
X87288169Y-100877000D02*
X87288169Y-86677000D01*
%TO.C,S4*%
X39763169Y-48587000D02*
X39763169Y-62787000D01*
X39763169Y-62787000D02*
X53963169Y-62787000D01*
X53963169Y-48587000D02*
X39763169Y-48587000D01*
X53963169Y-62787000D02*
X53963169Y-48587000D01*
%TO.C,S12*%
X63568169Y-105717000D02*
X63568169Y-119917000D01*
X63568169Y-119917000D02*
X77768169Y-119917000D01*
X77768169Y-105717000D02*
X63568169Y-105717000D01*
X77768169Y-119917000D02*
X77768169Y-105717000D01*
%TO.C,S14*%
X58725669Y-142282000D02*
X58725669Y-157482000D01*
X58725669Y-157482000D02*
X73925669Y-157482000D01*
X73925669Y-142282000D02*
X58725669Y-142282000D01*
X73925669Y-157482000D02*
X73925669Y-142282000D01*
%TO.C,S20*%
X106408169Y-67637000D02*
X106408169Y-81837000D01*
X106408169Y-81837000D02*
X120608169Y-81837000D01*
X120608169Y-67637000D02*
X106408169Y-67637000D01*
X120608169Y-81837000D02*
X120608169Y-67637000D01*
%TO.C,S19*%
X96883169Y-48587000D02*
X96883169Y-62787000D01*
X96883169Y-62787000D02*
X111083169Y-62787000D01*
X111083169Y-48587000D02*
X96883169Y-48587000D01*
X111083169Y-62787000D02*
X111083169Y-48587000D01*
%TO.C,S22*%
X101648169Y-105717000D02*
X101648169Y-119917000D01*
X101648169Y-119917000D02*
X115848169Y-119917000D01*
X115848169Y-105717000D02*
X101648169Y-105717000D01*
X115848169Y-119917000D02*
X115848169Y-105717000D01*
%TO.C,S15*%
X77843169Y-48587000D02*
X77843169Y-62787000D01*
X77843169Y-62787000D02*
X92043169Y-62787000D01*
X92043169Y-48587000D02*
X77843169Y-48587000D01*
X92043169Y-62787000D02*
X92043169Y-48587000D01*
%TO.C,S16*%
X87368169Y-67637000D02*
X87368169Y-81837000D01*
X87368169Y-81837000D02*
X101568169Y-81837000D01*
X101568169Y-67637000D02*
X87368169Y-67637000D01*
X101568169Y-81837000D02*
X101568169Y-67637000D01*
%TO.C,S29*%
X134963169Y-48587000D02*
X134963169Y-62787000D01*
X134963169Y-62787000D02*
X149163169Y-62787000D01*
X149163169Y-48587000D02*
X134963169Y-48587000D01*
X149163169Y-62787000D02*
X149163169Y-48587000D01*
%TO.C,S34*%
X161156919Y-86677000D02*
X161156919Y-100877000D01*
X161156919Y-100877000D02*
X175356919Y-100877000D01*
X175356919Y-86677000D02*
X161156919Y-86677000D01*
X175356919Y-100877000D02*
X175356919Y-86677000D01*
D12*
%TO.C,D31*%
X163500669Y-128512000D02*
X163500669Y-126802000D01*
X163510669Y-126792000D02*
X165460669Y-126792000D01*
D10*
X163790669Y-132342000D02*
X165120669Y-132342000D01*
X163800669Y-131172000D02*
X165130669Y-131172000D01*
X164465669Y-131172000D02*
X163790669Y-132342000D01*
X165120669Y-132342000D02*
X164465669Y-131172000D01*
D12*
X165460669Y-128492000D02*
X165460669Y-126792000D01*
D10*
%TO.C,D11*%
X77038169Y-101744500D02*
X77038169Y-103074500D01*
X77038169Y-103074500D02*
X78208169Y-102419500D01*
X78208169Y-101754500D02*
X78208169Y-103084500D01*
X78208169Y-102419500D02*
X77038169Y-101744500D01*
D12*
X80868169Y-101454500D02*
X82578169Y-101454500D01*
X80888169Y-103414500D02*
X82588169Y-103414500D01*
X82588169Y-101464500D02*
X82588169Y-103414500D01*
D10*
%TO.C,D9*%
X64858169Y-63634500D02*
X64858169Y-64964500D01*
X64858169Y-64964500D02*
X66028169Y-64309500D01*
X66028169Y-63644500D02*
X66028169Y-64974500D01*
X66028169Y-64309500D02*
X64858169Y-63634500D01*
D12*
X68688169Y-63344500D02*
X70398169Y-63344500D01*
X68708169Y-65304500D02*
X70408169Y-65304500D01*
X70408169Y-63354500D02*
X70408169Y-65304500D01*
D11*
%TO.C,U1*%
X133933169Y-141797000D02*
X184933169Y-141797000D01*
X133933169Y-162797000D02*
X133933169Y-141797000D01*
X184933169Y-141797000D02*
X184933169Y-162797000D01*
X184933169Y-162797000D02*
X133933169Y-162797000D01*
D10*
%TO.C,D24*%
X122008169Y-63654500D02*
X122008169Y-64984500D01*
X122008169Y-64984500D02*
X123178169Y-64329500D01*
X123178169Y-63664500D02*
X123178169Y-64994500D01*
X123178169Y-64329500D02*
X122008169Y-63654500D01*
D12*
X125838169Y-63364500D02*
X127548169Y-63364500D01*
X125858169Y-65324500D02*
X127558169Y-65324500D01*
X127558169Y-63374500D02*
X127558169Y-65324500D01*
%TO.C,D28*%
X116280669Y-130442000D02*
X116280669Y-128732000D01*
X116290669Y-128722000D02*
X118240669Y-128722000D01*
D10*
X116570669Y-134272000D02*
X117900669Y-134272000D01*
X116580669Y-133102000D02*
X117910669Y-133102000D01*
X117245669Y-133102000D02*
X116570669Y-134272000D01*
X117900669Y-134272000D02*
X117245669Y-133102000D01*
D12*
X118240669Y-130422000D02*
X118240669Y-128722000D01*
%TO.C,D36*%
X167500669Y-128512000D02*
X167500669Y-126802000D01*
X167510669Y-126792000D02*
X169460669Y-126792000D01*
D10*
X167790669Y-132342000D02*
X169120669Y-132342000D01*
X167800669Y-131172000D02*
X169130669Y-131172000D01*
X168465669Y-131172000D02*
X167790669Y-132342000D01*
X169120669Y-132342000D02*
X168465669Y-131172000D01*
D12*
X169460669Y-128492000D02*
X169460669Y-126792000D01*
D10*
%TO.C,D12*%
X69965669Y-120715750D02*
X69965669Y-122045750D01*
X69965669Y-122045750D02*
X71135669Y-121390750D01*
X71135669Y-120725750D02*
X71135669Y-122055750D01*
X71135669Y-121390750D02*
X69965669Y-120715750D01*
D12*
X73795669Y-120425750D02*
X75505669Y-120425750D01*
X73815669Y-122385750D02*
X75515669Y-122385750D01*
X75515669Y-120435750D02*
X75515669Y-122385750D01*
D10*
%TO.C,D25*%
X132988169Y-82634500D02*
X132988169Y-83964500D01*
X132988169Y-83964500D02*
X134158169Y-83309500D01*
X134158169Y-82644500D02*
X134158169Y-83974500D01*
X134158169Y-83309500D02*
X132988169Y-82634500D01*
D12*
X136818169Y-82344500D02*
X138528169Y-82344500D01*
X136838169Y-84304500D02*
X138538169Y-84304500D01*
X138538169Y-82354500D02*
X138538169Y-84304500D01*
%TO.C,D3*%
X51160669Y-147042000D02*
X51160669Y-145332000D01*
X51170669Y-145322000D02*
X53120669Y-145322000D01*
D10*
X51450669Y-150872000D02*
X52780669Y-150872000D01*
X51460669Y-149702000D02*
X52790669Y-149702000D01*
X52125669Y-149702000D02*
X51450669Y-150872000D01*
X52780669Y-150872000D02*
X52125669Y-149702000D01*
D12*
X53120669Y-147022000D02*
X53120669Y-145322000D01*
D10*
%TO.C,D22*%
X106918169Y-120764500D02*
X106918169Y-122094500D01*
X106918169Y-122094500D02*
X108088169Y-121439500D01*
X108088169Y-120774500D02*
X108088169Y-122104500D01*
X108088169Y-121439500D02*
X106918169Y-120764500D01*
D12*
X110748169Y-120474500D02*
X112458169Y-120474500D01*
X110768169Y-122434500D02*
X112468169Y-122434500D01*
X112468169Y-120484500D02*
X112468169Y-122434500D01*
D10*
%TO.C,D33*%
X173448169Y-82694500D02*
X173448169Y-84024500D01*
X173448169Y-84024500D02*
X174618169Y-83369500D01*
X174618169Y-82704500D02*
X174618169Y-84034500D01*
X174618169Y-83369500D02*
X173448169Y-82694500D01*
D12*
X177278169Y-82404500D02*
X178988169Y-82404500D01*
X177298169Y-84364500D02*
X178998169Y-84364500D01*
X178998169Y-82414500D02*
X178998169Y-84364500D01*
D10*
%TO.C,D7*%
X51698169Y-120894500D02*
X51698169Y-122224500D01*
X51698169Y-122224500D02*
X52868169Y-121569500D01*
X52868169Y-120904500D02*
X52868169Y-122234500D01*
X52868169Y-121569500D02*
X51698169Y-120894500D01*
D12*
X55528169Y-120604500D02*
X57238169Y-120604500D01*
X55548169Y-122564500D02*
X57248169Y-122564500D01*
X57248169Y-120614500D02*
X57248169Y-122564500D01*
D10*
%TO.C,D30*%
X151588169Y-82674500D02*
X151588169Y-84004500D01*
X151588169Y-84004500D02*
X152758169Y-83349500D01*
X152758169Y-82684500D02*
X152758169Y-84014500D01*
X152758169Y-83349500D02*
X151588169Y-82674500D01*
D12*
X155418169Y-82384500D02*
X157128169Y-82384500D01*
X155438169Y-84344500D02*
X157138169Y-84344500D01*
X157138169Y-82394500D02*
X157138169Y-84344500D01*
%TO.C,D14*%
X54969419Y-147079500D02*
X54969419Y-145369500D01*
X54979419Y-145359500D02*
X56929419Y-145359500D01*
D10*
X55259419Y-150909500D02*
X56589419Y-150909500D01*
X55269419Y-149739500D02*
X56599419Y-149739500D01*
X55934419Y-149739500D02*
X55259419Y-150909500D01*
X56589419Y-150909500D02*
X55934419Y-149739500D01*
D12*
X56929419Y-147059500D02*
X56929419Y-145359500D01*
D10*
%TO.C,D15*%
X83328169Y-63624500D02*
X83328169Y-64954500D01*
X83328169Y-64954500D02*
X84498169Y-64299500D01*
X84498169Y-63634500D02*
X84498169Y-64964500D01*
X84498169Y-64299500D02*
X83328169Y-63624500D01*
D12*
X87158169Y-63334500D02*
X88868169Y-63334500D01*
X87178169Y-65294500D02*
X88878169Y-65294500D01*
X88878169Y-63344500D02*
X88878169Y-65294500D01*
D10*
%TO.C,D16*%
X93888169Y-82514500D02*
X93888169Y-83844500D01*
X93888169Y-83844500D02*
X95058169Y-83189500D01*
X95058169Y-82524500D02*
X95058169Y-83854500D01*
X95058169Y-83189500D02*
X93888169Y-82514500D01*
D12*
X97718169Y-82224500D02*
X99428169Y-82224500D01*
X97738169Y-84184500D02*
X99438169Y-84184500D01*
X99438169Y-82234500D02*
X99438169Y-84184500D01*
D10*
%TO.C,D1*%
X40578169Y-82714500D02*
X40578169Y-84044500D01*
X40578169Y-84044500D02*
X41748169Y-83389500D01*
X41748169Y-82724500D02*
X41748169Y-84054500D01*
X41748169Y-83389500D02*
X40578169Y-82714500D01*
D12*
X44408169Y-82424500D02*
X46118169Y-82424500D01*
X44428169Y-84384500D02*
X46128169Y-84384500D01*
X46128169Y-82434500D02*
X46128169Y-84384500D01*
D10*
%TO.C,D6*%
X64209419Y-101674500D02*
X64209419Y-103004500D01*
X64209419Y-103004500D02*
X65379419Y-102349500D01*
X65379419Y-101684500D02*
X65379419Y-103014500D01*
X65379419Y-102349500D02*
X64209419Y-101674500D01*
D12*
X68039419Y-101384500D02*
X69749419Y-101384500D01*
X68059419Y-103344500D02*
X69759419Y-103344500D01*
X69759419Y-101394500D02*
X69759419Y-103344500D01*
D10*
%TO.C,D17*%
X97818169Y-101674500D02*
X97818169Y-103004500D01*
X97818169Y-103004500D02*
X98988169Y-102349500D01*
X98988169Y-101684500D02*
X98988169Y-103014500D01*
X98988169Y-102349500D02*
X97818169Y-101674500D01*
D12*
X101648169Y-101384500D02*
X103358169Y-101384500D01*
X101668169Y-103344500D02*
X103368169Y-103344500D01*
X103368169Y-101394500D02*
X103368169Y-103344500D01*
D10*
%TO.C,D37*%
X123609307Y-44899677D02*
X124887116Y-44493316D01*
X123876740Y-43596842D02*
X123609307Y-44899677D01*
X124887116Y-44493316D02*
X123876740Y-43596842D01*
X125020833Y-43841899D02*
X124753399Y-45144734D01*
D12*
X127312305Y-46006882D02*
X128977583Y-46348715D01*
X127686826Y-44082893D02*
X129361900Y-44426737D01*
X129369685Y-44438543D02*
X128977583Y-46348715D01*
D10*
%TO.C,D18*%
X90628169Y-120844500D02*
X90628169Y-122174500D01*
X90628169Y-122174500D02*
X91798169Y-121519500D01*
X91798169Y-120854500D02*
X91798169Y-122184500D01*
X91798169Y-121519500D02*
X90628169Y-120844500D01*
D12*
X94458169Y-120554500D02*
X96168169Y-120554500D01*
X94478169Y-122514500D02*
X96178169Y-122514500D01*
X96178169Y-120564500D02*
X96178169Y-122514500D01*
D10*
%TO.C,D34*%
X167388169Y-101694500D02*
X167388169Y-103024500D01*
X167388169Y-103024500D02*
X168558169Y-102369500D01*
X168558169Y-101704500D02*
X168558169Y-103034500D01*
X168558169Y-102369500D02*
X167388169Y-101694500D01*
D12*
X171218169Y-101404500D02*
X172928169Y-101404500D01*
X171238169Y-103364500D02*
X172938169Y-103364500D01*
X172938169Y-101414500D02*
X172938169Y-103364500D01*
D10*
%TO.C,D21*%
X115258169Y-101854500D02*
X115258169Y-103184500D01*
X115258169Y-103184500D02*
X116428169Y-102529500D01*
X116428169Y-101864500D02*
X116428169Y-103194500D01*
X116428169Y-102529500D02*
X115258169Y-101854500D01*
D12*
X119088169Y-101564500D02*
X120798169Y-101564500D01*
X119108169Y-103524500D02*
X120808169Y-103524500D01*
X120808169Y-101574500D02*
X120808169Y-103524500D01*
D10*
%TO.C,D19*%
X103108169Y-63587919D02*
X103108169Y-64917919D01*
X103108169Y-64917919D02*
X104278169Y-64262919D01*
X104278169Y-63597919D02*
X104278169Y-64927919D01*
X104278169Y-64262919D02*
X103108169Y-63587919D01*
D12*
X106938169Y-63297919D02*
X108648169Y-63297919D01*
X106958169Y-65257919D02*
X108658169Y-65257919D01*
X108658169Y-63307919D02*
X108658169Y-65257919D01*
D10*
%TO.C,D35*%
X163288169Y-120794500D02*
X163288169Y-122124500D01*
X163288169Y-122124500D02*
X164458169Y-121469500D01*
X164458169Y-120804500D02*
X164458169Y-122134500D01*
X164458169Y-121469500D02*
X163288169Y-120794500D01*
D12*
X167118169Y-120504500D02*
X168828169Y-120504500D01*
X167138169Y-122464500D02*
X168838169Y-122464500D01*
X168838169Y-120514500D02*
X168838169Y-122464500D01*
D10*
%TO.C,D10*%
X74138169Y-82634500D02*
X74138169Y-83964500D01*
X74138169Y-83964500D02*
X75308169Y-83309500D01*
X75308169Y-82644500D02*
X75308169Y-83974500D01*
X75308169Y-83309500D02*
X74138169Y-82634500D01*
D12*
X77968169Y-82344500D02*
X79678169Y-82344500D01*
X77988169Y-84304500D02*
X79688169Y-84304500D01*
X79688169Y-82354500D02*
X79688169Y-84304500D01*
D10*
%TO.C,D23*%
X103378169Y-139884500D02*
X103378169Y-141214500D01*
X103378169Y-141214500D02*
X104548169Y-140559500D01*
X104548169Y-139894500D02*
X104548169Y-141224500D01*
X104548169Y-140559500D02*
X103378169Y-139884500D01*
D12*
X107208169Y-139594500D02*
X108918169Y-139594500D01*
X107228169Y-141554500D02*
X108928169Y-141554500D01*
X108928169Y-139604500D02*
X108928169Y-141554500D01*
D10*
%TO.C,D29*%
X141368169Y-63587919D02*
X141368169Y-64917919D01*
X141368169Y-64917919D02*
X142538169Y-64262919D01*
X142538169Y-63597919D02*
X142538169Y-64927919D01*
X142538169Y-64262919D02*
X141368169Y-63587919D01*
D12*
X145198169Y-63297919D02*
X146908169Y-63297919D01*
X145218169Y-65257919D02*
X146918169Y-65257919D01*
X146918169Y-63307919D02*
X146918169Y-65257919D01*
D10*
%TO.C,D4*%
X45628169Y-63684500D02*
X45628169Y-65014500D01*
X45628169Y-65014500D02*
X46798169Y-64359500D01*
X46798169Y-63694500D02*
X46798169Y-65024500D01*
X46798169Y-64359500D02*
X45628169Y-63684500D01*
D12*
X49458169Y-63394500D02*
X51168169Y-63394500D01*
X49478169Y-65354500D02*
X51178169Y-65354500D01*
X51178169Y-63404500D02*
X51178169Y-65354500D01*
D10*
%TO.C,D20*%
X113208169Y-82574500D02*
X113208169Y-83904500D01*
X113208169Y-83904500D02*
X114378169Y-83249500D01*
X114378169Y-82584500D02*
X114378169Y-83914500D01*
X114378169Y-83249500D02*
X113208169Y-82574500D01*
D12*
X117038169Y-82284500D02*
X118748169Y-82284500D01*
X117058169Y-84244500D02*
X118758169Y-84244500D01*
X118758169Y-82294500D02*
X118758169Y-84244500D01*
D10*
%TO.C,D8*%
X48425669Y-139785750D02*
X48425669Y-141115750D01*
X48425669Y-141115750D02*
X49595669Y-140460750D01*
X49595669Y-139795750D02*
X49595669Y-141125750D01*
X49595669Y-140460750D02*
X48425669Y-139785750D01*
D12*
X52255669Y-139495750D02*
X53965669Y-139495750D01*
X52275669Y-141455750D02*
X53975669Y-141455750D01*
X53975669Y-139505750D02*
X53975669Y-141455750D01*
D10*
%TO.C,D27*%
X126548169Y-120864500D02*
X126548169Y-122194500D01*
X126548169Y-122194500D02*
X127718169Y-121539500D01*
X127718169Y-120874500D02*
X127718169Y-122204500D01*
X127718169Y-121539500D02*
X126548169Y-120864500D01*
D12*
X130378169Y-120574500D02*
X132088169Y-120574500D01*
X130398169Y-122534500D02*
X132098169Y-122534500D01*
X132098169Y-120584500D02*
X132098169Y-122534500D01*
D10*
%TO.C,D26*%
X135588169Y-101714500D02*
X135588169Y-103044500D01*
X135588169Y-103044500D02*
X136758169Y-102389500D01*
X136758169Y-101724500D02*
X136758169Y-103054500D01*
X136758169Y-102389500D02*
X135588169Y-101714500D01*
D12*
X139418169Y-101424500D02*
X141128169Y-101424500D01*
X139438169Y-103384500D02*
X141138169Y-103384500D01*
X141138169Y-101434500D02*
X141138169Y-103384500D01*
D10*
%TO.C,D2*%
X50418169Y-101784500D02*
X50418169Y-103114500D01*
X50418169Y-103114500D02*
X51588169Y-102459500D01*
X51588169Y-101794500D02*
X51588169Y-103124500D01*
X51588169Y-102459500D02*
X50418169Y-101784500D01*
D12*
X54248169Y-101494500D02*
X55958169Y-101494500D01*
X54268169Y-103454500D02*
X55968169Y-103454500D01*
X55968169Y-101504500D02*
X55968169Y-103454500D01*
D10*
%TO.C,D32*%
X170338169Y-63594500D02*
X170338169Y-64924500D01*
X170338169Y-64924500D02*
X171508169Y-64269500D01*
X171508169Y-63604500D02*
X171508169Y-64934500D01*
X171508169Y-64269500D02*
X170338169Y-63594500D01*
D12*
X174168169Y-63304500D02*
X175878169Y-63304500D01*
X174188169Y-65264500D02*
X175888169Y-65264500D01*
X175888169Y-63314500D02*
X175888169Y-65264500D01*
D10*
%TO.C,D5*%
X55468169Y-82574500D02*
X55468169Y-83904500D01*
X55468169Y-83904500D02*
X56638169Y-83249500D01*
X56638169Y-82584500D02*
X56638169Y-83914500D01*
X56638169Y-83249500D02*
X55468169Y-82574500D01*
D12*
X59298169Y-82284500D02*
X61008169Y-82284500D01*
X59318169Y-84244500D02*
X61018169Y-84244500D01*
X61018169Y-82294500D02*
X61018169Y-84244500D01*
D10*
%TO.C,D13*%
X79285669Y-139915750D02*
X79285669Y-141245750D01*
X79285669Y-141245750D02*
X80455669Y-140590750D01*
X80455669Y-139925750D02*
X80455669Y-141255750D01*
X80455669Y-140590750D02*
X79285669Y-139915750D01*
D12*
X83115669Y-139625750D02*
X84825669Y-139625750D01*
X83135669Y-141585750D02*
X84835669Y-141585750D01*
X84835669Y-139635750D02*
X84835669Y-141585750D01*
%TD*%
%LPC*%
D13*
%TO.C,S3*%
X47075669Y-149882000D03*
D14*
X41575669Y-149882000D03*
D13*
X36075669Y-149882000D03*
D15*
X41575669Y-155782000D03*
X36575669Y-153682000D03*
%TD*%
D16*
%TO.C,H2*%
X101983169Y-43163000D03*
%TD*%
D17*
%TO.C,H8*%
X142108169Y-131877000D03*
%TD*%
D18*
%TO.C,S8*%
X54324419Y-131857000D03*
D19*
X53054419Y-134397000D03*
D20*
X49244419Y-131857000D03*
D19*
X46704419Y-136937000D03*
D18*
X44164419Y-131857000D03*
%TD*%
D17*
%TO.C,H6*%
X75418169Y-55687000D03*
%TD*%
D18*
%TO.C,S18*%
X94788169Y-112817000D03*
D19*
X93518169Y-115357000D03*
D20*
X89708169Y-112817000D03*
D19*
X87168169Y-117897000D03*
D18*
X84628169Y-112817000D03*
%TD*%
D16*
%TO.C,H3*%
X163494669Y-74737000D03*
%TD*%
D18*
%TO.C,S6*%
X66228169Y-93777000D03*
D19*
X64958169Y-96317000D03*
D20*
X61148169Y-93777000D03*
D19*
X58608169Y-98857000D03*
D18*
X56068169Y-93777000D03*
%TD*%
%TO.C,S32*%
X175718169Y-55687000D03*
D19*
X174448169Y-58227000D03*
D20*
X170638169Y-55687000D03*
D19*
X168098169Y-60767000D03*
D18*
X165558169Y-55687000D03*
%TD*%
%TO.C,S33*%
X180480669Y-74737000D03*
D19*
X179210669Y-77277000D03*
D20*
X175400669Y-74737000D03*
D19*
X172860669Y-79817000D03*
D18*
X170320669Y-74737000D03*
%TD*%
%TO.C,S25*%
X137628169Y-74737000D03*
D19*
X136358169Y-77277000D03*
D20*
X132548169Y-74737000D03*
D19*
X130008169Y-79817000D03*
D18*
X127468169Y-74737000D03*
%TD*%
D17*
%TO.C,H12*%
X78325669Y-149882000D03*
%TD*%
D18*
%TO.C,S5*%
X61468169Y-74737000D03*
D19*
X60198169Y-77277000D03*
D20*
X56388169Y-74737000D03*
D19*
X53848169Y-79817000D03*
D18*
X51308169Y-74737000D03*
%TD*%
%TO.C,S7*%
X56708169Y-112817000D03*
D19*
X55438169Y-115357000D03*
D20*
X51628169Y-112817000D03*
D19*
X49088169Y-117897000D03*
D18*
X46548169Y-112817000D03*
%TD*%
%TO.C,S36*%
X182861919Y-131857000D03*
D19*
X181591919Y-134397000D03*
D20*
X177781919Y-131857000D03*
D19*
X175241919Y-136937000D03*
D18*
X172701919Y-131857000D03*
%TD*%
%TO.C,S30*%
X156668169Y-74737000D03*
D19*
X155398169Y-77277000D03*
D20*
X151588169Y-74737000D03*
D19*
X149048169Y-79817000D03*
D18*
X146508169Y-74737000D03*
%TD*%
%TO.C,S2*%
X47188169Y-93777000D03*
D19*
X45918169Y-96317000D03*
D20*
X42108169Y-93777000D03*
D19*
X39568169Y-98857000D03*
D18*
X37028169Y-93777000D03*
%TD*%
D16*
%TO.C,H13*%
X141097169Y-112817000D03*
%TD*%
D18*
%TO.C,S27*%
X132868169Y-112817000D03*
D19*
X131598169Y-115357000D03*
D20*
X127788169Y-112817000D03*
D19*
X125248169Y-117897000D03*
D18*
X122708169Y-112817000D03*
%TD*%
%TO.C,S9*%
X70983169Y-55687000D03*
D19*
X69713169Y-58227000D03*
D20*
X65903169Y-55687000D03*
D19*
X63363169Y-60767000D03*
D18*
X60823169Y-55687000D03*
%TD*%
%TO.C,S10*%
X80508169Y-74737000D03*
D19*
X79238169Y-77277000D03*
D20*
X75428169Y-74737000D03*
D19*
X72888169Y-79817000D03*
D18*
X70348169Y-74737000D03*
%TD*%
%TO.C,S1*%
X42428169Y-74737000D03*
D19*
X41158169Y-77277000D03*
D20*
X37348169Y-74737000D03*
D19*
X34808169Y-79817000D03*
D18*
X32268169Y-74737000D03*
%TD*%
D21*
%TO.C,TP1*%
X100758169Y-151317000D03*
%TD*%
D18*
%TO.C,S13*%
X85265669Y-131857000D03*
D19*
X83995669Y-134397000D03*
D20*
X80185669Y-131857000D03*
D19*
X77645669Y-136937000D03*
D18*
X75105669Y-131857000D03*
%TD*%
%TO.C,S17*%
X104308169Y-93777000D03*
D19*
X103038169Y-96317000D03*
D20*
X99228169Y-93777000D03*
D19*
X96688169Y-98857000D03*
D18*
X94148169Y-93777000D03*
%TD*%
D17*
%TO.C,H10*%
X70663169Y-93777000D03*
%TD*%
%TO.C,H9*%
X147808169Y-93777000D03*
%TD*%
%TO.C,H7*%
X132548169Y-55687000D03*
%TD*%
D18*
%TO.C,S23*%
X111446919Y-131857000D03*
D19*
X110176919Y-134397000D03*
D20*
X106366919Y-131857000D03*
D19*
X103826919Y-136937000D03*
D18*
X101286919Y-131857000D03*
%TD*%
%TO.C,S21*%
X123348169Y-93777000D03*
D19*
X122078169Y-96317000D03*
D20*
X118268169Y-93777000D03*
D19*
X115728169Y-98857000D03*
D18*
X113188169Y-93777000D03*
%TD*%
%TO.C,S31*%
X159046919Y-131857000D03*
D19*
X157776919Y-134397000D03*
D20*
X153966919Y-131857000D03*
D19*
X151426919Y-136937000D03*
D18*
X148886919Y-131857000D03*
%TD*%
%TO.C,S28*%
X135246919Y-131857000D03*
D19*
X133976919Y-134397000D03*
D20*
X130166919Y-131857000D03*
D19*
X127626919Y-136937000D03*
D18*
X125086919Y-131857000D03*
%TD*%
%TO.C,S24*%
X128103169Y-55687000D03*
D19*
X126833169Y-58227000D03*
D20*
X123023169Y-55687000D03*
D19*
X120483169Y-60767000D03*
D18*
X117943169Y-55687000D03*
%TD*%
%TO.C,S35*%
X168574419Y-112817000D03*
D19*
X167304419Y-115357000D03*
D20*
X163494419Y-112817000D03*
D19*
X160954419Y-117897000D03*
D18*
X158414419Y-112817000D03*
%TD*%
D22*
%TO.C,J1*%
X109894419Y-28667000D03*
X108362206Y-36131364D03*
D23*
X115740719Y-31765855D03*
X114719243Y-36742098D03*
D24*
X117973469Y-33520656D03*
X115229980Y-34253978D03*
X117462732Y-36008775D03*
%TD*%
D18*
%TO.C,S26*%
X142388169Y-93777000D03*
D19*
X141118169Y-96317000D03*
D20*
X137308169Y-93777000D03*
D19*
X134768169Y-98857000D03*
D18*
X132228169Y-93777000D03*
%TD*%
%TO.C,S11*%
X85268169Y-93777000D03*
D19*
X83998169Y-96317000D03*
D20*
X80188169Y-93777000D03*
D19*
X77648169Y-98857000D03*
D18*
X75108169Y-93777000D03*
%TD*%
D16*
%TO.C,H11*%
X108325669Y-148506000D03*
%TD*%
D18*
%TO.C,S4*%
X51943169Y-55687000D03*
D19*
X50673169Y-58227000D03*
D20*
X46863169Y-55687000D03*
D19*
X44323169Y-60767000D03*
D18*
X41783169Y-55687000D03*
%TD*%
D16*
%TO.C,H4*%
X64723419Y-131857000D03*
%TD*%
D18*
%TO.C,S12*%
X75748169Y-112817000D03*
D19*
X74478169Y-115357000D03*
D20*
X70668169Y-112817000D03*
D19*
X68128169Y-117897000D03*
D18*
X65588169Y-112817000D03*
%TD*%
D13*
%TO.C,S14*%
X71825669Y-149882000D03*
D14*
X66325669Y-149882000D03*
D13*
X60825669Y-149882000D03*
D15*
X66325669Y-155782000D03*
X61325669Y-153682000D03*
%TD*%
D18*
%TO.C,S20*%
X118588169Y-74737000D03*
D19*
X117318169Y-77277000D03*
D20*
X113508169Y-74737000D03*
D19*
X110968169Y-79817000D03*
D18*
X108428169Y-74737000D03*
%TD*%
%TO.C,S19*%
X109063169Y-55687000D03*
D19*
X107793169Y-58227000D03*
D20*
X103983169Y-55687000D03*
D19*
X101443169Y-60767000D03*
D18*
X98903169Y-55687000D03*
%TD*%
%TO.C,S22*%
X113828169Y-112817000D03*
D19*
X112558169Y-115357000D03*
D20*
X108748169Y-112817000D03*
D19*
X106208169Y-117897000D03*
D18*
X103668169Y-112817000D03*
%TD*%
%TO.C,S15*%
X90023169Y-55687000D03*
D19*
X88753169Y-58227000D03*
D20*
X84943169Y-55687000D03*
D19*
X82403169Y-60767000D03*
D18*
X79863169Y-55687000D03*
%TD*%
%TO.C,S16*%
X99548169Y-74737000D03*
D19*
X98278169Y-77277000D03*
D20*
X94468169Y-74737000D03*
D19*
X91928169Y-79817000D03*
D18*
X89388169Y-74737000D03*
%TD*%
D25*
%TO.C,SW2*%
X136754362Y-40344877D03*
D26*
X137759750Y-35447000D03*
X137257055Y-37895938D03*
D27*
X128784205Y-41873475D03*
X131036277Y-30902233D03*
D26*
X123555909Y-32531370D03*
X122550519Y-37429247D03*
%TD*%
D18*
%TO.C,S29*%
X147143169Y-55687000D03*
D19*
X145873169Y-58227000D03*
D20*
X142063169Y-55687000D03*
D19*
X139523169Y-60767000D03*
D18*
X136983169Y-55687000D03*
%TD*%
D16*
%TO.C,H1*%
X65903169Y-73737000D03*
%TD*%
D18*
%TO.C,S34*%
X173336919Y-93777000D03*
D19*
X172066919Y-96317000D03*
D20*
X168256919Y-93777000D03*
D19*
X165716919Y-98857000D03*
D18*
X163176919Y-93777000D03*
%TD*%
D28*
%TO.C,D31*%
X164473169Y-127787000D03*
D29*
X164473169Y-129887000D03*
X164473169Y-133687000D03*
D30*
X164473169Y-135787000D03*
%TD*%
D28*
%TO.C,D11*%
X81593169Y-102427000D03*
D31*
X79493169Y-102427000D03*
X75693169Y-102427000D03*
D30*
X73593169Y-102427000D03*
%TD*%
D28*
%TO.C,D9*%
X69413169Y-64317000D03*
D31*
X67313169Y-64317000D03*
X63513169Y-64317000D03*
D30*
X61413169Y-64317000D03*
%TD*%
D32*
%TO.C,U1*%
X135303169Y-143407000D03*
X137843169Y-143407000D03*
D21*
X140383169Y-143407000D03*
D32*
X142923169Y-143407000D03*
X145463169Y-143407000D03*
X148003169Y-143407000D03*
X150543169Y-143407000D03*
D21*
X153083169Y-143407000D03*
D32*
X155623169Y-143407000D03*
X158163169Y-143407000D03*
X160703169Y-143407000D03*
X163243169Y-143407000D03*
D21*
X165783169Y-143407000D03*
D32*
X168323169Y-143407000D03*
X170863169Y-143407000D03*
X173403169Y-143407000D03*
X175943169Y-143407000D03*
D21*
X178483169Y-143407000D03*
D32*
X181023169Y-143407000D03*
X183563169Y-143407000D03*
X183563169Y-161187000D03*
X181023169Y-161187000D03*
D21*
X178483169Y-161187000D03*
D32*
X175943169Y-161187000D03*
X173403169Y-161187000D03*
X170863169Y-161187000D03*
X168323169Y-161187000D03*
D21*
X165783169Y-161187000D03*
D32*
X163243169Y-161187000D03*
X160703169Y-161187000D03*
X158163169Y-161187000D03*
X155623169Y-161187000D03*
D21*
X153083169Y-161187000D03*
D32*
X150543169Y-161187000D03*
X148003169Y-161187000D03*
X145463169Y-161187000D03*
X142923169Y-161187000D03*
D21*
X140383169Y-161187000D03*
D32*
X137843169Y-161187000D03*
X135303169Y-161187000D03*
X183333169Y-149757000D03*
D21*
X183333169Y-152297000D03*
D32*
X183333169Y-154837000D03*
D33*
X135033169Y-151397000D03*
X135033169Y-153197000D03*
%TD*%
D28*
%TO.C,D24*%
X126563169Y-64337000D03*
D31*
X124463169Y-64337000D03*
X120663169Y-64337000D03*
D30*
X118563169Y-64337000D03*
%TD*%
D28*
%TO.C,D28*%
X117253169Y-129717000D03*
D29*
X117253169Y-131817000D03*
X117253169Y-135617000D03*
D30*
X117253169Y-137717000D03*
%TD*%
D28*
%TO.C,D36*%
X168473169Y-127787000D03*
D29*
X168473169Y-129887000D03*
X168473169Y-133687000D03*
D30*
X168473169Y-135787000D03*
%TD*%
D28*
%TO.C,D12*%
X74520669Y-121398250D03*
D31*
X72420669Y-121398250D03*
X68620669Y-121398250D03*
D30*
X66520669Y-121398250D03*
%TD*%
D28*
%TO.C,D25*%
X137543169Y-83317000D03*
D31*
X135443169Y-83317000D03*
X131643169Y-83317000D03*
D30*
X129543169Y-83317000D03*
%TD*%
D28*
%TO.C,D3*%
X52133169Y-146317000D03*
D29*
X52133169Y-148417000D03*
X52133169Y-152217000D03*
D30*
X52133169Y-154317000D03*
%TD*%
D28*
%TO.C,D22*%
X111473169Y-121447000D03*
D31*
X109373169Y-121447000D03*
X105573169Y-121447000D03*
D30*
X103473169Y-121447000D03*
%TD*%
D28*
%TO.C,D33*%
X178003169Y-83377000D03*
D31*
X175903169Y-83377000D03*
X172103169Y-83377000D03*
D30*
X170003169Y-83377000D03*
%TD*%
D28*
%TO.C,D7*%
X56253169Y-121577000D03*
D31*
X54153169Y-121577000D03*
X50353169Y-121577000D03*
D30*
X48253169Y-121577000D03*
%TD*%
D28*
%TO.C,D30*%
X156143169Y-83357000D03*
D31*
X154043169Y-83357000D03*
X150243169Y-83357000D03*
D30*
X148143169Y-83357000D03*
%TD*%
D28*
%TO.C,D14*%
X55941919Y-146354500D03*
D29*
X55941919Y-148454500D03*
X55941919Y-152254500D03*
D30*
X55941919Y-154354500D03*
%TD*%
D28*
%TO.C,D15*%
X87883169Y-64307000D03*
D31*
X85783169Y-64307000D03*
X81983169Y-64307000D03*
D30*
X79883169Y-64307000D03*
%TD*%
D28*
%TO.C,D16*%
X98443169Y-83197000D03*
D31*
X96343169Y-83197000D03*
X92543169Y-83197000D03*
D30*
X90443169Y-83197000D03*
%TD*%
D28*
%TO.C,D1*%
X45133169Y-83397000D03*
D31*
X43033169Y-83397000D03*
X39233169Y-83397000D03*
D30*
X37133169Y-83397000D03*
%TD*%
D21*
%TO.C,J4*%
X160093169Y-65702000D03*
D32*
X157553169Y-65702000D03*
X155013169Y-65702000D03*
X152473169Y-65702000D03*
%TD*%
D28*
%TO.C,D6*%
X68764419Y-102357000D03*
D31*
X66664419Y-102357000D03*
X62864419Y-102357000D03*
D30*
X60764419Y-102357000D03*
%TD*%
D28*
%TO.C,D17*%
X102373169Y-102357000D03*
D31*
X100273169Y-102357000D03*
X96473169Y-102357000D03*
D30*
X94373169Y-102357000D03*
%TD*%
D34*
%TO.C,D37*%
X128201470Y-45181312D03*
D35*
X126144362Y-44759048D03*
X122421976Y-43994952D03*
D30*
X120364868Y-43572688D03*
%TD*%
D28*
%TO.C,D18*%
X95183169Y-121527000D03*
D31*
X93083169Y-121527000D03*
X89283169Y-121527000D03*
D30*
X87183169Y-121527000D03*
%TD*%
D28*
%TO.C,D34*%
X171943169Y-102377000D03*
D31*
X169843169Y-102377000D03*
X166043169Y-102377000D03*
D30*
X163943169Y-102377000D03*
%TD*%
D28*
%TO.C,D21*%
X119813169Y-102537000D03*
D31*
X117713169Y-102537000D03*
X113913169Y-102537000D03*
D30*
X111813169Y-102537000D03*
%TD*%
D28*
%TO.C,D19*%
X107663169Y-64270419D03*
D31*
X105563169Y-64270419D03*
X101763169Y-64270419D03*
D30*
X99663169Y-64270419D03*
%TD*%
D28*
%TO.C,D35*%
X167843169Y-121477000D03*
D31*
X165743169Y-121477000D03*
X161943169Y-121477000D03*
D30*
X159843169Y-121477000D03*
%TD*%
D28*
%TO.C,D10*%
X78693169Y-83317000D03*
D31*
X76593169Y-83317000D03*
X72793169Y-83317000D03*
D30*
X70693169Y-83317000D03*
%TD*%
D28*
%TO.C,D23*%
X107933169Y-140567000D03*
D31*
X105833169Y-140567000D03*
X102033169Y-140567000D03*
D30*
X99933169Y-140567000D03*
%TD*%
D28*
%TO.C,D29*%
X145923169Y-64270419D03*
D31*
X143823169Y-64270419D03*
X140023169Y-64270419D03*
D30*
X137923169Y-64270419D03*
%TD*%
D28*
%TO.C,D4*%
X50183169Y-64367000D03*
D31*
X48083169Y-64367000D03*
X44283169Y-64367000D03*
D30*
X42183169Y-64367000D03*
%TD*%
D28*
%TO.C,D20*%
X117763169Y-83257000D03*
D31*
X115663169Y-83257000D03*
X111863169Y-83257000D03*
D30*
X109763169Y-83257000D03*
%TD*%
D28*
%TO.C,D8*%
X52980669Y-140468250D03*
D31*
X50880669Y-140468250D03*
X47080669Y-140468250D03*
D30*
X44980669Y-140468250D03*
%TD*%
D28*
%TO.C,D27*%
X131103169Y-121547000D03*
D31*
X129003169Y-121547000D03*
X125203169Y-121547000D03*
D30*
X123103169Y-121547000D03*
%TD*%
D28*
%TO.C,D26*%
X140143169Y-102397000D03*
D31*
X138043169Y-102397000D03*
X134243169Y-102397000D03*
D30*
X132143169Y-102397000D03*
%TD*%
D28*
%TO.C,D2*%
X54973169Y-102467000D03*
D31*
X52873169Y-102467000D03*
X49073169Y-102467000D03*
D30*
X46973169Y-102467000D03*
%TD*%
D28*
%TO.C,D32*%
X174893169Y-64277000D03*
D31*
X172793169Y-64277000D03*
X168993169Y-64277000D03*
D30*
X166893169Y-64277000D03*
%TD*%
D28*
%TO.C,D5*%
X60023169Y-83257000D03*
D31*
X57923169Y-83257000D03*
X54123169Y-83257000D03*
D30*
X52023169Y-83257000D03*
%TD*%
D28*
%TO.C,D13*%
X83840669Y-140598250D03*
D31*
X81740669Y-140598250D03*
X77940669Y-140598250D03*
D30*
X75840669Y-140598250D03*
%TD*%
%LPD*%
M02*
