M48
; DRILL file {KiCad 8.0.7} date 2025-08-07T20:18:05+0200
; FORMAT={-:-/ absolute / inch / decimal}
; #@! TF.CreationDate,2025-08-07T20:18:05+02:00
; #@! TF.GenerationSoftware,Kicad,Pcbnew,8.0.7
; #@! TF.FileFunction,Plated,1,2,PTH
FMAT,2
INCH
; #@! TA.AperFunction,Plated,PTH,ViaDrill
T1C0.0138
; #@! TA.AperFunction,Plated,PTH,ComponentDrill
T2C0.0315
; #@! TA.AperFunction,Plated,PTH,ComponentDrill
T3C0.0354
; #@! TA.AperFunction,Plated,PTH,ComponentDrill
T4C0.0394
; #@! TA.AperFunction,Plated,PTH,ComponentDrill
T5C0.0402
; #@! TA.AperFunction,Plated,PTH,ComponentDrill
T6C0.0472
; #@! TA.AperFunction,Plated,PTH,ComponentDrill
T7C0.0591
%
G90
G05
T1
X1.2604Y-2.7217
X1.4088Y-5.657
X1.4297Y-6.3843
X1.4493Y-3.4992
X1.4539Y-5.7381
X1.5436Y-3.6231
X1.6285Y-2.0721
X1.6486Y-2.8701
X1.6795Y-3.8845
X1.7245Y-2.2674
X1.7413Y-5.0282
X1.7903Y-2.7142
X1.8527Y-4.1196
X1.8649Y-3.9019
X1.8804Y-3.0412
X2.0281Y-2.8319
X2.059Y-3.8353
X2.0657Y-3.5263
X2.1407Y-6.2719
X2.1498Y-2.5341
X2.1889Y-2.4274
X2.219Y-4.3398
X2.2631Y-2.0236
X2.2958Y-3.7571
X2.2978Y-5.1243
X2.3001Y-5.4578
X2.3088Y-5.5292
X2.3423Y-4.4223
X2.3852Y-5.6648
X2.4334Y-4.2239
X2.4539Y-4.4034
X2.4734Y-2.2555
X2.499Y-3.2672
X2.5493Y-3.6512
X2.5598Y-5.5341
X2.6342Y-3.1999
X2.657Y-3.9349
X2.6985Y-4.9961
X2.7072Y-5.4585
X2.7344Y-2.7223
X2.8056Y-5.3322
X2.808Y-5.5593
X2.8139Y-3.9858
X2.8173Y-2.02
X2.8199Y-3.8528
X2.82Y-4.9452
X2.8235Y-3.5231
X2.843Y-5.9975
X2.9133Y-2.5054
X2.9543Y-4.9381
X2.9659Y-5.2814
X3.0045Y-4.2074
X3.0084Y-6.2589
X3.0924Y-4.7578
X3.0985Y-6.1707
X3.156Y-2.8142
X3.1915Y-3.2591
X3.208Y-3.3583
X3.2482Y-3.927
X3.2521Y-5.8436
X3.2858Y-3.2133
X3.296Y-6.1924
X3.3131Y-2.9078
X3.3533Y-3.9162
X3.3541Y-4.1122
X3.3549Y-6.0127
X3.3653Y-3.5302
X3.3671Y-2.7177
X3.3824Y-5.7546
X3.3936Y-4.5129
X3.412Y-5.3959
X3.4836Y-5.5007
X3.5797Y-2.0268
X3.6604Y-2.5456
X3.6671Y-5.8542
X3.6745Y-2.4285
X3.7216Y-4.3211
X3.7352Y-2.3239
X3.7635Y-5.0286
X3.7938Y-5.4625
X3.8568Y-4.72
X3.8923Y-2.8516
X3.933Y-4.2105
X3.935Y-4.7302
X3.9684Y-2.2597
X3.9812Y-3.9207
X3.9852Y-4.9581
X4.0505Y-3.1877
X4.0513Y-5.8034
X4.1167Y-2.7154
X4.1856Y-4.0215
X4.3088Y-3.5154
X4.3308Y-3.7066
X4.3312Y-3.4028
X4.3395Y-2.4432
X4.357Y-5.6144
X4.3934Y-1.8686
X4.4113Y-5.518
X4.4184Y-5.0877
X4.4334Y-2.0255
X4.4655Y-4.3267
X4.4831Y-5.9715
X4.491Y-2.6027
X4.4998Y-5.3956
X4.5149Y-1.7948
X4.5169Y-1.6617
X4.5384Y-6.0373
X4.558Y-4.7696
X4.5615Y-5.8026
X4.5812Y-2.5288
X4.5842Y-5.631
X4.608Y-4.2113
X4.6293Y-2.2732
X4.7298Y-4.7688
X4.7374Y-5.5155
X4.7978Y-3.2394
X4.7989Y-4.9085
X4.8025Y-2.8963
X4.821Y-4.0141
X4.8225Y-3.1637
X4.8428Y-5.803
X4.8749Y-5.0267
X4.8765Y-3.5343
X4.8863Y-5.2747
X4.8893Y-5.9723
X4.8911Y-6.0341
X4.9063Y-4.0074
X4.9525Y-5.7306
X4.9946Y-5.1574
X4.997Y-2.7169
X5.0184Y-1.9684
X5.0305Y-5.907
X5.0539Y-2.853
X5.0674Y-3.7158
X5.0793Y-3.4166
X5.0838Y-1.8841
X5.0854Y-2.0156
X5.1084Y-5.4229
X5.1222Y-5.9936
X5.208Y-6.2747
X5.2747Y-2.5322
X5.295Y-1.3463
X5.3495Y-4.7778
X5.4009Y-4.6326
X5.4178Y-2.0322
X5.4478Y-5.1353
X5.4619Y-4.9672
X5.4783Y-4.7778
X5.4908Y-5.3567
X5.5208Y-3.2095
X5.5361Y-4.8589
X5.5399Y-2.779
X5.5692Y-3.3583
X5.5714Y-5.4956
X5.6253Y-2.7252
X5.6637Y-3.9377
X5.7344Y-4.266
X5.7423Y-3.4983
X5.7836Y-2.7782
X5.8125Y-5.1267
X5.8602Y-4.0809
X5.875Y-5.0063
X5.8858Y-4.7778
X5.898Y-4.8589
X5.9076Y-2.1467
X5.9196Y-2.5282
X5.9678Y-5.2873
X5.9952Y-2.3267
X6.0001Y-6.2755
X6.0641Y-4.7767
X6.1043Y-4.2688
X6.1184Y-3.8416
X6.119Y-4.0811
X6.1363Y-3.3587
X6.2211Y-4.9518
X6.2726Y-3.4357
X6.2812Y-4.0172
X6.2863Y-2.0184
X6.2866Y-3.2641
X6.2995Y-3.1566
X6.3739Y-5.1818
X6.3826Y-3.5271
X6.4964Y-2.2652
X6.6673Y-2.7207
X6.6781Y-4.2778
X6.7676Y-4.6668
X6.7728Y-4.9822
X6.8848Y-4.5223
X6.9033Y-4.6668
X6.9077Y-3.19
X6.9411Y-3.9727
X6.9411Y-4.4215
X6.973Y-6.0314
X6.9997Y-3.5735
X7.0001Y-4.5089
X7.0641Y-3.8761
X7.0806Y-2.518
X7.1141Y-6.0377
X7.1212Y-2.7952
X7.1277Y-5.1382
X7.2045Y-2.1656
X7.2056Y-3.792
X7.2132Y-2.9133
X7.2135Y-2.4843
X7.2247Y-4.8664
X7.2765Y-3.9133
X7.3005Y-5.403
T3
X1.4619Y-3.2833
X1.6608Y-2.5341
X1.7709Y-5.5302
X1.7769Y-3.2833
X1.8493Y-4.0341
X1.8997Y-4.7865
X1.9757Y-2.5341
X2.0482Y-3.2778
X2.0525Y-5.7605
X2.0525Y-6.0755
X2.0859Y-5.5302
X2.1643Y-4.0341
X2.2024Y-5.762
X2.2024Y-6.0769
X2.2147Y-4.7865
X2.3631Y-3.2778
X2.3923Y-4.0298
X2.4178Y-2.5322
X2.6189Y-4.7795
X2.7073Y-4.0298
X2.7328Y-2.5322
X2.7832Y-3.2802
X2.8974Y-4.0326
X2.9339Y-4.7795
X2.9859Y-5.5354
X3.0982Y-3.2802
X3.145Y-2.5318
X3.2123Y-4.0326
X3.3008Y-5.5354
X3.4324Y-4.7845
X3.46Y-2.5318
X3.5608Y-3.2755
X3.7155Y-4.0298
X3.7474Y-4.7845
X3.8757Y-3.2755
X3.9237Y-2.5303
X3.9344Y-5.5341
X4.0304Y-4.0298
X4.0737Y-4.7814
X4.2387Y-2.5303
X4.2493Y-5.5341
X4.3214Y-3.2778
X4.3887Y-4.7814
X4.4021Y-4.0369
X4.5165Y-1.4465
X4.5366Y-1.3486
X4.5567Y-1.2506
X4.6163Y-5.107
X4.6163Y-5.4219
X4.6245Y-1.4177
X4.6363Y-3.2778
X4.6446Y-1.3197
X4.6678Y-2.533
X4.7171Y-4.0369
X4.7388Y-1.7155
X4.8466Y-4.7853
X4.9828Y-2.533
X5.0473Y-1.7788
X5.1001Y-3.2802
X5.1615Y-4.7853
X5.2025Y-4.0314
X5.4151Y-3.2802
X5.43Y-2.5303
X5.5174Y-4.0314
X5.745Y-2.5303
X5.8324Y-3.2818
X6.1474Y-3.2818
X6.293Y-4.7826
X6.4545Y-4.0306
X6.4753Y-5.031
X6.4753Y-5.3459
X6.5706Y-2.5306
X6.608Y-4.7826
X6.6328Y-5.031
X6.6328Y-5.3459
X6.693Y-3.2826
X6.7694Y-4.0306
X6.8856Y-2.5306
X7.008Y-3.2826
T4
X3.9669Y-5.9574
X4.8248Y-1.4736
X4.8644Y-1.2808
X5.384Y-1.5884
X5.4038Y-1.492
X5.4236Y-1.3956
X6.0029Y-2.5867
X6.1029Y-2.5867
X6.2029Y-2.5867
X6.3029Y-2.5867
T5
X5.3269Y-5.6459
X5.3269Y-6.3459
X5.4269Y-5.6459
X5.4269Y-6.3459
X5.5269Y-5.6459
X5.5269Y-6.3459
X5.6269Y-5.6459
X5.6269Y-6.3459
X5.7269Y-5.6459
X5.7269Y-6.3459
X5.8269Y-5.6459
X5.8269Y-6.3459
X5.9269Y-5.6459
X5.9269Y-6.3459
X6.0269Y-5.6459
X6.0269Y-6.3459
X6.1269Y-5.6459
X6.1269Y-6.3459
X6.2269Y-5.6459
X6.2269Y-6.3459
X6.3269Y-5.6459
X6.3269Y-6.3459
X6.4269Y-5.6459
X6.4269Y-6.3459
X6.5269Y-5.6459
X6.5269Y-6.3459
X6.6269Y-5.6459
X6.6269Y-6.3459
X6.7269Y-5.6459
X6.7269Y-6.3459
X6.8269Y-5.6459
X6.8269Y-6.3459
X6.9269Y-5.6459
X6.9269Y-6.3459
X7.0269Y-5.6459
X7.0269Y-6.3459
X7.1269Y-5.6459
X7.1269Y-6.3459
X7.2178Y-5.8959
X7.2178Y-5.9959
X7.2178Y-6.0959
X7.2269Y-5.6459
X7.2269Y-6.3459
T6
X1.44Y-6.0505
X1.6368Y-6.1331
X2.4144Y-6.0505
X2.6112Y-6.1331
T2
G00X5.3206Y-5.9605
M15
G01X5.3119Y-5.9605
M16
G05
G00X5.3206Y-6.0314
M15
G01X5.3119Y-6.0314
M16
G05
T7
G00X5.0953Y-1.6537
M15
G01X5.0452Y-1.6434
M16
G05
G00X5.184Y-1.2218
M15
G01X5.1338Y-1.2115
M16
G05
M30
