%TF.GenerationSoftware,KiCad,Pcbnew,8.0.7*%
%TF.CreationDate,2025-08-07T20:18:05+02:00*%
%TF.ProjectId,pcb_keyboard_dx_rj11,7063625f-6b65-4796-926f-6172645f6478,rev?*%
%TF.SameCoordinates,Original*%
%TF.FileFunction,Legend,Bot*%
%TF.FilePolarity,Positive*%
%FSLAX46Y46*%
G04 Gerber Fmt 4.6, Leading zero omitted, Abs format (unit mm)*
G04 Created by KiCad (PCBNEW 8.0.7) date 2025-08-07 20:18:05*
%MOMM*%
%LPD*%
G01*
G04 APERTURE LIST*
G04 Aperture macros list*
%AMRoundRect*
0 Rectangle with rounded corners*
0 $1 Rounding radius*
0 $2 $3 $4 $5 $6 $7 $8 $9 X,Y pos of 4 corners*
0 Add a 4 corners polygon primitive as box body*
4,1,4,$2,$3,$4,$5,$6,$7,$8,$9,$2,$3,0*
0 Add four circle primitives for the rounded corners*
1,1,$1+$1,$2,$3*
1,1,$1+$1,$4,$5*
1,1,$1+$1,$6,$7*
1,1,$1+$1,$8,$9*
0 Add four rect primitives between the rounded corners*
20,1,$1+$1,$2,$3,$4,$5,0*
20,1,$1+$1,$4,$5,$6,$7,0*
20,1,$1+$1,$6,$7,$8,$9,0*
20,1,$1+$1,$8,$9,$2,$3,0*%
%AMRotRect*
0 Rectangle, with rotation*
0 The origin of the aperture is its center*
0 $1 length*
0 $2 width*
0 $3 Rotation angle, in degrees counterclockwise*
0 Add horizontal line*
21,1,$1,$2,0,0,$3*%
G04 Aperture macros list end*
%ADD10C,0.200000*%
%ADD11C,0.150000*%
%ADD12C,0.120000*%
%ADD13C,0.250000*%
%ADD14C,1.900000*%
%ADD15C,3.450000*%
%ADD16C,2.200000*%
%ADD17C,1.200000*%
%ADD18C,3.200000*%
%ADD19C,1.750000*%
%ADD20C,3.050000*%
%ADD21C,4.000000*%
%ADD22RoundRect,0.250000X1.025000X1.000000X-1.025000X1.000000X-1.025000X-1.000000X1.025000X-1.000000X0*%
%ADD23R,1.700000X1.700000*%
%ADD24C,3.250000*%
%ADD25RotRect,1.520000X1.520000X258.400000*%
%ADD26C,1.520000*%
%ADD27RotRect,2.000000X2.000000X168.400000*%
%ADD28C,2.000000*%
%ADD29RotRect,3.200000X2.000000X168.400000*%
%ADD30R,1.400000X1.400000*%
%ADD31RoundRect,0.300000X-0.300000X0.450000X-0.300000X-0.450000X0.300000X-0.450000X0.300000X0.450000X0*%
%ADD32RoundRect,0.300000X-0.300000X0.400000X-0.300000X-0.400000X0.300000X-0.400000X0.300000X0.400000X0*%
%ADD33C,1.400000*%
%ADD34R,1.000000X1.500000*%
%ADD35R,1.500000X1.000000*%
%ADD36RoundRect,0.205000X-0.495000X-0.205000X0.495000X-0.205000X0.495000X0.205000X-0.495000X0.205000X0*%
%ADD37RoundRect,0.300000X0.450000X0.300000X-0.450000X0.300000X-0.450000X-0.300000X0.450000X-0.300000X0*%
%ADD38RoundRect,0.300000X0.400000X0.300000X-0.400000X0.300000X-0.400000X-0.300000X0.400000X-0.300000X0*%
%ADD39O,1.700000X1.700000*%
%ADD40R,1.700000X3.500000*%
%ADD41R,3.500000X1.700000*%
%ADD42O,1.700000X1.400000*%
%ADD43RoundRect,0.205000X0.495000X0.205000X-0.495000X0.205000X-0.495000X-0.205000X0.495000X-0.205000X0*%
%ADD44RotRect,1.400000X1.400000X168.400000*%
%ADD45RoundRect,0.300000X0.501132X0.203388X-0.380485X0.384358X-0.501132X-0.203388X0.380485X-0.384358X0*%
%ADD46RoundRect,0.300000X0.452153X0.213441X-0.331507X0.374304X-0.452153X-0.213441X0.331507X-0.374304X0*%
%ADD47RoundRect,0.100000X0.100000X-0.650000X0.100000X0.650000X-0.100000X0.650000X-0.100000X-0.650000X0*%
%ADD48RoundRect,0.250000X-1.450000X0.537500X-1.450000X-0.537500X1.450000X-0.537500X1.450000X0.537500X0*%
G04 APERTURE END LIST*
D10*
X159478495Y-60464219D02*
X159478495Y-59464219D01*
X159478495Y-59464219D02*
X159240400Y-59464219D01*
X159240400Y-59464219D02*
X159097543Y-59511838D01*
X159097543Y-59511838D02*
X159002305Y-59607076D01*
X159002305Y-59607076D02*
X158954686Y-59702314D01*
X158954686Y-59702314D02*
X158907067Y-59892790D01*
X158907067Y-59892790D02*
X158907067Y-60035647D01*
X158907067Y-60035647D02*
X158954686Y-60226123D01*
X158954686Y-60226123D02*
X159002305Y-60321361D01*
X159002305Y-60321361D02*
X159097543Y-60416600D01*
X159097543Y-60416600D02*
X159240400Y-60464219D01*
X159240400Y-60464219D02*
X159478495Y-60464219D01*
X158478495Y-60083266D02*
X157716591Y-60083266D01*
X72096352Y-146684219D02*
X71763019Y-147684219D01*
X71763019Y-147684219D02*
X71429686Y-146684219D01*
X71143971Y-147636600D02*
X71001114Y-147684219D01*
X71001114Y-147684219D02*
X70763019Y-147684219D01*
X70763019Y-147684219D02*
X70667781Y-147636600D01*
X70667781Y-147636600D02*
X70620162Y-147588980D01*
X70620162Y-147588980D02*
X70572543Y-147493742D01*
X70572543Y-147493742D02*
X70572543Y-147398504D01*
X70572543Y-147398504D02*
X70620162Y-147303266D01*
X70620162Y-147303266D02*
X70667781Y-147255647D01*
X70667781Y-147255647D02*
X70763019Y-147208028D01*
X70763019Y-147208028D02*
X70953495Y-147160409D01*
X70953495Y-147160409D02*
X71048733Y-147112790D01*
X71048733Y-147112790D02*
X71096352Y-147065171D01*
X71096352Y-147065171D02*
X71143971Y-146969933D01*
X71143971Y-146969933D02*
X71143971Y-146874695D01*
X71143971Y-146874695D02*
X71096352Y-146779457D01*
X71096352Y-146779457D02*
X71048733Y-146731838D01*
X71048733Y-146731838D02*
X70953495Y-146684219D01*
X70953495Y-146684219D02*
X70715400Y-146684219D01*
X70715400Y-146684219D02*
X70572543Y-146731838D01*
X70191590Y-147636600D02*
X70048733Y-147684219D01*
X70048733Y-147684219D02*
X69810638Y-147684219D01*
X69810638Y-147684219D02*
X69715400Y-147636600D01*
X69715400Y-147636600D02*
X69667781Y-147588980D01*
X69667781Y-147588980D02*
X69620162Y-147493742D01*
X69620162Y-147493742D02*
X69620162Y-147398504D01*
X69620162Y-147398504D02*
X69667781Y-147303266D01*
X69667781Y-147303266D02*
X69715400Y-147255647D01*
X69715400Y-147255647D02*
X69810638Y-147208028D01*
X69810638Y-147208028D02*
X70001114Y-147160409D01*
X70001114Y-147160409D02*
X70096352Y-147112790D01*
X70096352Y-147112790D02*
X70143971Y-147065171D01*
X70143971Y-147065171D02*
X70191590Y-146969933D01*
X70191590Y-146969933D02*
X70191590Y-146874695D01*
X70191590Y-146874695D02*
X70143971Y-146779457D01*
X70143971Y-146779457D02*
X70096352Y-146731838D01*
X70096352Y-146731838D02*
X70001114Y-146684219D01*
X70001114Y-146684219D02*
X69763019Y-146684219D01*
X69763019Y-146684219D02*
X69620162Y-146731838D01*
X175166352Y-123324219D02*
X174833019Y-124324219D01*
X174833019Y-124324219D02*
X174499686Y-123324219D01*
X174213971Y-124276600D02*
X174071114Y-124324219D01*
X174071114Y-124324219D02*
X173833019Y-124324219D01*
X173833019Y-124324219D02*
X173737781Y-124276600D01*
X173737781Y-124276600D02*
X173690162Y-124228980D01*
X173690162Y-124228980D02*
X173642543Y-124133742D01*
X173642543Y-124133742D02*
X173642543Y-124038504D01*
X173642543Y-124038504D02*
X173690162Y-123943266D01*
X173690162Y-123943266D02*
X173737781Y-123895647D01*
X173737781Y-123895647D02*
X173833019Y-123848028D01*
X173833019Y-123848028D02*
X174023495Y-123800409D01*
X174023495Y-123800409D02*
X174118733Y-123752790D01*
X174118733Y-123752790D02*
X174166352Y-123705171D01*
X174166352Y-123705171D02*
X174213971Y-123609933D01*
X174213971Y-123609933D02*
X174213971Y-123514695D01*
X174213971Y-123514695D02*
X174166352Y-123419457D01*
X174166352Y-123419457D02*
X174118733Y-123371838D01*
X174118733Y-123371838D02*
X174023495Y-123324219D01*
X174023495Y-123324219D02*
X173785400Y-123324219D01*
X173785400Y-123324219D02*
X173642543Y-123371838D01*
X173261590Y-124276600D02*
X173118733Y-124324219D01*
X173118733Y-124324219D02*
X172880638Y-124324219D01*
X172880638Y-124324219D02*
X172785400Y-124276600D01*
X172785400Y-124276600D02*
X172737781Y-124228980D01*
X172737781Y-124228980D02*
X172690162Y-124133742D01*
X172690162Y-124133742D02*
X172690162Y-124038504D01*
X172690162Y-124038504D02*
X172737781Y-123943266D01*
X172737781Y-123943266D02*
X172785400Y-123895647D01*
X172785400Y-123895647D02*
X172880638Y-123848028D01*
X172880638Y-123848028D02*
X173071114Y-123800409D01*
X173071114Y-123800409D02*
X173166352Y-123752790D01*
X173166352Y-123752790D02*
X173213971Y-123705171D01*
X173213971Y-123705171D02*
X173261590Y-123609933D01*
X173261590Y-123609933D02*
X173261590Y-123514695D01*
X173261590Y-123514695D02*
X173213971Y-123419457D01*
X173213971Y-123419457D02*
X173166352Y-123371838D01*
X173166352Y-123371838D02*
X173071114Y-123324219D01*
X173071114Y-123324219D02*
X172833019Y-123324219D01*
X172833019Y-123324219D02*
X172690162Y-123371838D01*
X112904911Y-34481115D02*
X113132897Y-33946427D01*
X113464061Y-34363294D02*
X113257874Y-33384781D01*
X113257874Y-33384781D02*
X112885107Y-33463328D01*
X112885107Y-33463328D02*
X112801734Y-33529561D01*
X112801734Y-33529561D02*
X112764956Y-33585975D01*
X112764956Y-33585975D02*
X112737997Y-33688985D01*
X112737997Y-33688985D02*
X112767453Y-33828773D01*
X112767453Y-33828773D02*
X112833685Y-33912146D01*
X112833685Y-33912146D02*
X112890100Y-33948924D01*
X112890100Y-33948924D02*
X112993110Y-33975883D01*
X112993110Y-33975883D02*
X113365877Y-33897335D01*
X112372553Y-33571331D02*
X111926398Y-34687302D01*
X111720211Y-33708789D02*
X112578740Y-34549844D01*
X119217661Y-31195326D02*
X118658511Y-31313147D01*
X119144273Y-32232749D02*
X118938086Y-31254236D01*
X118425532Y-31362239D02*
X117979377Y-32478210D01*
X117773190Y-31499697D02*
X118631719Y-32340752D01*
X105877305Y-161104219D02*
X106353495Y-161104219D01*
X106353495Y-161104219D02*
X106353495Y-160104219D01*
X105353495Y-160104219D02*
X105163019Y-160104219D01*
X105163019Y-160104219D02*
X105067781Y-160151838D01*
X105067781Y-160151838D02*
X104972543Y-160247076D01*
X104972543Y-160247076D02*
X104924924Y-160437552D01*
X104924924Y-160437552D02*
X104924924Y-160770885D01*
X104924924Y-160770885D02*
X104972543Y-160961361D01*
X104972543Y-160961361D02*
X105067781Y-161056600D01*
X105067781Y-161056600D02*
X105163019Y-161104219D01*
X105163019Y-161104219D02*
X105353495Y-161104219D01*
X105353495Y-161104219D02*
X105448733Y-161056600D01*
X105448733Y-161056600D02*
X105543971Y-160961361D01*
X105543971Y-160961361D02*
X105591590Y-160770885D01*
X105591590Y-160770885D02*
X105591590Y-160437552D01*
X105591590Y-160437552D02*
X105543971Y-160247076D01*
X105543971Y-160247076D02*
X105448733Y-160151838D01*
X105448733Y-160151838D02*
X105353495Y-160104219D01*
X104591590Y-160104219D02*
X104353495Y-161104219D01*
X104353495Y-161104219D02*
X104163019Y-160389933D01*
X104163019Y-160389933D02*
X103972543Y-161104219D01*
X103972543Y-161104219D02*
X103734448Y-160104219D01*
X169086352Y-109454219D02*
X168753019Y-110454219D01*
X168753019Y-110454219D02*
X168419686Y-109454219D01*
X168133971Y-110406600D02*
X167991114Y-110454219D01*
X167991114Y-110454219D02*
X167753019Y-110454219D01*
X167753019Y-110454219D02*
X167657781Y-110406600D01*
X167657781Y-110406600D02*
X167610162Y-110358980D01*
X167610162Y-110358980D02*
X167562543Y-110263742D01*
X167562543Y-110263742D02*
X167562543Y-110168504D01*
X167562543Y-110168504D02*
X167610162Y-110073266D01*
X167610162Y-110073266D02*
X167657781Y-110025647D01*
X167657781Y-110025647D02*
X167753019Y-109978028D01*
X167753019Y-109978028D02*
X167943495Y-109930409D01*
X167943495Y-109930409D02*
X168038733Y-109882790D01*
X168038733Y-109882790D02*
X168086352Y-109835171D01*
X168086352Y-109835171D02*
X168133971Y-109739933D01*
X168133971Y-109739933D02*
X168133971Y-109644695D01*
X168133971Y-109644695D02*
X168086352Y-109549457D01*
X168086352Y-109549457D02*
X168038733Y-109501838D01*
X168038733Y-109501838D02*
X167943495Y-109454219D01*
X167943495Y-109454219D02*
X167705400Y-109454219D01*
X167705400Y-109454219D02*
X167562543Y-109501838D01*
X167181590Y-110406600D02*
X167038733Y-110454219D01*
X167038733Y-110454219D02*
X166800638Y-110454219D01*
X166800638Y-110454219D02*
X166705400Y-110406600D01*
X166705400Y-110406600D02*
X166657781Y-110358980D01*
X166657781Y-110358980D02*
X166610162Y-110263742D01*
X166610162Y-110263742D02*
X166610162Y-110168504D01*
X166610162Y-110168504D02*
X166657781Y-110073266D01*
X166657781Y-110073266D02*
X166705400Y-110025647D01*
X166705400Y-110025647D02*
X166800638Y-109978028D01*
X166800638Y-109978028D02*
X166991114Y-109930409D01*
X166991114Y-109930409D02*
X167086352Y-109882790D01*
X167086352Y-109882790D02*
X167133971Y-109835171D01*
X167133971Y-109835171D02*
X167181590Y-109739933D01*
X167181590Y-109739933D02*
X167181590Y-109644695D01*
X167181590Y-109644695D02*
X167133971Y-109549457D01*
X167133971Y-109549457D02*
X167086352Y-109501838D01*
X167086352Y-109501838D02*
X166991114Y-109454219D01*
X166991114Y-109454219D02*
X166753019Y-109454219D01*
X166753019Y-109454219D02*
X166610162Y-109501838D01*
X112310138Y-36839380D02*
X112393511Y-36773147D01*
X112393511Y-36773147D02*
X112533299Y-36743692D01*
X112533299Y-36743692D02*
X112682905Y-36760832D01*
X112682905Y-36760832D02*
X112795733Y-36834387D01*
X112795733Y-36834387D02*
X112861966Y-36917760D01*
X112861966Y-36917760D02*
X112947835Y-37094325D01*
X112947835Y-37094325D02*
X112977291Y-37234113D01*
X112977291Y-37234113D02*
X112969969Y-37430314D01*
X112969969Y-37430314D02*
X112943010Y-37533324D01*
X112943010Y-37533324D02*
X112869455Y-37646153D01*
X112869455Y-37646153D02*
X112739486Y-37722204D01*
X112739486Y-37722204D02*
X112646294Y-37741841D01*
X112646294Y-37741841D02*
X112496688Y-37724700D01*
X112496688Y-37724700D02*
X112440274Y-37687923D01*
X112440274Y-37687923D02*
X112371545Y-37361752D01*
X112371545Y-37361752D02*
X112557928Y-37322478D01*
X112040548Y-37869481D02*
X111834361Y-36890968D01*
X111834361Y-36890968D02*
X111481398Y-37987302D01*
X111481398Y-37987302D02*
X111275211Y-37008789D01*
X111015440Y-38085486D02*
X110809253Y-37106974D01*
X110809253Y-37106974D02*
X110576274Y-37156066D01*
X110576274Y-37156066D02*
X110446305Y-37232117D01*
X110446305Y-37232117D02*
X110372750Y-37344945D01*
X110372750Y-37344945D02*
X110345791Y-37447956D01*
X110345791Y-37447956D02*
X110338469Y-37644157D01*
X110338469Y-37644157D02*
X110367924Y-37783945D01*
X110367924Y-37783945D02*
X110453794Y-37960510D01*
X110453794Y-37960510D02*
X110520026Y-38043883D01*
X110520026Y-38043883D02*
X110632855Y-38117438D01*
X110632855Y-38117438D02*
X110782461Y-38134578D01*
X110782461Y-38134578D02*
X111015440Y-38085486D01*
X118197781Y-158855171D02*
X118245400Y-158807552D01*
X118245400Y-158807552D02*
X118340638Y-158664695D01*
X118340638Y-158664695D02*
X118388257Y-158569457D01*
X118388257Y-158569457D02*
X118435876Y-158426600D01*
X118435876Y-158426600D02*
X118483495Y-158188504D01*
X118483495Y-158188504D02*
X118483495Y-157998028D01*
X118483495Y-157998028D02*
X118435876Y-157759933D01*
X118435876Y-157759933D02*
X118388257Y-157617076D01*
X118388257Y-157617076D02*
X118340638Y-157521838D01*
X118340638Y-157521838D02*
X118245400Y-157378980D01*
X118245400Y-157378980D02*
X118197781Y-157331361D01*
X117673971Y-158474219D02*
X117769209Y-158426600D01*
X117769209Y-158426600D02*
X117816828Y-158378980D01*
X117816828Y-158378980D02*
X117864447Y-158283742D01*
X117864447Y-158283742D02*
X117864447Y-157998028D01*
X117864447Y-157998028D02*
X117816828Y-157902790D01*
X117816828Y-157902790D02*
X117769209Y-157855171D01*
X117769209Y-157855171D02*
X117673971Y-157807552D01*
X117673971Y-157807552D02*
X117531114Y-157807552D01*
X117531114Y-157807552D02*
X117435876Y-157855171D01*
X117435876Y-157855171D02*
X117388257Y-157902790D01*
X117388257Y-157902790D02*
X117340638Y-157998028D01*
X117340638Y-157998028D02*
X117340638Y-158283742D01*
X117340638Y-158283742D02*
X117388257Y-158378980D01*
X117388257Y-158378980D02*
X117435876Y-158426600D01*
X117435876Y-158426600D02*
X117531114Y-158474219D01*
X117531114Y-158474219D02*
X117673971Y-158474219D01*
X116912066Y-157807552D02*
X116912066Y-158807552D01*
X116912066Y-157855171D02*
X116816828Y-157807552D01*
X116816828Y-157807552D02*
X116626352Y-157807552D01*
X116626352Y-157807552D02*
X116531114Y-157855171D01*
X116531114Y-157855171D02*
X116483495Y-157902790D01*
X116483495Y-157902790D02*
X116435876Y-157998028D01*
X116435876Y-157998028D02*
X116435876Y-158283742D01*
X116435876Y-158283742D02*
X116483495Y-158378980D01*
X116483495Y-158378980D02*
X116531114Y-158426600D01*
X116531114Y-158426600D02*
X116626352Y-158474219D01*
X116626352Y-158474219D02*
X116816828Y-158474219D01*
X116816828Y-158474219D02*
X116912066Y-158426600D01*
X116150161Y-157807552D02*
X115769209Y-157807552D01*
X116007304Y-157474219D02*
X116007304Y-158331361D01*
X116007304Y-158331361D02*
X115959685Y-158426600D01*
X115959685Y-158426600D02*
X115864447Y-158474219D01*
X115864447Y-158474219D02*
X115769209Y-158474219D01*
X115435875Y-158474219D02*
X115435875Y-157807552D01*
X115435875Y-157474219D02*
X115483494Y-157521838D01*
X115483494Y-157521838D02*
X115435875Y-157569457D01*
X115435875Y-157569457D02*
X115388256Y-157521838D01*
X115388256Y-157521838D02*
X115435875Y-157474219D01*
X115435875Y-157474219D02*
X115435875Y-157569457D01*
X114816828Y-158474219D02*
X114912066Y-158426600D01*
X114912066Y-158426600D02*
X114959685Y-158378980D01*
X114959685Y-158378980D02*
X115007304Y-158283742D01*
X115007304Y-158283742D02*
X115007304Y-157998028D01*
X115007304Y-157998028D02*
X114959685Y-157902790D01*
X114959685Y-157902790D02*
X114912066Y-157855171D01*
X114912066Y-157855171D02*
X114816828Y-157807552D01*
X114816828Y-157807552D02*
X114673971Y-157807552D01*
X114673971Y-157807552D02*
X114578733Y-157855171D01*
X114578733Y-157855171D02*
X114531114Y-157902790D01*
X114531114Y-157902790D02*
X114483495Y-157998028D01*
X114483495Y-157998028D02*
X114483495Y-158283742D01*
X114483495Y-158283742D02*
X114531114Y-158378980D01*
X114531114Y-158378980D02*
X114578733Y-158426600D01*
X114578733Y-158426600D02*
X114673971Y-158474219D01*
X114673971Y-158474219D02*
X114816828Y-158474219D01*
X114054923Y-157807552D02*
X114054923Y-158474219D01*
X114054923Y-157902790D02*
X114007304Y-157855171D01*
X114007304Y-157855171D02*
X113912066Y-157807552D01*
X113912066Y-157807552D02*
X113769209Y-157807552D01*
X113769209Y-157807552D02*
X113673971Y-157855171D01*
X113673971Y-157855171D02*
X113626352Y-157950409D01*
X113626352Y-157950409D02*
X113626352Y-158474219D01*
X112721590Y-158474219D02*
X112721590Y-157950409D01*
X112721590Y-157950409D02*
X112769209Y-157855171D01*
X112769209Y-157855171D02*
X112864447Y-157807552D01*
X112864447Y-157807552D02*
X113054923Y-157807552D01*
X113054923Y-157807552D02*
X113150161Y-157855171D01*
X112721590Y-158426600D02*
X112816828Y-158474219D01*
X112816828Y-158474219D02*
X113054923Y-158474219D01*
X113054923Y-158474219D02*
X113150161Y-158426600D01*
X113150161Y-158426600D02*
X113197780Y-158331361D01*
X113197780Y-158331361D02*
X113197780Y-158236123D01*
X113197780Y-158236123D02*
X113150161Y-158140885D01*
X113150161Y-158140885D02*
X113054923Y-158093266D01*
X113054923Y-158093266D02*
X112816828Y-158093266D01*
X112816828Y-158093266D02*
X112721590Y-158045647D01*
X112102542Y-158474219D02*
X112197780Y-158426600D01*
X112197780Y-158426600D02*
X112245399Y-158331361D01*
X112245399Y-158331361D02*
X112245399Y-157474219D01*
X111816827Y-158855171D02*
X111769208Y-158807552D01*
X111769208Y-158807552D02*
X111673970Y-158664695D01*
X111673970Y-158664695D02*
X111626351Y-158569457D01*
X111626351Y-158569457D02*
X111578732Y-158426600D01*
X111578732Y-158426600D02*
X111531113Y-158188504D01*
X111531113Y-158188504D02*
X111531113Y-157998028D01*
X111531113Y-157998028D02*
X111578732Y-157759933D01*
X111578732Y-157759933D02*
X111626351Y-157617076D01*
X111626351Y-157617076D02*
X111673970Y-157521838D01*
X111673970Y-157521838D02*
X111769208Y-157378980D01*
X111769208Y-157378980D02*
X111816827Y-157331361D01*
X166461352Y-49464219D02*
X166128019Y-50464219D01*
X166128019Y-50464219D02*
X165794686Y-49464219D01*
X165508971Y-50416600D02*
X165366114Y-50464219D01*
X165366114Y-50464219D02*
X165128019Y-50464219D01*
X165128019Y-50464219D02*
X165032781Y-50416600D01*
X165032781Y-50416600D02*
X164985162Y-50368980D01*
X164985162Y-50368980D02*
X164937543Y-50273742D01*
X164937543Y-50273742D02*
X164937543Y-50178504D01*
X164937543Y-50178504D02*
X164985162Y-50083266D01*
X164985162Y-50083266D02*
X165032781Y-50035647D01*
X165032781Y-50035647D02*
X165128019Y-49988028D01*
X165128019Y-49988028D02*
X165318495Y-49940409D01*
X165318495Y-49940409D02*
X165413733Y-49892790D01*
X165413733Y-49892790D02*
X165461352Y-49845171D01*
X165461352Y-49845171D02*
X165508971Y-49749933D01*
X165508971Y-49749933D02*
X165508971Y-49654695D01*
X165508971Y-49654695D02*
X165461352Y-49559457D01*
X165461352Y-49559457D02*
X165413733Y-49511838D01*
X165413733Y-49511838D02*
X165318495Y-49464219D01*
X165318495Y-49464219D02*
X165080400Y-49464219D01*
X165080400Y-49464219D02*
X164937543Y-49511838D01*
X164556590Y-50416600D02*
X164413733Y-50464219D01*
X164413733Y-50464219D02*
X164175638Y-50464219D01*
X164175638Y-50464219D02*
X164080400Y-50416600D01*
X164080400Y-50416600D02*
X164032781Y-50368980D01*
X164032781Y-50368980D02*
X163985162Y-50273742D01*
X163985162Y-50273742D02*
X163985162Y-50178504D01*
X163985162Y-50178504D02*
X164032781Y-50083266D01*
X164032781Y-50083266D02*
X164080400Y-50035647D01*
X164080400Y-50035647D02*
X164175638Y-49988028D01*
X164175638Y-49988028D02*
X164366114Y-49940409D01*
X164366114Y-49940409D02*
X164461352Y-49892790D01*
X164461352Y-49892790D02*
X164508971Y-49845171D01*
X164508971Y-49845171D02*
X164556590Y-49749933D01*
X164556590Y-49749933D02*
X164556590Y-49654695D01*
X164556590Y-49654695D02*
X164508971Y-49559457D01*
X164508971Y-49559457D02*
X164461352Y-49511838D01*
X164461352Y-49511838D02*
X164366114Y-49464219D01*
X164366114Y-49464219D02*
X164128019Y-49464219D01*
X164128019Y-49464219D02*
X163985162Y-49511838D01*
X180057602Y-72064219D02*
X179724269Y-73064219D01*
X179724269Y-73064219D02*
X179390936Y-72064219D01*
X179105221Y-73016600D02*
X178962364Y-73064219D01*
X178962364Y-73064219D02*
X178724269Y-73064219D01*
X178724269Y-73064219D02*
X178629031Y-73016600D01*
X178629031Y-73016600D02*
X178581412Y-72968980D01*
X178581412Y-72968980D02*
X178533793Y-72873742D01*
X178533793Y-72873742D02*
X178533793Y-72778504D01*
X178533793Y-72778504D02*
X178581412Y-72683266D01*
X178581412Y-72683266D02*
X178629031Y-72635647D01*
X178629031Y-72635647D02*
X178724269Y-72588028D01*
X178724269Y-72588028D02*
X178914745Y-72540409D01*
X178914745Y-72540409D02*
X179009983Y-72492790D01*
X179009983Y-72492790D02*
X179057602Y-72445171D01*
X179057602Y-72445171D02*
X179105221Y-72349933D01*
X179105221Y-72349933D02*
X179105221Y-72254695D01*
X179105221Y-72254695D02*
X179057602Y-72159457D01*
X179057602Y-72159457D02*
X179009983Y-72111838D01*
X179009983Y-72111838D02*
X178914745Y-72064219D01*
X178914745Y-72064219D02*
X178676650Y-72064219D01*
X178676650Y-72064219D02*
X178533793Y-72111838D01*
X178152840Y-73016600D02*
X178009983Y-73064219D01*
X178009983Y-73064219D02*
X177771888Y-73064219D01*
X177771888Y-73064219D02*
X177676650Y-73016600D01*
X177676650Y-73016600D02*
X177629031Y-72968980D01*
X177629031Y-72968980D02*
X177581412Y-72873742D01*
X177581412Y-72873742D02*
X177581412Y-72778504D01*
X177581412Y-72778504D02*
X177629031Y-72683266D01*
X177629031Y-72683266D02*
X177676650Y-72635647D01*
X177676650Y-72635647D02*
X177771888Y-72588028D01*
X177771888Y-72588028D02*
X177962364Y-72540409D01*
X177962364Y-72540409D02*
X178057602Y-72492790D01*
X178057602Y-72492790D02*
X178105221Y-72445171D01*
X178105221Y-72445171D02*
X178152840Y-72349933D01*
X178152840Y-72349933D02*
X178152840Y-72254695D01*
X178152840Y-72254695D02*
X178105221Y-72159457D01*
X178105221Y-72159457D02*
X178057602Y-72111838D01*
X178057602Y-72111838D02*
X177962364Y-72064219D01*
X177962364Y-72064219D02*
X177724269Y-72064219D01*
X177724269Y-72064219D02*
X177581412Y-72111838D01*
X164298495Y-66603266D02*
X163536591Y-66603266D01*
X163917543Y-66984219D02*
X163917543Y-66222314D01*
X162584210Y-65984219D02*
X163060400Y-65984219D01*
X163060400Y-65984219D02*
X163108019Y-66460409D01*
X163108019Y-66460409D02*
X163060400Y-66412790D01*
X163060400Y-66412790D02*
X162965162Y-66365171D01*
X162965162Y-66365171D02*
X162727067Y-66365171D01*
X162727067Y-66365171D02*
X162631829Y-66412790D01*
X162631829Y-66412790D02*
X162584210Y-66460409D01*
X162584210Y-66460409D02*
X162536591Y-66555647D01*
X162536591Y-66555647D02*
X162536591Y-66793742D01*
X162536591Y-66793742D02*
X162584210Y-66888980D01*
X162584210Y-66888980D02*
X162631829Y-66936600D01*
X162631829Y-66936600D02*
X162727067Y-66984219D01*
X162727067Y-66984219D02*
X162965162Y-66984219D01*
X162965162Y-66984219D02*
X163060400Y-66936600D01*
X163060400Y-66936600D02*
X163108019Y-66888980D01*
X162250876Y-65984219D02*
X161917543Y-66984219D01*
X161917543Y-66984219D02*
X161584210Y-65984219D01*
X79962305Y-147374219D02*
X80438495Y-147374219D01*
X80438495Y-147374219D02*
X80438495Y-146374219D01*
X79628971Y-146850409D02*
X79295638Y-146850409D01*
X79152781Y-147374219D02*
X79628971Y-147374219D01*
X79628971Y-147374219D02*
X79628971Y-146374219D01*
X79628971Y-146374219D02*
X79152781Y-146374219D01*
X78724209Y-147374219D02*
X78724209Y-146374219D01*
X78724209Y-146374219D02*
X78486114Y-146374219D01*
X78486114Y-146374219D02*
X78343257Y-146421838D01*
X78343257Y-146421838D02*
X78248019Y-146517076D01*
X78248019Y-146517076D02*
X78200400Y-146612314D01*
X78200400Y-146612314D02*
X78152781Y-146802790D01*
X78152781Y-146802790D02*
X78152781Y-146945647D01*
X78152781Y-146945647D02*
X78200400Y-147136123D01*
X78200400Y-147136123D02*
X78248019Y-147231361D01*
X78248019Y-147231361D02*
X78343257Y-147326600D01*
X78343257Y-147326600D02*
X78486114Y-147374219D01*
X78486114Y-147374219D02*
X78724209Y-147374219D01*
X76533733Y-147374219D02*
X76533733Y-146374219D01*
X76533733Y-147326600D02*
X76628971Y-147374219D01*
X76628971Y-147374219D02*
X76819447Y-147374219D01*
X76819447Y-147374219D02*
X76914685Y-147326600D01*
X76914685Y-147326600D02*
X76962304Y-147278980D01*
X76962304Y-147278980D02*
X77009923Y-147183742D01*
X77009923Y-147183742D02*
X77009923Y-146898028D01*
X77009923Y-146898028D02*
X76962304Y-146802790D01*
X76962304Y-146802790D02*
X76914685Y-146755171D01*
X76914685Y-146755171D02*
X76819447Y-146707552D01*
X76819447Y-146707552D02*
X76628971Y-146707552D01*
X76628971Y-146707552D02*
X76533733Y-146755171D01*
X75628971Y-147374219D02*
X75628971Y-146850409D01*
X75628971Y-146850409D02*
X75676590Y-146755171D01*
X75676590Y-146755171D02*
X75771828Y-146707552D01*
X75771828Y-146707552D02*
X75962304Y-146707552D01*
X75962304Y-146707552D02*
X76057542Y-146755171D01*
X75628971Y-147326600D02*
X75724209Y-147374219D01*
X75724209Y-147374219D02*
X75962304Y-147374219D01*
X75962304Y-147374219D02*
X76057542Y-147326600D01*
X76057542Y-147326600D02*
X76105161Y-147231361D01*
X76105161Y-147231361D02*
X76105161Y-147136123D01*
X76105161Y-147136123D02*
X76057542Y-147040885D01*
X76057542Y-147040885D02*
X75962304Y-146993266D01*
X75962304Y-146993266D02*
X75724209Y-146993266D01*
X75724209Y-146993266D02*
X75628971Y-146945647D01*
X75295637Y-146707552D02*
X74914685Y-146707552D01*
X75152780Y-146374219D02*
X75152780Y-147231361D01*
X75152780Y-147231361D02*
X75105161Y-147326600D01*
X75105161Y-147326600D02*
X75009923Y-147374219D01*
X75009923Y-147374219D02*
X74914685Y-147374219D01*
X74152780Y-147374219D02*
X74152780Y-146850409D01*
X74152780Y-146850409D02*
X74200399Y-146755171D01*
X74200399Y-146755171D02*
X74295637Y-146707552D01*
X74295637Y-146707552D02*
X74486113Y-146707552D01*
X74486113Y-146707552D02*
X74581351Y-146755171D01*
X74152780Y-147326600D02*
X74248018Y-147374219D01*
X74248018Y-147374219D02*
X74486113Y-147374219D01*
X74486113Y-147374219D02*
X74581351Y-147326600D01*
X74581351Y-147326600D02*
X74628970Y-147231361D01*
X74628970Y-147231361D02*
X74628970Y-147136123D01*
X74628970Y-147136123D02*
X74581351Y-147040885D01*
X74581351Y-147040885D02*
X74486113Y-146993266D01*
X74486113Y-146993266D02*
X74248018Y-146993266D01*
X74248018Y-146993266D02*
X74152780Y-146945647D01*
X92815995Y-154179275D02*
X92815995Y-153179275D01*
X92815995Y-153560227D02*
X92720757Y-153512608D01*
X92720757Y-153512608D02*
X92530281Y-153512608D01*
X92530281Y-153512608D02*
X92435043Y-153560227D01*
X92435043Y-153560227D02*
X92387424Y-153607846D01*
X92387424Y-153607846D02*
X92339805Y-153703084D01*
X92339805Y-153703084D02*
X92339805Y-153988798D01*
X92339805Y-153988798D02*
X92387424Y-154084036D01*
X92387424Y-154084036D02*
X92435043Y-154131656D01*
X92435043Y-154131656D02*
X92530281Y-154179275D01*
X92530281Y-154179275D02*
X92720757Y-154179275D01*
X92720757Y-154179275D02*
X92815995Y-154131656D01*
X92006471Y-153512608D02*
X91768376Y-154179275D01*
X91530281Y-153512608D02*
X91768376Y-154179275D01*
X91768376Y-154179275D02*
X91863614Y-154417370D01*
X91863614Y-154417370D02*
X91911233Y-154464989D01*
X91911233Y-154464989D02*
X92006471Y-154512608D01*
X91149328Y-153512608D02*
X91149328Y-154512608D01*
X91149328Y-153560227D02*
X91054090Y-153512608D01*
X91054090Y-153512608D02*
X90863614Y-153512608D01*
X90863614Y-153512608D02*
X90768376Y-153560227D01*
X90768376Y-153560227D02*
X90720757Y-153607846D01*
X90720757Y-153607846D02*
X90673138Y-153703084D01*
X90673138Y-153703084D02*
X90673138Y-153988798D01*
X90673138Y-153988798D02*
X90720757Y-154084036D01*
X90720757Y-154084036D02*
X90768376Y-154131656D01*
X90768376Y-154131656D02*
X90863614Y-154179275D01*
X90863614Y-154179275D02*
X91054090Y-154179275D01*
X91054090Y-154179275D02*
X91149328Y-154131656D01*
X89815995Y-154179275D02*
X89815995Y-153655465D01*
X89815995Y-153655465D02*
X89863614Y-153560227D01*
X89863614Y-153560227D02*
X89958852Y-153512608D01*
X89958852Y-153512608D02*
X90149328Y-153512608D01*
X90149328Y-153512608D02*
X90244566Y-153560227D01*
X89815995Y-154131656D02*
X89911233Y-154179275D01*
X89911233Y-154179275D02*
X90149328Y-154179275D01*
X90149328Y-154179275D02*
X90244566Y-154131656D01*
X90244566Y-154131656D02*
X90292185Y-154036417D01*
X90292185Y-154036417D02*
X90292185Y-153941179D01*
X90292185Y-153941179D02*
X90244566Y-153845941D01*
X90244566Y-153845941D02*
X90149328Y-153798322D01*
X90149328Y-153798322D02*
X89911233Y-153798322D01*
X89911233Y-153798322D02*
X89815995Y-153750703D01*
X89387423Y-154131656D02*
X89292185Y-154179275D01*
X89292185Y-154179275D02*
X89101709Y-154179275D01*
X89101709Y-154179275D02*
X89006471Y-154131656D01*
X89006471Y-154131656D02*
X88958852Y-154036417D01*
X88958852Y-154036417D02*
X88958852Y-153988798D01*
X88958852Y-153988798D02*
X89006471Y-153893560D01*
X89006471Y-153893560D02*
X89101709Y-153845941D01*
X89101709Y-153845941D02*
X89244566Y-153845941D01*
X89244566Y-153845941D02*
X89339804Y-153798322D01*
X89339804Y-153798322D02*
X89387423Y-153703084D01*
X89387423Y-153703084D02*
X89387423Y-153655465D01*
X89387423Y-153655465D02*
X89339804Y-153560227D01*
X89339804Y-153560227D02*
X89244566Y-153512608D01*
X89244566Y-153512608D02*
X89101709Y-153512608D01*
X89101709Y-153512608D02*
X89006471Y-153560227D01*
X88577899Y-154131656D02*
X88482661Y-154179275D01*
X88482661Y-154179275D02*
X88292185Y-154179275D01*
X88292185Y-154179275D02*
X88196947Y-154131656D01*
X88196947Y-154131656D02*
X88149328Y-154036417D01*
X88149328Y-154036417D02*
X88149328Y-153988798D01*
X88149328Y-153988798D02*
X88196947Y-153893560D01*
X88196947Y-153893560D02*
X88292185Y-153845941D01*
X88292185Y-153845941D02*
X88435042Y-153845941D01*
X88435042Y-153845941D02*
X88530280Y-153798322D01*
X88530280Y-153798322D02*
X88577899Y-153703084D01*
X88577899Y-153703084D02*
X88577899Y-153655465D01*
X88577899Y-153655465D02*
X88530280Y-153560227D01*
X88530280Y-153560227D02*
X88435042Y-153512608D01*
X88435042Y-153512608D02*
X88292185Y-153512608D01*
X88292185Y-153512608D02*
X88196947Y-153560227D01*
X92673138Y-155789219D02*
X92768376Y-155741600D01*
X92768376Y-155741600D02*
X92815995Y-155646361D01*
X92815995Y-155646361D02*
X92815995Y-154789219D01*
X91911233Y-155741600D02*
X92006471Y-155789219D01*
X92006471Y-155789219D02*
X92196947Y-155789219D01*
X92196947Y-155789219D02*
X92292185Y-155741600D01*
X92292185Y-155741600D02*
X92339804Y-155646361D01*
X92339804Y-155646361D02*
X92339804Y-155265409D01*
X92339804Y-155265409D02*
X92292185Y-155170171D01*
X92292185Y-155170171D02*
X92196947Y-155122552D01*
X92196947Y-155122552D02*
X92006471Y-155122552D01*
X92006471Y-155122552D02*
X91911233Y-155170171D01*
X91911233Y-155170171D02*
X91863614Y-155265409D01*
X91863614Y-155265409D02*
X91863614Y-155360647D01*
X91863614Y-155360647D02*
X92339804Y-155455885D01*
X91006471Y-155789219D02*
X91006471Y-154789219D01*
X91006471Y-155741600D02*
X91101709Y-155789219D01*
X91101709Y-155789219D02*
X91292185Y-155789219D01*
X91292185Y-155789219D02*
X91387423Y-155741600D01*
X91387423Y-155741600D02*
X91435042Y-155693980D01*
X91435042Y-155693980D02*
X91482661Y-155598742D01*
X91482661Y-155598742D02*
X91482661Y-155313028D01*
X91482661Y-155313028D02*
X91435042Y-155217790D01*
X91435042Y-155217790D02*
X91387423Y-155170171D01*
X91387423Y-155170171D02*
X91292185Y-155122552D01*
X91292185Y-155122552D02*
X91101709Y-155122552D01*
X91101709Y-155122552D02*
X91006471Y-155170171D01*
X89815994Y-155741600D02*
X89720756Y-155789219D01*
X89720756Y-155789219D02*
X89530280Y-155789219D01*
X89530280Y-155789219D02*
X89435042Y-155741600D01*
X89435042Y-155741600D02*
X89387423Y-155646361D01*
X89387423Y-155646361D02*
X89387423Y-155598742D01*
X89387423Y-155598742D02*
X89435042Y-155503504D01*
X89435042Y-155503504D02*
X89530280Y-155455885D01*
X89530280Y-155455885D02*
X89673137Y-155455885D01*
X89673137Y-155455885D02*
X89768375Y-155408266D01*
X89768375Y-155408266D02*
X89815994Y-155313028D01*
X89815994Y-155313028D02*
X89815994Y-155265409D01*
X89815994Y-155265409D02*
X89768375Y-155170171D01*
X89768375Y-155170171D02*
X89673137Y-155122552D01*
X89673137Y-155122552D02*
X89530280Y-155122552D01*
X89530280Y-155122552D02*
X89435042Y-155170171D01*
X88958851Y-155789219D02*
X88958851Y-154789219D01*
X88530280Y-155789219D02*
X88530280Y-155265409D01*
X88530280Y-155265409D02*
X88577899Y-155170171D01*
X88577899Y-155170171D02*
X88673137Y-155122552D01*
X88673137Y-155122552D02*
X88815994Y-155122552D01*
X88815994Y-155122552D02*
X88911232Y-155170171D01*
X88911232Y-155170171D02*
X88958851Y-155217790D01*
X88054089Y-155789219D02*
X88054089Y-155122552D01*
X88054089Y-154789219D02*
X88101708Y-154836838D01*
X88101708Y-154836838D02*
X88054089Y-154884457D01*
X88054089Y-154884457D02*
X88006470Y-154836838D01*
X88006470Y-154836838D02*
X88054089Y-154789219D01*
X88054089Y-154789219D02*
X88054089Y-154884457D01*
X87720756Y-155122552D02*
X87339804Y-155122552D01*
X87577899Y-155789219D02*
X87577899Y-154932076D01*
X87577899Y-154932076D02*
X87530280Y-154836838D01*
X87530280Y-154836838D02*
X87435042Y-154789219D01*
X87435042Y-154789219D02*
X87339804Y-154789219D01*
X87149327Y-155122552D02*
X86768375Y-155122552D01*
X87006470Y-154789219D02*
X87006470Y-155646361D01*
X87006470Y-155646361D02*
X86958851Y-155741600D01*
X86958851Y-155741600D02*
X86863613Y-155789219D01*
X86863613Y-155789219D02*
X86768375Y-155789219D01*
X86054089Y-155741600D02*
X86149327Y-155789219D01*
X86149327Y-155789219D02*
X86339803Y-155789219D01*
X86339803Y-155789219D02*
X86435041Y-155741600D01*
X86435041Y-155741600D02*
X86482660Y-155646361D01*
X86482660Y-155646361D02*
X86482660Y-155265409D01*
X86482660Y-155265409D02*
X86435041Y-155170171D01*
X86435041Y-155170171D02*
X86339803Y-155122552D01*
X86339803Y-155122552D02*
X86149327Y-155122552D01*
X86149327Y-155122552D02*
X86054089Y-155170171D01*
X86054089Y-155170171D02*
X86006470Y-155265409D01*
X86006470Y-155265409D02*
X86006470Y-155360647D01*
X86006470Y-155360647D02*
X86482660Y-155455885D01*
X85577898Y-155789219D02*
X85577898Y-155122552D01*
X85577898Y-155313028D02*
X85530279Y-155217790D01*
X85530279Y-155217790D02*
X85482660Y-155170171D01*
X85482660Y-155170171D02*
X85387422Y-155122552D01*
X85387422Y-155122552D02*
X85292184Y-155122552D01*
X118180513Y-38010527D02*
X117434980Y-38167622D01*
X117886294Y-38461841D02*
X117729199Y-37716308D01*
X116375424Y-37758245D02*
X116841382Y-37660060D01*
X116841382Y-37660060D02*
X116986162Y-38116200D01*
X116986162Y-38116200D02*
X116929748Y-38079423D01*
X116929748Y-38079423D02*
X116826738Y-38052464D01*
X116826738Y-38052464D02*
X116593759Y-38101556D01*
X116593759Y-38101556D02*
X116510386Y-38167789D01*
X116510386Y-38167789D02*
X116473608Y-38224203D01*
X116473608Y-38224203D02*
X116446649Y-38327213D01*
X116446649Y-38327213D02*
X116495741Y-38560192D01*
X116495741Y-38560192D02*
X116561974Y-38643565D01*
X116561974Y-38643565D02*
X116618388Y-38680343D01*
X116618388Y-38680343D02*
X116721398Y-38707302D01*
X116721398Y-38707302D02*
X116954378Y-38658210D01*
X116954378Y-38658210D02*
X117037751Y-38591977D01*
X117037751Y-38591977D02*
X117074528Y-38535563D01*
X116049253Y-37826974D02*
X115929269Y-38874215D01*
X115929269Y-38874215D02*
X115396911Y-37964432D01*
X150634686Y-66041838D02*
X150729924Y-65994219D01*
X150729924Y-65994219D02*
X150872781Y-65994219D01*
X150872781Y-65994219D02*
X151015638Y-66041838D01*
X151015638Y-66041838D02*
X151110876Y-66137076D01*
X151110876Y-66137076D02*
X151158495Y-66232314D01*
X151158495Y-66232314D02*
X151206114Y-66422790D01*
X151206114Y-66422790D02*
X151206114Y-66565647D01*
X151206114Y-66565647D02*
X151158495Y-66756123D01*
X151158495Y-66756123D02*
X151110876Y-66851361D01*
X151110876Y-66851361D02*
X151015638Y-66946600D01*
X151015638Y-66946600D02*
X150872781Y-66994219D01*
X150872781Y-66994219D02*
X150777543Y-66994219D01*
X150777543Y-66994219D02*
X150634686Y-66946600D01*
X150634686Y-66946600D02*
X150587067Y-66898980D01*
X150587067Y-66898980D02*
X150587067Y-66565647D01*
X150587067Y-66565647D02*
X150777543Y-66565647D01*
X150158495Y-66994219D02*
X150158495Y-65994219D01*
X150158495Y-65994219D02*
X149587067Y-66994219D01*
X149587067Y-66994219D02*
X149587067Y-65994219D01*
X149110876Y-66994219D02*
X149110876Y-65994219D01*
X149110876Y-65994219D02*
X148872781Y-65994219D01*
X148872781Y-65994219D02*
X148729924Y-66041838D01*
X148729924Y-66041838D02*
X148634686Y-66137076D01*
X148634686Y-66137076D02*
X148587067Y-66232314D01*
X148587067Y-66232314D02*
X148539448Y-66422790D01*
X148539448Y-66422790D02*
X148539448Y-66565647D01*
X148539448Y-66565647D02*
X148587067Y-66756123D01*
X148587067Y-66756123D02*
X148634686Y-66851361D01*
X148634686Y-66851361D02*
X148729924Y-66946600D01*
X148729924Y-66946600D02*
X148872781Y-66994219D01*
X148872781Y-66994219D02*
X149110876Y-66994219D01*
X111543495Y-161104219D02*
X111543495Y-160104219D01*
X111543495Y-160580409D02*
X110972067Y-160580409D01*
X110972067Y-161104219D02*
X110972067Y-160104219D01*
X110495876Y-161104219D02*
X110495876Y-160104219D01*
X109495877Y-160151838D02*
X109591115Y-160104219D01*
X109591115Y-160104219D02*
X109733972Y-160104219D01*
X109733972Y-160104219D02*
X109876829Y-160151838D01*
X109876829Y-160151838D02*
X109972067Y-160247076D01*
X109972067Y-160247076D02*
X110019686Y-160342314D01*
X110019686Y-160342314D02*
X110067305Y-160532790D01*
X110067305Y-160532790D02*
X110067305Y-160675647D01*
X110067305Y-160675647D02*
X110019686Y-160866123D01*
X110019686Y-160866123D02*
X109972067Y-160961361D01*
X109972067Y-160961361D02*
X109876829Y-161056600D01*
X109876829Y-161056600D02*
X109733972Y-161104219D01*
X109733972Y-161104219D02*
X109638734Y-161104219D01*
X109638734Y-161104219D02*
X109495877Y-161056600D01*
X109495877Y-161056600D02*
X109448258Y-161008980D01*
X109448258Y-161008980D02*
X109448258Y-160675647D01*
X109448258Y-160675647D02*
X109638734Y-160675647D01*
X109019686Y-161104219D02*
X109019686Y-160104219D01*
X109019686Y-160580409D02*
X108448258Y-160580409D01*
X108448258Y-161104219D02*
X108448258Y-160104219D01*
X108114924Y-160104219D02*
X107543496Y-160104219D01*
X107829210Y-161104219D02*
X107829210Y-160104219D01*
X138821819Y-33308296D02*
X138495648Y-33239567D01*
X138247858Y-33722665D02*
X138713816Y-33820850D01*
X138713816Y-33820850D02*
X138920003Y-32842337D01*
X138920003Y-32842337D02*
X138454045Y-32744153D01*
X137610327Y-33053016D02*
X137460721Y-33070157D01*
X137460721Y-33070157D02*
X137404307Y-33106934D01*
X137404307Y-33106934D02*
X137338074Y-33190307D01*
X137338074Y-33190307D02*
X137308619Y-33330095D01*
X137308619Y-33330095D02*
X137335578Y-33433105D01*
X137335578Y-33433105D02*
X137372355Y-33489519D01*
X137372355Y-33489519D02*
X137455729Y-33555752D01*
X137455729Y-33555752D02*
X137828495Y-33634300D01*
X137828495Y-33634300D02*
X138034682Y-32655787D01*
X138034682Y-32655787D02*
X137708512Y-32587058D01*
X137708512Y-32587058D02*
X137605501Y-32614017D01*
X137605501Y-32614017D02*
X137549087Y-32650794D01*
X137549087Y-32650794D02*
X137482854Y-32734168D01*
X137482854Y-32734168D02*
X137463218Y-32827359D01*
X137463218Y-32827359D02*
X137490177Y-32930369D01*
X137490177Y-32930369D02*
X137526954Y-32986784D01*
X137526954Y-32986784D02*
X137610327Y-33053016D01*
X137610327Y-33053016D02*
X137936498Y-33121745D01*
X125304666Y-31053029D02*
X125729021Y-30655799D01*
X125863816Y-31170850D02*
X126070003Y-30192337D01*
X126070003Y-30192337D02*
X125697237Y-30113790D01*
X125697237Y-30113790D02*
X125594227Y-30140749D01*
X125594227Y-30140749D02*
X125537812Y-30177526D01*
X125537812Y-30177526D02*
X125471580Y-30260899D01*
X125471580Y-30260899D02*
X125442124Y-30400687D01*
X125442124Y-30400687D02*
X125469083Y-30503697D01*
X125469083Y-30503697D02*
X125505861Y-30560111D01*
X125505861Y-30560111D02*
X125589234Y-30626344D01*
X125589234Y-30626344D02*
X125962001Y-30704891D01*
X124905107Y-29946876D02*
X124718724Y-29907603D01*
X124718724Y-29907603D02*
X124615714Y-29934562D01*
X124615714Y-29934562D02*
X124502885Y-30008116D01*
X124502885Y-30008116D02*
X124417016Y-30184681D01*
X124417016Y-30184681D02*
X124348287Y-30510852D01*
X124348287Y-30510852D02*
X124355609Y-30707054D01*
X124355609Y-30707054D02*
X124429164Y-30819883D01*
X124429164Y-30819883D02*
X124512537Y-30886115D01*
X124512537Y-30886115D02*
X124698920Y-30925389D01*
X124698920Y-30925389D02*
X124801930Y-30898430D01*
X124801930Y-30898430D02*
X124914759Y-30824875D01*
X124914759Y-30824875D02*
X125000629Y-30648310D01*
X125000629Y-30648310D02*
X125069358Y-30322139D01*
X125069358Y-30322139D02*
X125062036Y-30125938D01*
X125062036Y-30125938D02*
X124988481Y-30013109D01*
X124988481Y-30013109D02*
X124905107Y-29946876D01*
X124159574Y-29789781D02*
X123720408Y-30719202D01*
X123720408Y-30719202D02*
X123681301Y-29980991D01*
X123681301Y-29980991D02*
X123347641Y-30640654D01*
X123347641Y-30640654D02*
X123320849Y-29613050D01*
X122761699Y-29495228D02*
X122668507Y-29475592D01*
X122668507Y-29475592D02*
X122565497Y-29502551D01*
X122565497Y-29502551D02*
X122509083Y-29539328D01*
X122509083Y-29539328D02*
X122442850Y-29622701D01*
X122442850Y-29622701D02*
X122356981Y-29799266D01*
X122356981Y-29799266D02*
X122307889Y-30032245D01*
X122307889Y-30032245D02*
X122315211Y-30228447D01*
X122315211Y-30228447D02*
X122342170Y-30331457D01*
X122342170Y-30331457D02*
X122378947Y-30387871D01*
X122378947Y-30387871D02*
X122462320Y-30454104D01*
X122462320Y-30454104D02*
X122555512Y-30473741D01*
X122555512Y-30473741D02*
X122658522Y-30446782D01*
X122658522Y-30446782D02*
X122714936Y-30410005D01*
X122714936Y-30410005D02*
X122781169Y-30326631D01*
X122781169Y-30326631D02*
X122867039Y-30150067D01*
X122867039Y-30150067D02*
X122916131Y-29917087D01*
X122916131Y-29917087D02*
X122908809Y-29720886D01*
X122908809Y-29720886D02*
X122881850Y-29617875D01*
X122881850Y-29617875D02*
X122845072Y-29561461D01*
X122845072Y-29561461D02*
X122761699Y-29495228D01*
X114570138Y-29639380D02*
X114653511Y-29573147D01*
X114653511Y-29573147D02*
X114793299Y-29543692D01*
X114793299Y-29543692D02*
X114942905Y-29560832D01*
X114942905Y-29560832D02*
X115055733Y-29634387D01*
X115055733Y-29634387D02*
X115121966Y-29717760D01*
X115121966Y-29717760D02*
X115207835Y-29894325D01*
X115207835Y-29894325D02*
X115237291Y-30034113D01*
X115237291Y-30034113D02*
X115229969Y-30230314D01*
X115229969Y-30230314D02*
X115203010Y-30333324D01*
X115203010Y-30333324D02*
X115129455Y-30446153D01*
X115129455Y-30446153D02*
X114999486Y-30522204D01*
X114999486Y-30522204D02*
X114906294Y-30541841D01*
X114906294Y-30541841D02*
X114756688Y-30524700D01*
X114756688Y-30524700D02*
X114700274Y-30487923D01*
X114700274Y-30487923D02*
X114631545Y-30161752D01*
X114631545Y-30161752D02*
X114817928Y-30122478D01*
X114300548Y-30669481D02*
X114094361Y-29690968D01*
X114094361Y-29690968D02*
X113741398Y-30787302D01*
X113741398Y-30787302D02*
X113535211Y-29808789D01*
X113275440Y-30885486D02*
X113069253Y-29906974D01*
X113069253Y-29906974D02*
X112836274Y-29956066D01*
X112836274Y-29956066D02*
X112706305Y-30032117D01*
X112706305Y-30032117D02*
X112632750Y-30144945D01*
X112632750Y-30144945D02*
X112605791Y-30247956D01*
X112605791Y-30247956D02*
X112598469Y-30444157D01*
X112598469Y-30444157D02*
X112627924Y-30583945D01*
X112627924Y-30583945D02*
X112713794Y-30760510D01*
X112713794Y-30760510D02*
X112780026Y-30843883D01*
X112780026Y-30843883D02*
X112892855Y-30917438D01*
X112892855Y-30917438D02*
X113042461Y-30934578D01*
X113042461Y-30934578D02*
X113275440Y-30885486D01*
X166976352Y-85304219D02*
X166643019Y-86304219D01*
X166643019Y-86304219D02*
X166309686Y-85304219D01*
X166023971Y-86256600D02*
X165881114Y-86304219D01*
X165881114Y-86304219D02*
X165643019Y-86304219D01*
X165643019Y-86304219D02*
X165547781Y-86256600D01*
X165547781Y-86256600D02*
X165500162Y-86208980D01*
X165500162Y-86208980D02*
X165452543Y-86113742D01*
X165452543Y-86113742D02*
X165452543Y-86018504D01*
X165452543Y-86018504D02*
X165500162Y-85923266D01*
X165500162Y-85923266D02*
X165547781Y-85875647D01*
X165547781Y-85875647D02*
X165643019Y-85828028D01*
X165643019Y-85828028D02*
X165833495Y-85780409D01*
X165833495Y-85780409D02*
X165928733Y-85732790D01*
X165928733Y-85732790D02*
X165976352Y-85685171D01*
X165976352Y-85685171D02*
X166023971Y-85589933D01*
X166023971Y-85589933D02*
X166023971Y-85494695D01*
X166023971Y-85494695D02*
X165976352Y-85399457D01*
X165976352Y-85399457D02*
X165928733Y-85351838D01*
X165928733Y-85351838D02*
X165833495Y-85304219D01*
X165833495Y-85304219D02*
X165595400Y-85304219D01*
X165595400Y-85304219D02*
X165452543Y-85351838D01*
X165071590Y-86256600D02*
X164928733Y-86304219D01*
X164928733Y-86304219D02*
X164690638Y-86304219D01*
X164690638Y-86304219D02*
X164595400Y-86256600D01*
X164595400Y-86256600D02*
X164547781Y-86208980D01*
X164547781Y-86208980D02*
X164500162Y-86113742D01*
X164500162Y-86113742D02*
X164500162Y-86018504D01*
X164500162Y-86018504D02*
X164547781Y-85923266D01*
X164547781Y-85923266D02*
X164595400Y-85875647D01*
X164595400Y-85875647D02*
X164690638Y-85828028D01*
X164690638Y-85828028D02*
X164881114Y-85780409D01*
X164881114Y-85780409D02*
X164976352Y-85732790D01*
X164976352Y-85732790D02*
X165023971Y-85685171D01*
X165023971Y-85685171D02*
X165071590Y-85589933D01*
X165071590Y-85589933D02*
X165071590Y-85494695D01*
X165071590Y-85494695D02*
X165023971Y-85399457D01*
X165023971Y-85399457D02*
X164976352Y-85351838D01*
X164976352Y-85351838D02*
X164881114Y-85304219D01*
X164881114Y-85304219D02*
X164643019Y-85304219D01*
X164643019Y-85304219D02*
X164500162Y-85351838D01*
X154818495Y-60464219D02*
X154818495Y-59464219D01*
X154818495Y-59464219D02*
X154580400Y-59464219D01*
X154580400Y-59464219D02*
X154437543Y-59511838D01*
X154437543Y-59511838D02*
X154342305Y-59607076D01*
X154342305Y-59607076D02*
X154294686Y-59702314D01*
X154294686Y-59702314D02*
X154247067Y-59892790D01*
X154247067Y-59892790D02*
X154247067Y-60035647D01*
X154247067Y-60035647D02*
X154294686Y-60226123D01*
X154294686Y-60226123D02*
X154342305Y-60321361D01*
X154342305Y-60321361D02*
X154437543Y-60416600D01*
X154437543Y-60416600D02*
X154580400Y-60464219D01*
X154580400Y-60464219D02*
X154818495Y-60464219D01*
X153818495Y-60083266D02*
X153056591Y-60083266D01*
X153437543Y-60464219D02*
X153437543Y-59702314D01*
X123654303Y-40449837D02*
X123691081Y-40506251D01*
X123691081Y-40506251D02*
X123821050Y-40582302D01*
X123821050Y-40582302D02*
X123914241Y-40601939D01*
X123914241Y-40601939D02*
X124063847Y-40584799D01*
X124063847Y-40584799D02*
X124176676Y-40511244D01*
X124176676Y-40511244D02*
X124242908Y-40427871D01*
X124242908Y-40427871D02*
X124328778Y-40251306D01*
X124328778Y-40251306D02*
X124358233Y-40111518D01*
X124358233Y-40111518D02*
X124350911Y-39915316D01*
X124350911Y-39915316D02*
X124323952Y-39812306D01*
X124323952Y-39812306D02*
X124250397Y-39699478D01*
X124250397Y-39699478D02*
X124120428Y-39623427D01*
X124120428Y-39623427D02*
X124027237Y-39603790D01*
X124027237Y-39603790D02*
X123877631Y-39620930D01*
X123877631Y-39620930D02*
X123821216Y-39657708D01*
X123235107Y-39436876D02*
X123048724Y-39397603D01*
X123048724Y-39397603D02*
X122945714Y-39424562D01*
X122945714Y-39424562D02*
X122832885Y-39498116D01*
X122832885Y-39498116D02*
X122747016Y-39674681D01*
X122747016Y-39674681D02*
X122678287Y-40000852D01*
X122678287Y-40000852D02*
X122685609Y-40197054D01*
X122685609Y-40197054D02*
X122759164Y-40309883D01*
X122759164Y-40309883D02*
X122842537Y-40376115D01*
X122842537Y-40376115D02*
X123028920Y-40415389D01*
X123028920Y-40415389D02*
X123131930Y-40388430D01*
X123131930Y-40388430D02*
X123244759Y-40314875D01*
X123244759Y-40314875D02*
X123330629Y-40138310D01*
X123330629Y-40138310D02*
X123399358Y-39812139D01*
X123399358Y-39812139D02*
X123392036Y-39615938D01*
X123392036Y-39615938D02*
X123318481Y-39503109D01*
X123318481Y-39503109D02*
X123235107Y-39436876D01*
X121724237Y-40140473D02*
X122190195Y-40238657D01*
X122190195Y-40238657D02*
X122396382Y-39260145D01*
X121417870Y-39053957D02*
X121324678Y-39034321D01*
X121324678Y-39034321D02*
X121221668Y-39061280D01*
X121221668Y-39061280D02*
X121165254Y-39098057D01*
X121165254Y-39098057D02*
X121099021Y-39181430D01*
X121099021Y-39181430D02*
X121013151Y-39357995D01*
X121013151Y-39357995D02*
X120964059Y-39590974D01*
X120964059Y-39590974D02*
X120971381Y-39787176D01*
X120971381Y-39787176D02*
X120998340Y-39890186D01*
X120998340Y-39890186D02*
X121035118Y-39946600D01*
X121035118Y-39946600D02*
X121118491Y-40012833D01*
X121118491Y-40012833D02*
X121211683Y-40032470D01*
X121211683Y-40032470D02*
X121314693Y-40005511D01*
X121314693Y-40005511D02*
X121371107Y-39968734D01*
X121371107Y-39968734D02*
X121437340Y-39885360D01*
X121437340Y-39885360D02*
X121523209Y-39708795D01*
X121523209Y-39708795D02*
X121572301Y-39475816D01*
X121572301Y-39475816D02*
X121564979Y-39279615D01*
X121564979Y-39279615D02*
X121538020Y-39176604D01*
X121538020Y-39176604D02*
X121501243Y-39120190D01*
X121501243Y-39120190D02*
X121417870Y-39053957D01*
X137001819Y-42838296D02*
X136675648Y-42769567D01*
X136427858Y-43252665D02*
X136893816Y-43350850D01*
X136893816Y-43350850D02*
X137100003Y-42372337D01*
X137100003Y-42372337D02*
X136634045Y-42274153D01*
X136114002Y-42894543D02*
X135648043Y-42796359D01*
X136148283Y-43193755D02*
X136028299Y-42146513D01*
X136028299Y-42146513D02*
X135495941Y-43056297D01*
X101305638Y-154374219D02*
X101400876Y-154326600D01*
X101400876Y-154326600D02*
X101448495Y-154231361D01*
X101448495Y-154231361D02*
X101448495Y-153374219D01*
X100543733Y-154326600D02*
X100638971Y-154374219D01*
X100638971Y-154374219D02*
X100829447Y-154374219D01*
X100829447Y-154374219D02*
X100924685Y-154326600D01*
X100924685Y-154326600D02*
X100972304Y-154231361D01*
X100972304Y-154231361D02*
X100972304Y-153850409D01*
X100972304Y-153850409D02*
X100924685Y-153755171D01*
X100924685Y-153755171D02*
X100829447Y-153707552D01*
X100829447Y-153707552D02*
X100638971Y-153707552D01*
X100638971Y-153707552D02*
X100543733Y-153755171D01*
X100543733Y-153755171D02*
X100496114Y-153850409D01*
X100496114Y-153850409D02*
X100496114Y-153945647D01*
X100496114Y-153945647D02*
X100972304Y-154040885D01*
X99638971Y-154374219D02*
X99638971Y-153374219D01*
X99638971Y-154326600D02*
X99734209Y-154374219D01*
X99734209Y-154374219D02*
X99924685Y-154374219D01*
X99924685Y-154374219D02*
X100019923Y-154326600D01*
X100019923Y-154326600D02*
X100067542Y-154278980D01*
X100067542Y-154278980D02*
X100115161Y-154183742D01*
X100115161Y-154183742D02*
X100115161Y-153898028D01*
X100115161Y-153898028D02*
X100067542Y-153802790D01*
X100067542Y-153802790D02*
X100019923Y-153755171D01*
X100019923Y-153755171D02*
X99924685Y-153707552D01*
X99924685Y-153707552D02*
X99734209Y-153707552D01*
X99734209Y-153707552D02*
X99638971Y-153755171D01*
X135120100Y-37090857D02*
X135223110Y-37063898D01*
X135223110Y-37063898D02*
X135362897Y-37093354D01*
X135362897Y-37093354D02*
X135492866Y-37169405D01*
X135492866Y-37169405D02*
X135566421Y-37282233D01*
X135566421Y-37282233D02*
X135593380Y-37385243D01*
X135593380Y-37385243D02*
X135600702Y-37581445D01*
X135600702Y-37581445D02*
X135571247Y-37721233D01*
X135571247Y-37721233D02*
X135485377Y-37897798D01*
X135485377Y-37897798D02*
X135419145Y-37981171D01*
X135419145Y-37981171D02*
X135306316Y-38054726D01*
X135306316Y-38054726D02*
X135156710Y-38071866D01*
X135156710Y-38071866D02*
X135063519Y-38052229D01*
X135063519Y-38052229D02*
X134933550Y-37976178D01*
X134933550Y-37976178D02*
X134896772Y-37919764D01*
X134896772Y-37919764D02*
X134965501Y-37593593D01*
X134965501Y-37593593D02*
X135151885Y-37632867D01*
X134457773Y-37924590D02*
X134663960Y-36946077D01*
X134663960Y-36946077D02*
X133898623Y-37806769D01*
X133898623Y-37806769D02*
X134104810Y-36828256D01*
X133432664Y-37708584D02*
X133638851Y-36730072D01*
X133638851Y-36730072D02*
X133405872Y-36680979D01*
X133405872Y-36680979D02*
X133256266Y-36698120D01*
X133256266Y-36698120D02*
X133143438Y-36771675D01*
X133143438Y-36771675D02*
X133077205Y-36855048D01*
X133077205Y-36855048D02*
X132991336Y-37031613D01*
X132991336Y-37031613D02*
X132961880Y-37171400D01*
X132961880Y-37171400D02*
X132969202Y-37367602D01*
X132969202Y-37367602D02*
X132996161Y-37470612D01*
X132996161Y-37470612D02*
X133069716Y-37583441D01*
X133069716Y-37583441D02*
X133199685Y-37659492D01*
X133199685Y-37659492D02*
X133432664Y-37708584D01*
X106833495Y-46830219D02*
X106833495Y-46163552D01*
X106833495Y-46258790D02*
X106785876Y-46211171D01*
X106785876Y-46211171D02*
X106690638Y-46163552D01*
X106690638Y-46163552D02*
X106547781Y-46163552D01*
X106547781Y-46163552D02*
X106452543Y-46211171D01*
X106452543Y-46211171D02*
X106404924Y-46306409D01*
X106404924Y-46306409D02*
X106404924Y-46830219D01*
X106404924Y-46306409D02*
X106357305Y-46211171D01*
X106357305Y-46211171D02*
X106262067Y-46163552D01*
X106262067Y-46163552D02*
X106119210Y-46163552D01*
X106119210Y-46163552D02*
X106023971Y-46211171D01*
X106023971Y-46211171D02*
X105976352Y-46306409D01*
X105976352Y-46306409D02*
X105976352Y-46830219D01*
X105357305Y-46830219D02*
X105452543Y-46782600D01*
X105452543Y-46782600D02*
X105500162Y-46734980D01*
X105500162Y-46734980D02*
X105547781Y-46639742D01*
X105547781Y-46639742D02*
X105547781Y-46354028D01*
X105547781Y-46354028D02*
X105500162Y-46258790D01*
X105500162Y-46258790D02*
X105452543Y-46211171D01*
X105452543Y-46211171D02*
X105357305Y-46163552D01*
X105357305Y-46163552D02*
X105214448Y-46163552D01*
X105214448Y-46163552D02*
X105119210Y-46211171D01*
X105119210Y-46211171D02*
X105071591Y-46258790D01*
X105071591Y-46258790D02*
X105023972Y-46354028D01*
X105023972Y-46354028D02*
X105023972Y-46639742D01*
X105023972Y-46639742D02*
X105071591Y-46734980D01*
X105071591Y-46734980D02*
X105119210Y-46782600D01*
X105119210Y-46782600D02*
X105214448Y-46830219D01*
X105214448Y-46830219D02*
X105357305Y-46830219D01*
X104166829Y-46163552D02*
X104166829Y-46830219D01*
X104595400Y-46163552D02*
X104595400Y-46687361D01*
X104595400Y-46687361D02*
X104547781Y-46782600D01*
X104547781Y-46782600D02*
X104452543Y-46830219D01*
X104452543Y-46830219D02*
X104309686Y-46830219D01*
X104309686Y-46830219D02*
X104214448Y-46782600D01*
X104214448Y-46782600D02*
X104166829Y-46734980D01*
X103690638Y-46163552D02*
X103690638Y-46830219D01*
X103690638Y-46258790D02*
X103643019Y-46211171D01*
X103643019Y-46211171D02*
X103547781Y-46163552D01*
X103547781Y-46163552D02*
X103404924Y-46163552D01*
X103404924Y-46163552D02*
X103309686Y-46211171D01*
X103309686Y-46211171D02*
X103262067Y-46306409D01*
X103262067Y-46306409D02*
X103262067Y-46830219D01*
X102928733Y-46163552D02*
X102547781Y-46163552D01*
X102785876Y-45830219D02*
X102785876Y-46687361D01*
X102785876Y-46687361D02*
X102738257Y-46782600D01*
X102738257Y-46782600D02*
X102643019Y-46830219D01*
X102643019Y-46830219D02*
X102547781Y-46830219D01*
X102214447Y-46830219D02*
X102214447Y-46163552D01*
X102214447Y-45830219D02*
X102262066Y-45877838D01*
X102262066Y-45877838D02*
X102214447Y-45925457D01*
X102214447Y-45925457D02*
X102166828Y-45877838D01*
X102166828Y-45877838D02*
X102214447Y-45830219D01*
X102214447Y-45830219D02*
X102214447Y-45925457D01*
X101738257Y-46163552D02*
X101738257Y-46830219D01*
X101738257Y-46258790D02*
X101690638Y-46211171D01*
X101690638Y-46211171D02*
X101595400Y-46163552D01*
X101595400Y-46163552D02*
X101452543Y-46163552D01*
X101452543Y-46163552D02*
X101357305Y-46211171D01*
X101357305Y-46211171D02*
X101309686Y-46306409D01*
X101309686Y-46306409D02*
X101309686Y-46830219D01*
X100404924Y-46163552D02*
X100404924Y-46973076D01*
X100404924Y-46973076D02*
X100452543Y-47068314D01*
X100452543Y-47068314D02*
X100500162Y-47115933D01*
X100500162Y-47115933D02*
X100595400Y-47163552D01*
X100595400Y-47163552D02*
X100738257Y-47163552D01*
X100738257Y-47163552D02*
X100833495Y-47115933D01*
X100404924Y-46782600D02*
X100500162Y-46830219D01*
X100500162Y-46830219D02*
X100690638Y-46830219D01*
X100690638Y-46830219D02*
X100785876Y-46782600D01*
X100785876Y-46782600D02*
X100833495Y-46734980D01*
X100833495Y-46734980D02*
X100881114Y-46639742D01*
X100881114Y-46639742D02*
X100881114Y-46354028D01*
X100881114Y-46354028D02*
X100833495Y-46258790D01*
X100833495Y-46258790D02*
X100785876Y-46211171D01*
X100785876Y-46211171D02*
X100690638Y-46163552D01*
X100690638Y-46163552D02*
X100500162Y-46163552D01*
X100500162Y-46163552D02*
X100404924Y-46211171D01*
X104673495Y-48240219D02*
X104673495Y-47240219D01*
X104244924Y-48240219D02*
X104244924Y-47716409D01*
X104244924Y-47716409D02*
X104292543Y-47621171D01*
X104292543Y-47621171D02*
X104387781Y-47573552D01*
X104387781Y-47573552D02*
X104530638Y-47573552D01*
X104530638Y-47573552D02*
X104625876Y-47621171D01*
X104625876Y-47621171D02*
X104673495Y-47668790D01*
X103625876Y-48240219D02*
X103721114Y-48192600D01*
X103721114Y-48192600D02*
X103768733Y-48144980D01*
X103768733Y-48144980D02*
X103816352Y-48049742D01*
X103816352Y-48049742D02*
X103816352Y-47764028D01*
X103816352Y-47764028D02*
X103768733Y-47668790D01*
X103768733Y-47668790D02*
X103721114Y-47621171D01*
X103721114Y-47621171D02*
X103625876Y-47573552D01*
X103625876Y-47573552D02*
X103483019Y-47573552D01*
X103483019Y-47573552D02*
X103387781Y-47621171D01*
X103387781Y-47621171D02*
X103340162Y-47668790D01*
X103340162Y-47668790D02*
X103292543Y-47764028D01*
X103292543Y-47764028D02*
X103292543Y-48049742D01*
X103292543Y-48049742D02*
X103340162Y-48144980D01*
X103340162Y-48144980D02*
X103387781Y-48192600D01*
X103387781Y-48192600D02*
X103483019Y-48240219D01*
X103483019Y-48240219D02*
X103625876Y-48240219D01*
X102721114Y-48240219D02*
X102816352Y-48192600D01*
X102816352Y-48192600D02*
X102863971Y-48097361D01*
X102863971Y-48097361D02*
X102863971Y-47240219D01*
X101959209Y-48192600D02*
X102054447Y-48240219D01*
X102054447Y-48240219D02*
X102244923Y-48240219D01*
X102244923Y-48240219D02*
X102340161Y-48192600D01*
X102340161Y-48192600D02*
X102387780Y-48097361D01*
X102387780Y-48097361D02*
X102387780Y-47716409D01*
X102387780Y-47716409D02*
X102340161Y-47621171D01*
X102340161Y-47621171D02*
X102244923Y-47573552D01*
X102244923Y-47573552D02*
X102054447Y-47573552D01*
X102054447Y-47573552D02*
X101959209Y-47621171D01*
X101959209Y-47621171D02*
X101911590Y-47716409D01*
X101911590Y-47716409D02*
X101911590Y-47811647D01*
X101911590Y-47811647D02*
X102387780Y-47906885D01*
X164414995Y-69187552D02*
X164414995Y-70187552D01*
X164414995Y-69235171D02*
X164319757Y-69187552D01*
X164319757Y-69187552D02*
X164129281Y-69187552D01*
X164129281Y-69187552D02*
X164034043Y-69235171D01*
X164034043Y-69235171D02*
X163986424Y-69282790D01*
X163986424Y-69282790D02*
X163938805Y-69378028D01*
X163938805Y-69378028D02*
X163938805Y-69663742D01*
X163938805Y-69663742D02*
X163986424Y-69758980D01*
X163986424Y-69758980D02*
X164034043Y-69806600D01*
X164034043Y-69806600D02*
X164129281Y-69854219D01*
X164129281Y-69854219D02*
X164319757Y-69854219D01*
X164319757Y-69854219D02*
X164414995Y-69806600D01*
X163081662Y-69806600D02*
X163176900Y-69854219D01*
X163176900Y-69854219D02*
X163367376Y-69854219D01*
X163367376Y-69854219D02*
X163462614Y-69806600D01*
X163462614Y-69806600D02*
X163510233Y-69758980D01*
X163510233Y-69758980D02*
X163557852Y-69663742D01*
X163557852Y-69663742D02*
X163557852Y-69378028D01*
X163557852Y-69378028D02*
X163510233Y-69282790D01*
X163510233Y-69282790D02*
X163462614Y-69235171D01*
X163462614Y-69235171D02*
X163367376Y-69187552D01*
X163367376Y-69187552D02*
X163176900Y-69187552D01*
X163176900Y-69187552D02*
X163081662Y-69235171D01*
X162653090Y-69854219D02*
X162653090Y-68854219D01*
X162653090Y-69235171D02*
X162557852Y-69187552D01*
X162557852Y-69187552D02*
X162367376Y-69187552D01*
X162367376Y-69187552D02*
X162272138Y-69235171D01*
X162272138Y-69235171D02*
X162224519Y-69282790D01*
X162224519Y-69282790D02*
X162176900Y-69378028D01*
X162176900Y-69378028D02*
X162176900Y-69663742D01*
X162176900Y-69663742D02*
X162224519Y-69758980D01*
X162224519Y-69758980D02*
X162272138Y-69806600D01*
X162272138Y-69806600D02*
X162367376Y-69854219D01*
X162367376Y-69854219D02*
X162557852Y-69854219D01*
X162557852Y-69854219D02*
X162653090Y-69806600D01*
X165962614Y-71166600D02*
X165867376Y-71214219D01*
X165867376Y-71214219D02*
X165676900Y-71214219D01*
X165676900Y-71214219D02*
X165581662Y-71166600D01*
X165581662Y-71166600D02*
X165534043Y-71071361D01*
X165534043Y-71071361D02*
X165534043Y-71023742D01*
X165534043Y-71023742D02*
X165581662Y-70928504D01*
X165581662Y-70928504D02*
X165676900Y-70880885D01*
X165676900Y-70880885D02*
X165819757Y-70880885D01*
X165819757Y-70880885D02*
X165914995Y-70833266D01*
X165914995Y-70833266D02*
X165962614Y-70738028D01*
X165962614Y-70738028D02*
X165962614Y-70690409D01*
X165962614Y-70690409D02*
X165914995Y-70595171D01*
X165914995Y-70595171D02*
X165819757Y-70547552D01*
X165819757Y-70547552D02*
X165676900Y-70547552D01*
X165676900Y-70547552D02*
X165581662Y-70595171D01*
X164676900Y-70547552D02*
X164676900Y-71214219D01*
X165105471Y-70547552D02*
X165105471Y-71071361D01*
X165105471Y-71071361D02*
X165057852Y-71166600D01*
X165057852Y-71166600D02*
X164962614Y-71214219D01*
X164962614Y-71214219D02*
X164819757Y-71214219D01*
X164819757Y-71214219D02*
X164724519Y-71166600D01*
X164724519Y-71166600D02*
X164676900Y-71118980D01*
X164200709Y-70547552D02*
X164200709Y-71547552D01*
X164200709Y-70595171D02*
X164105471Y-70547552D01*
X164105471Y-70547552D02*
X163914995Y-70547552D01*
X163914995Y-70547552D02*
X163819757Y-70595171D01*
X163819757Y-70595171D02*
X163772138Y-70642790D01*
X163772138Y-70642790D02*
X163724519Y-70738028D01*
X163724519Y-70738028D02*
X163724519Y-71023742D01*
X163724519Y-71023742D02*
X163772138Y-71118980D01*
X163772138Y-71118980D02*
X163819757Y-71166600D01*
X163819757Y-71166600D02*
X163914995Y-71214219D01*
X163914995Y-71214219D02*
X164105471Y-71214219D01*
X164105471Y-71214219D02*
X164200709Y-71166600D01*
X163295947Y-70547552D02*
X163295947Y-71547552D01*
X163295947Y-70595171D02*
X163200709Y-70547552D01*
X163200709Y-70547552D02*
X163010233Y-70547552D01*
X163010233Y-70547552D02*
X162914995Y-70595171D01*
X162914995Y-70595171D02*
X162867376Y-70642790D01*
X162867376Y-70642790D02*
X162819757Y-70738028D01*
X162819757Y-70738028D02*
X162819757Y-71023742D01*
X162819757Y-71023742D02*
X162867376Y-71118980D01*
X162867376Y-71118980D02*
X162914995Y-71166600D01*
X162914995Y-71166600D02*
X163010233Y-71214219D01*
X163010233Y-71214219D02*
X163200709Y-71214219D01*
X163200709Y-71214219D02*
X163295947Y-71166600D01*
X162248328Y-71214219D02*
X162343566Y-71166600D01*
X162343566Y-71166600D02*
X162391185Y-71118980D01*
X162391185Y-71118980D02*
X162438804Y-71023742D01*
X162438804Y-71023742D02*
X162438804Y-70738028D01*
X162438804Y-70738028D02*
X162391185Y-70642790D01*
X162391185Y-70642790D02*
X162343566Y-70595171D01*
X162343566Y-70595171D02*
X162248328Y-70547552D01*
X162248328Y-70547552D02*
X162105471Y-70547552D01*
X162105471Y-70547552D02*
X162010233Y-70595171D01*
X162010233Y-70595171D02*
X161962614Y-70642790D01*
X161962614Y-70642790D02*
X161914995Y-70738028D01*
X161914995Y-70738028D02*
X161914995Y-71023742D01*
X161914995Y-71023742D02*
X161962614Y-71118980D01*
X161962614Y-71118980D02*
X162010233Y-71166600D01*
X162010233Y-71166600D02*
X162105471Y-71214219D01*
X162105471Y-71214219D02*
X162248328Y-71214219D01*
X161486423Y-71214219D02*
X161486423Y-70547552D01*
X161486423Y-70738028D02*
X161438804Y-70642790D01*
X161438804Y-70642790D02*
X161391185Y-70595171D01*
X161391185Y-70595171D02*
X161295947Y-70547552D01*
X161295947Y-70547552D02*
X161200709Y-70547552D01*
X161010232Y-70547552D02*
X160629280Y-70547552D01*
X160867375Y-70214219D02*
X160867375Y-71071361D01*
X160867375Y-71071361D02*
X160819756Y-71166600D01*
X160819756Y-71166600D02*
X160724518Y-71214219D01*
X160724518Y-71214219D02*
X160629280Y-71214219D01*
X142017495Y-107267552D02*
X142017495Y-108267552D01*
X142017495Y-107315171D02*
X141922257Y-107267552D01*
X141922257Y-107267552D02*
X141731781Y-107267552D01*
X141731781Y-107267552D02*
X141636543Y-107315171D01*
X141636543Y-107315171D02*
X141588924Y-107362790D01*
X141588924Y-107362790D02*
X141541305Y-107458028D01*
X141541305Y-107458028D02*
X141541305Y-107743742D01*
X141541305Y-107743742D02*
X141588924Y-107838980D01*
X141588924Y-107838980D02*
X141636543Y-107886600D01*
X141636543Y-107886600D02*
X141731781Y-107934219D01*
X141731781Y-107934219D02*
X141922257Y-107934219D01*
X141922257Y-107934219D02*
X142017495Y-107886600D01*
X140684162Y-107886600D02*
X140779400Y-107934219D01*
X140779400Y-107934219D02*
X140969876Y-107934219D01*
X140969876Y-107934219D02*
X141065114Y-107886600D01*
X141065114Y-107886600D02*
X141112733Y-107838980D01*
X141112733Y-107838980D02*
X141160352Y-107743742D01*
X141160352Y-107743742D02*
X141160352Y-107458028D01*
X141160352Y-107458028D02*
X141112733Y-107362790D01*
X141112733Y-107362790D02*
X141065114Y-107315171D01*
X141065114Y-107315171D02*
X140969876Y-107267552D01*
X140969876Y-107267552D02*
X140779400Y-107267552D01*
X140779400Y-107267552D02*
X140684162Y-107315171D01*
X140255590Y-107934219D02*
X140255590Y-106934219D01*
X140255590Y-107315171D02*
X140160352Y-107267552D01*
X140160352Y-107267552D02*
X139969876Y-107267552D01*
X139969876Y-107267552D02*
X139874638Y-107315171D01*
X139874638Y-107315171D02*
X139827019Y-107362790D01*
X139827019Y-107362790D02*
X139779400Y-107458028D01*
X139779400Y-107458028D02*
X139779400Y-107743742D01*
X139779400Y-107743742D02*
X139827019Y-107838980D01*
X139827019Y-107838980D02*
X139874638Y-107886600D01*
X139874638Y-107886600D02*
X139969876Y-107934219D01*
X139969876Y-107934219D02*
X140160352Y-107934219D01*
X140160352Y-107934219D02*
X140255590Y-107886600D01*
X143565114Y-109246600D02*
X143469876Y-109294219D01*
X143469876Y-109294219D02*
X143279400Y-109294219D01*
X143279400Y-109294219D02*
X143184162Y-109246600D01*
X143184162Y-109246600D02*
X143136543Y-109151361D01*
X143136543Y-109151361D02*
X143136543Y-109103742D01*
X143136543Y-109103742D02*
X143184162Y-109008504D01*
X143184162Y-109008504D02*
X143279400Y-108960885D01*
X143279400Y-108960885D02*
X143422257Y-108960885D01*
X143422257Y-108960885D02*
X143517495Y-108913266D01*
X143517495Y-108913266D02*
X143565114Y-108818028D01*
X143565114Y-108818028D02*
X143565114Y-108770409D01*
X143565114Y-108770409D02*
X143517495Y-108675171D01*
X143517495Y-108675171D02*
X143422257Y-108627552D01*
X143422257Y-108627552D02*
X143279400Y-108627552D01*
X143279400Y-108627552D02*
X143184162Y-108675171D01*
X142279400Y-108627552D02*
X142279400Y-109294219D01*
X142707971Y-108627552D02*
X142707971Y-109151361D01*
X142707971Y-109151361D02*
X142660352Y-109246600D01*
X142660352Y-109246600D02*
X142565114Y-109294219D01*
X142565114Y-109294219D02*
X142422257Y-109294219D01*
X142422257Y-109294219D02*
X142327019Y-109246600D01*
X142327019Y-109246600D02*
X142279400Y-109198980D01*
X141803209Y-108627552D02*
X141803209Y-109627552D01*
X141803209Y-108675171D02*
X141707971Y-108627552D01*
X141707971Y-108627552D02*
X141517495Y-108627552D01*
X141517495Y-108627552D02*
X141422257Y-108675171D01*
X141422257Y-108675171D02*
X141374638Y-108722790D01*
X141374638Y-108722790D02*
X141327019Y-108818028D01*
X141327019Y-108818028D02*
X141327019Y-109103742D01*
X141327019Y-109103742D02*
X141374638Y-109198980D01*
X141374638Y-109198980D02*
X141422257Y-109246600D01*
X141422257Y-109246600D02*
X141517495Y-109294219D01*
X141517495Y-109294219D02*
X141707971Y-109294219D01*
X141707971Y-109294219D02*
X141803209Y-109246600D01*
X140898447Y-108627552D02*
X140898447Y-109627552D01*
X140898447Y-108675171D02*
X140803209Y-108627552D01*
X140803209Y-108627552D02*
X140612733Y-108627552D01*
X140612733Y-108627552D02*
X140517495Y-108675171D01*
X140517495Y-108675171D02*
X140469876Y-108722790D01*
X140469876Y-108722790D02*
X140422257Y-108818028D01*
X140422257Y-108818028D02*
X140422257Y-109103742D01*
X140422257Y-109103742D02*
X140469876Y-109198980D01*
X140469876Y-109198980D02*
X140517495Y-109246600D01*
X140517495Y-109246600D02*
X140612733Y-109294219D01*
X140612733Y-109294219D02*
X140803209Y-109294219D01*
X140803209Y-109294219D02*
X140898447Y-109246600D01*
X139850828Y-109294219D02*
X139946066Y-109246600D01*
X139946066Y-109246600D02*
X139993685Y-109198980D01*
X139993685Y-109198980D02*
X140041304Y-109103742D01*
X140041304Y-109103742D02*
X140041304Y-108818028D01*
X140041304Y-108818028D02*
X139993685Y-108722790D01*
X139993685Y-108722790D02*
X139946066Y-108675171D01*
X139946066Y-108675171D02*
X139850828Y-108627552D01*
X139850828Y-108627552D02*
X139707971Y-108627552D01*
X139707971Y-108627552D02*
X139612733Y-108675171D01*
X139612733Y-108675171D02*
X139565114Y-108722790D01*
X139565114Y-108722790D02*
X139517495Y-108818028D01*
X139517495Y-108818028D02*
X139517495Y-109103742D01*
X139517495Y-109103742D02*
X139565114Y-109198980D01*
X139565114Y-109198980D02*
X139612733Y-109246600D01*
X139612733Y-109246600D02*
X139707971Y-109294219D01*
X139707971Y-109294219D02*
X139850828Y-109294219D01*
X139088923Y-109294219D02*
X139088923Y-108627552D01*
X139088923Y-108818028D02*
X139041304Y-108722790D01*
X139041304Y-108722790D02*
X138993685Y-108675171D01*
X138993685Y-108675171D02*
X138898447Y-108627552D01*
X138898447Y-108627552D02*
X138803209Y-108627552D01*
X138612732Y-108627552D02*
X138231780Y-108627552D01*
X138469875Y-108294219D02*
X138469875Y-109151361D01*
X138469875Y-109151361D02*
X138422256Y-109246600D01*
X138422256Y-109246600D02*
X138327018Y-109294219D01*
X138327018Y-109294219D02*
X138231780Y-109294219D01*
X109695995Y-153673219D02*
X109695995Y-152673219D01*
X109267424Y-153673219D02*
X109267424Y-153149409D01*
X109267424Y-153149409D02*
X109315043Y-153054171D01*
X109315043Y-153054171D02*
X109410281Y-153006552D01*
X109410281Y-153006552D02*
X109553138Y-153006552D01*
X109553138Y-153006552D02*
X109648376Y-153054171D01*
X109648376Y-153054171D02*
X109695995Y-153101790D01*
X108648376Y-153673219D02*
X108743614Y-153625600D01*
X108743614Y-153625600D02*
X108791233Y-153577980D01*
X108791233Y-153577980D02*
X108838852Y-153482742D01*
X108838852Y-153482742D02*
X108838852Y-153197028D01*
X108838852Y-153197028D02*
X108791233Y-153101790D01*
X108791233Y-153101790D02*
X108743614Y-153054171D01*
X108743614Y-153054171D02*
X108648376Y-153006552D01*
X108648376Y-153006552D02*
X108505519Y-153006552D01*
X108505519Y-153006552D02*
X108410281Y-153054171D01*
X108410281Y-153054171D02*
X108362662Y-153101790D01*
X108362662Y-153101790D02*
X108315043Y-153197028D01*
X108315043Y-153197028D02*
X108315043Y-153482742D01*
X108315043Y-153482742D02*
X108362662Y-153577980D01*
X108362662Y-153577980D02*
X108410281Y-153625600D01*
X108410281Y-153625600D02*
X108505519Y-153673219D01*
X108505519Y-153673219D02*
X108648376Y-153673219D01*
X107743614Y-153673219D02*
X107838852Y-153625600D01*
X107838852Y-153625600D02*
X107886471Y-153530361D01*
X107886471Y-153530361D02*
X107886471Y-152673219D01*
X106981709Y-153625600D02*
X107076947Y-153673219D01*
X107076947Y-153673219D02*
X107267423Y-153673219D01*
X107267423Y-153673219D02*
X107362661Y-153625600D01*
X107362661Y-153625600D02*
X107410280Y-153530361D01*
X107410280Y-153530361D02*
X107410280Y-153149409D01*
X107410280Y-153149409D02*
X107362661Y-153054171D01*
X107362661Y-153054171D02*
X107267423Y-153006552D01*
X107267423Y-153006552D02*
X107076947Y-153006552D01*
X107076947Y-153006552D02*
X106981709Y-153054171D01*
X106981709Y-153054171D02*
X106934090Y-153149409D01*
X106934090Y-153149409D02*
X106934090Y-153244647D01*
X106934090Y-153244647D02*
X107410280Y-153339885D01*
X111455995Y-152193219D02*
X111455995Y-151526552D01*
X111455995Y-151621790D02*
X111408376Y-151574171D01*
X111408376Y-151574171D02*
X111313138Y-151526552D01*
X111313138Y-151526552D02*
X111170281Y-151526552D01*
X111170281Y-151526552D02*
X111075043Y-151574171D01*
X111075043Y-151574171D02*
X111027424Y-151669409D01*
X111027424Y-151669409D02*
X111027424Y-152193219D01*
X111027424Y-151669409D02*
X110979805Y-151574171D01*
X110979805Y-151574171D02*
X110884567Y-151526552D01*
X110884567Y-151526552D02*
X110741710Y-151526552D01*
X110741710Y-151526552D02*
X110646471Y-151574171D01*
X110646471Y-151574171D02*
X110598852Y-151669409D01*
X110598852Y-151669409D02*
X110598852Y-152193219D01*
X109979805Y-152193219D02*
X110075043Y-152145600D01*
X110075043Y-152145600D02*
X110122662Y-152097980D01*
X110122662Y-152097980D02*
X110170281Y-152002742D01*
X110170281Y-152002742D02*
X110170281Y-151717028D01*
X110170281Y-151717028D02*
X110122662Y-151621790D01*
X110122662Y-151621790D02*
X110075043Y-151574171D01*
X110075043Y-151574171D02*
X109979805Y-151526552D01*
X109979805Y-151526552D02*
X109836948Y-151526552D01*
X109836948Y-151526552D02*
X109741710Y-151574171D01*
X109741710Y-151574171D02*
X109694091Y-151621790D01*
X109694091Y-151621790D02*
X109646472Y-151717028D01*
X109646472Y-151717028D02*
X109646472Y-152002742D01*
X109646472Y-152002742D02*
X109694091Y-152097980D01*
X109694091Y-152097980D02*
X109741710Y-152145600D01*
X109741710Y-152145600D02*
X109836948Y-152193219D01*
X109836948Y-152193219D02*
X109979805Y-152193219D01*
X108789329Y-151526552D02*
X108789329Y-152193219D01*
X109217900Y-151526552D02*
X109217900Y-152050361D01*
X109217900Y-152050361D02*
X109170281Y-152145600D01*
X109170281Y-152145600D02*
X109075043Y-152193219D01*
X109075043Y-152193219D02*
X108932186Y-152193219D01*
X108932186Y-152193219D02*
X108836948Y-152145600D01*
X108836948Y-152145600D02*
X108789329Y-152097980D01*
X108313138Y-151526552D02*
X108313138Y-152193219D01*
X108313138Y-151621790D02*
X108265519Y-151574171D01*
X108265519Y-151574171D02*
X108170281Y-151526552D01*
X108170281Y-151526552D02*
X108027424Y-151526552D01*
X108027424Y-151526552D02*
X107932186Y-151574171D01*
X107932186Y-151574171D02*
X107884567Y-151669409D01*
X107884567Y-151669409D02*
X107884567Y-152193219D01*
X107551233Y-151526552D02*
X107170281Y-151526552D01*
X107408376Y-151193219D02*
X107408376Y-152050361D01*
X107408376Y-152050361D02*
X107360757Y-152145600D01*
X107360757Y-152145600D02*
X107265519Y-152193219D01*
X107265519Y-152193219D02*
X107170281Y-152193219D01*
X106836947Y-152193219D02*
X106836947Y-151526552D01*
X106836947Y-151193219D02*
X106884566Y-151240838D01*
X106884566Y-151240838D02*
X106836947Y-151288457D01*
X106836947Y-151288457D02*
X106789328Y-151240838D01*
X106789328Y-151240838D02*
X106836947Y-151193219D01*
X106836947Y-151193219D02*
X106836947Y-151288457D01*
X106360757Y-151526552D02*
X106360757Y-152193219D01*
X106360757Y-151621790D02*
X106313138Y-151574171D01*
X106313138Y-151574171D02*
X106217900Y-151526552D01*
X106217900Y-151526552D02*
X106075043Y-151526552D01*
X106075043Y-151526552D02*
X105979805Y-151574171D01*
X105979805Y-151574171D02*
X105932186Y-151669409D01*
X105932186Y-151669409D02*
X105932186Y-152193219D01*
X105027424Y-151526552D02*
X105027424Y-152336076D01*
X105027424Y-152336076D02*
X105075043Y-152431314D01*
X105075043Y-152431314D02*
X105122662Y-152478933D01*
X105122662Y-152478933D02*
X105217900Y-152526552D01*
X105217900Y-152526552D02*
X105360757Y-152526552D01*
X105360757Y-152526552D02*
X105455995Y-152478933D01*
X105027424Y-152145600D02*
X105122662Y-152193219D01*
X105122662Y-152193219D02*
X105313138Y-152193219D01*
X105313138Y-152193219D02*
X105408376Y-152145600D01*
X105408376Y-152145600D02*
X105455995Y-152097980D01*
X105455995Y-152097980D02*
X105503614Y-152002742D01*
X105503614Y-152002742D02*
X105503614Y-151717028D01*
X105503614Y-151717028D02*
X105455995Y-151621790D01*
X105455995Y-151621790D02*
X105408376Y-151574171D01*
X105408376Y-151574171D02*
X105313138Y-151526552D01*
X105313138Y-151526552D02*
X105122662Y-151526552D01*
X105122662Y-151526552D02*
X105027424Y-151574171D01*
X67191364Y-128286600D02*
X67096126Y-128334219D01*
X67096126Y-128334219D02*
X66905650Y-128334219D01*
X66905650Y-128334219D02*
X66810412Y-128286600D01*
X66810412Y-128286600D02*
X66762793Y-128191361D01*
X66762793Y-128191361D02*
X66762793Y-128143742D01*
X66762793Y-128143742D02*
X66810412Y-128048504D01*
X66810412Y-128048504D02*
X66905650Y-128000885D01*
X66905650Y-128000885D02*
X67048507Y-128000885D01*
X67048507Y-128000885D02*
X67143745Y-127953266D01*
X67143745Y-127953266D02*
X67191364Y-127858028D01*
X67191364Y-127858028D02*
X67191364Y-127810409D01*
X67191364Y-127810409D02*
X67143745Y-127715171D01*
X67143745Y-127715171D02*
X67048507Y-127667552D01*
X67048507Y-127667552D02*
X66905650Y-127667552D01*
X66905650Y-127667552D02*
X66810412Y-127715171D01*
X65905650Y-127667552D02*
X65905650Y-128334219D01*
X66334221Y-127667552D02*
X66334221Y-128191361D01*
X66334221Y-128191361D02*
X66286602Y-128286600D01*
X66286602Y-128286600D02*
X66191364Y-128334219D01*
X66191364Y-128334219D02*
X66048507Y-128334219D01*
X66048507Y-128334219D02*
X65953269Y-128286600D01*
X65953269Y-128286600D02*
X65905650Y-128238980D01*
X65429459Y-127667552D02*
X65429459Y-128667552D01*
X65429459Y-127715171D02*
X65334221Y-127667552D01*
X65334221Y-127667552D02*
X65143745Y-127667552D01*
X65143745Y-127667552D02*
X65048507Y-127715171D01*
X65048507Y-127715171D02*
X65000888Y-127762790D01*
X65000888Y-127762790D02*
X64953269Y-127858028D01*
X64953269Y-127858028D02*
X64953269Y-128143742D01*
X64953269Y-128143742D02*
X65000888Y-128238980D01*
X65000888Y-128238980D02*
X65048507Y-128286600D01*
X65048507Y-128286600D02*
X65143745Y-128334219D01*
X65143745Y-128334219D02*
X65334221Y-128334219D01*
X65334221Y-128334219D02*
X65429459Y-128286600D01*
X64524697Y-127667552D02*
X64524697Y-128667552D01*
X64524697Y-127715171D02*
X64429459Y-127667552D01*
X64429459Y-127667552D02*
X64238983Y-127667552D01*
X64238983Y-127667552D02*
X64143745Y-127715171D01*
X64143745Y-127715171D02*
X64096126Y-127762790D01*
X64096126Y-127762790D02*
X64048507Y-127858028D01*
X64048507Y-127858028D02*
X64048507Y-128143742D01*
X64048507Y-128143742D02*
X64096126Y-128238980D01*
X64096126Y-128238980D02*
X64143745Y-128286600D01*
X64143745Y-128286600D02*
X64238983Y-128334219D01*
X64238983Y-128334219D02*
X64429459Y-128334219D01*
X64429459Y-128334219D02*
X64524697Y-128286600D01*
X63477078Y-128334219D02*
X63572316Y-128286600D01*
X63572316Y-128286600D02*
X63619935Y-128238980D01*
X63619935Y-128238980D02*
X63667554Y-128143742D01*
X63667554Y-128143742D02*
X63667554Y-127858028D01*
X63667554Y-127858028D02*
X63619935Y-127762790D01*
X63619935Y-127762790D02*
X63572316Y-127715171D01*
X63572316Y-127715171D02*
X63477078Y-127667552D01*
X63477078Y-127667552D02*
X63334221Y-127667552D01*
X63334221Y-127667552D02*
X63238983Y-127715171D01*
X63238983Y-127715171D02*
X63191364Y-127762790D01*
X63191364Y-127762790D02*
X63143745Y-127858028D01*
X63143745Y-127858028D02*
X63143745Y-128143742D01*
X63143745Y-128143742D02*
X63191364Y-128238980D01*
X63191364Y-128238980D02*
X63238983Y-128286600D01*
X63238983Y-128286600D02*
X63334221Y-128334219D01*
X63334221Y-128334219D02*
X63477078Y-128334219D01*
X62715173Y-128334219D02*
X62715173Y-127667552D01*
X62715173Y-127858028D02*
X62667554Y-127762790D01*
X62667554Y-127762790D02*
X62619935Y-127715171D01*
X62619935Y-127715171D02*
X62524697Y-127667552D01*
X62524697Y-127667552D02*
X62429459Y-127667552D01*
X62238982Y-127667552D02*
X61858030Y-127667552D01*
X62096125Y-127334219D02*
X62096125Y-128191361D01*
X62096125Y-128191361D02*
X62048506Y-128286600D01*
X62048506Y-128286600D02*
X61953268Y-128334219D01*
X61953268Y-128334219D02*
X61858030Y-128334219D01*
X65643745Y-126307552D02*
X65643745Y-127307552D01*
X65643745Y-126355171D02*
X65548507Y-126307552D01*
X65548507Y-126307552D02*
X65358031Y-126307552D01*
X65358031Y-126307552D02*
X65262793Y-126355171D01*
X65262793Y-126355171D02*
X65215174Y-126402790D01*
X65215174Y-126402790D02*
X65167555Y-126498028D01*
X65167555Y-126498028D02*
X65167555Y-126783742D01*
X65167555Y-126783742D02*
X65215174Y-126878980D01*
X65215174Y-126878980D02*
X65262793Y-126926600D01*
X65262793Y-126926600D02*
X65358031Y-126974219D01*
X65358031Y-126974219D02*
X65548507Y-126974219D01*
X65548507Y-126974219D02*
X65643745Y-126926600D01*
X64310412Y-126926600D02*
X64405650Y-126974219D01*
X64405650Y-126974219D02*
X64596126Y-126974219D01*
X64596126Y-126974219D02*
X64691364Y-126926600D01*
X64691364Y-126926600D02*
X64738983Y-126878980D01*
X64738983Y-126878980D02*
X64786602Y-126783742D01*
X64786602Y-126783742D02*
X64786602Y-126498028D01*
X64786602Y-126498028D02*
X64738983Y-126402790D01*
X64738983Y-126402790D02*
X64691364Y-126355171D01*
X64691364Y-126355171D02*
X64596126Y-126307552D01*
X64596126Y-126307552D02*
X64405650Y-126307552D01*
X64405650Y-126307552D02*
X64310412Y-126355171D01*
X63881840Y-126974219D02*
X63881840Y-125974219D01*
X63881840Y-126355171D02*
X63786602Y-126307552D01*
X63786602Y-126307552D02*
X63596126Y-126307552D01*
X63596126Y-126307552D02*
X63500888Y-126355171D01*
X63500888Y-126355171D02*
X63453269Y-126402790D01*
X63453269Y-126402790D02*
X63405650Y-126498028D01*
X63405650Y-126498028D02*
X63405650Y-126783742D01*
X63405650Y-126783742D02*
X63453269Y-126878980D01*
X63453269Y-126878980D02*
X63500888Y-126926600D01*
X63500888Y-126926600D02*
X63596126Y-126974219D01*
X63596126Y-126974219D02*
X63786602Y-126974219D01*
X63786602Y-126974219D02*
X63881840Y-126926600D01*
X66823495Y-68187552D02*
X66823495Y-69187552D01*
X66823495Y-68235171D02*
X66728257Y-68187552D01*
X66728257Y-68187552D02*
X66537781Y-68187552D01*
X66537781Y-68187552D02*
X66442543Y-68235171D01*
X66442543Y-68235171D02*
X66394924Y-68282790D01*
X66394924Y-68282790D02*
X66347305Y-68378028D01*
X66347305Y-68378028D02*
X66347305Y-68663742D01*
X66347305Y-68663742D02*
X66394924Y-68758980D01*
X66394924Y-68758980D02*
X66442543Y-68806600D01*
X66442543Y-68806600D02*
X66537781Y-68854219D01*
X66537781Y-68854219D02*
X66728257Y-68854219D01*
X66728257Y-68854219D02*
X66823495Y-68806600D01*
X65490162Y-68806600D02*
X65585400Y-68854219D01*
X65585400Y-68854219D02*
X65775876Y-68854219D01*
X65775876Y-68854219D02*
X65871114Y-68806600D01*
X65871114Y-68806600D02*
X65918733Y-68758980D01*
X65918733Y-68758980D02*
X65966352Y-68663742D01*
X65966352Y-68663742D02*
X65966352Y-68378028D01*
X65966352Y-68378028D02*
X65918733Y-68282790D01*
X65918733Y-68282790D02*
X65871114Y-68235171D01*
X65871114Y-68235171D02*
X65775876Y-68187552D01*
X65775876Y-68187552D02*
X65585400Y-68187552D01*
X65585400Y-68187552D02*
X65490162Y-68235171D01*
X65061590Y-68854219D02*
X65061590Y-67854219D01*
X65061590Y-68235171D02*
X64966352Y-68187552D01*
X64966352Y-68187552D02*
X64775876Y-68187552D01*
X64775876Y-68187552D02*
X64680638Y-68235171D01*
X64680638Y-68235171D02*
X64633019Y-68282790D01*
X64633019Y-68282790D02*
X64585400Y-68378028D01*
X64585400Y-68378028D02*
X64585400Y-68663742D01*
X64585400Y-68663742D02*
X64633019Y-68758980D01*
X64633019Y-68758980D02*
X64680638Y-68806600D01*
X64680638Y-68806600D02*
X64775876Y-68854219D01*
X64775876Y-68854219D02*
X64966352Y-68854219D01*
X64966352Y-68854219D02*
X65061590Y-68806600D01*
X68371114Y-70166600D02*
X68275876Y-70214219D01*
X68275876Y-70214219D02*
X68085400Y-70214219D01*
X68085400Y-70214219D02*
X67990162Y-70166600D01*
X67990162Y-70166600D02*
X67942543Y-70071361D01*
X67942543Y-70071361D02*
X67942543Y-70023742D01*
X67942543Y-70023742D02*
X67990162Y-69928504D01*
X67990162Y-69928504D02*
X68085400Y-69880885D01*
X68085400Y-69880885D02*
X68228257Y-69880885D01*
X68228257Y-69880885D02*
X68323495Y-69833266D01*
X68323495Y-69833266D02*
X68371114Y-69738028D01*
X68371114Y-69738028D02*
X68371114Y-69690409D01*
X68371114Y-69690409D02*
X68323495Y-69595171D01*
X68323495Y-69595171D02*
X68228257Y-69547552D01*
X68228257Y-69547552D02*
X68085400Y-69547552D01*
X68085400Y-69547552D02*
X67990162Y-69595171D01*
X67085400Y-69547552D02*
X67085400Y-70214219D01*
X67513971Y-69547552D02*
X67513971Y-70071361D01*
X67513971Y-70071361D02*
X67466352Y-70166600D01*
X67466352Y-70166600D02*
X67371114Y-70214219D01*
X67371114Y-70214219D02*
X67228257Y-70214219D01*
X67228257Y-70214219D02*
X67133019Y-70166600D01*
X67133019Y-70166600D02*
X67085400Y-70118980D01*
X66609209Y-69547552D02*
X66609209Y-70547552D01*
X66609209Y-69595171D02*
X66513971Y-69547552D01*
X66513971Y-69547552D02*
X66323495Y-69547552D01*
X66323495Y-69547552D02*
X66228257Y-69595171D01*
X66228257Y-69595171D02*
X66180638Y-69642790D01*
X66180638Y-69642790D02*
X66133019Y-69738028D01*
X66133019Y-69738028D02*
X66133019Y-70023742D01*
X66133019Y-70023742D02*
X66180638Y-70118980D01*
X66180638Y-70118980D02*
X66228257Y-70166600D01*
X66228257Y-70166600D02*
X66323495Y-70214219D01*
X66323495Y-70214219D02*
X66513971Y-70214219D01*
X66513971Y-70214219D02*
X66609209Y-70166600D01*
X65704447Y-69547552D02*
X65704447Y-70547552D01*
X65704447Y-69595171D02*
X65609209Y-69547552D01*
X65609209Y-69547552D02*
X65418733Y-69547552D01*
X65418733Y-69547552D02*
X65323495Y-69595171D01*
X65323495Y-69595171D02*
X65275876Y-69642790D01*
X65275876Y-69642790D02*
X65228257Y-69738028D01*
X65228257Y-69738028D02*
X65228257Y-70023742D01*
X65228257Y-70023742D02*
X65275876Y-70118980D01*
X65275876Y-70118980D02*
X65323495Y-70166600D01*
X65323495Y-70166600D02*
X65418733Y-70214219D01*
X65418733Y-70214219D02*
X65609209Y-70214219D01*
X65609209Y-70214219D02*
X65704447Y-70166600D01*
X64656828Y-70214219D02*
X64752066Y-70166600D01*
X64752066Y-70166600D02*
X64799685Y-70118980D01*
X64799685Y-70118980D02*
X64847304Y-70023742D01*
X64847304Y-70023742D02*
X64847304Y-69738028D01*
X64847304Y-69738028D02*
X64799685Y-69642790D01*
X64799685Y-69642790D02*
X64752066Y-69595171D01*
X64752066Y-69595171D02*
X64656828Y-69547552D01*
X64656828Y-69547552D02*
X64513971Y-69547552D01*
X64513971Y-69547552D02*
X64418733Y-69595171D01*
X64418733Y-69595171D02*
X64371114Y-69642790D01*
X64371114Y-69642790D02*
X64323495Y-69738028D01*
X64323495Y-69738028D02*
X64323495Y-70023742D01*
X64323495Y-70023742D02*
X64371114Y-70118980D01*
X64371114Y-70118980D02*
X64418733Y-70166600D01*
X64418733Y-70166600D02*
X64513971Y-70214219D01*
X64513971Y-70214219D02*
X64656828Y-70214219D01*
X63894923Y-70214219D02*
X63894923Y-69547552D01*
X63894923Y-69738028D02*
X63847304Y-69642790D01*
X63847304Y-69642790D02*
X63799685Y-69595171D01*
X63799685Y-69595171D02*
X63704447Y-69547552D01*
X63704447Y-69547552D02*
X63609209Y-69547552D01*
X63418732Y-69547552D02*
X63037780Y-69547552D01*
X63275875Y-69214219D02*
X63275875Y-70071361D01*
X63275875Y-70071361D02*
X63228256Y-70166600D01*
X63228256Y-70166600D02*
X63133018Y-70214219D01*
X63133018Y-70214219D02*
X63037780Y-70214219D01*
D11*
X161287988Y-151535095D02*
X162097511Y-151535095D01*
X162097511Y-151535095D02*
X162192749Y-151582714D01*
X162192749Y-151582714D02*
X162240369Y-151630333D01*
X162240369Y-151630333D02*
X162287988Y-151725571D01*
X162287988Y-151725571D02*
X162287988Y-151916047D01*
X162287988Y-151916047D02*
X162240369Y-152011285D01*
X162240369Y-152011285D02*
X162192749Y-152058904D01*
X162192749Y-152058904D02*
X162097511Y-152106523D01*
X162097511Y-152106523D02*
X161287988Y-152106523D01*
X162287988Y-153106523D02*
X162287988Y-152535095D01*
X162287988Y-152820809D02*
X161287988Y-152820809D01*
X161287988Y-152820809D02*
X161430845Y-152725571D01*
X161430845Y-152725571D02*
X161526083Y-152630333D01*
X161526083Y-152630333D02*
X161573702Y-152535095D01*
X137195464Y-150292238D02*
X136395464Y-150292238D01*
X136395464Y-150292238D02*
X136395464Y-150482714D01*
X136395464Y-150482714D02*
X136433559Y-150597000D01*
X136433559Y-150597000D02*
X136509749Y-150673190D01*
X136509749Y-150673190D02*
X136585940Y-150711285D01*
X136585940Y-150711285D02*
X136738321Y-150749381D01*
X136738321Y-150749381D02*
X136852607Y-150749381D01*
X136852607Y-150749381D02*
X137004988Y-150711285D01*
X137004988Y-150711285D02*
X137081178Y-150673190D01*
X137081178Y-150673190D02*
X137157369Y-150597000D01*
X137157369Y-150597000D02*
X137195464Y-150482714D01*
X137195464Y-150482714D02*
X137195464Y-150292238D01*
X136890702Y-151092238D02*
X136890702Y-151701762D01*
X137195464Y-151397000D02*
X136585940Y-151397000D01*
X137195464Y-153292238D02*
X136395464Y-153292238D01*
X136395464Y-153292238D02*
X136395464Y-153482714D01*
X136395464Y-153482714D02*
X136433559Y-153597000D01*
X136433559Y-153597000D02*
X136509749Y-153673190D01*
X136509749Y-153673190D02*
X136585940Y-153711285D01*
X136585940Y-153711285D02*
X136738321Y-153749381D01*
X136738321Y-153749381D02*
X136852607Y-153749381D01*
X136852607Y-153749381D02*
X137004988Y-153711285D01*
X137004988Y-153711285D02*
X137081178Y-153673190D01*
X137081178Y-153673190D02*
X137157369Y-153597000D01*
X137157369Y-153597000D02*
X137195464Y-153482714D01*
X137195464Y-153482714D02*
X137195464Y-153292238D01*
X136890702Y-154092238D02*
X136890702Y-154701762D01*
X98390488Y-145065095D02*
X99200011Y-145065095D01*
X99200011Y-145065095D02*
X99295249Y-145112714D01*
X99295249Y-145112714D02*
X99342869Y-145160333D01*
X99342869Y-145160333D02*
X99390488Y-145255571D01*
X99390488Y-145255571D02*
X99390488Y-145446047D01*
X99390488Y-145446047D02*
X99342869Y-145541285D01*
X99342869Y-145541285D02*
X99295249Y-145588904D01*
X99295249Y-145588904D02*
X99200011Y-145636523D01*
X99200011Y-145636523D02*
X98390488Y-145636523D01*
X98485726Y-146065095D02*
X98438107Y-146112714D01*
X98438107Y-146112714D02*
X98390488Y-146207952D01*
X98390488Y-146207952D02*
X98390488Y-146446047D01*
X98390488Y-146446047D02*
X98438107Y-146541285D01*
X98438107Y-146541285D02*
X98485726Y-146588904D01*
X98485726Y-146588904D02*
X98580964Y-146636523D01*
X98580964Y-146636523D02*
X98676202Y-146636523D01*
X98676202Y-146636523D02*
X98819059Y-146588904D01*
X98819059Y-146588904D02*
X99390488Y-146017476D01*
X99390488Y-146017476D02*
X99390488Y-146636523D01*
X126332749Y-36280333D02*
X126380369Y-36232714D01*
X126380369Y-36232714D02*
X126427988Y-36089857D01*
X126427988Y-36089857D02*
X126427988Y-35994619D01*
X126427988Y-35994619D02*
X126380369Y-35851762D01*
X126380369Y-35851762D02*
X126285130Y-35756524D01*
X126285130Y-35756524D02*
X126189892Y-35708905D01*
X126189892Y-35708905D02*
X125999416Y-35661286D01*
X125999416Y-35661286D02*
X125856559Y-35661286D01*
X125856559Y-35661286D02*
X125666083Y-35708905D01*
X125666083Y-35708905D02*
X125570845Y-35756524D01*
X125570845Y-35756524D02*
X125475607Y-35851762D01*
X125475607Y-35851762D02*
X125427988Y-35994619D01*
X125427988Y-35994619D02*
X125427988Y-36089857D01*
X125427988Y-36089857D02*
X125475607Y-36232714D01*
X125475607Y-36232714D02*
X125523226Y-36280333D01*
X125523226Y-36661286D02*
X125475607Y-36708905D01*
X125475607Y-36708905D02*
X125427988Y-36804143D01*
X125427988Y-36804143D02*
X125427988Y-37042238D01*
X125427988Y-37042238D02*
X125475607Y-37137476D01*
X125475607Y-37137476D02*
X125523226Y-37185095D01*
X125523226Y-37185095D02*
X125618464Y-37232714D01*
X125618464Y-37232714D02*
X125713702Y-37232714D01*
X125713702Y-37232714D02*
X125856559Y-37185095D01*
X125856559Y-37185095D02*
X126427988Y-36613667D01*
X126427988Y-36613667D02*
X126427988Y-37232714D01*
D12*
%TO.C,S3*%
X33975669Y-142282000D02*
X33975669Y-157482000D01*
X33975669Y-157482000D02*
X49175669Y-157482000D01*
X49175669Y-142282000D02*
X33975669Y-142282000D01*
X49175669Y-157482000D02*
X49175669Y-142282000D01*
%TO.C,S8*%
X42144419Y-124757000D02*
X42144419Y-138957000D01*
X42144419Y-138957000D02*
X56344419Y-138957000D01*
X49444419Y-134557000D02*
X44344419Y-134557000D01*
X53344419Y-138757000D02*
X48244419Y-138757000D01*
X56344419Y-124757000D02*
X42144419Y-124757000D01*
X56344419Y-138957000D02*
X56344419Y-124757000D01*
X51444419Y-132557000D02*
G75*
G02*
X49444419Y-134557000I-1999999J-1D01*
G01*
X55344419Y-136757000D02*
G75*
G02*
X53344419Y-138757000I-1999999J-1D01*
G01*
%TO.C,S18*%
X82608169Y-105717000D02*
X82608169Y-119917000D01*
X82608169Y-119917000D02*
X96808169Y-119917000D01*
X89908169Y-115517000D02*
X84808169Y-115517000D01*
X93808169Y-119717000D02*
X88708169Y-119717000D01*
X96808169Y-105717000D02*
X82608169Y-105717000D01*
X96808169Y-119917000D02*
X96808169Y-105717000D01*
X91908169Y-113517000D02*
G75*
G02*
X89908169Y-115517000I-1999999J-1D01*
G01*
X95808169Y-117717000D02*
G75*
G02*
X93808169Y-119717000I-1999999J-1D01*
G01*
%TO.C,S6*%
X54048169Y-86677000D02*
X54048169Y-100877000D01*
X54048169Y-100877000D02*
X68248169Y-100877000D01*
X61348169Y-96477000D02*
X56248169Y-96477000D01*
X65248169Y-100677000D02*
X60148169Y-100677000D01*
X68248169Y-86677000D02*
X54048169Y-86677000D01*
X68248169Y-100877000D02*
X68248169Y-86677000D01*
X63348169Y-94477000D02*
G75*
G02*
X61348169Y-96477000I-1999999J-1D01*
G01*
X67248169Y-98677000D02*
G75*
G02*
X65248169Y-100677000I-1999999J-1D01*
G01*
%TO.C,S32*%
X163538169Y-48587000D02*
X163538169Y-62787000D01*
X163538169Y-48587000D02*
X163538169Y-62787000D01*
X163538169Y-62787000D02*
X177738169Y-62787000D01*
X163538169Y-62787000D02*
X177738169Y-62787000D01*
X170838169Y-58387000D02*
X165738169Y-58387000D01*
X174738169Y-62587000D02*
X169638169Y-62587000D01*
X177738169Y-48587000D02*
X163538169Y-48587000D01*
X177738169Y-48587000D02*
X163538169Y-48587000D01*
X177738169Y-62787000D02*
X177738169Y-48587000D01*
X177738169Y-62787000D02*
X177738169Y-48587000D01*
X172838169Y-56387000D02*
G75*
G02*
X170838169Y-58387000I-1999999J-1D01*
G01*
X176738169Y-60587000D02*
G75*
G02*
X174738169Y-62587000I-1999999J-1D01*
G01*
%TO.C,S33*%
X168300669Y-67637000D02*
X168300669Y-81837000D01*
X168300669Y-81837000D02*
X182500669Y-81837000D01*
X175600669Y-77437000D02*
X170500669Y-77437000D01*
X179500669Y-81637000D02*
X174400669Y-81637000D01*
X182500669Y-67637000D02*
X168300669Y-67637000D01*
X182500669Y-81837000D02*
X182500669Y-67637000D01*
X177600669Y-75437000D02*
G75*
G02*
X175600669Y-77437000I-1999999J-1D01*
G01*
X181500669Y-79637000D02*
G75*
G02*
X179500669Y-81637000I-1999999J-1D01*
G01*
%TO.C,S25*%
X125448169Y-67637000D02*
X125448169Y-81837000D01*
X125448169Y-81837000D02*
X139648169Y-81837000D01*
X132748169Y-77437000D02*
X127648169Y-77437000D01*
X136648169Y-81637000D02*
X131548169Y-81637000D01*
X139648169Y-67637000D02*
X125448169Y-67637000D01*
X139648169Y-81837000D02*
X139648169Y-67637000D01*
X134748169Y-75437000D02*
G75*
G02*
X132748169Y-77437000I-1999999J-1D01*
G01*
X138648169Y-79637000D02*
G75*
G02*
X136648169Y-81637000I-1999999J-1D01*
G01*
%TO.C,S5*%
X49288169Y-67637000D02*
X49288169Y-81837000D01*
X49288169Y-81837000D02*
X63488169Y-81837000D01*
X56588169Y-77437000D02*
X51488169Y-77437000D01*
X60488169Y-81637000D02*
X55388169Y-81637000D01*
X63488169Y-67637000D02*
X49288169Y-67637000D01*
X63488169Y-81837000D02*
X63488169Y-67637000D01*
X58588169Y-75437000D02*
G75*
G02*
X56588169Y-77437000I-1999999J-1D01*
G01*
X62488169Y-79637000D02*
G75*
G02*
X60488169Y-81637000I-1999999J-1D01*
G01*
%TO.C,S7*%
X44528169Y-105717000D02*
X44528169Y-119917000D01*
X44528169Y-119917000D02*
X58728169Y-119917000D01*
X51828169Y-115517000D02*
X46728169Y-115517000D01*
X55728169Y-119717000D02*
X50628169Y-119717000D01*
X58728169Y-105717000D02*
X44528169Y-105717000D01*
X58728169Y-119917000D02*
X58728169Y-105717000D01*
X53828169Y-113517000D02*
G75*
G02*
X51828169Y-115517000I-1999999J-1D01*
G01*
X57728169Y-117717000D02*
G75*
G02*
X55728169Y-119717000I-1999999J-1D01*
G01*
%TO.C,S36*%
X170681919Y-124757000D02*
X170681919Y-138957000D01*
X170681919Y-138957000D02*
X184881919Y-138957000D01*
X177981919Y-134557000D02*
X172881919Y-134557000D01*
X181881919Y-138757000D02*
X176781919Y-138757000D01*
X184881919Y-124757000D02*
X170681919Y-124757000D01*
X184881919Y-138957000D02*
X184881919Y-124757000D01*
X179981919Y-132557000D02*
G75*
G02*
X177981919Y-134557000I-1999999J-1D01*
G01*
X183881919Y-136757000D02*
G75*
G02*
X181881919Y-138757000I-1999999J-1D01*
G01*
%TO.C,S30*%
X144488169Y-67637000D02*
X144488169Y-81837000D01*
X144488169Y-81837000D02*
X158688169Y-81837000D01*
X151788169Y-77437000D02*
X146688169Y-77437000D01*
X155688169Y-81637000D02*
X150588169Y-81637000D01*
X158688169Y-67637000D02*
X144488169Y-67637000D01*
X158688169Y-81837000D02*
X158688169Y-67637000D01*
X153788169Y-75437000D02*
G75*
G02*
X151788169Y-77437000I-1999999J-1D01*
G01*
X157688169Y-79637000D02*
G75*
G02*
X155688169Y-81637000I-1999999J-1D01*
G01*
%TO.C,S2*%
X35008169Y-86677000D02*
X35008169Y-100877000D01*
X35008169Y-100877000D02*
X49208169Y-100877000D01*
X42308169Y-96477000D02*
X37208169Y-96477000D01*
X46208169Y-100677000D02*
X41108169Y-100677000D01*
X49208169Y-86677000D02*
X35008169Y-86677000D01*
X49208169Y-100877000D02*
X49208169Y-86677000D01*
X44308169Y-94477000D02*
G75*
G02*
X42308169Y-96477000I-1999999J-1D01*
G01*
X48208169Y-98677000D02*
G75*
G02*
X46208169Y-100677000I-1999999J-1D01*
G01*
%TO.C,S27*%
X120688169Y-105717000D02*
X120688169Y-119917000D01*
X120688169Y-119917000D02*
X134888169Y-119917000D01*
X127988169Y-115517000D02*
X122888169Y-115517000D01*
X131888169Y-119717000D02*
X126788169Y-119717000D01*
X134888169Y-105717000D02*
X120688169Y-105717000D01*
X134888169Y-119917000D02*
X134888169Y-105717000D01*
X129988169Y-113517000D02*
G75*
G02*
X127988169Y-115517000I-1999999J-1D01*
G01*
X133888169Y-117717000D02*
G75*
G02*
X131888169Y-119717000I-1999999J-1D01*
G01*
%TO.C,S9*%
X58803169Y-48587000D02*
X58803169Y-62787000D01*
X58803169Y-62787000D02*
X73003169Y-62787000D01*
X66103169Y-58387000D02*
X61003169Y-58387000D01*
X70003169Y-62587000D02*
X64903169Y-62587000D01*
X73003169Y-48587000D02*
X58803169Y-48587000D01*
X73003169Y-62787000D02*
X73003169Y-48587000D01*
X68103169Y-56387000D02*
G75*
G02*
X66103169Y-58387000I-1999999J-1D01*
G01*
X72003169Y-60587000D02*
G75*
G02*
X70003169Y-62587000I-1999999J-1D01*
G01*
%TO.C,S10*%
X68328169Y-67637000D02*
X68328169Y-81837000D01*
X68328169Y-81837000D02*
X82528169Y-81837000D01*
X75628169Y-77437000D02*
X70528169Y-77437000D01*
X79528169Y-81637000D02*
X74428169Y-81637000D01*
X82528169Y-67637000D02*
X68328169Y-67637000D01*
X82528169Y-81837000D02*
X82528169Y-67637000D01*
X77628169Y-75437000D02*
G75*
G02*
X75628169Y-77437000I-1999999J-1D01*
G01*
X81528169Y-79637000D02*
G75*
G02*
X79528169Y-81637000I-1999999J-1D01*
G01*
%TO.C,S1*%
X30248169Y-67637000D02*
X30248169Y-81837000D01*
X30248169Y-81837000D02*
X44448169Y-81837000D01*
X37548169Y-77437000D02*
X32448169Y-77437000D01*
X41448169Y-81637000D02*
X36348169Y-81637000D01*
X44448169Y-67637000D02*
X30248169Y-67637000D01*
X44448169Y-81837000D02*
X44448169Y-67637000D01*
X39548169Y-75437000D02*
G75*
G02*
X37548169Y-77437000I-1999999J-1D01*
G01*
X43448169Y-79637000D02*
G75*
G02*
X41448169Y-81637000I-1999999J-1D01*
G01*
%TO.C,S13*%
X73085669Y-124757000D02*
X73085669Y-138957000D01*
X73085669Y-138957000D02*
X87285669Y-138957000D01*
X80385669Y-134557000D02*
X75285669Y-134557000D01*
X84285669Y-138757000D02*
X79185669Y-138757000D01*
X87285669Y-124757000D02*
X73085669Y-124757000D01*
X87285669Y-138957000D02*
X87285669Y-124757000D01*
X82385669Y-132557000D02*
G75*
G02*
X80385669Y-134557000I-1999999J-1D01*
G01*
X86285669Y-136757000D02*
G75*
G02*
X84285669Y-138757000I-1999999J-1D01*
G01*
%TO.C,S17*%
X92128169Y-86677000D02*
X92128169Y-100877000D01*
X92128169Y-100877000D02*
X106328169Y-100877000D01*
X99428169Y-96477000D02*
X94328169Y-96477000D01*
X103328169Y-100677000D02*
X98228169Y-100677000D01*
X106328169Y-86677000D02*
X92128169Y-86677000D01*
X106328169Y-100877000D02*
X106328169Y-86677000D01*
X101428169Y-94477000D02*
G75*
G02*
X99428169Y-96477000I-1999999J-1D01*
G01*
X105328169Y-98677000D02*
G75*
G02*
X103328169Y-100677000I-1999999J-1D01*
G01*
%TO.C,S23*%
X99266919Y-124757000D02*
X99266919Y-138957000D01*
X99266919Y-138957000D02*
X113466919Y-138957000D01*
X106566919Y-134557000D02*
X101466919Y-134557000D01*
X110466919Y-138757000D02*
X105366919Y-138757000D01*
X113466919Y-124757000D02*
X99266919Y-124757000D01*
X113466919Y-138957000D02*
X113466919Y-124757000D01*
X108566919Y-132557000D02*
G75*
G02*
X106566919Y-134557000I-1999999J-1D01*
G01*
X112466919Y-136757000D02*
G75*
G02*
X110466919Y-138757000I-1999999J-1D01*
G01*
%TO.C,S21*%
X111168169Y-86677000D02*
X111168169Y-100877000D01*
X111168169Y-100877000D02*
X125368169Y-100877000D01*
X118468169Y-96477000D02*
X113368169Y-96477000D01*
X122368169Y-100677000D02*
X117268169Y-100677000D01*
X125368169Y-86677000D02*
X111168169Y-86677000D01*
X125368169Y-100877000D02*
X125368169Y-86677000D01*
X120468169Y-94477000D02*
G75*
G02*
X118468169Y-96477000I-1999999J-1D01*
G01*
X124368169Y-98677000D02*
G75*
G02*
X122368169Y-100677000I-1999999J-1D01*
G01*
%TO.C,S31*%
X146866919Y-124757000D02*
X146866919Y-138957000D01*
X146866919Y-138957000D02*
X161066919Y-138957000D01*
X154166919Y-134557000D02*
X149066919Y-134557000D01*
X158066919Y-138757000D02*
X152966919Y-138757000D01*
X161066919Y-124757000D02*
X146866919Y-124757000D01*
X161066919Y-138957000D02*
X161066919Y-124757000D01*
X156166919Y-132557000D02*
G75*
G02*
X154166919Y-134557000I-1999999J-1D01*
G01*
X160066919Y-136757000D02*
G75*
G02*
X158066919Y-138757000I-1999999J-1D01*
G01*
%TO.C,S28*%
X123066919Y-124757000D02*
X123066919Y-138957000D01*
X123066919Y-138957000D02*
X137266919Y-138957000D01*
X130366919Y-134557000D02*
X125266919Y-134557000D01*
X134266919Y-138757000D02*
X129166919Y-138757000D01*
X137266919Y-124757000D02*
X123066919Y-124757000D01*
X137266919Y-138957000D02*
X137266919Y-124757000D01*
X132366919Y-132557000D02*
G75*
G02*
X130366919Y-134557000I-1999999J-1D01*
G01*
X136266919Y-136757000D02*
G75*
G02*
X134266919Y-138757000I-1999999J-1D01*
G01*
%TO.C,S24*%
X115923169Y-48587000D02*
X115923169Y-62787000D01*
X115923169Y-62787000D02*
X130123169Y-62787000D01*
X123223169Y-58387000D02*
X118123169Y-58387000D01*
X127123169Y-62587000D02*
X122023169Y-62587000D01*
X130123169Y-48587000D02*
X115923169Y-48587000D01*
X130123169Y-62787000D02*
X130123169Y-48587000D01*
X125223169Y-56387000D02*
G75*
G02*
X123223169Y-58387000I-1999999J-1D01*
G01*
X129123169Y-60587000D02*
G75*
G02*
X127123169Y-62587000I-1999999J-1D01*
G01*
%TO.C,S35*%
X156394419Y-105717000D02*
X156394419Y-119917000D01*
X156394419Y-119917000D02*
X170594419Y-119917000D01*
X163694419Y-115517000D02*
X158594419Y-115517000D01*
X167594419Y-119717000D02*
X162494419Y-119717000D01*
X170594419Y-105717000D02*
X156394419Y-105717000D01*
X170594419Y-119917000D02*
X170594419Y-105717000D01*
X165694419Y-113517000D02*
G75*
G02*
X163694419Y-115517000I-1999999J-1D01*
G01*
X169594419Y-117717000D02*
G75*
G02*
X167594419Y-119717000I-1999999J-1D01*
G01*
%TO.C,J1*%
X100015790Y-37603143D02*
X117746102Y-41242655D01*
X102310089Y-26426191D02*
X100013779Y-37612940D01*
X117746102Y-41242655D02*
X120040400Y-30065702D01*
X120040400Y-30065702D02*
X102310089Y-26426191D01*
%TO.C,S26*%
X130208169Y-86677000D02*
X130208169Y-100877000D01*
X130208169Y-100877000D02*
X144408169Y-100877000D01*
X137508169Y-96477000D02*
X132408169Y-96477000D01*
X141408169Y-100677000D02*
X136308169Y-100677000D01*
X144408169Y-86677000D02*
X130208169Y-86677000D01*
X144408169Y-100877000D02*
X144408169Y-86677000D01*
X139508169Y-94477000D02*
G75*
G02*
X137508169Y-96477000I-1999999J-1D01*
G01*
X143408169Y-98677000D02*
G75*
G02*
X141408169Y-100677000I-1999999J-1D01*
G01*
%TO.C,S11*%
X73088169Y-86677000D02*
X73088169Y-100877000D01*
X73088169Y-100877000D02*
X87288169Y-100877000D01*
X80388169Y-96477000D02*
X75288169Y-96477000D01*
X84288169Y-100677000D02*
X79188169Y-100677000D01*
X87288169Y-86677000D02*
X73088169Y-86677000D01*
X87288169Y-100877000D02*
X87288169Y-86677000D01*
X82388169Y-94477000D02*
G75*
G02*
X80388169Y-96477000I-1999999J-1D01*
G01*
X86288169Y-98677000D02*
G75*
G02*
X84288169Y-100677000I-1999999J-1D01*
G01*
%TO.C,S4*%
X39763169Y-48587000D02*
X39763169Y-62787000D01*
X39763169Y-62787000D02*
X53963169Y-62787000D01*
X47063169Y-58387000D02*
X41963169Y-58387000D01*
X50963169Y-62587000D02*
X45863169Y-62587000D01*
X53963169Y-48587000D02*
X39763169Y-48587000D01*
X53963169Y-62787000D02*
X53963169Y-48587000D01*
X49063169Y-56387000D02*
G75*
G02*
X47063169Y-58387000I-1999999J-1D01*
G01*
X52963169Y-60587000D02*
G75*
G02*
X50963169Y-62587000I-1999999J-1D01*
G01*
%TO.C,S12*%
X63568169Y-105717000D02*
X63568169Y-119917000D01*
X63568169Y-119917000D02*
X77768169Y-119917000D01*
X70868169Y-115517000D02*
X65768169Y-115517000D01*
X74768169Y-119717000D02*
X69668169Y-119717000D01*
X77768169Y-105717000D02*
X63568169Y-105717000D01*
X77768169Y-119917000D02*
X77768169Y-105717000D01*
X72868169Y-113517000D02*
G75*
G02*
X70868169Y-115517000I-1999999J-1D01*
G01*
X76768169Y-117717000D02*
G75*
G02*
X74768169Y-119717000I-1999999J-1D01*
G01*
%TO.C,S14*%
X58725669Y-142282000D02*
X58725669Y-157482000D01*
X58725669Y-157482000D02*
X73925669Y-157482000D01*
X73925669Y-142282000D02*
X58725669Y-142282000D01*
X73925669Y-157482000D02*
X73925669Y-142282000D01*
%TO.C,S20*%
X106408169Y-67637000D02*
X106408169Y-81837000D01*
X106408169Y-81837000D02*
X120608169Y-81837000D01*
X113708169Y-77437000D02*
X108608169Y-77437000D01*
X117608169Y-81637000D02*
X112508169Y-81637000D01*
X120608169Y-67637000D02*
X106408169Y-67637000D01*
X120608169Y-81837000D02*
X120608169Y-67637000D01*
X115708169Y-75437000D02*
G75*
G02*
X113708169Y-77437000I-1999999J-1D01*
G01*
X119608169Y-79637000D02*
G75*
G02*
X117608169Y-81637000I-1999999J-1D01*
G01*
%TO.C,S19*%
X96883169Y-48587000D02*
X96883169Y-62787000D01*
X96883169Y-62787000D02*
X111083169Y-62787000D01*
X104183169Y-58387000D02*
X99083169Y-58387000D01*
X108083169Y-62587000D02*
X102983169Y-62587000D01*
X111083169Y-48587000D02*
X96883169Y-48587000D01*
X111083169Y-62787000D02*
X111083169Y-48587000D01*
X106183169Y-56387000D02*
G75*
G02*
X104183169Y-58387000I-1999999J-1D01*
G01*
X110083169Y-60587000D02*
G75*
G02*
X108083169Y-62587000I-1999999J-1D01*
G01*
%TO.C,S22*%
X101648169Y-105717000D02*
X101648169Y-119917000D01*
X101648169Y-119917000D02*
X115848169Y-119917000D01*
X108948169Y-115517000D02*
X103848169Y-115517000D01*
X112848169Y-119717000D02*
X107748169Y-119717000D01*
X115848169Y-105717000D02*
X101648169Y-105717000D01*
X115848169Y-119917000D02*
X115848169Y-105717000D01*
X110948169Y-113517000D02*
G75*
G02*
X108948169Y-115517000I-1999999J-1D01*
G01*
X114848169Y-117717000D02*
G75*
G02*
X112848169Y-119717000I-1999999J-1D01*
G01*
%TO.C,S15*%
X77843169Y-48587000D02*
X77843169Y-62787000D01*
X77843169Y-62787000D02*
X92043169Y-62787000D01*
X85143169Y-58387000D02*
X80043169Y-58387000D01*
X89043169Y-62587000D02*
X83943169Y-62587000D01*
X92043169Y-48587000D02*
X77843169Y-48587000D01*
X92043169Y-62787000D02*
X92043169Y-48587000D01*
X87143169Y-56387000D02*
G75*
G02*
X85143169Y-58387000I-1999999J-1D01*
G01*
X91043169Y-60587000D02*
G75*
G02*
X89043169Y-62587000I-1999999J-1D01*
G01*
%TO.C,S16*%
X87368169Y-67637000D02*
X87368169Y-81837000D01*
X87368169Y-81837000D02*
X101568169Y-81837000D01*
X94668169Y-77437000D02*
X89568169Y-77437000D01*
X98568169Y-81637000D02*
X93468169Y-81637000D01*
X101568169Y-67637000D02*
X87368169Y-67637000D01*
X101568169Y-81837000D02*
X101568169Y-67637000D01*
X96668169Y-75437000D02*
G75*
G02*
X94668169Y-77437000I-1999999J-1D01*
G01*
X100568169Y-79637000D02*
G75*
G02*
X98568169Y-81637000I-1999999J-1D01*
G01*
%TO.C,S29*%
X134963169Y-48587000D02*
X134963169Y-62787000D01*
X134963169Y-62787000D02*
X149163169Y-62787000D01*
X142263169Y-58387000D02*
X137163169Y-58387000D01*
X146163169Y-62587000D02*
X141063169Y-62587000D01*
X149163169Y-48587000D02*
X134963169Y-48587000D01*
X149163169Y-62787000D02*
X149163169Y-48587000D01*
X144263169Y-56387000D02*
G75*
G02*
X142263169Y-58387000I-1999999J-1D01*
G01*
X148163169Y-60587000D02*
G75*
G02*
X146163169Y-62587000I-1999999J-1D01*
G01*
%TO.C,S34*%
X161156919Y-86677000D02*
X161156919Y-100877000D01*
X161156919Y-100877000D02*
X175356919Y-100877000D01*
X168456919Y-96477000D02*
X163356919Y-96477000D01*
X172356919Y-100677000D02*
X167256919Y-100677000D01*
X175356919Y-86677000D02*
X161156919Y-86677000D01*
X175356919Y-100877000D02*
X175356919Y-86677000D01*
X170456919Y-94477000D02*
G75*
G02*
X168456919Y-96477000I-1999999J-1D01*
G01*
X174356919Y-98677000D02*
G75*
G02*
X172356919Y-100677000I-1999999J-1D01*
G01*
D13*
%TO.C,D31*%
X163483169Y-128487000D02*
X163483169Y-126787000D01*
D10*
X163823169Y-132337000D02*
X164478169Y-131167000D01*
X164478169Y-131167000D02*
X165153169Y-132337000D01*
X165143169Y-131167000D02*
X163813169Y-131167000D01*
X165153169Y-132337000D02*
X163823169Y-132337000D01*
D13*
X165433169Y-126787000D02*
X163483169Y-126787000D01*
X165443169Y-128507000D02*
X165443169Y-126797000D01*
D12*
%TO.C,JP3*%
X77785669Y-143852000D02*
X80585669Y-143852000D01*
X77785669Y-145852000D02*
X77785669Y-143852000D01*
X80585669Y-143852000D02*
X80585669Y-145852000D01*
X80585669Y-145852000D02*
X77785669Y-145852000D01*
%TO.C,JP2*%
X108733169Y-156687000D02*
X110733169Y-156687000D01*
X108733169Y-159487000D02*
X108733169Y-156687000D01*
X110733169Y-156687000D02*
X110733169Y-159487000D01*
X110733169Y-159487000D02*
X108733169Y-159487000D01*
D10*
%TO.C,D11*%
X77043169Y-101777000D02*
X78213169Y-102432000D01*
X77043169Y-103107000D02*
X77043169Y-101777000D01*
X78213169Y-102432000D02*
X77043169Y-103107000D01*
X78213169Y-103097000D02*
X78213169Y-101767000D01*
D13*
X80873169Y-103397000D02*
X82583169Y-103397000D01*
X80893169Y-101437000D02*
X82593169Y-101437000D01*
X82593169Y-103387000D02*
X82593169Y-101437000D01*
D10*
%TO.C,D9*%
X64863169Y-63667000D02*
X66033169Y-64322000D01*
X64863169Y-64997000D02*
X64863169Y-63667000D01*
X66033169Y-64322000D02*
X64863169Y-64997000D01*
X66033169Y-64987000D02*
X66033169Y-63657000D01*
D13*
X68693169Y-65287000D02*
X70403169Y-65287000D01*
X68713169Y-63327000D02*
X70413169Y-63327000D01*
X70413169Y-65277000D02*
X70413169Y-63327000D01*
D12*
%TO.C,U1*%
X133933169Y-162797000D02*
X133933169Y-141797000D01*
X134233169Y-141797000D02*
X133933169Y-141797000D01*
X134233169Y-162797000D02*
X133933169Y-162797000D01*
X136733169Y-141797000D02*
X136333169Y-141797000D01*
X136733169Y-162797000D02*
X136333169Y-162797000D01*
X139333169Y-141797000D02*
X138933169Y-141797000D01*
X139333169Y-162797000D02*
X138933169Y-162797000D01*
X141833169Y-141797000D02*
X141433169Y-141797000D01*
X141833169Y-162797000D02*
X141433169Y-162797000D01*
X144433169Y-141797000D02*
X144033169Y-141797000D01*
X144433169Y-162797000D02*
X144033169Y-162797000D01*
X146933169Y-141797000D02*
X146533169Y-141797000D01*
X146933169Y-162797000D02*
X146533169Y-162797000D01*
X149433169Y-141797000D02*
X149033169Y-141797000D01*
X149433169Y-162797000D02*
X149033169Y-162797000D01*
X152033169Y-141797000D02*
X151633169Y-141797000D01*
X152033169Y-162797000D02*
X151633169Y-162797000D01*
X154533169Y-141797000D02*
X154133169Y-141797000D01*
X154533169Y-162797000D02*
X154133169Y-162797000D01*
X157133169Y-141797000D02*
X156733169Y-141797000D01*
X157133169Y-162797000D02*
X156733169Y-162797000D01*
X159633169Y-141797000D02*
X159233169Y-141797000D01*
X159633169Y-162797000D02*
X159233169Y-162797000D01*
X162133169Y-141797000D02*
X161733169Y-141797000D01*
X162133169Y-162797000D02*
X161733169Y-162797000D01*
X164733169Y-141797000D02*
X164333169Y-141797000D01*
X164733169Y-162797000D02*
X164333169Y-162797000D01*
X167233169Y-141797000D02*
X166833169Y-141797000D01*
X167233169Y-162797000D02*
X166833169Y-162797000D01*
X169833169Y-141797000D02*
X169433169Y-141797000D01*
X169833169Y-162797000D02*
X169433169Y-162797000D01*
X172333169Y-141797000D02*
X171933169Y-141797000D01*
X172333169Y-162797000D02*
X171933169Y-162797000D01*
X174933169Y-141797000D02*
X174533169Y-141797000D01*
X174933169Y-162797000D02*
X174533169Y-162797000D01*
X177433169Y-141797000D02*
X177033169Y-141797000D01*
X177433169Y-162797000D02*
X177033169Y-162797000D01*
X179933169Y-141797000D02*
X179533169Y-141797000D01*
X179933169Y-162797000D02*
X179533169Y-162797000D01*
X182533169Y-141797000D02*
X182133169Y-141797000D01*
X182533169Y-162797000D02*
X182133169Y-162797000D01*
X184933169Y-141797000D02*
X184933169Y-148597000D01*
X184933169Y-151197000D02*
X184933169Y-150797000D01*
X184933169Y-153797000D02*
X184933169Y-153397000D01*
X184933169Y-155997000D02*
X184933169Y-162797000D01*
D10*
%TO.C,D24*%
X122013169Y-63687000D02*
X123183169Y-64342000D01*
X122013169Y-65017000D02*
X122013169Y-63687000D01*
X123183169Y-64342000D02*
X122013169Y-65017000D01*
X123183169Y-65007000D02*
X123183169Y-63677000D01*
D13*
X125843169Y-65307000D02*
X127553169Y-65307000D01*
X125863169Y-63347000D02*
X127563169Y-63347000D01*
X127563169Y-65297000D02*
X127563169Y-63347000D01*
%TO.C,D28*%
X116263169Y-130417000D02*
X116263169Y-128717000D01*
D10*
X116603169Y-134267000D02*
X117258169Y-133097000D01*
X117258169Y-133097000D02*
X117933169Y-134267000D01*
X117923169Y-133097000D02*
X116593169Y-133097000D01*
X117933169Y-134267000D02*
X116603169Y-134267000D01*
D13*
X118213169Y-128717000D02*
X116263169Y-128717000D01*
X118223169Y-130437000D02*
X118223169Y-128727000D01*
%TO.C,D36*%
X167483169Y-128487000D02*
X167483169Y-126787000D01*
D10*
X167823169Y-132337000D02*
X168478169Y-131167000D01*
X168478169Y-131167000D02*
X169153169Y-132337000D01*
X169143169Y-131167000D02*
X167813169Y-131167000D01*
X169153169Y-132337000D02*
X167823169Y-132337000D01*
D13*
X169433169Y-126787000D02*
X167483169Y-126787000D01*
X169443169Y-128507000D02*
X169443169Y-126797000D01*
D10*
%TO.C,D12*%
X69970669Y-120748250D02*
X71140669Y-121403250D01*
X69970669Y-122078250D02*
X69970669Y-120748250D01*
X71140669Y-121403250D02*
X69970669Y-122078250D01*
X71140669Y-122068250D02*
X71140669Y-120738250D01*
D13*
X73800669Y-122368250D02*
X75510669Y-122368250D01*
X73820669Y-120408250D02*
X75520669Y-120408250D01*
X75520669Y-122358250D02*
X75520669Y-120408250D01*
D10*
%TO.C,D25*%
X132993169Y-82667000D02*
X134163169Y-83322000D01*
X132993169Y-83997000D02*
X132993169Y-82667000D01*
X134163169Y-83322000D02*
X132993169Y-83997000D01*
X134163169Y-83987000D02*
X134163169Y-82657000D01*
D13*
X136823169Y-84287000D02*
X138533169Y-84287000D01*
X136843169Y-82327000D02*
X138543169Y-82327000D01*
X138543169Y-84277000D02*
X138543169Y-82327000D01*
%TO.C,D3*%
X51143169Y-147017000D02*
X51143169Y-145317000D01*
D10*
X51483169Y-150867000D02*
X52138169Y-149697000D01*
X52138169Y-149697000D02*
X52813169Y-150867000D01*
X52803169Y-149697000D02*
X51473169Y-149697000D01*
X52813169Y-150867000D02*
X51483169Y-150867000D01*
D13*
X53093169Y-145317000D02*
X51143169Y-145317000D01*
X53103169Y-147037000D02*
X53103169Y-145327000D01*
D10*
%TO.C,D22*%
X106923169Y-120797000D02*
X108093169Y-121452000D01*
X106923169Y-122127000D02*
X106923169Y-120797000D01*
X108093169Y-121452000D02*
X106923169Y-122127000D01*
X108093169Y-122117000D02*
X108093169Y-120787000D01*
D13*
X110753169Y-122417000D02*
X112463169Y-122417000D01*
X110773169Y-120457000D02*
X112473169Y-120457000D01*
X112473169Y-122407000D02*
X112473169Y-120457000D01*
D10*
%TO.C,D33*%
X173453169Y-82727000D02*
X174623169Y-83382000D01*
X173453169Y-84057000D02*
X173453169Y-82727000D01*
X174623169Y-83382000D02*
X173453169Y-84057000D01*
X174623169Y-84047000D02*
X174623169Y-82717000D01*
D13*
X177283169Y-84347000D02*
X178993169Y-84347000D01*
X177303169Y-82387000D02*
X179003169Y-82387000D01*
X179003169Y-84337000D02*
X179003169Y-82387000D01*
D10*
%TO.C,D7*%
X51703169Y-120927000D02*
X52873169Y-121582000D01*
X51703169Y-122257000D02*
X51703169Y-120927000D01*
X52873169Y-121582000D02*
X51703169Y-122257000D01*
X52873169Y-122247000D02*
X52873169Y-120917000D01*
D13*
X55533169Y-122547000D02*
X57243169Y-122547000D01*
X55553169Y-120587000D02*
X57253169Y-120587000D01*
X57253169Y-122537000D02*
X57253169Y-120587000D01*
D10*
%TO.C,D30*%
X151593169Y-82707000D02*
X152763169Y-83362000D01*
X151593169Y-84037000D02*
X151593169Y-82707000D01*
X152763169Y-83362000D02*
X151593169Y-84037000D01*
X152763169Y-84027000D02*
X152763169Y-82697000D01*
D13*
X155423169Y-84327000D02*
X157133169Y-84327000D01*
X155443169Y-82367000D02*
X157143169Y-82367000D01*
X157143169Y-84317000D02*
X157143169Y-82367000D01*
%TO.C,D14*%
X54951919Y-147054500D02*
X54951919Y-145354500D01*
D10*
X55291919Y-150904500D02*
X55946919Y-149734500D01*
X55946919Y-149734500D02*
X56621919Y-150904500D01*
X56611919Y-149734500D02*
X55281919Y-149734500D01*
X56621919Y-150904500D02*
X55291919Y-150904500D01*
D13*
X56901919Y-145354500D02*
X54951919Y-145354500D01*
X56911919Y-147074500D02*
X56911919Y-145364500D01*
D10*
%TO.C,D15*%
X83333169Y-63657000D02*
X84503169Y-64312000D01*
X83333169Y-64987000D02*
X83333169Y-63657000D01*
X84503169Y-64312000D02*
X83333169Y-64987000D01*
X84503169Y-64977000D02*
X84503169Y-63647000D01*
D13*
X87163169Y-65277000D02*
X88873169Y-65277000D01*
X87183169Y-63317000D02*
X88883169Y-63317000D01*
X88883169Y-65267000D02*
X88883169Y-63317000D01*
D10*
%TO.C,D16*%
X93893169Y-82547000D02*
X95063169Y-83202000D01*
X93893169Y-83877000D02*
X93893169Y-82547000D01*
X95063169Y-83202000D02*
X93893169Y-83877000D01*
X95063169Y-83867000D02*
X95063169Y-82537000D01*
D13*
X97723169Y-84167000D02*
X99433169Y-84167000D01*
X97743169Y-82207000D02*
X99443169Y-82207000D01*
X99443169Y-84157000D02*
X99443169Y-82207000D01*
D10*
%TO.C,D1*%
X40583169Y-82747000D02*
X41753169Y-83402000D01*
X40583169Y-84077000D02*
X40583169Y-82747000D01*
X41753169Y-83402000D02*
X40583169Y-84077000D01*
X41753169Y-84067000D02*
X41753169Y-82737000D01*
D13*
X44413169Y-84367000D02*
X46123169Y-84367000D01*
X44433169Y-82407000D02*
X46133169Y-82407000D01*
X46133169Y-84357000D02*
X46133169Y-82407000D01*
D10*
%TO.C,D6*%
X64214419Y-101707000D02*
X65384419Y-102362000D01*
X64214419Y-103037000D02*
X64214419Y-101707000D01*
X65384419Y-102362000D02*
X64214419Y-103037000D01*
X65384419Y-103027000D02*
X65384419Y-101697000D01*
D13*
X68044419Y-103327000D02*
X69754419Y-103327000D01*
X68064419Y-101367000D02*
X69764419Y-101367000D01*
X69764419Y-103317000D02*
X69764419Y-101367000D01*
D10*
%TO.C,D17*%
X97823169Y-101707000D02*
X98993169Y-102362000D01*
X97823169Y-103037000D02*
X97823169Y-101707000D01*
X98993169Y-102362000D02*
X97823169Y-103037000D01*
X98993169Y-103027000D02*
X98993169Y-101697000D01*
D13*
X101653169Y-103327000D02*
X103363169Y-103327000D01*
X101673169Y-101367000D02*
X103373169Y-101367000D01*
X103373169Y-103317000D02*
X103373169Y-101367000D01*
D10*
%TO.C,D37*%
X123607670Y-44932518D02*
X123875103Y-43629683D01*
X123875103Y-43629683D02*
X124889500Y-44506566D01*
X124755783Y-45157984D02*
X125023217Y-43855149D01*
X124889500Y-44506566D02*
X123607670Y-44932518D01*
D13*
X127301130Y-45986724D02*
X128976204Y-46330567D01*
X127714834Y-44070778D02*
X129380112Y-44412610D01*
X128988010Y-46322782D02*
X129380112Y-44412610D01*
D10*
%TO.C,D18*%
X90633169Y-120877000D02*
X91803169Y-121532000D01*
X90633169Y-122207000D02*
X90633169Y-120877000D01*
X91803169Y-121532000D02*
X90633169Y-122207000D01*
X91803169Y-122197000D02*
X91803169Y-120867000D01*
D13*
X94463169Y-122497000D02*
X96173169Y-122497000D01*
X94483169Y-120537000D02*
X96183169Y-120537000D01*
X96183169Y-122487000D02*
X96183169Y-120537000D01*
D10*
%TO.C,D34*%
X167393169Y-101727000D02*
X168563169Y-102382000D01*
X167393169Y-103057000D02*
X167393169Y-101727000D01*
X168563169Y-102382000D02*
X167393169Y-103057000D01*
X168563169Y-103047000D02*
X168563169Y-101717000D01*
D13*
X171223169Y-103347000D02*
X172933169Y-103347000D01*
X171243169Y-101387000D02*
X172943169Y-101387000D01*
X172943169Y-103337000D02*
X172943169Y-101387000D01*
D10*
%TO.C,D21*%
X115263169Y-101887000D02*
X116433169Y-102542000D01*
X115263169Y-103217000D02*
X115263169Y-101887000D01*
X116433169Y-102542000D02*
X115263169Y-103217000D01*
X116433169Y-103207000D02*
X116433169Y-101877000D01*
D13*
X119093169Y-103507000D02*
X120803169Y-103507000D01*
X119113169Y-101547000D02*
X120813169Y-101547000D01*
X120813169Y-103497000D02*
X120813169Y-101547000D01*
D10*
%TO.C,D19*%
X103113169Y-63620419D02*
X104283169Y-64275419D01*
X103113169Y-64950419D02*
X103113169Y-63620419D01*
X104283169Y-64275419D02*
X103113169Y-64950419D01*
X104283169Y-64940419D02*
X104283169Y-63610419D01*
D13*
X106943169Y-65240419D02*
X108653169Y-65240419D01*
X106963169Y-63280419D02*
X108663169Y-63280419D01*
X108663169Y-65230419D02*
X108663169Y-63280419D01*
D12*
%TO.C,JP1*%
X104443169Y-156657000D02*
X106443169Y-156657000D01*
X104443169Y-159457000D02*
X104443169Y-156657000D01*
X106443169Y-156657000D02*
X106443169Y-159457000D01*
X106443169Y-159457000D02*
X104443169Y-159457000D01*
%TO.C,U2*%
X95525669Y-145127000D02*
X95525669Y-146527000D01*
X97845669Y-145127000D02*
X97845669Y-146537000D01*
X98125669Y-147147000D02*
X97795669Y-146907000D01*
X98125669Y-146667000D01*
X98125669Y-147147000D01*
G36*
X98125669Y-147147000D02*
G01*
X97795669Y-146907000D01*
X98125669Y-146667000D01*
X98125669Y-147147000D01*
G37*
D10*
%TO.C,D35*%
X163293169Y-120827000D02*
X164463169Y-121482000D01*
X163293169Y-122157000D02*
X163293169Y-120827000D01*
X164463169Y-121482000D02*
X163293169Y-122157000D01*
X164463169Y-122147000D02*
X164463169Y-120817000D01*
D13*
X167123169Y-122447000D02*
X168833169Y-122447000D01*
X167143169Y-120487000D02*
X168843169Y-120487000D01*
X168843169Y-122437000D02*
X168843169Y-120487000D01*
D10*
%TO.C,D10*%
X74143169Y-82667000D02*
X75313169Y-83322000D01*
X74143169Y-83997000D02*
X74143169Y-82667000D01*
X75313169Y-83322000D02*
X74143169Y-83997000D01*
X75313169Y-83987000D02*
X75313169Y-82657000D01*
D13*
X77973169Y-84287000D02*
X79683169Y-84287000D01*
X77993169Y-82327000D02*
X79693169Y-82327000D01*
X79693169Y-84277000D02*
X79693169Y-82327000D01*
D12*
%TO.C,JP4*%
X88313169Y-150457000D02*
X91113169Y-150457000D01*
X88313169Y-152457000D02*
X88313169Y-150457000D01*
X91113169Y-150457000D02*
X91113169Y-152457000D01*
X91113169Y-152457000D02*
X88313169Y-152457000D01*
D10*
%TO.C,D23*%
X103383169Y-139917000D02*
X104553169Y-140572000D01*
X103383169Y-141247000D02*
X103383169Y-139917000D01*
X104553169Y-140572000D02*
X103383169Y-141247000D01*
X104553169Y-141237000D02*
X104553169Y-139907000D01*
D13*
X107213169Y-141537000D02*
X108923169Y-141537000D01*
X107233169Y-139577000D02*
X108933169Y-139577000D01*
X108933169Y-141527000D02*
X108933169Y-139577000D01*
D10*
%TO.C,D29*%
X141373169Y-63620419D02*
X142543169Y-64275419D01*
X141373169Y-64950419D02*
X141373169Y-63620419D01*
X142543169Y-64275419D02*
X141373169Y-64950419D01*
X142543169Y-64940419D02*
X142543169Y-63610419D01*
D13*
X145203169Y-65240419D02*
X146913169Y-65240419D01*
X145223169Y-63280419D02*
X146923169Y-63280419D01*
X146923169Y-65230419D02*
X146923169Y-63280419D01*
D10*
%TO.C,D4*%
X45633169Y-63717000D02*
X46803169Y-64372000D01*
X45633169Y-65047000D02*
X45633169Y-63717000D01*
X46803169Y-64372000D02*
X45633169Y-65047000D01*
X46803169Y-65037000D02*
X46803169Y-63707000D01*
D13*
X49463169Y-65337000D02*
X51173169Y-65337000D01*
X49483169Y-63377000D02*
X51183169Y-63377000D01*
X51183169Y-65327000D02*
X51183169Y-63377000D01*
D10*
%TO.C,D20*%
X113213169Y-82607000D02*
X114383169Y-83262000D01*
X113213169Y-83937000D02*
X113213169Y-82607000D01*
X114383169Y-83262000D02*
X113213169Y-83937000D01*
X114383169Y-83927000D02*
X114383169Y-82597000D01*
D13*
X117043169Y-84227000D02*
X118753169Y-84227000D01*
X117063169Y-82267000D02*
X118763169Y-82267000D01*
X118763169Y-84217000D02*
X118763169Y-82267000D01*
D10*
%TO.C,D8*%
X48430669Y-139818250D02*
X49600669Y-140473250D01*
X48430669Y-141148250D02*
X48430669Y-139818250D01*
X49600669Y-140473250D02*
X48430669Y-141148250D01*
X49600669Y-141138250D02*
X49600669Y-139808250D01*
D13*
X52260669Y-141438250D02*
X53970669Y-141438250D01*
X52280669Y-139478250D02*
X53980669Y-139478250D01*
X53980669Y-141428250D02*
X53980669Y-139478250D01*
D10*
%TO.C,D27*%
X126553169Y-120897000D02*
X127723169Y-121552000D01*
X126553169Y-122227000D02*
X126553169Y-120897000D01*
X127723169Y-121552000D02*
X126553169Y-122227000D01*
X127723169Y-122217000D02*
X127723169Y-120887000D01*
D13*
X130383169Y-122517000D02*
X132093169Y-122517000D01*
X130403169Y-120557000D02*
X132103169Y-120557000D01*
X132103169Y-122507000D02*
X132103169Y-120557000D01*
D10*
%TO.C,D26*%
X135593169Y-101747000D02*
X136763169Y-102402000D01*
X135593169Y-103077000D02*
X135593169Y-101747000D01*
X136763169Y-102402000D02*
X135593169Y-103077000D01*
X136763169Y-103067000D02*
X136763169Y-101737000D01*
D13*
X139423169Y-103367000D02*
X141133169Y-103367000D01*
X139443169Y-101407000D02*
X141143169Y-101407000D01*
X141143169Y-103357000D02*
X141143169Y-101407000D01*
D10*
%TO.C,D2*%
X50423169Y-101817000D02*
X51593169Y-102472000D01*
X50423169Y-103147000D02*
X50423169Y-101817000D01*
X51593169Y-102472000D02*
X50423169Y-103147000D01*
X51593169Y-103137000D02*
X51593169Y-101807000D01*
D13*
X54253169Y-103437000D02*
X55963169Y-103437000D01*
X54273169Y-101477000D02*
X55973169Y-101477000D01*
X55973169Y-103427000D02*
X55973169Y-101477000D01*
D12*
%TO.C,C1*%
X92863169Y-132648252D02*
X92863169Y-130325748D01*
X96283169Y-132648252D02*
X96283169Y-130325748D01*
D10*
%TO.C,D32*%
X170343169Y-63627000D02*
X171513169Y-64282000D01*
X170343169Y-64957000D02*
X170343169Y-63627000D01*
X171513169Y-64282000D02*
X170343169Y-64957000D01*
X171513169Y-64947000D02*
X171513169Y-63617000D01*
D13*
X174173169Y-65247000D02*
X175883169Y-65247000D01*
X174193169Y-63287000D02*
X175893169Y-63287000D01*
X175893169Y-65237000D02*
X175893169Y-63287000D01*
D10*
%TO.C,D5*%
X55473169Y-82607000D02*
X56643169Y-83262000D01*
X55473169Y-83937000D02*
X55473169Y-82607000D01*
X56643169Y-83262000D02*
X55473169Y-83937000D01*
X56643169Y-83927000D02*
X56643169Y-82597000D01*
D13*
X59303169Y-84227000D02*
X61013169Y-84227000D01*
X59323169Y-82267000D02*
X61023169Y-82267000D01*
X61023169Y-84217000D02*
X61023169Y-82267000D01*
D12*
%TO.C,C2*%
X126913169Y-37608252D02*
X126913169Y-35285748D01*
X130333169Y-37608252D02*
X130333169Y-35285748D01*
D10*
%TO.C,D13*%
X79290669Y-139948250D02*
X80460669Y-140603250D01*
X79290669Y-141278250D02*
X79290669Y-139948250D01*
X80460669Y-140603250D02*
X79290669Y-141278250D01*
X80460669Y-141268250D02*
X80460669Y-139938250D01*
D13*
X83120669Y-141568250D02*
X84830669Y-141568250D01*
X83140669Y-139608250D02*
X84840669Y-139608250D01*
X84840669Y-141558250D02*
X84840669Y-139608250D01*
%TD*%
%LPC*%
D14*
%TO.C,S3*%
X47075669Y-149882000D03*
D15*
X41575669Y-149882000D03*
D14*
X36075669Y-149882000D03*
D16*
X41575669Y-155782000D03*
X36575669Y-153682000D03*
%TD*%
D17*
%TO.C,H2*%
X101983169Y-43163000D03*
%TD*%
D18*
%TO.C,H8*%
X142108169Y-131877000D03*
%TD*%
D19*
%TO.C,S8*%
X54324419Y-131857000D03*
D20*
X53054419Y-134397000D03*
D21*
X49244419Y-131857000D03*
D20*
X46704419Y-136937000D03*
D19*
X44164419Y-131857000D03*
D22*
X56329419Y-134397000D03*
X43402419Y-136937000D03*
%TD*%
D18*
%TO.C,H6*%
X75418169Y-55687000D03*
%TD*%
D19*
%TO.C,S18*%
X94788169Y-112817000D03*
D20*
X93518169Y-115357000D03*
D21*
X89708169Y-112817000D03*
D20*
X87168169Y-117897000D03*
D19*
X84628169Y-112817000D03*
D22*
X96793169Y-115357000D03*
X83866169Y-117897000D03*
%TD*%
D17*
%TO.C,H3*%
X163494669Y-74737000D03*
%TD*%
D19*
%TO.C,S6*%
X66228169Y-93777000D03*
D20*
X64958169Y-96317000D03*
D21*
X61148169Y-93777000D03*
D20*
X58608169Y-98857000D03*
D19*
X56068169Y-93777000D03*
D22*
X68233169Y-96317000D03*
X55306169Y-98857000D03*
%TD*%
D19*
%TO.C,S32*%
X175718169Y-55687000D03*
D20*
X174448169Y-58227000D03*
D21*
X170638169Y-55687000D03*
D20*
X168098169Y-60767000D03*
D19*
X165558169Y-55687000D03*
D22*
X177723169Y-58227000D03*
X164796169Y-60767000D03*
%TD*%
D19*
%TO.C,S33*%
X180480669Y-74737000D03*
D20*
X179210669Y-77277000D03*
D21*
X175400669Y-74737000D03*
D20*
X172860669Y-79817000D03*
D19*
X170320669Y-74737000D03*
D22*
X182485669Y-77277000D03*
X169558669Y-79817000D03*
%TD*%
D19*
%TO.C,S25*%
X137628169Y-74737000D03*
D20*
X136358169Y-77277000D03*
D21*
X132548169Y-74737000D03*
D20*
X130008169Y-79817000D03*
D19*
X127468169Y-74737000D03*
D22*
X139633169Y-77277000D03*
X126706169Y-79817000D03*
%TD*%
D18*
%TO.C,H12*%
X78325669Y-149882000D03*
%TD*%
D19*
%TO.C,S5*%
X61468169Y-74737000D03*
D20*
X60198169Y-77277000D03*
D21*
X56388169Y-74737000D03*
D20*
X53848169Y-79817000D03*
D19*
X51308169Y-74737000D03*
D22*
X63473169Y-77277000D03*
X50546169Y-79817000D03*
%TD*%
D19*
%TO.C,S7*%
X56708169Y-112817000D03*
D20*
X55438169Y-115357000D03*
D21*
X51628169Y-112817000D03*
D20*
X49088169Y-117897000D03*
D19*
X46548169Y-112817000D03*
D22*
X58713169Y-115357000D03*
X45786169Y-117897000D03*
%TD*%
D19*
%TO.C,S36*%
X182861919Y-131857000D03*
D20*
X181591919Y-134397000D03*
D21*
X177781919Y-131857000D03*
D20*
X175241919Y-136937000D03*
D19*
X172701919Y-131857000D03*
D22*
X184866919Y-134397000D03*
X171939919Y-136937000D03*
%TD*%
D19*
%TO.C,S30*%
X156668169Y-74737000D03*
D20*
X155398169Y-77277000D03*
D21*
X151588169Y-74737000D03*
D20*
X149048169Y-79817000D03*
D19*
X146508169Y-74737000D03*
D22*
X158673169Y-77277000D03*
X145746169Y-79817000D03*
%TD*%
D19*
%TO.C,S2*%
X47188169Y-93777000D03*
D20*
X45918169Y-96317000D03*
D21*
X42108169Y-93777000D03*
D20*
X39568169Y-98857000D03*
D19*
X37028169Y-93777000D03*
D22*
X49193169Y-96317000D03*
X36266169Y-98857000D03*
%TD*%
D17*
%TO.C,H13*%
X141097169Y-112817000D03*
%TD*%
D19*
%TO.C,S27*%
X132868169Y-112817000D03*
D20*
X131598169Y-115357000D03*
D21*
X127788169Y-112817000D03*
D20*
X125248169Y-117897000D03*
D19*
X122708169Y-112817000D03*
D22*
X134873169Y-115357000D03*
X121946169Y-117897000D03*
%TD*%
D19*
%TO.C,S9*%
X70983169Y-55687000D03*
D20*
X69713169Y-58227000D03*
D21*
X65903169Y-55687000D03*
D20*
X63363169Y-60767000D03*
D19*
X60823169Y-55687000D03*
D22*
X72988169Y-58227000D03*
X60061169Y-60767000D03*
%TD*%
D19*
%TO.C,S10*%
X80508169Y-74737000D03*
D20*
X79238169Y-77277000D03*
D21*
X75428169Y-74737000D03*
D20*
X72888169Y-79817000D03*
D19*
X70348169Y-74737000D03*
D22*
X82513169Y-77277000D03*
X69586169Y-79817000D03*
%TD*%
D19*
%TO.C,S1*%
X42428169Y-74737000D03*
D20*
X41158169Y-77277000D03*
D21*
X37348169Y-74737000D03*
D20*
X34808169Y-79817000D03*
D19*
X32268169Y-74737000D03*
D22*
X44433169Y-77277000D03*
X31506169Y-79817000D03*
%TD*%
D23*
%TO.C,TP1*%
X100758169Y-151317000D03*
%TD*%
D19*
%TO.C,S13*%
X85265669Y-131857000D03*
D20*
X83995669Y-134397000D03*
D21*
X80185669Y-131857000D03*
D20*
X77645669Y-136937000D03*
D19*
X75105669Y-131857000D03*
D22*
X87270669Y-134397000D03*
X74343669Y-136937000D03*
%TD*%
D19*
%TO.C,S17*%
X104308169Y-93777000D03*
D20*
X103038169Y-96317000D03*
D21*
X99228169Y-93777000D03*
D20*
X96688169Y-98857000D03*
D19*
X94148169Y-93777000D03*
D22*
X106313169Y-96317000D03*
X93386169Y-98857000D03*
%TD*%
D18*
%TO.C,H10*%
X70663169Y-93777000D03*
%TD*%
%TO.C,H9*%
X147808169Y-93777000D03*
%TD*%
%TO.C,H7*%
X132548169Y-55687000D03*
%TD*%
D19*
%TO.C,S23*%
X111446919Y-131857000D03*
D20*
X110176919Y-134397000D03*
D21*
X106366919Y-131857000D03*
D20*
X103826919Y-136937000D03*
D19*
X101286919Y-131857000D03*
D22*
X113451919Y-134397000D03*
X100524919Y-136937000D03*
%TD*%
D19*
%TO.C,S21*%
X123348169Y-93777000D03*
D20*
X122078169Y-96317000D03*
D21*
X118268169Y-93777000D03*
D20*
X115728169Y-98857000D03*
D19*
X113188169Y-93777000D03*
D22*
X125353169Y-96317000D03*
X112426169Y-98857000D03*
%TD*%
D19*
%TO.C,S31*%
X159046919Y-131857000D03*
D20*
X157776919Y-134397000D03*
D21*
X153966919Y-131857000D03*
D20*
X151426919Y-136937000D03*
D19*
X148886919Y-131857000D03*
D22*
X161051919Y-134397000D03*
X148124919Y-136937000D03*
%TD*%
D19*
%TO.C,S28*%
X135246919Y-131857000D03*
D20*
X133976919Y-134397000D03*
D21*
X130166919Y-131857000D03*
D20*
X127626919Y-136937000D03*
D19*
X125086919Y-131857000D03*
D22*
X137251919Y-134397000D03*
X124324919Y-136937000D03*
%TD*%
D19*
%TO.C,S24*%
X128103169Y-55687000D03*
D20*
X126833169Y-58227000D03*
D21*
X123023169Y-55687000D03*
D20*
X120483169Y-60767000D03*
D19*
X117943169Y-55687000D03*
D22*
X130108169Y-58227000D03*
X117181169Y-60767000D03*
%TD*%
D19*
%TO.C,S35*%
X168574419Y-112817000D03*
D20*
X167304419Y-115357000D03*
D21*
X163494419Y-112817000D03*
D20*
X160954419Y-117897000D03*
D19*
X158414419Y-112817000D03*
D22*
X170579419Y-115357000D03*
X157652419Y-117897000D03*
%TD*%
D24*
%TO.C,J1*%
X109894419Y-28667000D03*
X108362206Y-36131364D03*
D25*
X115740719Y-31765855D03*
X114719243Y-36742098D03*
D26*
X117973469Y-33520656D03*
X115229980Y-34253978D03*
X117462732Y-36008775D03*
%TD*%
D19*
%TO.C,S26*%
X142388169Y-93777000D03*
D20*
X141118169Y-96317000D03*
D21*
X137308169Y-93777000D03*
D20*
X134768169Y-98857000D03*
D19*
X132228169Y-93777000D03*
D22*
X144393169Y-96317000D03*
X131466169Y-98857000D03*
%TD*%
D19*
%TO.C,S11*%
X85268169Y-93777000D03*
D20*
X83998169Y-96317000D03*
D21*
X80188169Y-93777000D03*
D20*
X77648169Y-98857000D03*
D19*
X75108169Y-93777000D03*
D22*
X87273169Y-96317000D03*
X74346169Y-98857000D03*
%TD*%
D17*
%TO.C,H11*%
X108325669Y-148506000D03*
%TD*%
D19*
%TO.C,S4*%
X51943169Y-55687000D03*
D20*
X50673169Y-58227000D03*
D21*
X46863169Y-55687000D03*
D20*
X44323169Y-60767000D03*
D19*
X41783169Y-55687000D03*
D22*
X53948169Y-58227000D03*
X41021169Y-60767000D03*
%TD*%
D17*
%TO.C,H4*%
X64723419Y-131857000D03*
%TD*%
D19*
%TO.C,S12*%
X75748169Y-112817000D03*
D20*
X74478169Y-115357000D03*
D21*
X70668169Y-112817000D03*
D20*
X68128169Y-117897000D03*
D19*
X65588169Y-112817000D03*
D22*
X77753169Y-115357000D03*
X64826169Y-117897000D03*
%TD*%
D14*
%TO.C,S14*%
X71825669Y-149882000D03*
D15*
X66325669Y-149882000D03*
D14*
X60825669Y-149882000D03*
D16*
X66325669Y-155782000D03*
X61325669Y-153682000D03*
%TD*%
D19*
%TO.C,S20*%
X118588169Y-74737000D03*
D20*
X117318169Y-77277000D03*
D21*
X113508169Y-74737000D03*
D20*
X110968169Y-79817000D03*
D19*
X108428169Y-74737000D03*
D22*
X120593169Y-77277000D03*
X107666169Y-79817000D03*
%TD*%
D19*
%TO.C,S19*%
X109063169Y-55687000D03*
D20*
X107793169Y-58227000D03*
D21*
X103983169Y-55687000D03*
D20*
X101443169Y-60767000D03*
D19*
X98903169Y-55687000D03*
D22*
X111068169Y-58227000D03*
X98141169Y-60767000D03*
%TD*%
D19*
%TO.C,S22*%
X113828169Y-112817000D03*
D20*
X112558169Y-115357000D03*
D21*
X108748169Y-112817000D03*
D20*
X106208169Y-117897000D03*
D19*
X103668169Y-112817000D03*
D22*
X115833169Y-115357000D03*
X102906169Y-117897000D03*
%TD*%
D19*
%TO.C,S15*%
X90023169Y-55687000D03*
D20*
X88753169Y-58227000D03*
D21*
X84943169Y-55687000D03*
D20*
X82403169Y-60767000D03*
D19*
X79863169Y-55687000D03*
D22*
X92028169Y-58227000D03*
X79101169Y-60767000D03*
%TD*%
D19*
%TO.C,S16*%
X99548169Y-74737000D03*
D20*
X98278169Y-77277000D03*
D21*
X94468169Y-74737000D03*
D20*
X91928169Y-79817000D03*
D19*
X89388169Y-74737000D03*
D22*
X101553169Y-77277000D03*
X88626169Y-79817000D03*
%TD*%
D27*
%TO.C,SW2*%
X136754362Y-40344877D03*
D28*
X137759750Y-35447000D03*
X137257055Y-37895938D03*
D29*
X128784205Y-41873475D03*
X131036277Y-30902233D03*
D28*
X123555909Y-32531370D03*
X122550519Y-37429247D03*
%TD*%
D19*
%TO.C,S29*%
X147143169Y-55687000D03*
D20*
X145873169Y-58227000D03*
D21*
X142063169Y-55687000D03*
D20*
X139523169Y-60767000D03*
D19*
X136983169Y-55687000D03*
D22*
X149148169Y-58227000D03*
X136221169Y-60767000D03*
%TD*%
D17*
%TO.C,H1*%
X65903169Y-73737000D03*
%TD*%
D19*
%TO.C,S34*%
X173336919Y-93777000D03*
D20*
X172066919Y-96317000D03*
D21*
X168256919Y-93777000D03*
D20*
X165716919Y-98857000D03*
D19*
X163176919Y-93777000D03*
D22*
X175341919Y-96317000D03*
X162414919Y-98857000D03*
%TD*%
D30*
%TO.C,D31*%
X164473169Y-127787000D03*
D31*
X164473169Y-129837000D03*
D32*
X164473169Y-133687000D03*
D33*
X164473169Y-135787000D03*
%TD*%
D34*
%TO.C,JP3*%
X78535669Y-144852000D03*
X79835669Y-144852000D03*
%TD*%
D35*
%TO.C,JP2*%
X109733169Y-157437000D03*
X109733169Y-158737000D03*
%TD*%
D36*
%TO.C,LED21*%
X120968169Y-89588000D03*
X120968169Y-88088000D03*
X115568169Y-88088000D03*
X115568169Y-89588000D03*
%TD*%
D30*
%TO.C,D11*%
X81593169Y-102427000D03*
D37*
X79543169Y-102427000D03*
D38*
X75693169Y-102427000D03*
D33*
X73593169Y-102427000D03*
%TD*%
D36*
%TO.C,LED32*%
X173338169Y-51498000D03*
X173338169Y-49998000D03*
X167938169Y-49998000D03*
X167938169Y-51498000D03*
%TD*%
%TO.C,LED36*%
X180481919Y-127668000D03*
X180481919Y-126168000D03*
X175081919Y-126168000D03*
X175081919Y-127668000D03*
%TD*%
D30*
%TO.C,D9*%
X69413169Y-64317000D03*
D37*
X67363169Y-64317000D03*
D38*
X63513169Y-64317000D03*
D33*
X61413169Y-64317000D03*
%TD*%
D36*
%TO.C,LED24*%
X125723169Y-51498000D03*
X125723169Y-49998000D03*
X120323169Y-49998000D03*
X120323169Y-51498000D03*
%TD*%
D39*
%TO.C,U1*%
X135303169Y-143407000D03*
D40*
X135303169Y-142507000D03*
D39*
X137843169Y-143407000D03*
D40*
X137843169Y-142507000D03*
D23*
X140383169Y-143407000D03*
D40*
X140383169Y-142507000D03*
D39*
X142923169Y-143407000D03*
D40*
X142923169Y-142507000D03*
D39*
X145463169Y-143407000D03*
D40*
X145463169Y-142507000D03*
D39*
X148003169Y-143407000D03*
D40*
X148003169Y-142507000D03*
D39*
X150543169Y-143407000D03*
D40*
X150543169Y-142507000D03*
D23*
X153083169Y-143407000D03*
D40*
X153083169Y-142507000D03*
D39*
X155623169Y-143407000D03*
D40*
X155623169Y-142507000D03*
D39*
X158163169Y-143407000D03*
D40*
X158163169Y-142507000D03*
D39*
X160703169Y-143407000D03*
D40*
X160703169Y-142507000D03*
D39*
X163243169Y-143407000D03*
D40*
X163243169Y-142507000D03*
D23*
X165783169Y-143407000D03*
D40*
X165783169Y-142507000D03*
D39*
X168323169Y-143407000D03*
D40*
X168323169Y-142507000D03*
D39*
X170863169Y-143407000D03*
D40*
X170863169Y-142507000D03*
D39*
X173403169Y-143407000D03*
D40*
X173403169Y-142507000D03*
D39*
X175943169Y-143407000D03*
D40*
X175943169Y-142507000D03*
D23*
X178483169Y-143407000D03*
D40*
X178483169Y-142507000D03*
D39*
X181023169Y-143407000D03*
D40*
X181023169Y-142507000D03*
D39*
X183563169Y-143407000D03*
D40*
X183563169Y-142507000D03*
D39*
X183563169Y-161187000D03*
D40*
X183563169Y-162087000D03*
D39*
X181023169Y-161187000D03*
D40*
X181023169Y-162087000D03*
D23*
X178483169Y-161187000D03*
D40*
X178483169Y-162087000D03*
D39*
X175943169Y-161187000D03*
D40*
X175943169Y-162087000D03*
D39*
X173403169Y-161187000D03*
D40*
X173403169Y-162087000D03*
D39*
X170863169Y-161187000D03*
D40*
X170863169Y-162087000D03*
D39*
X168323169Y-161187000D03*
D40*
X168323169Y-162087000D03*
D23*
X165783169Y-161187000D03*
D40*
X165783169Y-162087000D03*
D39*
X163243169Y-161187000D03*
D40*
X163243169Y-162087000D03*
D39*
X160703169Y-161187000D03*
D40*
X160703169Y-162087000D03*
D39*
X158163169Y-161187000D03*
D40*
X158163169Y-162087000D03*
D39*
X155623169Y-161187000D03*
D40*
X155623169Y-162087000D03*
D23*
X153083169Y-161187000D03*
D40*
X153083169Y-162087000D03*
D39*
X150543169Y-161187000D03*
D40*
X150543169Y-162087000D03*
D39*
X148003169Y-161187000D03*
D40*
X148003169Y-162087000D03*
D39*
X145463169Y-161187000D03*
D40*
X145463169Y-162087000D03*
D39*
X142923169Y-161187000D03*
D40*
X142923169Y-162087000D03*
D23*
X140383169Y-161187000D03*
D40*
X140383169Y-162087000D03*
D39*
X137843169Y-161187000D03*
D40*
X137843169Y-162087000D03*
D39*
X135303169Y-161187000D03*
D40*
X135303169Y-162087000D03*
D39*
X183333169Y-149757000D03*
D41*
X184233169Y-149757000D03*
D23*
X183333169Y-152297000D03*
D41*
X184233169Y-152297000D03*
D39*
X183333169Y-154837000D03*
D41*
X184233169Y-154837000D03*
D42*
X135033169Y-151397000D03*
X135033169Y-153197000D03*
%TD*%
D30*
%TO.C,D24*%
X126563169Y-64337000D03*
D37*
X124513169Y-64337000D03*
D38*
X120663169Y-64337000D03*
D33*
X118563169Y-64337000D03*
%TD*%
D43*
%TO.C,LED5*%
X53688169Y-69048000D03*
X53688169Y-70548000D03*
X59088169Y-70548000D03*
X59088169Y-69048000D03*
%TD*%
D30*
%TO.C,D28*%
X117253169Y-129717000D03*
D31*
X117253169Y-131767000D03*
D32*
X117253169Y-135617000D03*
D33*
X117253169Y-137717000D03*
%TD*%
D36*
%TO.C,LED2*%
X44808169Y-89588000D03*
X44808169Y-88088000D03*
X39408169Y-88088000D03*
X39408169Y-89588000D03*
%TD*%
D43*
%TO.C,LED12*%
X67968169Y-107128000D03*
X67968169Y-108628000D03*
X73368169Y-108628000D03*
X73368169Y-107128000D03*
%TD*%
D30*
%TO.C,D36*%
X168473169Y-127787000D03*
D31*
X168473169Y-129837000D03*
D32*
X168473169Y-133687000D03*
D33*
X168473169Y-135787000D03*
%TD*%
D30*
%TO.C,D12*%
X74520669Y-121398250D03*
D37*
X72470669Y-121398250D03*
D38*
X68620669Y-121398250D03*
D33*
X66520669Y-121398250D03*
%TD*%
D36*
%TO.C,LED31*%
X156666919Y-127668000D03*
X156666919Y-126168000D03*
X151266919Y-126168000D03*
X151266919Y-127668000D03*
%TD*%
D30*
%TO.C,D25*%
X137543169Y-83317000D03*
D37*
X135493169Y-83317000D03*
D38*
X131643169Y-83317000D03*
D33*
X129543169Y-83317000D03*
%TD*%
D30*
%TO.C,D3*%
X52133169Y-146317000D03*
D31*
X52133169Y-148367000D03*
D32*
X52133169Y-152217000D03*
D33*
X52133169Y-154317000D03*
%TD*%
D30*
%TO.C,D22*%
X111473169Y-121447000D03*
D37*
X109423169Y-121447000D03*
D38*
X105573169Y-121447000D03*
D33*
X103473169Y-121447000D03*
%TD*%
D30*
%TO.C,D33*%
X178003169Y-83377000D03*
D37*
X175953169Y-83377000D03*
D38*
X172103169Y-83377000D03*
D33*
X170003169Y-83377000D03*
%TD*%
D30*
%TO.C,D7*%
X56253169Y-121577000D03*
D37*
X54203169Y-121577000D03*
D38*
X50353169Y-121577000D03*
D33*
X48253169Y-121577000D03*
%TD*%
D30*
%TO.C,D30*%
X156143169Y-83357000D03*
D37*
X154093169Y-83357000D03*
D38*
X150243169Y-83357000D03*
D33*
X148143169Y-83357000D03*
%TD*%
D36*
%TO.C,LED13*%
X82885669Y-127668000D03*
X82885669Y-126168000D03*
X77485669Y-126168000D03*
X77485669Y-127668000D03*
%TD*%
D43*
%TO.C,LED35*%
X160794419Y-107128000D03*
X160794419Y-108628000D03*
X166194419Y-108628000D03*
X166194419Y-107128000D03*
%TD*%
D30*
%TO.C,D14*%
X55941919Y-146354500D03*
D31*
X55941919Y-148404500D03*
D32*
X55941919Y-152254500D03*
D33*
X55941919Y-154354500D03*
%TD*%
D36*
%TO.C,LED28*%
X132866919Y-127668000D03*
X132866919Y-126168000D03*
X127466919Y-126168000D03*
X127466919Y-127668000D03*
%TD*%
D30*
%TO.C,D15*%
X87883169Y-64307000D03*
D37*
X85833169Y-64307000D03*
D38*
X81983169Y-64307000D03*
D33*
X79883169Y-64307000D03*
%TD*%
D30*
%TO.C,D16*%
X98443169Y-83197000D03*
D37*
X96393169Y-83197000D03*
D38*
X92543169Y-83197000D03*
D33*
X90443169Y-83197000D03*
%TD*%
D43*
%TO.C,LED22*%
X106048169Y-107128000D03*
X106048169Y-108628000D03*
X111448169Y-108628000D03*
X111448169Y-107128000D03*
%TD*%
D36*
%TO.C,LED26*%
X140008169Y-89588000D03*
X140008169Y-88088000D03*
X134608169Y-88088000D03*
X134608169Y-89588000D03*
%TD*%
D43*
%TO.C,LED20*%
X110808169Y-69048000D03*
X110808169Y-70548000D03*
X116208169Y-70548000D03*
X116208169Y-69048000D03*
%TD*%
D30*
%TO.C,D1*%
X45133169Y-83397000D03*
D37*
X43083169Y-83397000D03*
D38*
X39233169Y-83397000D03*
D33*
X37133169Y-83397000D03*
%TD*%
D36*
%TO.C,LED34*%
X170956919Y-89588000D03*
X170956919Y-88088000D03*
X165556919Y-88088000D03*
X165556919Y-89588000D03*
%TD*%
D43*
%TO.C,LED10*%
X72728169Y-69048000D03*
X72728169Y-70548000D03*
X78128169Y-70548000D03*
X78128169Y-69048000D03*
%TD*%
D36*
%TO.C,LED11*%
X82888169Y-89588000D03*
X82888169Y-88088000D03*
X77488169Y-88088000D03*
X77488169Y-89588000D03*
%TD*%
D23*
%TO.C,J4*%
X160093169Y-65702000D03*
D39*
X157553169Y-65702000D03*
X155013169Y-65702000D03*
X152473169Y-65702000D03*
%TD*%
D36*
%TO.C,LED15*%
X87643169Y-51498000D03*
X87643169Y-49998000D03*
X82243169Y-49998000D03*
X82243169Y-51498000D03*
%TD*%
D30*
%TO.C,D6*%
X68764419Y-102357000D03*
D37*
X66714419Y-102357000D03*
D38*
X62864419Y-102357000D03*
D33*
X60764419Y-102357000D03*
%TD*%
D43*
%TO.C,LED30*%
X148888169Y-69048000D03*
X148888169Y-70548000D03*
X154288169Y-70548000D03*
X154288169Y-69048000D03*
%TD*%
D36*
%TO.C,LED4*%
X49563169Y-51498000D03*
X49563169Y-49998000D03*
X44163169Y-49998000D03*
X44163169Y-51498000D03*
%TD*%
D30*
%TO.C,D17*%
X102373169Y-102357000D03*
D37*
X100323169Y-102357000D03*
D38*
X96473169Y-102357000D03*
D33*
X94373169Y-102357000D03*
%TD*%
D44*
%TO.C,D37*%
X128201470Y-45181312D03*
D45*
X126193341Y-44769102D03*
D46*
X122421976Y-43994952D03*
D33*
X120364868Y-43572688D03*
%TD*%
D30*
%TO.C,D18*%
X95183169Y-121527000D03*
D37*
X93133169Y-121527000D03*
D38*
X89283169Y-121527000D03*
D33*
X87183169Y-121527000D03*
%TD*%
D43*
%TO.C,LED25*%
X129848169Y-69048000D03*
X129848169Y-70548000D03*
X135248169Y-70548000D03*
X135248169Y-69048000D03*
%TD*%
D30*
%TO.C,D34*%
X171943169Y-102377000D03*
D37*
X169893169Y-102377000D03*
D38*
X166043169Y-102377000D03*
D33*
X163943169Y-102377000D03*
%TD*%
D30*
%TO.C,D21*%
X119813169Y-102537000D03*
D37*
X117763169Y-102537000D03*
D38*
X113913169Y-102537000D03*
D33*
X111813169Y-102537000D03*
%TD*%
D30*
%TO.C,D19*%
X107663169Y-64270419D03*
D37*
X105613169Y-64270419D03*
D38*
X101763169Y-64270419D03*
D33*
X99663169Y-64270419D03*
%TD*%
D35*
%TO.C,JP1*%
X105443169Y-157407000D03*
X105443169Y-158707000D03*
%TD*%
D43*
%TO.C,LED16*%
X91768169Y-69048000D03*
X91768169Y-70548000D03*
X97168169Y-70548000D03*
X97168169Y-69048000D03*
%TD*%
D36*
%TO.C,LED17*%
X101928169Y-89588000D03*
X101928169Y-88088000D03*
X96528169Y-88088000D03*
X96528169Y-89588000D03*
%TD*%
D47*
%TO.C,U2*%
X97335669Y-147157000D03*
X96685669Y-147157000D03*
X96035669Y-147157000D03*
X96035669Y-144497000D03*
X97335669Y-144497000D03*
%TD*%
D30*
%TO.C,D35*%
X167843169Y-121477000D03*
D37*
X165793169Y-121477000D03*
D38*
X161943169Y-121477000D03*
D33*
X159843169Y-121477000D03*
%TD*%
D36*
%TO.C,LED29*%
X144763169Y-51498000D03*
X144763169Y-49998000D03*
X139363169Y-49998000D03*
X139363169Y-51498000D03*
%TD*%
D30*
%TO.C,D10*%
X78693169Y-83317000D03*
D37*
X76643169Y-83317000D03*
D38*
X72793169Y-83317000D03*
D33*
X70693169Y-83317000D03*
%TD*%
D34*
%TO.C,JP4*%
X89063169Y-151457000D03*
X90363169Y-151457000D03*
%TD*%
D43*
%TO.C,LED7*%
X48928169Y-107128000D03*
X48928169Y-108628000D03*
X54328169Y-108628000D03*
X54328169Y-107128000D03*
%TD*%
D30*
%TO.C,D23*%
X107933169Y-140567000D03*
D37*
X105883169Y-140567000D03*
D38*
X102033169Y-140567000D03*
D33*
X99933169Y-140567000D03*
%TD*%
D43*
%TO.C,LED1*%
X34648169Y-69048000D03*
X34648169Y-70548000D03*
X40048169Y-70548000D03*
X40048169Y-69048000D03*
%TD*%
%TO.C,LED3*%
X38875669Y-144193000D03*
X38875669Y-145693000D03*
X44275669Y-145693000D03*
X44275669Y-144193000D03*
%TD*%
D30*
%TO.C,D29*%
X145923169Y-64270419D03*
D37*
X143873169Y-64270419D03*
D38*
X140023169Y-64270419D03*
D33*
X137923169Y-64270419D03*
%TD*%
D30*
%TO.C,D4*%
X50183169Y-64367000D03*
D37*
X48133169Y-64367000D03*
D38*
X44283169Y-64367000D03*
D33*
X42183169Y-64367000D03*
%TD*%
D43*
%TO.C,LED27*%
X125088169Y-107128000D03*
X125088169Y-108628000D03*
X130488169Y-108628000D03*
X130488169Y-107128000D03*
%TD*%
D30*
%TO.C,D20*%
X117763169Y-83257000D03*
D37*
X115713169Y-83257000D03*
D38*
X111863169Y-83257000D03*
D33*
X109763169Y-83257000D03*
%TD*%
D36*
%TO.C,LED19*%
X106683169Y-51498000D03*
X106683169Y-49998000D03*
X101283169Y-49998000D03*
X101283169Y-51498000D03*
%TD*%
D43*
%TO.C,LED14*%
X63625669Y-144193000D03*
X63625669Y-145693000D03*
X69025669Y-145693000D03*
X69025669Y-144193000D03*
%TD*%
D30*
%TO.C,D8*%
X52980669Y-140468250D03*
D37*
X50930669Y-140468250D03*
D38*
X47080669Y-140468250D03*
D33*
X44980669Y-140468250D03*
%TD*%
D30*
%TO.C,D27*%
X131103169Y-121547000D03*
D37*
X129053169Y-121547000D03*
D38*
X125203169Y-121547000D03*
D33*
X123103169Y-121547000D03*
%TD*%
D30*
%TO.C,D26*%
X140143169Y-102397000D03*
D37*
X138093169Y-102397000D03*
D38*
X134243169Y-102397000D03*
D33*
X132143169Y-102397000D03*
%TD*%
D36*
%TO.C,LED8*%
X51944419Y-127668000D03*
X51944419Y-126168000D03*
X46544419Y-126168000D03*
X46544419Y-127668000D03*
%TD*%
D43*
%TO.C,LED18*%
X87008169Y-107128000D03*
X87008169Y-108628000D03*
X92408169Y-108628000D03*
X92408169Y-107128000D03*
%TD*%
D30*
%TO.C,D2*%
X54973169Y-102467000D03*
D37*
X52923169Y-102467000D03*
D38*
X49073169Y-102467000D03*
D33*
X46973169Y-102467000D03*
%TD*%
D36*
%TO.C,LED9*%
X68603169Y-51498000D03*
X68603169Y-49998000D03*
X63203169Y-49998000D03*
X63203169Y-51498000D03*
%TD*%
D48*
%TO.C,C1*%
X94573169Y-129349500D03*
X94573169Y-133624500D03*
%TD*%
D36*
%TO.C,LED23*%
X109066919Y-127668000D03*
X109066919Y-126168000D03*
X103666919Y-126168000D03*
X103666919Y-127668000D03*
%TD*%
D30*
%TO.C,D32*%
X174893169Y-64277000D03*
D37*
X172843169Y-64277000D03*
D38*
X168993169Y-64277000D03*
D33*
X166893169Y-64277000D03*
%TD*%
D30*
%TO.C,D5*%
X60023169Y-83257000D03*
D37*
X57973169Y-83257000D03*
D38*
X54123169Y-83257000D03*
D33*
X52023169Y-83257000D03*
%TD*%
D48*
%TO.C,C2*%
X128623169Y-34309500D03*
X128623169Y-38584500D03*
%TD*%
D43*
%TO.C,LED33*%
X172700669Y-69048000D03*
X172700669Y-70548000D03*
X178100669Y-70548000D03*
X178100669Y-69048000D03*
%TD*%
D30*
%TO.C,D13*%
X83840669Y-140598250D03*
D37*
X81790669Y-140598250D03*
D38*
X77940669Y-140598250D03*
D33*
X75840669Y-140598250D03*
%TD*%
D36*
%TO.C,LED6*%
X63848169Y-89588000D03*
X63848169Y-88088000D03*
X58448169Y-88088000D03*
X58448169Y-89588000D03*
%TD*%
%LPD*%
M02*
