M48
; DRILL file {KiCad 8.0.7} date 2025-08-07T20:18:05+0200
; FORMAT={-:-/ absolute / inch / decimal}
; #@! TF.CreationDate,2025-08-07T20:18:05+02:00
; #@! TF.GenerationSoftware,Kicad,Pcbnew,8.0.7
; #@! TF.FileFunction,NonPlated,1,2,NPTH
FMAT,2
INCH
; #@! TA.AperFunction,NonPlated,NPTH,ComponentDrill
T1C0.0689
; #@! TA.AperFunction,NonPlated,NPTH,ComponentDrill
T2C0.0748
; #@! TA.AperFunction,NonPlated,NPTH,ComponentDrill
T3C0.0866
; #@! TA.AperFunction,NonPlated,NPTH,ComponentDrill
T4C0.1201
; #@! TA.AperFunction,NonPlated,NPTH,ComponentDrill
T5C0.1260
; #@! TA.AperFunction,NonPlated,NPTH,ComponentDrill
T6C0.1280
; #@! TA.AperFunction,NonPlated,NPTH,ComponentDrill
T7C0.1358
; #@! TA.AperFunction,NonPlated,NPTH,ComponentDrill
T8C0.1575
%
G90
G05
T1
X1.2704Y-2.9424
X1.4578Y-3.692
X1.645Y-2.1924
X1.6704Y-2.9424
X1.7388Y-5.1912
X1.8326Y-4.4416
X1.8578Y-3.692
X2.02Y-2.9424
X2.045Y-2.1924
X2.1388Y-5.1912
X2.2074Y-3.692
X2.2326Y-4.4416
X2.3946Y-2.1924
X2.42Y-2.9424
X2.5822Y-4.4416
X2.6074Y-3.692
X2.7696Y-2.9424
X2.7946Y-2.1924
X2.9569Y-5.1912
X2.957Y-3.692
X2.9822Y-4.4416
X3.1442Y-2.1924
X3.1696Y-2.9424
X3.3318Y-4.4416
X3.3569Y-5.1912
X3.357Y-3.692
X3.5192Y-2.9424
X3.5442Y-2.1924
X3.7066Y-3.692
X3.7318Y-4.4416
X3.8938Y-2.1924
X3.9192Y-2.9424
X3.9877Y-5.1912
X4.0814Y-4.4416
X4.1066Y-3.692
X4.2688Y-2.9424
X4.2938Y-2.1924
X4.3877Y-5.1912
X4.4562Y-3.692
X4.4814Y-4.4416
X4.6434Y-2.1924
X4.6688Y-2.9424
X4.831Y-4.4416
X4.8562Y-3.692
X4.9247Y-5.1912
X5.0184Y-2.9424
X5.0434Y-2.1924
X5.2058Y-3.692
X5.231Y-4.4416
X5.3247Y-5.1912
X5.393Y-2.1924
X5.4184Y-2.9424
X5.6058Y-3.692
X5.768Y-2.9424
X5.793Y-2.1924
X5.8617Y-5.1912
X6.168Y-2.9424
X6.2368Y-4.4416
X6.2617Y-5.1912
X6.4243Y-3.692
X6.518Y-2.1924
X6.6368Y-4.4416
X6.7055Y-2.9424
X6.7993Y-5.1912
X6.8243Y-3.692
X6.918Y-2.1924
X7.1055Y-2.9424
X7.1993Y-5.1912
T2
X1.4203Y-5.9009
X1.8534Y-5.9009
X2.3947Y-5.9009
X2.8278Y-5.9009
T3
X2.5482Y-5.1912
X2.5946Y-2.903
X4.0151Y-1.6993
X4.2648Y-5.8467
X5.555Y-4.4416
X6.4368Y-2.9424
T4
X1.3704Y-3.1424
X1.5578Y-3.892
X1.6204Y-3.0424
X1.745Y-2.3924
X1.8078Y-3.792
X1.8388Y-5.3912
X1.9326Y-4.6416
X1.995Y-2.2924
X2.0888Y-5.2912
X2.12Y-3.1424
X2.1826Y-4.5416
X2.3074Y-3.892
X2.37Y-3.0424
X2.4946Y-2.3924
X2.5574Y-3.792
X2.6822Y-4.6416
X2.7446Y-2.2924
X2.8696Y-3.1424
X2.9322Y-4.5416
X3.0569Y-5.3912
X3.057Y-3.892
X3.1196Y-3.0424
X3.2442Y-2.3924
X3.3069Y-5.2912
X3.307Y-3.792
X3.4318Y-4.6416
X3.4942Y-2.2924
X3.6192Y-3.1424
X3.6818Y-4.5416
X3.8066Y-3.892
X3.8692Y-3.0424
X3.9938Y-2.3924
X4.0566Y-3.792
X4.0877Y-5.3912
X4.1814Y-4.6416
X4.2438Y-2.2924
X4.3377Y-5.2912
X4.3688Y-3.1424
X4.4314Y-4.5416
X4.5562Y-3.892
X4.6188Y-3.0424
X4.7434Y-2.3924
X4.8062Y-3.792
X4.931Y-4.6416
X4.9934Y-2.2924
X5.0247Y-5.3912
X5.1184Y-3.1424
X5.181Y-4.5416
X5.2747Y-5.2912
X5.3058Y-3.892
X5.3684Y-3.0424
X5.493Y-2.3924
X5.5558Y-3.792
X5.743Y-2.2924
X5.868Y-3.1424
X5.9617Y-5.3912
X6.118Y-3.0424
X6.2117Y-5.2912
X6.3368Y-4.6416
X6.5243Y-3.892
X6.5868Y-4.5416
X6.618Y-2.3924
X6.7743Y-3.792
X6.8055Y-3.1424
X6.868Y-2.2924
X6.8993Y-5.3912
X7.0555Y-3.0424
X7.1493Y-5.2912
T5
X2.782Y-3.692
X2.9692Y-2.1924
X3.0837Y-5.9009
X5.2184Y-2.1924
X5.5948Y-5.192
X5.8192Y-3.692
T6
X4.2662Y-1.4225
X4.3266Y-1.1286
T7
X1.6368Y-5.9009
X2.6112Y-5.9009
T8
X1.4704Y-2.9424
X1.6578Y-3.692
X1.845Y-2.1924
X1.9388Y-5.1912
X2.0326Y-4.4416
X2.22Y-2.9424
X2.4074Y-3.692
X2.5946Y-2.1924
X2.7822Y-4.4416
X2.9696Y-2.9424
X3.1569Y-5.1912
X3.157Y-3.692
X3.3442Y-2.1924
X3.5318Y-4.4416
X3.7192Y-2.9424
X3.9066Y-3.692
X4.0938Y-2.1924
X4.1877Y-5.1912
X4.2814Y-4.4416
X4.4688Y-2.9424
X4.6562Y-3.692
X4.8434Y-2.1924
X5.031Y-4.4416
X5.1247Y-5.1912
X5.2184Y-2.9424
X5.4058Y-3.692
X5.593Y-2.1924
X5.968Y-2.9424
X6.0617Y-5.1912
X6.4368Y-4.4416
X6.6243Y-3.692
X6.718Y-2.1924
X6.9055Y-2.9424
X6.9993Y-5.1912
M30
