M48
; DRILL file {KiCad 8.0.7} date 2025-08-07T21:50:34+0200
; FORMAT={-:-/ absolute / inch / decimal}
; #@! TF.CreationDate,2025-08-07T21:50:34+02:00
; #@! TF.GenerationSoftware,Kicad,Pcbnew,8.0.7
; #@! TF.FileFunction,Plated,1,2,PTH
FMAT,2
INCH
; #@! TA.AperFunction,Plated,PTH,ViaDrill
T1C0.0118
; #@! TA.AperFunction,Plated,PTH,ComponentDrill
T2C0.0315
; #@! TA.AperFunction,Plated,PTH,ComponentDrill
T3C0.0354
; #@! TA.AperFunction,Plated,PTH,ComponentDrill
T4C0.0394
; #@! TA.AperFunction,Plated,PTH,ComponentDrill
T5C0.0402
; #@! TA.AperFunction,Plated,PTH,ComponentDrill
T6C0.0472
%
G90
G05
T1
X0.9866Y-1.7355
X0.9974Y-3.855
X1.0612Y-2.2786
X1.112Y-4.6589
X1.3155Y-3.0302
X1.3271Y-3.9143
X1.4285Y-1.6861
X1.4525Y-3.9404
X1.457Y-2.0981
X1.5374Y-4.7694
X1.5738Y-2.2644
X1.5887Y-2.3767
X1.6147Y-4.777
X1.6171Y-3.2881
X1.6387Y-2.4345
X1.7206Y-2.8046
X1.7291Y-5.0719
X1.797Y-3.3347
X1.7982Y-1.7519
X1.8057Y-4.0593
X1.8147Y-2.9471
X1.8637Y-4.9788
X1.8689Y-4.6316
X1.8816Y-3.1861
X1.9163Y-3.6885
X1.9189Y-4.9339
X1.9502Y-4.5133
X1.9551Y-5.6879
X1.9675Y-3.5483
X1.9769Y-2.2652
X2.0009Y-4.0763
X2.0411Y-3.9298
X2.0439Y-2.9495
X2.084Y-4.7562
X2.1076Y-2.4074
X2.1147Y-1.7656
X2.1474Y-1.6271
X2.1828Y-5.1611
X2.186Y-3.7622
X2.1872Y-4.2648
X2.2202Y-2.203
X2.2459Y-5.0886
X2.2881Y-3.1854
X2.2964Y-5.7495
X2.3025Y-3.9223
X2.3437Y-3.0109
X2.3872Y-4.3774
X2.4019Y-2.1891
X2.4094Y-4.7442
X2.411Y-3.2709
X2.4679Y-3.8144
X2.4908Y-5.0826
X2.5238Y-1.6857
X2.5616Y-2.4389
X2.5809Y-3.7622
X2.6616Y-2.918
X2.7407Y-2.6003
X2.7427Y-3.2727
X2.7864Y-3.6889
X2.7885Y-4.6316
X2.7952Y-5.6788
X2.8767Y-5.8032
X2.9297Y-3.3538
X2.9368Y-3.6904
X2.9427Y-3.457
X2.9718Y-3.1239
X2.9864Y-2.1788
X3.0183Y-4.0566
X3.0257Y-3.7622
X3.1265Y-2.7798
X3.1315Y-1.9324
X3.1356Y-5.433
X3.1383Y-4.4676
X3.2173Y-4.3682
X3.224Y-1.6288
X3.2256Y-5.195
X3.2687Y-4.3015
X3.3124Y-4.1885
X3.3167Y-2.4377
X3.3183Y-3.8196
X3.3242Y-2.5432
X3.3425Y-1.23
X3.3669Y-4.7253
X3.3736Y-5.6371
X3.3872Y-1.4763
X3.3978Y-3.9396
X3.4072Y-4.19
X3.4214Y-2.3204
X3.4269Y-4.0385
X3.4309Y-2.79
X3.4864Y-3.2621
X3.4868Y-2.6597
X3.4878Y-5.7026
X3.5338Y-5.8792
X3.5527Y-4.6162
X3.5545Y-4.9511
X3.582Y-1.7853
X3.6242Y-3.5425
X3.6256Y-5.8032
X3.6478Y-4.3456
X3.6761Y-3.1318
X3.7096Y-2.5648
X3.7358Y-2.1737
X3.7411Y-5.1259
X3.7669Y-1.783
X3.7797Y-4.9467
X3.795Y-2.0967
X3.8151Y-3.2546
X3.8385Y-1.4255
X3.8718Y-4.3333
X3.8817Y-1.783
X3.911Y-5.8284
X3.9295Y-4.7658
X3.933Y-1.4239
X3.9864Y-3.8207
X3.9974Y-4.0983
X3.9974Y-4.5172
X3.9978Y-1.6251
X4.0535Y-5.3882
X4.0714Y-4.4396
X4.0939Y-4.1908
X4.1202Y-5.0188
X4.1415Y-3.942
X4.1659Y-2.4247
X4.2025Y-2.792
X4.2208Y-2.3213
X4.225Y-5.7629
X4.3045Y-2.9322
X4.3427Y-2.668
X4.3478Y-3.6034
X4.3844Y-1.7314
X4.3872Y-5.3369
X4.4187Y-2.0637
X4.4187Y-3.5904
X4.4309Y-4.7833
X4.4616Y-5.7668
X4.4757Y-4.3259
X4.5069Y-5.1365
X4.5415Y-4.6853
X4.5509Y-3.4274
X4.56Y-3.1231
X4.6738Y-4.4308
X4.6883Y-5.7751
X4.7391Y-1.629
X4.7395Y-4.6393
X4.7478Y-5.3352
X4.7561Y-5.2007
X4.773Y-2.4412
X4.8045Y-4.6396
X4.8578Y-2.9272
X4.895Y-3.9361
X4.9131Y-2.3011
X4.9287Y-2.7706
X5.0169Y-4.9339
X5.0427Y-4.685
X5.0504Y-6.0434
X5.057Y-5.2898
X5.1236Y-5.3345
X5.137Y-1.7536
X5.1445Y-3.5468
X5.1659Y-5.9263
X5.1767Y-3.1206
X5.1817Y-2.0385
X5.1864Y-3.3247
X5.3594Y-1.7699
X5.3622Y-1.6304
X5.3913Y-5.158
X5.4811Y-5.9607
X5.4887Y-3.8215
X5.4915Y-4.0731
X5.4923Y-4.7625
X5.5313Y-2.3735
X5.5344Y-3.7617
X5.5444Y-2.4765
X5.5458Y-5.6908
X5.5504Y-3.9331
X5.5738Y-4.4015
X5.5986Y-4.629
X5.6108Y-2.9304
X5.7332Y-5.9991
X5.7649Y-3.5457
X5.7675Y-5.3668
X5.8789Y-2.0696
X5.9317Y-5.0452
X5.9322Y-4.7603
X5.9387Y-1.6739
X5.9425Y-1.6083
X6.2202Y-4.318
X6.3151Y-3.9357
X6.3206Y-4.1227
X6.4506Y-3.866
X6.4588Y-5.3204
X6.4931Y-4.6837
X6.4935Y-4.7546
X6.5588Y-5.3738
X6.6923Y-5.1696
X6.9002Y-4.4456
X7.0356Y-4.8373
X7.0927Y-5.3668
X7.2431Y-5.5822
X7.2665Y-4.9902
X7.2852Y-5.3654
X7.5112Y-5.1652
T3
X1.0376Y-2.1877
X1.2375Y-2.9444
X1.3246Y-3.69
X1.3525Y-2.1877
X1.5524Y-2.9444
X1.6395Y-3.69
X1.8021Y-2.1865
X1.8128Y-4.4404
X2.1171Y-2.1865
X2.1277Y-4.4404
X2.1474Y-2.9444
X2.3584Y-3.6889
X2.4624Y-2.9444
X2.5474Y-2.1916
X2.649Y-4.7653
X2.649Y-5.0803
X2.6734Y-3.6889
X2.7261Y-4.4428
X2.8065Y-4.7653
X2.8065Y-5.0803
X2.8624Y-2.1916
X2.9257Y-2.9444
X3.0411Y-4.4428
X3.1128Y-3.6916
X3.2407Y-2.9444
X3.254Y-2.1956
X3.4277Y-3.6916
X3.4387Y-4.4396
X3.5628Y-2.9479
X3.569Y-2.1956
X3.6043Y-0.9333
X3.6249Y-1.0312
X3.6635Y-4.7593
X3.6635Y-5.0743
X3.6918Y-0.8638
X3.7125Y-0.9616
X3.7331Y-1.0595
X3.7537Y-4.4396
X3.8628Y-3.6881
X3.8777Y-2.9479
X3.9281Y-5.1849
X4.0167Y-2.1932
X4.1777Y-3.6881
X4.2186Y-4.4397
X4.2431Y-5.1849
X4.3317Y-2.1932
X4.4069Y-2.9369
X4.5335Y-4.4397
X4.6285Y-2.1924
X4.7218Y-2.9369
X4.7281Y-3.6912
X4.9435Y-2.1924
X4.9702Y-5.4928
X4.9702Y-5.8078
X4.975Y-4.4416
X5.0001Y-5.2003
X5.0431Y-3.6912
X5.1245Y-2.1901
X5.1277Y-5.4944
X5.1277Y-5.8093
X5.1864Y-2.9408
X5.2899Y-4.4416
X5.315Y-5.2003
X5.3642Y-3.6901
X5.4394Y-2.1901
X5.5013Y-2.9408
X5.6792Y-3.6901
X5.7238Y-4.4416
X6.0387Y-4.4416
X6.1344Y-5.2152
X6.4494Y-5.2152
X6.4638Y-4.4417
X6.7788Y-4.4417
X6.8909Y-5.3723
X7.1637Y-5.5298
T4
X1.6053Y-1.644
X2.3336Y-1.644
X2.7765Y-0.9865
X2.7765Y-1.0865
X2.7765Y-1.1865
X2.7765Y-1.2865
X3.3808Y-0.8533
X3.4006Y-0.9473
X3.4212Y-1.0452
X3.4418Y-1.143
X3.4726Y-1.2869
X3.4932Y-1.3847
X3.8133Y-5.7111
T5
X1.0423Y-5.3058
X1.0423Y-6.0058
X1.0513Y-5.5558
X1.0513Y-5.6558
X1.0513Y-5.7558
X1.1423Y-5.3058
X1.1423Y-6.0058
X1.2423Y-5.3058
X1.2423Y-6.0058
X1.3423Y-5.3058
X1.3423Y-6.0058
X1.4423Y-5.3058
X1.4423Y-6.0058
X1.5423Y-5.3058
X1.5423Y-6.0058
X1.6423Y-5.3058
X1.6423Y-6.0058
X1.7423Y-5.3058
X1.7423Y-6.0058
X1.8423Y-5.3058
X1.8423Y-6.0058
X1.9423Y-5.3058
X1.9423Y-6.0058
X2.0423Y-5.3058
X2.0423Y-6.0058
X2.1423Y-5.3058
X2.1423Y-6.0058
X2.2423Y-5.3058
X2.2423Y-6.0058
X2.3423Y-5.3058
X2.3423Y-6.0058
X2.4423Y-5.3058
X2.4423Y-6.0058
X2.5423Y-5.3058
X2.5423Y-6.0058
X2.6423Y-5.3058
X2.6423Y-6.0058
X2.7423Y-5.3058
X2.7423Y-6.0058
X2.8423Y-5.3058
X2.8423Y-6.0058
X2.9423Y-5.3058
X2.9423Y-6.0058
T6
X4.3681Y-5.7087
X4.5649Y-5.7914
X5.3425Y-5.7087
X5.5393Y-5.7914
T2
G00X2.9486Y-5.6204
M15
G01X2.9572Y-5.6204
M16
G05
G00X2.9486Y-5.6912
M15
G01X2.9572Y-5.6912
M16
G05
M30
