0
SECTION
2
HEADER
9
$INSUNITS
70
4
9
$ACADVER
1
AC1014
9
$HANDSEED
5
FFFF
0
ENDSEC
0
SECTION
2
TABLES
0
TABLE
2
VPORT
5
8
100
AcDbSymbolTable
0
ENDTAB
0
TABLE
2
LTYPE
5
5
100
AcDbSymbolTable
0
LTYPE
5
14
100
AcDbSymbolTableRecord
100
AcDbLinetypeTableRecord
2
BYBLOCK
70
0
0
LTYPE
5
15
100
AcDbSymbolTableRecord
100
AcDbLinetypeTableRecord
2
BYLAYER
70
0
0
LTYPE
5
16
100
AcDbSymbolTableRecord
100
AcDbLinetypeTableRecord
2
DASHED
70
0
3
Dashed __ __ __ __ __ __ __ __ __ __ __ __ __ _
72
65
73
2
40
0.75
49
0.5
74
0
49
-0.25
74
0
0
ENDTAB
0
TABLE
2
LAYER
5
2
100
AcDbSymbolTable
70
2
0
LAYER
5
50
100
AcDbSymbolTableRecord
100
AcDbLayerTableRecord
2
0
70
0
62
7
6
CONTINUOUS
0
ENDTAB
0
TABLE
2
STYLE
5
3
100
AcDbSymbolTable
70
1
0
STYLE
5
11
100
AcDbSymbolTableRecord
100
AcDbTextStyleTableRecord
2
STANDARD
70
0
0
ENDTAB
0
TABLE
2
VIEW
5
6
100
AcDbSymbolTable
70
0
0
ENDTAB
0
TABLE
2
UCS
5
7
100
AcDbSymbolTable
70
0
0
ENDTAB
0
TABLE
2
APPID
5
9
100
AcDbSymbolTable
70
2
0
APPID
5
12
100
AcDbSymbolTableRecord
100
AcDbRegAppTableRecord
2
ACAD
70
0
0
ENDTAB
0
TABLE
2
DIMSTYLE
5
A
100
AcDbSymbolTable
70
1
0
ENDTAB
0
TABLE
2
BLOCK_RECORD
5
1
100
AcDbSymbolTable
70
1
0
BLOCK_RECORD
5
1F
100
AcDbSymbolTableRecord
100
AcDbBlockTableRecord
2
*MODEL_SPACE
0
BLOCK_RECORD
5
1B
100
AcDbSymbolTableRecord
100
AcDbBlockTableRecord
2
*PAPER_SPACE
0
ENDTAB
0
ENDSEC
0
SECTION
2
BLOCKS
0
BLOCK
5
20
100
AcDbEntity
100
AcDbBlockBegin
2
*MODEL_SPACE
0
ENDBLK
5
21
100
AcDbEntity
100
AcDbBlockEnd
0
BLOCK
5
1C
100
AcDbEntity
100
AcDbBlockBegin
2
*PAPER_SPACE
0
ENDBLK
5
1D
100
AcDbEntity
100
AcDbBlockEnd
0
ENDSEC
0
SECTION
2
ENTITIES
0
LWPOLYLINE
5
100
100
AcDbEntity
8
0
100
AcDbPolyline
90
44
70
1
43
0.0
10
-61.132000000000389
20
4.966400000000184
42
0.41421356237309348
10
-62.132000000000396
20
5.9664000000001494
10
-212.73199999999883
20
5.9663999999968551
42
0.41421356237306595
10
-213.73199999999881
20
4.9663999999968933
10
-213.73199999999898
20
-0.033600000002845798
42
0.41421356237313817
10
-213.23199999999898
20
-0.53360000000285535
10
-175.73200000000077
20
-0.53360000000041108
42
-0.41421356237308377
10
-175.23200000000074
20
-1.0336000000003633
10
-175.2319999999992
20
-15.03360000000103
42
-0.41421356237310675
10
-175.73199999999918
20
-15.533600000001087
10
-213.23199999999912
20
-15.533600000002856
42
0.41421356237307427
10
-213.73199999999912
20
-16.033600000002846
10
-213.73199999999983
20
-112.62701876990469
42
0.41421356237310542
10
-212.7319999999998
20
-113.62701876990468
10
-203.23199999999983
20
-113.62701876990478
42
-0.41421356237309509
10
-202.7319999999998
20
-114.12701876990479
10
-202.73199999999977
20
-121.68842471355791
42
0.39578400516887913
10
-201.79528750912823
20
-122.68642004981372
10
-121.20035624543569
20
-127.79731812995109
42
-0.39578400516891371
10
-120.73199999999989
20
-128.29631579807901
10
-120.73199999999756
20
-129.32701876990319
42
0.4142135623744686
10
-120.23199999999756
20
-129.82701876990558
10
-114.23199999999804
20
-129.82701876990743
42
0.41421356237195039
10
-113.73199999999986
20
-129.32701876990748
10
-113.7319999999981
20
-114.82701876990251
42
-0.41421356237305162
10
-112.53199999999813
20
-113.62701876990266
10
-67.131999999999394
20
-113.6270187699016
42
0.4142135623731002
10
-66.131999999999408
20
-112.62701876990161
10
-66.131999999999422
20
-95.683450000000093
42
-0.41421356237306461
10
-64.931999999999562
20
-94.483450000000104
10
-57.931999999999427
20
-94.483449999999351
42
0.41421356237310802
10
-56.931999999999533
20
-93.483449999999237
10
-56.932000000001011
20
-80.483449999999351
42
0.41421356237312101
10
-57.93200000000121
20
-79.483449999999465
10
-60.731999999999147
20
-79.483450000000019
42
-0.41421356237314921
10
-61.931999999999391
20
-78.28345000000003
10
-61.931999999999675
20
-61.483450000000516
42
0.41421356237306384
10
-62.931999999999569
20
-60.483450000000545
10
-69.931999999999775
20
-60.48344999999987
42
-0.41421356237307339
10
-71.131999999999664
20
-59.283449999999846
10
-71.131999999999152
20
-38.283449999999746
42
-0.41421356237308965
10
-69.93199999999915
20
-37.083449999999772
10
-62.131999999999159
20
-37.083449999999829
42
0.41421356237311191
10
-61.131999999999152
20
-36.083449999999793
0
ENDSEC
0
SECTION
2
OBJECTS
0
DICTIONARY
5
C
100
AcDbDictionary
3
ACAD_GROUP
350
D
3
ACAD_MLINESTYLE
350
17
0
DICTIONARY
5
D
100
AcDbDictionary
0
DICTIONARY
5
1A
330
C
100
AcDbDictionary
0
DICTIONARY
5
17
100
AcDbDictionary
0
ENDSEC
0
EOF
