%TF.GenerationSoftware,KiCad,Pcbnew,8.0.7*%
%TF.CreationDate,2025-05-09T13:48:15+02:00*%
%TF.ProjectId,complete_plate_6,636f6d70-6c65-4746-955f-706c6174655f,rev?*%
%TF.SameCoordinates,Original*%
%TF.FileFunction,Copper,L1,Top*%
%TF.FilePolarity,Positive*%
%FSLAX46Y46*%
G04 Gerber Fmt 4.6, Leading zero omitted, Abs format (unit mm)*
G04 Created by KiCad (PCBNEW 8.0.7) date 2025-05-09 13:48:15*
%MOMM*%
%LPD*%
G01*
G04 APERTURE LIST*
G04 APERTURE END LIST*
%TA.AperFunction,NonConductor*%
G36*
X208735539Y-54901941D02*
G01*
X208781294Y-54954745D01*
X208792500Y-55006256D01*
X208792500Y-150686665D01*
X208772815Y-150753704D01*
X208720011Y-150799459D01*
X208668500Y-150810665D01*
X102649108Y-150810665D01*
X102521812Y-150844773D01*
X102407686Y-150910665D01*
X102407683Y-150910667D01*
X102314502Y-151003848D01*
X102314500Y-151003851D01*
X102248608Y-151117977D01*
X102214500Y-151245273D01*
X102214500Y-166980550D01*
X102194815Y-167047589D01*
X102142011Y-167093344D01*
X102090500Y-167104550D01*
X50589500Y-167104550D01*
X50522461Y-167084865D01*
X50476706Y-167032061D01*
X50465500Y-166980550D01*
X50465500Y-151039158D01*
X53464500Y-151039158D01*
X53464500Y-165170941D01*
X53498608Y-165298237D01*
X53531554Y-165355300D01*
X53564500Y-165412364D01*
X53657686Y-165505550D01*
X53771814Y-165571442D01*
X53899108Y-165605550D01*
X53899110Y-165605550D01*
X68030890Y-165605550D01*
X68030892Y-165605550D01*
X68158186Y-165571442D01*
X68272314Y-165505550D01*
X68365500Y-165412364D01*
X68431392Y-165298236D01*
X68465500Y-165170942D01*
X68465500Y-151039158D01*
X78214500Y-151039158D01*
X78214500Y-165170941D01*
X78248608Y-165298237D01*
X78281554Y-165355300D01*
X78314500Y-165412364D01*
X78407686Y-165505550D01*
X78521814Y-165571442D01*
X78649108Y-165605550D01*
X78649110Y-165605550D01*
X92780890Y-165605550D01*
X92780892Y-165605550D01*
X92908186Y-165571442D01*
X93022314Y-165505550D01*
X93115500Y-165412364D01*
X93181392Y-165298236D01*
X93215500Y-165170942D01*
X93215500Y-158105050D01*
X96059396Y-158105050D01*
X96079778Y-158364040D01*
X96140427Y-158616660D01*
X96239843Y-158856673D01*
X96239845Y-158856677D01*
X96239846Y-158856678D01*
X96375588Y-159078190D01*
X96544311Y-159275739D01*
X96741860Y-159444462D01*
X96963372Y-159580204D01*
X96963374Y-159580204D01*
X96963376Y-159580206D01*
X97024693Y-159605604D01*
X97203390Y-159679623D01*
X97456006Y-159740271D01*
X97715000Y-159760654D01*
X97973994Y-159740271D01*
X98226610Y-159679623D01*
X98466628Y-159580204D01*
X98688140Y-159444462D01*
X98885689Y-159275739D01*
X99054412Y-159078190D01*
X99190154Y-158856678D01*
X99289573Y-158616660D01*
X99350221Y-158364044D01*
X99370604Y-158105050D01*
X99350221Y-157846056D01*
X99289573Y-157593440D01*
X99190154Y-157353422D01*
X99054412Y-157131910D01*
X98885689Y-156934361D01*
X98688140Y-156765638D01*
X98466628Y-156629896D01*
X98466627Y-156629895D01*
X98466623Y-156629893D01*
X98300627Y-156561136D01*
X98226610Y-156530477D01*
X98226611Y-156530477D01*
X98088921Y-156497420D01*
X97973994Y-156469829D01*
X97973992Y-156469828D01*
X97973991Y-156469828D01*
X97715000Y-156449446D01*
X97456009Y-156469828D01*
X97203389Y-156530477D01*
X96963376Y-156629893D01*
X96741859Y-156765638D01*
X96544311Y-156934361D01*
X96375588Y-157131909D01*
X96239843Y-157353426D01*
X96140427Y-157593439D01*
X96079778Y-157846059D01*
X96059396Y-158105050D01*
X93215500Y-158105050D01*
X93215500Y-151039158D01*
X93181392Y-150911864D01*
X93115500Y-150797736D01*
X93022314Y-150704550D01*
X92965250Y-150671604D01*
X92908187Y-150638658D01*
X92844539Y-150621604D01*
X92780892Y-150604550D01*
X78780892Y-150604550D01*
X78649108Y-150604550D01*
X78521812Y-150638658D01*
X78407686Y-150704550D01*
X78407683Y-150704552D01*
X78314502Y-150797733D01*
X78314500Y-150797736D01*
X78248608Y-150911862D01*
X78214500Y-151039158D01*
X68465500Y-151039158D01*
X68431392Y-150911864D01*
X68365500Y-150797736D01*
X68272314Y-150704550D01*
X68215250Y-150671604D01*
X68158187Y-150638658D01*
X68094539Y-150621604D01*
X68030892Y-150604550D01*
X54030892Y-150604550D01*
X53899108Y-150604550D01*
X53771812Y-150638658D01*
X53657686Y-150704550D01*
X53657683Y-150704552D01*
X53564502Y-150797733D01*
X53564500Y-150797736D01*
X53498608Y-150911862D01*
X53464500Y-151039158D01*
X50465500Y-151039158D01*
X50465500Y-133038708D01*
X61144500Y-133038708D01*
X61144500Y-147171391D01*
X61178608Y-147298687D01*
X61211554Y-147355750D01*
X61244500Y-147412814D01*
X61337686Y-147506000D01*
X61451814Y-147571892D01*
X61579108Y-147606000D01*
X61579110Y-147606000D01*
X75711890Y-147606000D01*
X75711892Y-147606000D01*
X75839186Y-147571892D01*
X75953314Y-147506000D01*
X76046500Y-147412814D01*
X76112392Y-147298686D01*
X76146500Y-147171392D01*
X76146500Y-144105050D01*
X82468896Y-144105050D01*
X82489278Y-144364040D01*
X82549927Y-144616660D01*
X82649343Y-144856673D01*
X82649345Y-144856677D01*
X82649346Y-144856678D01*
X82785088Y-145078190D01*
X82953811Y-145275739D01*
X83151360Y-145444462D01*
X83372872Y-145580204D01*
X83372874Y-145580204D01*
X83372876Y-145580206D01*
X83434193Y-145605604D01*
X83612890Y-145679623D01*
X83865506Y-145740271D01*
X84124500Y-145760654D01*
X84383494Y-145740271D01*
X84636110Y-145679623D01*
X84876128Y-145580204D01*
X85097640Y-145444462D01*
X85295189Y-145275739D01*
X85463912Y-145078190D01*
X85599654Y-144856678D01*
X85699073Y-144616660D01*
X85759721Y-144364044D01*
X85780104Y-144105050D01*
X85759721Y-143846056D01*
X85699073Y-143593440D01*
X85599654Y-143353422D01*
X85463912Y-143131910D01*
X85295189Y-142934361D01*
X85097640Y-142765638D01*
X84876128Y-142629896D01*
X84876127Y-142629895D01*
X84876123Y-142629893D01*
X84710127Y-142561136D01*
X84636110Y-142530477D01*
X84636111Y-142530477D01*
X84498421Y-142497420D01*
X84383494Y-142469829D01*
X84383492Y-142469828D01*
X84383491Y-142469828D01*
X84124500Y-142449446D01*
X83865509Y-142469828D01*
X83612889Y-142530477D01*
X83372876Y-142629893D01*
X83151359Y-142765638D01*
X82953811Y-142934361D01*
X82785088Y-143131909D01*
X82649343Y-143353426D01*
X82549927Y-143593439D01*
X82489278Y-143846059D01*
X82468896Y-144105050D01*
X76146500Y-144105050D01*
X76146500Y-137105050D01*
X82468896Y-137105050D01*
X82489278Y-137364040D01*
X82549927Y-137616660D01*
X82649343Y-137856673D01*
X82649345Y-137856677D01*
X82649346Y-137856678D01*
X82785088Y-138078190D01*
X82953811Y-138275739D01*
X83151360Y-138444462D01*
X83372872Y-138580204D01*
X83372874Y-138580204D01*
X83372876Y-138580206D01*
X83434193Y-138605604D01*
X83612890Y-138679623D01*
X83865506Y-138740271D01*
X84124500Y-138760654D01*
X84383494Y-138740271D01*
X84636110Y-138679623D01*
X84876128Y-138580204D01*
X85097640Y-138444462D01*
X85295189Y-138275739D01*
X85463912Y-138078190D01*
X85599654Y-137856678D01*
X85699073Y-137616660D01*
X85759721Y-137364044D01*
X85780104Y-137105050D01*
X85759721Y-136846056D01*
X85699073Y-136593440D01*
X85599654Y-136353422D01*
X85463912Y-136131910D01*
X85295189Y-135934361D01*
X85097640Y-135765638D01*
X84876128Y-135629896D01*
X84876127Y-135629895D01*
X84876123Y-135629893D01*
X84710127Y-135561136D01*
X84636110Y-135530477D01*
X84636111Y-135530477D01*
X84498421Y-135497420D01*
X84383494Y-135469829D01*
X84383492Y-135469828D01*
X84383491Y-135469828D01*
X84124500Y-135449446D01*
X83865509Y-135469828D01*
X83612889Y-135530477D01*
X83372876Y-135629893D01*
X83151359Y-135765638D01*
X82953811Y-135934361D01*
X82785088Y-136131909D01*
X82649343Y-136353426D01*
X82549927Y-136593439D01*
X82489278Y-136846059D01*
X82468896Y-137105050D01*
X76146500Y-137105050D01*
X76146500Y-133038708D01*
X92102500Y-133038708D01*
X92102500Y-147171391D01*
X92136608Y-147298687D01*
X92169554Y-147355750D01*
X92202500Y-147412814D01*
X92295686Y-147506000D01*
X92409814Y-147571892D01*
X92537108Y-147606000D01*
X92537110Y-147606000D01*
X106667890Y-147606000D01*
X106667892Y-147606000D01*
X106795186Y-147571892D01*
X106909314Y-147506000D01*
X107002500Y-147412814D01*
X107068392Y-147298686D01*
X107102500Y-147171392D01*
X107102500Y-133038708D01*
X118294500Y-133038708D01*
X118294500Y-147171391D01*
X118328608Y-147298687D01*
X118361554Y-147355750D01*
X118394500Y-147412814D01*
X118487686Y-147506000D01*
X118601814Y-147571892D01*
X118729108Y-147606000D01*
X118729110Y-147606000D01*
X132861890Y-147606000D01*
X132861892Y-147606000D01*
X132989186Y-147571892D01*
X133103314Y-147506000D01*
X133196500Y-147412814D01*
X133262392Y-147298686D01*
X133296500Y-147171392D01*
X133296500Y-133038708D01*
X142108500Y-133038708D01*
X142108500Y-147171391D01*
X142142608Y-147298687D01*
X142175554Y-147355750D01*
X142208500Y-147412814D01*
X142301686Y-147506000D01*
X142415814Y-147571892D01*
X142543108Y-147606000D01*
X142543110Y-147606000D01*
X156673890Y-147606000D01*
X156673892Y-147606000D01*
X156801186Y-147571892D01*
X156915314Y-147506000D01*
X157008500Y-147412814D01*
X157074392Y-147298686D01*
X157108500Y-147171392D01*
X157108500Y-140105050D01*
X159858396Y-140105050D01*
X159878778Y-140364040D01*
X159939427Y-140616660D01*
X160038843Y-140856673D01*
X160038845Y-140856677D01*
X160038846Y-140856678D01*
X160174588Y-141078190D01*
X160343311Y-141275739D01*
X160540860Y-141444462D01*
X160762372Y-141580204D01*
X160762374Y-141580204D01*
X160762376Y-141580206D01*
X160823693Y-141605604D01*
X161002390Y-141679623D01*
X161255006Y-141740271D01*
X161514000Y-141760654D01*
X161772994Y-141740271D01*
X162025610Y-141679623D01*
X162265628Y-141580204D01*
X162487140Y-141444462D01*
X162684689Y-141275739D01*
X162853412Y-141078190D01*
X162989154Y-140856678D01*
X163088573Y-140616660D01*
X163149221Y-140364044D01*
X163169604Y-140105050D01*
X163149221Y-139846056D01*
X163088573Y-139593440D01*
X162989154Y-139353422D01*
X162853412Y-139131910D01*
X162684689Y-138934361D01*
X162487140Y-138765638D01*
X162265628Y-138629896D01*
X162265627Y-138629895D01*
X162265623Y-138629893D01*
X162099627Y-138561136D01*
X162025610Y-138530477D01*
X162025611Y-138530477D01*
X161887921Y-138497420D01*
X161772994Y-138469829D01*
X161772992Y-138469828D01*
X161772991Y-138469828D01*
X161514000Y-138449446D01*
X161255009Y-138469828D01*
X161002389Y-138530477D01*
X160762376Y-138629893D01*
X160540859Y-138765638D01*
X160343311Y-138934361D01*
X160174588Y-139131909D01*
X160038843Y-139353426D01*
X159939427Y-139593439D01*
X159878778Y-139846059D01*
X159858396Y-140105050D01*
X157108500Y-140105050D01*
X157108500Y-133038708D01*
X165919500Y-133038708D01*
X165919500Y-147171391D01*
X165953608Y-147298687D01*
X165986554Y-147355750D01*
X166019500Y-147412814D01*
X166112686Y-147506000D01*
X166226814Y-147571892D01*
X166354108Y-147606000D01*
X166354110Y-147606000D01*
X180486890Y-147606000D01*
X180486892Y-147606000D01*
X180614186Y-147571892D01*
X180728314Y-147506000D01*
X180821500Y-147412814D01*
X180887392Y-147298686D01*
X180921500Y-147171392D01*
X180921500Y-140105050D01*
X183671896Y-140105050D01*
X183692278Y-140364040D01*
X183752927Y-140616660D01*
X183852343Y-140856673D01*
X183852345Y-140856677D01*
X183852346Y-140856678D01*
X183988088Y-141078190D01*
X184156811Y-141275739D01*
X184354360Y-141444462D01*
X184575872Y-141580204D01*
X184575874Y-141580204D01*
X184575876Y-141580206D01*
X184637193Y-141605604D01*
X184815890Y-141679623D01*
X185068506Y-141740271D01*
X185327500Y-141760654D01*
X185586494Y-141740271D01*
X185839110Y-141679623D01*
X186079128Y-141580204D01*
X186300640Y-141444462D01*
X186498189Y-141275739D01*
X186666912Y-141078190D01*
X186802654Y-140856678D01*
X186902073Y-140616660D01*
X186962721Y-140364044D01*
X186983104Y-140105050D01*
X186962721Y-139846056D01*
X186902073Y-139593440D01*
X186802654Y-139353422D01*
X186666912Y-139131910D01*
X186498189Y-138934361D01*
X186300640Y-138765638D01*
X186079128Y-138629896D01*
X186079127Y-138629895D01*
X186079123Y-138629893D01*
X185913127Y-138561136D01*
X185839110Y-138530477D01*
X185839111Y-138530477D01*
X185701421Y-138497420D01*
X185586494Y-138469829D01*
X185586492Y-138469828D01*
X185586491Y-138469828D01*
X185327500Y-138449446D01*
X185068509Y-138469828D01*
X184815889Y-138530477D01*
X184575876Y-138629893D01*
X184354359Y-138765638D01*
X184156811Y-138934361D01*
X183988088Y-139131909D01*
X183852343Y-139353426D01*
X183752927Y-139593439D01*
X183692278Y-139846059D01*
X183671896Y-140105050D01*
X180921500Y-140105050D01*
X180921500Y-133038708D01*
X189733500Y-133038708D01*
X189733500Y-147171391D01*
X189767608Y-147298687D01*
X189800554Y-147355750D01*
X189833500Y-147412814D01*
X189926686Y-147506000D01*
X190040814Y-147571892D01*
X190168108Y-147606000D01*
X190168110Y-147606000D01*
X204299890Y-147606000D01*
X204299892Y-147606000D01*
X204427186Y-147571892D01*
X204541314Y-147506000D01*
X204634500Y-147412814D01*
X204700392Y-147298686D01*
X204734500Y-147171392D01*
X204734500Y-133038708D01*
X204700392Y-132911414D01*
X204634500Y-132797286D01*
X204541314Y-132704100D01*
X204484250Y-132671154D01*
X204427187Y-132638208D01*
X204363539Y-132621154D01*
X204299892Y-132604100D01*
X190299892Y-132604100D01*
X190168108Y-132604100D01*
X190040812Y-132638208D01*
X189926686Y-132704100D01*
X189926683Y-132704102D01*
X189833502Y-132797283D01*
X189833500Y-132797286D01*
X189767608Y-132911412D01*
X189733500Y-133038708D01*
X180921500Y-133038708D01*
X180887392Y-132911414D01*
X180821500Y-132797286D01*
X180728314Y-132704100D01*
X180671250Y-132671154D01*
X180614187Y-132638208D01*
X180550539Y-132621154D01*
X180486892Y-132604100D01*
X166485892Y-132604100D01*
X166354108Y-132604100D01*
X166226812Y-132638208D01*
X166112686Y-132704100D01*
X166112683Y-132704102D01*
X166019502Y-132797283D01*
X166019500Y-132797286D01*
X165953608Y-132911412D01*
X165919500Y-133038708D01*
X157108500Y-133038708D01*
X157074392Y-132911414D01*
X157008500Y-132797286D01*
X156915314Y-132704100D01*
X156858250Y-132671154D01*
X156801187Y-132638208D01*
X156737539Y-132621154D01*
X156673892Y-132604100D01*
X142674892Y-132604100D01*
X142543108Y-132604100D01*
X142415812Y-132638208D01*
X142301686Y-132704100D01*
X142301683Y-132704102D01*
X142208502Y-132797283D01*
X142208500Y-132797286D01*
X142142608Y-132911412D01*
X142108500Y-133038708D01*
X133296500Y-133038708D01*
X133262392Y-132911414D01*
X133196500Y-132797286D01*
X133103314Y-132704100D01*
X133046250Y-132671154D01*
X132989187Y-132638208D01*
X132925539Y-132621154D01*
X132861892Y-132604100D01*
X118860892Y-132604100D01*
X118729108Y-132604100D01*
X118601812Y-132638208D01*
X118487686Y-132704100D01*
X118487683Y-132704102D01*
X118394502Y-132797283D01*
X118394500Y-132797286D01*
X118328608Y-132911412D01*
X118294500Y-133038708D01*
X107102500Y-133038708D01*
X107068392Y-132911414D01*
X107002500Y-132797286D01*
X106909314Y-132704100D01*
X106852250Y-132671154D01*
X106795187Y-132638208D01*
X106731539Y-132621154D01*
X106667892Y-132604100D01*
X92668892Y-132604100D01*
X92537108Y-132604100D01*
X92409812Y-132638208D01*
X92295686Y-132704100D01*
X92295683Y-132704102D01*
X92202502Y-132797283D01*
X92202500Y-132797286D01*
X92136608Y-132911412D01*
X92102500Y-133038708D01*
X76146500Y-133038708D01*
X76112392Y-132911414D01*
X76046500Y-132797286D01*
X75953314Y-132704100D01*
X75896250Y-132671154D01*
X75839187Y-132638208D01*
X75775539Y-132621154D01*
X75711892Y-132604100D01*
X61710892Y-132604100D01*
X61579108Y-132604100D01*
X61451812Y-132638208D01*
X61337686Y-132704100D01*
X61337683Y-132704102D01*
X61244502Y-132797283D01*
X61244500Y-132797286D01*
X61178608Y-132911412D01*
X61144500Y-133038708D01*
X50465500Y-133038708D01*
X50465500Y-130203100D01*
X50485185Y-130136061D01*
X50537989Y-130090306D01*
X50589500Y-130079100D01*
X60093890Y-130079100D01*
X60093892Y-130079100D01*
X60221186Y-130044992D01*
X60335314Y-129979100D01*
X60428500Y-129885914D01*
X60494392Y-129771786D01*
X60528500Y-129644492D01*
X60528500Y-113990108D01*
X63527500Y-113990108D01*
X63527500Y-127989408D01*
X63527500Y-128121192D01*
X63530561Y-128132616D01*
X63561608Y-128248487D01*
X63586552Y-128291691D01*
X63627500Y-128362614D01*
X63720686Y-128455800D01*
X63834814Y-128521692D01*
X63962108Y-128555800D01*
X63962110Y-128555800D01*
X78092890Y-128555800D01*
X78092892Y-128555800D01*
X78220186Y-128521692D01*
X78334314Y-128455800D01*
X78427500Y-128362614D01*
X78493392Y-128248486D01*
X78527500Y-128121192D01*
X78527500Y-113990108D01*
X82577500Y-113990108D01*
X82577500Y-127989408D01*
X82577500Y-128121192D01*
X82580561Y-128132616D01*
X82611608Y-128248487D01*
X82636552Y-128291691D01*
X82677500Y-128362614D01*
X82770686Y-128455800D01*
X82884814Y-128521692D01*
X83012108Y-128555800D01*
X83012110Y-128555800D01*
X97142890Y-128555800D01*
X97142892Y-128555800D01*
X97270186Y-128521692D01*
X97384314Y-128455800D01*
X97477500Y-128362614D01*
X97543392Y-128248486D01*
X97577500Y-128121192D01*
X97577500Y-113990108D01*
X101627500Y-113990108D01*
X101627500Y-127989408D01*
X101627500Y-128121192D01*
X101630561Y-128132616D01*
X101661608Y-128248487D01*
X101686552Y-128291691D01*
X101727500Y-128362614D01*
X101820686Y-128455800D01*
X101934814Y-128521692D01*
X102062108Y-128555800D01*
X102062110Y-128555800D01*
X116192890Y-128555800D01*
X116192892Y-128555800D01*
X116320186Y-128521692D01*
X116434314Y-128455800D01*
X116527500Y-128362614D01*
X116593392Y-128248486D01*
X116627500Y-128121192D01*
X116627500Y-113990108D01*
X120677500Y-113990108D01*
X120677500Y-127989408D01*
X120677500Y-128121192D01*
X120680561Y-128132616D01*
X120711608Y-128248487D01*
X120736552Y-128291691D01*
X120777500Y-128362614D01*
X120870686Y-128455800D01*
X120984814Y-128521692D01*
X121112108Y-128555800D01*
X121112110Y-128555800D01*
X135242890Y-128555800D01*
X135242892Y-128555800D01*
X135370186Y-128521692D01*
X135484314Y-128455800D01*
X135577500Y-128362614D01*
X135643392Y-128248486D01*
X135677500Y-128121192D01*
X135677500Y-113990108D01*
X139727500Y-113990108D01*
X139727500Y-127989408D01*
X139727500Y-128121192D01*
X139730561Y-128132616D01*
X139761608Y-128248487D01*
X139786552Y-128291691D01*
X139827500Y-128362614D01*
X139920686Y-128455800D01*
X140034814Y-128521692D01*
X140162108Y-128555800D01*
X140162110Y-128555800D01*
X154292890Y-128555800D01*
X154292892Y-128555800D01*
X154420186Y-128521692D01*
X154534314Y-128455800D01*
X154627500Y-128362614D01*
X154693392Y-128248486D01*
X154727500Y-128121192D01*
X154727500Y-118690608D01*
X166345500Y-118690608D01*
X166345500Y-121621291D01*
X166379608Y-121748587D01*
X166398314Y-121780986D01*
X166445500Y-121862714D01*
X166538686Y-121955900D01*
X166652814Y-122021792D01*
X166780108Y-122055900D01*
X167045500Y-122055900D01*
X167112539Y-122075585D01*
X167158294Y-122128389D01*
X167169500Y-122179900D01*
X167169500Y-127891191D01*
X167203608Y-128018487D01*
X167236554Y-128075550D01*
X167269500Y-128132614D01*
X167362686Y-128225800D01*
X167476814Y-128291692D01*
X167604108Y-128325800D01*
X168770500Y-128325800D01*
X168837539Y-128345485D01*
X168883294Y-128398289D01*
X168894500Y-128449800D01*
X168894500Y-128959608D01*
X168894500Y-129091392D01*
X168903693Y-129125700D01*
X168928608Y-129218687D01*
X168958977Y-129271286D01*
X168994500Y-129332814D01*
X169087686Y-129426000D01*
X169201814Y-129491892D01*
X169329108Y-129526000D01*
X169329110Y-129526000D01*
X172761890Y-129526000D01*
X172761892Y-129526000D01*
X172889186Y-129491892D01*
X173003314Y-129426000D01*
X173096500Y-129332814D01*
X173162392Y-129218686D01*
X173196500Y-129091392D01*
X173196500Y-128449800D01*
X173216185Y-128382761D01*
X173268989Y-128337006D01*
X173320500Y-128325800D01*
X174486890Y-128325800D01*
X174486892Y-128325800D01*
X174614186Y-128291692D01*
X174728314Y-128225800D01*
X174821500Y-128132614D01*
X174887392Y-128018486D01*
X174921500Y-127891192D01*
X174921500Y-123979400D01*
X174941185Y-123912361D01*
X174993989Y-123866606D01*
X175045500Y-123855400D01*
X175320500Y-123855400D01*
X175387539Y-123875085D01*
X175433294Y-123927889D01*
X175444500Y-123979400D01*
X175444500Y-127989408D01*
X175444500Y-128121192D01*
X175447561Y-128132616D01*
X175478608Y-128248487D01*
X175503552Y-128291691D01*
X175544500Y-128362614D01*
X175637686Y-128455800D01*
X175751814Y-128521692D01*
X175879108Y-128555800D01*
X175879110Y-128555800D01*
X190011890Y-128555800D01*
X190011892Y-128555800D01*
X190139186Y-128521692D01*
X190253314Y-128455800D01*
X190346500Y-128362614D01*
X190412392Y-128248486D01*
X190446500Y-128121192D01*
X190446500Y-123979400D01*
X190466185Y-123912361D01*
X190518989Y-123866606D01*
X190570500Y-123855400D01*
X190845500Y-123855400D01*
X190912539Y-123875085D01*
X190958294Y-123927889D01*
X190969500Y-123979400D01*
X190969500Y-127891191D01*
X191003608Y-128018487D01*
X191036554Y-128075550D01*
X191069500Y-128132614D01*
X191162686Y-128225800D01*
X191276814Y-128291692D01*
X191404108Y-128325800D01*
X192570500Y-128325800D01*
X192637539Y-128345485D01*
X192683294Y-128398289D01*
X192694500Y-128449800D01*
X192694500Y-128959608D01*
X192694500Y-129091392D01*
X192703693Y-129125700D01*
X192728608Y-129218687D01*
X192758977Y-129271286D01*
X192794500Y-129332814D01*
X192887686Y-129426000D01*
X193001814Y-129491892D01*
X193129108Y-129526000D01*
X193129110Y-129526000D01*
X196562890Y-129526000D01*
X196562892Y-129526000D01*
X196690186Y-129491892D01*
X196804314Y-129426000D01*
X196897500Y-129332814D01*
X196963392Y-129218686D01*
X196997500Y-129091392D01*
X196997500Y-128449800D01*
X197017185Y-128382761D01*
X197069989Y-128337006D01*
X197121500Y-128325800D01*
X198287890Y-128325800D01*
X198287892Y-128325800D01*
X198415186Y-128291692D01*
X198529314Y-128225800D01*
X198622500Y-128132614D01*
X198688392Y-128018486D01*
X198722500Y-127891192D01*
X198722500Y-122179900D01*
X198742185Y-122112861D01*
X198794989Y-122067106D01*
X198846500Y-122055900D01*
X199109890Y-122055900D01*
X199109892Y-122055900D01*
X199237186Y-122021792D01*
X199351314Y-121955900D01*
X199444500Y-121862714D01*
X199510392Y-121748586D01*
X199544500Y-121621292D01*
X199544500Y-118690608D01*
X199510392Y-118563314D01*
X199444500Y-118449186D01*
X199351314Y-118356000D01*
X199294250Y-118323054D01*
X199237187Y-118290108D01*
X199173539Y-118273054D01*
X199109892Y-118256000D01*
X199109891Y-118256000D01*
X198846500Y-118256000D01*
X198779461Y-118236315D01*
X198733706Y-118183511D01*
X198722500Y-118132000D01*
X198722500Y-115460510D01*
X198722500Y-115460508D01*
X198688392Y-115333214D01*
X198622500Y-115219086D01*
X198529314Y-115125900D01*
X198472250Y-115092954D01*
X198415187Y-115060008D01*
X198351539Y-115042954D01*
X198287892Y-115025900D01*
X191535892Y-115025900D01*
X191404108Y-115025900D01*
X191276812Y-115060008D01*
X191162686Y-115125900D01*
X191162683Y-115125902D01*
X191069502Y-115219083D01*
X191069500Y-115219086D01*
X191003608Y-115333212D01*
X190969500Y-115460508D01*
X190969500Y-118132000D01*
X190949815Y-118199039D01*
X190897011Y-118244794D01*
X190845500Y-118256000D01*
X190570500Y-118256000D01*
X190503461Y-118236315D01*
X190457706Y-118183511D01*
X190446500Y-118132000D01*
X190446500Y-113990110D01*
X190446500Y-113990108D01*
X190412392Y-113862814D01*
X190346500Y-113748686D01*
X190253314Y-113655500D01*
X190196250Y-113622554D01*
X190139187Y-113589608D01*
X190075539Y-113572554D01*
X190011892Y-113555500D01*
X176010892Y-113555500D01*
X175879108Y-113555500D01*
X175751812Y-113589608D01*
X175637686Y-113655500D01*
X175637683Y-113655502D01*
X175544502Y-113748683D01*
X175544500Y-113748686D01*
X175478608Y-113862812D01*
X175444500Y-113990108D01*
X175444500Y-118132000D01*
X175424815Y-118199039D01*
X175372011Y-118244794D01*
X175320500Y-118256000D01*
X175045500Y-118256000D01*
X174978461Y-118236315D01*
X174932706Y-118183511D01*
X174921500Y-118132000D01*
X174921500Y-115460510D01*
X174921500Y-115460508D01*
X174887392Y-115333214D01*
X174821500Y-115219086D01*
X174728314Y-115125900D01*
X174671250Y-115092954D01*
X174614187Y-115060008D01*
X174550539Y-115042954D01*
X174486892Y-115025900D01*
X167735892Y-115025900D01*
X167604108Y-115025900D01*
X167476812Y-115060008D01*
X167362686Y-115125900D01*
X167362683Y-115125902D01*
X167269502Y-115219083D01*
X167269500Y-115219086D01*
X167203608Y-115333212D01*
X167169500Y-115460508D01*
X167169500Y-118132000D01*
X167149815Y-118199039D01*
X167097011Y-118244794D01*
X167045500Y-118256000D01*
X166780108Y-118256000D01*
X166652812Y-118290108D01*
X166538686Y-118356000D01*
X166538683Y-118356002D01*
X166445502Y-118449183D01*
X166445500Y-118449186D01*
X166379608Y-118563312D01*
X166345500Y-118690608D01*
X154727500Y-118690608D01*
X154727500Y-113990108D01*
X154693392Y-113862814D01*
X154627500Y-113748686D01*
X154534314Y-113655500D01*
X154477250Y-113622554D01*
X154420187Y-113589608D01*
X154356539Y-113572554D01*
X154292892Y-113555500D01*
X140293892Y-113555500D01*
X140162108Y-113555500D01*
X140034812Y-113589608D01*
X139920686Y-113655500D01*
X139920683Y-113655502D01*
X139827502Y-113748683D01*
X139827500Y-113748686D01*
X139761608Y-113862812D01*
X139727500Y-113990108D01*
X135677500Y-113990108D01*
X135643392Y-113862814D01*
X135577500Y-113748686D01*
X135484314Y-113655500D01*
X135427250Y-113622554D01*
X135370187Y-113589608D01*
X135306539Y-113572554D01*
X135242892Y-113555500D01*
X121243892Y-113555500D01*
X121112108Y-113555500D01*
X120984812Y-113589608D01*
X120870686Y-113655500D01*
X120870683Y-113655502D01*
X120777502Y-113748683D01*
X120777500Y-113748686D01*
X120711608Y-113862812D01*
X120677500Y-113990108D01*
X116627500Y-113990108D01*
X116593392Y-113862814D01*
X116527500Y-113748686D01*
X116434314Y-113655500D01*
X116377250Y-113622554D01*
X116320187Y-113589608D01*
X116256539Y-113572554D01*
X116192892Y-113555500D01*
X102193892Y-113555500D01*
X102062108Y-113555500D01*
X101934812Y-113589608D01*
X101820686Y-113655500D01*
X101820683Y-113655502D01*
X101727502Y-113748683D01*
X101727500Y-113748686D01*
X101661608Y-113862812D01*
X101627500Y-113990108D01*
X97577500Y-113990108D01*
X97543392Y-113862814D01*
X97477500Y-113748686D01*
X97384314Y-113655500D01*
X97327250Y-113622554D01*
X97270187Y-113589608D01*
X97206539Y-113572554D01*
X97142892Y-113555500D01*
X83143892Y-113555500D01*
X83012108Y-113555500D01*
X82884812Y-113589608D01*
X82770686Y-113655500D01*
X82770683Y-113655502D01*
X82677502Y-113748683D01*
X82677500Y-113748686D01*
X82611608Y-113862812D01*
X82577500Y-113990108D01*
X78527500Y-113990108D01*
X78493392Y-113862814D01*
X78427500Y-113748686D01*
X78334314Y-113655500D01*
X78277250Y-113622554D01*
X78220187Y-113589608D01*
X78156539Y-113572554D01*
X78092892Y-113555500D01*
X64093892Y-113555500D01*
X63962108Y-113555500D01*
X63834812Y-113589608D01*
X63720686Y-113655500D01*
X63720683Y-113655502D01*
X63627502Y-113748683D01*
X63627500Y-113748686D01*
X63561608Y-113862812D01*
X63527500Y-113990108D01*
X60528500Y-113990108D01*
X60528500Y-112465408D01*
X60494392Y-112338114D01*
X60428500Y-112223986D01*
X60335314Y-112130800D01*
X60269491Y-112092797D01*
X60221187Y-112064908D01*
X60157539Y-112047854D01*
X60093892Y-112030800D01*
X60093891Y-112030800D01*
X51127500Y-112030800D01*
X51060461Y-112011115D01*
X51014706Y-111958311D01*
X51003500Y-111906800D01*
X51003500Y-94940108D01*
X54002500Y-94940108D01*
X54002500Y-108939408D01*
X54002500Y-109071192D01*
X54005561Y-109082616D01*
X54036608Y-109198487D01*
X54061552Y-109241691D01*
X54102500Y-109312614D01*
X54195686Y-109405800D01*
X54309814Y-109471692D01*
X54437108Y-109505800D01*
X54437110Y-109505800D01*
X68567890Y-109505800D01*
X68567892Y-109505800D01*
X68695186Y-109471692D01*
X68809314Y-109405800D01*
X68902500Y-109312614D01*
X68968392Y-109198486D01*
X69002500Y-109071192D01*
X69002500Y-94940108D01*
X73052500Y-94940108D01*
X73052500Y-108939408D01*
X73052500Y-109071192D01*
X73055561Y-109082616D01*
X73086608Y-109198487D01*
X73111552Y-109241691D01*
X73152500Y-109312614D01*
X73245686Y-109405800D01*
X73359814Y-109471692D01*
X73487108Y-109505800D01*
X73487110Y-109505800D01*
X87617890Y-109505800D01*
X87617892Y-109505800D01*
X87745186Y-109471692D01*
X87859314Y-109405800D01*
X87952500Y-109312614D01*
X88018392Y-109198486D01*
X88052500Y-109071192D01*
X88052500Y-102005650D01*
X88421896Y-102005650D01*
X88442278Y-102264640D01*
X88502927Y-102517260D01*
X88602343Y-102757273D01*
X88602345Y-102757277D01*
X88602346Y-102757278D01*
X88738088Y-102978790D01*
X88906811Y-103176339D01*
X89104360Y-103345062D01*
X89325872Y-103480804D01*
X89325874Y-103480804D01*
X89325876Y-103480806D01*
X89387193Y-103506204D01*
X89565890Y-103580223D01*
X89818506Y-103640871D01*
X90077500Y-103661254D01*
X90336494Y-103640871D01*
X90589110Y-103580223D01*
X90829128Y-103480804D01*
X91050640Y-103345062D01*
X91248189Y-103176339D01*
X91416912Y-102978790D01*
X91552654Y-102757278D01*
X91652073Y-102517260D01*
X91712721Y-102264644D01*
X91733104Y-102005650D01*
X91712721Y-101746656D01*
X91652073Y-101494040D01*
X91552654Y-101254022D01*
X91416912Y-101032510D01*
X91248189Y-100834961D01*
X91050640Y-100666238D01*
X90829128Y-100530496D01*
X90829127Y-100530495D01*
X90829123Y-100530493D01*
X90663127Y-100461736D01*
X90589110Y-100431077D01*
X90589111Y-100431077D01*
X90451421Y-100398020D01*
X90336494Y-100370429D01*
X90336492Y-100370428D01*
X90336491Y-100370428D01*
X90077500Y-100350046D01*
X89818509Y-100370428D01*
X89565889Y-100431077D01*
X89325876Y-100530493D01*
X89104359Y-100666238D01*
X88906811Y-100834961D01*
X88738088Y-101032509D01*
X88602343Y-101254026D01*
X88502927Y-101494039D01*
X88442278Y-101746659D01*
X88421896Y-102005650D01*
X88052500Y-102005650D01*
X88052500Y-94940108D01*
X92102500Y-94940108D01*
X92102500Y-108939408D01*
X92102500Y-109071192D01*
X92105561Y-109082616D01*
X92136608Y-109198487D01*
X92161552Y-109241691D01*
X92202500Y-109312614D01*
X92295686Y-109405800D01*
X92409814Y-109471692D01*
X92537108Y-109505800D01*
X92537110Y-109505800D01*
X106667890Y-109505800D01*
X106667892Y-109505800D01*
X106795186Y-109471692D01*
X106909314Y-109405800D01*
X107002500Y-109312614D01*
X107068392Y-109198486D01*
X107102500Y-109071192D01*
X107102500Y-94940108D01*
X111152500Y-94940108D01*
X111152500Y-108939408D01*
X111152500Y-109071192D01*
X111155561Y-109082616D01*
X111186608Y-109198487D01*
X111211552Y-109241691D01*
X111252500Y-109312614D01*
X111345686Y-109405800D01*
X111459814Y-109471692D01*
X111587108Y-109505800D01*
X111587110Y-109505800D01*
X125717890Y-109505800D01*
X125717892Y-109505800D01*
X125845186Y-109471692D01*
X125959314Y-109405800D01*
X126052500Y-109312614D01*
X126118392Y-109198486D01*
X126152500Y-109071192D01*
X126152500Y-94940108D01*
X130202500Y-94940108D01*
X130202500Y-108939408D01*
X130202500Y-109071192D01*
X130205561Y-109082616D01*
X130236608Y-109198487D01*
X130261552Y-109241691D01*
X130302500Y-109312614D01*
X130395686Y-109405800D01*
X130509814Y-109471692D01*
X130637108Y-109505800D01*
X130637110Y-109505800D01*
X144767890Y-109505800D01*
X144767892Y-109505800D01*
X144895186Y-109471692D01*
X145009314Y-109405800D01*
X145102500Y-109312614D01*
X145168392Y-109198486D01*
X145202500Y-109071192D01*
X145202500Y-94940108D01*
X149252500Y-94940108D01*
X149252500Y-108939408D01*
X149252500Y-109071192D01*
X149255561Y-109082616D01*
X149286608Y-109198487D01*
X149311552Y-109241691D01*
X149352500Y-109312614D01*
X149445686Y-109405800D01*
X149559814Y-109471692D01*
X149687108Y-109505800D01*
X149687110Y-109505800D01*
X163817890Y-109505800D01*
X163817892Y-109505800D01*
X163945186Y-109471692D01*
X164059314Y-109405800D01*
X164152500Y-109312614D01*
X164218392Y-109198486D01*
X164252500Y-109071192D01*
X164252500Y-102005650D01*
X165596896Y-102005650D01*
X165617278Y-102264640D01*
X165677927Y-102517260D01*
X165777343Y-102757273D01*
X165777345Y-102757277D01*
X165777346Y-102757278D01*
X165913088Y-102978790D01*
X166081811Y-103176339D01*
X166279360Y-103345062D01*
X166500872Y-103480804D01*
X166500874Y-103480804D01*
X166500876Y-103480806D01*
X166562193Y-103506204D01*
X166740890Y-103580223D01*
X166993506Y-103640871D01*
X167252500Y-103661254D01*
X167511494Y-103640871D01*
X167764110Y-103580223D01*
X168004128Y-103480804D01*
X168225640Y-103345062D01*
X168423189Y-103176339D01*
X168591912Y-102978790D01*
X168727654Y-102757278D01*
X168827073Y-102517260D01*
X168887721Y-102264644D01*
X168908104Y-102005650D01*
X168887721Y-101746656D01*
X168827073Y-101494040D01*
X168727654Y-101254022D01*
X168591912Y-101032510D01*
X168423189Y-100834961D01*
X168225640Y-100666238D01*
X168004128Y-100530496D01*
X168004127Y-100530495D01*
X168004123Y-100530493D01*
X167838127Y-100461736D01*
X167764110Y-100431077D01*
X167764111Y-100431077D01*
X167626421Y-100398020D01*
X167511494Y-100370429D01*
X167511492Y-100370428D01*
X167511491Y-100370428D01*
X167252500Y-100350046D01*
X166993509Y-100370428D01*
X166740889Y-100431077D01*
X166500876Y-100530493D01*
X166279359Y-100666238D01*
X166081811Y-100834961D01*
X165913088Y-101032509D01*
X165777343Y-101254026D01*
X165677927Y-101494039D01*
X165617278Y-101746659D01*
X165596896Y-102005650D01*
X164252500Y-102005650D01*
X164252500Y-99640608D01*
X171107500Y-99640608D01*
X171107500Y-102571291D01*
X171141608Y-102698587D01*
X171160314Y-102730986D01*
X171207500Y-102812714D01*
X171300686Y-102905900D01*
X171414814Y-102971792D01*
X171542108Y-103005900D01*
X171809500Y-103005900D01*
X171876539Y-103025585D01*
X171922294Y-103078389D01*
X171933500Y-103129900D01*
X171933500Y-108841191D01*
X171967608Y-108968487D01*
X172000554Y-109025550D01*
X172033500Y-109082614D01*
X172126686Y-109175800D01*
X172240814Y-109241692D01*
X172368108Y-109275800D01*
X173534500Y-109275800D01*
X173601539Y-109295485D01*
X173647294Y-109348289D01*
X173658500Y-109399800D01*
X173658500Y-109909608D01*
X173658500Y-110041392D01*
X173667693Y-110075700D01*
X173692608Y-110168687D01*
X173725554Y-110225750D01*
X173758500Y-110282814D01*
X173851686Y-110376000D01*
X173965814Y-110441892D01*
X174093108Y-110476000D01*
X174093110Y-110476000D01*
X177523890Y-110476000D01*
X177523892Y-110476000D01*
X177651186Y-110441892D01*
X177765314Y-110376000D01*
X177858500Y-110282814D01*
X177924392Y-110168686D01*
X177958500Y-110041392D01*
X177958500Y-109399800D01*
X177978185Y-109332761D01*
X178030989Y-109287006D01*
X178082500Y-109275800D01*
X179249890Y-109275800D01*
X179249892Y-109275800D01*
X179377186Y-109241692D01*
X179491314Y-109175800D01*
X179584500Y-109082614D01*
X179650392Y-108968486D01*
X179684500Y-108841192D01*
X179684500Y-104930800D01*
X179704185Y-104863761D01*
X179756989Y-104818006D01*
X179808500Y-104806800D01*
X180084500Y-104806800D01*
X180151539Y-104826485D01*
X180197294Y-104879289D01*
X180208500Y-104930800D01*
X180208500Y-108939408D01*
X180208500Y-109071192D01*
X180211561Y-109082616D01*
X180242608Y-109198487D01*
X180267552Y-109241691D01*
X180308500Y-109312614D01*
X180401686Y-109405800D01*
X180515814Y-109471692D01*
X180643108Y-109505800D01*
X180643110Y-109505800D01*
X194773890Y-109505800D01*
X194773892Y-109505800D01*
X194901186Y-109471692D01*
X195015314Y-109405800D01*
X195108500Y-109312614D01*
X195174392Y-109198486D01*
X195208500Y-109071192D01*
X195208500Y-104930800D01*
X195228185Y-104863761D01*
X195280989Y-104818006D01*
X195332500Y-104806800D01*
X195608500Y-104806800D01*
X195675539Y-104826485D01*
X195721294Y-104879289D01*
X195732500Y-104930800D01*
X195732500Y-108841191D01*
X195766608Y-108968487D01*
X195799554Y-109025550D01*
X195832500Y-109082614D01*
X195925686Y-109175800D01*
X196039814Y-109241692D01*
X196167108Y-109275800D01*
X197333500Y-109275800D01*
X197400539Y-109295485D01*
X197446294Y-109348289D01*
X197457500Y-109399800D01*
X197457500Y-109909608D01*
X197457500Y-110041392D01*
X197466693Y-110075700D01*
X197491608Y-110168687D01*
X197524554Y-110225750D01*
X197557500Y-110282814D01*
X197650686Y-110376000D01*
X197764814Y-110441892D01*
X197892108Y-110476000D01*
X197892110Y-110476000D01*
X201325890Y-110476000D01*
X201325892Y-110476000D01*
X201453186Y-110441892D01*
X201567314Y-110376000D01*
X201660500Y-110282814D01*
X201726392Y-110168686D01*
X201760500Y-110041392D01*
X201760500Y-109399800D01*
X201780185Y-109332761D01*
X201832989Y-109287006D01*
X201884500Y-109275800D01*
X203050890Y-109275800D01*
X203050892Y-109275800D01*
X203178186Y-109241692D01*
X203292314Y-109175800D01*
X203385500Y-109082614D01*
X203451392Y-108968486D01*
X203485500Y-108841192D01*
X203485500Y-103129900D01*
X203505185Y-103062861D01*
X203557989Y-103017106D01*
X203609500Y-103005900D01*
X203875890Y-103005900D01*
X203875892Y-103005900D01*
X204003186Y-102971792D01*
X204117314Y-102905900D01*
X204210500Y-102812714D01*
X204276392Y-102698586D01*
X204310500Y-102571292D01*
X204310500Y-99640608D01*
X204276392Y-99513314D01*
X204210500Y-99399186D01*
X204117314Y-99306000D01*
X204060250Y-99273054D01*
X204003187Y-99240108D01*
X203939539Y-99223054D01*
X203875892Y-99206000D01*
X203875891Y-99206000D01*
X203609500Y-99206000D01*
X203542461Y-99186315D01*
X203496706Y-99133511D01*
X203485500Y-99082000D01*
X203485500Y-96410510D01*
X203485500Y-96410508D01*
X203451392Y-96283214D01*
X203385500Y-96169086D01*
X203292314Y-96075900D01*
X203235250Y-96042954D01*
X203178187Y-96010008D01*
X203114539Y-95992954D01*
X203050892Y-95975900D01*
X196298892Y-95975900D01*
X196167108Y-95975900D01*
X196039812Y-96010008D01*
X195925686Y-96075900D01*
X195925683Y-96075902D01*
X195832502Y-96169083D01*
X195832500Y-96169086D01*
X195766608Y-96283212D01*
X195732500Y-96410508D01*
X195732500Y-99082000D01*
X195712815Y-99149039D01*
X195660011Y-99194794D01*
X195608500Y-99206000D01*
X195332500Y-99206000D01*
X195265461Y-99186315D01*
X195219706Y-99133511D01*
X195208500Y-99082000D01*
X195208500Y-94940110D01*
X195208500Y-94940108D01*
X195174392Y-94812814D01*
X195108500Y-94698686D01*
X195015314Y-94605500D01*
X194958250Y-94572554D01*
X194901187Y-94539608D01*
X194837539Y-94522554D01*
X194773892Y-94505500D01*
X180774892Y-94505500D01*
X180643108Y-94505500D01*
X180515812Y-94539608D01*
X180401686Y-94605500D01*
X180401683Y-94605502D01*
X180308502Y-94698683D01*
X180308500Y-94698686D01*
X180242608Y-94812812D01*
X180208500Y-94940108D01*
X180208500Y-99082000D01*
X180188815Y-99149039D01*
X180136011Y-99194794D01*
X180084500Y-99206000D01*
X179808500Y-99206000D01*
X179741461Y-99186315D01*
X179695706Y-99133511D01*
X179684500Y-99082000D01*
X179684500Y-96410510D01*
X179684500Y-96410508D01*
X179650392Y-96283214D01*
X179584500Y-96169086D01*
X179491314Y-96075900D01*
X179434250Y-96042954D01*
X179377187Y-96010008D01*
X179313539Y-95992954D01*
X179249892Y-95975900D01*
X172499892Y-95975900D01*
X172368108Y-95975900D01*
X172240812Y-96010008D01*
X172126686Y-96075900D01*
X172126683Y-96075902D01*
X172033502Y-96169083D01*
X172033500Y-96169086D01*
X171967608Y-96283212D01*
X171933500Y-96410508D01*
X171933500Y-99082000D01*
X171913815Y-99149039D01*
X171861011Y-99194794D01*
X171809500Y-99206000D01*
X171542108Y-99206000D01*
X171414812Y-99240108D01*
X171300686Y-99306000D01*
X171300683Y-99306002D01*
X171207502Y-99399183D01*
X171207500Y-99399186D01*
X171141608Y-99513312D01*
X171107500Y-99640608D01*
X164252500Y-99640608D01*
X164252500Y-94940108D01*
X164218392Y-94812814D01*
X164152500Y-94698686D01*
X164059314Y-94605500D01*
X164002250Y-94572554D01*
X163945187Y-94539608D01*
X163881539Y-94522554D01*
X163817892Y-94505500D01*
X149818892Y-94505500D01*
X149687108Y-94505500D01*
X149559812Y-94539608D01*
X149445686Y-94605500D01*
X149445683Y-94605502D01*
X149352502Y-94698683D01*
X149352500Y-94698686D01*
X149286608Y-94812812D01*
X149252500Y-94940108D01*
X145202500Y-94940108D01*
X145168392Y-94812814D01*
X145102500Y-94698686D01*
X145009314Y-94605500D01*
X144952250Y-94572554D01*
X144895187Y-94539608D01*
X144831539Y-94522554D01*
X144767892Y-94505500D01*
X130768892Y-94505500D01*
X130637108Y-94505500D01*
X130509812Y-94539608D01*
X130395686Y-94605500D01*
X130395683Y-94605502D01*
X130302502Y-94698683D01*
X130302500Y-94698686D01*
X130236608Y-94812812D01*
X130202500Y-94940108D01*
X126152500Y-94940108D01*
X126118392Y-94812814D01*
X126052500Y-94698686D01*
X125959314Y-94605500D01*
X125902250Y-94572554D01*
X125845187Y-94539608D01*
X125781539Y-94522554D01*
X125717892Y-94505500D01*
X111718892Y-94505500D01*
X111587108Y-94505500D01*
X111459812Y-94539608D01*
X111345686Y-94605500D01*
X111345683Y-94605502D01*
X111252502Y-94698683D01*
X111252500Y-94698686D01*
X111186608Y-94812812D01*
X111152500Y-94940108D01*
X107102500Y-94940108D01*
X107068392Y-94812814D01*
X107002500Y-94698686D01*
X106909314Y-94605500D01*
X106852250Y-94572554D01*
X106795187Y-94539608D01*
X106731539Y-94522554D01*
X106667892Y-94505500D01*
X92668892Y-94505500D01*
X92537108Y-94505500D01*
X92409812Y-94539608D01*
X92295686Y-94605500D01*
X92295683Y-94605502D01*
X92202502Y-94698683D01*
X92202500Y-94698686D01*
X92136608Y-94812812D01*
X92102500Y-94940108D01*
X88052500Y-94940108D01*
X88018392Y-94812814D01*
X87952500Y-94698686D01*
X87859314Y-94605500D01*
X87802250Y-94572554D01*
X87745187Y-94539608D01*
X87681539Y-94522554D01*
X87617892Y-94505500D01*
X73618892Y-94505500D01*
X73487108Y-94505500D01*
X73359812Y-94539608D01*
X73245686Y-94605500D01*
X73245683Y-94605502D01*
X73152502Y-94698683D01*
X73152500Y-94698686D01*
X73086608Y-94812812D01*
X73052500Y-94940108D01*
X69002500Y-94940108D01*
X68968392Y-94812814D01*
X68902500Y-94698686D01*
X68809314Y-94605500D01*
X68752250Y-94572554D01*
X68695187Y-94539608D01*
X68631539Y-94522554D01*
X68567892Y-94505500D01*
X54568892Y-94505500D01*
X54437108Y-94505500D01*
X54309812Y-94539608D01*
X54195686Y-94605500D01*
X54195683Y-94605502D01*
X54102502Y-94698683D01*
X54102500Y-94698686D01*
X54036608Y-94812812D01*
X54002500Y-94940108D01*
X51003500Y-94940108D01*
X51003500Y-93415410D01*
X51003500Y-93415408D01*
X50969392Y-93288114D01*
X50903500Y-93173986D01*
X50810314Y-93080800D01*
X50753250Y-93047854D01*
X50696187Y-93014908D01*
X50632539Y-92997854D01*
X50568892Y-92980800D01*
X50568891Y-92980800D01*
X46364500Y-92980800D01*
X46297461Y-92961115D01*
X46251706Y-92908311D01*
X46240500Y-92856800D01*
X46240500Y-75890108D01*
X49239500Y-75890108D01*
X49239500Y-90021191D01*
X49273608Y-90148487D01*
X49306554Y-90205550D01*
X49339500Y-90262614D01*
X49432686Y-90355800D01*
X49546814Y-90421692D01*
X49674108Y-90455800D01*
X49674110Y-90455800D01*
X63805890Y-90455800D01*
X63805892Y-90455800D01*
X63933186Y-90421692D01*
X64047314Y-90355800D01*
X64140500Y-90262614D01*
X64206392Y-90148486D01*
X64240500Y-90021192D01*
X64240500Y-75890108D01*
X68289500Y-75890108D01*
X68289500Y-90021191D01*
X68323608Y-90148487D01*
X68356554Y-90205550D01*
X68389500Y-90262614D01*
X68482686Y-90355800D01*
X68596814Y-90421692D01*
X68724108Y-90455800D01*
X68724110Y-90455800D01*
X82855890Y-90455800D01*
X82855892Y-90455800D01*
X82983186Y-90421692D01*
X83097314Y-90355800D01*
X83190500Y-90262614D01*
X83256392Y-90148486D01*
X83290500Y-90021192D01*
X83290500Y-75890108D01*
X87339500Y-75890108D01*
X87339500Y-90021191D01*
X87373608Y-90148487D01*
X87406554Y-90205550D01*
X87439500Y-90262614D01*
X87532686Y-90355800D01*
X87646814Y-90421692D01*
X87774108Y-90455800D01*
X87774110Y-90455800D01*
X101905890Y-90455800D01*
X101905892Y-90455800D01*
X102033186Y-90421692D01*
X102147314Y-90355800D01*
X102240500Y-90262614D01*
X102306392Y-90148486D01*
X102340500Y-90021192D01*
X102340500Y-75890108D01*
X106389500Y-75890108D01*
X106389500Y-90021191D01*
X106423608Y-90148487D01*
X106456554Y-90205550D01*
X106489500Y-90262614D01*
X106582686Y-90355800D01*
X106696814Y-90421692D01*
X106824108Y-90455800D01*
X106824110Y-90455800D01*
X120955890Y-90455800D01*
X120955892Y-90455800D01*
X121083186Y-90421692D01*
X121197314Y-90355800D01*
X121290500Y-90262614D01*
X121356392Y-90148486D01*
X121390500Y-90021192D01*
X121390500Y-75890108D01*
X125439500Y-75890108D01*
X125439500Y-90021191D01*
X125473608Y-90148487D01*
X125506554Y-90205550D01*
X125539500Y-90262614D01*
X125632686Y-90355800D01*
X125746814Y-90421692D01*
X125874108Y-90455800D01*
X125874110Y-90455800D01*
X140005890Y-90455800D01*
X140005892Y-90455800D01*
X140133186Y-90421692D01*
X140247314Y-90355800D01*
X140340500Y-90262614D01*
X140406392Y-90148486D01*
X140440500Y-90021192D01*
X140440500Y-75890108D01*
X144489500Y-75890108D01*
X144489500Y-90021191D01*
X144523608Y-90148487D01*
X144556554Y-90205550D01*
X144589500Y-90262614D01*
X144682686Y-90355800D01*
X144796814Y-90421692D01*
X144924108Y-90455800D01*
X144924110Y-90455800D01*
X159055890Y-90455800D01*
X159055892Y-90455800D01*
X159183186Y-90421692D01*
X159297314Y-90355800D01*
X159390500Y-90262614D01*
X159456392Y-90148486D01*
X159490500Y-90021192D01*
X159490500Y-75890108D01*
X163539500Y-75890108D01*
X163539500Y-90021191D01*
X163573608Y-90148487D01*
X163606554Y-90205550D01*
X163639500Y-90262614D01*
X163732686Y-90355800D01*
X163846814Y-90421692D01*
X163974108Y-90455800D01*
X163974110Y-90455800D01*
X178105890Y-90455800D01*
X178105892Y-90455800D01*
X178233186Y-90421692D01*
X178347314Y-90355800D01*
X178440500Y-90262614D01*
X178506392Y-90148486D01*
X178540500Y-90021192D01*
X178540500Y-82955650D01*
X181290896Y-82955650D01*
X181311278Y-83214640D01*
X181371927Y-83467260D01*
X181471343Y-83707273D01*
X181471345Y-83707277D01*
X181471346Y-83707278D01*
X181607088Y-83928790D01*
X181775811Y-84126339D01*
X181973360Y-84295062D01*
X182194872Y-84430804D01*
X182194874Y-84430804D01*
X182194876Y-84430806D01*
X182256193Y-84456204D01*
X182434890Y-84530223D01*
X182687506Y-84590871D01*
X182946500Y-84611254D01*
X183205494Y-84590871D01*
X183458110Y-84530223D01*
X183698128Y-84430804D01*
X183919640Y-84295062D01*
X184117189Y-84126339D01*
X184285912Y-83928790D01*
X184421654Y-83707278D01*
X184521073Y-83467260D01*
X184581721Y-83214644D01*
X184602104Y-82955650D01*
X184581721Y-82696656D01*
X184521073Y-82444040D01*
X184421654Y-82204022D01*
X184285912Y-81982510D01*
X184117189Y-81784961D01*
X183919640Y-81616238D01*
X183698128Y-81480496D01*
X183698127Y-81480495D01*
X183698123Y-81480493D01*
X183532127Y-81411736D01*
X183458110Y-81381077D01*
X183458111Y-81381077D01*
X183320421Y-81348020D01*
X183205494Y-81320429D01*
X183205492Y-81320428D01*
X183205491Y-81320428D01*
X182946500Y-81300046D01*
X182687509Y-81320428D01*
X182434889Y-81381077D01*
X182194876Y-81480493D01*
X181973359Y-81616238D01*
X181775811Y-81784961D01*
X181607088Y-81982509D01*
X181471343Y-82204026D01*
X181371927Y-82444039D01*
X181311278Y-82696659D01*
X181290896Y-82955650D01*
X178540500Y-82955650D01*
X178540500Y-75890108D01*
X187352500Y-75890108D01*
X187352500Y-90021191D01*
X187386608Y-90148487D01*
X187419554Y-90205550D01*
X187452500Y-90262614D01*
X187545686Y-90355800D01*
X187659814Y-90421692D01*
X187787108Y-90455800D01*
X187787110Y-90455800D01*
X201917890Y-90455800D01*
X201917892Y-90455800D01*
X202045186Y-90421692D01*
X202159314Y-90355800D01*
X202252500Y-90262614D01*
X202318392Y-90148486D01*
X202352500Y-90021192D01*
X202352500Y-75890108D01*
X202318392Y-75762814D01*
X202252500Y-75648686D01*
X202159314Y-75555500D01*
X202102250Y-75522554D01*
X202045187Y-75489608D01*
X201981539Y-75472554D01*
X201917892Y-75455500D01*
X187918892Y-75455500D01*
X187787108Y-75455500D01*
X187659812Y-75489608D01*
X187545686Y-75555500D01*
X187545683Y-75555502D01*
X187452502Y-75648683D01*
X187452500Y-75648686D01*
X187386608Y-75762812D01*
X187352500Y-75890108D01*
X178540500Y-75890108D01*
X178506392Y-75762814D01*
X178440500Y-75648686D01*
X178347314Y-75555500D01*
X178290250Y-75522554D01*
X178233187Y-75489608D01*
X178169539Y-75472554D01*
X178105892Y-75455500D01*
X164105892Y-75455500D01*
X163974108Y-75455500D01*
X163846812Y-75489608D01*
X163732686Y-75555500D01*
X163732683Y-75555502D01*
X163639502Y-75648683D01*
X163639500Y-75648686D01*
X163573608Y-75762812D01*
X163539500Y-75890108D01*
X159490500Y-75890108D01*
X159456392Y-75762814D01*
X159390500Y-75648686D01*
X159297314Y-75555500D01*
X159240250Y-75522554D01*
X159183187Y-75489608D01*
X159119539Y-75472554D01*
X159055892Y-75455500D01*
X145055892Y-75455500D01*
X144924108Y-75455500D01*
X144796812Y-75489608D01*
X144682686Y-75555500D01*
X144682683Y-75555502D01*
X144589502Y-75648683D01*
X144589500Y-75648686D01*
X144523608Y-75762812D01*
X144489500Y-75890108D01*
X140440500Y-75890108D01*
X140406392Y-75762814D01*
X140340500Y-75648686D01*
X140247314Y-75555500D01*
X140190250Y-75522554D01*
X140133187Y-75489608D01*
X140069539Y-75472554D01*
X140005892Y-75455500D01*
X126005892Y-75455500D01*
X125874108Y-75455500D01*
X125746812Y-75489608D01*
X125632686Y-75555500D01*
X125632683Y-75555502D01*
X125539502Y-75648683D01*
X125539500Y-75648686D01*
X125473608Y-75762812D01*
X125439500Y-75890108D01*
X121390500Y-75890108D01*
X121356392Y-75762814D01*
X121290500Y-75648686D01*
X121197314Y-75555500D01*
X121140250Y-75522554D01*
X121083187Y-75489608D01*
X121019539Y-75472554D01*
X120955892Y-75455500D01*
X106955892Y-75455500D01*
X106824108Y-75455500D01*
X106696812Y-75489608D01*
X106582686Y-75555500D01*
X106582683Y-75555502D01*
X106489502Y-75648683D01*
X106489500Y-75648686D01*
X106423608Y-75762812D01*
X106389500Y-75890108D01*
X102340500Y-75890108D01*
X102306392Y-75762814D01*
X102240500Y-75648686D01*
X102147314Y-75555500D01*
X102090250Y-75522554D01*
X102033187Y-75489608D01*
X101969539Y-75472554D01*
X101905892Y-75455500D01*
X87905892Y-75455500D01*
X87774108Y-75455500D01*
X87646812Y-75489608D01*
X87532686Y-75555500D01*
X87532683Y-75555502D01*
X87439502Y-75648683D01*
X87439500Y-75648686D01*
X87373608Y-75762812D01*
X87339500Y-75890108D01*
X83290500Y-75890108D01*
X83256392Y-75762814D01*
X83190500Y-75648686D01*
X83097314Y-75555500D01*
X83040250Y-75522554D01*
X82983187Y-75489608D01*
X82919539Y-75472554D01*
X82855892Y-75455500D01*
X68855892Y-75455500D01*
X68724108Y-75455500D01*
X68596812Y-75489608D01*
X68482686Y-75555500D01*
X68482683Y-75555502D01*
X68389502Y-75648683D01*
X68389500Y-75648686D01*
X68323608Y-75762812D01*
X68289500Y-75890108D01*
X64240500Y-75890108D01*
X64206392Y-75762814D01*
X64140500Y-75648686D01*
X64047314Y-75555500D01*
X63990250Y-75522554D01*
X63933187Y-75489608D01*
X63869539Y-75472554D01*
X63805892Y-75455500D01*
X49805892Y-75455500D01*
X49674108Y-75455500D01*
X49546812Y-75489608D01*
X49432686Y-75555500D01*
X49432683Y-75555502D01*
X49339502Y-75648683D01*
X49339500Y-75648686D01*
X49273608Y-75762812D01*
X49239500Y-75890108D01*
X46240500Y-75890108D01*
X46240500Y-73054500D01*
X46260185Y-72987461D01*
X46312989Y-72941706D01*
X46364500Y-72930500D01*
X55330890Y-72930500D01*
X55330892Y-72930500D01*
X55458186Y-72896392D01*
X55572314Y-72830500D01*
X55665500Y-72737314D01*
X55731392Y-72623186D01*
X55765500Y-72495892D01*
X55765500Y-56840208D01*
X58764500Y-56840208D01*
X58764500Y-70839408D01*
X58764500Y-70971192D01*
X58767561Y-70982616D01*
X58798608Y-71098487D01*
X58823552Y-71141691D01*
X58864500Y-71212614D01*
X58957686Y-71305800D01*
X59071814Y-71371692D01*
X59199108Y-71405800D01*
X59199110Y-71405800D01*
X73330890Y-71405800D01*
X73330892Y-71405800D01*
X73458186Y-71371692D01*
X73572314Y-71305800D01*
X73665500Y-71212614D01*
X73731392Y-71098486D01*
X73765500Y-70971192D01*
X73765500Y-56840208D01*
X77814500Y-56840208D01*
X77814500Y-70839408D01*
X77814500Y-70971192D01*
X77817561Y-70982616D01*
X77848608Y-71098487D01*
X77873552Y-71141691D01*
X77914500Y-71212614D01*
X78007686Y-71305800D01*
X78121814Y-71371692D01*
X78249108Y-71405800D01*
X78249110Y-71405800D01*
X92380890Y-71405800D01*
X92380892Y-71405800D01*
X92508186Y-71371692D01*
X92622314Y-71305800D01*
X92715500Y-71212614D01*
X92781392Y-71098486D01*
X92815500Y-70971192D01*
X92815500Y-63905700D01*
X93184396Y-63905700D01*
X93204778Y-64164690D01*
X93265427Y-64417310D01*
X93364843Y-64657323D01*
X93364845Y-64657327D01*
X93364846Y-64657328D01*
X93500588Y-64878840D01*
X93669311Y-65076389D01*
X93866860Y-65245112D01*
X94088372Y-65380854D01*
X94088374Y-65380854D01*
X94088376Y-65380856D01*
X94149693Y-65406254D01*
X94328390Y-65480273D01*
X94581006Y-65540921D01*
X94840000Y-65561304D01*
X95098994Y-65540921D01*
X95351610Y-65480273D01*
X95591628Y-65380854D01*
X95813140Y-65245112D01*
X96010689Y-65076389D01*
X96179412Y-64878840D01*
X96315154Y-64657328D01*
X96414573Y-64417310D01*
X96475221Y-64164694D01*
X96495604Y-63905700D01*
X96475221Y-63646706D01*
X96414573Y-63394090D01*
X96315154Y-63154072D01*
X96179412Y-62932560D01*
X96010689Y-62735011D01*
X95813140Y-62566288D01*
X95591628Y-62430546D01*
X95591627Y-62430545D01*
X95591623Y-62430543D01*
X95425627Y-62361786D01*
X95351610Y-62331127D01*
X95351611Y-62331127D01*
X95213921Y-62298070D01*
X95098994Y-62270479D01*
X95098992Y-62270478D01*
X95098991Y-62270478D01*
X94840000Y-62250096D01*
X94581009Y-62270478D01*
X94328389Y-62331127D01*
X94088376Y-62430543D01*
X93866859Y-62566288D01*
X93669311Y-62735011D01*
X93500588Y-62932559D01*
X93364843Y-63154076D01*
X93265427Y-63394089D01*
X93204778Y-63646709D01*
X93184396Y-63905700D01*
X92815500Y-63905700D01*
X92815500Y-56840208D01*
X96864500Y-56840208D01*
X96864500Y-70839408D01*
X96864500Y-70971192D01*
X96867561Y-70982616D01*
X96898608Y-71098487D01*
X96923552Y-71141691D01*
X96964500Y-71212614D01*
X97057686Y-71305800D01*
X97171814Y-71371692D01*
X97299108Y-71405800D01*
X97299110Y-71405800D01*
X111430890Y-71405800D01*
X111430892Y-71405800D01*
X111558186Y-71371692D01*
X111672314Y-71305800D01*
X111765500Y-71212614D01*
X111831392Y-71098486D01*
X111865500Y-70971192D01*
X111865500Y-56840208D01*
X115914500Y-56840208D01*
X115914500Y-70839408D01*
X115914500Y-70971192D01*
X115917561Y-70982616D01*
X115948608Y-71098487D01*
X115973552Y-71141691D01*
X116014500Y-71212614D01*
X116107686Y-71305800D01*
X116221814Y-71371692D01*
X116349108Y-71405800D01*
X116349110Y-71405800D01*
X130480890Y-71405800D01*
X130480892Y-71405800D01*
X130608186Y-71371692D01*
X130722314Y-71305800D01*
X130815500Y-71212614D01*
X130881392Y-71098486D01*
X130915500Y-70971192D01*
X130915500Y-56840208D01*
X134964500Y-56840208D01*
X134964500Y-70839408D01*
X134964500Y-70971192D01*
X134967561Y-70982616D01*
X134998608Y-71098487D01*
X135023552Y-71141691D01*
X135064500Y-71212614D01*
X135157686Y-71305800D01*
X135271814Y-71371692D01*
X135399108Y-71405800D01*
X135399110Y-71405800D01*
X149530890Y-71405800D01*
X149530892Y-71405800D01*
X149658186Y-71371692D01*
X149772314Y-71305800D01*
X149865500Y-71212614D01*
X149931392Y-71098486D01*
X149965500Y-70971192D01*
X149965500Y-63905700D01*
X150334396Y-63905700D01*
X150354778Y-64164690D01*
X150415427Y-64417310D01*
X150514843Y-64657323D01*
X150514845Y-64657327D01*
X150514846Y-64657328D01*
X150650588Y-64878840D01*
X150819311Y-65076389D01*
X151016860Y-65245112D01*
X151238372Y-65380854D01*
X151238374Y-65380854D01*
X151238376Y-65380856D01*
X151299693Y-65406254D01*
X151478390Y-65480273D01*
X151731006Y-65540921D01*
X151990000Y-65561304D01*
X152248994Y-65540921D01*
X152501610Y-65480273D01*
X152741628Y-65380854D01*
X152963140Y-65245112D01*
X153160689Y-65076389D01*
X153329412Y-64878840D01*
X153465154Y-64657328D01*
X153564573Y-64417310D01*
X153625221Y-64164694D01*
X153645604Y-63905700D01*
X153625221Y-63646706D01*
X153564573Y-63394090D01*
X153465154Y-63154072D01*
X153329412Y-62932560D01*
X153160689Y-62735011D01*
X152963140Y-62566288D01*
X152741628Y-62430546D01*
X152741627Y-62430545D01*
X152741623Y-62430543D01*
X152575627Y-62361786D01*
X152501610Y-62331127D01*
X152501611Y-62331127D01*
X152363921Y-62298070D01*
X152248994Y-62270479D01*
X152248992Y-62270478D01*
X152248991Y-62270478D01*
X151990000Y-62250096D01*
X151731009Y-62270478D01*
X151478389Y-62331127D01*
X151238376Y-62430543D01*
X151016859Y-62566288D01*
X150819311Y-62735011D01*
X150650588Y-62932559D01*
X150514843Y-63154076D01*
X150415427Y-63394089D01*
X150354778Y-63646709D01*
X150334396Y-63905700D01*
X149965500Y-63905700D01*
X149965500Y-56840208D01*
X154014500Y-56840208D01*
X154014500Y-70839408D01*
X154014500Y-70971192D01*
X154017561Y-70982616D01*
X154048608Y-71098487D01*
X154073552Y-71141691D01*
X154114500Y-71212614D01*
X154207686Y-71305800D01*
X154321814Y-71371692D01*
X154449108Y-71405800D01*
X154449110Y-71405800D01*
X168580890Y-71405800D01*
X168580892Y-71405800D01*
X168708186Y-71371692D01*
X168822314Y-71305800D01*
X168915500Y-71212614D01*
X168981392Y-71098486D01*
X169015500Y-70971192D01*
X169015500Y-61540208D01*
X173489500Y-61540208D01*
X173489500Y-64470991D01*
X173523608Y-64598287D01*
X173542516Y-64631036D01*
X173589500Y-64712414D01*
X173682686Y-64805600D01*
X173796814Y-64871492D01*
X173924108Y-64905600D01*
X174190500Y-64905600D01*
X174257539Y-64925285D01*
X174303294Y-64978089D01*
X174314500Y-65029600D01*
X174314500Y-70741191D01*
X174348608Y-70868487D01*
X174381554Y-70925550D01*
X174414500Y-70982614D01*
X174507686Y-71075800D01*
X174621814Y-71141692D01*
X174749108Y-71175800D01*
X175914500Y-71175800D01*
X175981539Y-71195485D01*
X176027294Y-71248289D01*
X176038500Y-71299800D01*
X176038500Y-71809608D01*
X176038500Y-71941392D01*
X176047693Y-71975700D01*
X176072608Y-72068687D01*
X176103785Y-72122686D01*
X176138500Y-72182814D01*
X176231686Y-72276000D01*
X176345814Y-72341892D01*
X176473108Y-72376000D01*
X176473110Y-72376000D01*
X179904890Y-72376000D01*
X179904892Y-72376000D01*
X180032186Y-72341892D01*
X180146314Y-72276000D01*
X180239500Y-72182814D01*
X180305392Y-72068686D01*
X180339500Y-71941392D01*
X180339500Y-71299800D01*
X180359185Y-71232761D01*
X180411989Y-71187006D01*
X180463500Y-71175800D01*
X181630890Y-71175800D01*
X181630892Y-71175800D01*
X181758186Y-71141692D01*
X181872314Y-71075800D01*
X181965500Y-70982614D01*
X182031392Y-70868486D01*
X182065500Y-70741192D01*
X182065500Y-66830600D01*
X182085185Y-66763561D01*
X182137989Y-66717806D01*
X182189500Y-66706600D01*
X182465500Y-66706600D01*
X182532539Y-66726285D01*
X182578294Y-66779089D01*
X182589500Y-66830600D01*
X182589500Y-70839408D01*
X182589500Y-70971192D01*
X182592561Y-70982616D01*
X182623608Y-71098487D01*
X182648552Y-71141691D01*
X182689500Y-71212614D01*
X182782686Y-71305800D01*
X182896814Y-71371692D01*
X183024108Y-71405800D01*
X183024110Y-71405800D01*
X197155890Y-71405800D01*
X197155892Y-71405800D01*
X197283186Y-71371692D01*
X197397314Y-71305800D01*
X197490500Y-71212614D01*
X197556392Y-71098486D01*
X197590500Y-70971192D01*
X197590500Y-66830600D01*
X197610185Y-66763561D01*
X197662989Y-66717806D01*
X197714500Y-66706600D01*
X197989500Y-66706600D01*
X198056539Y-66726285D01*
X198102294Y-66779089D01*
X198113500Y-66830600D01*
X198113500Y-70741191D01*
X198147608Y-70868487D01*
X198180554Y-70925550D01*
X198213500Y-70982614D01*
X198306686Y-71075800D01*
X198420814Y-71141692D01*
X198548108Y-71175800D01*
X199714500Y-71175800D01*
X199781539Y-71195485D01*
X199827294Y-71248289D01*
X199838500Y-71299800D01*
X199838500Y-71809608D01*
X199838500Y-71941392D01*
X199847693Y-71975700D01*
X199872608Y-72068687D01*
X199903785Y-72122686D01*
X199938500Y-72182814D01*
X200031686Y-72276000D01*
X200145814Y-72341892D01*
X200273108Y-72376000D01*
X200273110Y-72376000D01*
X203706890Y-72376000D01*
X203706892Y-72376000D01*
X203834186Y-72341892D01*
X203948314Y-72276000D01*
X204041500Y-72182814D01*
X204107392Y-72068686D01*
X204141500Y-71941392D01*
X204141500Y-71299800D01*
X204161185Y-71232761D01*
X204213989Y-71187006D01*
X204265500Y-71175800D01*
X205431890Y-71175800D01*
X205431892Y-71175800D01*
X205559186Y-71141692D01*
X205673314Y-71075800D01*
X205766500Y-70982614D01*
X205832392Y-70868486D01*
X205866500Y-70741192D01*
X205866500Y-65029600D01*
X205886185Y-64962561D01*
X205938989Y-64916806D01*
X205990500Y-64905600D01*
X206253890Y-64905600D01*
X206253892Y-64905600D01*
X206381186Y-64871492D01*
X206495314Y-64805600D01*
X206588500Y-64712414D01*
X206654392Y-64598286D01*
X206688500Y-64470992D01*
X206688500Y-61540208D01*
X206654392Y-61412914D01*
X206588500Y-61298786D01*
X206495314Y-61205600D01*
X206438250Y-61172654D01*
X206381187Y-61139708D01*
X206317539Y-61122654D01*
X206253892Y-61105600D01*
X206253891Y-61105600D01*
X205990500Y-61105600D01*
X205923461Y-61085915D01*
X205877706Y-61033111D01*
X205866500Y-60981600D01*
X205866500Y-58310210D01*
X205866500Y-58310208D01*
X205832392Y-58182914D01*
X205766500Y-58068786D01*
X205673314Y-57975600D01*
X205616250Y-57942654D01*
X205559187Y-57909708D01*
X205495539Y-57892654D01*
X205431892Y-57875600D01*
X198679892Y-57875600D01*
X198548108Y-57875600D01*
X198420812Y-57909708D01*
X198306686Y-57975600D01*
X198306683Y-57975602D01*
X198213502Y-58068783D01*
X198213500Y-58068786D01*
X198147608Y-58182912D01*
X198113500Y-58310208D01*
X198113500Y-60981600D01*
X198093815Y-61048639D01*
X198041011Y-61094394D01*
X197989500Y-61105600D01*
X197714500Y-61105600D01*
X197647461Y-61085915D01*
X197601706Y-61033111D01*
X197590500Y-60981600D01*
X197590500Y-56840210D01*
X197590500Y-56840208D01*
X197556392Y-56712914D01*
X197490500Y-56598786D01*
X197397314Y-56505600D01*
X197340250Y-56472654D01*
X197283187Y-56439708D01*
X197219539Y-56422654D01*
X197155892Y-56405600D01*
X183155892Y-56405600D01*
X183024108Y-56405600D01*
X182896812Y-56439708D01*
X182782686Y-56505600D01*
X182782683Y-56505602D01*
X182689502Y-56598783D01*
X182689500Y-56598786D01*
X182623608Y-56712912D01*
X182589500Y-56840208D01*
X182589500Y-60981600D01*
X182569815Y-61048639D01*
X182517011Y-61094394D01*
X182465500Y-61105600D01*
X182189500Y-61105600D01*
X182122461Y-61085915D01*
X182076706Y-61033111D01*
X182065500Y-60981600D01*
X182065500Y-58310210D01*
X182065500Y-58310208D01*
X182031392Y-58182914D01*
X181965500Y-58068786D01*
X181872314Y-57975600D01*
X181815250Y-57942654D01*
X181758187Y-57909708D01*
X181694539Y-57892654D01*
X181630892Y-57875600D01*
X174880892Y-57875600D01*
X174749108Y-57875600D01*
X174621812Y-57909708D01*
X174507686Y-57975600D01*
X174507683Y-57975602D01*
X174414502Y-58068783D01*
X174414500Y-58068786D01*
X174348608Y-58182912D01*
X174314500Y-58310208D01*
X174314500Y-60981600D01*
X174294815Y-61048639D01*
X174242011Y-61094394D01*
X174190500Y-61105600D01*
X173924108Y-61105600D01*
X173796812Y-61139708D01*
X173682686Y-61205600D01*
X173682683Y-61205602D01*
X173589502Y-61298783D01*
X173589500Y-61298786D01*
X173523608Y-61412912D01*
X173489500Y-61540208D01*
X169015500Y-61540208D01*
X169015500Y-56840208D01*
X168981392Y-56712914D01*
X168915500Y-56598786D01*
X168822314Y-56505600D01*
X168765250Y-56472654D01*
X168708187Y-56439708D01*
X168644539Y-56422654D01*
X168580892Y-56405600D01*
X154580892Y-56405600D01*
X154449108Y-56405600D01*
X154321812Y-56439708D01*
X154207686Y-56505600D01*
X154207683Y-56505602D01*
X154114502Y-56598783D01*
X154114500Y-56598786D01*
X154048608Y-56712912D01*
X154014500Y-56840208D01*
X149965500Y-56840208D01*
X149931392Y-56712914D01*
X149865500Y-56598786D01*
X149772314Y-56505600D01*
X149715250Y-56472654D01*
X149658187Y-56439708D01*
X149594539Y-56422654D01*
X149530892Y-56405600D01*
X135530892Y-56405600D01*
X135399108Y-56405600D01*
X135271812Y-56439708D01*
X135157686Y-56505600D01*
X135157683Y-56505602D01*
X135064502Y-56598783D01*
X135064500Y-56598786D01*
X134998608Y-56712912D01*
X134964500Y-56840208D01*
X130915500Y-56840208D01*
X130881392Y-56712914D01*
X130815500Y-56598786D01*
X130722314Y-56505600D01*
X130665250Y-56472654D01*
X130608187Y-56439708D01*
X130544539Y-56422654D01*
X130480892Y-56405600D01*
X116480892Y-56405600D01*
X116349108Y-56405600D01*
X116221812Y-56439708D01*
X116107686Y-56505600D01*
X116107683Y-56505602D01*
X116014502Y-56598783D01*
X116014500Y-56598786D01*
X115948608Y-56712912D01*
X115914500Y-56840208D01*
X111865500Y-56840208D01*
X111831392Y-56712914D01*
X111765500Y-56598786D01*
X111672314Y-56505600D01*
X111615250Y-56472654D01*
X111558187Y-56439708D01*
X111494539Y-56422654D01*
X111430892Y-56405600D01*
X97430892Y-56405600D01*
X97299108Y-56405600D01*
X97171812Y-56439708D01*
X97057686Y-56505600D01*
X97057683Y-56505602D01*
X96964502Y-56598783D01*
X96964500Y-56598786D01*
X96898608Y-56712912D01*
X96864500Y-56840208D01*
X92815500Y-56840208D01*
X92781392Y-56712914D01*
X92715500Y-56598786D01*
X92622314Y-56505600D01*
X92565250Y-56472654D01*
X92508187Y-56439708D01*
X92444539Y-56422654D01*
X92380892Y-56405600D01*
X78380892Y-56405600D01*
X78249108Y-56405600D01*
X78121812Y-56439708D01*
X78007686Y-56505600D01*
X78007683Y-56505602D01*
X77914502Y-56598783D01*
X77914500Y-56598786D01*
X77848608Y-56712912D01*
X77814500Y-56840208D01*
X73765500Y-56840208D01*
X73731392Y-56712914D01*
X73665500Y-56598786D01*
X73572314Y-56505600D01*
X73515250Y-56472654D01*
X73458187Y-56439708D01*
X73394539Y-56422654D01*
X73330892Y-56405600D01*
X59330892Y-56405600D01*
X59199108Y-56405600D01*
X59071812Y-56439708D01*
X58957686Y-56505600D01*
X58957683Y-56505602D01*
X58864502Y-56598783D01*
X58864500Y-56598786D01*
X58798608Y-56712912D01*
X58764500Y-56840208D01*
X55765500Y-56840208D01*
X55765500Y-55006256D01*
X55785185Y-54939217D01*
X55837989Y-54893462D01*
X55889500Y-54882256D01*
X208668500Y-54882256D01*
X208735539Y-54901941D01*
G37*
%TD.AperFunction*%
%TA.AperFunction,NonConductor*%
G36*
X345821889Y-55470185D02*
G01*
X345867644Y-55522989D01*
X345878850Y-55574500D01*
X345878850Y-74850700D01*
X345859165Y-74917739D01*
X345806361Y-74963494D01*
X345754850Y-74974700D01*
X336788458Y-74974700D01*
X336661162Y-75008808D01*
X336547036Y-75074700D01*
X336547033Y-75074702D01*
X336453852Y-75167883D01*
X336453850Y-75167886D01*
X336387958Y-75282012D01*
X336353850Y-75409308D01*
X336353850Y-92115791D01*
X336387958Y-92243087D01*
X336420904Y-92300150D01*
X336453850Y-92357214D01*
X336547036Y-92450400D01*
X336661164Y-92516292D01*
X336788458Y-92550400D01*
X340992850Y-92550400D01*
X341059889Y-92570085D01*
X341105644Y-92622889D01*
X341116850Y-92674400D01*
X341116850Y-110499563D01*
X341116900Y-110500323D01*
X341116900Y-110557010D01*
X341116901Y-110557027D01*
X341151128Y-110817011D01*
X341218997Y-111070305D01*
X341219002Y-111070321D01*
X341319342Y-111312566D01*
X341319345Y-111312573D01*
X341319348Y-111312579D01*
X341450462Y-111539681D01*
X341610097Y-111747727D01*
X341610101Y-111747731D01*
X341795514Y-111933152D01*
X341795524Y-111933162D01*
X342003546Y-112092788D01*
X342003552Y-112092792D01*
X342003561Y-112092799D01*
X342230659Y-112223922D01*
X342472929Y-112324280D01*
X342726225Y-112392159D01*
X342986214Y-112426395D01*
X343042392Y-112426396D01*
X343042430Y-112426400D01*
X343051456Y-112426400D01*
X343117330Y-112426400D01*
X343117331Y-112426400D01*
X343183223Y-112426402D01*
X343183226Y-112426400D01*
X343191846Y-112426401D01*
X343191875Y-112426400D01*
X367383414Y-112426400D01*
X367394224Y-112426871D01*
X367551583Y-112440644D01*
X367572867Y-112444398D01*
X367720194Y-112483878D01*
X367740505Y-112491271D01*
X367878734Y-112555732D01*
X367897452Y-112566539D01*
X368022392Y-112654026D01*
X368038950Y-112667920D01*
X368146801Y-112775775D01*
X368160694Y-112792333D01*
X368248175Y-112917272D01*
X368258982Y-112935991D01*
X368323440Y-113074226D01*
X368330832Y-113094536D01*
X368370308Y-113241864D01*
X368374061Y-113263150D01*
X368387876Y-113421059D01*
X368388348Y-113431866D01*
X368388348Y-130616615D01*
X368387876Y-130627427D01*
X368374103Y-130784790D01*
X368370349Y-130806074D01*
X368330868Y-130953406D01*
X368323475Y-130973716D01*
X368259014Y-131111948D01*
X368248207Y-131130666D01*
X368160715Y-131255615D01*
X368146822Y-131272172D01*
X368038971Y-131380023D01*
X368022414Y-131393916D01*
X367897465Y-131481408D01*
X367878747Y-131492215D01*
X367740515Y-131556676D01*
X367720205Y-131564069D01*
X367572874Y-131603549D01*
X367551590Y-131607303D01*
X367410740Y-131619630D01*
X367394201Y-131621078D01*
X367383391Y-131621550D01*
X361241075Y-131621550D01*
X361241046Y-131621548D01*
X361232423Y-131621548D01*
X361166538Y-131621549D01*
X361166530Y-131621550D01*
X361093075Y-131621550D01*
X361093037Y-131621552D01*
X361035414Y-131621553D01*
X360775424Y-131655789D01*
X360775416Y-131655791D01*
X360522127Y-131723666D01*
X360522111Y-131723672D01*
X360279861Y-131824020D01*
X360279844Y-131824028D01*
X360052767Y-131955135D01*
X360052750Y-131955146D01*
X359844714Y-132114780D01*
X359844704Y-132114789D01*
X359659289Y-132300203D01*
X359659282Y-132300211D01*
X359499650Y-132508244D01*
X359499635Y-132508267D01*
X359368527Y-132735346D01*
X359368519Y-132735363D01*
X359268167Y-132977624D01*
X359200290Y-133230919D01*
X359200288Y-133230929D01*
X359166053Y-133490916D01*
X359166052Y-133548539D01*
X359166050Y-133548577D01*
X359166050Y-133622032D01*
X359166048Y-133696548D01*
X359166050Y-133696577D01*
X359166050Y-148869798D01*
X359165578Y-148880607D01*
X359151807Y-149037979D01*
X359148053Y-149059265D01*
X359108572Y-149206601D01*
X359101179Y-149226912D01*
X359036714Y-149365153D01*
X359025907Y-149383872D01*
X358938412Y-149508823D01*
X358924518Y-149525380D01*
X358816655Y-149633240D01*
X358800096Y-149647134D01*
X358675143Y-149734623D01*
X358656424Y-149745430D01*
X358518179Y-149809891D01*
X358497869Y-149817283D01*
X358350530Y-149856760D01*
X358329242Y-149860513D01*
X358171297Y-149874327D01*
X358160491Y-149874799D01*
X358108572Y-149874798D01*
X358100587Y-149874798D01*
X358100586Y-149874798D01*
X358091963Y-149874798D01*
X358091935Y-149874800D01*
X342569987Y-149874800D01*
X342569252Y-149874846D01*
X342512331Y-149874846D01*
X342512330Y-149874846D01*
X342512326Y-149874846D01*
X342389650Y-149890994D01*
X342252322Y-149909070D01*
X341999000Y-149976941D01*
X341998992Y-149976944D01*
X341756723Y-150077289D01*
X341756707Y-150077297D01*
X341529610Y-150208406D01*
X341529601Y-150208412D01*
X341321542Y-150368055D01*
X341321540Y-150368057D01*
X341136099Y-150553492D01*
X340976449Y-150761546D01*
X340845322Y-150988659D01*
X340845319Y-150988664D01*
X340845317Y-150988670D01*
X340744962Y-151230939D01*
X340744959Y-151230948D01*
X340677083Y-151484253D01*
X340642850Y-151744255D01*
X340642850Y-151875389D01*
X340642849Y-151951266D01*
X340642850Y-151951279D01*
X340642850Y-167550450D01*
X340623165Y-167617489D01*
X340570361Y-167663244D01*
X340518850Y-167674450D01*
X289829850Y-167674450D01*
X289762811Y-167654765D01*
X289717056Y-167601961D01*
X289705850Y-167550450D01*
X289705850Y-158675561D01*
X292549746Y-158675561D01*
X292570128Y-158934551D01*
X292630777Y-159187171D01*
X292730193Y-159427184D01*
X292730195Y-159427188D01*
X292730196Y-159427189D01*
X292865938Y-159648701D01*
X293034661Y-159846250D01*
X293232210Y-160014973D01*
X293453722Y-160150715D01*
X293453724Y-160150715D01*
X293453726Y-160150717D01*
X293515043Y-160176115D01*
X293693740Y-160250134D01*
X293946356Y-160310782D01*
X294205350Y-160331165D01*
X294464344Y-160310782D01*
X294716960Y-160250134D01*
X294956978Y-160150715D01*
X295178490Y-160014973D01*
X295376039Y-159846250D01*
X295544762Y-159648701D01*
X295680504Y-159427189D01*
X295779923Y-159187171D01*
X295840571Y-158934555D01*
X295860954Y-158675561D01*
X295840571Y-158416567D01*
X295779923Y-158163951D01*
X295717229Y-158012596D01*
X295680506Y-157923937D01*
X295544761Y-157702420D01*
X295432109Y-157570522D01*
X295376039Y-157504872D01*
X295178490Y-157336149D01*
X294956978Y-157200407D01*
X294956977Y-157200406D01*
X294956973Y-157200404D01*
X294790977Y-157131647D01*
X294716960Y-157100988D01*
X294716961Y-157100988D01*
X294579271Y-157067931D01*
X294464344Y-157040340D01*
X294464342Y-157040339D01*
X294464341Y-157040339D01*
X294205350Y-157019957D01*
X293946359Y-157040339D01*
X293693739Y-157100988D01*
X293453726Y-157200404D01*
X293232209Y-157336149D01*
X293034661Y-157504872D01*
X292865938Y-157702420D01*
X292730193Y-157923937D01*
X292630777Y-158163950D01*
X292570128Y-158416570D01*
X292549746Y-158675561D01*
X289705850Y-158675561D01*
X289705850Y-151732605D01*
X289705850Y-151732603D01*
X289672910Y-151609669D01*
X298704850Y-151609669D01*
X298704850Y-165741452D01*
X298738958Y-165868748D01*
X298771904Y-165925811D01*
X298804850Y-165982875D01*
X298898036Y-166076061D01*
X299012164Y-166141953D01*
X299139458Y-166176061D01*
X299139460Y-166176061D01*
X313271240Y-166176061D01*
X313271242Y-166176061D01*
X313398536Y-166141953D01*
X313512664Y-166076061D01*
X313605850Y-165982875D01*
X313671742Y-165868747D01*
X313705850Y-165741453D01*
X313705850Y-151609669D01*
X323454850Y-151609669D01*
X323454850Y-165741452D01*
X323488958Y-165868748D01*
X323521904Y-165925811D01*
X323554850Y-165982875D01*
X323648036Y-166076061D01*
X323762164Y-166141953D01*
X323889458Y-166176061D01*
X323889460Y-166176061D01*
X338021240Y-166176061D01*
X338021242Y-166176061D01*
X338148536Y-166141953D01*
X338262664Y-166076061D01*
X338355850Y-165982875D01*
X338421742Y-165868747D01*
X338455850Y-165741453D01*
X338455850Y-151609669D01*
X338421742Y-151482375D01*
X338355850Y-151368247D01*
X338262664Y-151275061D01*
X338189622Y-151232890D01*
X338148537Y-151209169D01*
X338084889Y-151192115D01*
X338021242Y-151175061D01*
X324021242Y-151175061D01*
X323889458Y-151175061D01*
X323762162Y-151209169D01*
X323648036Y-151275061D01*
X323648033Y-151275063D01*
X323554852Y-151368244D01*
X323554850Y-151368247D01*
X323488958Y-151482373D01*
X323454850Y-151609669D01*
X313705850Y-151609669D01*
X313671742Y-151482375D01*
X313605850Y-151368247D01*
X313512664Y-151275061D01*
X313439622Y-151232890D01*
X313398537Y-151209169D01*
X313334889Y-151192115D01*
X313271242Y-151175061D01*
X299271242Y-151175061D01*
X299139458Y-151175061D01*
X299012162Y-151209169D01*
X298898036Y-151275061D01*
X298898033Y-151275063D01*
X298804852Y-151368244D01*
X298804850Y-151368247D01*
X298738958Y-151482373D01*
X298704850Y-151609669D01*
X289672910Y-151609669D01*
X289671742Y-151605309D01*
X289605850Y-151491181D01*
X289512664Y-151397995D01*
X289455600Y-151365049D01*
X289398537Y-151332103D01*
X289334889Y-151315049D01*
X289271242Y-151297995D01*
X289271241Y-151297995D01*
X212004500Y-151297995D01*
X211937461Y-151278310D01*
X211891706Y-151225506D01*
X211880500Y-151173995D01*
X211880500Y-133609660D01*
X215959699Y-133609660D01*
X215959699Y-147609660D01*
X215959699Y-147741444D01*
X215976753Y-147805091D01*
X215993807Y-147868739D01*
X216026753Y-147925802D01*
X216059699Y-147982866D01*
X216152885Y-148076052D01*
X216267013Y-148141944D01*
X216394307Y-148176052D01*
X216394309Y-148176052D01*
X230526089Y-148176052D01*
X230526091Y-148176052D01*
X230653385Y-148141944D01*
X230767513Y-148076052D01*
X230860699Y-147982866D01*
X230926591Y-147868738D01*
X230960699Y-147741444D01*
X230960699Y-140675552D01*
X233710680Y-140675552D01*
X233731062Y-140934542D01*
X233791711Y-141187162D01*
X233891127Y-141427175D01*
X233891129Y-141427179D01*
X233891130Y-141427180D01*
X234026872Y-141648692D01*
X234195595Y-141846241D01*
X234393144Y-142014964D01*
X234614656Y-142150706D01*
X234614658Y-142150706D01*
X234614660Y-142150708D01*
X234675977Y-142176106D01*
X234854674Y-142250125D01*
X235107290Y-142310773D01*
X235366284Y-142331156D01*
X235625278Y-142310773D01*
X235877894Y-142250125D01*
X236117912Y-142150706D01*
X236339424Y-142014964D01*
X236536973Y-141846241D01*
X236705696Y-141648692D01*
X236841438Y-141427180D01*
X236940857Y-141187162D01*
X237001505Y-140934546D01*
X237021888Y-140675552D01*
X237001505Y-140416558D01*
X236940857Y-140163942D01*
X236852079Y-139949614D01*
X236841440Y-139923928D01*
X236793722Y-139846059D01*
X236705696Y-139702412D01*
X236536973Y-139504863D01*
X236339424Y-139336140D01*
X236117912Y-139200398D01*
X236117911Y-139200397D01*
X236117907Y-139200395D01*
X235951911Y-139131638D01*
X235877894Y-139100979D01*
X235877895Y-139100979D01*
X235625315Y-139040340D01*
X235625278Y-139040331D01*
X235625276Y-139040330D01*
X235625275Y-139040330D01*
X235366284Y-139019948D01*
X235107293Y-139040330D01*
X234854673Y-139100979D01*
X234614660Y-139200395D01*
X234393143Y-139336140D01*
X234195595Y-139504863D01*
X234026872Y-139702411D01*
X233891127Y-139923928D01*
X233791711Y-140163941D01*
X233731062Y-140416561D01*
X233710680Y-140675552D01*
X230960699Y-140675552D01*
X230960699Y-133609660D01*
X239771869Y-133609660D01*
X239771869Y-147609660D01*
X239771869Y-147741444D01*
X239788923Y-147805091D01*
X239805977Y-147868739D01*
X239838923Y-147925802D01*
X239871869Y-147982866D01*
X239965055Y-148076052D01*
X240079183Y-148141944D01*
X240206477Y-148176052D01*
X240206479Y-148176052D01*
X254338259Y-148176052D01*
X254338261Y-148176052D01*
X254465555Y-148141944D01*
X254579683Y-148076052D01*
X254672869Y-147982866D01*
X254738761Y-147868738D01*
X254772869Y-147741444D01*
X254772869Y-133609660D01*
X263585942Y-133609660D01*
X263585942Y-147609660D01*
X263585942Y-147741444D01*
X263602996Y-147805091D01*
X263620050Y-147868739D01*
X263652996Y-147925802D01*
X263685942Y-147982866D01*
X263779128Y-148076052D01*
X263893256Y-148141944D01*
X264020550Y-148176052D01*
X277995885Y-148176059D01*
X277995889Y-148176061D01*
X278020550Y-148176061D01*
X278152332Y-148176061D01*
X278152334Y-148176061D01*
X278279628Y-148141953D01*
X278393756Y-148076061D01*
X278486942Y-147982875D01*
X278552834Y-147868747D01*
X278586942Y-147741453D01*
X278586942Y-147609669D01*
X278586942Y-133609669D01*
X287396950Y-133609669D01*
X287396950Y-147741452D01*
X287431058Y-147868748D01*
X287464004Y-147925811D01*
X287496950Y-147982875D01*
X287590136Y-148076061D01*
X287688971Y-148133124D01*
X287704246Y-148141943D01*
X287704264Y-148141953D01*
X287831558Y-148176061D01*
X287831560Y-148176061D01*
X301963340Y-148176061D01*
X301963342Y-148176061D01*
X302090636Y-148141953D01*
X302204764Y-148076061D01*
X302297950Y-147982875D01*
X302363842Y-147868747D01*
X302397950Y-147741453D01*
X302397950Y-140675561D01*
X307529396Y-140675561D01*
X307549778Y-140934551D01*
X307610427Y-141187171D01*
X307709843Y-141427184D01*
X307709845Y-141427188D01*
X307709846Y-141427189D01*
X307845588Y-141648701D01*
X308014311Y-141846250D01*
X308211860Y-142014973D01*
X308433372Y-142150715D01*
X308433374Y-142150715D01*
X308433376Y-142150717D01*
X308494693Y-142176115D01*
X308673390Y-142250134D01*
X308926006Y-142310782D01*
X309185000Y-142331165D01*
X309443994Y-142310782D01*
X309696610Y-142250134D01*
X309936628Y-142150715D01*
X310158140Y-142014973D01*
X310355689Y-141846250D01*
X310524412Y-141648701D01*
X310660154Y-141427189D01*
X310759573Y-141187171D01*
X310820221Y-140934555D01*
X310840604Y-140675561D01*
X310820221Y-140416567D01*
X310759573Y-140163951D01*
X310696879Y-140012596D01*
X310660156Y-139923937D01*
X310660150Y-139923928D01*
X310524412Y-139702421D01*
X310355689Y-139504872D01*
X310158140Y-139336149D01*
X309936628Y-139200407D01*
X309936627Y-139200406D01*
X309936623Y-139200404D01*
X309770627Y-139131647D01*
X309696610Y-139100988D01*
X309696611Y-139100988D01*
X309558921Y-139067931D01*
X309443994Y-139040340D01*
X309443992Y-139040339D01*
X309443991Y-139040339D01*
X309185000Y-139019957D01*
X308926009Y-139040339D01*
X308673389Y-139100988D01*
X308433376Y-139200404D01*
X308211859Y-139336149D01*
X308014311Y-139504872D01*
X307845588Y-139702420D01*
X307709843Y-139923937D01*
X307610427Y-140163950D01*
X307549778Y-140416570D01*
X307529396Y-140675561D01*
X302397950Y-140675561D01*
X302397950Y-133609669D01*
X315972050Y-133609669D01*
X315972050Y-147741452D01*
X316006158Y-147868748D01*
X316039104Y-147925811D01*
X316072050Y-147982875D01*
X316165236Y-148076061D01*
X316264071Y-148133124D01*
X316279346Y-148141943D01*
X316279364Y-148141953D01*
X316406658Y-148176061D01*
X316406660Y-148176061D01*
X330538440Y-148176061D01*
X330538442Y-148176061D01*
X330665736Y-148141953D01*
X330779864Y-148076061D01*
X330873050Y-147982875D01*
X330938942Y-147868747D01*
X330973050Y-147741453D01*
X330973050Y-140675561D01*
X334913946Y-140675561D01*
X334934328Y-140934551D01*
X334994977Y-141187171D01*
X335094393Y-141427184D01*
X335094395Y-141427188D01*
X335094396Y-141427189D01*
X335230138Y-141648701D01*
X335398861Y-141846250D01*
X335596410Y-142014973D01*
X335817922Y-142150715D01*
X335817924Y-142150715D01*
X335817926Y-142150717D01*
X335879243Y-142176115D01*
X336057940Y-142250134D01*
X336310556Y-142310782D01*
X336569550Y-142331165D01*
X336828544Y-142310782D01*
X337081160Y-142250134D01*
X337321178Y-142150715D01*
X337542690Y-142014973D01*
X337740239Y-141846250D01*
X337908962Y-141648701D01*
X338044704Y-141427189D01*
X338144123Y-141187171D01*
X338204771Y-140934555D01*
X338225154Y-140675561D01*
X338204771Y-140416567D01*
X338144123Y-140163951D01*
X338081429Y-140012596D01*
X338044706Y-139923937D01*
X338044700Y-139923928D01*
X337908962Y-139702421D01*
X337740239Y-139504872D01*
X337542690Y-139336149D01*
X337321178Y-139200407D01*
X337321177Y-139200406D01*
X337321173Y-139200404D01*
X337155177Y-139131647D01*
X337081160Y-139100988D01*
X337081161Y-139100988D01*
X336943471Y-139067931D01*
X336828544Y-139040340D01*
X336828542Y-139040339D01*
X336828541Y-139040339D01*
X336569550Y-139019957D01*
X336310559Y-139040339D01*
X336057939Y-139100988D01*
X335817926Y-139200404D01*
X335596409Y-139336149D01*
X335398861Y-139504872D01*
X335230138Y-139702420D01*
X335094393Y-139923937D01*
X334994977Y-140163950D01*
X334934328Y-140416570D01*
X334913946Y-140675561D01*
X330973050Y-140675561D01*
X330973050Y-133609669D01*
X342166050Y-133609669D01*
X342166050Y-147741452D01*
X342200158Y-147868748D01*
X342233104Y-147925811D01*
X342266050Y-147982875D01*
X342359236Y-148076061D01*
X342458071Y-148133124D01*
X342473346Y-148141943D01*
X342473364Y-148141953D01*
X342600658Y-148176061D01*
X342600660Y-148176061D01*
X356732440Y-148176061D01*
X356732442Y-148176061D01*
X356859736Y-148141953D01*
X356973864Y-148076061D01*
X357067050Y-147982875D01*
X357132942Y-147868747D01*
X357167050Y-147741453D01*
X357167050Y-133609669D01*
X357132942Y-133482375D01*
X357067050Y-133368247D01*
X356973864Y-133275061D01*
X356916800Y-133242115D01*
X356859737Y-133209169D01*
X356796089Y-133192115D01*
X356732442Y-133175061D01*
X342732442Y-133175061D01*
X342600658Y-133175061D01*
X342473362Y-133209169D01*
X342359236Y-133275061D01*
X342359233Y-133275063D01*
X342266052Y-133368244D01*
X342266050Y-133368247D01*
X342200158Y-133482373D01*
X342166050Y-133609669D01*
X330973050Y-133609669D01*
X330938942Y-133482375D01*
X330873050Y-133368247D01*
X330779864Y-133275061D01*
X330722800Y-133242115D01*
X330665737Y-133209169D01*
X330602089Y-133192115D01*
X330538442Y-133175061D01*
X316538442Y-133175061D01*
X316406658Y-133175061D01*
X316279362Y-133209169D01*
X316165236Y-133275061D01*
X316165233Y-133275063D01*
X316072052Y-133368244D01*
X316072050Y-133368247D01*
X316006158Y-133482373D01*
X315972050Y-133609669D01*
X302397950Y-133609669D01*
X302363842Y-133482375D01*
X302297950Y-133368247D01*
X302204764Y-133275061D01*
X302147700Y-133242115D01*
X302090637Y-133209169D01*
X302026989Y-133192115D01*
X301963342Y-133175061D01*
X287963342Y-133175061D01*
X287831558Y-133175061D01*
X287704262Y-133209169D01*
X287590136Y-133275061D01*
X287590133Y-133275063D01*
X287496952Y-133368244D01*
X287496950Y-133368247D01*
X287431058Y-133482373D01*
X287396950Y-133609669D01*
X278586942Y-133609669D01*
X278586942Y-133609660D01*
X278552834Y-133482366D01*
X278486942Y-133368238D01*
X278393756Y-133275052D01*
X278317316Y-133230919D01*
X278279629Y-133209160D01*
X278215981Y-133192106D01*
X278152334Y-133175052D01*
X264152334Y-133175052D01*
X264020550Y-133175052D01*
X263893254Y-133209160D01*
X263779128Y-133275052D01*
X263779125Y-133275054D01*
X263685944Y-133368235D01*
X263685942Y-133368238D01*
X263620050Y-133482364D01*
X263587164Y-133605100D01*
X263585942Y-133609660D01*
X254772869Y-133609660D01*
X254738761Y-133482366D01*
X254672869Y-133368238D01*
X254579683Y-133275052D01*
X254503243Y-133230919D01*
X254465556Y-133209160D01*
X254401908Y-133192106D01*
X254338261Y-133175052D01*
X240338261Y-133175052D01*
X240206477Y-133175052D01*
X240079181Y-133209160D01*
X239965055Y-133275052D01*
X239965052Y-133275054D01*
X239871871Y-133368235D01*
X239871869Y-133368238D01*
X239805977Y-133482364D01*
X239773091Y-133605100D01*
X239771869Y-133609660D01*
X230960699Y-133609660D01*
X230926591Y-133482366D01*
X230860699Y-133368238D01*
X230767513Y-133275052D01*
X230691073Y-133230919D01*
X230653386Y-133209160D01*
X230589738Y-133192106D01*
X230526091Y-133175052D01*
X216526091Y-133175052D01*
X216394307Y-133175052D01*
X216267011Y-133209160D01*
X216152885Y-133275052D01*
X216152882Y-133275054D01*
X216059701Y-133368235D01*
X216059699Y-133368238D01*
X215993807Y-133482364D01*
X215960921Y-133605100D01*
X215959699Y-133609660D01*
X211880500Y-133609660D01*
X211880500Y-119260508D01*
X216385180Y-119260508D01*
X216385180Y-122191191D01*
X216419288Y-122318487D01*
X216452234Y-122375550D01*
X216485180Y-122432614D01*
X216578366Y-122525800D01*
X216692494Y-122591692D01*
X216819788Y-122625800D01*
X217086650Y-122625800D01*
X217153689Y-122645485D01*
X217199444Y-122698289D01*
X217210650Y-122749800D01*
X217210650Y-128461091D01*
X217244758Y-128588387D01*
X217277704Y-128645450D01*
X217310650Y-128702514D01*
X217403836Y-128795700D01*
X217517964Y-128861592D01*
X217645258Y-128895700D01*
X218811940Y-128895700D01*
X218878979Y-128915385D01*
X218924734Y-128968189D01*
X218935940Y-129019700D01*
X218935940Y-129661291D01*
X218970048Y-129788587D01*
X219002994Y-129845650D01*
X219035940Y-129902714D01*
X219129126Y-129995900D01*
X219243254Y-130061792D01*
X219370548Y-130095900D01*
X219370550Y-130095900D01*
X222801340Y-130095900D01*
X222801342Y-130095900D01*
X222928636Y-130061792D01*
X223042764Y-129995900D01*
X223135950Y-129902714D01*
X223201842Y-129788586D01*
X223235950Y-129661292D01*
X223235950Y-129019700D01*
X223255635Y-128952661D01*
X223308439Y-128906906D01*
X223359950Y-128895700D01*
X224526640Y-128895700D01*
X224526642Y-128895700D01*
X224653936Y-128861592D01*
X224768064Y-128795700D01*
X224861250Y-128702514D01*
X224927142Y-128588386D01*
X224961250Y-128461092D01*
X224961250Y-124549300D01*
X224980935Y-124482261D01*
X225033739Y-124436506D01*
X225085250Y-124425300D01*
X225361750Y-124425300D01*
X225428789Y-124444985D01*
X225474544Y-124497789D01*
X225485750Y-124549300D01*
X225485750Y-128559308D01*
X225485750Y-128691092D01*
X225488811Y-128702516D01*
X225519858Y-128818387D01*
X225544802Y-128861591D01*
X225585750Y-128932514D01*
X225678936Y-129025700D01*
X225769695Y-129078100D01*
X225792717Y-129091392D01*
X225793064Y-129091592D01*
X225920358Y-129125700D01*
X225920360Y-129125700D01*
X240051640Y-129125700D01*
X240051642Y-129125700D01*
X240178936Y-129091592D01*
X240293064Y-129025700D01*
X240386250Y-128932514D01*
X240452142Y-128818386D01*
X240486250Y-128691092D01*
X240486250Y-124549300D01*
X240505935Y-124482261D01*
X240558739Y-124436506D01*
X240610250Y-124425300D01*
X240886750Y-124425300D01*
X240953789Y-124444985D01*
X240999544Y-124497789D01*
X241010750Y-124549300D01*
X241010750Y-128461091D01*
X241044858Y-128588387D01*
X241077804Y-128645450D01*
X241110750Y-128702514D01*
X241203936Y-128795700D01*
X241318064Y-128861592D01*
X241445358Y-128895700D01*
X242610650Y-128895700D01*
X242677689Y-128915385D01*
X242723444Y-128968189D01*
X242734650Y-129019700D01*
X242734650Y-129661291D01*
X242768758Y-129788587D01*
X242801704Y-129845650D01*
X242834650Y-129902714D01*
X242927836Y-129995900D01*
X243041964Y-130061792D01*
X243169258Y-130095900D01*
X243169260Y-130095900D01*
X246601440Y-130095900D01*
X246601442Y-130095900D01*
X246728736Y-130061792D01*
X246842864Y-129995900D01*
X246936050Y-129902714D01*
X247001942Y-129788586D01*
X247036050Y-129661292D01*
X247036050Y-129019700D01*
X247055735Y-128952661D01*
X247108539Y-128906906D01*
X247160050Y-128895700D01*
X248326640Y-128895700D01*
X248326642Y-128895700D01*
X248453936Y-128861592D01*
X248568064Y-128795700D01*
X248661250Y-128702514D01*
X248727142Y-128588386D01*
X248761250Y-128461092D01*
X248761250Y-122749800D01*
X248780935Y-122682761D01*
X248833739Y-122637006D01*
X248885250Y-122625800D01*
X249152140Y-122625800D01*
X249152142Y-122625800D01*
X249279436Y-122591692D01*
X249393564Y-122525800D01*
X249486750Y-122432614D01*
X249552642Y-122318486D01*
X249586750Y-122191192D01*
X249586750Y-121625550D01*
X251358796Y-121625550D01*
X251379178Y-121884540D01*
X251439827Y-122137160D01*
X251539243Y-122377173D01*
X251539245Y-122377177D01*
X251539246Y-122377178D01*
X251674988Y-122598690D01*
X251843711Y-122796239D01*
X252041260Y-122964962D01*
X252262772Y-123100704D01*
X252262774Y-123100704D01*
X252262776Y-123100706D01*
X252324093Y-123126104D01*
X252502790Y-123200123D01*
X252755406Y-123260771D01*
X253014400Y-123281154D01*
X253273394Y-123260771D01*
X253526010Y-123200123D01*
X253766028Y-123100704D01*
X253987540Y-122964962D01*
X254185089Y-122796239D01*
X254353812Y-122598690D01*
X254489554Y-122377178D01*
X254588973Y-122137160D01*
X254649621Y-121884544D01*
X254670004Y-121625550D01*
X254649621Y-121366556D01*
X254588973Y-121113940D01*
X254489554Y-120873922D01*
X254353812Y-120652410D01*
X254185089Y-120454861D01*
X253987540Y-120286138D01*
X253766028Y-120150396D01*
X253766027Y-120150395D01*
X253766023Y-120150393D01*
X253600027Y-120081636D01*
X253526010Y-120050977D01*
X253526011Y-120050977D01*
X253388321Y-120017920D01*
X253273394Y-119990329D01*
X253273392Y-119990328D01*
X253273391Y-119990328D01*
X253014400Y-119969946D01*
X252755409Y-119990328D01*
X252502789Y-120050977D01*
X252262776Y-120150393D01*
X252041259Y-120286138D01*
X251843711Y-120454861D01*
X251674988Y-120652409D01*
X251539243Y-120873926D01*
X251439827Y-121113939D01*
X251379178Y-121366559D01*
X251358796Y-121625550D01*
X249586750Y-121625550D01*
X249586750Y-119260508D01*
X249552642Y-119133214D01*
X249486750Y-119019086D01*
X249393564Y-118925900D01*
X249336500Y-118892954D01*
X249279437Y-118860008D01*
X249215789Y-118842954D01*
X249152142Y-118825900D01*
X249152141Y-118825900D01*
X248885250Y-118825900D01*
X248818211Y-118806215D01*
X248772456Y-118753411D01*
X248761250Y-118701900D01*
X248761250Y-116030410D01*
X248761250Y-116030408D01*
X248727142Y-115903114D01*
X248661250Y-115788986D01*
X248568064Y-115695800D01*
X248511000Y-115662854D01*
X248453937Y-115629908D01*
X248390289Y-115612854D01*
X248326642Y-115595800D01*
X241577142Y-115595800D01*
X241445358Y-115595800D01*
X241318062Y-115629908D01*
X241203936Y-115695800D01*
X241203933Y-115695802D01*
X241110752Y-115788983D01*
X241110750Y-115788986D01*
X241044858Y-115903112D01*
X241010750Y-116030408D01*
X241010750Y-118701900D01*
X240991065Y-118768939D01*
X240938261Y-118814694D01*
X240886750Y-118825900D01*
X240610250Y-118825900D01*
X240543211Y-118806215D01*
X240497456Y-118753411D01*
X240486250Y-118701900D01*
X240486250Y-114560010D01*
X240486250Y-114560008D01*
X256442050Y-114560008D01*
X256442050Y-128559308D01*
X256442050Y-128691092D01*
X256445111Y-128702516D01*
X256476158Y-128818387D01*
X256501102Y-128861591D01*
X256542050Y-128932514D01*
X256635236Y-129025700D01*
X256725995Y-129078100D01*
X256749017Y-129091392D01*
X256749364Y-129091592D01*
X256876658Y-129125700D01*
X256876660Y-129125700D01*
X271007740Y-129125700D01*
X271007742Y-129125700D01*
X271135036Y-129091592D01*
X271249164Y-129025700D01*
X271342350Y-128932514D01*
X271408242Y-128818386D01*
X271442350Y-128691092D01*
X271442350Y-114560008D01*
X275492050Y-114560008D01*
X275492050Y-128559308D01*
X275492050Y-128691092D01*
X275495111Y-128702516D01*
X275526158Y-128818387D01*
X275551102Y-128861591D01*
X275592050Y-128932514D01*
X275685236Y-129025700D01*
X275775995Y-129078100D01*
X275799017Y-129091392D01*
X275799364Y-129091592D01*
X275926658Y-129125700D01*
X275926660Y-129125700D01*
X290057740Y-129125700D01*
X290057742Y-129125700D01*
X290185036Y-129091592D01*
X290299164Y-129025700D01*
X290392350Y-128932514D01*
X290458242Y-128818386D01*
X290492350Y-128691092D01*
X290492350Y-114560008D01*
X294542050Y-114560008D01*
X294542050Y-128559308D01*
X294542050Y-128691092D01*
X294545111Y-128702516D01*
X294576158Y-128818387D01*
X294601102Y-128861591D01*
X294642050Y-128932514D01*
X294735236Y-129025700D01*
X294825995Y-129078100D01*
X294849017Y-129091392D01*
X294849364Y-129091592D01*
X294976658Y-129125700D01*
X294976660Y-129125700D01*
X309107740Y-129125700D01*
X309107742Y-129125700D01*
X309235036Y-129091592D01*
X309349164Y-129025700D01*
X309442350Y-128932514D01*
X309508242Y-128818386D01*
X309542350Y-128691092D01*
X309542350Y-114560008D01*
X313591850Y-114560008D01*
X313591850Y-128559308D01*
X313591850Y-128691092D01*
X313594911Y-128702516D01*
X313625958Y-128818387D01*
X313650902Y-128861591D01*
X313691850Y-128932514D01*
X313785036Y-129025700D01*
X313875795Y-129078100D01*
X313898817Y-129091392D01*
X313899164Y-129091592D01*
X314026458Y-129125700D01*
X314026460Y-129125700D01*
X328158240Y-129125700D01*
X328158242Y-129125700D01*
X328285536Y-129091592D01*
X328399664Y-129025700D01*
X328492850Y-128932514D01*
X328558742Y-128818386D01*
X328592850Y-128691092D01*
X328592850Y-114560008D01*
X332641850Y-114560008D01*
X332641850Y-128559308D01*
X332641850Y-128691092D01*
X332644911Y-128702516D01*
X332675958Y-128818387D01*
X332700902Y-128861591D01*
X332741850Y-128932514D01*
X332835036Y-129025700D01*
X332925795Y-129078100D01*
X332948817Y-129091392D01*
X332949164Y-129091592D01*
X333076458Y-129125700D01*
X333076460Y-129125700D01*
X347208240Y-129125700D01*
X347208242Y-129125700D01*
X347335536Y-129091592D01*
X347449664Y-129025700D01*
X347542850Y-128932514D01*
X347608742Y-128818386D01*
X347642681Y-128691722D01*
X351688339Y-128691722D01*
X351688339Y-128691727D01*
X351722429Y-128819022D01*
X351788303Y-128933155D01*
X351788308Y-128933162D01*
X351823326Y-128968189D01*
X351881478Y-129026357D01*
X351995597Y-129092265D01*
X351995603Y-129092266D01*
X351995604Y-129092267D01*
X352122883Y-129126390D01*
X352122887Y-129126391D01*
X366107753Y-129128329D01*
X366107759Y-129128331D01*
X366122186Y-129128332D01*
X366122187Y-129128333D01*
X366237650Y-129128347D01*
X366254979Y-129130631D01*
X366270059Y-129128765D01*
X366285576Y-129119887D01*
X366381269Y-129094261D01*
X366381272Y-129094259D01*
X366381273Y-129094259D01*
X366415140Y-129074711D01*
X366495406Y-129028385D01*
X366588605Y-128935212D01*
X366654513Y-128821093D01*
X366688639Y-128693803D01*
X366690599Y-114562720D01*
X366688933Y-114556500D01*
X366688933Y-114556499D01*
X366688932Y-114556494D01*
X366656511Y-114435427D01*
X366656510Y-114435425D01*
X366656509Y-114435421D01*
X366614891Y-114363314D01*
X366590633Y-114321284D01*
X366590630Y-114321281D01*
X366590629Y-114321279D01*
X366497461Y-114228086D01*
X366497460Y-114228085D01*
X366383341Y-114162177D01*
X366383338Y-114162176D01*
X366383333Y-114162174D01*
X366256054Y-114128051D01*
X366256049Y-114128050D01*
X352260634Y-114126109D01*
X352256752Y-114126109D01*
X352256751Y-114126109D01*
X352256749Y-114126108D01*
X352124967Y-114126091D01*
X352124962Y-114126091D01*
X351997667Y-114160181D01*
X351883534Y-114226055D01*
X351883527Y-114226060D01*
X351790334Y-114319228D01*
X351789210Y-114321175D01*
X351789207Y-114321179D01*
X351724427Y-114433343D01*
X351724422Y-114433356D01*
X351690299Y-114560635D01*
X351690298Y-114560640D01*
X351688357Y-128559939D01*
X351688339Y-128691722D01*
X347642681Y-128691722D01*
X347642850Y-128691092D01*
X347642850Y-114560008D01*
X347608742Y-114432714D01*
X347542850Y-114318586D01*
X347449664Y-114225400D01*
X347392600Y-114192454D01*
X347335537Y-114159508D01*
X347271889Y-114142454D01*
X347208242Y-114125400D01*
X333208242Y-114125400D01*
X333076458Y-114125400D01*
X332949162Y-114159508D01*
X332835036Y-114225400D01*
X332835033Y-114225402D01*
X332741852Y-114318583D01*
X332741850Y-114318586D01*
X332675958Y-114432712D01*
X332675231Y-114435427D01*
X332641850Y-114560008D01*
X328592850Y-114560008D01*
X328558742Y-114432714D01*
X328492850Y-114318586D01*
X328399664Y-114225400D01*
X328342600Y-114192454D01*
X328285537Y-114159508D01*
X328221889Y-114142454D01*
X328158242Y-114125400D01*
X314158242Y-114125400D01*
X314026458Y-114125400D01*
X313899162Y-114159508D01*
X313785036Y-114225400D01*
X313785033Y-114225402D01*
X313691852Y-114318583D01*
X313691850Y-114318586D01*
X313625958Y-114432712D01*
X313625231Y-114435427D01*
X313591850Y-114560008D01*
X309542350Y-114560008D01*
X309508242Y-114432714D01*
X309442350Y-114318586D01*
X309349164Y-114225400D01*
X309292100Y-114192454D01*
X309235037Y-114159508D01*
X309171389Y-114142454D01*
X309107742Y-114125400D01*
X295108442Y-114125400D01*
X294976658Y-114125400D01*
X294849362Y-114159508D01*
X294735236Y-114225400D01*
X294735233Y-114225402D01*
X294642052Y-114318583D01*
X294642050Y-114318586D01*
X294576158Y-114432712D01*
X294575431Y-114435427D01*
X294542050Y-114560008D01*
X290492350Y-114560008D01*
X290458242Y-114432714D01*
X290392350Y-114318586D01*
X290299164Y-114225400D01*
X290242100Y-114192454D01*
X290185037Y-114159508D01*
X290121389Y-114142454D01*
X290057742Y-114125400D01*
X276058442Y-114125400D01*
X275926658Y-114125400D01*
X275799362Y-114159508D01*
X275685236Y-114225400D01*
X275685233Y-114225402D01*
X275592052Y-114318583D01*
X275592050Y-114318586D01*
X275526158Y-114432712D01*
X275525431Y-114435427D01*
X275492050Y-114560008D01*
X271442350Y-114560008D01*
X271408242Y-114432714D01*
X271342350Y-114318586D01*
X271249164Y-114225400D01*
X271192100Y-114192454D01*
X271135037Y-114159508D01*
X271071389Y-114142454D01*
X271007742Y-114125400D01*
X257008442Y-114125400D01*
X256876658Y-114125400D01*
X256749362Y-114159508D01*
X256635236Y-114225400D01*
X256635233Y-114225402D01*
X256542052Y-114318583D01*
X256542050Y-114318586D01*
X256476158Y-114432712D01*
X256475431Y-114435427D01*
X256442050Y-114560008D01*
X240486250Y-114560008D01*
X240452142Y-114432714D01*
X240386250Y-114318586D01*
X240293064Y-114225400D01*
X240236000Y-114192454D01*
X240178937Y-114159508D01*
X240115289Y-114142454D01*
X240051642Y-114125400D01*
X226052142Y-114125400D01*
X225920358Y-114125400D01*
X225793062Y-114159508D01*
X225678936Y-114225400D01*
X225678933Y-114225402D01*
X225585752Y-114318583D01*
X225585750Y-114318586D01*
X225519858Y-114432712D01*
X225485750Y-114560008D01*
X225485750Y-118701900D01*
X225466065Y-118768939D01*
X225413261Y-118814694D01*
X225361750Y-118825900D01*
X225085250Y-118825900D01*
X225018211Y-118806215D01*
X224972456Y-118753411D01*
X224961250Y-118701900D01*
X224961250Y-116030410D01*
X224961250Y-116030408D01*
X224927142Y-115903114D01*
X224861250Y-115788986D01*
X224768064Y-115695800D01*
X224711000Y-115662854D01*
X224653937Y-115629908D01*
X224590289Y-115612854D01*
X224526642Y-115595800D01*
X217777042Y-115595800D01*
X217645258Y-115595800D01*
X217517962Y-115629908D01*
X217403836Y-115695800D01*
X217403833Y-115695802D01*
X217310652Y-115788983D01*
X217310650Y-115788986D01*
X217244758Y-115903112D01*
X217210650Y-116030408D01*
X217210650Y-118701900D01*
X217190965Y-118768939D01*
X217138161Y-118814694D01*
X217086650Y-118825900D01*
X216819788Y-118825900D01*
X216692492Y-118860008D01*
X216578366Y-118925900D01*
X216578363Y-118925902D01*
X216485182Y-119019083D01*
X216485180Y-119019086D01*
X216419288Y-119133212D01*
X216385180Y-119260508D01*
X211880500Y-119260508D01*
X211880500Y-95510008D01*
X220721880Y-95510008D01*
X220721880Y-109641091D01*
X220755988Y-109768387D01*
X220788934Y-109825450D01*
X220821880Y-109882514D01*
X220915066Y-109975700D01*
X221013901Y-110032763D01*
X221028847Y-110041392D01*
X221029194Y-110041592D01*
X221156488Y-110075700D01*
X221156490Y-110075700D01*
X235289140Y-110075700D01*
X235289142Y-110075700D01*
X235416436Y-110041592D01*
X235530564Y-109975700D01*
X235623750Y-109882514D01*
X235689642Y-109768386D01*
X235723750Y-109641092D01*
X235723750Y-102575550D01*
X239664796Y-102575550D01*
X239685178Y-102834540D01*
X239745827Y-103087160D01*
X239845243Y-103327173D01*
X239845245Y-103327177D01*
X239845246Y-103327178D01*
X239980988Y-103548690D01*
X240149711Y-103746239D01*
X240347260Y-103914962D01*
X240568772Y-104050704D01*
X240568774Y-104050704D01*
X240568776Y-104050706D01*
X240630093Y-104076104D01*
X240808790Y-104150123D01*
X241061406Y-104210771D01*
X241320400Y-104231154D01*
X241579394Y-104210771D01*
X241832010Y-104150123D01*
X242072028Y-104050704D01*
X242293540Y-103914962D01*
X242491089Y-103746239D01*
X242659812Y-103548690D01*
X242795554Y-103327178D01*
X242894973Y-103087160D01*
X242955621Y-102834544D01*
X242976004Y-102575550D01*
X242955621Y-102316556D01*
X242894973Y-102063940D01*
X242795554Y-101823922D01*
X242659812Y-101602410D01*
X242491089Y-101404861D01*
X242293540Y-101236138D01*
X242072028Y-101100396D01*
X242072027Y-101100395D01*
X242072023Y-101100393D01*
X241906027Y-101031636D01*
X241832010Y-101000977D01*
X241832011Y-101000977D01*
X241694321Y-100967920D01*
X241579394Y-100940329D01*
X241579392Y-100940328D01*
X241579391Y-100940328D01*
X241320400Y-100919946D01*
X241061409Y-100940328D01*
X240808789Y-101000977D01*
X240568776Y-101100393D01*
X240347259Y-101236138D01*
X240149711Y-101404861D01*
X239980988Y-101602409D01*
X239845243Y-101823926D01*
X239745827Y-102063939D01*
X239685178Y-102316559D01*
X239664796Y-102575550D01*
X235723750Y-102575550D01*
X235723750Y-95510008D01*
X246917050Y-95510008D01*
X246917050Y-109641091D01*
X246951158Y-109768387D01*
X246984104Y-109825450D01*
X247017050Y-109882514D01*
X247110236Y-109975700D01*
X247209071Y-110032763D01*
X247224017Y-110041392D01*
X247224364Y-110041592D01*
X247351658Y-110075700D01*
X247351660Y-110075700D01*
X261482740Y-110075700D01*
X261482742Y-110075700D01*
X261610036Y-110041592D01*
X261724164Y-109975700D01*
X261817350Y-109882514D01*
X261883242Y-109768386D01*
X261917350Y-109641092D01*
X261917350Y-95510008D01*
X265967050Y-95510008D01*
X265967050Y-109641091D01*
X266001158Y-109768387D01*
X266034104Y-109825450D01*
X266067050Y-109882514D01*
X266160236Y-109975700D01*
X266259071Y-110032763D01*
X266274017Y-110041392D01*
X266274364Y-110041592D01*
X266401658Y-110075700D01*
X266401660Y-110075700D01*
X280532740Y-110075700D01*
X280532742Y-110075700D01*
X280660036Y-110041592D01*
X280774164Y-109975700D01*
X280867350Y-109882514D01*
X280933242Y-109768386D01*
X280967350Y-109641092D01*
X280967350Y-95510008D01*
X285017050Y-95510008D01*
X285017050Y-109641091D01*
X285051158Y-109768387D01*
X285084104Y-109825450D01*
X285117050Y-109882514D01*
X285210236Y-109975700D01*
X285309071Y-110032763D01*
X285324017Y-110041392D01*
X285324364Y-110041592D01*
X285451658Y-110075700D01*
X285451660Y-110075700D01*
X299582740Y-110075700D01*
X299582742Y-110075700D01*
X299710036Y-110041592D01*
X299824164Y-109975700D01*
X299917350Y-109882514D01*
X299983242Y-109768386D01*
X300017350Y-109641092D01*
X300017350Y-102575550D01*
X300386596Y-102575550D01*
X300406978Y-102834540D01*
X300467627Y-103087160D01*
X300567043Y-103327173D01*
X300567045Y-103327177D01*
X300567046Y-103327178D01*
X300702788Y-103548690D01*
X300871511Y-103746239D01*
X301069060Y-103914962D01*
X301290572Y-104050704D01*
X301290574Y-104050704D01*
X301290576Y-104050706D01*
X301351893Y-104076104D01*
X301530590Y-104150123D01*
X301783206Y-104210771D01*
X302042200Y-104231154D01*
X302301194Y-104210771D01*
X302553810Y-104150123D01*
X302793828Y-104050704D01*
X303015340Y-103914962D01*
X303212889Y-103746239D01*
X303381612Y-103548690D01*
X303517354Y-103327178D01*
X303616773Y-103087160D01*
X303677421Y-102834544D01*
X303697804Y-102575550D01*
X303677421Y-102316556D01*
X303616773Y-102063940D01*
X303517354Y-101823922D01*
X303381612Y-101602410D01*
X303212889Y-101404861D01*
X303015340Y-101236138D01*
X302793828Y-101100396D01*
X302793827Y-101100395D01*
X302793823Y-101100393D01*
X302627827Y-101031636D01*
X302553810Y-101000977D01*
X302553811Y-101000977D01*
X302416121Y-100967920D01*
X302301194Y-100940329D01*
X302301192Y-100940328D01*
X302301191Y-100940328D01*
X302042200Y-100919946D01*
X301783209Y-100940328D01*
X301530589Y-101000977D01*
X301290576Y-101100393D01*
X301069059Y-101236138D01*
X300871511Y-101404861D01*
X300702788Y-101602409D01*
X300567043Y-101823926D01*
X300467627Y-102063939D01*
X300406978Y-102316559D01*
X300386596Y-102575550D01*
X300017350Y-102575550D01*
X300017350Y-95510008D01*
X304067050Y-95510008D01*
X304067050Y-109641091D01*
X304101158Y-109768387D01*
X304134104Y-109825450D01*
X304167050Y-109882514D01*
X304260236Y-109975700D01*
X304359071Y-110032763D01*
X304374017Y-110041392D01*
X304374364Y-110041592D01*
X304501658Y-110075700D01*
X304501660Y-110075700D01*
X318633240Y-110075700D01*
X318633242Y-110075700D01*
X318760536Y-110041592D01*
X318874664Y-109975700D01*
X318967850Y-109882514D01*
X319033742Y-109768386D01*
X319067850Y-109641092D01*
X319067850Y-95510008D01*
X323116850Y-95510008D01*
X323116850Y-109641091D01*
X323150958Y-109768387D01*
X323183904Y-109825450D01*
X323216850Y-109882514D01*
X323310036Y-109975700D01*
X323408871Y-110032763D01*
X323423817Y-110041392D01*
X323424164Y-110041592D01*
X323551458Y-110075700D01*
X323551460Y-110075700D01*
X337683240Y-110075700D01*
X337683242Y-110075700D01*
X337810536Y-110041592D01*
X337924664Y-109975700D01*
X338017850Y-109882514D01*
X338083742Y-109768386D01*
X338117850Y-109641092D01*
X338117850Y-95510008D01*
X338083742Y-95382714D01*
X338017850Y-95268586D01*
X337924664Y-95175400D01*
X337867600Y-95142454D01*
X337810537Y-95109508D01*
X337746889Y-95092454D01*
X337683242Y-95075400D01*
X323683242Y-95075400D01*
X323551458Y-95075400D01*
X323424162Y-95109508D01*
X323310036Y-95175400D01*
X323310033Y-95175402D01*
X323216852Y-95268583D01*
X323216850Y-95268586D01*
X323150958Y-95382712D01*
X323116850Y-95510008D01*
X319067850Y-95510008D01*
X319033742Y-95382714D01*
X318967850Y-95268586D01*
X318874664Y-95175400D01*
X318817600Y-95142454D01*
X318760537Y-95109508D01*
X318696889Y-95092454D01*
X318633242Y-95075400D01*
X304633442Y-95075400D01*
X304501658Y-95075400D01*
X304374362Y-95109508D01*
X304260236Y-95175400D01*
X304260233Y-95175402D01*
X304167052Y-95268583D01*
X304167050Y-95268586D01*
X304101158Y-95382712D01*
X304067050Y-95510008D01*
X300017350Y-95510008D01*
X299983242Y-95382714D01*
X299917350Y-95268586D01*
X299824164Y-95175400D01*
X299767100Y-95142454D01*
X299710037Y-95109508D01*
X299646389Y-95092454D01*
X299582742Y-95075400D01*
X285583442Y-95075400D01*
X285451658Y-95075400D01*
X285324362Y-95109508D01*
X285210236Y-95175400D01*
X285210233Y-95175402D01*
X285117052Y-95268583D01*
X285117050Y-95268586D01*
X285051158Y-95382712D01*
X285017050Y-95510008D01*
X280967350Y-95510008D01*
X280933242Y-95382714D01*
X280867350Y-95268586D01*
X280774164Y-95175400D01*
X280717100Y-95142454D01*
X280660037Y-95109508D01*
X280596389Y-95092454D01*
X280532742Y-95075400D01*
X266533442Y-95075400D01*
X266401658Y-95075400D01*
X266274362Y-95109508D01*
X266160236Y-95175400D01*
X266160233Y-95175402D01*
X266067052Y-95268583D01*
X266067050Y-95268586D01*
X266001158Y-95382712D01*
X265967050Y-95510008D01*
X261917350Y-95510008D01*
X261883242Y-95382714D01*
X261817350Y-95268586D01*
X261724164Y-95175400D01*
X261667100Y-95142454D01*
X261610037Y-95109508D01*
X261546389Y-95092454D01*
X261482742Y-95075400D01*
X247483442Y-95075400D01*
X247351658Y-95075400D01*
X247224362Y-95109508D01*
X247110236Y-95175400D01*
X247110233Y-95175402D01*
X247017052Y-95268583D01*
X247017050Y-95268586D01*
X246951158Y-95382712D01*
X246917050Y-95510008D01*
X235723750Y-95510008D01*
X235689642Y-95382714D01*
X235623750Y-95268586D01*
X235530564Y-95175400D01*
X235473500Y-95142454D01*
X235416437Y-95109508D01*
X235352789Y-95092454D01*
X235289142Y-95075400D01*
X221288272Y-95075400D01*
X221156488Y-95075400D01*
X221029192Y-95109508D01*
X220915066Y-95175400D01*
X220915063Y-95175402D01*
X220821882Y-95268583D01*
X220821880Y-95268586D01*
X220755988Y-95382712D01*
X220721880Y-95510008D01*
X211880500Y-95510008D01*
X211880500Y-76460008D01*
X218342010Y-76460008D01*
X218342010Y-90591091D01*
X218376118Y-90718387D01*
X218409064Y-90775450D01*
X218442010Y-90832514D01*
X218535196Y-90925700D01*
X218649324Y-90991592D01*
X218776618Y-91025700D01*
X218776620Y-91025700D01*
X232907940Y-91025700D01*
X232907942Y-91025700D01*
X233035236Y-90991592D01*
X233149364Y-90925700D01*
X233242550Y-90832514D01*
X233308442Y-90718386D01*
X233342550Y-90591092D01*
X233342550Y-76460008D01*
X242154550Y-76460008D01*
X242154550Y-90591091D01*
X242188658Y-90718387D01*
X242221604Y-90775450D01*
X242254550Y-90832514D01*
X242347736Y-90925700D01*
X242461864Y-90991592D01*
X242589158Y-91025700D01*
X242589160Y-91025700D01*
X256720240Y-91025700D01*
X256720242Y-91025700D01*
X256847536Y-90991592D01*
X256961664Y-90925700D01*
X257054850Y-90832514D01*
X257120742Y-90718386D01*
X257154850Y-90591092D01*
X257154850Y-76460008D01*
X261204550Y-76460008D01*
X261204550Y-90591091D01*
X261238658Y-90718387D01*
X261271604Y-90775450D01*
X261304550Y-90832514D01*
X261397736Y-90925700D01*
X261511864Y-90991592D01*
X261639158Y-91025700D01*
X261639160Y-91025700D01*
X275770240Y-91025700D01*
X275770242Y-91025700D01*
X275897536Y-90991592D01*
X276011664Y-90925700D01*
X276104850Y-90832514D01*
X276170742Y-90718386D01*
X276204850Y-90591092D01*
X276204850Y-76460008D01*
X280254550Y-76460008D01*
X280254550Y-90591091D01*
X280288658Y-90718387D01*
X280321604Y-90775450D01*
X280354550Y-90832514D01*
X280447736Y-90925700D01*
X280561864Y-90991592D01*
X280689158Y-91025700D01*
X280689160Y-91025700D01*
X294820240Y-91025700D01*
X294820242Y-91025700D01*
X294947536Y-90991592D01*
X295061664Y-90925700D01*
X295154850Y-90832514D01*
X295220742Y-90718386D01*
X295254850Y-90591092D01*
X295254850Y-76460008D01*
X299304550Y-76460008D01*
X299304550Y-90591091D01*
X299338658Y-90718387D01*
X299371604Y-90775450D01*
X299404550Y-90832514D01*
X299497736Y-90925700D01*
X299611864Y-90991592D01*
X299739158Y-91025700D01*
X299739160Y-91025700D01*
X313870240Y-91025700D01*
X313870242Y-91025700D01*
X313997536Y-90991592D01*
X314111664Y-90925700D01*
X314204850Y-90832514D01*
X314270742Y-90718386D01*
X314304850Y-90591092D01*
X314304850Y-83525550D01*
X314674246Y-83525550D01*
X314694628Y-83784540D01*
X314755277Y-84037160D01*
X314854693Y-84277173D01*
X314854695Y-84277177D01*
X314854696Y-84277178D01*
X314990438Y-84498690D01*
X315159161Y-84696239D01*
X315356710Y-84864962D01*
X315578222Y-85000704D01*
X315578224Y-85000704D01*
X315578226Y-85000706D01*
X315639543Y-85026104D01*
X315818240Y-85100123D01*
X316070856Y-85160771D01*
X316329850Y-85181154D01*
X316588844Y-85160771D01*
X316841460Y-85100123D01*
X317081478Y-85000704D01*
X317302990Y-84864962D01*
X317500539Y-84696239D01*
X317669262Y-84498690D01*
X317805004Y-84277178D01*
X317904423Y-84037160D01*
X317965071Y-83784544D01*
X317985454Y-83525550D01*
X317965071Y-83266556D01*
X317904423Y-83013940D01*
X317805004Y-82773922D01*
X317669262Y-82552410D01*
X317500539Y-82354861D01*
X317302990Y-82186138D01*
X317081478Y-82050396D01*
X317081477Y-82050395D01*
X317081473Y-82050393D01*
X316915477Y-81981636D01*
X316841460Y-81950977D01*
X316841461Y-81950977D01*
X316703771Y-81917920D01*
X316588844Y-81890329D01*
X316588842Y-81890328D01*
X316588841Y-81890328D01*
X316329850Y-81869946D01*
X316070859Y-81890328D01*
X315818239Y-81950977D01*
X315578226Y-82050393D01*
X315356709Y-82186138D01*
X315159161Y-82354861D01*
X314990438Y-82552409D01*
X314854693Y-82773926D01*
X314755277Y-83013939D01*
X314694628Y-83266559D01*
X314674246Y-83525550D01*
X314304850Y-83525550D01*
X314304850Y-76460008D01*
X318354850Y-76460008D01*
X318354850Y-90591091D01*
X318388958Y-90718387D01*
X318421904Y-90775450D01*
X318454850Y-90832514D01*
X318548036Y-90925700D01*
X318662164Y-90991592D01*
X318789458Y-91025700D01*
X318789460Y-91025700D01*
X332920240Y-91025700D01*
X332920242Y-91025700D01*
X333047536Y-90991592D01*
X333161664Y-90925700D01*
X333254850Y-90832514D01*
X333320742Y-90718386D01*
X333354850Y-90591092D01*
X333354850Y-76460008D01*
X333320742Y-76332714D01*
X333254850Y-76218586D01*
X333161664Y-76125400D01*
X333104600Y-76092454D01*
X333047537Y-76059508D01*
X332983889Y-76042454D01*
X332920242Y-76025400D01*
X318921242Y-76025400D01*
X318789458Y-76025400D01*
X318662162Y-76059508D01*
X318548036Y-76125400D01*
X318548033Y-76125402D01*
X318454852Y-76218583D01*
X318454850Y-76218586D01*
X318388958Y-76332712D01*
X318354850Y-76460008D01*
X314304850Y-76460008D01*
X314270742Y-76332714D01*
X314204850Y-76218586D01*
X314111664Y-76125400D01*
X314054600Y-76092454D01*
X313997537Y-76059508D01*
X313933889Y-76042454D01*
X313870242Y-76025400D01*
X299870942Y-76025400D01*
X299739158Y-76025400D01*
X299611862Y-76059508D01*
X299497736Y-76125400D01*
X299497733Y-76125402D01*
X299404552Y-76218583D01*
X299404550Y-76218586D01*
X299338658Y-76332712D01*
X299304550Y-76460008D01*
X295254850Y-76460008D01*
X295220742Y-76332714D01*
X295154850Y-76218586D01*
X295061664Y-76125400D01*
X295004600Y-76092454D01*
X294947537Y-76059508D01*
X294883889Y-76042454D01*
X294820242Y-76025400D01*
X280820942Y-76025400D01*
X280689158Y-76025400D01*
X280561862Y-76059508D01*
X280447736Y-76125400D01*
X280447733Y-76125402D01*
X280354552Y-76218583D01*
X280354550Y-76218586D01*
X280288658Y-76332712D01*
X280254550Y-76460008D01*
X276204850Y-76460008D01*
X276170742Y-76332714D01*
X276104850Y-76218586D01*
X276011664Y-76125400D01*
X275954600Y-76092454D01*
X275897537Y-76059508D01*
X275833889Y-76042454D01*
X275770242Y-76025400D01*
X261770942Y-76025400D01*
X261639158Y-76025400D01*
X261511862Y-76059508D01*
X261397736Y-76125400D01*
X261397733Y-76125402D01*
X261304552Y-76218583D01*
X261304550Y-76218586D01*
X261238658Y-76332712D01*
X261204550Y-76460008D01*
X257154850Y-76460008D01*
X257120742Y-76332714D01*
X257054850Y-76218586D01*
X256961664Y-76125400D01*
X256904600Y-76092454D01*
X256847537Y-76059508D01*
X256783889Y-76042454D01*
X256720242Y-76025400D01*
X242720942Y-76025400D01*
X242589158Y-76025400D01*
X242461862Y-76059508D01*
X242347736Y-76125400D01*
X242347733Y-76125402D01*
X242254552Y-76218583D01*
X242254550Y-76218586D01*
X242188658Y-76332712D01*
X242154550Y-76460008D01*
X233342550Y-76460008D01*
X233308442Y-76332714D01*
X233242550Y-76218586D01*
X233149364Y-76125400D01*
X233092300Y-76092454D01*
X233035237Y-76059508D01*
X232971589Y-76042454D01*
X232907942Y-76025400D01*
X218908402Y-76025400D01*
X218776618Y-76025400D01*
X218649322Y-76059508D01*
X218535196Y-76125400D01*
X218535193Y-76125402D01*
X218442012Y-76218583D01*
X218442010Y-76218586D01*
X218376118Y-76332712D01*
X218342010Y-76460008D01*
X211880500Y-76460008D01*
X211880500Y-57410108D01*
X213579500Y-57410108D01*
X213579500Y-71541091D01*
X213613608Y-71668387D01*
X213646554Y-71725450D01*
X213679500Y-71782514D01*
X213772686Y-71875700D01*
X213865870Y-71929500D01*
X213886467Y-71941392D01*
X213886814Y-71941592D01*
X214014108Y-71975700D01*
X214014110Y-71975700D01*
X228145440Y-71975700D01*
X228145442Y-71975700D01*
X228272736Y-71941592D01*
X228386864Y-71875700D01*
X228480050Y-71782514D01*
X228545942Y-71668386D01*
X228580050Y-71541092D01*
X228580050Y-57410108D01*
X232629550Y-57410108D01*
X232629550Y-71541091D01*
X232663658Y-71668387D01*
X232696604Y-71725450D01*
X232729550Y-71782514D01*
X232822736Y-71875700D01*
X232915920Y-71929500D01*
X232936517Y-71941392D01*
X232936864Y-71941592D01*
X233064158Y-71975700D01*
X233064160Y-71975700D01*
X247195240Y-71975700D01*
X247195242Y-71975700D01*
X247322536Y-71941592D01*
X247436664Y-71875700D01*
X247529850Y-71782514D01*
X247595742Y-71668386D01*
X247629850Y-71541092D01*
X247629850Y-64475600D01*
X247999096Y-64475600D01*
X248019478Y-64734590D01*
X248080127Y-64987210D01*
X248179543Y-65227223D01*
X248179545Y-65227227D01*
X248179546Y-65227228D01*
X248315288Y-65448740D01*
X248484011Y-65646289D01*
X248681560Y-65815012D01*
X248903072Y-65950754D01*
X248903074Y-65950754D01*
X248903076Y-65950756D01*
X248964393Y-65976154D01*
X249143090Y-66050173D01*
X249395706Y-66110821D01*
X249654700Y-66131204D01*
X249913694Y-66110821D01*
X250166310Y-66050173D01*
X250406328Y-65950754D01*
X250627840Y-65815012D01*
X250825389Y-65646289D01*
X250994112Y-65448740D01*
X251129854Y-65227228D01*
X251229273Y-64987210D01*
X251289921Y-64734594D01*
X251310304Y-64475600D01*
X251289921Y-64216606D01*
X251229273Y-63963990D01*
X251129854Y-63723972D01*
X250994112Y-63502460D01*
X250825389Y-63304911D01*
X250627840Y-63136188D01*
X250406328Y-63000446D01*
X250406327Y-63000445D01*
X250406323Y-63000443D01*
X250240327Y-62931686D01*
X250166310Y-62901027D01*
X250166311Y-62901027D01*
X250028621Y-62867970D01*
X249913694Y-62840379D01*
X249913692Y-62840378D01*
X249913691Y-62840378D01*
X249654700Y-62819996D01*
X249395709Y-62840378D01*
X249143089Y-62901027D01*
X248903076Y-63000443D01*
X248681559Y-63136188D01*
X248484011Y-63304911D01*
X248315288Y-63502459D01*
X248179543Y-63723976D01*
X248080127Y-63963989D01*
X248019478Y-64216609D01*
X247999096Y-64475600D01*
X247629850Y-64475600D01*
X247629850Y-57410108D01*
X251679550Y-57410108D01*
X251679550Y-71541091D01*
X251713658Y-71668387D01*
X251746604Y-71725450D01*
X251779550Y-71782514D01*
X251872736Y-71875700D01*
X251965920Y-71929500D01*
X251986517Y-71941392D01*
X251986864Y-71941592D01*
X252114158Y-71975700D01*
X252114160Y-71975700D01*
X266245240Y-71975700D01*
X266245242Y-71975700D01*
X266372536Y-71941592D01*
X266486664Y-71875700D01*
X266579850Y-71782514D01*
X266645742Y-71668386D01*
X266679850Y-71541092D01*
X266679850Y-57410108D01*
X270729550Y-57410108D01*
X270729550Y-71541091D01*
X270763658Y-71668387D01*
X270796604Y-71725450D01*
X270829550Y-71782514D01*
X270922736Y-71875700D01*
X271015920Y-71929500D01*
X271036517Y-71941392D01*
X271036864Y-71941592D01*
X271164158Y-71975700D01*
X271164160Y-71975700D01*
X285295240Y-71975700D01*
X285295242Y-71975700D01*
X285422536Y-71941592D01*
X285536664Y-71875700D01*
X285629850Y-71782514D01*
X285695742Y-71668386D01*
X285729850Y-71541092D01*
X285729850Y-57410108D01*
X289779550Y-57410108D01*
X289779550Y-71541091D01*
X289813658Y-71668387D01*
X289846604Y-71725450D01*
X289879550Y-71782514D01*
X289972736Y-71875700D01*
X290065920Y-71929500D01*
X290086517Y-71941392D01*
X290086864Y-71941592D01*
X290214158Y-71975700D01*
X290214160Y-71975700D01*
X304345240Y-71975700D01*
X304345242Y-71975700D01*
X304472536Y-71941592D01*
X304586664Y-71875700D01*
X304679850Y-71782514D01*
X304745742Y-71668386D01*
X304779850Y-71541092D01*
X304779850Y-64475600D01*
X305148396Y-64475600D01*
X305168778Y-64734590D01*
X305229427Y-64987210D01*
X305328843Y-65227223D01*
X305328845Y-65227227D01*
X305328846Y-65227228D01*
X305464588Y-65448740D01*
X305633311Y-65646289D01*
X305830860Y-65815012D01*
X306052372Y-65950754D01*
X306052374Y-65950754D01*
X306052376Y-65950756D01*
X306113693Y-65976154D01*
X306292390Y-66050173D01*
X306545006Y-66110821D01*
X306804000Y-66131204D01*
X307062994Y-66110821D01*
X307315610Y-66050173D01*
X307555628Y-65950754D01*
X307777140Y-65815012D01*
X307974689Y-65646289D01*
X308143412Y-65448740D01*
X308279154Y-65227228D01*
X308378573Y-64987210D01*
X308439221Y-64734594D01*
X308459604Y-64475600D01*
X308439221Y-64216606D01*
X308378573Y-63963990D01*
X308279154Y-63723972D01*
X308143412Y-63502460D01*
X307974689Y-63304911D01*
X307777140Y-63136188D01*
X307555628Y-63000446D01*
X307555627Y-63000445D01*
X307555623Y-63000443D01*
X307389627Y-62931686D01*
X307315610Y-62901027D01*
X307315611Y-62901027D01*
X307177921Y-62867970D01*
X307062994Y-62840379D01*
X307062992Y-62840378D01*
X307062991Y-62840378D01*
X306804000Y-62819996D01*
X306545009Y-62840378D01*
X306292389Y-62901027D01*
X306052376Y-63000443D01*
X305830859Y-63136188D01*
X305633311Y-63304911D01*
X305464588Y-63502459D01*
X305328843Y-63723976D01*
X305229427Y-63963989D01*
X305168778Y-64216609D01*
X305148396Y-64475600D01*
X304779850Y-64475600D01*
X304779850Y-57410108D01*
X308828150Y-57410108D01*
X308828150Y-71541091D01*
X308862258Y-71668387D01*
X308895204Y-71725450D01*
X308928150Y-71782514D01*
X309021336Y-71875700D01*
X309114520Y-71929500D01*
X309135117Y-71941392D01*
X309135464Y-71941592D01*
X309262758Y-71975700D01*
X309262760Y-71975700D01*
X323395240Y-71975700D01*
X323395242Y-71975700D01*
X323522536Y-71941592D01*
X323636664Y-71875700D01*
X323729850Y-71782514D01*
X323795742Y-71668386D01*
X323829850Y-71541092D01*
X323829850Y-57410108D01*
X327877850Y-57410108D01*
X327877850Y-71541091D01*
X327911958Y-71668387D01*
X327944904Y-71725450D01*
X327977850Y-71782514D01*
X328071036Y-71875700D01*
X328164220Y-71929500D01*
X328184817Y-71941392D01*
X328185164Y-71941592D01*
X328312458Y-71975700D01*
X328312460Y-71975700D01*
X342445240Y-71975700D01*
X342445242Y-71975700D01*
X342572536Y-71941592D01*
X342686664Y-71875700D01*
X342779850Y-71782514D01*
X342845742Y-71668386D01*
X342879850Y-71541092D01*
X342879850Y-57410108D01*
X342845742Y-57282814D01*
X342779850Y-57168686D01*
X342686664Y-57075500D01*
X342629600Y-57042554D01*
X342572537Y-57009608D01*
X342508889Y-56992554D01*
X342445242Y-56975500D01*
X328444242Y-56975500D01*
X328312458Y-56975500D01*
X328185162Y-57009608D01*
X328071036Y-57075500D01*
X328071033Y-57075502D01*
X327977852Y-57168683D01*
X327977850Y-57168686D01*
X327911958Y-57282812D01*
X327877850Y-57410108D01*
X323829850Y-57410108D01*
X323795742Y-57282814D01*
X323729850Y-57168686D01*
X323636664Y-57075500D01*
X323579600Y-57042554D01*
X323522537Y-57009608D01*
X323458889Y-56992554D01*
X323395242Y-56975500D01*
X309394542Y-56975500D01*
X309262758Y-56975500D01*
X309135462Y-57009608D01*
X309021336Y-57075500D01*
X309021333Y-57075502D01*
X308928152Y-57168683D01*
X308928150Y-57168686D01*
X308862258Y-57282812D01*
X308828150Y-57410108D01*
X304779850Y-57410108D01*
X304745742Y-57282814D01*
X304679850Y-57168686D01*
X304586664Y-57075500D01*
X304529600Y-57042554D01*
X304472537Y-57009608D01*
X304408889Y-56992554D01*
X304345242Y-56975500D01*
X290345942Y-56975500D01*
X290214158Y-56975500D01*
X290086862Y-57009608D01*
X289972736Y-57075500D01*
X289972733Y-57075502D01*
X289879552Y-57168683D01*
X289879550Y-57168686D01*
X289813658Y-57282812D01*
X289779550Y-57410108D01*
X285729850Y-57410108D01*
X285695742Y-57282814D01*
X285629850Y-57168686D01*
X285536664Y-57075500D01*
X285479600Y-57042554D01*
X285422537Y-57009608D01*
X285358889Y-56992554D01*
X285295242Y-56975500D01*
X271295942Y-56975500D01*
X271164158Y-56975500D01*
X271036862Y-57009608D01*
X270922736Y-57075500D01*
X270922733Y-57075502D01*
X270829552Y-57168683D01*
X270829550Y-57168686D01*
X270763658Y-57282812D01*
X270729550Y-57410108D01*
X266679850Y-57410108D01*
X266645742Y-57282814D01*
X266579850Y-57168686D01*
X266486664Y-57075500D01*
X266429600Y-57042554D01*
X266372537Y-57009608D01*
X266308889Y-56992554D01*
X266245242Y-56975500D01*
X252245942Y-56975500D01*
X252114158Y-56975500D01*
X251986862Y-57009608D01*
X251872736Y-57075500D01*
X251872733Y-57075502D01*
X251779552Y-57168683D01*
X251779550Y-57168686D01*
X251713658Y-57282812D01*
X251679550Y-57410108D01*
X247629850Y-57410108D01*
X247595742Y-57282814D01*
X247529850Y-57168686D01*
X247436664Y-57075500D01*
X247379600Y-57042554D01*
X247322537Y-57009608D01*
X247258889Y-56992554D01*
X247195242Y-56975500D01*
X233195942Y-56975500D01*
X233064158Y-56975500D01*
X232936862Y-57009608D01*
X232822736Y-57075500D01*
X232822733Y-57075502D01*
X232729552Y-57168683D01*
X232729550Y-57168686D01*
X232663658Y-57282812D01*
X232629550Y-57410108D01*
X228580050Y-57410108D01*
X228545942Y-57282814D01*
X228480050Y-57168686D01*
X228386864Y-57075500D01*
X228329800Y-57042554D01*
X228272737Y-57009608D01*
X228209089Y-56992554D01*
X228145442Y-56975500D01*
X214145892Y-56975500D01*
X214014108Y-56975500D01*
X213886812Y-57009608D01*
X213772686Y-57075500D01*
X213772683Y-57075502D01*
X213679502Y-57168683D01*
X213679500Y-57168686D01*
X213613608Y-57282812D01*
X213579500Y-57410108D01*
X211880500Y-57410108D01*
X211880500Y-55574500D01*
X211900185Y-55507461D01*
X211952989Y-55461706D01*
X212004500Y-55450500D01*
X345754850Y-55450500D01*
X345821889Y-55470185D01*
G37*
%TD.AperFunction*%
M02*
