0
SECTION
2
HEADER
9
$INSUNITS
70
4
9
$ACADVER
1
AC1014
9
$HANDSEED
5
FFFF
0
ENDSEC
0
SECTION
2
TABLES
0
TABLE
2
VPORT
5
8
100
AcDbSymbolTable
0
ENDTAB
0
TABLE
2
LTYPE
5
5
100
AcDbSymbolTable
0
LTYPE
5
14
100
AcDbSymbolTableRecord
100
AcDbLinetypeTableRecord
2
BYBLOCK
70
0
0
LTYPE
5
15
100
AcDbSymbolTableRecord
100
AcDbLinetypeTableRecord
2
BYLAYER
70
0
0
LTYPE
5
16
100
AcDbSymbolTableRecord
100
AcDbLinetypeTableRecord
2
DASHED
70
0
3
Dashed __ __ __ __ __ __ __ __ __ __ __ __ __ _
72
65
73
2
40
0.75
49
0.5
74
0
49
-0.25
74
0
0
ENDTAB
0
TABLE
2
LAYER
5
2
100
AcDbSymbolTable
70
2
0
LAYER
5
50
100
AcDbSymbolTableRecord
100
AcDbLayerTableRecord
2
0
70
0
62
7
6
CONTINUOUS
0
ENDTAB
0
TABLE
2
STYLE
5
3
100
AcDbSymbolTable
70
1
0
STYLE
5
11
100
AcDbSymbolTableRecord
100
AcDbTextStyleTableRecord
2
STANDARD
70
0
0
ENDTAB
0
TABLE
2
VIEW
5
6
100
AcDbSymbolTable
70
0
0
ENDTAB
0
TABLE
2
UCS
5
7
100
AcDbSymbolTable
70
0
0
ENDTAB
0
TABLE
2
APPID
5
9
100
AcDbSymbolTable
70
2
0
APPID
5
12
100
AcDbSymbolTableRecord
100
AcDbRegAppTableRecord
2
ACAD
70
0
0
ENDTAB
0
TABLE
2
DIMSTYLE
5
A
100
AcDbSymbolTable
70
1
0
ENDTAB
0
TABLE
2
BLOCK_RECORD
5
1
100
AcDbSymbolTable
70
1
0
BLOCK_RECORD
5
1F
100
AcDbSymbolTableRecord
100
AcDbBlockTableRecord
2
*MODEL_SPACE
0
BLOCK_RECORD
5
1B
100
AcDbSymbolTableRecord
100
AcDbBlockTableRecord
2
*PAPER_SPACE
0
ENDTAB
0
ENDSEC
0
SECTION
2
BLOCKS
0
BLOCK
5
20
100
AcDbEntity
100
AcDbBlockBegin
2
*MODEL_SPACE
0
ENDBLK
5
21
100
AcDbEntity
100
AcDbBlockEnd
0
BLOCK
5
1C
100
AcDbEntity
100
AcDbBlockBegin
2
*PAPER_SPACE
0
ENDBLK
5
1D
100
AcDbEntity
100
AcDbBlockEnd
0
ENDSEC
0
SECTION
2
ENTITIES
0
LWPOLYLINE
5
100
100
AcDbEntity
8
0
100
AcDbPolyline
90
4
70
1
43
0.0
10
-321.4190000000001
20
-59.933800000000005
10
-307.42000000000007
20
-59.933800000000005
10
-307.42000000000007
20
-73.933099999999996
10
-321.4190000000001
20
-73.933099999999996
0
LWPOLYLINE
5
101
100
AcDbEntity
8
0
100
AcDbPolyline
90
4
70
1
43
0.0
10
-307.13200000000001
20
-98.033800000000014
10
-293.13200000000001
20
-98.033800000000014
10
-293.13200000000001
20
-112.03299999999999
10
-307.13200000000001
20
-112.03299999999999
0
LWPOLYLINE
5
102
100
AcDbEntity
8
0
100
AcDbPolyline
90
4
70
1
43
0.0
10
-297.60700000000003
20
-78.983800000000002
10
-283.60700000000003
20
-78.983800000000002
10
-283.60700000000003
20
-92.983099999999993
10
-297.60700000000003
20
-92.983099999999993
0
LWPOLYLINE
5
103
100
AcDbEntity
8
0
100
AcDbPolyline
90
4
70
1
43
0.0
10
-326.18200000000002
20
-98.033800000000014
10
-312.18200000000002
20
-98.033800000000014
10
-312.18200000000002
20
-112.03299999999999
10
-326.18200000000002
20
-112.03299999999999
0
LWPOLYLINE
5
104
100
AcDbEntity
8
0
100
AcDbPolyline
90
4
70
1
43
0.0
10
-292.84399999999999
20
-40.883800000000001
10
-278.84500000000003
20
-40.883800000000001
10
-278.84500000000003
20
-54.883099999999999
10
-292.84399999999999
20
-54.883099999999999
0
LWPOLYLINE
5
105
100
AcDbEntity
8
0
100
AcDbPolyline
90
4
70
1
43
0.0
10
-311.89400000000001
20
-40.883800000000001
10
-297.89499999999998
20
-40.883800000000001
10
-297.89499999999998
20
-54.883099999999999
10
-311.89400000000001
20
-54.883099999999999
0
LWPOLYLINE
5
106
100
AcDbEntity
8
0
100
AcDbPolyline
90
4
70
1
43
0.0
10
-338.08800000000008
20
-21.833600000000001
10
-324.08700000000005
20
-21.833600000000001
10
-324.08700000000005
20
-35.834499999999998
10
-338.08800000000008
20
-35.834499999999998
0
LWPOLYLINE
5
107
100
AcDbEntity
8
0
100
AcDbPolyline
90
4
70
1
43
0.0
10
-254.74400000000003
20
-40.883800000000001
10
-240.745
20
-40.883800000000001
10
-240.745
20
-54.883099999999999
10
-254.74400000000003
20
-54.883099999999999
0
LWPOLYLINE
5
108
100
AcDbEntity
8
0
100
AcDbPolyline
90
4
70
1
43
0.0
10
-235.69400000000002
20
-40.883800000000001
10
-221.69499999999999
20
-40.883800000000001
10
-221.69499999999999
20
-54.883099999999999
10
-235.69400000000002
20
-54.883099999999999
0
LWPOLYLINE
5
109
100
AcDbEntity
8
0
100
AcDbPolyline
90
4
70
1
43
0.0
10
-273.79400000000004
20
-40.883800000000001
10
-259.79500000000002
20
-40.883800000000001
10
-259.79500000000002
20
-54.883099999999999
10
-273.79400000000004
20
-54.883099999999999
0
LWPOLYLINE
5
110
100
AcDbEntity
8
0
100
AcDbPolyline
90
4
70
1
43
0.0
10
-226.16900000000001
20
-59.933800000000005
10
-212.16999999999999
20
-59.933800000000005
10
-212.16999999999999
20
-73.933099999999996
10
-226.16900000000001
20
-73.933099999999996
0
LWPOLYLINE
5
111
100
AcDbEntity
8
0
100
AcDbPolyline
90
4
70
1
43
0.0
10
-221.40700000000004
20
-78.983800000000002
10
-207.40700000000004
20
-78.983800000000002
10
-207.40700000000004
20
-92.983099999999993
10
-221.40700000000004
20
-92.983099999999993
0
LWPOLYLINE
5
112
100
AcDbEntity
8
0
100
AcDbPolyline
90
4
70
1
43
0.0
10
-245.21900000000002
20
-59.933800000000005
10
-231.22
20
-59.933800000000005
10
-231.22
20
-73.933099999999996
10
-245.21900000000002
20
-73.933099999999996
0
LWPOLYLINE
5
113
100
AcDbEntity
8
0
100
AcDbPolyline
90
4
70
1
43
0.0
10
-264.26900000000001
20
-59.933800000000005
10
-250.27000000000001
20
-59.933800000000005
10
-250.27000000000001
20
-73.933099999999996
10
-264.26900000000001
20
-73.933099999999996
0
LWPOLYLINE
5
114
100
AcDbEntity
8
0
100
AcDbPolyline
90
4
70
1
43
0.0
10
-290.46299999999997
20
-21.833600000000001
10
-276.46199999999999
20
-21.833600000000001
10
-276.46199999999999
20
-35.834499999999998
10
-290.46299999999997
20
-35.834499999999998
0
LWPOLYLINE
5
115
100
AcDbEntity
8
0
100
AcDbPolyline
90
4
70
1
43
0.0
10
-264.26900000000001
20
-21.833600000000001
10
-250.27000000000001
20
-21.833600000000001
10
-250.27000000000001
20
-35.834499999999998
10
-264.26900000000001
20
-35.834499999999998
0
LWPOLYLINE
5
116
100
AcDbEntity
8
0
100
AcDbPolyline
90
4
70
1
43
0.0
10
-302.36900000000003
20
-59.933800000000005
10
-288.37
20
-59.933800000000005
10
-288.37
20
-73.933099999999996
10
-302.36900000000003
20
-73.933099999999996
0
LWPOLYLINE
5
117
100
AcDbEntity
8
0
100
AcDbPolyline
90
4
70
1
43
0.0
10
-314.27499999999998
20
-21.833600000000001
10
-300.27600000000001
20
-21.833600000000001
10
-300.27600000000001
20
-35.834499999999998
10
-314.27499999999998
20
-35.834499999999998
0
LWPOLYLINE
5
118
100
AcDbEntity
8
0
100
AcDbPolyline
90
36
70
1
43
0.0
10
-333.61199999999997
20
-54.883099999999999
10
-347.61300000000006
20
-54.883099999999999
10
-347.61300000000006
20
-50.182600000000008
10
-349.137
20
-50.182600000000008
10
-349.137
20
-53.412700000000008
10
-355.88900000000001
20
-53.412700000000008
10
-355.88900000000001
20
-50.182600000000008
10
-356.71100000000001
20
-50.182600000000008
10
-356.71100000000001
20
-47.383699999999997
10
-355.88900000000001
20
-47.383699999999997
10
-355.88900000000001
20
-41.113799999999998
10
-354.16400000000004
20
-41.113799999999998
10
-354.16400000000004
20
-39.913600000000002
10
-350.86199999999997
20
-39.913600000000002
10
-350.86199999999997
20
-41.113799999999998
10
-349.137
20
-41.113799999999998
10
-349.137
20
-45.58420000000001
10
-347.61300000000006
20
-45.58420000000001
10
-347.61300000000006
20
-40.883800000000001
10
-333.61199999999997
20
-40.883800000000001
10
-333.61199999999997
20
-45.58420000000001
10
-332.08800000000002
20
-45.58420000000001
10
-332.08800000000002
20
-41.113799999999998
10
-330.36300000000006
20
-41.113799999999998
10
-330.36300000000006
20
-39.913600000000002
10
-327.06200000000001
20
-39.913600000000002
10
-327.06200000000001
20
-41.113799999999998
10
-325.33700000000005
20
-41.113799999999998
10
-325.33700000000005
20
-47.383699999999997
10
-324.51299999999998
20
-47.383699999999997
10
-324.51299999999998
20
-50.182600000000008
10
-325.33700000000005
20
-50.182600000000008
10
-325.33700000000005
20
-53.412700000000008
10
-332.08800000000002
20
-53.412700000000008
10
-332.08800000000002
20
-50.182600000000008
10
-333.61199999999997
20
-50.182600000000008
0
LWPOLYLINE
5
119
100
AcDbEntity
8
0
100
AcDbPolyline
90
4
70
1
43
0.0
10
-240.45699999999999
20
-78.983800000000002
10
-226.45700000000002
20
-78.983800000000002
10
-226.45700000000002
20
-92.983099999999993
10
-240.45699999999999
20
-92.983099999999993
0
LWPOLYLINE
5
120
100
AcDbEntity
8
0
100
AcDbPolyline
90
4
70
1
43
0.0
10
-359.51900000000001
20
-78.983800000000002
10
-345.51999999999998
20
-78.983800000000002
10
-345.51999999999998
20
-92.983099999999993
10
-359.51900000000001
20
-92.983099999999993
0
CIRCLE
5
121
100
AcDbEntity
8
0
100
AcDbCircle
10
-309.65700000000004
20
-105.0334
30
0
40
1.1499999999999844
210
0
220
-0
230
1
0
CIRCLE
5
122
100
AcDbEntity
8
0
100
AcDbCircle
10
-340.61350000000004
20
-85.983450000000005
30
0
40
1.1500000000000199
210
0
220
-0
230
1
0
CIRCLE
5
123
100
AcDbEntity
8
0
100
AcDbCircle
10
-241.79149999999998
20
-24.834049999999998
30
0
40
1.1499999999999844
210
0
220
-0
230
1
0
CIRCLE
5
124
100
AcDbEntity
8
0
100
AcDbCircle
10
-255.38200000000012
20
-10.834050000000037
30
0
40
1.1500000000000199
210
0
220
-0
230
1
0
LWPOLYLINE
5
125
100
AcDbEntity
8
0
100
AcDbPolyline
90
4
70
1
43
0.0
10
-249.982
20
-98.033800000000014
10
-235.98200000000003
20
-98.033800000000014
10
-235.98200000000003
20
-112.03299999999999
10
-249.982
20
-112.03299999999999
0
LWPOLYLINE
5
126
100
AcDbEntity
8
0
100
AcDbPolyline
90
4
70
1
43
0.0
10
-335.70699999999999
20
-78.983800000000002
10
-321.70700000000005
20
-78.983800000000002
10
-321.70700000000005
20
-92.983099999999993
10
-335.70699999999999
20
-92.983099999999993
0
CIRCLE
5
127
100
AcDbEntity
8
0
100
AcDbCircle
10
-252.50700000000001
20
-105.0334
30
0
40
1.1499999999999844
210
0
220
-0
230
1
0
CIRCLE
5
128
100
AcDbEntity
8
0
100
AcDbCircle
10
-342.99450000000007
20
-28.834049999999998
30
0
40
1.1500000000000199
210
0
220
-0
230
1
0
CIRCLE
5
129
100
AcDbEntity
8
0
100
AcDbCircle
10
-241.79149999999998
20
-31.834049999999998
30
0
40
1.1499999999999844
210
0
220
-0
230
1
0
CIRCLE
5
130
100
AcDbEntity
8
0
100
AcDbCircle
10
-319.18100000000004
20
-28.834049999999998
30
0
40
1.1500000000000199
210
0
220
-0
230
1
0
CIRCLE
5
131
100
AcDbEntity
8
0
100
AcDbCircle
10
-247.74450000000002
20
-66.933449999999993
30
0
40
1.1499999999999844
210
0
220
-0
230
1
0
CIRCLE
5
132
100
AcDbEntity
8
0
100
AcDbCircle
10
-324.91950000000003
20
-66.933449999999993
30
0
40
1.1500000000000199
210
0
220
-0
230
1
0
LWPOLYLINE
5
133
100
AcDbEntity
8
0
100
AcDbPolyline
90
4
70
1
43
0.0
10
-288.08199999999999
20
-98.033800000000014
10
-274.08199999999999
20
-98.033800000000014
10
-274.08199999999999
20
-112.03299999999999
10
-288.08199999999999
20
-112.03299999999999
0
LWPOLYLINE
5
134
100
AcDbEntity
8
0
100
AcDbPolyline
90
36
70
1
43
0.0
10
-340.75699999999995
20
-112.03299999999999
10
-354.75699999999995
20
-112.03299999999999
10
-354.75699999999995
20
-107.333
10
-356.28100000000006
20
-107.333
10
-356.28100000000006
20
-110.563
10
-363.03300000000002
20
-110.563
10
-363.03300000000002
20
-107.333
10
-363.85500000000002
20
-107.333
10
-363.85500000000002
20
-104.53400000000001
10
-363.03300000000002
20
-104.53400000000001
10
-363.03300000000002
20
-98.263800000000003
10
-361.30800000000011
20
-98.263800000000003
10
-361.30800000000011
20
-97.063600000000008
10
-358.00599999999997
20
-97.063600000000008
10
-358.00599999999997
20
-98.263800000000003
10
-356.28100000000006
20
-98.263800000000003
10
-356.28100000000006
20
-102.73299999999999
10
-354.75699999999995
20
-102.73299999999999
10
-354.75699999999995
20
-98.033800000000014
10
-340.75699999999995
20
-98.033800000000014
10
-340.75699999999995
20
-102.73299999999999
10
-339.23200000000003
20
-102.73299999999999
10
-339.23200000000003
20
-98.263800000000003
10
-337.50599999999997
20
-98.263800000000003
10
-337.50599999999997
20
-97.063600000000008
10
-334.20600000000002
20
-97.063600000000008
10
-334.20600000000002
20
-98.263800000000003
10
-332.48199999999997
20
-98.263800000000003
10
-332.48199999999997
20
-104.53400000000001
10
-331.65700000000004
20
-104.53400000000001
10
-331.65700000000004
20
-107.333
10
-332.48199999999997
20
-107.333
10
-332.48199999999997
20
-110.563
10
-339.23200000000003
20
-110.563
10
-339.23200000000003
20
-107.333
10
-340.75699999999995
20
-107.333
0
LWPOLYLINE
5
135
100
AcDbEntity
8
0
100
AcDbPolyline
90
4
70
1
43
0.0
10
-361.90100000000001
20
-21.833600000000001
10
-347.90100000000001
20
-21.833600000000001
10
-347.90100000000001
20
-35.834499999999998
10
-361.90100000000001
20
-35.834499999999998
0
LWPOLYLINE
5
136
100
AcDbEntity
8
0
100
AcDbPolyline
90
4
70
1
43
0.0
10
-230.93200000000002
20
-98.033800000000014
10
-216.93200000000004
20
-98.033800000000014
10
-216.93200000000004
20
-112.03299999999999
10
-230.93200000000002
20
-112.03299999999999
0
LWPOLYLINE
5
137
100
AcDbEntity
8
0
100
AcDbPolyline
90
4
70
1
43
0.0
10
-233.31299999999999
20
-21.833600000000001
10
-219.31200000000004
20
-21.833600000000001
10
-219.31200000000004
20
-35.834499999999998
10
-233.31299999999999
20
-35.834499999999998
0
LWPOLYLINE
5
138
100
AcDbEntity
8
0
100
AcDbPolyline
90
4
70
1
43
0.0
10
-269.03199999999998
20
-98.033800000000014
10
-255.03200000000004
20
-98.033800000000014
10
-255.03200000000004
20
-112.03299999999999
10
-269.03199999999998
20
-112.03299999999999
0
LWPOLYLINE
5
139
100
AcDbEntity
8
0
100
AcDbPolyline
90
4
70
1
43
0.0
10
-283.31900000000007
20
-59.933800000000005
10
-269.32000000000005
20
-59.933800000000005
10
-269.32000000000005
20
-73.933099999999996
10
-283.31900000000007
20
-73.933099999999996
0
LWPOLYLINE
5
140
100
AcDbEntity
8
0
100
AcDbPolyline
90
4
70
1
43
0.0
10
-316.65700000000004
20
-78.983800000000002
10
-302.65699999999998
20
-78.983800000000002
10
-302.65699999999998
20
-92.983099999999993
10
-316.65700000000004
20
-92.983099999999993
0
LWPOLYLINE
5
141
100
AcDbEntity
8
0
100
AcDbPolyline
90
4
70
1
43
0.0
10
-259.50700000000001
20
-78.983800000000002
10
-245.50700000000003
20
-78.983800000000002
10
-245.50700000000003
20
-92.983099999999993
10
-259.50700000000001
20
-92.983099999999993
0
LWPOLYLINE
5
142
100
AcDbEntity
8
0
100
AcDbPolyline
90
4
70
1
43
0.0
10
-278.55700000000002
20
-78.983800000000002
10
-264.55700000000002
20
-78.983800000000002
10
-264.55700000000002
20
-92.983099999999993
10
-278.55700000000002
20
-92.983099999999993
0
LWPOLYLINE
5
143
100
AcDbEntity
8
0
100
AcDbPolyline
90
36
70
1
43
0.0
10
-338.37600000000003
20
-73.933099999999996
10
-352.37500000000006
20
-73.933099999999996
10
-352.37500000000006
20
-69.232600000000005
10
-353.89999999999998
20
-69.232600000000005
10
-353.89999999999998
20
-72.462699999999998
10
-360.65199999999999
20
-72.462699999999998
10
-360.65199999999999
20
-69.232600000000005
10
-361.47699999999998
20
-69.232600000000005
10
-361.47699999999998
20
-66.433700000000016
10
-360.65199999999999
20
-66.433700000000016
10
-360.65199999999999
20
-60.163800000000009
10
-358.92699999999996
20
-60.163800000000009
10
-358.92699999999996
20
-58.963600000000007
10
-355.625
20
-58.963600000000007
10
-355.625
20
-60.163800000000009
10
-353.89999999999998
20
-60.163800000000009
10
-353.89999999999998
20
-64.632800000000003
10
-352.37500000000006
20
-64.632800000000003
10
-352.37500000000006
20
-59.933800000000005
10
-338.37600000000003
20
-59.933800000000005
10
-338.37600000000003
20
-64.632800000000003
10
-336.851
20
-64.632800000000003
10
-336.851
20
-60.163800000000009
10
-335.125
20
-60.163800000000009
10
-335.125
20
-58.963600000000007
10
-331.82600000000002
20
-58.963600000000007
10
-331.82600000000002
20
-60.163800000000009
10
-330.101
20
-60.163800000000009
10
-330.101
20
-66.433700000000016
10
-329.27500000000003
20
-66.433700000000016
10
-329.27500000000003
20
-69.232600000000005
10
-330.101
20
-69.232600000000005
10
-330.101
20
-72.462699999999998
10
-336.851
20
-72.462699999999998
10
-336.851
20
-69.232600000000005
10
-338.37600000000003
20
-69.232600000000005
0
LWPOLYLINE
5
144
100
AcDbEntity
8
0
100
AcDbPolyline
90
4
70
1
43
0.0
10
-250.38200000000012
20
-3.8340500000000866
10
-236.38200000000015
20
-3.8340500000000866
10
-236.38200000000015
20
-17.83405000000009
10
-250.38200000000012
20
-17.83405000000009
0
LWPOLYLINE
5
145
100
AcDbEntity
8
0
100
AcDbPolyline
90
4
70
1
43
0.0
10
-225.63200000000009
20
-3.8340500000000066
10
-211.63200000000003
20
-3.8340500000000066
10
-211.63200000000012
20
-17.834050000000055
10
-225.63200000000009
20
-17.834050000000055
0
LWPOLYLINE
5
146
100
AcDbEntity
8
0
100
AcDbPolyline
90
14
70
1
43
0.0
10
-207.63200000000006
20
-1.3340500000001132
10
-260.38200000000012
20
-1.3340500000000954
10
-260.38200000000012
20
-17.627934957827691
10
-366.95999999999998
20
-17.627934957827627
10
-366.96000000000004
20
-114.55734394030466
10
-212.93200000000007
20
-114.55734394030466
10
-212.93200000000007
20
-96.509099999999975
10
-203.40700000000004
20
-96.509099999999975
10
-203.40700000000004
20
-75.457800000000006
10
-208.17000000000002
20
-75.457800000000006
10
-208.17000000000002
20
-56.407800000000002
10
-217.69499999999999
20
-56.407800000000002
10
-217.69499999999999
20
-39.360500000000002
10
-207.63200000000006
20
-39.360500000000002
0
ENDSEC
0
SECTION
2
OBJECTS
0
DICTIONARY
5
C
100
AcDbDictionary
3
ACAD_GROUP
350
D
3
ACAD_MLINESTYLE
350
17
0
DICTIONARY
5
D
100
AcDbDictionary
0
DICTIONARY
5
1A
330
C
100
AcDbDictionary
0
DICTIONARY
5
17
100
AcDbDictionary
0
ENDSEC
0
EOF
