0
SECTION
2
HEADER
9
$INSUNITS
70
4
9
$ACADVER
1
AC1014
9
$HANDSEED
5
FFFF
0
ENDSEC
0
SECTION
2
TABLES
0
TABLE
2
VPORT
5
8
100
AcDbSymbolTable
0
ENDTAB
0
TABLE
2
LTYPE
5
5
100
AcDbSymbolTable
0
LTYPE
5
14
100
AcDbSymbolTableRecord
100
AcDbLinetypeTableRecord
2
BYBLOCK
70
0
0
LTYPE
5
15
100
AcDbSymbolTableRecord
100
AcDbLinetypeTableRecord
2
BYLAYER
70
0
0
LTYPE
5
16
100
AcDbSymbolTableRecord
100
AcDbLinetypeTableRecord
2
DASHED
70
0
3
Dashed __ __ __ __ __ __ __ __ __ __ __ __ __ _
72
65
73
2
40
0.75
49
0.5
74
0
49
-0.25
74
0
0
ENDTAB
0
TABLE
2
LAYER
5
2
100
AcDbSymbolTable
70
2
0
LAYER
5
50
100
AcDbSymbolTableRecord
100
AcDbLayerTableRecord
2
0
70
0
62
7
6
CONTINUOUS
0
ENDTAB
0
TABLE
2
STYLE
5
3
100
AcDbSymbolTable
70
1
0
STYLE
5
11
100
AcDbSymbolTableRecord
100
AcDbTextStyleTableRecord
2
STANDARD
70
0
0
ENDTAB
0
TABLE
2
VIEW
5
6
100
AcDbSymbolTable
70
0
0
ENDTAB
0
TABLE
2
UCS
5
7
100
AcDbSymbolTable
70
0
0
ENDTAB
0
TABLE
2
APPID
5
9
100
AcDbSymbolTable
70
2
0
APPID
5
12
100
AcDbSymbolTableRecord
100
AcDbRegAppTableRecord
2
ACAD
70
0
0
ENDTAB
0
TABLE
2
DIMSTYLE
5
A
100
AcDbSymbolTable
70
1
0
ENDTAB
0
TABLE
2
BLOCK_RECORD
5
1
100
AcDbSymbolTable
70
1
0
BLOCK_RECORD
5
1F
100
AcDbSymbolTableRecord
100
AcDbBlockTableRecord
2
*MODEL_SPACE
0
BLOCK_RECORD
5
1B
100
AcDbSymbolTableRecord
100
AcDbBlockTableRecord
2
*PAPER_SPACE
0
ENDTAB
0
ENDSEC
0
SECTION
2
BLOCKS
0
BLOCK
5
20
100
AcDbEntity
100
AcDbBlockBegin
2
*MODEL_SPACE
0
ENDBLK
5
21
100
AcDbEntity
100
AcDbBlockEnd
0
BLOCK
5
1C
100
AcDbEntity
100
AcDbBlockBegin
2
*PAPER_SPACE
0
ENDBLK
5
1D
100
AcDbEntity
100
AcDbBlockEnd
0
ENDSEC
0
SECTION
2
ENTITIES
0
LINE
5
100
100
AcDbEntity
8
0
100
AcDbLine
10
-112.83507213964026
20
-169.13080727164015
30
0
11
-88.281241629206718
21
-163.9565036159162
31
0
0
LINE
5
101
100
AcDbEntity
8
0
100
AcDbLine
10
-35.69364999999982
20
-28.458999999990372
30
0
11
-156.19364999999988
21
-28.458999999990382
31
0
0
ARC
5
102
100
AcDbEntity
8
0
100
AcDbCircle
10
-156.19364999999988
20
-30.458999999990375
30
0
40
1.9999999999999929
210
0
220
-0
230
1
100
AcDbArc
50
90
51
180
0
LINE
5
103
100
AcDbEntity
8
0
100
AcDbLine
10
-158.19364999999988
20
-30.458999999990372
30
0
11
-158.19364999999996
21
-50.855248048995406
31
0
0
LINE
5
104
100
AcDbEntity
8
0
100
AcDbLine
10
-159.76447039325041
20
-51.996515868549409
30
0
11
-194.98847590175555
21
-40.551542698601821
31
0
0
ARC
5
105
100
AcDbEntity
8
0
100
AcDbCircle
10
-195.60650989050632
20
-42.453655731191809
30
0
40
1.9999999999999718
210
0
220
-0
230
1
100
AcDbArc
50
71.999999999973411
51
150.00000000000662
0
LINE
5
106
100
AcDbEntity
8
0
100
AcDbLine
10
-197.3385606980753
20
-41.453655731192015
30
0
11
-205.77877666496917
21
-56.072538612709423
31
0
0
ARC
5
107
100
AcDbEntity
8
0
100
AcDbCircle
10
-204.04672585740028
20
-57.072538612709252
30
0
40
1.9999999999999363
210
0
220
0
230
1
100
AcDbArc
50
150.00000000000452
51
239.99999999480974
0
LINE
5
108
100
AcDbEntity
8
0
100
AcDbLine
10
-205.04672585755716
20
-58.804589420187519
30
0
11
-187.12000000000003
21
-69.154589421902671
31
0
0
LINE
5
109
100
AcDbEntity
8
0
100
AcDbLine
10
-187.12000000000003
20
-69.154589421902671
30
0
11
-187.1200000000002
21
-87.159100000001203
31
0
0
ARC
5
110
100
AcDbEntity
8
0
100
AcDbCircle
10
-185.12000000000026
20
-87.159100000001274
30
0
40
1.9999999999999574
210
0
220
0
230
1
100
AcDbArc
50
180
51
270.00000000000324
0
LINE
5
111
100
AcDbEntity
8
0
100
AcDbLine
10
-185.12000000000015
20
-89.159100000001231
30
0
11
-159.82000000000039
21
-89.159100000000109
31
0
0
LINE
5
112
100
AcDbEntity
8
0
100
AcDbLine
10
-158.62000000000037
20
-90.359100000000069
30
0
11
-158.62000000000003
21
-105.15910000000008
31
0
0
ARC
5
113
100
AcDbEntity
8
0
100
AcDbCircle
10
-156.62000000000009
20
-105.15910000000007
30
0
40
1.9999999999999574
210
0
220
0
230
1
100
AcDbArc
50
180
51
270.00000000000159
0
LINE
5
114
100
AcDbEntity
8
0
100
AcDbLine
10
-156.62000000000003
20
-107.15910000000005
30
0
11
-155.12
21
-107.15910000000002
31
0
0
LINE
5
115
100
AcDbEntity
8
0
100
AcDbLine
10
-153.91999999999999
20
-108.35910000000001
30
0
11
-153.91999999999999
21
-128.85899999999032
31
0
0
LINE
5
116
100
AcDbEntity
8
0
100
AcDbLine
10
-155.11999999999998
20
-130.05899999999033
30
0
11
-161.24099055936296
21
-130.05899999999031
31
0
0
ARC
5
117
100
AcDbEntity
8
0
100
AcDbCircle
10
-161.24099055936296
20
-132.05899999999031
30
0
40
2.0000000000000107
210
0
220
-0
230
1
100
AcDbArc
50
90
51
180
0
LINE
5
118
100
AcDbEntity
8
0
100
AcDbLine
10
-163.24099055936296
20
-132.05899999999031
30
0
11
-163.24099055936287
21
-144.05899999999031
31
0
0
LINE
5
119
100
AcDbEntity
8
0
100
AcDbLine
10
-161.2409905593629
20
-146.05899999999031
30
0
11
-120.71446652333162
21
-146.0589999999907
31
0
0
ARC
5
120
100
AcDbEntity
8
0
100
AcDbCircle
10
-159.39364999999995
20
-50.855248048995392
30
0
40
1.2000000000000011
210
0
220
0
230
1
100
AcDbArc
50
251.99999999997402
51
360
0
ARC
5
121
100
AcDbEntity
8
0
100
AcDbCircle
10
-159.82000000000033
20
-90.359100000000083
30
0
40
1.1999999999999744
210
0
220
-0
230
1
100
AcDbArc
50
0
51
90.000000000002714
0
ARC
5
122
100
AcDbEntity
8
0
100
AcDbCircle
10
-155.11999999999998
20
-108.35910000000001
30
0
40
1.1999999999999922
210
0
220
0
230
1
100
AcDbArc
50
0
51
90.000000000001364
0
ARC
5
123
100
AcDbEntity
8
0
100
AcDbCircle
10
-155.11999999999998
20
-128.85899999999032
30
0
40
1.1999999999999922
210
-0
220
0
230
1
100
AcDbArc
50
-90
51
0
0
ARC
5
124
100
AcDbEntity
8
0
100
AcDbCircle
10
-161.2409905593629
20
-144.05899999999033
30
0
40
1.9999999999999574
210
0
220
0
230
1
100
AcDbArc
50
180
51
270
0
LINE
5
125
100
AcDbEntity
8
0
100
AcDbLine
10
-119.54025574120949
20
-147.01155497751475
30
0
11
-115.20449848063706
21
-167.58619767222982
31
0
0
ARC
5
126
100
AcDbEntity
8
0
100
AcDbCircle
10
-113.24748051043352
20
-167.17378930143661
30
0
40
1.9999999999999687
210
0
220
0
230
1
100
AcDbArc
50
191.89999999999853
51
281.90000000000003
0
ARC
5
127
100
AcDbEntity
8
0
100
AcDbCircle
10
-120.71446652333164
20
-147.25899999999069
30
0
40
1.2000000000000022
210
0
220
-0
230
1
100
AcDbArc
50
11.899999999999318
51
89.999999999999332
0
LINE
5
128
100
AcDbEntity
8
0
100
AcDbLine
10
-86.693649999999991
20
-161.99948564571264
30
0
11
-86.693649999999963
21
-147.65899999999036
31
0
0
ARC
5
129
100
AcDbEntity
8
0
100
AcDbCircle
10
-88.693649999999948
20
-161.9994856457127
30
0
40
1.9999999999999551
210
0
220
0
230
1
100
AcDbArc
50
-78.100000000000534
51
0
0
LINE
5
130
100
AcDbEntity
8
0
100
AcDbLine
10
-85.493649999999974
20
-146.45899999999037
30
0
11
-33.693649999999963
21
-146.4589999999904
31
0
0
LINE
5
131
100
AcDbEntity
8
0
100
AcDbLine
10
-33.693649999999884
20
-87.458999999990425
30
0
11
-33.693649999999813
21
-30.458999999990375
31
0
0
ARC
5
132
100
AcDbEntity
8
0
100
AcDbCircle
10
-85.493649999999974
20
-147.65899999999036
30
0
40
1.1999999999999922
210
0
220
-0
230
1
100
AcDbArc
50
90
51
180
0
LINE
5
133
100
AcDbEntity
8
0
100
AcDbLine
10
-33.693649999999963
20
-146.4589999999904
30
0
11
-33.69364999999992
21
-108.45899999999045
31
0
0
LINE
5
134
100
AcDbEntity
8
0
100
AcDbLine
10
-35.693649999999913
20
-106.45899999999045
30
0
11
-38.993649999999896
21
-106.45899999999044
31
0
0
LINE
5
135
100
AcDbEntity
8
0
100
AcDbLine
10
-40.193649999999892
20
-105.25899999999046
30
0
11
-40.193649999999877
21
-90.658999999990414
31
0
0
LINE
5
136
100
AcDbEntity
8
0
100
AcDbLine
10
-38.993649999999882
20
-89.458999999990425
30
0
11
-35.693649999999884
21
-89.458999999990425
31
0
0
ARC
5
137
100
AcDbEntity
8
0
100
AcDbCircle
10
-35.693649999999884
20
-87.458999999990425
30
0
40
1.9999999999999929
210
0
220
0
230
1
100
AcDbArc
50
-90
51
0
0
ARC
5
138
100
AcDbEntity
8
0
100
AcDbCircle
10
-35.693649999999813
20
-30.458999999990375
30
0
40
2.0000000000000018
210
0
220
0
230
1
100
AcDbArc
50
0
51
90.000000000000199
0
ARC
5
139
100
AcDbEntity
8
0
100
AcDbCircle
10
-35.693649999999913
20
-108.45899999999045
30
0
40
1.9999999999999973
210
0
220
0
230
1
100
AcDbArc
50
0
51
90
0
ARC
5
140
100
AcDbEntity
8
0
100
AcDbCircle
10
-38.993649999999889
20
-105.25899999999046
30
0
40
1.2000000000000011
210
0
220
0
230
1
100
AcDbArc
50
180
51
269.9999999999996
0
ARC
5
141
100
AcDbEntity
8
0
100
AcDbCircle
10
-38.993649999999882
20
-90.658999999990414
30
0
40
1.1999999999999922
210
0
220
-0
230
1
100
AcDbArc
50
90
51
180
0
ENDSEC
0
SECTION
2
OBJECTS
0
DICTIONARY
5
C
100
AcDbDictionary
3
ACAD_GROUP
350
D
3
ACAD_MLINESTYLE
350
17
0
DICTIONARY
5
D
100
AcDbDictionary
0
DICTIONARY
5
1A
330
C
100
AcDbDictionary
0
DICTIONARY
5
17
100
AcDbDictionary
0
ENDSEC
0
EOF
