%TF.GenerationSoftware,KiCad,Pcbnew,8.0.7*%
%TF.CreationDate,2025-08-07T21:50:34+02:00*%
%TF.ProjectId,pcb_keyboard_sx_rj11,7063625f-6b65-4796-926f-6172645f7378,rev?*%
%TF.SameCoordinates,Original*%
%TF.FileFunction,Legend,Bot*%
%TF.FilePolarity,Positive*%
%FSLAX46Y46*%
G04 Gerber Fmt 4.6, Leading zero omitted, Abs format (unit mm)*
G04 Created by KiCad (PCBNEW 8.0.7) date 2025-08-07 21:50:34*
%MOMM*%
%LPD*%
G01*
G04 APERTURE LIST*
G04 Aperture macros list*
%AMRoundRect*
0 Rectangle with rounded corners*
0 $1 Rounding radius*
0 $2 $3 $4 $5 $6 $7 $8 $9 X,Y pos of 4 corners*
0 Add a 4 corners polygon primitive as box body*
4,1,4,$2,$3,$4,$5,$6,$7,$8,$9,$2,$3,0*
0 Add four circle primitives for the rounded corners*
1,1,$1+$1,$2,$3*
1,1,$1+$1,$4,$5*
1,1,$1+$1,$6,$7*
1,1,$1+$1,$8,$9*
0 Add four rect primitives between the rounded corners*
20,1,$1+$1,$2,$3,$4,$5,0*
20,1,$1+$1,$4,$5,$6,$7,0*
20,1,$1+$1,$6,$7,$8,$9,0*
20,1,$1+$1,$8,$9,$2,$3,0*%
%AMHorizOval*
0 Thick line with rounded ends*
0 $1 width*
0 $2 $3 position (X,Y) of the first rounded end (center of the circle)*
0 $4 $5 position (X,Y) of the second rounded end (center of the circle)*
0 Add line between two ends*
20,1,$1,$2,$3,$4,$5,0*
0 Add two circle primitives to create the rounded ends*
1,1,$1,$2,$3*
1,1,$1,$4,$5*%
%AMRotRect*
0 Rectangle, with rotation*
0 The origin of the aperture is its center*
0 $1 length*
0 $2 width*
0 $3 Rotation angle, in degrees counterclockwise*
0 Add horizontal line*
21,1,$1,$2,0,0,$3*%
G04 Aperture macros list end*
%ADD10C,0.200000*%
%ADD11C,0.150000*%
%ADD12C,0.120000*%
%ADD13C,0.250000*%
%ADD14C,1.750000*%
%ADD15C,3.050000*%
%ADD16C,4.000000*%
%ADD17RoundRect,0.250000X1.025000X1.000000X-1.025000X1.000000X-1.025000X-1.000000X1.025000X-1.000000X0*%
%ADD18C,3.200000*%
%ADD19C,1.200000*%
%ADD20C,3.250000*%
%ADD21RotRect,1.520000X1.520000X101.899000*%
%ADD22C,1.520000*%
%ADD23R,1.700000X1.700000*%
%ADD24O,1.700000X1.700000*%
%ADD25C,1.900000*%
%ADD26C,3.450000*%
%ADD27C,2.200000*%
%ADD28R,1.400000X1.400000*%
%ADD29RoundRect,0.300000X0.400000X0.300000X-0.400000X0.300000X-0.400000X-0.300000X0.400000X-0.300000X0*%
%ADD30C,1.400000*%
%ADD31RoundRect,0.250000X1.387676X0.353525X-0.387676X1.378525X-1.387676X-0.353525X0.387676X-1.378525X0*%
%ADD32RoundRect,0.205000X0.495000X0.205000X-0.495000X0.205000X-0.495000X-0.205000X0.495000X-0.205000X0*%
%ADD33RoundRect,0.300000X0.450000X0.300000X-0.450000X0.300000X-0.450000X-0.300000X0.450000X-0.300000X0*%
%ADD34RoundRect,0.250000X1.450000X-0.537500X1.450000X0.537500X-1.450000X0.537500X-1.450000X-0.537500X0*%
%ADD35R,1.700000X3.500000*%
%ADD36R,3.500000X1.700000*%
%ADD37O,1.700000X1.400000*%
%ADD38RoundRect,0.205000X0.531183X-0.069965X-0.326183X0.425035X-0.531183X0.069965X0.326183X-0.425035X0*%
%ADD39R,1.000000X1.500000*%
%ADD40RoundRect,0.205000X-0.495000X-0.205000X0.495000X-0.205000X0.495000X0.205000X-0.495000X0.205000X0*%
%ADD41R,1.500000X1.000000*%
%ADD42RotRect,1.400000X1.400000X150.000000*%
%ADD43RoundRect,0.300000X0.539711X0.034808X-0.239711X0.484808X-0.539711X-0.034808X0.239711X-0.484808X0*%
%ADD44RoundRect,0.300000X0.496410X0.059808X-0.196410X0.459808X-0.496410X-0.059808X0.196410X-0.459808X0*%
%ADD45RotRect,1.700000X1.700000X191.899000*%
%ADD46HorizOval,1.700000X0.000000X0.000000X0.000000X0.000000X0*%
%ADD47RoundRect,0.300000X-0.300000X0.450000X-0.300000X-0.450000X0.300000X-0.450000X0.300000X0.450000X0*%
%ADD48RoundRect,0.300000X-0.300000X0.400000X-0.300000X-0.400000X0.300000X-0.400000X0.300000X0.400000X0*%
%ADD49RoundRect,0.100000X0.100000X-0.650000X0.100000X0.650000X-0.100000X0.650000X-0.100000X-0.650000X0*%
%ADD50RoundRect,0.250000X-1.450000X0.537500X-1.450000X-0.537500X1.450000X-0.537500X1.450000X0.537500X0*%
G04 APERTURE END LIST*
D10*
X35897183Y-43904219D02*
X35563850Y-44904219D01*
X35563850Y-44904219D02*
X35230517Y-43904219D01*
X34944802Y-44856600D02*
X34801945Y-44904219D01*
X34801945Y-44904219D02*
X34563850Y-44904219D01*
X34563850Y-44904219D02*
X34468612Y-44856600D01*
X34468612Y-44856600D02*
X34420993Y-44808980D01*
X34420993Y-44808980D02*
X34373374Y-44713742D01*
X34373374Y-44713742D02*
X34373374Y-44618504D01*
X34373374Y-44618504D02*
X34420993Y-44523266D01*
X34420993Y-44523266D02*
X34468612Y-44475647D01*
X34468612Y-44475647D02*
X34563850Y-44428028D01*
X34563850Y-44428028D02*
X34754326Y-44380409D01*
X34754326Y-44380409D02*
X34849564Y-44332790D01*
X34849564Y-44332790D02*
X34897183Y-44285171D01*
X34897183Y-44285171D02*
X34944802Y-44189933D01*
X34944802Y-44189933D02*
X34944802Y-44094695D01*
X34944802Y-44094695D02*
X34897183Y-43999457D01*
X34897183Y-43999457D02*
X34849564Y-43951838D01*
X34849564Y-43951838D02*
X34754326Y-43904219D01*
X34754326Y-43904219D02*
X34516231Y-43904219D01*
X34516231Y-43904219D02*
X34373374Y-43951838D01*
X33992421Y-44856600D02*
X33849564Y-44904219D01*
X33849564Y-44904219D02*
X33611469Y-44904219D01*
X33611469Y-44904219D02*
X33516231Y-44856600D01*
X33516231Y-44856600D02*
X33468612Y-44808980D01*
X33468612Y-44808980D02*
X33420993Y-44713742D01*
X33420993Y-44713742D02*
X33420993Y-44618504D01*
X33420993Y-44618504D02*
X33468612Y-44523266D01*
X33468612Y-44523266D02*
X33516231Y-44475647D01*
X33516231Y-44475647D02*
X33611469Y-44428028D01*
X33611469Y-44428028D02*
X33801945Y-44380409D01*
X33801945Y-44380409D02*
X33897183Y-44332790D01*
X33897183Y-44332790D02*
X33944802Y-44285171D01*
X33944802Y-44285171D02*
X33992421Y-44189933D01*
X33992421Y-44189933D02*
X33992421Y-44094695D01*
X33992421Y-44094695D02*
X33944802Y-43999457D01*
X33944802Y-43999457D02*
X33897183Y-43951838D01*
X33897183Y-43951838D02*
X33801945Y-43904219D01*
X33801945Y-43904219D02*
X33563850Y-43904219D01*
X33563850Y-43904219D02*
X33420993Y-43951838D01*
X99129326Y-151129275D02*
X99129326Y-150129275D01*
X99129326Y-150510227D02*
X99034088Y-150462608D01*
X99034088Y-150462608D02*
X98843612Y-150462608D01*
X98843612Y-150462608D02*
X98748374Y-150510227D01*
X98748374Y-150510227D02*
X98700755Y-150557846D01*
X98700755Y-150557846D02*
X98653136Y-150653084D01*
X98653136Y-150653084D02*
X98653136Y-150938798D01*
X98653136Y-150938798D02*
X98700755Y-151034036D01*
X98700755Y-151034036D02*
X98748374Y-151081656D01*
X98748374Y-151081656D02*
X98843612Y-151129275D01*
X98843612Y-151129275D02*
X99034088Y-151129275D01*
X99034088Y-151129275D02*
X99129326Y-151081656D01*
X98319802Y-150462608D02*
X98081707Y-151129275D01*
X97843612Y-150462608D02*
X98081707Y-151129275D01*
X98081707Y-151129275D02*
X98176945Y-151367370D01*
X98176945Y-151367370D02*
X98224564Y-151414989D01*
X98224564Y-151414989D02*
X98319802Y-151462608D01*
X97462659Y-150462608D02*
X97462659Y-151462608D01*
X97462659Y-150510227D02*
X97367421Y-150462608D01*
X97367421Y-150462608D02*
X97176945Y-150462608D01*
X97176945Y-150462608D02*
X97081707Y-150510227D01*
X97081707Y-150510227D02*
X97034088Y-150557846D01*
X97034088Y-150557846D02*
X96986469Y-150653084D01*
X96986469Y-150653084D02*
X96986469Y-150938798D01*
X96986469Y-150938798D02*
X97034088Y-151034036D01*
X97034088Y-151034036D02*
X97081707Y-151081656D01*
X97081707Y-151081656D02*
X97176945Y-151129275D01*
X97176945Y-151129275D02*
X97367421Y-151129275D01*
X97367421Y-151129275D02*
X97462659Y-151081656D01*
X96129326Y-151129275D02*
X96129326Y-150605465D01*
X96129326Y-150605465D02*
X96176945Y-150510227D01*
X96176945Y-150510227D02*
X96272183Y-150462608D01*
X96272183Y-150462608D02*
X96462659Y-150462608D01*
X96462659Y-150462608D02*
X96557897Y-150510227D01*
X96129326Y-151081656D02*
X96224564Y-151129275D01*
X96224564Y-151129275D02*
X96462659Y-151129275D01*
X96462659Y-151129275D02*
X96557897Y-151081656D01*
X96557897Y-151081656D02*
X96605516Y-150986417D01*
X96605516Y-150986417D02*
X96605516Y-150891179D01*
X96605516Y-150891179D02*
X96557897Y-150795941D01*
X96557897Y-150795941D02*
X96462659Y-150748322D01*
X96462659Y-150748322D02*
X96224564Y-150748322D01*
X96224564Y-150748322D02*
X96129326Y-150700703D01*
X95700754Y-151081656D02*
X95605516Y-151129275D01*
X95605516Y-151129275D02*
X95415040Y-151129275D01*
X95415040Y-151129275D02*
X95319802Y-151081656D01*
X95319802Y-151081656D02*
X95272183Y-150986417D01*
X95272183Y-150986417D02*
X95272183Y-150938798D01*
X95272183Y-150938798D02*
X95319802Y-150843560D01*
X95319802Y-150843560D02*
X95415040Y-150795941D01*
X95415040Y-150795941D02*
X95557897Y-150795941D01*
X95557897Y-150795941D02*
X95653135Y-150748322D01*
X95653135Y-150748322D02*
X95700754Y-150653084D01*
X95700754Y-150653084D02*
X95700754Y-150605465D01*
X95700754Y-150605465D02*
X95653135Y-150510227D01*
X95653135Y-150510227D02*
X95557897Y-150462608D01*
X95557897Y-150462608D02*
X95415040Y-150462608D01*
X95415040Y-150462608D02*
X95319802Y-150510227D01*
X94891230Y-151081656D02*
X94795992Y-151129275D01*
X94795992Y-151129275D02*
X94605516Y-151129275D01*
X94605516Y-151129275D02*
X94510278Y-151081656D01*
X94510278Y-151081656D02*
X94462659Y-150986417D01*
X94462659Y-150986417D02*
X94462659Y-150938798D01*
X94462659Y-150938798D02*
X94510278Y-150843560D01*
X94510278Y-150843560D02*
X94605516Y-150795941D01*
X94605516Y-150795941D02*
X94748373Y-150795941D01*
X94748373Y-150795941D02*
X94843611Y-150748322D01*
X94843611Y-150748322D02*
X94891230Y-150653084D01*
X94891230Y-150653084D02*
X94891230Y-150605465D01*
X94891230Y-150605465D02*
X94843611Y-150510227D01*
X94843611Y-150510227D02*
X94748373Y-150462608D01*
X94748373Y-150462608D02*
X94605516Y-150462608D01*
X94605516Y-150462608D02*
X94510278Y-150510227D01*
X99176945Y-152691600D02*
X99081707Y-152739219D01*
X99081707Y-152739219D02*
X98891231Y-152739219D01*
X98891231Y-152739219D02*
X98795993Y-152691600D01*
X98795993Y-152691600D02*
X98748374Y-152596361D01*
X98748374Y-152596361D02*
X98748374Y-152548742D01*
X98748374Y-152548742D02*
X98795993Y-152453504D01*
X98795993Y-152453504D02*
X98891231Y-152405885D01*
X98891231Y-152405885D02*
X99034088Y-152405885D01*
X99034088Y-152405885D02*
X99129326Y-152358266D01*
X99129326Y-152358266D02*
X99176945Y-152263028D01*
X99176945Y-152263028D02*
X99176945Y-152215409D01*
X99176945Y-152215409D02*
X99129326Y-152120171D01*
X99129326Y-152120171D02*
X99034088Y-152072552D01*
X99034088Y-152072552D02*
X98891231Y-152072552D01*
X98891231Y-152072552D02*
X98795993Y-152120171D01*
X98319802Y-152739219D02*
X98319802Y-151739219D01*
X97891231Y-152739219D02*
X97891231Y-152215409D01*
X97891231Y-152215409D02*
X97938850Y-152120171D01*
X97938850Y-152120171D02*
X98034088Y-152072552D01*
X98034088Y-152072552D02*
X98176945Y-152072552D01*
X98176945Y-152072552D02*
X98272183Y-152120171D01*
X98272183Y-152120171D02*
X98319802Y-152167790D01*
X97415040Y-152739219D02*
X97415040Y-152072552D01*
X97415040Y-151739219D02*
X97462659Y-151786838D01*
X97462659Y-151786838D02*
X97415040Y-151834457D01*
X97415040Y-151834457D02*
X97367421Y-151786838D01*
X97367421Y-151786838D02*
X97415040Y-151739219D01*
X97415040Y-151739219D02*
X97415040Y-151834457D01*
X97081707Y-152072552D02*
X96700755Y-152072552D01*
X96938850Y-152739219D02*
X96938850Y-151882076D01*
X96938850Y-151882076D02*
X96891231Y-151786838D01*
X96891231Y-151786838D02*
X96795993Y-151739219D01*
X96795993Y-151739219D02*
X96700755Y-151739219D01*
X96510278Y-152072552D02*
X96129326Y-152072552D01*
X96367421Y-151739219D02*
X96367421Y-152596361D01*
X96367421Y-152596361D02*
X96319802Y-152691600D01*
X96319802Y-152691600D02*
X96224564Y-152739219D01*
X96224564Y-152739219D02*
X96129326Y-152739219D01*
X95415040Y-152691600D02*
X95510278Y-152739219D01*
X95510278Y-152739219D02*
X95700754Y-152739219D01*
X95700754Y-152739219D02*
X95795992Y-152691600D01*
X95795992Y-152691600D02*
X95843611Y-152596361D01*
X95843611Y-152596361D02*
X95843611Y-152215409D01*
X95843611Y-152215409D02*
X95795992Y-152120171D01*
X95795992Y-152120171D02*
X95700754Y-152072552D01*
X95700754Y-152072552D02*
X95510278Y-152072552D01*
X95510278Y-152072552D02*
X95415040Y-152120171D01*
X95415040Y-152120171D02*
X95367421Y-152215409D01*
X95367421Y-152215409D02*
X95367421Y-152310647D01*
X95367421Y-152310647D02*
X95843611Y-152405885D01*
X94938849Y-152739219D02*
X94938849Y-152072552D01*
X94938849Y-152263028D02*
X94891230Y-152167790D01*
X94891230Y-152167790D02*
X94843611Y-152120171D01*
X94843611Y-152120171D02*
X94748373Y-152072552D01*
X94748373Y-152072552D02*
X94653135Y-152072552D01*
X60114326Y-108484219D02*
X60114326Y-107484219D01*
X59685755Y-108484219D02*
X59685755Y-107960409D01*
X59685755Y-107960409D02*
X59733374Y-107865171D01*
X59733374Y-107865171D02*
X59828612Y-107817552D01*
X59828612Y-107817552D02*
X59971469Y-107817552D01*
X59971469Y-107817552D02*
X60066707Y-107865171D01*
X60066707Y-107865171D02*
X60114326Y-107912790D01*
X59209564Y-108484219D02*
X59209564Y-107817552D01*
X59209564Y-107484219D02*
X59257183Y-107531838D01*
X59257183Y-107531838D02*
X59209564Y-107579457D01*
X59209564Y-107579457D02*
X59161945Y-107531838D01*
X59161945Y-107531838D02*
X59209564Y-107484219D01*
X59209564Y-107484219D02*
X59209564Y-107579457D01*
X58304803Y-107817552D02*
X58304803Y-108627076D01*
X58304803Y-108627076D02*
X58352422Y-108722314D01*
X58352422Y-108722314D02*
X58400041Y-108769933D01*
X58400041Y-108769933D02*
X58495279Y-108817552D01*
X58495279Y-108817552D02*
X58638136Y-108817552D01*
X58638136Y-108817552D02*
X58733374Y-108769933D01*
X58304803Y-108436600D02*
X58400041Y-108484219D01*
X58400041Y-108484219D02*
X58590517Y-108484219D01*
X58590517Y-108484219D02*
X58685755Y-108436600D01*
X58685755Y-108436600D02*
X58733374Y-108388980D01*
X58733374Y-108388980D02*
X58780993Y-108293742D01*
X58780993Y-108293742D02*
X58780993Y-108008028D01*
X58780993Y-108008028D02*
X58733374Y-107912790D01*
X58733374Y-107912790D02*
X58685755Y-107865171D01*
X58685755Y-107865171D02*
X58590517Y-107817552D01*
X58590517Y-107817552D02*
X58400041Y-107817552D01*
X58400041Y-107817552D02*
X58304803Y-107865171D01*
X57828612Y-108484219D02*
X57828612Y-107484219D01*
X57400041Y-108484219D02*
X57400041Y-107960409D01*
X57400041Y-107960409D02*
X57447660Y-107865171D01*
X57447660Y-107865171D02*
X57542898Y-107817552D01*
X57542898Y-107817552D02*
X57685755Y-107817552D01*
X57685755Y-107817552D02*
X57780993Y-107865171D01*
X57780993Y-107865171D02*
X57828612Y-107912790D01*
X57066707Y-107817552D02*
X56685755Y-107817552D01*
X56923850Y-107484219D02*
X56923850Y-108341361D01*
X56923850Y-108341361D02*
X56876231Y-108436600D01*
X56876231Y-108436600D02*
X56780993Y-108484219D01*
X56780993Y-108484219D02*
X56685755Y-108484219D01*
X92691344Y-21545527D02*
X91945811Y-21702622D01*
X92397125Y-21996841D02*
X92240030Y-21251308D01*
X90886255Y-21293245D02*
X91352213Y-21195060D01*
X91352213Y-21195060D02*
X91496993Y-21651200D01*
X91496993Y-21651200D02*
X91440579Y-21614423D01*
X91440579Y-21614423D02*
X91337569Y-21587464D01*
X91337569Y-21587464D02*
X91104590Y-21636556D01*
X91104590Y-21636556D02*
X91021217Y-21702789D01*
X91021217Y-21702789D02*
X90984439Y-21759203D01*
X90984439Y-21759203D02*
X90957480Y-21862213D01*
X90957480Y-21862213D02*
X91006572Y-22095192D01*
X91006572Y-22095192D02*
X91072805Y-22178565D01*
X91072805Y-22178565D02*
X91129219Y-22215343D01*
X91129219Y-22215343D02*
X91232229Y-22242302D01*
X91232229Y-22242302D02*
X91465209Y-22193210D01*
X91465209Y-22193210D02*
X91548582Y-22126977D01*
X91548582Y-22126977D02*
X91585359Y-22070563D01*
X90560084Y-21361974D02*
X90440100Y-22409215D01*
X90440100Y-22409215D02*
X89907742Y-21499432D01*
X53621469Y-108554219D02*
X53716707Y-108506600D01*
X53716707Y-108506600D02*
X53764326Y-108411361D01*
X53764326Y-108411361D02*
X53764326Y-107554219D01*
X53097659Y-108554219D02*
X53192897Y-108506600D01*
X53192897Y-108506600D02*
X53240516Y-108458980D01*
X53240516Y-108458980D02*
X53288135Y-108363742D01*
X53288135Y-108363742D02*
X53288135Y-108078028D01*
X53288135Y-108078028D02*
X53240516Y-107982790D01*
X53240516Y-107982790D02*
X53192897Y-107935171D01*
X53192897Y-107935171D02*
X53097659Y-107887552D01*
X53097659Y-107887552D02*
X52954802Y-107887552D01*
X52954802Y-107887552D02*
X52859564Y-107935171D01*
X52859564Y-107935171D02*
X52811945Y-107982790D01*
X52811945Y-107982790D02*
X52764326Y-108078028D01*
X52764326Y-108078028D02*
X52764326Y-108363742D01*
X52764326Y-108363742D02*
X52811945Y-108458980D01*
X52811945Y-108458980D02*
X52859564Y-108506600D01*
X52859564Y-108506600D02*
X52954802Y-108554219D01*
X52954802Y-108554219D02*
X53097659Y-108554219D01*
X52430992Y-107887552D02*
X52240516Y-108554219D01*
X52240516Y-108554219D02*
X52050040Y-108078028D01*
X52050040Y-108078028D02*
X51859564Y-108554219D01*
X51859564Y-108554219D02*
X51669088Y-107887552D01*
X59915517Y-43426838D02*
X60010755Y-43379219D01*
X60010755Y-43379219D02*
X60153612Y-43379219D01*
X60153612Y-43379219D02*
X60296469Y-43426838D01*
X60296469Y-43426838D02*
X60391707Y-43522076D01*
X60391707Y-43522076D02*
X60439326Y-43617314D01*
X60439326Y-43617314D02*
X60486945Y-43807790D01*
X60486945Y-43807790D02*
X60486945Y-43950647D01*
X60486945Y-43950647D02*
X60439326Y-44141123D01*
X60439326Y-44141123D02*
X60391707Y-44236361D01*
X60391707Y-44236361D02*
X60296469Y-44331600D01*
X60296469Y-44331600D02*
X60153612Y-44379219D01*
X60153612Y-44379219D02*
X60058374Y-44379219D01*
X60058374Y-44379219D02*
X59915517Y-44331600D01*
X59915517Y-44331600D02*
X59867898Y-44283980D01*
X59867898Y-44283980D02*
X59867898Y-43950647D01*
X59867898Y-43950647D02*
X60058374Y-43950647D01*
X59439326Y-44379219D02*
X59439326Y-43379219D01*
X59439326Y-43379219D02*
X58867898Y-44379219D01*
X58867898Y-44379219D02*
X58867898Y-43379219D01*
X58391707Y-44379219D02*
X58391707Y-43379219D01*
X58391707Y-43379219D02*
X58153612Y-43379219D01*
X58153612Y-43379219D02*
X58010755Y-43426838D01*
X58010755Y-43426838D02*
X57915517Y-43522076D01*
X57915517Y-43522076D02*
X57867898Y-43617314D01*
X57867898Y-43617314D02*
X57820279Y-43807790D01*
X57820279Y-43807790D02*
X57820279Y-43950647D01*
X57820279Y-43950647D02*
X57867898Y-44141123D01*
X57867898Y-44141123D02*
X57915517Y-44236361D01*
X57915517Y-44236361D02*
X58010755Y-44331600D01*
X58010755Y-44331600D02*
X58153612Y-44379219D01*
X58153612Y-44379219D02*
X58391707Y-44379219D01*
X82180969Y-30784380D02*
X82264342Y-30718147D01*
X82264342Y-30718147D02*
X82404130Y-30688692D01*
X82404130Y-30688692D02*
X82553736Y-30705832D01*
X82553736Y-30705832D02*
X82666564Y-30779387D01*
X82666564Y-30779387D02*
X82732797Y-30862760D01*
X82732797Y-30862760D02*
X82818666Y-31039325D01*
X82818666Y-31039325D02*
X82848122Y-31179113D01*
X82848122Y-31179113D02*
X82840800Y-31375314D01*
X82840800Y-31375314D02*
X82813841Y-31478324D01*
X82813841Y-31478324D02*
X82740286Y-31591153D01*
X82740286Y-31591153D02*
X82610317Y-31667204D01*
X82610317Y-31667204D02*
X82517125Y-31686841D01*
X82517125Y-31686841D02*
X82367519Y-31669700D01*
X82367519Y-31669700D02*
X82311105Y-31632923D01*
X82311105Y-31632923D02*
X82242376Y-31306752D01*
X82242376Y-31306752D02*
X82428759Y-31267478D01*
X81911379Y-31814481D02*
X81705192Y-30835968D01*
X81705192Y-30835968D02*
X81352229Y-31932302D01*
X81352229Y-31932302D02*
X81146042Y-30953789D01*
X80886271Y-32030486D02*
X80680084Y-31051974D01*
X80680084Y-31051974D02*
X80447105Y-31101066D01*
X80447105Y-31101066D02*
X80317136Y-31177117D01*
X80317136Y-31177117D02*
X80243581Y-31289945D01*
X80243581Y-31289945D02*
X80216622Y-31392956D01*
X80216622Y-31392956D02*
X80209300Y-31589157D01*
X80209300Y-31589157D02*
X80238755Y-31728945D01*
X80238755Y-31728945D02*
X80324625Y-31905510D01*
X80324625Y-31905510D02*
X80390857Y-31988883D01*
X80390857Y-31988883D02*
X80503686Y-32062438D01*
X80503686Y-32062438D02*
X80653292Y-32079578D01*
X80653292Y-32079578D02*
X80886271Y-32030486D01*
X83298776Y-35329717D02*
X83092589Y-34351204D01*
X83092589Y-34351204D02*
X82859610Y-34400296D01*
X82859610Y-34400296D02*
X82729640Y-34476347D01*
X82729640Y-34476347D02*
X82656086Y-34589176D01*
X82656086Y-34589176D02*
X82629127Y-34692186D01*
X82629127Y-34692186D02*
X82621805Y-34888388D01*
X82621805Y-34888388D02*
X82651260Y-35028175D01*
X82651260Y-35028175D02*
X82737129Y-35204740D01*
X82737129Y-35204740D02*
X82803362Y-35288113D01*
X82803362Y-35288113D02*
X82916191Y-35361668D01*
X82916191Y-35361668D02*
X83065797Y-35378809D01*
X83065797Y-35378809D02*
X83298776Y-35329717D01*
X82241716Y-35163137D02*
X81496182Y-35320232D01*
X98180969Y-26514380D02*
X98264342Y-26448147D01*
X98264342Y-26448147D02*
X98404130Y-26418692D01*
X98404130Y-26418692D02*
X98553736Y-26435832D01*
X98553736Y-26435832D02*
X98666564Y-26509387D01*
X98666564Y-26509387D02*
X98732797Y-26592760D01*
X98732797Y-26592760D02*
X98818666Y-26769325D01*
X98818666Y-26769325D02*
X98848122Y-26909113D01*
X98848122Y-26909113D02*
X98840800Y-27105314D01*
X98840800Y-27105314D02*
X98813841Y-27208324D01*
X98813841Y-27208324D02*
X98740286Y-27321153D01*
X98740286Y-27321153D02*
X98610317Y-27397204D01*
X98610317Y-27397204D02*
X98517125Y-27416841D01*
X98517125Y-27416841D02*
X98367519Y-27399700D01*
X98367519Y-27399700D02*
X98311105Y-27362923D01*
X98311105Y-27362923D02*
X98242376Y-27036752D01*
X98242376Y-27036752D02*
X98428759Y-26997478D01*
X97911379Y-27544481D02*
X97705192Y-26565968D01*
X97705192Y-26565968D02*
X97352229Y-27662302D01*
X97352229Y-27662302D02*
X97146042Y-26683789D01*
X96886271Y-27760486D02*
X96680084Y-26781974D01*
X96680084Y-26781974D02*
X96447105Y-26831066D01*
X96447105Y-26831066D02*
X96317136Y-26907117D01*
X96317136Y-26907117D02*
X96243581Y-27019945D01*
X96243581Y-27019945D02*
X96216622Y-27122956D01*
X96216622Y-27122956D02*
X96209300Y-27319157D01*
X96209300Y-27319157D02*
X96238755Y-27458945D01*
X96238755Y-27458945D02*
X96324625Y-27635510D01*
X96324625Y-27635510D02*
X96390857Y-27718883D01*
X96390857Y-27718883D02*
X96503686Y-27792438D01*
X96503686Y-27792438D02*
X96653292Y-27809578D01*
X96653292Y-27809578D02*
X96886271Y-27760486D01*
X38257183Y-97514219D02*
X37923850Y-98514219D01*
X37923850Y-98514219D02*
X37590517Y-97514219D01*
X37304802Y-98466600D02*
X37161945Y-98514219D01*
X37161945Y-98514219D02*
X36923850Y-98514219D01*
X36923850Y-98514219D02*
X36828612Y-98466600D01*
X36828612Y-98466600D02*
X36780993Y-98418980D01*
X36780993Y-98418980D02*
X36733374Y-98323742D01*
X36733374Y-98323742D02*
X36733374Y-98228504D01*
X36733374Y-98228504D02*
X36780993Y-98133266D01*
X36780993Y-98133266D02*
X36828612Y-98085647D01*
X36828612Y-98085647D02*
X36923850Y-98038028D01*
X36923850Y-98038028D02*
X37114326Y-97990409D01*
X37114326Y-97990409D02*
X37209564Y-97942790D01*
X37209564Y-97942790D02*
X37257183Y-97895171D01*
X37257183Y-97895171D02*
X37304802Y-97799933D01*
X37304802Y-97799933D02*
X37304802Y-97704695D01*
X37304802Y-97704695D02*
X37257183Y-97609457D01*
X37257183Y-97609457D02*
X37209564Y-97561838D01*
X37209564Y-97561838D02*
X37114326Y-97514219D01*
X37114326Y-97514219D02*
X36876231Y-97514219D01*
X36876231Y-97514219D02*
X36733374Y-97561838D01*
X36352421Y-98466600D02*
X36209564Y-98514219D01*
X36209564Y-98514219D02*
X35971469Y-98514219D01*
X35971469Y-98514219D02*
X35876231Y-98466600D01*
X35876231Y-98466600D02*
X35828612Y-98418980D01*
X35828612Y-98418980D02*
X35780993Y-98323742D01*
X35780993Y-98323742D02*
X35780993Y-98228504D01*
X35780993Y-98228504D02*
X35828612Y-98133266D01*
X35828612Y-98133266D02*
X35876231Y-98085647D01*
X35876231Y-98085647D02*
X35971469Y-98038028D01*
X35971469Y-98038028D02*
X36161945Y-97990409D01*
X36161945Y-97990409D02*
X36257183Y-97942790D01*
X36257183Y-97942790D02*
X36304802Y-97895171D01*
X36304802Y-97895171D02*
X36352421Y-97799933D01*
X36352421Y-97799933D02*
X36352421Y-97704695D01*
X36352421Y-97704695D02*
X36304802Y-97609457D01*
X36304802Y-97609457D02*
X36257183Y-97561838D01*
X36257183Y-97561838D02*
X36161945Y-97514219D01*
X36161945Y-97514219D02*
X35923850Y-97514219D01*
X35923850Y-97514219D02*
X35780993Y-97561838D01*
X39297183Y-119254219D02*
X38963850Y-120254219D01*
X38963850Y-120254219D02*
X38630517Y-119254219D01*
X38344802Y-120206600D02*
X38201945Y-120254219D01*
X38201945Y-120254219D02*
X37963850Y-120254219D01*
X37963850Y-120254219D02*
X37868612Y-120206600D01*
X37868612Y-120206600D02*
X37820993Y-120158980D01*
X37820993Y-120158980D02*
X37773374Y-120063742D01*
X37773374Y-120063742D02*
X37773374Y-119968504D01*
X37773374Y-119968504D02*
X37820993Y-119873266D01*
X37820993Y-119873266D02*
X37868612Y-119825647D01*
X37868612Y-119825647D02*
X37963850Y-119778028D01*
X37963850Y-119778028D02*
X38154326Y-119730409D01*
X38154326Y-119730409D02*
X38249564Y-119682790D01*
X38249564Y-119682790D02*
X38297183Y-119635171D01*
X38297183Y-119635171D02*
X38344802Y-119539933D01*
X38344802Y-119539933D02*
X38344802Y-119444695D01*
X38344802Y-119444695D02*
X38297183Y-119349457D01*
X38297183Y-119349457D02*
X38249564Y-119301838D01*
X38249564Y-119301838D02*
X38154326Y-119254219D01*
X38154326Y-119254219D02*
X37916231Y-119254219D01*
X37916231Y-119254219D02*
X37773374Y-119301838D01*
X37392421Y-120206600D02*
X37249564Y-120254219D01*
X37249564Y-120254219D02*
X37011469Y-120254219D01*
X37011469Y-120254219D02*
X36916231Y-120206600D01*
X36916231Y-120206600D02*
X36868612Y-120158980D01*
X36868612Y-120158980D02*
X36820993Y-120063742D01*
X36820993Y-120063742D02*
X36820993Y-119968504D01*
X36820993Y-119968504D02*
X36868612Y-119873266D01*
X36868612Y-119873266D02*
X36916231Y-119825647D01*
X36916231Y-119825647D02*
X37011469Y-119778028D01*
X37011469Y-119778028D02*
X37201945Y-119730409D01*
X37201945Y-119730409D02*
X37297183Y-119682790D01*
X37297183Y-119682790D02*
X37344802Y-119635171D01*
X37344802Y-119635171D02*
X37392421Y-119539933D01*
X37392421Y-119539933D02*
X37392421Y-119444695D01*
X37392421Y-119444695D02*
X37344802Y-119349457D01*
X37344802Y-119349457D02*
X37297183Y-119301838D01*
X37297183Y-119301838D02*
X37201945Y-119254219D01*
X37201945Y-119254219D02*
X36963850Y-119254219D01*
X36963850Y-119254219D02*
X36820993Y-119301838D01*
X82339489Y-28716028D02*
X81593956Y-28873123D01*
X82045270Y-29167342D02*
X81888175Y-28421809D01*
X80534400Y-28463746D02*
X81000358Y-28365561D01*
X81000358Y-28365561D02*
X81145138Y-28821701D01*
X81145138Y-28821701D02*
X81088724Y-28784924D01*
X81088724Y-28784924D02*
X80985714Y-28757965D01*
X80985714Y-28757965D02*
X80752735Y-28807057D01*
X80752735Y-28807057D02*
X80669362Y-28873290D01*
X80669362Y-28873290D02*
X80632584Y-28929704D01*
X80632584Y-28929704D02*
X80605625Y-29032714D01*
X80605625Y-29032714D02*
X80654717Y-29265693D01*
X80654717Y-29265693D02*
X80720950Y-29349066D01*
X80720950Y-29349066D02*
X80777364Y-29385844D01*
X80777364Y-29385844D02*
X80880374Y-29412803D01*
X80880374Y-29412803D02*
X81113354Y-29363711D01*
X81113354Y-29363711D02*
X81196727Y-29297478D01*
X81196727Y-29297478D02*
X81233504Y-29241064D01*
X80208229Y-28532475D02*
X80088245Y-29579716D01*
X80088245Y-29579716D02*
X79555887Y-28669933D01*
X100576469Y-145792219D02*
X100671707Y-145744600D01*
X100671707Y-145744600D02*
X100719326Y-145649361D01*
X100719326Y-145649361D02*
X100719326Y-144792219D01*
X99814564Y-145744600D02*
X99909802Y-145792219D01*
X99909802Y-145792219D02*
X100100278Y-145792219D01*
X100100278Y-145792219D02*
X100195516Y-145744600D01*
X100195516Y-145744600D02*
X100243135Y-145649361D01*
X100243135Y-145649361D02*
X100243135Y-145268409D01*
X100243135Y-145268409D02*
X100195516Y-145173171D01*
X100195516Y-145173171D02*
X100100278Y-145125552D01*
X100100278Y-145125552D02*
X99909802Y-145125552D01*
X99909802Y-145125552D02*
X99814564Y-145173171D01*
X99814564Y-145173171D02*
X99766945Y-145268409D01*
X99766945Y-145268409D02*
X99766945Y-145363647D01*
X99766945Y-145363647D02*
X100243135Y-145458885D01*
X98909802Y-145792219D02*
X98909802Y-144792219D01*
X98909802Y-145744600D02*
X99005040Y-145792219D01*
X99005040Y-145792219D02*
X99195516Y-145792219D01*
X99195516Y-145792219D02*
X99290754Y-145744600D01*
X99290754Y-145744600D02*
X99338373Y-145696980D01*
X99338373Y-145696980D02*
X99385992Y-145601742D01*
X99385992Y-145601742D02*
X99385992Y-145316028D01*
X99385992Y-145316028D02*
X99338373Y-145220790D01*
X99338373Y-145220790D02*
X99290754Y-145173171D01*
X99290754Y-145173171D02*
X99195516Y-145125552D01*
X99195516Y-145125552D02*
X99005040Y-145125552D01*
X99005040Y-145125552D02*
X98909802Y-145173171D01*
X81856669Y-26691879D02*
X81726700Y-26767930D01*
X81726700Y-26767930D02*
X81493721Y-26817023D01*
X81493721Y-26817023D02*
X81390711Y-26790064D01*
X81390711Y-26790064D02*
X81334297Y-26753286D01*
X81334297Y-26753286D02*
X81268064Y-26669913D01*
X81268064Y-26669913D02*
X81248427Y-26576721D01*
X81248427Y-26576721D02*
X81275386Y-26473711D01*
X81275386Y-26473711D02*
X81312163Y-26417297D01*
X81312163Y-26417297D02*
X81395537Y-26351064D01*
X81395537Y-26351064D02*
X81572102Y-26265195D01*
X81572102Y-26265195D02*
X81655475Y-26198962D01*
X81655475Y-26198962D02*
X81692252Y-26142548D01*
X81692252Y-26142548D02*
X81719211Y-26039538D01*
X81719211Y-26039538D02*
X81699574Y-25946346D01*
X81699574Y-25946346D02*
X81633342Y-25862973D01*
X81633342Y-25862973D02*
X81576927Y-25826195D01*
X81576927Y-25826195D02*
X81473917Y-25799236D01*
X81473917Y-25799236D02*
X81240938Y-25848328D01*
X81240938Y-25848328D02*
X81110969Y-25924380D01*
X80309188Y-26969292D02*
X80365602Y-27006069D01*
X80365602Y-27006069D02*
X80515208Y-27023210D01*
X80515208Y-27023210D02*
X80608400Y-27003573D01*
X80608400Y-27003573D02*
X80738369Y-26927522D01*
X80738369Y-26927522D02*
X80811924Y-26814693D01*
X80811924Y-26814693D02*
X80838883Y-26711683D01*
X80838883Y-26711683D02*
X80846205Y-26515481D01*
X80846205Y-26515481D02*
X80816750Y-26375694D01*
X80816750Y-26375694D02*
X80730880Y-26199129D01*
X80730880Y-26199129D02*
X80664647Y-26115756D01*
X80664647Y-26115756D02*
X80551819Y-26042201D01*
X80551819Y-26042201D02*
X80402213Y-26025060D01*
X80402213Y-26025060D02*
X80309021Y-26044697D01*
X80309021Y-26044697D02*
X80179052Y-26120748D01*
X80179052Y-26120748D02*
X80142275Y-26177163D01*
X79443504Y-27249034D02*
X79909462Y-27150849D01*
X79909462Y-27150849D02*
X79703275Y-26172337D01*
X81425249Y-24026548D02*
X81295280Y-24102599D01*
X81295280Y-24102599D02*
X81062301Y-24151692D01*
X81062301Y-24151692D02*
X80959291Y-24124733D01*
X80959291Y-24124733D02*
X80902877Y-24087955D01*
X80902877Y-24087955D02*
X80836644Y-24004582D01*
X80836644Y-24004582D02*
X80817007Y-23911390D01*
X80817007Y-23911390D02*
X80843966Y-23808380D01*
X80843966Y-23808380D02*
X80880743Y-23751966D01*
X80880743Y-23751966D02*
X80964117Y-23685733D01*
X80964117Y-23685733D02*
X81140682Y-23599864D01*
X81140682Y-23599864D02*
X81224055Y-23533631D01*
X81224055Y-23533631D02*
X81260832Y-23477217D01*
X81260832Y-23477217D02*
X81287791Y-23374207D01*
X81287791Y-23374207D02*
X81268154Y-23281015D01*
X81268154Y-23281015D02*
X81201922Y-23197642D01*
X81201922Y-23197642D02*
X81145507Y-23160864D01*
X81145507Y-23160864D02*
X81042497Y-23133905D01*
X81042497Y-23133905D02*
X80809518Y-23182997D01*
X80809518Y-23182997D02*
X80679549Y-23259049D01*
X80456555Y-24279331D02*
X80250368Y-23300819D01*
X80250368Y-23300819D02*
X80017389Y-23349911D01*
X80017389Y-23349911D02*
X79887420Y-23425962D01*
X79887420Y-23425962D02*
X79813865Y-23538790D01*
X79813865Y-23538790D02*
X79786906Y-23641801D01*
X79786906Y-23641801D02*
X79779584Y-23838002D01*
X79779584Y-23838002D02*
X79809039Y-23977790D01*
X79809039Y-23977790D02*
X79894909Y-24154355D01*
X79894909Y-24154355D02*
X79961141Y-24237728D01*
X79961141Y-24237728D02*
X80073970Y-24311283D01*
X80073970Y-24311283D02*
X80223576Y-24328423D01*
X80223576Y-24328423D02*
X80456555Y-24279331D01*
X79465728Y-24196125D02*
X78999769Y-24294309D01*
X79617830Y-24456063D02*
X79085472Y-23546279D01*
X79085472Y-23546279D02*
X78965488Y-24593521D01*
X44317183Y-80714219D02*
X43983850Y-81714219D01*
X43983850Y-81714219D02*
X43650517Y-80714219D01*
X43364802Y-81666600D02*
X43221945Y-81714219D01*
X43221945Y-81714219D02*
X42983850Y-81714219D01*
X42983850Y-81714219D02*
X42888612Y-81666600D01*
X42888612Y-81666600D02*
X42840993Y-81618980D01*
X42840993Y-81618980D02*
X42793374Y-81523742D01*
X42793374Y-81523742D02*
X42793374Y-81428504D01*
X42793374Y-81428504D02*
X42840993Y-81333266D01*
X42840993Y-81333266D02*
X42888612Y-81285647D01*
X42888612Y-81285647D02*
X42983850Y-81238028D01*
X42983850Y-81238028D02*
X43174326Y-81190409D01*
X43174326Y-81190409D02*
X43269564Y-81142790D01*
X43269564Y-81142790D02*
X43317183Y-81095171D01*
X43317183Y-81095171D02*
X43364802Y-80999933D01*
X43364802Y-80999933D02*
X43364802Y-80904695D01*
X43364802Y-80904695D02*
X43317183Y-80809457D01*
X43317183Y-80809457D02*
X43269564Y-80761838D01*
X43269564Y-80761838D02*
X43174326Y-80714219D01*
X43174326Y-80714219D02*
X42936231Y-80714219D01*
X42936231Y-80714219D02*
X42793374Y-80761838D01*
X42412421Y-81666600D02*
X42269564Y-81714219D01*
X42269564Y-81714219D02*
X42031469Y-81714219D01*
X42031469Y-81714219D02*
X41936231Y-81666600D01*
X41936231Y-81666600D02*
X41888612Y-81618980D01*
X41888612Y-81618980D02*
X41840993Y-81523742D01*
X41840993Y-81523742D02*
X41840993Y-81428504D01*
X41840993Y-81428504D02*
X41888612Y-81333266D01*
X41888612Y-81333266D02*
X41936231Y-81285647D01*
X41936231Y-81285647D02*
X42031469Y-81238028D01*
X42031469Y-81238028D02*
X42221945Y-81190409D01*
X42221945Y-81190409D02*
X42317183Y-81142790D01*
X42317183Y-81142790D02*
X42364802Y-81095171D01*
X42364802Y-81095171D02*
X42412421Y-80999933D01*
X42412421Y-80999933D02*
X42412421Y-80904695D01*
X42412421Y-80904695D02*
X42364802Y-80809457D01*
X42364802Y-80809457D02*
X42317183Y-80761838D01*
X42317183Y-80761838D02*
X42221945Y-80714219D01*
X42221945Y-80714219D02*
X41983850Y-80714219D01*
X41983850Y-80714219D02*
X41840993Y-80761838D01*
X42004326Y-44133266D02*
X41242422Y-44133266D01*
X41623374Y-44514219D02*
X41623374Y-43752314D01*
X40290041Y-43514219D02*
X40766231Y-43514219D01*
X40766231Y-43514219D02*
X40813850Y-43990409D01*
X40813850Y-43990409D02*
X40766231Y-43942790D01*
X40766231Y-43942790D02*
X40670993Y-43895171D01*
X40670993Y-43895171D02*
X40432898Y-43895171D01*
X40432898Y-43895171D02*
X40337660Y-43942790D01*
X40337660Y-43942790D02*
X40290041Y-43990409D01*
X40290041Y-43990409D02*
X40242422Y-44085647D01*
X40242422Y-44085647D02*
X40242422Y-44323742D01*
X40242422Y-44323742D02*
X40290041Y-44418980D01*
X40290041Y-44418980D02*
X40337660Y-44466600D01*
X40337660Y-44466600D02*
X40432898Y-44514219D01*
X40432898Y-44514219D02*
X40670993Y-44514219D01*
X40670993Y-44514219D02*
X40766231Y-44466600D01*
X40766231Y-44466600D02*
X40813850Y-44418980D01*
X39956707Y-43514219D02*
X39623374Y-44514219D01*
X39623374Y-44514219D02*
X39290041Y-43514219D01*
X93023492Y-27470326D02*
X92464342Y-27588147D01*
X92950104Y-28507749D02*
X92743917Y-27529236D01*
X92231363Y-27637239D02*
X91785208Y-28753210D01*
X91579021Y-27774697D02*
X92437550Y-28615752D01*
X96795969Y-19509380D02*
X96879342Y-19443147D01*
X96879342Y-19443147D02*
X97019130Y-19413692D01*
X97019130Y-19413692D02*
X97168736Y-19430832D01*
X97168736Y-19430832D02*
X97281564Y-19504387D01*
X97281564Y-19504387D02*
X97347797Y-19587760D01*
X97347797Y-19587760D02*
X97433666Y-19764325D01*
X97433666Y-19764325D02*
X97463122Y-19904113D01*
X97463122Y-19904113D02*
X97455800Y-20100314D01*
X97455800Y-20100314D02*
X97428841Y-20203324D01*
X97428841Y-20203324D02*
X97355286Y-20316153D01*
X97355286Y-20316153D02*
X97225317Y-20392204D01*
X97225317Y-20392204D02*
X97132125Y-20411841D01*
X97132125Y-20411841D02*
X96982519Y-20394700D01*
X96982519Y-20394700D02*
X96926105Y-20357923D01*
X96926105Y-20357923D02*
X96857376Y-20031752D01*
X96857376Y-20031752D02*
X97043759Y-19992478D01*
X96526379Y-20539481D02*
X96320192Y-19560968D01*
X96320192Y-19560968D02*
X95967229Y-20657302D01*
X95967229Y-20657302D02*
X95761042Y-19678789D01*
X95501271Y-20755486D02*
X95295084Y-19776974D01*
X95295084Y-19776974D02*
X95062105Y-19826066D01*
X95062105Y-19826066D02*
X94932136Y-19902117D01*
X94932136Y-19902117D02*
X94858581Y-20014945D01*
X94858581Y-20014945D02*
X94831622Y-20117956D01*
X94831622Y-20117956D02*
X94824300Y-20314157D01*
X94824300Y-20314157D02*
X94853755Y-20453945D01*
X94853755Y-20453945D02*
X94939625Y-20630510D01*
X94939625Y-20630510D02*
X95005857Y-20713883D01*
X95005857Y-20713883D02*
X95118686Y-20787438D01*
X95118686Y-20787438D02*
X95268292Y-20804578D01*
X95268292Y-20804578D02*
X95501271Y-20755486D01*
X107243136Y-135169219D02*
X107719326Y-135169219D01*
X107719326Y-135169219D02*
X107719326Y-134169219D01*
X106909802Y-134645409D02*
X106576469Y-134645409D01*
X106433612Y-135169219D02*
X106909802Y-135169219D01*
X106909802Y-135169219D02*
X106909802Y-134169219D01*
X106909802Y-134169219D02*
X106433612Y-134169219D01*
X106005040Y-135169219D02*
X106005040Y-134169219D01*
X106005040Y-134169219D02*
X105766945Y-134169219D01*
X105766945Y-134169219D02*
X105624088Y-134216838D01*
X105624088Y-134216838D02*
X105528850Y-134312076D01*
X105528850Y-134312076D02*
X105481231Y-134407314D01*
X105481231Y-134407314D02*
X105433612Y-134597790D01*
X105433612Y-134597790D02*
X105433612Y-134740647D01*
X105433612Y-134740647D02*
X105481231Y-134931123D01*
X105481231Y-134931123D02*
X105528850Y-135026361D01*
X105528850Y-135026361D02*
X105624088Y-135121600D01*
X105624088Y-135121600D02*
X105766945Y-135169219D01*
X105766945Y-135169219D02*
X106005040Y-135169219D01*
X103814564Y-135169219D02*
X103814564Y-134169219D01*
X103814564Y-135121600D02*
X103909802Y-135169219D01*
X103909802Y-135169219D02*
X104100278Y-135169219D01*
X104100278Y-135169219D02*
X104195516Y-135121600D01*
X104195516Y-135121600D02*
X104243135Y-135073980D01*
X104243135Y-135073980D02*
X104290754Y-134978742D01*
X104290754Y-134978742D02*
X104290754Y-134693028D01*
X104290754Y-134693028D02*
X104243135Y-134597790D01*
X104243135Y-134597790D02*
X104195516Y-134550171D01*
X104195516Y-134550171D02*
X104100278Y-134502552D01*
X104100278Y-134502552D02*
X103909802Y-134502552D01*
X103909802Y-134502552D02*
X103814564Y-134550171D01*
X102909802Y-135169219D02*
X102909802Y-134645409D01*
X102909802Y-134645409D02*
X102957421Y-134550171D01*
X102957421Y-134550171D02*
X103052659Y-134502552D01*
X103052659Y-134502552D02*
X103243135Y-134502552D01*
X103243135Y-134502552D02*
X103338373Y-134550171D01*
X102909802Y-135121600D02*
X103005040Y-135169219D01*
X103005040Y-135169219D02*
X103243135Y-135169219D01*
X103243135Y-135169219D02*
X103338373Y-135121600D01*
X103338373Y-135121600D02*
X103385992Y-135026361D01*
X103385992Y-135026361D02*
X103385992Y-134931123D01*
X103385992Y-134931123D02*
X103338373Y-134835885D01*
X103338373Y-134835885D02*
X103243135Y-134788266D01*
X103243135Y-134788266D02*
X103005040Y-134788266D01*
X103005040Y-134788266D02*
X102909802Y-134740647D01*
X102576468Y-134502552D02*
X102195516Y-134502552D01*
X102433611Y-134169219D02*
X102433611Y-135026361D01*
X102433611Y-135026361D02*
X102385992Y-135121600D01*
X102385992Y-135121600D02*
X102290754Y-135169219D01*
X102290754Y-135169219D02*
X102195516Y-135169219D01*
X101433611Y-135169219D02*
X101433611Y-134645409D01*
X101433611Y-134645409D02*
X101481230Y-134550171D01*
X101481230Y-134550171D02*
X101576468Y-134502552D01*
X101576468Y-134502552D02*
X101766944Y-134502552D01*
X101766944Y-134502552D02*
X101862182Y-134550171D01*
X101433611Y-135121600D02*
X101528849Y-135169219D01*
X101528849Y-135169219D02*
X101766944Y-135169219D01*
X101766944Y-135169219D02*
X101862182Y-135121600D01*
X101862182Y-135121600D02*
X101909801Y-135026361D01*
X101909801Y-135026361D02*
X101909801Y-134931123D01*
X101909801Y-134931123D02*
X101862182Y-134835885D01*
X101862182Y-134835885D02*
X101766944Y-134788266D01*
X101766944Y-134788266D02*
X101528849Y-134788266D01*
X101528849Y-134788266D02*
X101433611Y-134740647D01*
X31297183Y-59694219D02*
X30963850Y-60694219D01*
X30963850Y-60694219D02*
X30630517Y-59694219D01*
X30344802Y-60646600D02*
X30201945Y-60694219D01*
X30201945Y-60694219D02*
X29963850Y-60694219D01*
X29963850Y-60694219D02*
X29868612Y-60646600D01*
X29868612Y-60646600D02*
X29820993Y-60598980D01*
X29820993Y-60598980D02*
X29773374Y-60503742D01*
X29773374Y-60503742D02*
X29773374Y-60408504D01*
X29773374Y-60408504D02*
X29820993Y-60313266D01*
X29820993Y-60313266D02*
X29868612Y-60265647D01*
X29868612Y-60265647D02*
X29963850Y-60218028D01*
X29963850Y-60218028D02*
X30154326Y-60170409D01*
X30154326Y-60170409D02*
X30249564Y-60122790D01*
X30249564Y-60122790D02*
X30297183Y-60075171D01*
X30297183Y-60075171D02*
X30344802Y-59979933D01*
X30344802Y-59979933D02*
X30344802Y-59884695D01*
X30344802Y-59884695D02*
X30297183Y-59789457D01*
X30297183Y-59789457D02*
X30249564Y-59741838D01*
X30249564Y-59741838D02*
X30154326Y-59694219D01*
X30154326Y-59694219D02*
X29916231Y-59694219D01*
X29916231Y-59694219D02*
X29773374Y-59741838D01*
X29392421Y-60646600D02*
X29249564Y-60694219D01*
X29249564Y-60694219D02*
X29011469Y-60694219D01*
X29011469Y-60694219D02*
X28916231Y-60646600D01*
X28916231Y-60646600D02*
X28868612Y-60598980D01*
X28868612Y-60598980D02*
X28820993Y-60503742D01*
X28820993Y-60503742D02*
X28820993Y-60408504D01*
X28820993Y-60408504D02*
X28868612Y-60313266D01*
X28868612Y-60313266D02*
X28916231Y-60265647D01*
X28916231Y-60265647D02*
X29011469Y-60218028D01*
X29011469Y-60218028D02*
X29201945Y-60170409D01*
X29201945Y-60170409D02*
X29297183Y-60122790D01*
X29297183Y-60122790D02*
X29344802Y-60075171D01*
X29344802Y-60075171D02*
X29392421Y-59979933D01*
X29392421Y-59979933D02*
X29392421Y-59884695D01*
X29392421Y-59884695D02*
X29344802Y-59789457D01*
X29344802Y-59789457D02*
X29297183Y-59741838D01*
X29297183Y-59741838D02*
X29201945Y-59694219D01*
X29201945Y-59694219D02*
X28963850Y-59694219D01*
X28963850Y-59694219D02*
X28820993Y-59741838D01*
X97285742Y-24471115D02*
X97513728Y-23936427D01*
X97844892Y-24353294D02*
X97638705Y-23374781D01*
X97638705Y-23374781D02*
X97265938Y-23453328D01*
X97265938Y-23453328D02*
X97182565Y-23519561D01*
X97182565Y-23519561D02*
X97145787Y-23575975D01*
X97145787Y-23575975D02*
X97118828Y-23678985D01*
X97118828Y-23678985D02*
X97148284Y-23818773D01*
X97148284Y-23818773D02*
X97214516Y-23902146D01*
X97214516Y-23902146D02*
X97270931Y-23938924D01*
X97270931Y-23938924D02*
X97373941Y-23965883D01*
X97373941Y-23965883D02*
X97746708Y-23887335D01*
X96753384Y-23561331D02*
X96307229Y-24677302D01*
X96101042Y-23698789D02*
X96959571Y-24539844D01*
X84309892Y-37778294D02*
X84103705Y-36799781D01*
X84103705Y-36799781D02*
X83870726Y-36848873D01*
X83870726Y-36848873D02*
X83740756Y-36924924D01*
X83740756Y-36924924D02*
X83667202Y-37037753D01*
X83667202Y-37037753D02*
X83640243Y-37140763D01*
X83640243Y-37140763D02*
X83632921Y-37336965D01*
X83632921Y-37336965D02*
X83662376Y-37476752D01*
X83662376Y-37476752D02*
X83748245Y-37653317D01*
X83748245Y-37653317D02*
X83814478Y-37736690D01*
X83814478Y-37736690D02*
X83927307Y-37810245D01*
X83927307Y-37810245D02*
X84076913Y-37827386D01*
X84076913Y-37827386D02*
X84309892Y-37778294D01*
X83252832Y-37611714D02*
X82507298Y-37768809D01*
X82958613Y-38063028D02*
X82801518Y-37317495D01*
X92319326Y-144992219D02*
X92319326Y-143992219D01*
X91890755Y-144992219D02*
X91890755Y-144468409D01*
X91890755Y-144468409D02*
X91938374Y-144373171D01*
X91938374Y-144373171D02*
X92033612Y-144325552D01*
X92033612Y-144325552D02*
X92176469Y-144325552D01*
X92176469Y-144325552D02*
X92271707Y-144373171D01*
X92271707Y-144373171D02*
X92319326Y-144420790D01*
X91271707Y-144992219D02*
X91366945Y-144944600D01*
X91366945Y-144944600D02*
X91414564Y-144896980D01*
X91414564Y-144896980D02*
X91462183Y-144801742D01*
X91462183Y-144801742D02*
X91462183Y-144516028D01*
X91462183Y-144516028D02*
X91414564Y-144420790D01*
X91414564Y-144420790D02*
X91366945Y-144373171D01*
X91366945Y-144373171D02*
X91271707Y-144325552D01*
X91271707Y-144325552D02*
X91128850Y-144325552D01*
X91128850Y-144325552D02*
X91033612Y-144373171D01*
X91033612Y-144373171D02*
X90985993Y-144420790D01*
X90985993Y-144420790D02*
X90938374Y-144516028D01*
X90938374Y-144516028D02*
X90938374Y-144801742D01*
X90938374Y-144801742D02*
X90985993Y-144896980D01*
X90985993Y-144896980D02*
X91033612Y-144944600D01*
X91033612Y-144944600D02*
X91128850Y-144992219D01*
X91128850Y-144992219D02*
X91271707Y-144992219D01*
X90366945Y-144992219D02*
X90462183Y-144944600D01*
X90462183Y-144944600D02*
X90509802Y-144849361D01*
X90509802Y-144849361D02*
X90509802Y-143992219D01*
X89605040Y-144944600D02*
X89700278Y-144992219D01*
X89700278Y-144992219D02*
X89890754Y-144992219D01*
X89890754Y-144992219D02*
X89985992Y-144944600D01*
X89985992Y-144944600D02*
X90033611Y-144849361D01*
X90033611Y-144849361D02*
X90033611Y-144468409D01*
X90033611Y-144468409D02*
X89985992Y-144373171D01*
X89985992Y-144373171D02*
X89890754Y-144325552D01*
X89890754Y-144325552D02*
X89700278Y-144325552D01*
X89700278Y-144325552D02*
X89605040Y-144373171D01*
X89605040Y-144373171D02*
X89557421Y-144468409D01*
X89557421Y-144468409D02*
X89557421Y-144563647D01*
X89557421Y-144563647D02*
X90033611Y-144658885D01*
X94079326Y-143512219D02*
X94079326Y-142845552D01*
X94079326Y-142940790D02*
X94031707Y-142893171D01*
X94031707Y-142893171D02*
X93936469Y-142845552D01*
X93936469Y-142845552D02*
X93793612Y-142845552D01*
X93793612Y-142845552D02*
X93698374Y-142893171D01*
X93698374Y-142893171D02*
X93650755Y-142988409D01*
X93650755Y-142988409D02*
X93650755Y-143512219D01*
X93650755Y-142988409D02*
X93603136Y-142893171D01*
X93603136Y-142893171D02*
X93507898Y-142845552D01*
X93507898Y-142845552D02*
X93365041Y-142845552D01*
X93365041Y-142845552D02*
X93269802Y-142893171D01*
X93269802Y-142893171D02*
X93222183Y-142988409D01*
X93222183Y-142988409D02*
X93222183Y-143512219D01*
X92603136Y-143512219D02*
X92698374Y-143464600D01*
X92698374Y-143464600D02*
X92745993Y-143416980D01*
X92745993Y-143416980D02*
X92793612Y-143321742D01*
X92793612Y-143321742D02*
X92793612Y-143036028D01*
X92793612Y-143036028D02*
X92745993Y-142940790D01*
X92745993Y-142940790D02*
X92698374Y-142893171D01*
X92698374Y-142893171D02*
X92603136Y-142845552D01*
X92603136Y-142845552D02*
X92460279Y-142845552D01*
X92460279Y-142845552D02*
X92365041Y-142893171D01*
X92365041Y-142893171D02*
X92317422Y-142940790D01*
X92317422Y-142940790D02*
X92269803Y-143036028D01*
X92269803Y-143036028D02*
X92269803Y-143321742D01*
X92269803Y-143321742D02*
X92317422Y-143416980D01*
X92317422Y-143416980D02*
X92365041Y-143464600D01*
X92365041Y-143464600D02*
X92460279Y-143512219D01*
X92460279Y-143512219D02*
X92603136Y-143512219D01*
X91412660Y-142845552D02*
X91412660Y-143512219D01*
X91841231Y-142845552D02*
X91841231Y-143369361D01*
X91841231Y-143369361D02*
X91793612Y-143464600D01*
X91793612Y-143464600D02*
X91698374Y-143512219D01*
X91698374Y-143512219D02*
X91555517Y-143512219D01*
X91555517Y-143512219D02*
X91460279Y-143464600D01*
X91460279Y-143464600D02*
X91412660Y-143416980D01*
X90936469Y-142845552D02*
X90936469Y-143512219D01*
X90936469Y-142940790D02*
X90888850Y-142893171D01*
X90888850Y-142893171D02*
X90793612Y-142845552D01*
X90793612Y-142845552D02*
X90650755Y-142845552D01*
X90650755Y-142845552D02*
X90555517Y-142893171D01*
X90555517Y-142893171D02*
X90507898Y-142988409D01*
X90507898Y-142988409D02*
X90507898Y-143512219D01*
X90174564Y-142845552D02*
X89793612Y-142845552D01*
X90031707Y-142512219D02*
X90031707Y-143369361D01*
X90031707Y-143369361D02*
X89984088Y-143464600D01*
X89984088Y-143464600D02*
X89888850Y-143512219D01*
X89888850Y-143512219D02*
X89793612Y-143512219D01*
X89460278Y-143512219D02*
X89460278Y-142845552D01*
X89460278Y-142512219D02*
X89507897Y-142559838D01*
X89507897Y-142559838D02*
X89460278Y-142607457D01*
X89460278Y-142607457D02*
X89412659Y-142559838D01*
X89412659Y-142559838D02*
X89460278Y-142512219D01*
X89460278Y-142512219D02*
X89460278Y-142607457D01*
X88984088Y-142845552D02*
X88984088Y-143512219D01*
X88984088Y-142940790D02*
X88936469Y-142893171D01*
X88936469Y-142893171D02*
X88841231Y-142845552D01*
X88841231Y-142845552D02*
X88698374Y-142845552D01*
X88698374Y-142845552D02*
X88603136Y-142893171D01*
X88603136Y-142893171D02*
X88555517Y-142988409D01*
X88555517Y-142988409D02*
X88555517Y-143512219D01*
X87650755Y-142845552D02*
X87650755Y-143655076D01*
X87650755Y-143655076D02*
X87698374Y-143750314D01*
X87698374Y-143750314D02*
X87745993Y-143797933D01*
X87745993Y-143797933D02*
X87841231Y-143845552D01*
X87841231Y-143845552D02*
X87984088Y-143845552D01*
X87984088Y-143845552D02*
X88079326Y-143797933D01*
X87650755Y-143464600D02*
X87745993Y-143512219D01*
X87745993Y-143512219D02*
X87936469Y-143512219D01*
X87936469Y-143512219D02*
X88031707Y-143464600D01*
X88031707Y-143464600D02*
X88079326Y-143416980D01*
X88079326Y-143416980D02*
X88126945Y-143321742D01*
X88126945Y-143321742D02*
X88126945Y-143036028D01*
X88126945Y-143036028D02*
X88079326Y-142940790D01*
X88079326Y-142940790D02*
X88031707Y-142893171D01*
X88031707Y-142893171D02*
X87936469Y-142845552D01*
X87936469Y-142845552D02*
X87745993Y-142845552D01*
X87745993Y-142845552D02*
X87650755Y-142893171D01*
X65088945Y-100586600D02*
X64993707Y-100634219D01*
X64993707Y-100634219D02*
X64803231Y-100634219D01*
X64803231Y-100634219D02*
X64707993Y-100586600D01*
X64707993Y-100586600D02*
X64660374Y-100491361D01*
X64660374Y-100491361D02*
X64660374Y-100443742D01*
X64660374Y-100443742D02*
X64707993Y-100348504D01*
X64707993Y-100348504D02*
X64803231Y-100300885D01*
X64803231Y-100300885D02*
X64946088Y-100300885D01*
X64946088Y-100300885D02*
X65041326Y-100253266D01*
X65041326Y-100253266D02*
X65088945Y-100158028D01*
X65088945Y-100158028D02*
X65088945Y-100110409D01*
X65088945Y-100110409D02*
X65041326Y-100015171D01*
X65041326Y-100015171D02*
X64946088Y-99967552D01*
X64946088Y-99967552D02*
X64803231Y-99967552D01*
X64803231Y-99967552D02*
X64707993Y-100015171D01*
X63803231Y-99967552D02*
X63803231Y-100634219D01*
X64231802Y-99967552D02*
X64231802Y-100491361D01*
X64231802Y-100491361D02*
X64184183Y-100586600D01*
X64184183Y-100586600D02*
X64088945Y-100634219D01*
X64088945Y-100634219D02*
X63946088Y-100634219D01*
X63946088Y-100634219D02*
X63850850Y-100586600D01*
X63850850Y-100586600D02*
X63803231Y-100538980D01*
X63327040Y-99967552D02*
X63327040Y-100967552D01*
X63327040Y-100015171D02*
X63231802Y-99967552D01*
X63231802Y-99967552D02*
X63041326Y-99967552D01*
X63041326Y-99967552D02*
X62946088Y-100015171D01*
X62946088Y-100015171D02*
X62898469Y-100062790D01*
X62898469Y-100062790D02*
X62850850Y-100158028D01*
X62850850Y-100158028D02*
X62850850Y-100443742D01*
X62850850Y-100443742D02*
X62898469Y-100538980D01*
X62898469Y-100538980D02*
X62946088Y-100586600D01*
X62946088Y-100586600D02*
X63041326Y-100634219D01*
X63041326Y-100634219D02*
X63231802Y-100634219D01*
X63231802Y-100634219D02*
X63327040Y-100586600D01*
X62422278Y-99967552D02*
X62422278Y-100967552D01*
X62422278Y-100015171D02*
X62327040Y-99967552D01*
X62327040Y-99967552D02*
X62136564Y-99967552D01*
X62136564Y-99967552D02*
X62041326Y-100015171D01*
X62041326Y-100015171D02*
X61993707Y-100062790D01*
X61993707Y-100062790D02*
X61946088Y-100158028D01*
X61946088Y-100158028D02*
X61946088Y-100443742D01*
X61946088Y-100443742D02*
X61993707Y-100538980D01*
X61993707Y-100538980D02*
X62041326Y-100586600D01*
X62041326Y-100586600D02*
X62136564Y-100634219D01*
X62136564Y-100634219D02*
X62327040Y-100634219D01*
X62327040Y-100634219D02*
X62422278Y-100586600D01*
X61374659Y-100634219D02*
X61469897Y-100586600D01*
X61469897Y-100586600D02*
X61517516Y-100538980D01*
X61517516Y-100538980D02*
X61565135Y-100443742D01*
X61565135Y-100443742D02*
X61565135Y-100158028D01*
X61565135Y-100158028D02*
X61517516Y-100062790D01*
X61517516Y-100062790D02*
X61469897Y-100015171D01*
X61469897Y-100015171D02*
X61374659Y-99967552D01*
X61374659Y-99967552D02*
X61231802Y-99967552D01*
X61231802Y-99967552D02*
X61136564Y-100015171D01*
X61136564Y-100015171D02*
X61088945Y-100062790D01*
X61088945Y-100062790D02*
X61041326Y-100158028D01*
X61041326Y-100158028D02*
X61041326Y-100443742D01*
X61041326Y-100443742D02*
X61088945Y-100538980D01*
X61088945Y-100538980D02*
X61136564Y-100586600D01*
X61136564Y-100586600D02*
X61231802Y-100634219D01*
X61231802Y-100634219D02*
X61374659Y-100634219D01*
X60612754Y-100634219D02*
X60612754Y-99967552D01*
X60612754Y-100158028D02*
X60565135Y-100062790D01*
X60565135Y-100062790D02*
X60517516Y-100015171D01*
X60517516Y-100015171D02*
X60422278Y-99967552D01*
X60422278Y-99967552D02*
X60327040Y-99967552D01*
X60136563Y-99967552D02*
X59755611Y-99967552D01*
X59993706Y-99634219D02*
X59993706Y-100491361D01*
X59993706Y-100491361D02*
X59946087Y-100586600D01*
X59946087Y-100586600D02*
X59850849Y-100634219D01*
X59850849Y-100634219D02*
X59755611Y-100634219D01*
X63541326Y-98607552D02*
X63541326Y-99607552D01*
X63541326Y-98655171D02*
X63446088Y-98607552D01*
X63446088Y-98607552D02*
X63255612Y-98607552D01*
X63255612Y-98607552D02*
X63160374Y-98655171D01*
X63160374Y-98655171D02*
X63112755Y-98702790D01*
X63112755Y-98702790D02*
X63065136Y-98798028D01*
X63065136Y-98798028D02*
X63065136Y-99083742D01*
X63065136Y-99083742D02*
X63112755Y-99178980D01*
X63112755Y-99178980D02*
X63160374Y-99226600D01*
X63160374Y-99226600D02*
X63255612Y-99274219D01*
X63255612Y-99274219D02*
X63446088Y-99274219D01*
X63446088Y-99274219D02*
X63541326Y-99226600D01*
X62207993Y-99226600D02*
X62303231Y-99274219D01*
X62303231Y-99274219D02*
X62493707Y-99274219D01*
X62493707Y-99274219D02*
X62588945Y-99226600D01*
X62588945Y-99226600D02*
X62636564Y-99178980D01*
X62636564Y-99178980D02*
X62684183Y-99083742D01*
X62684183Y-99083742D02*
X62684183Y-98798028D01*
X62684183Y-98798028D02*
X62636564Y-98702790D01*
X62636564Y-98702790D02*
X62588945Y-98655171D01*
X62588945Y-98655171D02*
X62493707Y-98607552D01*
X62493707Y-98607552D02*
X62303231Y-98607552D01*
X62303231Y-98607552D02*
X62207993Y-98655171D01*
X61779421Y-99274219D02*
X61779421Y-98274219D01*
X61779421Y-98655171D02*
X61684183Y-98607552D01*
X61684183Y-98607552D02*
X61493707Y-98607552D01*
X61493707Y-98607552D02*
X61398469Y-98655171D01*
X61398469Y-98655171D02*
X61350850Y-98702790D01*
X61350850Y-98702790D02*
X61303231Y-98798028D01*
X61303231Y-98798028D02*
X61303231Y-99083742D01*
X61303231Y-99083742D02*
X61350850Y-99178980D01*
X61350850Y-99178980D02*
X61398469Y-99226600D01*
X61398469Y-99226600D02*
X61493707Y-99274219D01*
X61493707Y-99274219D02*
X61684183Y-99274219D01*
X61684183Y-99274219D02*
X61779421Y-99226600D01*
X128381945Y-61496600D02*
X128286707Y-61544219D01*
X128286707Y-61544219D02*
X128096231Y-61544219D01*
X128096231Y-61544219D02*
X128000993Y-61496600D01*
X128000993Y-61496600D02*
X127953374Y-61401361D01*
X127953374Y-61401361D02*
X127953374Y-61353742D01*
X127953374Y-61353742D02*
X128000993Y-61258504D01*
X128000993Y-61258504D02*
X128096231Y-61210885D01*
X128096231Y-61210885D02*
X128239088Y-61210885D01*
X128239088Y-61210885D02*
X128334326Y-61163266D01*
X128334326Y-61163266D02*
X128381945Y-61068028D01*
X128381945Y-61068028D02*
X128381945Y-61020409D01*
X128381945Y-61020409D02*
X128334326Y-60925171D01*
X128334326Y-60925171D02*
X128239088Y-60877552D01*
X128239088Y-60877552D02*
X128096231Y-60877552D01*
X128096231Y-60877552D02*
X128000993Y-60925171D01*
X127096231Y-60877552D02*
X127096231Y-61544219D01*
X127524802Y-60877552D02*
X127524802Y-61401361D01*
X127524802Y-61401361D02*
X127477183Y-61496600D01*
X127477183Y-61496600D02*
X127381945Y-61544219D01*
X127381945Y-61544219D02*
X127239088Y-61544219D01*
X127239088Y-61544219D02*
X127143850Y-61496600D01*
X127143850Y-61496600D02*
X127096231Y-61448980D01*
X126620040Y-60877552D02*
X126620040Y-61877552D01*
X126620040Y-60925171D02*
X126524802Y-60877552D01*
X126524802Y-60877552D02*
X126334326Y-60877552D01*
X126334326Y-60877552D02*
X126239088Y-60925171D01*
X126239088Y-60925171D02*
X126191469Y-60972790D01*
X126191469Y-60972790D02*
X126143850Y-61068028D01*
X126143850Y-61068028D02*
X126143850Y-61353742D01*
X126143850Y-61353742D02*
X126191469Y-61448980D01*
X126191469Y-61448980D02*
X126239088Y-61496600D01*
X126239088Y-61496600D02*
X126334326Y-61544219D01*
X126334326Y-61544219D02*
X126524802Y-61544219D01*
X126524802Y-61544219D02*
X126620040Y-61496600D01*
X125715278Y-60877552D02*
X125715278Y-61877552D01*
X125715278Y-60925171D02*
X125620040Y-60877552D01*
X125620040Y-60877552D02*
X125429564Y-60877552D01*
X125429564Y-60877552D02*
X125334326Y-60925171D01*
X125334326Y-60925171D02*
X125286707Y-60972790D01*
X125286707Y-60972790D02*
X125239088Y-61068028D01*
X125239088Y-61068028D02*
X125239088Y-61353742D01*
X125239088Y-61353742D02*
X125286707Y-61448980D01*
X125286707Y-61448980D02*
X125334326Y-61496600D01*
X125334326Y-61496600D02*
X125429564Y-61544219D01*
X125429564Y-61544219D02*
X125620040Y-61544219D01*
X125620040Y-61544219D02*
X125715278Y-61496600D01*
X124667659Y-61544219D02*
X124762897Y-61496600D01*
X124762897Y-61496600D02*
X124810516Y-61448980D01*
X124810516Y-61448980D02*
X124858135Y-61353742D01*
X124858135Y-61353742D02*
X124858135Y-61068028D01*
X124858135Y-61068028D02*
X124810516Y-60972790D01*
X124810516Y-60972790D02*
X124762897Y-60925171D01*
X124762897Y-60925171D02*
X124667659Y-60877552D01*
X124667659Y-60877552D02*
X124524802Y-60877552D01*
X124524802Y-60877552D02*
X124429564Y-60925171D01*
X124429564Y-60925171D02*
X124381945Y-60972790D01*
X124381945Y-60972790D02*
X124334326Y-61068028D01*
X124334326Y-61068028D02*
X124334326Y-61353742D01*
X124334326Y-61353742D02*
X124381945Y-61448980D01*
X124381945Y-61448980D02*
X124429564Y-61496600D01*
X124429564Y-61496600D02*
X124524802Y-61544219D01*
X124524802Y-61544219D02*
X124667659Y-61544219D01*
X123905754Y-61544219D02*
X123905754Y-60877552D01*
X123905754Y-61068028D02*
X123858135Y-60972790D01*
X123858135Y-60972790D02*
X123810516Y-60925171D01*
X123810516Y-60925171D02*
X123715278Y-60877552D01*
X123715278Y-60877552D02*
X123620040Y-60877552D01*
X123429563Y-60877552D02*
X123048611Y-60877552D01*
X123286706Y-60544219D02*
X123286706Y-61401361D01*
X123286706Y-61401361D02*
X123239087Y-61496600D01*
X123239087Y-61496600D02*
X123143849Y-61544219D01*
X123143849Y-61544219D02*
X123048611Y-61544219D01*
X126834326Y-59517552D02*
X126834326Y-60517552D01*
X126834326Y-59565171D02*
X126739088Y-59517552D01*
X126739088Y-59517552D02*
X126548612Y-59517552D01*
X126548612Y-59517552D02*
X126453374Y-59565171D01*
X126453374Y-59565171D02*
X126405755Y-59612790D01*
X126405755Y-59612790D02*
X126358136Y-59708028D01*
X126358136Y-59708028D02*
X126358136Y-59993742D01*
X126358136Y-59993742D02*
X126405755Y-60088980D01*
X126405755Y-60088980D02*
X126453374Y-60136600D01*
X126453374Y-60136600D02*
X126548612Y-60184219D01*
X126548612Y-60184219D02*
X126739088Y-60184219D01*
X126739088Y-60184219D02*
X126834326Y-60136600D01*
X125500993Y-60136600D02*
X125596231Y-60184219D01*
X125596231Y-60184219D02*
X125786707Y-60184219D01*
X125786707Y-60184219D02*
X125881945Y-60136600D01*
X125881945Y-60136600D02*
X125929564Y-60088980D01*
X125929564Y-60088980D02*
X125977183Y-59993742D01*
X125977183Y-59993742D02*
X125977183Y-59708028D01*
X125977183Y-59708028D02*
X125929564Y-59612790D01*
X125929564Y-59612790D02*
X125881945Y-59565171D01*
X125881945Y-59565171D02*
X125786707Y-59517552D01*
X125786707Y-59517552D02*
X125596231Y-59517552D01*
X125596231Y-59517552D02*
X125500993Y-59565171D01*
X125072421Y-60184219D02*
X125072421Y-59184219D01*
X125072421Y-59565171D02*
X124977183Y-59517552D01*
X124977183Y-59517552D02*
X124786707Y-59517552D01*
X124786707Y-59517552D02*
X124691469Y-59565171D01*
X124691469Y-59565171D02*
X124643850Y-59612790D01*
X124643850Y-59612790D02*
X124596231Y-59708028D01*
X124596231Y-59708028D02*
X124596231Y-59993742D01*
X124596231Y-59993742D02*
X124643850Y-60088980D01*
X124643850Y-60088980D02*
X124691469Y-60136600D01*
X124691469Y-60136600D02*
X124786707Y-60184219D01*
X124786707Y-60184219D02*
X124977183Y-60184219D01*
X124977183Y-60184219D02*
X125072421Y-60136600D01*
X49835445Y-62486600D02*
X49740207Y-62534219D01*
X49740207Y-62534219D02*
X49549731Y-62534219D01*
X49549731Y-62534219D02*
X49454493Y-62486600D01*
X49454493Y-62486600D02*
X49406874Y-62391361D01*
X49406874Y-62391361D02*
X49406874Y-62343742D01*
X49406874Y-62343742D02*
X49454493Y-62248504D01*
X49454493Y-62248504D02*
X49549731Y-62200885D01*
X49549731Y-62200885D02*
X49692588Y-62200885D01*
X49692588Y-62200885D02*
X49787826Y-62153266D01*
X49787826Y-62153266D02*
X49835445Y-62058028D01*
X49835445Y-62058028D02*
X49835445Y-62010409D01*
X49835445Y-62010409D02*
X49787826Y-61915171D01*
X49787826Y-61915171D02*
X49692588Y-61867552D01*
X49692588Y-61867552D02*
X49549731Y-61867552D01*
X49549731Y-61867552D02*
X49454493Y-61915171D01*
X48549731Y-61867552D02*
X48549731Y-62534219D01*
X48978302Y-61867552D02*
X48978302Y-62391361D01*
X48978302Y-62391361D02*
X48930683Y-62486600D01*
X48930683Y-62486600D02*
X48835445Y-62534219D01*
X48835445Y-62534219D02*
X48692588Y-62534219D01*
X48692588Y-62534219D02*
X48597350Y-62486600D01*
X48597350Y-62486600D02*
X48549731Y-62438980D01*
X48073540Y-61867552D02*
X48073540Y-62867552D01*
X48073540Y-61915171D02*
X47978302Y-61867552D01*
X47978302Y-61867552D02*
X47787826Y-61867552D01*
X47787826Y-61867552D02*
X47692588Y-61915171D01*
X47692588Y-61915171D02*
X47644969Y-61962790D01*
X47644969Y-61962790D02*
X47597350Y-62058028D01*
X47597350Y-62058028D02*
X47597350Y-62343742D01*
X47597350Y-62343742D02*
X47644969Y-62438980D01*
X47644969Y-62438980D02*
X47692588Y-62486600D01*
X47692588Y-62486600D02*
X47787826Y-62534219D01*
X47787826Y-62534219D02*
X47978302Y-62534219D01*
X47978302Y-62534219D02*
X48073540Y-62486600D01*
X47168778Y-61867552D02*
X47168778Y-62867552D01*
X47168778Y-61915171D02*
X47073540Y-61867552D01*
X47073540Y-61867552D02*
X46883064Y-61867552D01*
X46883064Y-61867552D02*
X46787826Y-61915171D01*
X46787826Y-61915171D02*
X46740207Y-61962790D01*
X46740207Y-61962790D02*
X46692588Y-62058028D01*
X46692588Y-62058028D02*
X46692588Y-62343742D01*
X46692588Y-62343742D02*
X46740207Y-62438980D01*
X46740207Y-62438980D02*
X46787826Y-62486600D01*
X46787826Y-62486600D02*
X46883064Y-62534219D01*
X46883064Y-62534219D02*
X47073540Y-62534219D01*
X47073540Y-62534219D02*
X47168778Y-62486600D01*
X46121159Y-62534219D02*
X46216397Y-62486600D01*
X46216397Y-62486600D02*
X46264016Y-62438980D01*
X46264016Y-62438980D02*
X46311635Y-62343742D01*
X46311635Y-62343742D02*
X46311635Y-62058028D01*
X46311635Y-62058028D02*
X46264016Y-61962790D01*
X46264016Y-61962790D02*
X46216397Y-61915171D01*
X46216397Y-61915171D02*
X46121159Y-61867552D01*
X46121159Y-61867552D02*
X45978302Y-61867552D01*
X45978302Y-61867552D02*
X45883064Y-61915171D01*
X45883064Y-61915171D02*
X45835445Y-61962790D01*
X45835445Y-61962790D02*
X45787826Y-62058028D01*
X45787826Y-62058028D02*
X45787826Y-62343742D01*
X45787826Y-62343742D02*
X45835445Y-62438980D01*
X45835445Y-62438980D02*
X45883064Y-62486600D01*
X45883064Y-62486600D02*
X45978302Y-62534219D01*
X45978302Y-62534219D02*
X46121159Y-62534219D01*
X45359254Y-62534219D02*
X45359254Y-61867552D01*
X45359254Y-62058028D02*
X45311635Y-61962790D01*
X45311635Y-61962790D02*
X45264016Y-61915171D01*
X45264016Y-61915171D02*
X45168778Y-61867552D01*
X45168778Y-61867552D02*
X45073540Y-61867552D01*
X44883063Y-61867552D02*
X44502111Y-61867552D01*
X44740206Y-61534219D02*
X44740206Y-62391361D01*
X44740206Y-62391361D02*
X44692587Y-62486600D01*
X44692587Y-62486600D02*
X44597349Y-62534219D01*
X44597349Y-62534219D02*
X44502111Y-62534219D01*
X48287826Y-60507552D02*
X48287826Y-61507552D01*
X48287826Y-60555171D02*
X48192588Y-60507552D01*
X48192588Y-60507552D02*
X48002112Y-60507552D01*
X48002112Y-60507552D02*
X47906874Y-60555171D01*
X47906874Y-60555171D02*
X47859255Y-60602790D01*
X47859255Y-60602790D02*
X47811636Y-60698028D01*
X47811636Y-60698028D02*
X47811636Y-60983742D01*
X47811636Y-60983742D02*
X47859255Y-61078980D01*
X47859255Y-61078980D02*
X47906874Y-61126600D01*
X47906874Y-61126600D02*
X48002112Y-61174219D01*
X48002112Y-61174219D02*
X48192588Y-61174219D01*
X48192588Y-61174219D02*
X48287826Y-61126600D01*
X46954493Y-61126600D02*
X47049731Y-61174219D01*
X47049731Y-61174219D02*
X47240207Y-61174219D01*
X47240207Y-61174219D02*
X47335445Y-61126600D01*
X47335445Y-61126600D02*
X47383064Y-61078980D01*
X47383064Y-61078980D02*
X47430683Y-60983742D01*
X47430683Y-60983742D02*
X47430683Y-60698028D01*
X47430683Y-60698028D02*
X47383064Y-60602790D01*
X47383064Y-60602790D02*
X47335445Y-60555171D01*
X47335445Y-60555171D02*
X47240207Y-60507552D01*
X47240207Y-60507552D02*
X47049731Y-60507552D01*
X47049731Y-60507552D02*
X46954493Y-60555171D01*
X46525921Y-61174219D02*
X46525921Y-60174219D01*
X46525921Y-60555171D02*
X46430683Y-60507552D01*
X46430683Y-60507552D02*
X46240207Y-60507552D01*
X46240207Y-60507552D02*
X46144969Y-60555171D01*
X46144969Y-60555171D02*
X46097350Y-60602790D01*
X46097350Y-60602790D02*
X46049731Y-60698028D01*
X46049731Y-60698028D02*
X46049731Y-60983742D01*
X46049731Y-60983742D02*
X46097350Y-61078980D01*
X46097350Y-61078980D02*
X46144969Y-61126600D01*
X46144969Y-61126600D02*
X46240207Y-61174219D01*
X46240207Y-61174219D02*
X46430683Y-61174219D01*
X46430683Y-61174219D02*
X46525921Y-61126600D01*
X172269326Y-117362219D02*
X172269326Y-116362219D01*
X171840755Y-117362219D02*
X171840755Y-116838409D01*
X171840755Y-116838409D02*
X171888374Y-116743171D01*
X171888374Y-116743171D02*
X171983612Y-116695552D01*
X171983612Y-116695552D02*
X172126469Y-116695552D01*
X172126469Y-116695552D02*
X172221707Y-116743171D01*
X172221707Y-116743171D02*
X172269326Y-116790790D01*
X171221707Y-117362219D02*
X171316945Y-117314600D01*
X171316945Y-117314600D02*
X171364564Y-117266980D01*
X171364564Y-117266980D02*
X171412183Y-117171742D01*
X171412183Y-117171742D02*
X171412183Y-116886028D01*
X171412183Y-116886028D02*
X171364564Y-116790790D01*
X171364564Y-116790790D02*
X171316945Y-116743171D01*
X171316945Y-116743171D02*
X171221707Y-116695552D01*
X171221707Y-116695552D02*
X171078850Y-116695552D01*
X171078850Y-116695552D02*
X170983612Y-116743171D01*
X170983612Y-116743171D02*
X170935993Y-116790790D01*
X170935993Y-116790790D02*
X170888374Y-116886028D01*
X170888374Y-116886028D02*
X170888374Y-117171742D01*
X170888374Y-117171742D02*
X170935993Y-117266980D01*
X170935993Y-117266980D02*
X170983612Y-117314600D01*
X170983612Y-117314600D02*
X171078850Y-117362219D01*
X171078850Y-117362219D02*
X171221707Y-117362219D01*
X170316945Y-117362219D02*
X170412183Y-117314600D01*
X170412183Y-117314600D02*
X170459802Y-117219361D01*
X170459802Y-117219361D02*
X170459802Y-116362219D01*
X169555040Y-117314600D02*
X169650278Y-117362219D01*
X169650278Y-117362219D02*
X169840754Y-117362219D01*
X169840754Y-117362219D02*
X169935992Y-117314600D01*
X169935992Y-117314600D02*
X169983611Y-117219361D01*
X169983611Y-117219361D02*
X169983611Y-116838409D01*
X169983611Y-116838409D02*
X169935992Y-116743171D01*
X169935992Y-116743171D02*
X169840754Y-116695552D01*
X169840754Y-116695552D02*
X169650278Y-116695552D01*
X169650278Y-116695552D02*
X169555040Y-116743171D01*
X169555040Y-116743171D02*
X169507421Y-116838409D01*
X169507421Y-116838409D02*
X169507421Y-116933647D01*
X169507421Y-116933647D02*
X169983611Y-117028885D01*
X174239326Y-115952219D02*
X174239326Y-115285552D01*
X174239326Y-115380790D02*
X174191707Y-115333171D01*
X174191707Y-115333171D02*
X174096469Y-115285552D01*
X174096469Y-115285552D02*
X173953612Y-115285552D01*
X173953612Y-115285552D02*
X173858374Y-115333171D01*
X173858374Y-115333171D02*
X173810755Y-115428409D01*
X173810755Y-115428409D02*
X173810755Y-115952219D01*
X173810755Y-115428409D02*
X173763136Y-115333171D01*
X173763136Y-115333171D02*
X173667898Y-115285552D01*
X173667898Y-115285552D02*
X173525041Y-115285552D01*
X173525041Y-115285552D02*
X173429802Y-115333171D01*
X173429802Y-115333171D02*
X173382183Y-115428409D01*
X173382183Y-115428409D02*
X173382183Y-115952219D01*
X172763136Y-115952219D02*
X172858374Y-115904600D01*
X172858374Y-115904600D02*
X172905993Y-115856980D01*
X172905993Y-115856980D02*
X172953612Y-115761742D01*
X172953612Y-115761742D02*
X172953612Y-115476028D01*
X172953612Y-115476028D02*
X172905993Y-115380790D01*
X172905993Y-115380790D02*
X172858374Y-115333171D01*
X172858374Y-115333171D02*
X172763136Y-115285552D01*
X172763136Y-115285552D02*
X172620279Y-115285552D01*
X172620279Y-115285552D02*
X172525041Y-115333171D01*
X172525041Y-115333171D02*
X172477422Y-115380790D01*
X172477422Y-115380790D02*
X172429803Y-115476028D01*
X172429803Y-115476028D02*
X172429803Y-115761742D01*
X172429803Y-115761742D02*
X172477422Y-115856980D01*
X172477422Y-115856980D02*
X172525041Y-115904600D01*
X172525041Y-115904600D02*
X172620279Y-115952219D01*
X172620279Y-115952219D02*
X172763136Y-115952219D01*
X171572660Y-115285552D02*
X171572660Y-115952219D01*
X172001231Y-115285552D02*
X172001231Y-115809361D01*
X172001231Y-115809361D02*
X171953612Y-115904600D01*
X171953612Y-115904600D02*
X171858374Y-115952219D01*
X171858374Y-115952219D02*
X171715517Y-115952219D01*
X171715517Y-115952219D02*
X171620279Y-115904600D01*
X171620279Y-115904600D02*
X171572660Y-115856980D01*
X171096469Y-115285552D02*
X171096469Y-115952219D01*
X171096469Y-115380790D02*
X171048850Y-115333171D01*
X171048850Y-115333171D02*
X170953612Y-115285552D01*
X170953612Y-115285552D02*
X170810755Y-115285552D01*
X170810755Y-115285552D02*
X170715517Y-115333171D01*
X170715517Y-115333171D02*
X170667898Y-115428409D01*
X170667898Y-115428409D02*
X170667898Y-115952219D01*
X170334564Y-115285552D02*
X169953612Y-115285552D01*
X170191707Y-114952219D02*
X170191707Y-115809361D01*
X170191707Y-115809361D02*
X170144088Y-115904600D01*
X170144088Y-115904600D02*
X170048850Y-115952219D01*
X170048850Y-115952219D02*
X169953612Y-115952219D01*
X169620278Y-115952219D02*
X169620278Y-115285552D01*
X169620278Y-114952219D02*
X169667897Y-114999838D01*
X169667897Y-114999838D02*
X169620278Y-115047457D01*
X169620278Y-115047457D02*
X169572659Y-114999838D01*
X169572659Y-114999838D02*
X169620278Y-114952219D01*
X169620278Y-114952219D02*
X169620278Y-115047457D01*
X169144088Y-115285552D02*
X169144088Y-115952219D01*
X169144088Y-115380790D02*
X169096469Y-115333171D01*
X169096469Y-115333171D02*
X169001231Y-115285552D01*
X169001231Y-115285552D02*
X168858374Y-115285552D01*
X168858374Y-115285552D02*
X168763136Y-115333171D01*
X168763136Y-115333171D02*
X168715517Y-115428409D01*
X168715517Y-115428409D02*
X168715517Y-115952219D01*
X167810755Y-115285552D02*
X167810755Y-116095076D01*
X167810755Y-116095076D02*
X167858374Y-116190314D01*
X167858374Y-116190314D02*
X167905993Y-116237933D01*
X167905993Y-116237933D02*
X168001231Y-116285552D01*
X168001231Y-116285552D02*
X168144088Y-116285552D01*
X168144088Y-116285552D02*
X168239326Y-116237933D01*
X167810755Y-115904600D02*
X167905993Y-115952219D01*
X167905993Y-115952219D02*
X168096469Y-115952219D01*
X168096469Y-115952219D02*
X168191707Y-115904600D01*
X168191707Y-115904600D02*
X168239326Y-115856980D01*
X168239326Y-115856980D02*
X168286945Y-115761742D01*
X168286945Y-115761742D02*
X168286945Y-115476028D01*
X168286945Y-115476028D02*
X168239326Y-115380790D01*
X168239326Y-115380790D02*
X168191707Y-115333171D01*
X168191707Y-115333171D02*
X168096469Y-115285552D01*
X168096469Y-115285552D02*
X167905993Y-115285552D01*
X167905993Y-115285552D02*
X167810755Y-115333171D01*
X106329326Y-39632219D02*
X106329326Y-38632219D01*
X105900755Y-39632219D02*
X105900755Y-39108409D01*
X105900755Y-39108409D02*
X105948374Y-39013171D01*
X105948374Y-39013171D02*
X106043612Y-38965552D01*
X106043612Y-38965552D02*
X106186469Y-38965552D01*
X106186469Y-38965552D02*
X106281707Y-39013171D01*
X106281707Y-39013171D02*
X106329326Y-39060790D01*
X105281707Y-39632219D02*
X105376945Y-39584600D01*
X105376945Y-39584600D02*
X105424564Y-39536980D01*
X105424564Y-39536980D02*
X105472183Y-39441742D01*
X105472183Y-39441742D02*
X105472183Y-39156028D01*
X105472183Y-39156028D02*
X105424564Y-39060790D01*
X105424564Y-39060790D02*
X105376945Y-39013171D01*
X105376945Y-39013171D02*
X105281707Y-38965552D01*
X105281707Y-38965552D02*
X105138850Y-38965552D01*
X105138850Y-38965552D02*
X105043612Y-39013171D01*
X105043612Y-39013171D02*
X104995993Y-39060790D01*
X104995993Y-39060790D02*
X104948374Y-39156028D01*
X104948374Y-39156028D02*
X104948374Y-39441742D01*
X104948374Y-39441742D02*
X104995993Y-39536980D01*
X104995993Y-39536980D02*
X105043612Y-39584600D01*
X105043612Y-39584600D02*
X105138850Y-39632219D01*
X105138850Y-39632219D02*
X105281707Y-39632219D01*
X104376945Y-39632219D02*
X104472183Y-39584600D01*
X104472183Y-39584600D02*
X104519802Y-39489361D01*
X104519802Y-39489361D02*
X104519802Y-38632219D01*
X103615040Y-39584600D02*
X103710278Y-39632219D01*
X103710278Y-39632219D02*
X103900754Y-39632219D01*
X103900754Y-39632219D02*
X103995992Y-39584600D01*
X103995992Y-39584600D02*
X104043611Y-39489361D01*
X104043611Y-39489361D02*
X104043611Y-39108409D01*
X104043611Y-39108409D02*
X103995992Y-39013171D01*
X103995992Y-39013171D02*
X103900754Y-38965552D01*
X103900754Y-38965552D02*
X103710278Y-38965552D01*
X103710278Y-38965552D02*
X103615040Y-39013171D01*
X103615040Y-39013171D02*
X103567421Y-39108409D01*
X103567421Y-39108409D02*
X103567421Y-39203647D01*
X103567421Y-39203647D02*
X104043611Y-39298885D01*
X108249326Y-38202219D02*
X108249326Y-37535552D01*
X108249326Y-37630790D02*
X108201707Y-37583171D01*
X108201707Y-37583171D02*
X108106469Y-37535552D01*
X108106469Y-37535552D02*
X107963612Y-37535552D01*
X107963612Y-37535552D02*
X107868374Y-37583171D01*
X107868374Y-37583171D02*
X107820755Y-37678409D01*
X107820755Y-37678409D02*
X107820755Y-38202219D01*
X107820755Y-37678409D02*
X107773136Y-37583171D01*
X107773136Y-37583171D02*
X107677898Y-37535552D01*
X107677898Y-37535552D02*
X107535041Y-37535552D01*
X107535041Y-37535552D02*
X107439802Y-37583171D01*
X107439802Y-37583171D02*
X107392183Y-37678409D01*
X107392183Y-37678409D02*
X107392183Y-38202219D01*
X106773136Y-38202219D02*
X106868374Y-38154600D01*
X106868374Y-38154600D02*
X106915993Y-38106980D01*
X106915993Y-38106980D02*
X106963612Y-38011742D01*
X106963612Y-38011742D02*
X106963612Y-37726028D01*
X106963612Y-37726028D02*
X106915993Y-37630790D01*
X106915993Y-37630790D02*
X106868374Y-37583171D01*
X106868374Y-37583171D02*
X106773136Y-37535552D01*
X106773136Y-37535552D02*
X106630279Y-37535552D01*
X106630279Y-37535552D02*
X106535041Y-37583171D01*
X106535041Y-37583171D02*
X106487422Y-37630790D01*
X106487422Y-37630790D02*
X106439803Y-37726028D01*
X106439803Y-37726028D02*
X106439803Y-38011742D01*
X106439803Y-38011742D02*
X106487422Y-38106980D01*
X106487422Y-38106980D02*
X106535041Y-38154600D01*
X106535041Y-38154600D02*
X106630279Y-38202219D01*
X106630279Y-38202219D02*
X106773136Y-38202219D01*
X105582660Y-37535552D02*
X105582660Y-38202219D01*
X106011231Y-37535552D02*
X106011231Y-38059361D01*
X106011231Y-38059361D02*
X105963612Y-38154600D01*
X105963612Y-38154600D02*
X105868374Y-38202219D01*
X105868374Y-38202219D02*
X105725517Y-38202219D01*
X105725517Y-38202219D02*
X105630279Y-38154600D01*
X105630279Y-38154600D02*
X105582660Y-38106980D01*
X105106469Y-37535552D02*
X105106469Y-38202219D01*
X105106469Y-37630790D02*
X105058850Y-37583171D01*
X105058850Y-37583171D02*
X104963612Y-37535552D01*
X104963612Y-37535552D02*
X104820755Y-37535552D01*
X104820755Y-37535552D02*
X104725517Y-37583171D01*
X104725517Y-37583171D02*
X104677898Y-37678409D01*
X104677898Y-37678409D02*
X104677898Y-38202219D01*
X104344564Y-37535552D02*
X103963612Y-37535552D01*
X104201707Y-37202219D02*
X104201707Y-38059361D01*
X104201707Y-38059361D02*
X104154088Y-38154600D01*
X104154088Y-38154600D02*
X104058850Y-38202219D01*
X104058850Y-38202219D02*
X103963612Y-38202219D01*
X103630278Y-38202219D02*
X103630278Y-37535552D01*
X103630278Y-37202219D02*
X103677897Y-37249838D01*
X103677897Y-37249838D02*
X103630278Y-37297457D01*
X103630278Y-37297457D02*
X103582659Y-37249838D01*
X103582659Y-37249838D02*
X103630278Y-37202219D01*
X103630278Y-37202219D02*
X103630278Y-37297457D01*
X103154088Y-37535552D02*
X103154088Y-38202219D01*
X103154088Y-37630790D02*
X103106469Y-37583171D01*
X103106469Y-37583171D02*
X103011231Y-37535552D01*
X103011231Y-37535552D02*
X102868374Y-37535552D01*
X102868374Y-37535552D02*
X102773136Y-37583171D01*
X102773136Y-37583171D02*
X102725517Y-37678409D01*
X102725517Y-37678409D02*
X102725517Y-38202219D01*
X101820755Y-37535552D02*
X101820755Y-38345076D01*
X101820755Y-38345076D02*
X101868374Y-38440314D01*
X101868374Y-38440314D02*
X101915993Y-38487933D01*
X101915993Y-38487933D02*
X102011231Y-38535552D01*
X102011231Y-38535552D02*
X102154088Y-38535552D01*
X102154088Y-38535552D02*
X102249326Y-38487933D01*
X101820755Y-38154600D02*
X101915993Y-38202219D01*
X101915993Y-38202219D02*
X102106469Y-38202219D01*
X102106469Y-38202219D02*
X102201707Y-38154600D01*
X102201707Y-38154600D02*
X102249326Y-38106980D01*
X102249326Y-38106980D02*
X102296945Y-38011742D01*
X102296945Y-38011742D02*
X102296945Y-37726028D01*
X102296945Y-37726028D02*
X102249326Y-37630790D01*
X102249326Y-37630790D02*
X102201707Y-37583171D01*
X102201707Y-37583171D02*
X102106469Y-37535552D01*
X102106469Y-37535552D02*
X101915993Y-37535552D01*
X101915993Y-37535552D02*
X101820755Y-37583171D01*
D11*
X71770069Y-128106530D02*
X70770069Y-128106530D01*
X70770069Y-128106530D02*
X70770069Y-128344625D01*
X70770069Y-128344625D02*
X70817688Y-128487482D01*
X70817688Y-128487482D02*
X70912926Y-128582720D01*
X70912926Y-128582720D02*
X71008164Y-128630339D01*
X71008164Y-128630339D02*
X71198640Y-128677958D01*
X71198640Y-128677958D02*
X71341497Y-128677958D01*
X71341497Y-128677958D02*
X71531973Y-128630339D01*
X71531973Y-128630339D02*
X71627211Y-128582720D01*
X71627211Y-128582720D02*
X71722450Y-128487482D01*
X71722450Y-128487482D02*
X71770069Y-128344625D01*
X71770069Y-128344625D02*
X71770069Y-128106530D01*
X70770069Y-129011292D02*
X70770069Y-129677958D01*
X70770069Y-129677958D02*
X71770069Y-129249387D01*
D12*
%TO.C,S34*%
X161649000Y-97057000D02*
X161649000Y-111257000D01*
X161649000Y-111257000D02*
X175849000Y-111257000D01*
X168949000Y-106857000D02*
X163849000Y-106857000D01*
X172849000Y-111057000D02*
X167749000Y-111057000D01*
X175849000Y-97057000D02*
X161649000Y-97057000D01*
X175849000Y-111257000D02*
X175849000Y-97057000D01*
X170949000Y-104857000D02*
G75*
G02*
X168949000Y-106857000I-1999999J-1D01*
G01*
X174849000Y-109057000D02*
G75*
G02*
X172849000Y-111057000I-1999999J-1D01*
G01*
%TO.C,S17*%
X90249000Y-58967000D02*
X90249000Y-73167000D01*
X90249000Y-73167000D02*
X104449000Y-73167000D01*
X97549000Y-68767000D02*
X92449000Y-68767000D01*
X101449000Y-72967000D02*
X96349000Y-72967000D01*
X104449000Y-58967000D02*
X90249000Y-58967000D01*
X104449000Y-73167000D02*
X104449000Y-58967000D01*
X99549000Y-66767000D02*
G75*
G02*
X97549000Y-68767000I-1999999J-1D01*
G01*
X103449000Y-70967000D02*
G75*
G02*
X101449000Y-72967000I-1999999J-1D01*
G01*
%TO.C,S8*%
X52169000Y-58967000D02*
X52169000Y-73167000D01*
X52169000Y-73167000D02*
X66369000Y-73167000D01*
X59469000Y-68767000D02*
X54369000Y-68767000D01*
X63369000Y-72967000D02*
X58269000Y-72967000D01*
X66369000Y-58967000D02*
X52169000Y-58967000D01*
X66369000Y-73167000D02*
X66369000Y-58967000D01*
X61469000Y-66767000D02*
G75*
G02*
X59469000Y-68767000I-1999999J-1D01*
G01*
X65369000Y-70967000D02*
G75*
G02*
X63369000Y-72967000I-1999999J-1D01*
G01*
%TO.C,S3*%
X30747750Y-78007000D02*
X30747750Y-92207000D01*
X30747750Y-92207000D02*
X44947750Y-92207000D01*
X38047750Y-87807000D02*
X32947750Y-87807000D01*
X41947750Y-92007000D02*
X36847750Y-92007000D01*
X44947750Y-78007000D02*
X30747750Y-78007000D01*
X44947750Y-92207000D02*
X44947750Y-78007000D01*
X40047750Y-85807000D02*
G75*
G02*
X38047750Y-87807000I-1999999J-1D01*
G01*
X43947750Y-90007000D02*
G75*
G02*
X41947750Y-92007000I-1999999J-1D01*
G01*
%TO.C,S11*%
X66449000Y-97057000D02*
X66449000Y-111257000D01*
X66449000Y-111257000D02*
X80649000Y-111257000D01*
X73749000Y-106857000D02*
X68649000Y-106857000D01*
X77649000Y-111057000D02*
X72549000Y-111057000D01*
X80649000Y-97057000D02*
X66449000Y-97057000D01*
X80649000Y-111257000D02*
X80649000Y-97057000D01*
X75749000Y-104857000D02*
G75*
G02*
X73749000Y-106857000I-1999999J-1D01*
G01*
X79649000Y-109057000D02*
G75*
G02*
X77649000Y-111057000I-1999999J-1D01*
G01*
%TO.C,S4*%
X25985250Y-116087000D02*
X25985250Y-130287000D01*
X25985250Y-130287000D02*
X40185250Y-130287000D01*
X33285250Y-125887000D02*
X28185250Y-125887000D01*
X37185250Y-130087000D02*
X32085250Y-130087000D01*
X40185250Y-116087000D02*
X25985250Y-116087000D01*
X40185250Y-130287000D02*
X40185250Y-116087000D01*
X35285250Y-123887000D02*
G75*
G02*
X33285250Y-125887000I-1999999J-1D01*
G01*
X39185250Y-128087000D02*
G75*
G02*
X37185250Y-130087000I-1999999J-1D01*
G01*
%TO.C,S13*%
X73585250Y-116087000D02*
X73585250Y-130287000D01*
X73585250Y-130287000D02*
X87785250Y-130287000D01*
X80885250Y-125887000D02*
X75785250Y-125887000D01*
X84785250Y-130087000D02*
X79685250Y-130087000D01*
X87785250Y-116087000D02*
X73585250Y-116087000D01*
X87785250Y-130287000D02*
X87785250Y-116087000D01*
X82885250Y-123887000D02*
G75*
G02*
X80885250Y-125887000I-1999999J-1D01*
G01*
X86785250Y-128087000D02*
G75*
G02*
X84785250Y-130087000I-1999999J-1D01*
G01*
%TO.C,S16*%
X85489000Y-97057000D02*
X85489000Y-111257000D01*
X85489000Y-111257000D02*
X99689000Y-111257000D01*
X92789000Y-106857000D02*
X87689000Y-106857000D01*
X96689000Y-111057000D02*
X91589000Y-111057000D01*
X99689000Y-97057000D02*
X85489000Y-97057000D01*
X99689000Y-111257000D02*
X99689000Y-97057000D01*
X94789000Y-104857000D02*
G75*
G02*
X92789000Y-106857000I-1999999J-1D01*
G01*
X98689000Y-109057000D02*
G75*
G02*
X96689000Y-111057000I-1999999J-1D01*
G01*
%TO.C,S21*%
X97385250Y-116087000D02*
X97385250Y-130287000D01*
X97385250Y-130287000D02*
X111585250Y-130287000D01*
X104685250Y-125887000D02*
X99585250Y-125887000D01*
X108585250Y-130087000D02*
X103485250Y-130087000D01*
X111585250Y-116087000D02*
X97385250Y-116087000D01*
X111585250Y-130287000D02*
X111585250Y-116087000D01*
X106685250Y-123887000D02*
G75*
G02*
X104685250Y-125887000I-1999999J-1D01*
G01*
X110585250Y-128087000D02*
G75*
G02*
X108585250Y-130087000I-1999999J-1D01*
G01*
%TO.C,J1*%
X89202310Y-19019533D02*
X91554905Y-30184361D01*
X91554905Y-30184361D02*
X109265983Y-26452375D01*
X106913388Y-15287546D02*
X89202310Y-19019533D01*
X109265983Y-26452375D02*
X106911326Y-15277761D01*
%TO.C,S22*%
X104529000Y-97057000D02*
X104529000Y-111257000D01*
X104529000Y-111257000D02*
X118729000Y-111257000D01*
X111829000Y-106857000D02*
X106729000Y-106857000D01*
X115729000Y-111057000D02*
X110629000Y-111057000D01*
X118729000Y-97057000D02*
X104529000Y-97057000D01*
X118729000Y-111257000D02*
X118729000Y-97057000D01*
X113829000Y-104857000D02*
G75*
G02*
X111829000Y-106857000I-1999999J-1D01*
G01*
X117729000Y-109057000D02*
G75*
G02*
X115729000Y-111057000I-1999999J-1D01*
G01*
%TO.C,S7*%
X49785250Y-116087000D02*
X49785250Y-130287000D01*
X49785250Y-130287000D02*
X63985250Y-130287000D01*
X57085250Y-125887000D02*
X51985250Y-125887000D01*
X60985250Y-130087000D02*
X55885250Y-130087000D01*
X63985250Y-116087000D02*
X49785250Y-116087000D01*
X63985250Y-130287000D02*
X63985250Y-116087000D01*
X59085250Y-123887000D02*
G75*
G02*
X57085250Y-125887000I-1999999J-1D01*
G01*
X62985250Y-128087000D02*
G75*
G02*
X60985250Y-130087000I-1999999J-1D01*
G01*
%TO.C,S5*%
X35510250Y-97057000D02*
X35510250Y-111257000D01*
X35510250Y-111257000D02*
X49710250Y-111257000D01*
X42810250Y-106857000D02*
X37710250Y-106857000D01*
X46710250Y-111057000D02*
X41610250Y-111057000D01*
X49710250Y-97057000D02*
X35510250Y-97057000D01*
X49710250Y-111257000D02*
X49710250Y-97057000D01*
X44810250Y-104857000D02*
G75*
G02*
X42810250Y-106857000I-1999999J-1D01*
G01*
X48710250Y-109057000D02*
G75*
G02*
X46710250Y-111057000I-1999999J-1D01*
G01*
%TO.C,S27*%
X123569000Y-97057000D02*
X123569000Y-111257000D01*
X123569000Y-111257000D02*
X137769000Y-111257000D01*
X130869000Y-106857000D02*
X125769000Y-106857000D01*
X134769000Y-111057000D02*
X129669000Y-111057000D01*
X137769000Y-97057000D02*
X123569000Y-97057000D01*
X137769000Y-111257000D02*
X137769000Y-97057000D01*
X132869000Y-104857000D02*
G75*
G02*
X130869000Y-106857000I-1999999J-1D01*
G01*
X136769000Y-109057000D02*
G75*
G02*
X134769000Y-111057000I-1999999J-1D01*
G01*
%TO.C,S28*%
X128329000Y-58967000D02*
X128329000Y-73167000D01*
X128329000Y-73167000D02*
X142529000Y-73167000D01*
X135629000Y-68767000D02*
X130529000Y-68767000D01*
X139529000Y-72967000D02*
X134429000Y-72967000D01*
X142529000Y-58967000D02*
X128329000Y-58967000D01*
X142529000Y-73167000D02*
X142529000Y-58967000D01*
X137629000Y-66767000D02*
G75*
G02*
X135629000Y-68767000I-1999999J-1D01*
G01*
X141529000Y-70967000D02*
G75*
G02*
X139529000Y-72967000I-1999999J-1D01*
G01*
%TO.C,S29*%
X133099000Y-133602000D02*
X133099000Y-148802000D01*
X133099000Y-148802000D02*
X148299000Y-148802000D01*
X148299000Y-133602000D02*
X133099000Y-133602000D01*
X148299000Y-148802000D02*
X148299000Y-133602000D01*
%TO.C,S20*%
X108349000Y-133602000D02*
X108349000Y-148802000D01*
X108349000Y-148802000D02*
X123549000Y-148802000D01*
X123549000Y-133602000D02*
X108349000Y-133602000D01*
X123549000Y-148802000D02*
X123549000Y-133602000D01*
%TO.C,S23*%
X109289000Y-58967000D02*
X109289000Y-73167000D01*
X109289000Y-73167000D02*
X123489000Y-73167000D01*
X116589000Y-68767000D02*
X111489000Y-68767000D01*
X120489000Y-72967000D02*
X115389000Y-72967000D01*
X123489000Y-58967000D02*
X109289000Y-58967000D01*
X123489000Y-73167000D02*
X123489000Y-58967000D01*
X118589000Y-66767000D02*
G75*
G02*
X116589000Y-68767000I-1999999J-1D01*
G01*
X122489000Y-70967000D02*
G75*
G02*
X120489000Y-72967000I-1999999J-1D01*
G01*
%TO.C,S32*%
X142609000Y-97057000D02*
X142609000Y-111257000D01*
X142609000Y-111257000D02*
X156809000Y-111257000D01*
X149909000Y-106857000D02*
X144809000Y-106857000D01*
X153809000Y-111057000D02*
X148709000Y-111057000D01*
X156809000Y-97057000D02*
X142609000Y-97057000D01*
X156809000Y-111257000D02*
X156809000Y-97057000D01*
X151909000Y-104857000D02*
G75*
G02*
X149909000Y-106857000I-1999999J-1D01*
G01*
X155809000Y-109057000D02*
G75*
G02*
X153809000Y-111057000I-1999999J-1D01*
G01*
%TO.C,S9*%
X56924000Y-78007000D02*
X56924000Y-92207000D01*
X56924000Y-92207000D02*
X71124000Y-92207000D01*
X64224000Y-87807000D02*
X59124000Y-87807000D01*
X68124000Y-92007000D02*
X63024000Y-92007000D01*
X71124000Y-78007000D02*
X56924000Y-78007000D01*
X71124000Y-92207000D02*
X71124000Y-78007000D01*
X66224000Y-85807000D02*
G75*
G02*
X64224000Y-87807000I-1999999J-1D01*
G01*
X70124000Y-90007000D02*
G75*
G02*
X68124000Y-92007000I-1999999J-1D01*
G01*
%TO.C,S2*%
X28366500Y-58957000D02*
X28366500Y-73157000D01*
X28366500Y-73157000D02*
X42566500Y-73157000D01*
X35666500Y-68757000D02*
X30566500Y-68757000D01*
X39566500Y-72957000D02*
X34466500Y-72957000D01*
X42566500Y-58957000D02*
X28366500Y-58957000D01*
X42566500Y-73157000D02*
X42566500Y-58957000D01*
X37666500Y-66757000D02*
G75*
G02*
X35666500Y-68757000I-1999999J-1D01*
G01*
X41566500Y-70957000D02*
G75*
G02*
X39566500Y-72957000I-1999999J-1D01*
G01*
D10*
%TO.C,D6*%
X49219000Y-54889500D02*
X49219000Y-56219500D01*
X49219000Y-56219500D02*
X50389000Y-55544500D01*
X50389000Y-54879500D02*
X50389000Y-56209500D01*
X50389000Y-55544500D02*
X49219000Y-54889500D01*
D13*
X54759000Y-56509500D02*
X53049000Y-56509500D01*
X54769000Y-54549500D02*
X53069000Y-54549500D01*
X54769000Y-54549500D02*
X54769000Y-56499500D01*
D12*
%TO.C,S19*%
X99764000Y-39917000D02*
X99764000Y-54117000D01*
X99764000Y-54117000D02*
X113964000Y-54117000D01*
X107064000Y-49717000D02*
X101964000Y-49717000D01*
X110964000Y-53917000D02*
X105864000Y-53917000D01*
X113964000Y-39917000D02*
X99764000Y-39917000D01*
X113964000Y-54117000D02*
X113964000Y-39917000D01*
X109064000Y-47717000D02*
G75*
G02*
X107064000Y-49717000I-1999999J-1D01*
G01*
X112964000Y-51917000D02*
G75*
G02*
X110964000Y-53917000I-1999999J-1D01*
G01*
%TO.C,S18*%
X95004000Y-78007000D02*
X95004000Y-92207000D01*
X95004000Y-92207000D02*
X109204000Y-92207000D01*
X102304000Y-87807000D02*
X97204000Y-87807000D01*
X106204000Y-92007000D02*
X101104000Y-92007000D01*
X109204000Y-78007000D02*
X95004000Y-78007000D01*
X109204000Y-92207000D02*
X109204000Y-78007000D01*
X104304000Y-85807000D02*
G75*
G02*
X102304000Y-87807000I-1999999J-1D01*
G01*
X108204000Y-90007000D02*
G75*
G02*
X106204000Y-92007000I-1999999J-1D01*
G01*
%TO.C,S12*%
X71209000Y-58967000D02*
X71209000Y-73167000D01*
X71209000Y-73167000D02*
X85409000Y-73167000D01*
X78509000Y-68767000D02*
X73409000Y-68767000D01*
X82409000Y-72967000D02*
X77309000Y-72967000D01*
X85409000Y-58967000D02*
X71209000Y-58967000D01*
X85409000Y-73167000D02*
X85409000Y-58967000D01*
X80509000Y-66767000D02*
G75*
G02*
X78509000Y-68767000I-1999999J-1D01*
G01*
X84409000Y-70967000D02*
G75*
G02*
X82409000Y-72967000I-1999999J-1D01*
G01*
%TO.C,S10*%
X61684000Y-39917000D02*
X61684000Y-54117000D01*
X61684000Y-54117000D02*
X75884000Y-54117000D01*
X68984000Y-49717000D02*
X63884000Y-49717000D01*
X72884000Y-53917000D02*
X67784000Y-53917000D01*
X75884000Y-39917000D02*
X61684000Y-39917000D01*
X75884000Y-54117000D02*
X75884000Y-39917000D01*
X70984000Y-47717000D02*
G75*
G02*
X68984000Y-49717000I-1999999J-1D01*
G01*
X74884000Y-51917000D02*
G75*
G02*
X72884000Y-53917000I-1999999J-1D01*
G01*
%TO.C,S15*%
X80724000Y-39917000D02*
X80724000Y-54117000D01*
X80724000Y-54117000D02*
X94924000Y-54117000D01*
X88024000Y-49717000D02*
X82924000Y-49717000D01*
X91924000Y-53917000D02*
X86824000Y-53917000D01*
X94924000Y-39917000D02*
X80724000Y-39917000D01*
X94924000Y-54117000D02*
X94924000Y-39917000D01*
X90024000Y-47717000D02*
G75*
G02*
X88024000Y-49717000I-1999999J-1D01*
G01*
X93924000Y-51917000D02*
G75*
G02*
X91924000Y-53917000I-1999999J-1D01*
G01*
%TO.C,S26*%
X125947750Y-116087000D02*
X125947750Y-130287000D01*
X125947750Y-130287000D02*
X140147750Y-130287000D01*
X133247750Y-125887000D02*
X128147750Y-125887000D01*
X137147750Y-130087000D02*
X132047750Y-130087000D01*
X140147750Y-116087000D02*
X125947750Y-116087000D01*
X140147750Y-130287000D02*
X140147750Y-116087000D01*
X135247750Y-123887000D02*
G75*
G02*
X133247750Y-125887000I-1999999J-1D01*
G01*
X139147750Y-128087000D02*
G75*
G02*
X137147750Y-130087000I-1999999J-1D01*
G01*
%TO.C,S25*%
X118804000Y-39917000D02*
X118804000Y-54117000D01*
X118804000Y-54117000D02*
X133004000Y-54117000D01*
X126104000Y-49717000D02*
X121004000Y-49717000D01*
X130004000Y-53917000D02*
X124904000Y-53917000D01*
X133004000Y-39917000D02*
X118804000Y-39917000D01*
X133004000Y-54117000D02*
X133004000Y-39917000D01*
X128104000Y-47717000D02*
G75*
G02*
X126104000Y-49717000I-1999999J-1D01*
G01*
X132004000Y-51917000D02*
G75*
G02*
X130004000Y-53917000I-1999999J-1D01*
G01*
%TO.C,S30*%
X133084000Y-78007000D02*
X133084000Y-92207000D01*
X133084000Y-92207000D02*
X147284000Y-92207000D01*
X140384000Y-87807000D02*
X135284000Y-87807000D01*
X144284000Y-92007000D02*
X139184000Y-92007000D01*
X147284000Y-78007000D02*
X133084000Y-78007000D01*
X147284000Y-92207000D02*
X147284000Y-78007000D01*
X142384000Y-85807000D02*
G75*
G02*
X140384000Y-87807000I-1999999J-1D01*
G01*
X146284000Y-90007000D02*
G75*
G02*
X144284000Y-92007000I-1999999J-1D01*
G01*
%TO.C,S1*%
X23604000Y-39917000D02*
X23604000Y-54117000D01*
X23604000Y-54117000D02*
X37804000Y-54117000D01*
X30904000Y-49717000D02*
X25804000Y-49717000D01*
X34804000Y-53917000D02*
X29704000Y-53917000D01*
X37804000Y-39917000D02*
X23604000Y-39917000D01*
X37804000Y-54117000D02*
X37804000Y-39917000D01*
X32904000Y-47717000D02*
G75*
G02*
X30904000Y-49717000I-1999999J-1D01*
G01*
X36804000Y-51917000D02*
G75*
G02*
X34804000Y-53917000I-1999999J-1D01*
G01*
%TO.C,S33*%
X152124000Y-116087000D02*
X152124000Y-130287000D01*
X152124000Y-130287000D02*
X166324000Y-130287000D01*
X159424000Y-125887000D02*
X154324000Y-125887000D01*
X163324000Y-130087000D02*
X158224000Y-130087000D01*
X166324000Y-116087000D02*
X152124000Y-116087000D01*
X166324000Y-130287000D02*
X166324000Y-116087000D01*
X161424000Y-123887000D02*
G75*
G02*
X159424000Y-125887000I-1999999J-1D01*
G01*
X165324000Y-128087000D02*
G75*
G02*
X163324000Y-130087000I-1999999J-1D01*
G01*
%TO.C,S14*%
X75964000Y-78007000D02*
X75964000Y-92207000D01*
X75964000Y-92207000D02*
X90164000Y-92207000D01*
X83264000Y-87807000D02*
X78164000Y-87807000D01*
X87164000Y-92007000D02*
X82064000Y-92007000D01*
X90164000Y-78007000D02*
X75964000Y-78007000D01*
X90164000Y-92207000D02*
X90164000Y-78007000D01*
X85264000Y-85807000D02*
G75*
G02*
X83264000Y-87807000I-1999999J-1D01*
G01*
X89164000Y-90007000D02*
G75*
G02*
X87164000Y-92007000I-1999999J-1D01*
G01*
%TO.C,S6*%
X42644000Y-39917000D02*
X42644000Y-54117000D01*
X42644000Y-54117000D02*
X56844000Y-54117000D01*
X49944000Y-49717000D02*
X44844000Y-49717000D01*
X53844000Y-53917000D02*
X48744000Y-53917000D01*
X56844000Y-39917000D02*
X42644000Y-39917000D01*
X56844000Y-54117000D02*
X56844000Y-39917000D01*
X51944000Y-47717000D02*
G75*
G02*
X49944000Y-49717000I-1999999J-1D01*
G01*
X55844000Y-51917000D02*
G75*
G02*
X53844000Y-53917000I-1999999J-1D01*
G01*
%TO.C,S24*%
X114044000Y-78007000D02*
X114044000Y-92207000D01*
X114044000Y-92207000D02*
X128244000Y-92207000D01*
X121344000Y-87807000D02*
X116244000Y-87807000D01*
X125244000Y-92007000D02*
X120144000Y-92007000D01*
X128244000Y-78007000D02*
X114044000Y-78007000D01*
X128244000Y-92207000D02*
X128244000Y-78007000D01*
X123344000Y-85807000D02*
G75*
G02*
X121344000Y-87807000I-1999999J-1D01*
G01*
X127244000Y-90007000D02*
G75*
G02*
X125244000Y-92007000I-1999999J-1D01*
G01*
%TO.C,S35*%
X175087220Y-132223780D02*
X187384780Y-139323780D01*
X182187220Y-119926220D02*
X175087220Y-132223780D01*
X183609205Y-132063269D02*
X179192476Y-129513269D01*
X184886704Y-137650575D02*
X180469975Y-135100575D01*
X187384780Y-139323780D02*
X194484780Y-127026220D01*
X194484780Y-127026220D02*
X182187220Y-119926220D01*
X186341256Y-131331218D02*
G75*
G02*
X183609205Y-132063269I-1732051J999999D01*
G01*
X187618755Y-136918524D02*
G75*
G02*
X184886704Y-137650575I-1732051J1000000D01*
G01*
%TO.C,S31*%
X137844000Y-39917000D02*
X137844000Y-54117000D01*
X137844000Y-54117000D02*
X152044000Y-54117000D01*
X145144000Y-49717000D02*
X140044000Y-49717000D01*
X149044000Y-53917000D02*
X143944000Y-53917000D01*
X152044000Y-39917000D02*
X137844000Y-39917000D01*
X152044000Y-54117000D02*
X152044000Y-39917000D01*
X147144000Y-47717000D02*
G75*
G02*
X145144000Y-49717000I-1999999J-1D01*
G01*
X151044000Y-51917000D02*
G75*
G02*
X149044000Y-53917000I-1999999J-1D01*
G01*
D10*
%TO.C,D12*%
X77764000Y-74137000D02*
X78934000Y-74792000D01*
X77764000Y-75467000D02*
X77764000Y-74137000D01*
X78934000Y-74792000D02*
X77764000Y-75467000D01*
X78934000Y-75457000D02*
X78934000Y-74127000D01*
D13*
X81594000Y-75757000D02*
X83304000Y-75757000D01*
X81614000Y-73797000D02*
X83314000Y-73797000D01*
X83314000Y-75747000D02*
X83314000Y-73797000D01*
D10*
%TO.C,D33*%
X159264000Y-131817000D02*
X160434000Y-132472000D01*
X159264000Y-133147000D02*
X159264000Y-131817000D01*
X160434000Y-132472000D02*
X159264000Y-133147000D01*
X160434000Y-133137000D02*
X160434000Y-131807000D01*
D13*
X163094000Y-133437000D02*
X164804000Y-133437000D01*
X163114000Y-131477000D02*
X164814000Y-131477000D01*
X164814000Y-133427000D02*
X164814000Y-131477000D01*
D12*
%TO.C,begin1*%
X25074000Y-103265748D02*
X25074000Y-105588252D01*
X28494000Y-103265748D02*
X28494000Y-105588252D01*
%TO.C,U2*%
X25104000Y-139957000D02*
X25104000Y-133157000D01*
X25104000Y-142157000D02*
X25104000Y-142557000D01*
X25104000Y-144757000D02*
X25104000Y-145157000D01*
X25104000Y-154157000D02*
X25104000Y-147357000D01*
X27504000Y-133157000D02*
X27904000Y-133157000D01*
X27504000Y-154157000D02*
X27904000Y-154157000D01*
X30104000Y-133157000D02*
X30504000Y-133157000D01*
X30104000Y-154157000D02*
X30504000Y-154157000D01*
X32604000Y-133157000D02*
X33004000Y-133157000D01*
X32604000Y-154157000D02*
X33004000Y-154157000D01*
X35104000Y-133157000D02*
X35504000Y-133157000D01*
X35104000Y-154157000D02*
X35504000Y-154157000D01*
X37704000Y-133157000D02*
X38104000Y-133157000D01*
X37704000Y-154157000D02*
X38104000Y-154157000D01*
X40204000Y-133157000D02*
X40604000Y-133157000D01*
X40204000Y-154157000D02*
X40604000Y-154157000D01*
X42804000Y-133157000D02*
X43204000Y-133157000D01*
X42804000Y-154157000D02*
X43204000Y-154157000D01*
X45304000Y-133157000D02*
X45704000Y-133157000D01*
X45304000Y-154157000D02*
X45704000Y-154157000D01*
X47904000Y-133157000D02*
X48304000Y-133157000D01*
X47904000Y-154157000D02*
X48304000Y-154157000D01*
X50404000Y-133157000D02*
X50804000Y-133157000D01*
X50404000Y-154157000D02*
X50804000Y-154157000D01*
X52904000Y-133157000D02*
X53304000Y-133157000D01*
X52904000Y-154157000D02*
X53304000Y-154157000D01*
X55504000Y-133157000D02*
X55904000Y-133157000D01*
X55504000Y-154157000D02*
X55904000Y-154157000D01*
X58004000Y-133157000D02*
X58404000Y-133157000D01*
X58004000Y-154157000D02*
X58404000Y-154157000D01*
X60604000Y-133157000D02*
X61004000Y-133157000D01*
X60604000Y-154157000D02*
X61004000Y-154157000D01*
X63104000Y-133157000D02*
X63504000Y-133157000D01*
X63104000Y-154157000D02*
X63504000Y-154157000D01*
X65604000Y-133157000D02*
X66004000Y-133157000D01*
X65604000Y-154157000D02*
X66004000Y-154157000D01*
X68204000Y-133157000D02*
X68604000Y-133157000D01*
X68204000Y-154157000D02*
X68604000Y-154157000D01*
X70704000Y-133157000D02*
X71104000Y-133157000D01*
X70704000Y-154157000D02*
X71104000Y-154157000D01*
X73304000Y-133157000D02*
X73704000Y-133157000D01*
X73304000Y-154157000D02*
X73704000Y-154157000D01*
X75804000Y-133157000D02*
X76104000Y-133157000D01*
X75804000Y-154157000D02*
X76104000Y-154157000D01*
X76104000Y-133157000D02*
X76104000Y-154157000D01*
D10*
%TO.C,D16*%
X90794000Y-112117000D02*
X91964000Y-112772000D01*
X90794000Y-113447000D02*
X90794000Y-112117000D01*
X91964000Y-112772000D02*
X90794000Y-113447000D01*
X91964000Y-113437000D02*
X91964000Y-112107000D01*
D13*
X94624000Y-113737000D02*
X96334000Y-113737000D01*
X94644000Y-111777000D02*
X96344000Y-111777000D01*
X96344000Y-113727000D02*
X96344000Y-111777000D01*
D12*
%TO.C,JP3*%
X107454000Y-136017000D02*
X110254000Y-136017000D01*
X107454000Y-138017000D02*
X107454000Y-136017000D01*
X110254000Y-136017000D02*
X110254000Y-138017000D01*
X110254000Y-138017000D02*
X107454000Y-138017000D01*
D10*
%TO.C,D15*%
X86101500Y-55118250D02*
X87271500Y-55773250D01*
X86101500Y-56448250D02*
X86101500Y-55118250D01*
X87271500Y-55773250D02*
X86101500Y-56448250D01*
X87271500Y-56438250D02*
X87271500Y-55108250D01*
D13*
X89931500Y-56738250D02*
X91641500Y-56738250D01*
X89951500Y-54778250D02*
X91651500Y-54778250D01*
X91651500Y-56728250D02*
X91651500Y-54778250D01*
D12*
%TO.C,JP1*%
X52804000Y-104017000D02*
X54804000Y-104017000D01*
X52804000Y-106817000D02*
X52804000Y-104017000D01*
X54804000Y-104017000D02*
X54804000Y-106817000D01*
X54804000Y-106817000D02*
X52804000Y-106817000D01*
D10*
%TO.C,D28*%
X135184000Y-74047000D02*
X136354000Y-74702000D01*
X135184000Y-75377000D02*
X135184000Y-74047000D01*
X136354000Y-74702000D02*
X135184000Y-75377000D01*
X136354000Y-75367000D02*
X136354000Y-74037000D01*
D13*
X139014000Y-75667000D02*
X140724000Y-75667000D01*
X139034000Y-73707000D02*
X140734000Y-73707000D01*
X140734000Y-75657000D02*
X140734000Y-73707000D01*
D10*
%TO.C,D9*%
X63354000Y-93047000D02*
X64524000Y-93702000D01*
X63354000Y-94377000D02*
X63354000Y-93047000D01*
X64524000Y-93702000D02*
X63354000Y-94377000D01*
X64524000Y-94367000D02*
X64524000Y-93037000D01*
D13*
X67184000Y-94667000D02*
X68894000Y-94667000D01*
X67204000Y-92707000D02*
X68904000Y-92707000D01*
X68904000Y-94657000D02*
X68904000Y-92707000D01*
D10*
%TO.C,D30*%
X139701500Y-93078250D02*
X140871500Y-93733250D01*
X139701500Y-94408250D02*
X139701500Y-93078250D01*
X140871500Y-93733250D02*
X139701500Y-94408250D01*
X140871500Y-94398250D02*
X140871500Y-93068250D01*
D13*
X143531500Y-94698250D02*
X145241500Y-94698250D01*
X143551500Y-92738250D02*
X145251500Y-92738250D01*
X145251500Y-94688250D02*
X145251500Y-92738250D01*
D10*
%TO.C,D3*%
X37094000Y-93077000D02*
X38264000Y-93732000D01*
X37094000Y-94407000D02*
X37094000Y-93077000D01*
X38264000Y-93732000D02*
X37094000Y-94407000D01*
X38264000Y-94397000D02*
X38264000Y-93067000D01*
D13*
X40924000Y-94697000D02*
X42634000Y-94697000D01*
X40944000Y-92737000D02*
X42644000Y-92737000D01*
X42644000Y-94687000D02*
X42644000Y-92737000D01*
D10*
%TO.C,D27*%
X129814000Y-112167000D02*
X130984000Y-112822000D01*
X129814000Y-113497000D02*
X129814000Y-112167000D01*
X130984000Y-112822000D02*
X129814000Y-113497000D01*
X130984000Y-113487000D02*
X130984000Y-112157000D01*
D13*
X133644000Y-113787000D02*
X135354000Y-113787000D01*
X133664000Y-111827000D02*
X135364000Y-111827000D01*
X135364000Y-113777000D02*
X135364000Y-111827000D01*
D10*
%TO.C,D11*%
X72694000Y-112197000D02*
X73864000Y-112852000D01*
X72694000Y-113527000D02*
X72694000Y-112197000D01*
X73864000Y-112852000D02*
X72694000Y-113527000D01*
X73864000Y-113517000D02*
X73864000Y-112187000D01*
D13*
X76524000Y-113817000D02*
X78234000Y-113817000D01*
X76544000Y-111857000D02*
X78244000Y-111857000D01*
X78244000Y-113807000D02*
X78244000Y-111857000D01*
D10*
%TO.C,D2*%
X34881500Y-74138250D02*
X36051500Y-74793250D01*
X34881500Y-75468250D02*
X34881500Y-74138250D01*
X36051500Y-74793250D02*
X34881500Y-75468250D01*
X36051500Y-75458250D02*
X36051500Y-74128250D01*
D13*
X38711500Y-75758250D02*
X40421500Y-75758250D01*
X38731500Y-73798250D02*
X40431500Y-73798250D01*
X40431500Y-75748250D02*
X40431500Y-73798250D01*
D10*
%TO.C,D35*%
X177677686Y-138770897D02*
X178342686Y-137619083D01*
X178342686Y-137619083D02*
X179028436Y-138771330D01*
X178695936Y-139347237D02*
X179360936Y-138195423D01*
X179028436Y-138771330D02*
X177677686Y-138770897D01*
D13*
X180849563Y-140937045D02*
X182330467Y-141792045D01*
X181846884Y-139249635D02*
X183319127Y-140099635D01*
X182344127Y-141788384D02*
X183319127Y-140099635D01*
D10*
%TO.C,D22*%
X110601500Y-112118250D02*
X111771500Y-112773250D01*
X110601500Y-113448250D02*
X110601500Y-112118250D01*
X111771500Y-112773250D02*
X110601500Y-113448250D01*
X111771500Y-113438250D02*
X111771500Y-112108250D01*
D13*
X114431500Y-113738250D02*
X116141500Y-113738250D01*
X114451500Y-111778250D02*
X116151500Y-111778250D01*
X116151500Y-113728250D02*
X116151500Y-111778250D01*
D10*
%TO.C,D18*%
X101564000Y-93027000D02*
X102734000Y-93682000D01*
X101564000Y-94357000D02*
X101564000Y-93027000D01*
X102734000Y-93682000D02*
X101564000Y-94357000D01*
X102734000Y-94347000D02*
X102734000Y-93017000D01*
D13*
X105394000Y-94647000D02*
X107104000Y-94647000D01*
X105414000Y-92687000D02*
X107114000Y-92687000D01*
X107114000Y-94637000D02*
X107114000Y-92687000D01*
D10*
%TO.C,D26*%
X130451500Y-131438250D02*
X131621500Y-132093250D01*
X130451500Y-132768250D02*
X130451500Y-131438250D01*
X131621500Y-132093250D02*
X130451500Y-132768250D01*
X131621500Y-132758250D02*
X131621500Y-131428250D01*
D13*
X134281500Y-133058250D02*
X135991500Y-133058250D01*
X134301500Y-131098250D02*
X136001500Y-131098250D01*
X136001500Y-133048250D02*
X136001500Y-131098250D01*
D12*
%TO.C,J4*%
X83917871Y-32230945D02*
X84990043Y-37319211D01*
X84453956Y-34775078D02*
X87056800Y-34226620D01*
X84990043Y-37319211D02*
X87592886Y-36770753D01*
X86520713Y-31682488D02*
X83917871Y-32230945D01*
X86716591Y-32612075D02*
X87039500Y-32544033D01*
X86873293Y-33355744D02*
X87196202Y-33287702D01*
X87240306Y-35097497D02*
X87628845Y-35015626D01*
X87397008Y-35841166D02*
X87785547Y-35759295D01*
X87592886Y-36770753D02*
X86520713Y-31682488D01*
D10*
%TO.C,D14*%
X82514000Y-93117000D02*
X83684000Y-93772000D01*
X82514000Y-94447000D02*
X82514000Y-93117000D01*
X83684000Y-93772000D02*
X82514000Y-94447000D01*
X83684000Y-94437000D02*
X83684000Y-93107000D01*
D13*
X86344000Y-94737000D02*
X88054000Y-94737000D01*
X86364000Y-92777000D02*
X88064000Y-92777000D01*
X88064000Y-94727000D02*
X88064000Y-92777000D01*
D10*
%TO.C,D17*%
X93944000Y-74227000D02*
X95114000Y-74882000D01*
X93944000Y-75557000D02*
X93944000Y-74227000D01*
X95114000Y-74882000D02*
X93944000Y-75557000D01*
X95114000Y-75547000D02*
X95114000Y-74217000D01*
D13*
X97774000Y-75847000D02*
X99484000Y-75847000D01*
X97794000Y-73887000D02*
X99494000Y-73887000D01*
X99494000Y-75837000D02*
X99494000Y-73887000D01*
D10*
%TO.C,D32*%
X148834000Y-112167000D02*
X150004000Y-112822000D01*
X148834000Y-113497000D02*
X148834000Y-112167000D01*
X150004000Y-112822000D02*
X148834000Y-113497000D01*
X150004000Y-113487000D02*
X150004000Y-112157000D01*
D13*
X152664000Y-113787000D02*
X154374000Y-113787000D01*
X152684000Y-111827000D02*
X154384000Y-111827000D01*
X154384000Y-113777000D02*
X154384000Y-111827000D01*
D12*
%TO.C,J3*%
X81565353Y-21120529D02*
X83684955Y-31179639D01*
X82101438Y-23664662D02*
X84704282Y-23116204D01*
X82625153Y-26150084D02*
X85227997Y-25601626D01*
X83148869Y-28635506D02*
X85751712Y-28087048D01*
X83684955Y-31179639D02*
X86287798Y-30631181D01*
X84168195Y-20572072D02*
X81565353Y-21120529D01*
X84364073Y-21501659D02*
X84686982Y-21433617D01*
X84520775Y-22245328D02*
X84843684Y-22177286D01*
X84887788Y-23987081D02*
X85276327Y-23905210D01*
X85044490Y-24730750D02*
X85433029Y-24648879D01*
X85411503Y-26472503D02*
X85800042Y-26390632D01*
X85568205Y-27216172D02*
X85956744Y-27134301D01*
X85935219Y-28957926D02*
X86323758Y-28876054D01*
X86091921Y-29701594D02*
X86480460Y-29619723D01*
X86287798Y-30631181D02*
X84168195Y-20572072D01*
D10*
%TO.C,D1*%
X29804000Y-54917000D02*
X30974000Y-55572000D01*
X29804000Y-56247000D02*
X29804000Y-54917000D01*
X30974000Y-55572000D02*
X29804000Y-56247000D01*
X30974000Y-56237000D02*
X30974000Y-54907000D01*
D13*
X33634000Y-56537000D02*
X35344000Y-56537000D01*
X33654000Y-54577000D02*
X35354000Y-54577000D01*
X35354000Y-56527000D02*
X35354000Y-54577000D01*
D10*
%TO.C,D8*%
X57994000Y-74137000D02*
X59164000Y-74792000D01*
X57994000Y-75467000D02*
X57994000Y-74137000D01*
X59164000Y-74792000D02*
X57994000Y-75467000D01*
X59164000Y-75457000D02*
X59164000Y-74127000D01*
D13*
X61824000Y-75757000D02*
X63534000Y-75757000D01*
X61844000Y-73797000D02*
X63544000Y-73797000D01*
X63544000Y-75747000D02*
X63544000Y-73797000D01*
%TO.C,D13*%
X92064000Y-121587000D02*
X92064000Y-119887000D01*
D10*
X92404000Y-125437000D02*
X93059000Y-124267000D01*
X93059000Y-124267000D02*
X93734000Y-125437000D01*
X93724000Y-124267000D02*
X92394000Y-124267000D01*
X93734000Y-125437000D02*
X92404000Y-125437000D01*
D13*
X94014000Y-119887000D02*
X92064000Y-119887000D01*
X94024000Y-121607000D02*
X94024000Y-119897000D01*
%TO.C,D7*%
X70295250Y-121739500D02*
X70295250Y-120039500D01*
D10*
X70635250Y-125589500D02*
X71290250Y-124419500D01*
X71290250Y-124419500D02*
X71965250Y-125589500D01*
X71955250Y-124419500D02*
X70625250Y-124419500D01*
X71965250Y-125589500D02*
X70635250Y-125589500D01*
D13*
X72245250Y-120039500D02*
X70295250Y-120039500D01*
X72255250Y-121759500D02*
X72255250Y-120049500D01*
D12*
%TO.C,U3*%
X95709000Y-139372000D02*
X95709000Y-140772000D01*
X98029000Y-139372000D02*
X98029000Y-140782000D01*
X98309000Y-141392000D02*
X97979000Y-141152000D01*
X98309000Y-140912000D01*
X98309000Y-141392000D01*
G36*
X98309000Y-141392000D02*
G01*
X97979000Y-141152000D01*
X98309000Y-140912000D01*
X98309000Y-141392000D01*
G37*
D10*
%TO.C,D24*%
X123544000Y-93107000D02*
X124714000Y-93762000D01*
X123544000Y-94437000D02*
X123544000Y-93107000D01*
X124714000Y-93762000D02*
X123544000Y-94437000D01*
X124714000Y-94427000D02*
X124714000Y-93097000D01*
D13*
X127374000Y-94727000D02*
X129084000Y-94727000D01*
X127394000Y-92767000D02*
X129094000Y-92767000D01*
X129094000Y-94717000D02*
X129094000Y-92767000D01*
%TO.C,D4*%
X66295250Y-121739500D02*
X66295250Y-120039500D01*
D10*
X66635250Y-125589500D02*
X67290250Y-124419500D01*
X67290250Y-124419500D02*
X67965250Y-125589500D01*
X67955250Y-124419500D02*
X66625250Y-124419500D01*
X67965250Y-125589500D02*
X66635250Y-125589500D01*
D13*
X68245250Y-120039500D02*
X66295250Y-120039500D01*
X68255250Y-121759500D02*
X68255250Y-120049500D01*
D10*
%TO.C,D25*%
X121014000Y-55037000D02*
X122184000Y-55692000D01*
X121014000Y-56367000D02*
X121014000Y-55037000D01*
X122184000Y-55692000D02*
X121014000Y-56367000D01*
X122184000Y-56357000D02*
X122184000Y-55027000D01*
D13*
X124844000Y-56657000D02*
X126554000Y-56657000D01*
X124864000Y-54697000D02*
X126564000Y-54697000D01*
X126564000Y-56647000D02*
X126564000Y-54697000D01*
D12*
%TO.C,end1*%
X77324000Y-45650752D02*
X77324000Y-43328248D01*
X80744000Y-45650752D02*
X80744000Y-43328248D01*
D13*
%TO.C,D29*%
X129254000Y-140257000D02*
X129254000Y-138557000D01*
D10*
X129594000Y-144107000D02*
X130249000Y-142937000D01*
X130249000Y-142937000D02*
X130924000Y-144107000D01*
X130914000Y-142937000D02*
X129584000Y-142937000D01*
X130924000Y-144107000D02*
X129594000Y-144107000D01*
D13*
X131204000Y-138557000D02*
X129254000Y-138557000D01*
X131214000Y-140277000D02*
X131214000Y-138567000D01*
D10*
%TO.C,D23*%
X115384000Y-73947000D02*
X116554000Y-74602000D01*
X115384000Y-75277000D02*
X115384000Y-73947000D01*
X116554000Y-74602000D02*
X115384000Y-75277000D01*
X116554000Y-75267000D02*
X116554000Y-73937000D01*
D13*
X119214000Y-75567000D02*
X120924000Y-75567000D01*
X119234000Y-73607000D02*
X120934000Y-73607000D01*
X120934000Y-75557000D02*
X120934000Y-73607000D01*
D10*
%TO.C,D5*%
X49494000Y-112137000D02*
X50664000Y-112792000D01*
X49494000Y-113467000D02*
X49494000Y-112137000D01*
X50664000Y-112792000D02*
X49494000Y-113467000D01*
X50664000Y-113457000D02*
X50664000Y-112127000D01*
D13*
X53324000Y-113757000D02*
X55034000Y-113757000D01*
X53344000Y-111797000D02*
X55044000Y-111797000D01*
X55044000Y-113747000D02*
X55044000Y-111797000D01*
D10*
%TO.C,D21*%
X103224000Y-131047000D02*
X104394000Y-131702000D01*
X103224000Y-132377000D02*
X103224000Y-131047000D01*
X104394000Y-131702000D02*
X103224000Y-132377000D01*
X104394000Y-132367000D02*
X104394000Y-131037000D01*
D13*
X107054000Y-132667000D02*
X108764000Y-132667000D01*
X107074000Y-130707000D02*
X108774000Y-130707000D01*
X108774000Y-132657000D02*
X108774000Y-130707000D01*
D12*
%TO.C,JP4*%
X95469000Y-147792000D02*
X98269000Y-147792000D01*
X95469000Y-149792000D02*
X95469000Y-147792000D01*
X98269000Y-147792000D02*
X98269000Y-149792000D01*
X98269000Y-149792000D02*
X95469000Y-149792000D01*
D13*
%TO.C,D20*%
X125254000Y-140217000D02*
X125254000Y-138517000D01*
D10*
X125594000Y-144067000D02*
X126249000Y-142897000D01*
X126249000Y-142897000D02*
X126924000Y-144067000D01*
X126914000Y-142897000D02*
X125584000Y-142897000D01*
X126924000Y-144067000D02*
X125594000Y-144067000D01*
D13*
X127204000Y-138517000D02*
X125254000Y-138517000D01*
X127214000Y-140237000D02*
X127214000Y-138527000D01*
D10*
%TO.C,D31*%
X133611500Y-54978250D02*
X134781500Y-55633250D01*
X133611500Y-56308250D02*
X133611500Y-54978250D01*
X134781500Y-55633250D02*
X133611500Y-56308250D01*
X134781500Y-56298250D02*
X134781500Y-54968250D01*
D13*
X137441500Y-56598250D02*
X139151500Y-56598250D01*
X137461500Y-54638250D02*
X139161500Y-54638250D01*
X139161500Y-56588250D02*
X139161500Y-54638250D01*
D10*
%TO.C,D19*%
X105474000Y-55057000D02*
X106644000Y-55712000D01*
X105474000Y-56387000D02*
X105474000Y-55057000D01*
X106644000Y-55712000D02*
X105474000Y-56387000D01*
X106644000Y-56377000D02*
X106644000Y-55047000D01*
D13*
X109304000Y-56677000D02*
X111014000Y-56677000D01*
X109324000Y-54717000D02*
X111024000Y-54717000D01*
X111024000Y-56667000D02*
X111024000Y-54717000D01*
D10*
%TO.C,D34*%
X167631500Y-112168250D02*
X168801500Y-112823250D01*
X167631500Y-113498250D02*
X167631500Y-112168250D01*
X168801500Y-112823250D02*
X167631500Y-113498250D01*
X168801500Y-113488250D02*
X168801500Y-112158250D01*
D13*
X171461500Y-113788250D02*
X173171500Y-113788250D01*
X171481500Y-111828250D02*
X173181500Y-111828250D01*
X173181500Y-113778250D02*
X173181500Y-111828250D01*
D12*
%TO.C,JP2*%
X56354000Y-104017000D02*
X58354000Y-104017000D01*
X56354000Y-106817000D02*
X56354000Y-104017000D01*
X58354000Y-104017000D02*
X58354000Y-106817000D01*
X58354000Y-106817000D02*
X56354000Y-106817000D01*
D10*
%TO.C,D10*%
X68154000Y-55017000D02*
X69324000Y-55672000D01*
X68154000Y-56347000D02*
X68154000Y-55017000D01*
X69324000Y-55672000D02*
X68154000Y-56347000D01*
X69324000Y-56337000D02*
X69324000Y-55007000D01*
D13*
X71984000Y-56637000D02*
X73694000Y-56637000D01*
X72004000Y-54677000D02*
X73704000Y-54677000D01*
X73704000Y-56627000D02*
X73704000Y-54677000D01*
%TD*%
%LPC*%
D14*
%TO.C,S34*%
X173829000Y-104157000D03*
D15*
X172559000Y-106697000D03*
D16*
X168749000Y-104157000D03*
D15*
X166209000Y-109237000D03*
D14*
X163669000Y-104157000D03*
D17*
X175834000Y-106697000D03*
X162907000Y-109237000D03*
%TD*%
D14*
%TO.C,S17*%
X102429000Y-66067000D03*
D15*
X101159000Y-68607000D03*
D16*
X97349000Y-66067000D03*
D15*
X94809000Y-71147000D03*
D14*
X92269000Y-66067000D03*
D17*
X104434000Y-68607000D03*
X91507000Y-71147000D03*
%TD*%
D14*
%TO.C,S8*%
X64349000Y-66067000D03*
D15*
X63079000Y-68607000D03*
D16*
X59269000Y-66067000D03*
D15*
X56729000Y-71147000D03*
D14*
X54189000Y-66067000D03*
D17*
X66354000Y-68607000D03*
X53427000Y-71147000D03*
%TD*%
D18*
%TO.C,H9*%
X116379000Y-47017000D03*
%TD*%
D14*
%TO.C,S3*%
X42927750Y-85107000D03*
D15*
X41657750Y-87647000D03*
D16*
X37847750Y-85107000D03*
D15*
X35307750Y-90187000D03*
D14*
X32767750Y-85107000D03*
D17*
X44932750Y-87647000D03*
X32005750Y-90187000D03*
%TD*%
D14*
%TO.C,S11*%
X78629000Y-104157000D03*
D15*
X77359000Y-106697000D03*
D16*
X73549000Y-104157000D03*
D15*
X71009000Y-109237000D03*
D14*
X68469000Y-104157000D03*
D17*
X80634000Y-106697000D03*
X67707000Y-109237000D03*
%TD*%
D18*
%TO.C,H6*%
X44979000Y-123187000D03*
%TD*%
D14*
%TO.C,S4*%
X38165250Y-123187000D03*
D15*
X36895250Y-125727000D03*
D16*
X33085250Y-123187000D03*
D15*
X30545250Y-128267000D03*
D14*
X28005250Y-123187000D03*
D17*
X40170250Y-125727000D03*
X27243250Y-128267000D03*
%TD*%
D14*
%TO.C,S13*%
X85765250Y-123187000D03*
D15*
X84495250Y-125727000D03*
D16*
X80685250Y-123187000D03*
D15*
X78145250Y-128267000D03*
D14*
X75605250Y-123187000D03*
D17*
X87770250Y-125727000D03*
X74843250Y-128267000D03*
%TD*%
D14*
%TO.C,S16*%
X97669000Y-104157000D03*
D15*
X96399000Y-106697000D03*
D16*
X92589000Y-104157000D03*
D15*
X90049000Y-109237000D03*
D14*
X87509000Y-104157000D03*
D17*
X99674000Y-106697000D03*
X86747000Y-109237000D03*
%TD*%
D18*
%TO.C,H7*%
X111619000Y-85107000D03*
%TD*%
D19*
%TO.C,H13*%
X90949000Y-139825000D03*
%TD*%
D18*
%TO.C,H4*%
X171724000Y-125187000D03*
%TD*%
%TO.C,H11*%
X103949000Y-141202000D03*
%TD*%
D14*
%TO.C,S21*%
X109565250Y-123187000D03*
D15*
X108295250Y-125727000D03*
D16*
X104485250Y-123187000D03*
D15*
X101945250Y-128267000D03*
D14*
X99405250Y-123187000D03*
D17*
X111570250Y-125727000D03*
X98643250Y-128267000D03*
%TD*%
D18*
%TO.C,H5*%
X146127000Y-123187000D03*
%TD*%
D20*
%TO.C,J1*%
X101417158Y-27421526D03*
X99846012Y-19965260D03*
D21*
X94820093Y-26910781D03*
X93772663Y-21939937D03*
D22*
X92072816Y-26191785D03*
X94296379Y-24425357D03*
X91549100Y-23706363D03*
%TD*%
D14*
%TO.C,S22*%
X116709000Y-104157000D03*
D15*
X115439000Y-106697000D03*
D16*
X111629000Y-104157000D03*
D15*
X109089000Y-109237000D03*
D14*
X106549000Y-104157000D03*
D17*
X118714000Y-106697000D03*
X105787000Y-109237000D03*
%TD*%
D18*
%TO.C,H8*%
X50935750Y-85107000D03*
%TD*%
D23*
%TO.C,J2*%
X70524000Y-32677000D03*
D24*
X70524000Y-30137000D03*
X70524000Y-27597000D03*
X70524000Y-25057000D03*
%TD*%
D18*
%TO.C,H10*%
X59269000Y-47017000D03*
%TD*%
D14*
%TO.C,S7*%
X61965250Y-123187000D03*
D15*
X60695250Y-125727000D03*
D16*
X56885250Y-123187000D03*
D15*
X54345250Y-128267000D03*
D14*
X51805250Y-123187000D03*
D17*
X63970250Y-125727000D03*
X51043250Y-128267000D03*
%TD*%
D14*
%TO.C,S5*%
X47690250Y-104157000D03*
D15*
X46420250Y-106697000D03*
D16*
X42610250Y-104157000D03*
D15*
X40070250Y-109237000D03*
D14*
X37530250Y-104157000D03*
D17*
X49695250Y-106697000D03*
X36768250Y-109237000D03*
%TD*%
D14*
%TO.C,S27*%
X135749000Y-104157000D03*
D15*
X134479000Y-106697000D03*
D16*
X130669000Y-104157000D03*
D15*
X128129000Y-109237000D03*
D14*
X125589000Y-104157000D03*
D17*
X137754000Y-106697000D03*
X124827000Y-109237000D03*
%TD*%
D14*
%TO.C,S28*%
X140509000Y-66067000D03*
D15*
X139239000Y-68607000D03*
D16*
X135429000Y-66067000D03*
D15*
X132889000Y-71147000D03*
D14*
X130349000Y-66067000D03*
D17*
X142514000Y-68607000D03*
X129587000Y-71147000D03*
%TD*%
D25*
%TO.C,S29*%
X146199000Y-141202000D03*
D26*
X140699000Y-141202000D03*
D25*
X135199000Y-141202000D03*
D27*
X140699000Y-147102000D03*
X135699000Y-145002000D03*
%TD*%
D25*
%TO.C,S20*%
X121449000Y-141202000D03*
D26*
X115949000Y-141202000D03*
D25*
X110449000Y-141202000D03*
D27*
X115949000Y-147102000D03*
X110949000Y-145002000D03*
%TD*%
D19*
%TO.C,H3*%
X62621000Y-104157000D03*
%TD*%
D14*
%TO.C,S23*%
X121469000Y-66067000D03*
D15*
X120199000Y-68607000D03*
D16*
X116389000Y-66067000D03*
D15*
X113849000Y-71147000D03*
D14*
X111309000Y-66067000D03*
D17*
X123474000Y-68607000D03*
X110547000Y-71147000D03*
%TD*%
D14*
%TO.C,S32*%
X154789000Y-104157000D03*
D15*
X153519000Y-106697000D03*
D16*
X149709000Y-104157000D03*
D15*
X147169000Y-109237000D03*
D14*
X144629000Y-104157000D03*
D17*
X156794000Y-106697000D03*
X143867000Y-109237000D03*
%TD*%
D14*
%TO.C,S9*%
X69104000Y-85107000D03*
D15*
X67834000Y-87647000D03*
D16*
X64024000Y-85107000D03*
D15*
X61484000Y-90187000D03*
D14*
X58944000Y-85107000D03*
D17*
X71109000Y-87647000D03*
X58182000Y-90187000D03*
%TD*%
D14*
%TO.C,S2*%
X40546500Y-66057000D03*
D15*
X39276500Y-68597000D03*
D16*
X35466500Y-66057000D03*
D15*
X32926500Y-71137000D03*
D14*
X30386500Y-66057000D03*
D17*
X42551500Y-68597000D03*
X29624500Y-71137000D03*
%TD*%
D19*
%TO.C,H2*%
X125914000Y-65067000D03*
%TD*%
D23*
%TO.C,TP3*%
X96859000Y-145062000D03*
%TD*%
D19*
%TO.C,H1*%
X47367500Y-66057000D03*
%TD*%
D28*
%TO.C,D6*%
X53774000Y-55537000D03*
D29*
X51674000Y-55537000D03*
X47874000Y-55537000D03*
D30*
X45774000Y-55537000D03*
%TD*%
D14*
%TO.C,S19*%
X111944000Y-47017000D03*
D15*
X110674000Y-49557000D03*
D16*
X106864000Y-47017000D03*
D15*
X104324000Y-52097000D03*
D14*
X101784000Y-47017000D03*
D17*
X113949000Y-49557000D03*
X101022000Y-52097000D03*
%TD*%
D23*
%TO.C,TP1*%
X40774000Y-41757000D03*
%TD*%
D14*
%TO.C,S18*%
X107184000Y-85107000D03*
D15*
X105914000Y-87647000D03*
D16*
X102104000Y-85107000D03*
D15*
X99564000Y-90187000D03*
D14*
X97024000Y-85107000D03*
D17*
X109189000Y-87647000D03*
X96262000Y-90187000D03*
%TD*%
D19*
%TO.C,H12*%
X173224000Y-120187000D03*
%TD*%
D14*
%TO.C,S12*%
X83389000Y-66067000D03*
D15*
X82119000Y-68607000D03*
D16*
X78309000Y-66067000D03*
D15*
X75769000Y-71147000D03*
D14*
X73229000Y-66067000D03*
D17*
X85394000Y-68607000D03*
X72467000Y-71147000D03*
%TD*%
D14*
%TO.C,S10*%
X73864000Y-47017000D03*
D15*
X72594000Y-49557000D03*
D16*
X68784000Y-47017000D03*
D15*
X66244000Y-52097000D03*
D14*
X63704000Y-47017000D03*
D17*
X75869000Y-49557000D03*
X62942000Y-52097000D03*
%TD*%
D14*
%TO.C,S15*%
X92904000Y-47017000D03*
D15*
X91634000Y-49557000D03*
D16*
X87824000Y-47017000D03*
D15*
X85284000Y-52097000D03*
D14*
X82744000Y-47017000D03*
D17*
X94909000Y-49557000D03*
X81982000Y-52097000D03*
%TD*%
D14*
%TO.C,S26*%
X138127750Y-123187000D03*
D15*
X136857750Y-125727000D03*
D16*
X133047750Y-123187000D03*
D15*
X130507750Y-128267000D03*
D14*
X127967750Y-123187000D03*
D17*
X140132750Y-125727000D03*
X127205750Y-128267000D03*
%TD*%
D14*
%TO.C,S25*%
X130984000Y-47017000D03*
D15*
X129714000Y-49557000D03*
D16*
X125904000Y-47017000D03*
D15*
X123364000Y-52097000D03*
D14*
X120824000Y-47017000D03*
D17*
X132989000Y-49557000D03*
X120062000Y-52097000D03*
%TD*%
D19*
%TO.C,H14*%
X107025400Y-34488774D03*
%TD*%
D14*
%TO.C,S30*%
X145264000Y-85107000D03*
D15*
X143994000Y-87647000D03*
D16*
X140184000Y-85107000D03*
D15*
X137644000Y-90187000D03*
D14*
X135104000Y-85107000D03*
D17*
X147269000Y-87647000D03*
X134342000Y-90187000D03*
%TD*%
D14*
%TO.C,S1*%
X35784000Y-47017000D03*
D15*
X34514000Y-49557000D03*
D16*
X30704000Y-47017000D03*
D15*
X28164000Y-52097000D03*
D14*
X25624000Y-47017000D03*
D17*
X37789000Y-49557000D03*
X24862000Y-52097000D03*
%TD*%
D14*
%TO.C,S33*%
X164304000Y-123187000D03*
D15*
X163034000Y-125727000D03*
D16*
X159224000Y-123187000D03*
D15*
X156684000Y-128267000D03*
D14*
X154144000Y-123187000D03*
D17*
X166309000Y-125727000D03*
X153382000Y-128267000D03*
%TD*%
D14*
%TO.C,S14*%
X88144000Y-85107000D03*
D15*
X86874000Y-87647000D03*
D16*
X83064000Y-85107000D03*
D15*
X80524000Y-90187000D03*
D14*
X77984000Y-85107000D03*
D17*
X90149000Y-87647000D03*
X77222000Y-90187000D03*
%TD*%
D14*
%TO.C,S6*%
X54824000Y-47017000D03*
D15*
X53554000Y-49557000D03*
D16*
X49744000Y-47017000D03*
D15*
X47204000Y-52097000D03*
D14*
X44664000Y-47017000D03*
D17*
X56829000Y-49557000D03*
X43902000Y-52097000D03*
%TD*%
D23*
%TO.C,TP2*%
X59274000Y-41757000D03*
%TD*%
D14*
%TO.C,S24*%
X126224000Y-85107000D03*
D15*
X124954000Y-87647000D03*
D16*
X121144000Y-85107000D03*
D15*
X118604000Y-90187000D03*
D14*
X116064000Y-85107000D03*
D17*
X128229000Y-87647000D03*
X115302000Y-90187000D03*
%TD*%
D14*
%TO.C,S35*%
X189185409Y-132165000D03*
D15*
X186815557Y-133729705D03*
D16*
X184786000Y-129625000D03*
D15*
X180046295Y-132754409D03*
D14*
X180386591Y-127085000D03*
D31*
X189651790Y-135367205D03*
X177186680Y-131103409D03*
%TD*%
D14*
%TO.C,S31*%
X150024000Y-47017000D03*
D15*
X148754000Y-49557000D03*
D16*
X144944000Y-47017000D03*
D15*
X142404000Y-52097000D03*
D14*
X139864000Y-47017000D03*
D17*
X152029000Y-49557000D03*
X139102000Y-52097000D03*
%TD*%
D32*
%TO.C,LED9*%
X61324000Y-79408000D03*
X61324000Y-80908000D03*
X66724000Y-80908000D03*
X66724000Y-79408000D03*
%TD*%
D28*
%TO.C,D12*%
X82314000Y-74787000D03*
D33*
X80264000Y-74787000D03*
D29*
X76414000Y-74787000D03*
D30*
X74314000Y-74787000D03*
%TD*%
D28*
%TO.C,D33*%
X163814000Y-132467000D03*
D33*
X161764000Y-132467000D03*
D29*
X157914000Y-132467000D03*
D30*
X155814000Y-132467000D03*
%TD*%
D34*
%TO.C,begin1*%
X26784000Y-106564500D03*
X26784000Y-102289500D03*
%TD*%
D24*
%TO.C,U2*%
X74734000Y-152547000D03*
D35*
X74734000Y-153447000D03*
D24*
X72194000Y-152547000D03*
D35*
X72194000Y-153447000D03*
D23*
X69654000Y-152547000D03*
D35*
X69654000Y-153447000D03*
D24*
X67114000Y-152547000D03*
D35*
X67114000Y-153447000D03*
D24*
X64574000Y-152547000D03*
D35*
X64574000Y-153447000D03*
D24*
X62034000Y-152547000D03*
D35*
X62034000Y-153447000D03*
D24*
X59494000Y-152547000D03*
D35*
X59494000Y-153447000D03*
D23*
X56954000Y-152547000D03*
D35*
X56954000Y-153447000D03*
D24*
X54414000Y-152547000D03*
D35*
X54414000Y-153447000D03*
D24*
X51874000Y-152547000D03*
D35*
X51874000Y-153447000D03*
D24*
X49334000Y-152547000D03*
D35*
X49334000Y-153447000D03*
D24*
X46794000Y-152547000D03*
D35*
X46794000Y-153447000D03*
D23*
X44254000Y-152547000D03*
D35*
X44254000Y-153447000D03*
D24*
X41714000Y-152547000D03*
D35*
X41714000Y-153447000D03*
D24*
X39174000Y-152547000D03*
D35*
X39174000Y-153447000D03*
D24*
X36634000Y-152547000D03*
D35*
X36634000Y-153447000D03*
D24*
X34094000Y-152547000D03*
D35*
X34094000Y-153447000D03*
D23*
X31554000Y-152547000D03*
D35*
X31554000Y-153447000D03*
D24*
X29014000Y-152547000D03*
D35*
X29014000Y-153447000D03*
D24*
X26474000Y-152547000D03*
D35*
X26474000Y-153447000D03*
D24*
X26474000Y-134767000D03*
D35*
X26474000Y-133867000D03*
D24*
X29014000Y-134767000D03*
D35*
X29014000Y-133867000D03*
D23*
X31554000Y-134767000D03*
D35*
X31554000Y-133867000D03*
D24*
X34094000Y-134767000D03*
D35*
X34094000Y-133867000D03*
D24*
X36634000Y-134767000D03*
D35*
X36634000Y-133867000D03*
D24*
X39174000Y-134767000D03*
D35*
X39174000Y-133867000D03*
D24*
X41714000Y-134767000D03*
D35*
X41714000Y-133867000D03*
D23*
X44254000Y-134767000D03*
D35*
X44254000Y-133867000D03*
D24*
X46794000Y-134767000D03*
D35*
X46794000Y-133867000D03*
D24*
X49334000Y-134767000D03*
D35*
X49334000Y-133867000D03*
D24*
X51874000Y-134767000D03*
D35*
X51874000Y-133867000D03*
D24*
X54414000Y-134767000D03*
D35*
X54414000Y-133867000D03*
D23*
X56954000Y-134767000D03*
D35*
X56954000Y-133867000D03*
D24*
X59494000Y-134767000D03*
D35*
X59494000Y-133867000D03*
D24*
X62034000Y-134767000D03*
D35*
X62034000Y-133867000D03*
D24*
X64574000Y-134767000D03*
D35*
X64574000Y-133867000D03*
D24*
X67114000Y-134767000D03*
D35*
X67114000Y-133867000D03*
D23*
X69654000Y-134767000D03*
D35*
X69654000Y-133867000D03*
D24*
X72194000Y-134767000D03*
D35*
X72194000Y-133867000D03*
D24*
X74734000Y-134767000D03*
D35*
X74734000Y-133867000D03*
D24*
X26704000Y-146197000D03*
D36*
X25804000Y-146197000D03*
D23*
X26704000Y-143657000D03*
D36*
X25804000Y-143657000D03*
D24*
X26704000Y-141117000D03*
D36*
X25804000Y-141117000D03*
D37*
X75004000Y-144557000D03*
X75004000Y-142757000D03*
%TD*%
D28*
%TO.C,D16*%
X95344000Y-112767000D03*
D33*
X93294000Y-112767000D03*
D29*
X89444000Y-112767000D03*
D30*
X87344000Y-112767000D03*
%TD*%
D32*
%TO.C,LED21*%
X101785250Y-117498000D03*
X101785250Y-118998000D03*
X107185250Y-118998000D03*
X107185250Y-117498000D03*
%TD*%
D38*
%TO.C,LED35*%
X185292231Y-123348182D03*
X184542231Y-124647220D03*
X189218769Y-127347220D03*
X189968769Y-126048182D03*
%TD*%
D39*
%TO.C,JP3*%
X108204000Y-137017000D03*
X109504000Y-137017000D03*
%TD*%
D40*
%TO.C,LED8*%
X61964000Y-61868000D03*
X61964000Y-60368000D03*
X56564000Y-60368000D03*
X56564000Y-61868000D03*
%TD*%
D28*
%TO.C,D15*%
X90651500Y-55768250D03*
D33*
X88601500Y-55768250D03*
D29*
X84751500Y-55768250D03*
D30*
X82651500Y-55768250D03*
%TD*%
D41*
%TO.C,JP1*%
X53804000Y-104767000D03*
X53804000Y-106067000D03*
%TD*%
D28*
%TO.C,D28*%
X139734000Y-74697000D03*
D33*
X137684000Y-74697000D03*
D29*
X133834000Y-74697000D03*
D30*
X131734000Y-74697000D03*
%TD*%
D28*
%TO.C,D9*%
X67904000Y-93697000D03*
D33*
X65854000Y-93697000D03*
D29*
X62004000Y-93697000D03*
D30*
X59904000Y-93697000D03*
%TD*%
D28*
%TO.C,D30*%
X144251500Y-93728250D03*
D33*
X142201500Y-93728250D03*
D29*
X138351500Y-93728250D03*
D30*
X136251500Y-93728250D03*
%TD*%
D28*
%TO.C,D3*%
X41644000Y-93727000D03*
D33*
X39594000Y-93727000D03*
D29*
X35744000Y-93727000D03*
D30*
X33644000Y-93727000D03*
%TD*%
D28*
%TO.C,D27*%
X134364000Y-112817000D03*
D33*
X132314000Y-112817000D03*
D29*
X128464000Y-112817000D03*
D30*
X126364000Y-112817000D03*
%TD*%
D32*
%TO.C,LED30*%
X137484000Y-79408000D03*
X137484000Y-80908000D03*
X142884000Y-80908000D03*
X142884000Y-79408000D03*
%TD*%
%TO.C,LED31*%
X142244000Y-41328000D03*
X142244000Y-42828000D03*
X147644000Y-42828000D03*
X147644000Y-41328000D03*
%TD*%
D28*
%TO.C,D11*%
X77244000Y-112847000D03*
D33*
X75194000Y-112847000D03*
D29*
X71344000Y-112847000D03*
D30*
X69244000Y-112847000D03*
%TD*%
D32*
%TO.C,LED3*%
X35147750Y-79418000D03*
X35147750Y-80918000D03*
X40547750Y-80918000D03*
X40547750Y-79418000D03*
%TD*%
%TO.C,LED14*%
X80364000Y-79408000D03*
X80364000Y-80908000D03*
X85764000Y-80908000D03*
X85764000Y-79408000D03*
%TD*%
D28*
%TO.C,D2*%
X39431500Y-74788250D03*
D33*
X37381500Y-74788250D03*
D29*
X33531500Y-74788250D03*
D30*
X31431500Y-74788250D03*
%TD*%
D40*
%TO.C,LED12*%
X81004000Y-61868000D03*
X81004000Y-60368000D03*
X75604000Y-60368000D03*
X75604000Y-61868000D03*
%TD*%
D42*
%TO.C,D35*%
X181958102Y-140457000D03*
D43*
X180182750Y-139432000D03*
D44*
X176848552Y-137507000D03*
D30*
X175029898Y-136457000D03*
%TD*%
D28*
%TO.C,D22*%
X115151500Y-112768250D03*
D33*
X113101500Y-112768250D03*
D29*
X109251500Y-112768250D03*
D30*
X107151500Y-112768250D03*
%TD*%
D32*
%TO.C,LED10*%
X66084000Y-41328000D03*
X66084000Y-42828000D03*
X71484000Y-42828000D03*
X71484000Y-41328000D03*
%TD*%
D28*
%TO.C,D18*%
X106114000Y-93677000D03*
D33*
X104064000Y-93677000D03*
D29*
X100214000Y-93677000D03*
D30*
X98114000Y-93677000D03*
%TD*%
D32*
%TO.C,LED7*%
X54185250Y-117498000D03*
X54185250Y-118998000D03*
X59585250Y-118998000D03*
X59585250Y-117498000D03*
%TD*%
D28*
%TO.C,D26*%
X135001500Y-132088250D03*
D33*
X132951500Y-132088250D03*
D29*
X129101500Y-132088250D03*
D30*
X127001500Y-132088250D03*
%TD*%
D45*
%TO.C,J4*%
X88204000Y-32687000D03*
D46*
X88727715Y-35172422D03*
%TD*%
D40*
%TO.C,LED20*%
X118649000Y-137013000D03*
X118649000Y-135513000D03*
X113249000Y-135513000D03*
X113249000Y-137013000D03*
%TD*%
%TO.C,LED28*%
X138124000Y-61868000D03*
X138124000Y-60368000D03*
X132724000Y-60368000D03*
X132724000Y-61868000D03*
%TD*%
D28*
%TO.C,D14*%
X87064000Y-93767000D03*
D33*
X85014000Y-93767000D03*
D29*
X81164000Y-93767000D03*
D30*
X79064000Y-93767000D03*
%TD*%
D28*
%TO.C,D17*%
X98494000Y-74877000D03*
D33*
X96444000Y-74877000D03*
D29*
X92594000Y-74877000D03*
D30*
X90494000Y-74877000D03*
%TD*%
D28*
%TO.C,D32*%
X153384000Y-112817000D03*
D33*
X151334000Y-112817000D03*
D29*
X147484000Y-112817000D03*
D30*
X145384000Y-112817000D03*
%TD*%
D40*
%TO.C,LED11*%
X76249000Y-99968000D03*
X76249000Y-98468000D03*
X70849000Y-98468000D03*
X70849000Y-99968000D03*
%TD*%
%TO.C,LED2*%
X38164000Y-61868000D03*
X38164000Y-60368000D03*
X32764000Y-60368000D03*
X32764000Y-61868000D03*
%TD*%
D46*
%TO.C,J3*%
X85872101Y-21674435D03*
X86375197Y-24062006D03*
X86898913Y-26547428D03*
X87422628Y-29032850D03*
%TD*%
D28*
%TO.C,D1*%
X34354000Y-55567000D03*
D33*
X32304000Y-55567000D03*
D29*
X28454000Y-55567000D03*
D30*
X26354000Y-55567000D03*
%TD*%
D32*
%TO.C,LED18*%
X99404000Y-79408000D03*
X99404000Y-80908000D03*
X104804000Y-80908000D03*
X104804000Y-79408000D03*
%TD*%
%TO.C,LED4*%
X30385250Y-117498000D03*
X30385250Y-118998000D03*
X35785250Y-118998000D03*
X35785250Y-117498000D03*
%TD*%
D28*
%TO.C,D8*%
X62544000Y-74787000D03*
D33*
X60494000Y-74787000D03*
D29*
X56644000Y-74787000D03*
D30*
X54544000Y-74787000D03*
%TD*%
D28*
%TO.C,D13*%
X93054000Y-120887000D03*
D47*
X93054000Y-122937000D03*
D48*
X93054000Y-126787000D03*
D30*
X93054000Y-128887000D03*
%TD*%
D32*
%TO.C,LED19*%
X104164000Y-41328000D03*
X104164000Y-42828000D03*
X109564000Y-42828000D03*
X109564000Y-41328000D03*
%TD*%
D28*
%TO.C,D7*%
X71285250Y-121039500D03*
D47*
X71285250Y-123089500D03*
D48*
X71285250Y-126939500D03*
D30*
X71285250Y-129039500D03*
%TD*%
D40*
%TO.C,LED32*%
X152409000Y-99968000D03*
X152409000Y-98468000D03*
X147009000Y-98468000D03*
X147009000Y-99968000D03*
%TD*%
D49*
%TO.C,U3*%
X97519000Y-141402000D03*
X96869000Y-141402000D03*
X96219000Y-141402000D03*
X96219000Y-138742000D03*
X97519000Y-138742000D03*
%TD*%
D28*
%TO.C,D24*%
X128094000Y-93757000D03*
D33*
X126044000Y-93757000D03*
D29*
X122194000Y-93757000D03*
D30*
X120094000Y-93757000D03*
%TD*%
D32*
%TO.C,LED13*%
X77985250Y-117498000D03*
X77985250Y-118998000D03*
X83385250Y-118998000D03*
X83385250Y-117498000D03*
%TD*%
D28*
%TO.C,D4*%
X67285250Y-121039500D03*
D47*
X67285250Y-123089500D03*
D48*
X67285250Y-126939500D03*
D30*
X67285250Y-129039500D03*
%TD*%
D28*
%TO.C,D25*%
X125564000Y-55687000D03*
D33*
X123514000Y-55687000D03*
D29*
X119664000Y-55687000D03*
D30*
X117564000Y-55687000D03*
%TD*%
D50*
%TO.C,end1*%
X79034000Y-42352000D03*
X79034000Y-46627000D03*
%TD*%
D28*
%TO.C,D29*%
X130244000Y-139557000D03*
D47*
X130244000Y-141607000D03*
D48*
X130244000Y-145457000D03*
D30*
X130244000Y-147557000D03*
%TD*%
D28*
%TO.C,D23*%
X119934000Y-74597000D03*
D33*
X117884000Y-74597000D03*
D29*
X114034000Y-74597000D03*
D30*
X111934000Y-74597000D03*
%TD*%
D32*
%TO.C,LED25*%
X123204000Y-41328000D03*
X123204000Y-42828000D03*
X128604000Y-42828000D03*
X128604000Y-41328000D03*
%TD*%
D28*
%TO.C,D5*%
X54044000Y-112787000D03*
D33*
X51994000Y-112787000D03*
D29*
X48144000Y-112787000D03*
D30*
X46044000Y-112787000D03*
%TD*%
D28*
%TO.C,D21*%
X107774000Y-131697000D03*
D33*
X105724000Y-131697000D03*
D29*
X101874000Y-131697000D03*
D30*
X99774000Y-131697000D03*
%TD*%
D32*
%TO.C,LED15*%
X85124000Y-41328000D03*
X85124000Y-42828000D03*
X90524000Y-42828000D03*
X90524000Y-41328000D03*
%TD*%
D39*
%TO.C,JP4*%
X97519000Y-148792000D03*
X96219000Y-148792000D03*
%TD*%
D28*
%TO.C,D20*%
X126244000Y-139517000D03*
D47*
X126244000Y-141567000D03*
D48*
X126244000Y-145417000D03*
D30*
X126244000Y-147517000D03*
%TD*%
D28*
%TO.C,D31*%
X138161500Y-55628250D03*
D33*
X136111500Y-55628250D03*
D29*
X132261500Y-55628250D03*
D30*
X130161500Y-55628250D03*
%TD*%
D40*
%TO.C,LED27*%
X133369000Y-99968000D03*
X133369000Y-98468000D03*
X127969000Y-98468000D03*
X127969000Y-99968000D03*
%TD*%
D28*
%TO.C,D19*%
X110024000Y-55707000D03*
D33*
X107974000Y-55707000D03*
D29*
X104124000Y-55707000D03*
D30*
X102024000Y-55707000D03*
%TD*%
D32*
%TO.C,LED6*%
X47044000Y-41328000D03*
X47044000Y-42828000D03*
X52444000Y-42828000D03*
X52444000Y-41328000D03*
%TD*%
%TO.C,LED26*%
X130345250Y-117498000D03*
X130345250Y-118998000D03*
X135745250Y-118998000D03*
X135745250Y-117498000D03*
%TD*%
D40*
%TO.C,LED5*%
X45310250Y-99968000D03*
X45310250Y-98468000D03*
X39910250Y-98468000D03*
X39910250Y-99968000D03*
%TD*%
D32*
%TO.C,LED33*%
X156524000Y-117498000D03*
X156524000Y-118998000D03*
X161924000Y-118998000D03*
X161924000Y-117498000D03*
%TD*%
D28*
%TO.C,D34*%
X172181500Y-112818250D03*
D33*
X170131500Y-112818250D03*
D29*
X166281500Y-112818250D03*
D30*
X164181500Y-112818250D03*
%TD*%
D40*
%TO.C,LED23*%
X119084000Y-61868000D03*
X119084000Y-60368000D03*
X113684000Y-60368000D03*
X113684000Y-61868000D03*
%TD*%
D32*
%TO.C,LED24*%
X118444000Y-79408000D03*
X118444000Y-80908000D03*
X123844000Y-80908000D03*
X123844000Y-79408000D03*
%TD*%
D40*
%TO.C,LED16*%
X95289000Y-99968000D03*
X95289000Y-98468000D03*
X89889000Y-98468000D03*
X89889000Y-99968000D03*
%TD*%
%TO.C,LED29*%
X143399000Y-137013000D03*
X143399000Y-135513000D03*
X137999000Y-135513000D03*
X137999000Y-137013000D03*
%TD*%
%TO.C,LED34*%
X171449000Y-99968000D03*
X171449000Y-98468000D03*
X166049000Y-98468000D03*
X166049000Y-99968000D03*
%TD*%
D41*
%TO.C,JP2*%
X57354000Y-104767000D03*
X57354000Y-106067000D03*
%TD*%
D32*
%TO.C,LED1*%
X28004000Y-41328000D03*
X28004000Y-42828000D03*
X33404000Y-42828000D03*
X33404000Y-41328000D03*
%TD*%
D40*
%TO.C,LED22*%
X114329000Y-99968000D03*
X114329000Y-98468000D03*
X108929000Y-98468000D03*
X108929000Y-99968000D03*
%TD*%
%TO.C,LED17*%
X100044000Y-61868000D03*
X100044000Y-60368000D03*
X94644000Y-60368000D03*
X94644000Y-61868000D03*
%TD*%
D28*
%TO.C,D10*%
X72704000Y-55667000D03*
D33*
X70654000Y-55667000D03*
D29*
X66804000Y-55667000D03*
D30*
X64704000Y-55667000D03*
%TD*%
%LPD*%
M02*
