%TF.GenerationSoftware,KiCad,Pcbnew,8.0.7*%
%TF.CreationDate,2025-08-07T21:50:34+02:00*%
%TF.ProjectId,pcb_keyboard_sx_rj11,7063625f-6b65-4796-926f-6172645f7378,rev?*%
%TF.SameCoordinates,Original*%
%TF.FileFunction,Legend,Top*%
%TF.FilePolarity,Positive*%
%FSLAX46Y46*%
G04 Gerber Fmt 4.6, Leading zero omitted, Abs format (unit mm)*
G04 Created by KiCad (PCBNEW 8.0.7) date 2025-08-07 21:50:34*
%MOMM*%
%LPD*%
G01*
G04 APERTURE LIST*
G04 Aperture macros list*
%AMRoundRect*
0 Rectangle with rounded corners*
0 $1 Rounding radius*
0 $2 $3 $4 $5 $6 $7 $8 $9 X,Y pos of 4 corners*
0 Add a 4 corners polygon primitive as box body*
4,1,4,$2,$3,$4,$5,$6,$7,$8,$9,$2,$3,0*
0 Add four circle primitives for the rounded corners*
1,1,$1+$1,$2,$3*
1,1,$1+$1,$4,$5*
1,1,$1+$1,$6,$7*
1,1,$1+$1,$8,$9*
0 Add four rect primitives between the rounded corners*
20,1,$1+$1,$2,$3,$4,$5,0*
20,1,$1+$1,$4,$5,$6,$7,0*
20,1,$1+$1,$6,$7,$8,$9,0*
20,1,$1+$1,$8,$9,$2,$3,0*%
%AMHorizOval*
0 Thick line with rounded ends*
0 $1 width*
0 $2 $3 position (X,Y) of the first rounded end (center of the circle)*
0 $4 $5 position (X,Y) of the second rounded end (center of the circle)*
0 Add line between two ends*
20,1,$1,$2,$3,$4,$5,0*
0 Add two circle primitives to create the rounded ends*
1,1,$1,$2,$3*
1,1,$1,$4,$5*%
%AMRotRect*
0 Rectangle, with rotation*
0 The origin of the aperture is its center*
0 $1 length*
0 $2 width*
0 $3 Rotation angle, in degrees counterclockwise*
0 Add horizontal line*
21,1,$1,$2,0,0,$3*%
G04 Aperture macros list end*
%ADD10C,0.200000*%
%ADD11C,0.120000*%
%ADD12C,0.250000*%
%ADD13C,1.750000*%
%ADD14C,3.050000*%
%ADD15C,4.000000*%
%ADD16C,3.200000*%
%ADD17C,1.200000*%
%ADD18C,3.250000*%
%ADD19RotRect,1.520000X1.520000X101.899000*%
%ADD20C,1.520000*%
%ADD21R,1.700000X1.700000*%
%ADD22O,1.700000X1.700000*%
%ADD23C,1.900000*%
%ADD24C,3.450000*%
%ADD25C,2.200000*%
%ADD26R,1.400000X1.400000*%
%ADD27RoundRect,0.300000X0.450000X0.300000X-0.450000X0.300000X-0.450000X-0.300000X0.450000X-0.300000X0*%
%ADD28RoundRect,0.300000X0.400000X0.300000X-0.400000X0.300000X-0.400000X-0.300000X0.400000X-0.300000X0*%
%ADD29C,1.400000*%
%ADD30O,1.700000X1.400000*%
%ADD31RotRect,1.400000X1.400000X150.000000*%
%ADD32RoundRect,0.300000X0.496410X0.059808X-0.196410X0.459808X-0.496410X-0.059808X0.196410X-0.459808X0*%
%ADD33RotRect,1.700000X1.700000X191.899000*%
%ADD34HorizOval,1.700000X0.000000X0.000000X0.000000X0.000000X0*%
%ADD35RoundRect,0.300000X-0.300000X0.400000X-0.300000X-0.400000X0.300000X-0.400000X0.300000X0.400000X0*%
G04 APERTURE END LIST*
D10*
X80757094Y-31074191D02*
X80654084Y-31047232D01*
X80654084Y-31047232D02*
X80514297Y-31076688D01*
X80514297Y-31076688D02*
X80384328Y-31152739D01*
X80384328Y-31152739D02*
X80310773Y-31265567D01*
X80310773Y-31265567D02*
X80283814Y-31368577D01*
X80283814Y-31368577D02*
X80276492Y-31564779D01*
X80276492Y-31564779D02*
X80305947Y-31704567D01*
X80305947Y-31704567D02*
X80391817Y-31881132D01*
X80391817Y-31881132D02*
X80458049Y-31964505D01*
X80458049Y-31964505D02*
X80570878Y-32038060D01*
X80570878Y-32038060D02*
X80720484Y-32055200D01*
X80720484Y-32055200D02*
X80813675Y-32035563D01*
X80813675Y-32035563D02*
X80943644Y-31959512D01*
X80943644Y-31959512D02*
X80980422Y-31903098D01*
X80980422Y-31903098D02*
X80911693Y-31576927D01*
X80911693Y-31576927D02*
X80725309Y-31616201D01*
X81419421Y-31907924D02*
X81213234Y-30929411D01*
X81213234Y-30929411D02*
X81978571Y-31790103D01*
X81978571Y-31790103D02*
X81772384Y-30811590D01*
X82444530Y-31691918D02*
X82238343Y-30713406D01*
X82238343Y-30713406D02*
X82471322Y-30664313D01*
X82471322Y-30664313D02*
X82620928Y-30681454D01*
X82620928Y-30681454D02*
X82733756Y-30755009D01*
X82733756Y-30755009D02*
X82799989Y-30838382D01*
X82799989Y-30838382D02*
X82885858Y-31014947D01*
X82885858Y-31014947D02*
X82915314Y-31154734D01*
X82915314Y-31154734D02*
X82907992Y-31350936D01*
X82907992Y-31350936D02*
X82881033Y-31453946D01*
X82881033Y-31453946D02*
X82807478Y-31566775D01*
X82807478Y-31566775D02*
X82677509Y-31642826D01*
X82677509Y-31642826D02*
X82444530Y-31691918D01*
X96839537Y-27125930D02*
X96736527Y-27098971D01*
X96736527Y-27098971D02*
X96596740Y-27128427D01*
X96596740Y-27128427D02*
X96466771Y-27204478D01*
X96466771Y-27204478D02*
X96393216Y-27317306D01*
X96393216Y-27317306D02*
X96366257Y-27420316D01*
X96366257Y-27420316D02*
X96358935Y-27616518D01*
X96358935Y-27616518D02*
X96388390Y-27756306D01*
X96388390Y-27756306D02*
X96474260Y-27932871D01*
X96474260Y-27932871D02*
X96540492Y-28016244D01*
X96540492Y-28016244D02*
X96653321Y-28089799D01*
X96653321Y-28089799D02*
X96802927Y-28106939D01*
X96802927Y-28106939D02*
X96896118Y-28087302D01*
X96896118Y-28087302D02*
X97026087Y-28011251D01*
X97026087Y-28011251D02*
X97062865Y-27954837D01*
X97062865Y-27954837D02*
X96994136Y-27628666D01*
X96994136Y-27628666D02*
X96807752Y-27667940D01*
X97501864Y-27959663D02*
X97295677Y-26981150D01*
X97295677Y-26981150D02*
X98061014Y-27841842D01*
X98061014Y-27841842D02*
X97854827Y-26863329D01*
X98526973Y-27743657D02*
X98320786Y-26765145D01*
X98320786Y-26765145D02*
X98553765Y-26716052D01*
X98553765Y-26716052D02*
X98703371Y-26733193D01*
X98703371Y-26733193D02*
X98816199Y-26806748D01*
X98816199Y-26806748D02*
X98882432Y-26890121D01*
X98882432Y-26890121D02*
X98968301Y-27066686D01*
X98968301Y-27066686D02*
X98997757Y-27206473D01*
X98997757Y-27206473D02*
X98990435Y-27402675D01*
X98990435Y-27402675D02*
X98963476Y-27505685D01*
X98963476Y-27505685D02*
X98889921Y-27618514D01*
X98889921Y-27618514D02*
X98759952Y-27694565D01*
X98759952Y-27694565D02*
X98526973Y-27743657D01*
X79608537Y-27012299D02*
X79758143Y-27029440D01*
X79758143Y-27029440D02*
X79991123Y-26980348D01*
X79991123Y-26980348D02*
X80074496Y-26914115D01*
X80074496Y-26914115D02*
X80111273Y-26857701D01*
X80111273Y-26857701D02*
X80138232Y-26754691D01*
X80138232Y-26754691D02*
X80118595Y-26661499D01*
X80118595Y-26661499D02*
X80052363Y-26578126D01*
X80052363Y-26578126D02*
X79995948Y-26541348D01*
X79995948Y-26541348D02*
X79892938Y-26514389D01*
X79892938Y-26514389D02*
X79696736Y-26507067D01*
X79696736Y-26507067D02*
X79593726Y-26480108D01*
X79593726Y-26480108D02*
X79537312Y-26443331D01*
X79537312Y-26443331D02*
X79471079Y-26359958D01*
X79471079Y-26359958D02*
X79451442Y-26266766D01*
X79451442Y-26266766D02*
X79478401Y-26163756D01*
X79478401Y-26163756D02*
X79515179Y-26107342D01*
X79515179Y-26107342D02*
X79598552Y-26041109D01*
X79598552Y-26041109D02*
X79831531Y-25992017D01*
X79831531Y-25992017D02*
X79981137Y-26009157D01*
X81136382Y-26641695D02*
X81099604Y-26698110D01*
X81099604Y-26698110D02*
X80969635Y-26774161D01*
X80969635Y-26774161D02*
X80876444Y-26793798D01*
X80876444Y-26793798D02*
X80726838Y-26776657D01*
X80726838Y-26776657D02*
X80614009Y-26703102D01*
X80614009Y-26703102D02*
X80547776Y-26619729D01*
X80547776Y-26619729D02*
X80461907Y-26443164D01*
X80461907Y-26443164D02*
X80432451Y-26303377D01*
X80432451Y-26303377D02*
X80439774Y-26107175D01*
X80439774Y-26107175D02*
X80466733Y-26004165D01*
X80466733Y-26004165D02*
X80540287Y-25891336D01*
X80540287Y-25891336D02*
X80670256Y-25815285D01*
X80670256Y-25815285D02*
X80763448Y-25795648D01*
X80763448Y-25795648D02*
X80913054Y-25812789D01*
X80913054Y-25812789D02*
X80969468Y-25849566D01*
X82041339Y-26548337D02*
X81575381Y-26646521D01*
X81575381Y-26646521D02*
X81369194Y-25668008D01*
X79186937Y-24539072D02*
X79336543Y-24556213D01*
X79336543Y-24556213D02*
X79569523Y-24507121D01*
X79569523Y-24507121D02*
X79652896Y-24440888D01*
X79652896Y-24440888D02*
X79689673Y-24384474D01*
X79689673Y-24384474D02*
X79716632Y-24281464D01*
X79716632Y-24281464D02*
X79696995Y-24188272D01*
X79696995Y-24188272D02*
X79630763Y-24104899D01*
X79630763Y-24104899D02*
X79574348Y-24068121D01*
X79574348Y-24068121D02*
X79471338Y-24041162D01*
X79471338Y-24041162D02*
X79275136Y-24033840D01*
X79275136Y-24033840D02*
X79172126Y-24006881D01*
X79172126Y-24006881D02*
X79115712Y-23970104D01*
X79115712Y-23970104D02*
X79049479Y-23886731D01*
X79049479Y-23886731D02*
X79029842Y-23793539D01*
X79029842Y-23793539D02*
X79056801Y-23690529D01*
X79056801Y-23690529D02*
X79093579Y-23634115D01*
X79093579Y-23634115D02*
X79176952Y-23567882D01*
X79176952Y-23567882D02*
X79409931Y-23518790D01*
X79409931Y-23518790D02*
X79559537Y-23535930D01*
X80175268Y-24379481D02*
X79969081Y-23400969D01*
X79969081Y-23400969D02*
X80202061Y-23351876D01*
X80202061Y-23351876D02*
X80351667Y-23369017D01*
X80351667Y-23369017D02*
X80464495Y-23442572D01*
X80464495Y-23442572D02*
X80530728Y-23525945D01*
X80530728Y-23525945D02*
X80616597Y-23702510D01*
X80616597Y-23702510D02*
X80646053Y-23842297D01*
X80646053Y-23842297D02*
X80638731Y-24038499D01*
X80638731Y-24038499D02*
X80611772Y-24141509D01*
X80611772Y-24141509D02*
X80538217Y-24254338D01*
X80538217Y-24254338D02*
X80408248Y-24330389D01*
X80408248Y-24330389D02*
X80175268Y-24379481D01*
X81048275Y-23903537D02*
X81514233Y-23805353D01*
X81013994Y-24202749D02*
X81133977Y-23155508D01*
X81133977Y-23155508D02*
X81666335Y-24065291D01*
X82413352Y-35495850D02*
X82207165Y-34517337D01*
X82207165Y-34517337D02*
X82440144Y-34468245D01*
X82440144Y-34468245D02*
X82589750Y-34485386D01*
X82589750Y-34485386D02*
X82702578Y-34558940D01*
X82702578Y-34558940D02*
X82768811Y-34642314D01*
X82768811Y-34642314D02*
X82854681Y-34818879D01*
X82854681Y-34818879D02*
X82884136Y-34958666D01*
X82884136Y-34958666D02*
X82876814Y-35154868D01*
X82876814Y-35154868D02*
X82849855Y-35257878D01*
X82849855Y-35257878D02*
X82776300Y-35370707D01*
X82776300Y-35370707D02*
X82646331Y-35446758D01*
X82646331Y-35446758D02*
X82413352Y-35495850D01*
X83313317Y-34916896D02*
X84058850Y-34759801D01*
X82893352Y-38035850D02*
X82687165Y-37057337D01*
X82687165Y-37057337D02*
X82920144Y-37008245D01*
X82920144Y-37008245D02*
X83069750Y-37025386D01*
X83069750Y-37025386D02*
X83182578Y-37098940D01*
X83182578Y-37098940D02*
X83248811Y-37182314D01*
X83248811Y-37182314D02*
X83334681Y-37358879D01*
X83334681Y-37358879D02*
X83364136Y-37498666D01*
X83364136Y-37498666D02*
X83356814Y-37694868D01*
X83356814Y-37694868D02*
X83329855Y-37797878D01*
X83329855Y-37797878D02*
X83256300Y-37910707D01*
X83256300Y-37910707D02*
X83126331Y-37986758D01*
X83126331Y-37986758D02*
X82893352Y-38035850D01*
X83793317Y-37456896D02*
X84538850Y-37299801D01*
X84244631Y-37751115D02*
X84087536Y-37005582D01*
X96747502Y-24583029D02*
X96323147Y-24185799D01*
X96188352Y-24700850D02*
X95982165Y-23722337D01*
X95982165Y-23722337D02*
X96354931Y-23643790D01*
X96354931Y-23643790D02*
X96457941Y-23670749D01*
X96457941Y-23670749D02*
X96514356Y-23707526D01*
X96514356Y-23707526D02*
X96580588Y-23790899D01*
X96580588Y-23790899D02*
X96610044Y-23930687D01*
X96610044Y-23930687D02*
X96583085Y-24033697D01*
X96583085Y-24033697D02*
X96546307Y-24090111D01*
X96546307Y-24090111D02*
X96462934Y-24156344D01*
X96462934Y-24156344D02*
X96090167Y-24234891D01*
X96867485Y-23535787D02*
X97726014Y-24376842D01*
X97519827Y-23398329D02*
X97073673Y-24514300D01*
X91537377Y-27786793D02*
X92096527Y-27668971D01*
X92023139Y-28706395D02*
X91816952Y-27727882D01*
X92329507Y-27619879D02*
X93188035Y-28460934D01*
X92981848Y-27482421D02*
X92535694Y-28598392D01*
X79694804Y-29263083D02*
X80440338Y-29105988D01*
X80146118Y-29557302D02*
X79989023Y-28811769D01*
X81244614Y-28303874D02*
X80778656Y-28402058D01*
X80778656Y-28402058D02*
X80830245Y-28877835D01*
X80830245Y-28877835D02*
X80867022Y-28821421D01*
X80867022Y-28821421D02*
X80950395Y-28755188D01*
X80950395Y-28755188D02*
X81183374Y-28706096D01*
X81183374Y-28706096D02*
X81286385Y-28733055D01*
X81286385Y-28733055D02*
X81342799Y-28769832D01*
X81342799Y-28769832D02*
X81409032Y-28853205D01*
X81409032Y-28853205D02*
X81458124Y-29086184D01*
X81458124Y-29086184D02*
X81431165Y-29189195D01*
X81431165Y-29189195D02*
X81394387Y-29245609D01*
X81394387Y-29245609D02*
X81311014Y-29311842D01*
X81311014Y-29311842D02*
X81078035Y-29360934D01*
X81078035Y-29360934D02*
X80975025Y-29333975D01*
X80975025Y-29333975D02*
X80918611Y-29297197D01*
X81570785Y-28235145D02*
X82103143Y-29144928D01*
X82103143Y-29144928D02*
X82223127Y-28097687D01*
X90104804Y-22083083D02*
X90850338Y-21925988D01*
X90556118Y-22377302D02*
X90399023Y-21631769D01*
X91654614Y-21123874D02*
X91188656Y-21222058D01*
X91188656Y-21222058D02*
X91240245Y-21697835D01*
X91240245Y-21697835D02*
X91277022Y-21641421D01*
X91277022Y-21641421D02*
X91360395Y-21575188D01*
X91360395Y-21575188D02*
X91593374Y-21526096D01*
X91593374Y-21526096D02*
X91696385Y-21553055D01*
X91696385Y-21553055D02*
X91752799Y-21589832D01*
X91752799Y-21589832D02*
X91819032Y-21673205D01*
X91819032Y-21673205D02*
X91868124Y-21906184D01*
X91868124Y-21906184D02*
X91841165Y-22009195D01*
X91841165Y-22009195D02*
X91804387Y-22065609D01*
X91804387Y-22065609D02*
X91721014Y-22131842D01*
X91721014Y-22131842D02*
X91488035Y-22180934D01*
X91488035Y-22180934D02*
X91385025Y-22153975D01*
X91385025Y-22153975D02*
X91328611Y-22117197D01*
X91980785Y-21055145D02*
X92513143Y-21964928D01*
X92513143Y-21964928D02*
X92633127Y-20917687D01*
X95372094Y-19799191D02*
X95269084Y-19772232D01*
X95269084Y-19772232D02*
X95129297Y-19801688D01*
X95129297Y-19801688D02*
X94999328Y-19877739D01*
X94999328Y-19877739D02*
X94925773Y-19990567D01*
X94925773Y-19990567D02*
X94898814Y-20093577D01*
X94898814Y-20093577D02*
X94891492Y-20289779D01*
X94891492Y-20289779D02*
X94920947Y-20429567D01*
X94920947Y-20429567D02*
X95006817Y-20606132D01*
X95006817Y-20606132D02*
X95073049Y-20689505D01*
X95073049Y-20689505D02*
X95185878Y-20763060D01*
X95185878Y-20763060D02*
X95335484Y-20780200D01*
X95335484Y-20780200D02*
X95428675Y-20760563D01*
X95428675Y-20760563D02*
X95558644Y-20684512D01*
X95558644Y-20684512D02*
X95595422Y-20628098D01*
X95595422Y-20628098D02*
X95526693Y-20301927D01*
X95526693Y-20301927D02*
X95340309Y-20341201D01*
X96034421Y-20632924D02*
X95828234Y-19654411D01*
X95828234Y-19654411D02*
X96593571Y-20515103D01*
X96593571Y-20515103D02*
X96387384Y-19536590D01*
X97059530Y-20416918D02*
X96853343Y-19438406D01*
X96853343Y-19438406D02*
X97086322Y-19389313D01*
X97086322Y-19389313D02*
X97235928Y-19406454D01*
X97235928Y-19406454D02*
X97348756Y-19480009D01*
X97348756Y-19480009D02*
X97414989Y-19563382D01*
X97414989Y-19563382D02*
X97500858Y-19739947D01*
X97500858Y-19739947D02*
X97530314Y-19879734D01*
X97530314Y-19879734D02*
X97522992Y-20075936D01*
X97522992Y-20075936D02*
X97496033Y-20178946D01*
X97496033Y-20178946D02*
X97422478Y-20291775D01*
X97422478Y-20291775D02*
X97292509Y-20367826D01*
X97292509Y-20367826D02*
X97059530Y-20416918D01*
X87858673Y-143622219D02*
X87858673Y-142955552D01*
X87858673Y-143050790D02*
X87906292Y-143003171D01*
X87906292Y-143003171D02*
X88001530Y-142955552D01*
X88001530Y-142955552D02*
X88144387Y-142955552D01*
X88144387Y-142955552D02*
X88239625Y-143003171D01*
X88239625Y-143003171D02*
X88287244Y-143098409D01*
X88287244Y-143098409D02*
X88287244Y-143622219D01*
X88287244Y-143098409D02*
X88334863Y-143003171D01*
X88334863Y-143003171D02*
X88430101Y-142955552D01*
X88430101Y-142955552D02*
X88572958Y-142955552D01*
X88572958Y-142955552D02*
X88668197Y-143003171D01*
X88668197Y-143003171D02*
X88715816Y-143098409D01*
X88715816Y-143098409D02*
X88715816Y-143622219D01*
X89334863Y-143622219D02*
X89239625Y-143574600D01*
X89239625Y-143574600D02*
X89192006Y-143526980D01*
X89192006Y-143526980D02*
X89144387Y-143431742D01*
X89144387Y-143431742D02*
X89144387Y-143146028D01*
X89144387Y-143146028D02*
X89192006Y-143050790D01*
X89192006Y-143050790D02*
X89239625Y-143003171D01*
X89239625Y-143003171D02*
X89334863Y-142955552D01*
X89334863Y-142955552D02*
X89477720Y-142955552D01*
X89477720Y-142955552D02*
X89572958Y-143003171D01*
X89572958Y-143003171D02*
X89620577Y-143050790D01*
X89620577Y-143050790D02*
X89668196Y-143146028D01*
X89668196Y-143146028D02*
X89668196Y-143431742D01*
X89668196Y-143431742D02*
X89620577Y-143526980D01*
X89620577Y-143526980D02*
X89572958Y-143574600D01*
X89572958Y-143574600D02*
X89477720Y-143622219D01*
X89477720Y-143622219D02*
X89334863Y-143622219D01*
X90525339Y-142955552D02*
X90525339Y-143622219D01*
X90096768Y-142955552D02*
X90096768Y-143479361D01*
X90096768Y-143479361D02*
X90144387Y-143574600D01*
X90144387Y-143574600D02*
X90239625Y-143622219D01*
X90239625Y-143622219D02*
X90382482Y-143622219D01*
X90382482Y-143622219D02*
X90477720Y-143574600D01*
X90477720Y-143574600D02*
X90525339Y-143526980D01*
X91001530Y-142955552D02*
X91001530Y-143622219D01*
X91001530Y-143050790D02*
X91049149Y-143003171D01*
X91049149Y-143003171D02*
X91144387Y-142955552D01*
X91144387Y-142955552D02*
X91287244Y-142955552D01*
X91287244Y-142955552D02*
X91382482Y-143003171D01*
X91382482Y-143003171D02*
X91430101Y-143098409D01*
X91430101Y-143098409D02*
X91430101Y-143622219D01*
X91763435Y-142955552D02*
X92144387Y-142955552D01*
X91906292Y-142622219D02*
X91906292Y-143479361D01*
X91906292Y-143479361D02*
X91953911Y-143574600D01*
X91953911Y-143574600D02*
X92049149Y-143622219D01*
X92049149Y-143622219D02*
X92144387Y-143622219D01*
X92477721Y-143622219D02*
X92477721Y-142955552D01*
X92477721Y-142622219D02*
X92430102Y-142669838D01*
X92430102Y-142669838D02*
X92477721Y-142717457D01*
X92477721Y-142717457D02*
X92525340Y-142669838D01*
X92525340Y-142669838D02*
X92477721Y-142622219D01*
X92477721Y-142622219D02*
X92477721Y-142717457D01*
X92953911Y-142955552D02*
X92953911Y-143622219D01*
X92953911Y-143050790D02*
X93001530Y-143003171D01*
X93001530Y-143003171D02*
X93096768Y-142955552D01*
X93096768Y-142955552D02*
X93239625Y-142955552D01*
X93239625Y-142955552D02*
X93334863Y-143003171D01*
X93334863Y-143003171D02*
X93382482Y-143098409D01*
X93382482Y-143098409D02*
X93382482Y-143622219D01*
X94287244Y-142955552D02*
X94287244Y-143765076D01*
X94287244Y-143765076D02*
X94239625Y-143860314D01*
X94239625Y-143860314D02*
X94192006Y-143907933D01*
X94192006Y-143907933D02*
X94096768Y-143955552D01*
X94096768Y-143955552D02*
X93953911Y-143955552D01*
X93953911Y-143955552D02*
X93858673Y-143907933D01*
X94287244Y-143574600D02*
X94192006Y-143622219D01*
X94192006Y-143622219D02*
X94001530Y-143622219D01*
X94001530Y-143622219D02*
X93906292Y-143574600D01*
X93906292Y-143574600D02*
X93858673Y-143526980D01*
X93858673Y-143526980D02*
X93811054Y-143431742D01*
X93811054Y-143431742D02*
X93811054Y-143146028D01*
X93811054Y-143146028D02*
X93858673Y-143050790D01*
X93858673Y-143050790D02*
X93906292Y-143003171D01*
X93906292Y-143003171D02*
X94001530Y-142955552D01*
X94001530Y-142955552D02*
X94192006Y-142955552D01*
X94192006Y-142955552D02*
X94287244Y-143003171D01*
X89808673Y-144922219D02*
X89808673Y-143922219D01*
X90237244Y-144922219D02*
X90237244Y-144398409D01*
X90237244Y-144398409D02*
X90189625Y-144303171D01*
X90189625Y-144303171D02*
X90094387Y-144255552D01*
X90094387Y-144255552D02*
X89951530Y-144255552D01*
X89951530Y-144255552D02*
X89856292Y-144303171D01*
X89856292Y-144303171D02*
X89808673Y-144350790D01*
X90856292Y-144922219D02*
X90761054Y-144874600D01*
X90761054Y-144874600D02*
X90713435Y-144826980D01*
X90713435Y-144826980D02*
X90665816Y-144731742D01*
X90665816Y-144731742D02*
X90665816Y-144446028D01*
X90665816Y-144446028D02*
X90713435Y-144350790D01*
X90713435Y-144350790D02*
X90761054Y-144303171D01*
X90761054Y-144303171D02*
X90856292Y-144255552D01*
X90856292Y-144255552D02*
X90999149Y-144255552D01*
X90999149Y-144255552D02*
X91094387Y-144303171D01*
X91094387Y-144303171D02*
X91142006Y-144350790D01*
X91142006Y-144350790D02*
X91189625Y-144446028D01*
X91189625Y-144446028D02*
X91189625Y-144731742D01*
X91189625Y-144731742D02*
X91142006Y-144826980D01*
X91142006Y-144826980D02*
X91094387Y-144874600D01*
X91094387Y-144874600D02*
X90999149Y-144922219D01*
X90999149Y-144922219D02*
X90856292Y-144922219D01*
X91761054Y-144922219D02*
X91665816Y-144874600D01*
X91665816Y-144874600D02*
X91618197Y-144779361D01*
X91618197Y-144779361D02*
X91618197Y-143922219D01*
X92522959Y-144874600D02*
X92427721Y-144922219D01*
X92427721Y-144922219D02*
X92237245Y-144922219D01*
X92237245Y-144922219D02*
X92142007Y-144874600D01*
X92142007Y-144874600D02*
X92094388Y-144779361D01*
X92094388Y-144779361D02*
X92094388Y-144398409D01*
X92094388Y-144398409D02*
X92142007Y-144303171D01*
X92142007Y-144303171D02*
X92237245Y-144255552D01*
X92237245Y-144255552D02*
X92427721Y-144255552D01*
X92427721Y-144255552D02*
X92522959Y-144303171D01*
X92522959Y-144303171D02*
X92570578Y-144398409D01*
X92570578Y-144398409D02*
X92570578Y-144493647D01*
X92570578Y-144493647D02*
X92094388Y-144588885D01*
X61560673Y-98597552D02*
X61560673Y-99597552D01*
X61560673Y-98645171D02*
X61655911Y-98597552D01*
X61655911Y-98597552D02*
X61846387Y-98597552D01*
X61846387Y-98597552D02*
X61941625Y-98645171D01*
X61941625Y-98645171D02*
X61989244Y-98692790D01*
X61989244Y-98692790D02*
X62036863Y-98788028D01*
X62036863Y-98788028D02*
X62036863Y-99073742D01*
X62036863Y-99073742D02*
X61989244Y-99168980D01*
X61989244Y-99168980D02*
X61941625Y-99216600D01*
X61941625Y-99216600D02*
X61846387Y-99264219D01*
X61846387Y-99264219D02*
X61655911Y-99264219D01*
X61655911Y-99264219D02*
X61560673Y-99216600D01*
X62894006Y-99216600D02*
X62798768Y-99264219D01*
X62798768Y-99264219D02*
X62608292Y-99264219D01*
X62608292Y-99264219D02*
X62513054Y-99216600D01*
X62513054Y-99216600D02*
X62465435Y-99168980D01*
X62465435Y-99168980D02*
X62417816Y-99073742D01*
X62417816Y-99073742D02*
X62417816Y-98788028D01*
X62417816Y-98788028D02*
X62465435Y-98692790D01*
X62465435Y-98692790D02*
X62513054Y-98645171D01*
X62513054Y-98645171D02*
X62608292Y-98597552D01*
X62608292Y-98597552D02*
X62798768Y-98597552D01*
X62798768Y-98597552D02*
X62894006Y-98645171D01*
X63322578Y-99264219D02*
X63322578Y-98264219D01*
X63322578Y-98645171D02*
X63417816Y-98597552D01*
X63417816Y-98597552D02*
X63608292Y-98597552D01*
X63608292Y-98597552D02*
X63703530Y-98645171D01*
X63703530Y-98645171D02*
X63751149Y-98692790D01*
X63751149Y-98692790D02*
X63798768Y-98788028D01*
X63798768Y-98788028D02*
X63798768Y-99073742D01*
X63798768Y-99073742D02*
X63751149Y-99168980D01*
X63751149Y-99168980D02*
X63703530Y-99216600D01*
X63703530Y-99216600D02*
X63608292Y-99264219D01*
X63608292Y-99264219D02*
X63417816Y-99264219D01*
X63417816Y-99264219D02*
X63322578Y-99216600D01*
X60063054Y-100596600D02*
X60158292Y-100644219D01*
X60158292Y-100644219D02*
X60348768Y-100644219D01*
X60348768Y-100644219D02*
X60444006Y-100596600D01*
X60444006Y-100596600D02*
X60491625Y-100501361D01*
X60491625Y-100501361D02*
X60491625Y-100453742D01*
X60491625Y-100453742D02*
X60444006Y-100358504D01*
X60444006Y-100358504D02*
X60348768Y-100310885D01*
X60348768Y-100310885D02*
X60205911Y-100310885D01*
X60205911Y-100310885D02*
X60110673Y-100263266D01*
X60110673Y-100263266D02*
X60063054Y-100168028D01*
X60063054Y-100168028D02*
X60063054Y-100120409D01*
X60063054Y-100120409D02*
X60110673Y-100025171D01*
X60110673Y-100025171D02*
X60205911Y-99977552D01*
X60205911Y-99977552D02*
X60348768Y-99977552D01*
X60348768Y-99977552D02*
X60444006Y-100025171D01*
X61348768Y-99977552D02*
X61348768Y-100644219D01*
X60920197Y-99977552D02*
X60920197Y-100501361D01*
X60920197Y-100501361D02*
X60967816Y-100596600D01*
X60967816Y-100596600D02*
X61063054Y-100644219D01*
X61063054Y-100644219D02*
X61205911Y-100644219D01*
X61205911Y-100644219D02*
X61301149Y-100596600D01*
X61301149Y-100596600D02*
X61348768Y-100548980D01*
X61824959Y-99977552D02*
X61824959Y-100977552D01*
X61824959Y-100025171D02*
X61920197Y-99977552D01*
X61920197Y-99977552D02*
X62110673Y-99977552D01*
X62110673Y-99977552D02*
X62205911Y-100025171D01*
X62205911Y-100025171D02*
X62253530Y-100072790D01*
X62253530Y-100072790D02*
X62301149Y-100168028D01*
X62301149Y-100168028D02*
X62301149Y-100453742D01*
X62301149Y-100453742D02*
X62253530Y-100548980D01*
X62253530Y-100548980D02*
X62205911Y-100596600D01*
X62205911Y-100596600D02*
X62110673Y-100644219D01*
X62110673Y-100644219D02*
X61920197Y-100644219D01*
X61920197Y-100644219D02*
X61824959Y-100596600D01*
X62729721Y-99977552D02*
X62729721Y-100977552D01*
X62729721Y-100025171D02*
X62824959Y-99977552D01*
X62824959Y-99977552D02*
X63015435Y-99977552D01*
X63015435Y-99977552D02*
X63110673Y-100025171D01*
X63110673Y-100025171D02*
X63158292Y-100072790D01*
X63158292Y-100072790D02*
X63205911Y-100168028D01*
X63205911Y-100168028D02*
X63205911Y-100453742D01*
X63205911Y-100453742D02*
X63158292Y-100548980D01*
X63158292Y-100548980D02*
X63110673Y-100596600D01*
X63110673Y-100596600D02*
X63015435Y-100644219D01*
X63015435Y-100644219D02*
X62824959Y-100644219D01*
X62824959Y-100644219D02*
X62729721Y-100596600D01*
X63777340Y-100644219D02*
X63682102Y-100596600D01*
X63682102Y-100596600D02*
X63634483Y-100548980D01*
X63634483Y-100548980D02*
X63586864Y-100453742D01*
X63586864Y-100453742D02*
X63586864Y-100168028D01*
X63586864Y-100168028D02*
X63634483Y-100072790D01*
X63634483Y-100072790D02*
X63682102Y-100025171D01*
X63682102Y-100025171D02*
X63777340Y-99977552D01*
X63777340Y-99977552D02*
X63920197Y-99977552D01*
X63920197Y-99977552D02*
X64015435Y-100025171D01*
X64015435Y-100025171D02*
X64063054Y-100072790D01*
X64063054Y-100072790D02*
X64110673Y-100168028D01*
X64110673Y-100168028D02*
X64110673Y-100453742D01*
X64110673Y-100453742D02*
X64063054Y-100548980D01*
X64063054Y-100548980D02*
X64015435Y-100596600D01*
X64015435Y-100596600D02*
X63920197Y-100644219D01*
X63920197Y-100644219D02*
X63777340Y-100644219D01*
X64539245Y-100644219D02*
X64539245Y-99977552D01*
X64539245Y-100168028D02*
X64586864Y-100072790D01*
X64586864Y-100072790D02*
X64634483Y-100025171D01*
X64634483Y-100025171D02*
X64729721Y-99977552D01*
X64729721Y-99977552D02*
X64824959Y-99977552D01*
X65015436Y-99977552D02*
X65396388Y-99977552D01*
X65158293Y-99644219D02*
X65158293Y-100501361D01*
X65158293Y-100501361D02*
X65205912Y-100596600D01*
X65205912Y-100596600D02*
X65301150Y-100644219D01*
X65301150Y-100644219D02*
X65396388Y-100644219D01*
X124853673Y-59507552D02*
X124853673Y-60507552D01*
X124853673Y-59555171D02*
X124948911Y-59507552D01*
X124948911Y-59507552D02*
X125139387Y-59507552D01*
X125139387Y-59507552D02*
X125234625Y-59555171D01*
X125234625Y-59555171D02*
X125282244Y-59602790D01*
X125282244Y-59602790D02*
X125329863Y-59698028D01*
X125329863Y-59698028D02*
X125329863Y-59983742D01*
X125329863Y-59983742D02*
X125282244Y-60078980D01*
X125282244Y-60078980D02*
X125234625Y-60126600D01*
X125234625Y-60126600D02*
X125139387Y-60174219D01*
X125139387Y-60174219D02*
X124948911Y-60174219D01*
X124948911Y-60174219D02*
X124853673Y-60126600D01*
X126187006Y-60126600D02*
X126091768Y-60174219D01*
X126091768Y-60174219D02*
X125901292Y-60174219D01*
X125901292Y-60174219D02*
X125806054Y-60126600D01*
X125806054Y-60126600D02*
X125758435Y-60078980D01*
X125758435Y-60078980D02*
X125710816Y-59983742D01*
X125710816Y-59983742D02*
X125710816Y-59698028D01*
X125710816Y-59698028D02*
X125758435Y-59602790D01*
X125758435Y-59602790D02*
X125806054Y-59555171D01*
X125806054Y-59555171D02*
X125901292Y-59507552D01*
X125901292Y-59507552D02*
X126091768Y-59507552D01*
X126091768Y-59507552D02*
X126187006Y-59555171D01*
X126615578Y-60174219D02*
X126615578Y-59174219D01*
X126615578Y-59555171D02*
X126710816Y-59507552D01*
X126710816Y-59507552D02*
X126901292Y-59507552D01*
X126901292Y-59507552D02*
X126996530Y-59555171D01*
X126996530Y-59555171D02*
X127044149Y-59602790D01*
X127044149Y-59602790D02*
X127091768Y-59698028D01*
X127091768Y-59698028D02*
X127091768Y-59983742D01*
X127091768Y-59983742D02*
X127044149Y-60078980D01*
X127044149Y-60078980D02*
X126996530Y-60126600D01*
X126996530Y-60126600D02*
X126901292Y-60174219D01*
X126901292Y-60174219D02*
X126710816Y-60174219D01*
X126710816Y-60174219D02*
X126615578Y-60126600D01*
X123356054Y-61506600D02*
X123451292Y-61554219D01*
X123451292Y-61554219D02*
X123641768Y-61554219D01*
X123641768Y-61554219D02*
X123737006Y-61506600D01*
X123737006Y-61506600D02*
X123784625Y-61411361D01*
X123784625Y-61411361D02*
X123784625Y-61363742D01*
X123784625Y-61363742D02*
X123737006Y-61268504D01*
X123737006Y-61268504D02*
X123641768Y-61220885D01*
X123641768Y-61220885D02*
X123498911Y-61220885D01*
X123498911Y-61220885D02*
X123403673Y-61173266D01*
X123403673Y-61173266D02*
X123356054Y-61078028D01*
X123356054Y-61078028D02*
X123356054Y-61030409D01*
X123356054Y-61030409D02*
X123403673Y-60935171D01*
X123403673Y-60935171D02*
X123498911Y-60887552D01*
X123498911Y-60887552D02*
X123641768Y-60887552D01*
X123641768Y-60887552D02*
X123737006Y-60935171D01*
X124641768Y-60887552D02*
X124641768Y-61554219D01*
X124213197Y-60887552D02*
X124213197Y-61411361D01*
X124213197Y-61411361D02*
X124260816Y-61506600D01*
X124260816Y-61506600D02*
X124356054Y-61554219D01*
X124356054Y-61554219D02*
X124498911Y-61554219D01*
X124498911Y-61554219D02*
X124594149Y-61506600D01*
X124594149Y-61506600D02*
X124641768Y-61458980D01*
X125117959Y-60887552D02*
X125117959Y-61887552D01*
X125117959Y-60935171D02*
X125213197Y-60887552D01*
X125213197Y-60887552D02*
X125403673Y-60887552D01*
X125403673Y-60887552D02*
X125498911Y-60935171D01*
X125498911Y-60935171D02*
X125546530Y-60982790D01*
X125546530Y-60982790D02*
X125594149Y-61078028D01*
X125594149Y-61078028D02*
X125594149Y-61363742D01*
X125594149Y-61363742D02*
X125546530Y-61458980D01*
X125546530Y-61458980D02*
X125498911Y-61506600D01*
X125498911Y-61506600D02*
X125403673Y-61554219D01*
X125403673Y-61554219D02*
X125213197Y-61554219D01*
X125213197Y-61554219D02*
X125117959Y-61506600D01*
X126022721Y-60887552D02*
X126022721Y-61887552D01*
X126022721Y-60935171D02*
X126117959Y-60887552D01*
X126117959Y-60887552D02*
X126308435Y-60887552D01*
X126308435Y-60887552D02*
X126403673Y-60935171D01*
X126403673Y-60935171D02*
X126451292Y-60982790D01*
X126451292Y-60982790D02*
X126498911Y-61078028D01*
X126498911Y-61078028D02*
X126498911Y-61363742D01*
X126498911Y-61363742D02*
X126451292Y-61458980D01*
X126451292Y-61458980D02*
X126403673Y-61506600D01*
X126403673Y-61506600D02*
X126308435Y-61554219D01*
X126308435Y-61554219D02*
X126117959Y-61554219D01*
X126117959Y-61554219D02*
X126022721Y-61506600D01*
X127070340Y-61554219D02*
X126975102Y-61506600D01*
X126975102Y-61506600D02*
X126927483Y-61458980D01*
X126927483Y-61458980D02*
X126879864Y-61363742D01*
X126879864Y-61363742D02*
X126879864Y-61078028D01*
X126879864Y-61078028D02*
X126927483Y-60982790D01*
X126927483Y-60982790D02*
X126975102Y-60935171D01*
X126975102Y-60935171D02*
X127070340Y-60887552D01*
X127070340Y-60887552D02*
X127213197Y-60887552D01*
X127213197Y-60887552D02*
X127308435Y-60935171D01*
X127308435Y-60935171D02*
X127356054Y-60982790D01*
X127356054Y-60982790D02*
X127403673Y-61078028D01*
X127403673Y-61078028D02*
X127403673Y-61363742D01*
X127403673Y-61363742D02*
X127356054Y-61458980D01*
X127356054Y-61458980D02*
X127308435Y-61506600D01*
X127308435Y-61506600D02*
X127213197Y-61554219D01*
X127213197Y-61554219D02*
X127070340Y-61554219D01*
X127832245Y-61554219D02*
X127832245Y-60887552D01*
X127832245Y-61078028D02*
X127879864Y-60982790D01*
X127879864Y-60982790D02*
X127927483Y-60935171D01*
X127927483Y-60935171D02*
X128022721Y-60887552D01*
X128022721Y-60887552D02*
X128117959Y-60887552D01*
X128308436Y-60887552D02*
X128689388Y-60887552D01*
X128451293Y-60554219D02*
X128451293Y-61411361D01*
X128451293Y-61411361D02*
X128498912Y-61506600D01*
X128498912Y-61506600D02*
X128594150Y-61554219D01*
X128594150Y-61554219D02*
X128689388Y-61554219D01*
X46307173Y-60497552D02*
X46307173Y-61497552D01*
X46307173Y-60545171D02*
X46402411Y-60497552D01*
X46402411Y-60497552D02*
X46592887Y-60497552D01*
X46592887Y-60497552D02*
X46688125Y-60545171D01*
X46688125Y-60545171D02*
X46735744Y-60592790D01*
X46735744Y-60592790D02*
X46783363Y-60688028D01*
X46783363Y-60688028D02*
X46783363Y-60973742D01*
X46783363Y-60973742D02*
X46735744Y-61068980D01*
X46735744Y-61068980D02*
X46688125Y-61116600D01*
X46688125Y-61116600D02*
X46592887Y-61164219D01*
X46592887Y-61164219D02*
X46402411Y-61164219D01*
X46402411Y-61164219D02*
X46307173Y-61116600D01*
X47640506Y-61116600D02*
X47545268Y-61164219D01*
X47545268Y-61164219D02*
X47354792Y-61164219D01*
X47354792Y-61164219D02*
X47259554Y-61116600D01*
X47259554Y-61116600D02*
X47211935Y-61068980D01*
X47211935Y-61068980D02*
X47164316Y-60973742D01*
X47164316Y-60973742D02*
X47164316Y-60688028D01*
X47164316Y-60688028D02*
X47211935Y-60592790D01*
X47211935Y-60592790D02*
X47259554Y-60545171D01*
X47259554Y-60545171D02*
X47354792Y-60497552D01*
X47354792Y-60497552D02*
X47545268Y-60497552D01*
X47545268Y-60497552D02*
X47640506Y-60545171D01*
X48069078Y-61164219D02*
X48069078Y-60164219D01*
X48069078Y-60545171D02*
X48164316Y-60497552D01*
X48164316Y-60497552D02*
X48354792Y-60497552D01*
X48354792Y-60497552D02*
X48450030Y-60545171D01*
X48450030Y-60545171D02*
X48497649Y-60592790D01*
X48497649Y-60592790D02*
X48545268Y-60688028D01*
X48545268Y-60688028D02*
X48545268Y-60973742D01*
X48545268Y-60973742D02*
X48497649Y-61068980D01*
X48497649Y-61068980D02*
X48450030Y-61116600D01*
X48450030Y-61116600D02*
X48354792Y-61164219D01*
X48354792Y-61164219D02*
X48164316Y-61164219D01*
X48164316Y-61164219D02*
X48069078Y-61116600D01*
X44809554Y-62496600D02*
X44904792Y-62544219D01*
X44904792Y-62544219D02*
X45095268Y-62544219D01*
X45095268Y-62544219D02*
X45190506Y-62496600D01*
X45190506Y-62496600D02*
X45238125Y-62401361D01*
X45238125Y-62401361D02*
X45238125Y-62353742D01*
X45238125Y-62353742D02*
X45190506Y-62258504D01*
X45190506Y-62258504D02*
X45095268Y-62210885D01*
X45095268Y-62210885D02*
X44952411Y-62210885D01*
X44952411Y-62210885D02*
X44857173Y-62163266D01*
X44857173Y-62163266D02*
X44809554Y-62068028D01*
X44809554Y-62068028D02*
X44809554Y-62020409D01*
X44809554Y-62020409D02*
X44857173Y-61925171D01*
X44857173Y-61925171D02*
X44952411Y-61877552D01*
X44952411Y-61877552D02*
X45095268Y-61877552D01*
X45095268Y-61877552D02*
X45190506Y-61925171D01*
X46095268Y-61877552D02*
X46095268Y-62544219D01*
X45666697Y-61877552D02*
X45666697Y-62401361D01*
X45666697Y-62401361D02*
X45714316Y-62496600D01*
X45714316Y-62496600D02*
X45809554Y-62544219D01*
X45809554Y-62544219D02*
X45952411Y-62544219D01*
X45952411Y-62544219D02*
X46047649Y-62496600D01*
X46047649Y-62496600D02*
X46095268Y-62448980D01*
X46571459Y-61877552D02*
X46571459Y-62877552D01*
X46571459Y-61925171D02*
X46666697Y-61877552D01*
X46666697Y-61877552D02*
X46857173Y-61877552D01*
X46857173Y-61877552D02*
X46952411Y-61925171D01*
X46952411Y-61925171D02*
X47000030Y-61972790D01*
X47000030Y-61972790D02*
X47047649Y-62068028D01*
X47047649Y-62068028D02*
X47047649Y-62353742D01*
X47047649Y-62353742D02*
X47000030Y-62448980D01*
X47000030Y-62448980D02*
X46952411Y-62496600D01*
X46952411Y-62496600D02*
X46857173Y-62544219D01*
X46857173Y-62544219D02*
X46666697Y-62544219D01*
X46666697Y-62544219D02*
X46571459Y-62496600D01*
X47476221Y-61877552D02*
X47476221Y-62877552D01*
X47476221Y-61925171D02*
X47571459Y-61877552D01*
X47571459Y-61877552D02*
X47761935Y-61877552D01*
X47761935Y-61877552D02*
X47857173Y-61925171D01*
X47857173Y-61925171D02*
X47904792Y-61972790D01*
X47904792Y-61972790D02*
X47952411Y-62068028D01*
X47952411Y-62068028D02*
X47952411Y-62353742D01*
X47952411Y-62353742D02*
X47904792Y-62448980D01*
X47904792Y-62448980D02*
X47857173Y-62496600D01*
X47857173Y-62496600D02*
X47761935Y-62544219D01*
X47761935Y-62544219D02*
X47571459Y-62544219D01*
X47571459Y-62544219D02*
X47476221Y-62496600D01*
X48523840Y-62544219D02*
X48428602Y-62496600D01*
X48428602Y-62496600D02*
X48380983Y-62448980D01*
X48380983Y-62448980D02*
X48333364Y-62353742D01*
X48333364Y-62353742D02*
X48333364Y-62068028D01*
X48333364Y-62068028D02*
X48380983Y-61972790D01*
X48380983Y-61972790D02*
X48428602Y-61925171D01*
X48428602Y-61925171D02*
X48523840Y-61877552D01*
X48523840Y-61877552D02*
X48666697Y-61877552D01*
X48666697Y-61877552D02*
X48761935Y-61925171D01*
X48761935Y-61925171D02*
X48809554Y-61972790D01*
X48809554Y-61972790D02*
X48857173Y-62068028D01*
X48857173Y-62068028D02*
X48857173Y-62353742D01*
X48857173Y-62353742D02*
X48809554Y-62448980D01*
X48809554Y-62448980D02*
X48761935Y-62496600D01*
X48761935Y-62496600D02*
X48666697Y-62544219D01*
X48666697Y-62544219D02*
X48523840Y-62544219D01*
X49285745Y-62544219D02*
X49285745Y-61877552D01*
X49285745Y-62068028D02*
X49333364Y-61972790D01*
X49333364Y-61972790D02*
X49380983Y-61925171D01*
X49380983Y-61925171D02*
X49476221Y-61877552D01*
X49476221Y-61877552D02*
X49571459Y-61877552D01*
X49761936Y-61877552D02*
X50142888Y-61877552D01*
X49904793Y-61544219D02*
X49904793Y-62401361D01*
X49904793Y-62401361D02*
X49952412Y-62496600D01*
X49952412Y-62496600D02*
X50047650Y-62544219D01*
X50047650Y-62544219D02*
X50142888Y-62544219D01*
X167958673Y-115832219D02*
X167958673Y-115165552D01*
X167958673Y-115260790D02*
X168006292Y-115213171D01*
X168006292Y-115213171D02*
X168101530Y-115165552D01*
X168101530Y-115165552D02*
X168244387Y-115165552D01*
X168244387Y-115165552D02*
X168339625Y-115213171D01*
X168339625Y-115213171D02*
X168387244Y-115308409D01*
X168387244Y-115308409D02*
X168387244Y-115832219D01*
X168387244Y-115308409D02*
X168434863Y-115213171D01*
X168434863Y-115213171D02*
X168530101Y-115165552D01*
X168530101Y-115165552D02*
X168672958Y-115165552D01*
X168672958Y-115165552D02*
X168768197Y-115213171D01*
X168768197Y-115213171D02*
X168815816Y-115308409D01*
X168815816Y-115308409D02*
X168815816Y-115832219D01*
X169434863Y-115832219D02*
X169339625Y-115784600D01*
X169339625Y-115784600D02*
X169292006Y-115736980D01*
X169292006Y-115736980D02*
X169244387Y-115641742D01*
X169244387Y-115641742D02*
X169244387Y-115356028D01*
X169244387Y-115356028D02*
X169292006Y-115260790D01*
X169292006Y-115260790D02*
X169339625Y-115213171D01*
X169339625Y-115213171D02*
X169434863Y-115165552D01*
X169434863Y-115165552D02*
X169577720Y-115165552D01*
X169577720Y-115165552D02*
X169672958Y-115213171D01*
X169672958Y-115213171D02*
X169720577Y-115260790D01*
X169720577Y-115260790D02*
X169768196Y-115356028D01*
X169768196Y-115356028D02*
X169768196Y-115641742D01*
X169768196Y-115641742D02*
X169720577Y-115736980D01*
X169720577Y-115736980D02*
X169672958Y-115784600D01*
X169672958Y-115784600D02*
X169577720Y-115832219D01*
X169577720Y-115832219D02*
X169434863Y-115832219D01*
X170625339Y-115165552D02*
X170625339Y-115832219D01*
X170196768Y-115165552D02*
X170196768Y-115689361D01*
X170196768Y-115689361D02*
X170244387Y-115784600D01*
X170244387Y-115784600D02*
X170339625Y-115832219D01*
X170339625Y-115832219D02*
X170482482Y-115832219D01*
X170482482Y-115832219D02*
X170577720Y-115784600D01*
X170577720Y-115784600D02*
X170625339Y-115736980D01*
X171101530Y-115165552D02*
X171101530Y-115832219D01*
X171101530Y-115260790D02*
X171149149Y-115213171D01*
X171149149Y-115213171D02*
X171244387Y-115165552D01*
X171244387Y-115165552D02*
X171387244Y-115165552D01*
X171387244Y-115165552D02*
X171482482Y-115213171D01*
X171482482Y-115213171D02*
X171530101Y-115308409D01*
X171530101Y-115308409D02*
X171530101Y-115832219D01*
X171863435Y-115165552D02*
X172244387Y-115165552D01*
X172006292Y-114832219D02*
X172006292Y-115689361D01*
X172006292Y-115689361D02*
X172053911Y-115784600D01*
X172053911Y-115784600D02*
X172149149Y-115832219D01*
X172149149Y-115832219D02*
X172244387Y-115832219D01*
X172577721Y-115832219D02*
X172577721Y-115165552D01*
X172577721Y-114832219D02*
X172530102Y-114879838D01*
X172530102Y-114879838D02*
X172577721Y-114927457D01*
X172577721Y-114927457D02*
X172625340Y-114879838D01*
X172625340Y-114879838D02*
X172577721Y-114832219D01*
X172577721Y-114832219D02*
X172577721Y-114927457D01*
X173053911Y-115165552D02*
X173053911Y-115832219D01*
X173053911Y-115260790D02*
X173101530Y-115213171D01*
X173101530Y-115213171D02*
X173196768Y-115165552D01*
X173196768Y-115165552D02*
X173339625Y-115165552D01*
X173339625Y-115165552D02*
X173434863Y-115213171D01*
X173434863Y-115213171D02*
X173482482Y-115308409D01*
X173482482Y-115308409D02*
X173482482Y-115832219D01*
X174387244Y-115165552D02*
X174387244Y-115975076D01*
X174387244Y-115975076D02*
X174339625Y-116070314D01*
X174339625Y-116070314D02*
X174292006Y-116117933D01*
X174292006Y-116117933D02*
X174196768Y-116165552D01*
X174196768Y-116165552D02*
X174053911Y-116165552D01*
X174053911Y-116165552D02*
X173958673Y-116117933D01*
X174387244Y-115784600D02*
X174292006Y-115832219D01*
X174292006Y-115832219D02*
X174101530Y-115832219D01*
X174101530Y-115832219D02*
X174006292Y-115784600D01*
X174006292Y-115784600D02*
X173958673Y-115736980D01*
X173958673Y-115736980D02*
X173911054Y-115641742D01*
X173911054Y-115641742D02*
X173911054Y-115356028D01*
X173911054Y-115356028D02*
X173958673Y-115260790D01*
X173958673Y-115260790D02*
X174006292Y-115213171D01*
X174006292Y-115213171D02*
X174101530Y-115165552D01*
X174101530Y-115165552D02*
X174292006Y-115165552D01*
X174292006Y-115165552D02*
X174387244Y-115213171D01*
X169758673Y-117482219D02*
X169758673Y-116482219D01*
X170187244Y-117482219D02*
X170187244Y-116958409D01*
X170187244Y-116958409D02*
X170139625Y-116863171D01*
X170139625Y-116863171D02*
X170044387Y-116815552D01*
X170044387Y-116815552D02*
X169901530Y-116815552D01*
X169901530Y-116815552D02*
X169806292Y-116863171D01*
X169806292Y-116863171D02*
X169758673Y-116910790D01*
X170806292Y-117482219D02*
X170711054Y-117434600D01*
X170711054Y-117434600D02*
X170663435Y-117386980D01*
X170663435Y-117386980D02*
X170615816Y-117291742D01*
X170615816Y-117291742D02*
X170615816Y-117006028D01*
X170615816Y-117006028D02*
X170663435Y-116910790D01*
X170663435Y-116910790D02*
X170711054Y-116863171D01*
X170711054Y-116863171D02*
X170806292Y-116815552D01*
X170806292Y-116815552D02*
X170949149Y-116815552D01*
X170949149Y-116815552D02*
X171044387Y-116863171D01*
X171044387Y-116863171D02*
X171092006Y-116910790D01*
X171092006Y-116910790D02*
X171139625Y-117006028D01*
X171139625Y-117006028D02*
X171139625Y-117291742D01*
X171139625Y-117291742D02*
X171092006Y-117386980D01*
X171092006Y-117386980D02*
X171044387Y-117434600D01*
X171044387Y-117434600D02*
X170949149Y-117482219D01*
X170949149Y-117482219D02*
X170806292Y-117482219D01*
X171711054Y-117482219D02*
X171615816Y-117434600D01*
X171615816Y-117434600D02*
X171568197Y-117339361D01*
X171568197Y-117339361D02*
X171568197Y-116482219D01*
X172472959Y-117434600D02*
X172377721Y-117482219D01*
X172377721Y-117482219D02*
X172187245Y-117482219D01*
X172187245Y-117482219D02*
X172092007Y-117434600D01*
X172092007Y-117434600D02*
X172044388Y-117339361D01*
X172044388Y-117339361D02*
X172044388Y-116958409D01*
X172044388Y-116958409D02*
X172092007Y-116863171D01*
X172092007Y-116863171D02*
X172187245Y-116815552D01*
X172187245Y-116815552D02*
X172377721Y-116815552D01*
X172377721Y-116815552D02*
X172472959Y-116863171D01*
X172472959Y-116863171D02*
X172520578Y-116958409D01*
X172520578Y-116958409D02*
X172520578Y-117053647D01*
X172520578Y-117053647D02*
X172044388Y-117148885D01*
X101818673Y-38232219D02*
X101818673Y-37565552D01*
X101818673Y-37660790D02*
X101866292Y-37613171D01*
X101866292Y-37613171D02*
X101961530Y-37565552D01*
X101961530Y-37565552D02*
X102104387Y-37565552D01*
X102104387Y-37565552D02*
X102199625Y-37613171D01*
X102199625Y-37613171D02*
X102247244Y-37708409D01*
X102247244Y-37708409D02*
X102247244Y-38232219D01*
X102247244Y-37708409D02*
X102294863Y-37613171D01*
X102294863Y-37613171D02*
X102390101Y-37565552D01*
X102390101Y-37565552D02*
X102532958Y-37565552D01*
X102532958Y-37565552D02*
X102628197Y-37613171D01*
X102628197Y-37613171D02*
X102675816Y-37708409D01*
X102675816Y-37708409D02*
X102675816Y-38232219D01*
X103294863Y-38232219D02*
X103199625Y-38184600D01*
X103199625Y-38184600D02*
X103152006Y-38136980D01*
X103152006Y-38136980D02*
X103104387Y-38041742D01*
X103104387Y-38041742D02*
X103104387Y-37756028D01*
X103104387Y-37756028D02*
X103152006Y-37660790D01*
X103152006Y-37660790D02*
X103199625Y-37613171D01*
X103199625Y-37613171D02*
X103294863Y-37565552D01*
X103294863Y-37565552D02*
X103437720Y-37565552D01*
X103437720Y-37565552D02*
X103532958Y-37613171D01*
X103532958Y-37613171D02*
X103580577Y-37660790D01*
X103580577Y-37660790D02*
X103628196Y-37756028D01*
X103628196Y-37756028D02*
X103628196Y-38041742D01*
X103628196Y-38041742D02*
X103580577Y-38136980D01*
X103580577Y-38136980D02*
X103532958Y-38184600D01*
X103532958Y-38184600D02*
X103437720Y-38232219D01*
X103437720Y-38232219D02*
X103294863Y-38232219D01*
X104485339Y-37565552D02*
X104485339Y-38232219D01*
X104056768Y-37565552D02*
X104056768Y-38089361D01*
X104056768Y-38089361D02*
X104104387Y-38184600D01*
X104104387Y-38184600D02*
X104199625Y-38232219D01*
X104199625Y-38232219D02*
X104342482Y-38232219D01*
X104342482Y-38232219D02*
X104437720Y-38184600D01*
X104437720Y-38184600D02*
X104485339Y-38136980D01*
X104961530Y-37565552D02*
X104961530Y-38232219D01*
X104961530Y-37660790D02*
X105009149Y-37613171D01*
X105009149Y-37613171D02*
X105104387Y-37565552D01*
X105104387Y-37565552D02*
X105247244Y-37565552D01*
X105247244Y-37565552D02*
X105342482Y-37613171D01*
X105342482Y-37613171D02*
X105390101Y-37708409D01*
X105390101Y-37708409D02*
X105390101Y-38232219D01*
X105723435Y-37565552D02*
X106104387Y-37565552D01*
X105866292Y-37232219D02*
X105866292Y-38089361D01*
X105866292Y-38089361D02*
X105913911Y-38184600D01*
X105913911Y-38184600D02*
X106009149Y-38232219D01*
X106009149Y-38232219D02*
X106104387Y-38232219D01*
X106437721Y-38232219D02*
X106437721Y-37565552D01*
X106437721Y-37232219D02*
X106390102Y-37279838D01*
X106390102Y-37279838D02*
X106437721Y-37327457D01*
X106437721Y-37327457D02*
X106485340Y-37279838D01*
X106485340Y-37279838D02*
X106437721Y-37232219D01*
X106437721Y-37232219D02*
X106437721Y-37327457D01*
X106913911Y-37565552D02*
X106913911Y-38232219D01*
X106913911Y-37660790D02*
X106961530Y-37613171D01*
X106961530Y-37613171D02*
X107056768Y-37565552D01*
X107056768Y-37565552D02*
X107199625Y-37565552D01*
X107199625Y-37565552D02*
X107294863Y-37613171D01*
X107294863Y-37613171D02*
X107342482Y-37708409D01*
X107342482Y-37708409D02*
X107342482Y-38232219D01*
X108247244Y-37565552D02*
X108247244Y-38375076D01*
X108247244Y-38375076D02*
X108199625Y-38470314D01*
X108199625Y-38470314D02*
X108152006Y-38517933D01*
X108152006Y-38517933D02*
X108056768Y-38565552D01*
X108056768Y-38565552D02*
X107913911Y-38565552D01*
X107913911Y-38565552D02*
X107818673Y-38517933D01*
X108247244Y-38184600D02*
X108152006Y-38232219D01*
X108152006Y-38232219D02*
X107961530Y-38232219D01*
X107961530Y-38232219D02*
X107866292Y-38184600D01*
X107866292Y-38184600D02*
X107818673Y-38136980D01*
X107818673Y-38136980D02*
X107771054Y-38041742D01*
X107771054Y-38041742D02*
X107771054Y-37756028D01*
X107771054Y-37756028D02*
X107818673Y-37660790D01*
X107818673Y-37660790D02*
X107866292Y-37613171D01*
X107866292Y-37613171D02*
X107961530Y-37565552D01*
X107961530Y-37565552D02*
X108152006Y-37565552D01*
X108152006Y-37565552D02*
X108247244Y-37613171D01*
X103808673Y-39542219D02*
X103808673Y-38542219D01*
X104237244Y-39542219D02*
X104237244Y-39018409D01*
X104237244Y-39018409D02*
X104189625Y-38923171D01*
X104189625Y-38923171D02*
X104094387Y-38875552D01*
X104094387Y-38875552D02*
X103951530Y-38875552D01*
X103951530Y-38875552D02*
X103856292Y-38923171D01*
X103856292Y-38923171D02*
X103808673Y-38970790D01*
X104856292Y-39542219D02*
X104761054Y-39494600D01*
X104761054Y-39494600D02*
X104713435Y-39446980D01*
X104713435Y-39446980D02*
X104665816Y-39351742D01*
X104665816Y-39351742D02*
X104665816Y-39066028D01*
X104665816Y-39066028D02*
X104713435Y-38970790D01*
X104713435Y-38970790D02*
X104761054Y-38923171D01*
X104761054Y-38923171D02*
X104856292Y-38875552D01*
X104856292Y-38875552D02*
X104999149Y-38875552D01*
X104999149Y-38875552D02*
X105094387Y-38923171D01*
X105094387Y-38923171D02*
X105142006Y-38970790D01*
X105142006Y-38970790D02*
X105189625Y-39066028D01*
X105189625Y-39066028D02*
X105189625Y-39351742D01*
X105189625Y-39351742D02*
X105142006Y-39446980D01*
X105142006Y-39446980D02*
X105094387Y-39494600D01*
X105094387Y-39494600D02*
X104999149Y-39542219D01*
X104999149Y-39542219D02*
X104856292Y-39542219D01*
X105761054Y-39542219D02*
X105665816Y-39494600D01*
X105665816Y-39494600D02*
X105618197Y-39399361D01*
X105618197Y-39399361D02*
X105618197Y-38542219D01*
X106522959Y-39494600D02*
X106427721Y-39542219D01*
X106427721Y-39542219D02*
X106237245Y-39542219D01*
X106237245Y-39542219D02*
X106142007Y-39494600D01*
X106142007Y-39494600D02*
X106094388Y-39399361D01*
X106094388Y-39399361D02*
X106094388Y-39018409D01*
X106094388Y-39018409D02*
X106142007Y-38923171D01*
X106142007Y-38923171D02*
X106237245Y-38875552D01*
X106237245Y-38875552D02*
X106427721Y-38875552D01*
X106427721Y-38875552D02*
X106522959Y-38923171D01*
X106522959Y-38923171D02*
X106570578Y-39018409D01*
X106570578Y-39018409D02*
X106570578Y-39113647D01*
X106570578Y-39113647D02*
X106094388Y-39208885D01*
D11*
%TO.C,S34*%
X161649000Y-97057000D02*
X161649000Y-111257000D01*
X161649000Y-111257000D02*
X175849000Y-111257000D01*
X175849000Y-97057000D02*
X161649000Y-97057000D01*
X175849000Y-111257000D02*
X175849000Y-97057000D01*
%TO.C,S17*%
X90249000Y-58967000D02*
X90249000Y-73167000D01*
X90249000Y-73167000D02*
X104449000Y-73167000D01*
X104449000Y-58967000D02*
X90249000Y-58967000D01*
X104449000Y-73167000D02*
X104449000Y-58967000D01*
%TO.C,S8*%
X52169000Y-58967000D02*
X52169000Y-73167000D01*
X52169000Y-73167000D02*
X66369000Y-73167000D01*
X66369000Y-58967000D02*
X52169000Y-58967000D01*
X66369000Y-73167000D02*
X66369000Y-58967000D01*
%TO.C,S3*%
X30747750Y-78007000D02*
X30747750Y-92207000D01*
X30747750Y-92207000D02*
X44947750Y-92207000D01*
X44947750Y-78007000D02*
X30747750Y-78007000D01*
X44947750Y-92207000D02*
X44947750Y-78007000D01*
%TO.C,S11*%
X66449000Y-97057000D02*
X66449000Y-111257000D01*
X66449000Y-111257000D02*
X80649000Y-111257000D01*
X80649000Y-97057000D02*
X66449000Y-97057000D01*
X80649000Y-111257000D02*
X80649000Y-97057000D01*
%TO.C,S4*%
X25985250Y-116087000D02*
X25985250Y-130287000D01*
X25985250Y-130287000D02*
X40185250Y-130287000D01*
X40185250Y-116087000D02*
X25985250Y-116087000D01*
X40185250Y-130287000D02*
X40185250Y-116087000D01*
%TO.C,S13*%
X73585250Y-116087000D02*
X73585250Y-130287000D01*
X73585250Y-130287000D02*
X87785250Y-130287000D01*
X87785250Y-116087000D02*
X73585250Y-116087000D01*
X87785250Y-130287000D02*
X87785250Y-116087000D01*
%TO.C,S16*%
X85489000Y-97057000D02*
X85489000Y-111257000D01*
X85489000Y-111257000D02*
X99689000Y-111257000D01*
X99689000Y-97057000D02*
X85489000Y-97057000D01*
X99689000Y-111257000D02*
X99689000Y-97057000D01*
%TO.C,S21*%
X97385250Y-116087000D02*
X97385250Y-130287000D01*
X97385250Y-130287000D02*
X111585250Y-130287000D01*
X111585250Y-116087000D02*
X97385250Y-116087000D01*
X111585250Y-130287000D02*
X111585250Y-116087000D01*
%TO.C,J1*%
X89464168Y-20262244D02*
X107175245Y-16530260D01*
X91816762Y-31427073D02*
X89464168Y-20262244D01*
X107175245Y-16530260D02*
X109529902Y-27704871D01*
X109527840Y-27695086D02*
X91816762Y-31427073D01*
%TO.C,S22*%
X104529000Y-97057000D02*
X104529000Y-111257000D01*
X104529000Y-111257000D02*
X118729000Y-111257000D01*
X118729000Y-97057000D02*
X104529000Y-97057000D01*
X118729000Y-111257000D02*
X118729000Y-97057000D01*
%TO.C,S7*%
X49785250Y-116087000D02*
X49785250Y-130287000D01*
X49785250Y-130287000D02*
X63985250Y-130287000D01*
X63985250Y-116087000D02*
X49785250Y-116087000D01*
X63985250Y-130287000D02*
X63985250Y-116087000D01*
%TO.C,S5*%
X35510250Y-97057000D02*
X35510250Y-111257000D01*
X35510250Y-111257000D02*
X49710250Y-111257000D01*
X49710250Y-97057000D02*
X35510250Y-97057000D01*
X49710250Y-111257000D02*
X49710250Y-97057000D01*
%TO.C,S27*%
X123569000Y-97057000D02*
X123569000Y-111257000D01*
X123569000Y-111257000D02*
X137769000Y-111257000D01*
X137769000Y-97057000D02*
X123569000Y-97057000D01*
X137769000Y-111257000D02*
X137769000Y-97057000D01*
%TO.C,S28*%
X128329000Y-58967000D02*
X128329000Y-73167000D01*
X128329000Y-73167000D02*
X142529000Y-73167000D01*
X142529000Y-58967000D02*
X128329000Y-58967000D01*
X142529000Y-73167000D02*
X142529000Y-58967000D01*
%TO.C,S29*%
X133099000Y-133602000D02*
X133099000Y-148802000D01*
X133099000Y-148802000D02*
X148299000Y-148802000D01*
X148299000Y-133602000D02*
X133099000Y-133602000D01*
X148299000Y-148802000D02*
X148299000Y-133602000D01*
%TO.C,S20*%
X108349000Y-133602000D02*
X108349000Y-148802000D01*
X108349000Y-148802000D02*
X123549000Y-148802000D01*
X123549000Y-133602000D02*
X108349000Y-133602000D01*
X123549000Y-148802000D02*
X123549000Y-133602000D01*
%TO.C,S23*%
X109289000Y-58967000D02*
X109289000Y-73167000D01*
X109289000Y-73167000D02*
X123489000Y-73167000D01*
X123489000Y-58967000D02*
X109289000Y-58967000D01*
X123489000Y-73167000D02*
X123489000Y-58967000D01*
%TO.C,S32*%
X142609000Y-97057000D02*
X142609000Y-111257000D01*
X142609000Y-111257000D02*
X156809000Y-111257000D01*
X156809000Y-97057000D02*
X142609000Y-97057000D01*
X156809000Y-111257000D02*
X156809000Y-97057000D01*
%TO.C,S9*%
X56924000Y-78007000D02*
X56924000Y-92207000D01*
X56924000Y-92207000D02*
X71124000Y-92207000D01*
X71124000Y-78007000D02*
X56924000Y-78007000D01*
X71124000Y-92207000D02*
X71124000Y-78007000D01*
%TO.C,S2*%
X28366500Y-58957000D02*
X28366500Y-73157000D01*
X28366500Y-73157000D02*
X42566500Y-73157000D01*
X42566500Y-58957000D02*
X28366500Y-58957000D01*
X42566500Y-73157000D02*
X42566500Y-58957000D01*
%TO.C,TP3*%
X95529000Y-143732000D02*
X96859000Y-143732000D01*
X95529000Y-145062000D02*
X95529000Y-143732000D01*
X95529000Y-146332000D02*
X95529000Y-146392000D01*
X95529000Y-146332000D02*
X98189000Y-146332000D01*
X95529000Y-146392000D02*
X98189000Y-146392000D01*
X98189000Y-146332000D02*
X98189000Y-146392000D01*
D10*
%TO.C,D6*%
X49224000Y-54857000D02*
X50394000Y-55532000D01*
X49224000Y-56187000D02*
X49224000Y-54857000D01*
X50394000Y-55532000D02*
X49224000Y-56187000D01*
X50394000Y-56197000D02*
X50394000Y-54867000D01*
D12*
X54764000Y-54567000D02*
X53054000Y-54567000D01*
X54774000Y-56527000D02*
X53074000Y-56527000D01*
X54774000Y-56527000D02*
X54774000Y-54577000D01*
D11*
%TO.C,S19*%
X99764000Y-39917000D02*
X99764000Y-54117000D01*
X99764000Y-54117000D02*
X113964000Y-54117000D01*
X113964000Y-39917000D02*
X99764000Y-39917000D01*
X113964000Y-54117000D02*
X113964000Y-39917000D01*
%TO.C,S18*%
X95004000Y-78007000D02*
X95004000Y-92207000D01*
X95004000Y-92207000D02*
X109204000Y-92207000D01*
X109204000Y-78007000D02*
X95004000Y-78007000D01*
X109204000Y-92207000D02*
X109204000Y-78007000D01*
%TO.C,S12*%
X71209000Y-58967000D02*
X71209000Y-73167000D01*
X71209000Y-73167000D02*
X85409000Y-73167000D01*
X85409000Y-58967000D02*
X71209000Y-58967000D01*
X85409000Y-73167000D02*
X85409000Y-58967000D01*
%TO.C,S10*%
X61684000Y-39917000D02*
X61684000Y-54117000D01*
X61684000Y-54117000D02*
X75884000Y-54117000D01*
X75884000Y-39917000D02*
X61684000Y-39917000D01*
X75884000Y-54117000D02*
X75884000Y-39917000D01*
%TO.C,S15*%
X80724000Y-39917000D02*
X80724000Y-54117000D01*
X80724000Y-54117000D02*
X94924000Y-54117000D01*
X94924000Y-39917000D02*
X80724000Y-39917000D01*
X94924000Y-54117000D02*
X94924000Y-39917000D01*
%TO.C,S26*%
X125947750Y-116087000D02*
X125947750Y-130287000D01*
X125947750Y-130287000D02*
X140147750Y-130287000D01*
X140147750Y-116087000D02*
X125947750Y-116087000D01*
X140147750Y-130287000D02*
X140147750Y-116087000D01*
%TO.C,S25*%
X118804000Y-39917000D02*
X118804000Y-54117000D01*
X118804000Y-54117000D02*
X133004000Y-54117000D01*
X133004000Y-39917000D02*
X118804000Y-39917000D01*
X133004000Y-54117000D02*
X133004000Y-39917000D01*
%TO.C,S30*%
X133084000Y-78007000D02*
X133084000Y-92207000D01*
X133084000Y-92207000D02*
X147284000Y-92207000D01*
X147284000Y-78007000D02*
X133084000Y-78007000D01*
X147284000Y-92207000D02*
X147284000Y-78007000D01*
%TO.C,S1*%
X23604000Y-39917000D02*
X23604000Y-54117000D01*
X23604000Y-54117000D02*
X37804000Y-54117000D01*
X37804000Y-39917000D02*
X23604000Y-39917000D01*
X37804000Y-54117000D02*
X37804000Y-39917000D01*
%TO.C,S33*%
X152124000Y-116087000D02*
X152124000Y-130287000D01*
X152124000Y-130287000D02*
X166324000Y-130287000D01*
X166324000Y-116087000D02*
X152124000Y-116087000D01*
X166324000Y-130287000D02*
X166324000Y-116087000D01*
%TO.C,S14*%
X75964000Y-78007000D02*
X75964000Y-92207000D01*
X75964000Y-92207000D02*
X90164000Y-92207000D01*
X90164000Y-78007000D02*
X75964000Y-78007000D01*
X90164000Y-92207000D02*
X90164000Y-78007000D01*
%TO.C,S6*%
X42644000Y-39917000D02*
X42644000Y-54117000D01*
X42644000Y-54117000D02*
X56844000Y-54117000D01*
X56844000Y-39917000D02*
X42644000Y-39917000D01*
X56844000Y-54117000D02*
X56844000Y-39917000D01*
%TO.C,S24*%
X114044000Y-78007000D02*
X114044000Y-92207000D01*
X114044000Y-92207000D02*
X128244000Y-92207000D01*
X128244000Y-78007000D02*
X114044000Y-78007000D01*
X128244000Y-92207000D02*
X128244000Y-78007000D01*
%TO.C,S35*%
X175087220Y-132223780D02*
X187384780Y-139323780D01*
X182187220Y-119926220D02*
X175087220Y-132223780D01*
X187384780Y-139323780D02*
X194484780Y-127026220D01*
X194484780Y-127026220D02*
X182187220Y-119926220D01*
%TO.C,S31*%
X137844000Y-39917000D02*
X137844000Y-54117000D01*
X137844000Y-54117000D02*
X152044000Y-54117000D01*
X152044000Y-39917000D02*
X137844000Y-39917000D01*
X152044000Y-54117000D02*
X152044000Y-39917000D01*
D10*
%TO.C,D12*%
X77759000Y-74104500D02*
X77759000Y-75434500D01*
X77759000Y-75434500D02*
X78929000Y-74779500D01*
X78929000Y-74114500D02*
X78929000Y-75444500D01*
X78929000Y-74779500D02*
X77759000Y-74104500D01*
D12*
X81589000Y-73814500D02*
X83299000Y-73814500D01*
X81609000Y-75774500D02*
X83309000Y-75774500D01*
X83309000Y-73824500D02*
X83309000Y-75774500D01*
D10*
%TO.C,D33*%
X159259000Y-131784500D02*
X159259000Y-133114500D01*
X159259000Y-133114500D02*
X160429000Y-132459500D01*
X160429000Y-131794500D02*
X160429000Y-133124500D01*
X160429000Y-132459500D02*
X159259000Y-131784500D01*
D12*
X163089000Y-131494500D02*
X164799000Y-131494500D01*
X163109000Y-133454500D02*
X164809000Y-133454500D01*
X164809000Y-131504500D02*
X164809000Y-133454500D01*
D11*
%TO.C,U2*%
X25104000Y-133157000D02*
X76104000Y-133157000D01*
X25104000Y-154157000D02*
X25104000Y-133157000D01*
X76104000Y-133157000D02*
X76104000Y-154157000D01*
X76104000Y-154157000D02*
X25104000Y-154157000D01*
D10*
%TO.C,D16*%
X90789000Y-112084500D02*
X90789000Y-113414500D01*
X90789000Y-113414500D02*
X91959000Y-112759500D01*
X91959000Y-112094500D02*
X91959000Y-113424500D01*
X91959000Y-112759500D02*
X90789000Y-112084500D01*
D12*
X94619000Y-111794500D02*
X96329000Y-111794500D01*
X94639000Y-113754500D02*
X96339000Y-113754500D01*
X96339000Y-111804500D02*
X96339000Y-113754500D01*
D10*
%TO.C,D15*%
X86096500Y-55085750D02*
X86096500Y-56415750D01*
X86096500Y-56415750D02*
X87266500Y-55760750D01*
X87266500Y-55095750D02*
X87266500Y-56425750D01*
X87266500Y-55760750D02*
X86096500Y-55085750D01*
D12*
X89926500Y-54795750D02*
X91636500Y-54795750D01*
X89946500Y-56755750D02*
X91646500Y-56755750D01*
X91646500Y-54805750D02*
X91646500Y-56755750D01*
D10*
%TO.C,D28*%
X135179000Y-74014500D02*
X135179000Y-75344500D01*
X135179000Y-75344500D02*
X136349000Y-74689500D01*
X136349000Y-74024500D02*
X136349000Y-75354500D01*
X136349000Y-74689500D02*
X135179000Y-74014500D01*
D12*
X139009000Y-73724500D02*
X140719000Y-73724500D01*
X139029000Y-75684500D02*
X140729000Y-75684500D01*
X140729000Y-73734500D02*
X140729000Y-75684500D01*
D10*
%TO.C,D9*%
X63349000Y-93014500D02*
X63349000Y-94344500D01*
X63349000Y-94344500D02*
X64519000Y-93689500D01*
X64519000Y-93024500D02*
X64519000Y-94354500D01*
X64519000Y-93689500D02*
X63349000Y-93014500D01*
D12*
X67179000Y-92724500D02*
X68889000Y-92724500D01*
X67199000Y-94684500D02*
X68899000Y-94684500D01*
X68899000Y-92734500D02*
X68899000Y-94684500D01*
D10*
%TO.C,D30*%
X139696500Y-93045750D02*
X139696500Y-94375750D01*
X139696500Y-94375750D02*
X140866500Y-93720750D01*
X140866500Y-93055750D02*
X140866500Y-94385750D01*
X140866500Y-93720750D02*
X139696500Y-93045750D01*
D12*
X143526500Y-92755750D02*
X145236500Y-92755750D01*
X143546500Y-94715750D02*
X145246500Y-94715750D01*
X145246500Y-92765750D02*
X145246500Y-94715750D01*
D10*
%TO.C,D3*%
X37089000Y-93044500D02*
X37089000Y-94374500D01*
X37089000Y-94374500D02*
X38259000Y-93719500D01*
X38259000Y-93054500D02*
X38259000Y-94384500D01*
X38259000Y-93719500D02*
X37089000Y-93044500D01*
D12*
X40919000Y-92754500D02*
X42629000Y-92754500D01*
X40939000Y-94714500D02*
X42639000Y-94714500D01*
X42639000Y-92764500D02*
X42639000Y-94714500D01*
D10*
%TO.C,D27*%
X129809000Y-112134500D02*
X129809000Y-113464500D01*
X129809000Y-113464500D02*
X130979000Y-112809500D01*
X130979000Y-112144500D02*
X130979000Y-113474500D01*
X130979000Y-112809500D02*
X129809000Y-112134500D01*
D12*
X133639000Y-111844500D02*
X135349000Y-111844500D01*
X133659000Y-113804500D02*
X135359000Y-113804500D01*
X135359000Y-111854500D02*
X135359000Y-113804500D01*
D10*
%TO.C,D11*%
X72689000Y-112164500D02*
X72689000Y-113494500D01*
X72689000Y-113494500D02*
X73859000Y-112839500D01*
X73859000Y-112174500D02*
X73859000Y-113504500D01*
X73859000Y-112839500D02*
X72689000Y-112164500D01*
D12*
X76519000Y-111874500D02*
X78229000Y-111874500D01*
X76539000Y-113834500D02*
X78239000Y-113834500D01*
X78239000Y-111884500D02*
X78239000Y-113834500D01*
D10*
%TO.C,D2*%
X34876500Y-74105750D02*
X34876500Y-75435750D01*
X34876500Y-75435750D02*
X36046500Y-74780750D01*
X36046500Y-74115750D02*
X36046500Y-75445750D01*
X36046500Y-74780750D02*
X34876500Y-74105750D01*
D12*
X38706500Y-73815750D02*
X40416500Y-73815750D01*
X38726500Y-75775750D02*
X40426500Y-75775750D01*
X40426500Y-73825750D02*
X40426500Y-75775750D01*
D10*
%TO.C,D35*%
X177689606Y-138740251D02*
X179030356Y-138758005D01*
X178354606Y-137588438D02*
X177689606Y-138740251D01*
X179030356Y-138758005D02*
X178354606Y-137588438D01*
X179362856Y-138182098D02*
X178697856Y-139333912D01*
D12*
X180853804Y-140959700D02*
X182326047Y-141809700D01*
X181816483Y-139252290D02*
X183297387Y-140107290D01*
X183301047Y-140120951D02*
X182326047Y-141809700D01*
D10*
%TO.C,D22*%
X110596500Y-112085750D02*
X110596500Y-113415750D01*
X110596500Y-113415750D02*
X111766500Y-112760750D01*
X111766500Y-112095750D02*
X111766500Y-113425750D01*
X111766500Y-112760750D02*
X110596500Y-112085750D01*
D12*
X114426500Y-111795750D02*
X116136500Y-111795750D01*
X114446500Y-113755750D02*
X116146500Y-113755750D01*
X116146500Y-111805750D02*
X116146500Y-113755750D01*
D10*
%TO.C,D18*%
X101559000Y-92994500D02*
X101559000Y-94324500D01*
X101559000Y-94324500D02*
X102729000Y-93669500D01*
X102729000Y-93004500D02*
X102729000Y-94334500D01*
X102729000Y-93669500D02*
X101559000Y-92994500D01*
D12*
X105389000Y-92704500D02*
X107099000Y-92704500D01*
X105409000Y-94664500D02*
X107109000Y-94664500D01*
X107109000Y-92714500D02*
X107109000Y-94664500D01*
D10*
%TO.C,D26*%
X130446500Y-131405750D02*
X130446500Y-132735750D01*
X130446500Y-132735750D02*
X131616500Y-132080750D01*
X131616500Y-131415750D02*
X131616500Y-132745750D01*
X131616500Y-132080750D02*
X130446500Y-131405750D01*
D12*
X134276500Y-131115750D02*
X135986500Y-131115750D01*
X134296500Y-133075750D02*
X135996500Y-133075750D01*
X135996500Y-131125750D02*
X135996500Y-133075750D01*
D10*
%TO.C,D14*%
X82509000Y-93084500D02*
X82509000Y-94414500D01*
X82509000Y-94414500D02*
X83679000Y-93759500D01*
X83679000Y-93094500D02*
X83679000Y-94424500D01*
X83679000Y-93759500D02*
X82509000Y-93084500D01*
D12*
X86339000Y-92794500D02*
X88049000Y-92794500D01*
X86359000Y-94754500D02*
X88059000Y-94754500D01*
X88059000Y-92804500D02*
X88059000Y-94754500D01*
D10*
%TO.C,D17*%
X93939000Y-74194500D02*
X93939000Y-75524500D01*
X93939000Y-75524500D02*
X95109000Y-74869500D01*
X95109000Y-74204500D02*
X95109000Y-75534500D01*
X95109000Y-74869500D02*
X93939000Y-74194500D01*
D12*
X97769000Y-73904500D02*
X99479000Y-73904500D01*
X97789000Y-75864500D02*
X99489000Y-75864500D01*
X99489000Y-73914500D02*
X99489000Y-75864500D01*
D10*
%TO.C,D32*%
X148829000Y-112134500D02*
X148829000Y-113464500D01*
X148829000Y-113464500D02*
X149999000Y-112809500D01*
X149999000Y-112144500D02*
X149999000Y-113474500D01*
X149999000Y-112809500D02*
X148829000Y-112134500D01*
D12*
X152659000Y-111844500D02*
X154369000Y-111844500D01*
X152679000Y-113804500D02*
X154379000Y-113804500D01*
X154379000Y-111854500D02*
X154379000Y-113804500D01*
D10*
%TO.C,D1*%
X29799000Y-54884500D02*
X29799000Y-56214500D01*
X29799000Y-56214500D02*
X30969000Y-55559500D01*
X30969000Y-54894500D02*
X30969000Y-56224500D01*
X30969000Y-55559500D02*
X29799000Y-54884500D01*
D12*
X33629000Y-54594500D02*
X35339000Y-54594500D01*
X33649000Y-56554500D02*
X35349000Y-56554500D01*
X35349000Y-54604500D02*
X35349000Y-56554500D01*
D10*
%TO.C,D8*%
X57989000Y-74104500D02*
X57989000Y-75434500D01*
X57989000Y-75434500D02*
X59159000Y-74779500D01*
X59159000Y-74114500D02*
X59159000Y-75444500D01*
X59159000Y-74779500D02*
X57989000Y-74104500D01*
D12*
X61819000Y-73814500D02*
X63529000Y-73814500D01*
X61839000Y-75774500D02*
X63539000Y-75774500D01*
X63539000Y-73824500D02*
X63539000Y-75774500D01*
%TO.C,D13*%
X92081500Y-121612000D02*
X92081500Y-119902000D01*
X92091500Y-119892000D02*
X94041500Y-119892000D01*
D10*
X92371500Y-125442000D02*
X93701500Y-125442000D01*
X92381500Y-124272000D02*
X93711500Y-124272000D01*
X93046500Y-124272000D02*
X92371500Y-125442000D01*
X93701500Y-125442000D02*
X93046500Y-124272000D01*
D12*
X94041500Y-121592000D02*
X94041500Y-119892000D01*
%TO.C,D7*%
X70312750Y-121764500D02*
X70312750Y-120054500D01*
X70322750Y-120044500D02*
X72272750Y-120044500D01*
D10*
X70602750Y-125594500D02*
X71932750Y-125594500D01*
X70612750Y-124424500D02*
X71942750Y-124424500D01*
X71277750Y-124424500D02*
X70602750Y-125594500D01*
X71932750Y-125594500D02*
X71277750Y-124424500D01*
D12*
X72272750Y-121744500D02*
X72272750Y-120044500D01*
D10*
%TO.C,D24*%
X123539000Y-93074500D02*
X123539000Y-94404500D01*
X123539000Y-94404500D02*
X124709000Y-93749500D01*
X124709000Y-93084500D02*
X124709000Y-94414500D01*
X124709000Y-93749500D02*
X123539000Y-93074500D01*
D12*
X127369000Y-92784500D02*
X129079000Y-92784500D01*
X127389000Y-94744500D02*
X129089000Y-94744500D01*
X129089000Y-92794500D02*
X129089000Y-94744500D01*
%TO.C,D4*%
X66312750Y-121764500D02*
X66312750Y-120054500D01*
X66322750Y-120044500D02*
X68272750Y-120044500D01*
D10*
X66602750Y-125594500D02*
X67932750Y-125594500D01*
X66612750Y-124424500D02*
X67942750Y-124424500D01*
X67277750Y-124424500D02*
X66602750Y-125594500D01*
X67932750Y-125594500D02*
X67277750Y-124424500D01*
D12*
X68272750Y-121744500D02*
X68272750Y-120044500D01*
D10*
%TO.C,D25*%
X121009000Y-55004500D02*
X121009000Y-56334500D01*
X121009000Y-56334500D02*
X122179000Y-55679500D01*
X122179000Y-55014500D02*
X122179000Y-56344500D01*
X122179000Y-55679500D02*
X121009000Y-55004500D01*
D12*
X124839000Y-54714500D02*
X126549000Y-54714500D01*
X124859000Y-56674500D02*
X126559000Y-56674500D01*
X126559000Y-54724500D02*
X126559000Y-56674500D01*
%TO.C,D29*%
X129271500Y-140282000D02*
X129271500Y-138572000D01*
X129281500Y-138562000D02*
X131231500Y-138562000D01*
D10*
X129561500Y-144112000D02*
X130891500Y-144112000D01*
X129571500Y-142942000D02*
X130901500Y-142942000D01*
X130236500Y-142942000D02*
X129561500Y-144112000D01*
X130891500Y-144112000D02*
X130236500Y-142942000D01*
D12*
X131231500Y-140262000D02*
X131231500Y-138562000D01*
D10*
%TO.C,D23*%
X115379000Y-73914500D02*
X115379000Y-75244500D01*
X115379000Y-75244500D02*
X116549000Y-74589500D01*
X116549000Y-73924500D02*
X116549000Y-75254500D01*
X116549000Y-74589500D02*
X115379000Y-73914500D01*
D12*
X119209000Y-73624500D02*
X120919000Y-73624500D01*
X119229000Y-75584500D02*
X120929000Y-75584500D01*
X120929000Y-73634500D02*
X120929000Y-75584500D01*
D10*
%TO.C,D5*%
X49489000Y-112104500D02*
X49489000Y-113434500D01*
X49489000Y-113434500D02*
X50659000Y-112779500D01*
X50659000Y-112114500D02*
X50659000Y-113444500D01*
X50659000Y-112779500D02*
X49489000Y-112104500D01*
D12*
X53319000Y-111814500D02*
X55029000Y-111814500D01*
X53339000Y-113774500D02*
X55039000Y-113774500D01*
X55039000Y-111824500D02*
X55039000Y-113774500D01*
D10*
%TO.C,D21*%
X103219000Y-131014500D02*
X103219000Y-132344500D01*
X103219000Y-132344500D02*
X104389000Y-131689500D01*
X104389000Y-131024500D02*
X104389000Y-132354500D01*
X104389000Y-131689500D02*
X103219000Y-131014500D01*
D12*
X107049000Y-130724500D02*
X108759000Y-130724500D01*
X107069000Y-132684500D02*
X108769000Y-132684500D01*
X108769000Y-130734500D02*
X108769000Y-132684500D01*
%TO.C,D20*%
X125271500Y-140242000D02*
X125271500Y-138532000D01*
X125281500Y-138522000D02*
X127231500Y-138522000D01*
D10*
X125561500Y-144072000D02*
X126891500Y-144072000D01*
X125571500Y-142902000D02*
X126901500Y-142902000D01*
X126236500Y-142902000D02*
X125561500Y-144072000D01*
X126891500Y-144072000D02*
X126236500Y-142902000D01*
D12*
X127231500Y-140222000D02*
X127231500Y-138522000D01*
D10*
%TO.C,D31*%
X133606500Y-54945750D02*
X133606500Y-56275750D01*
X133606500Y-56275750D02*
X134776500Y-55620750D01*
X134776500Y-54955750D02*
X134776500Y-56285750D01*
X134776500Y-55620750D02*
X133606500Y-54945750D01*
D12*
X137436500Y-54655750D02*
X139146500Y-54655750D01*
X137456500Y-56615750D02*
X139156500Y-56615750D01*
X139156500Y-54665750D02*
X139156500Y-56615750D01*
D10*
%TO.C,D19*%
X105469000Y-55024500D02*
X105469000Y-56354500D01*
X105469000Y-56354500D02*
X106639000Y-55699500D01*
X106639000Y-55034500D02*
X106639000Y-56364500D01*
X106639000Y-55699500D02*
X105469000Y-55024500D01*
D12*
X109299000Y-54734500D02*
X111009000Y-54734500D01*
X109319000Y-56694500D02*
X111019000Y-56694500D01*
X111019000Y-54744500D02*
X111019000Y-56694500D01*
D10*
%TO.C,D34*%
X167626500Y-112135750D02*
X167626500Y-113465750D01*
X167626500Y-113465750D02*
X168796500Y-112810750D01*
X168796500Y-112145750D02*
X168796500Y-113475750D01*
X168796500Y-112810750D02*
X167626500Y-112135750D01*
D12*
X171456500Y-111845750D02*
X173166500Y-111845750D01*
X171476500Y-113805750D02*
X173176500Y-113805750D01*
X173176500Y-111855750D02*
X173176500Y-113805750D01*
D10*
%TO.C,D10*%
X68149000Y-54984500D02*
X68149000Y-56314500D01*
X68149000Y-56314500D02*
X69319000Y-55659500D01*
X69319000Y-54994500D02*
X69319000Y-56324500D01*
X69319000Y-55659500D02*
X68149000Y-54984500D01*
D12*
X71979000Y-54694500D02*
X73689000Y-54694500D01*
X71999000Y-56654500D02*
X73699000Y-56654500D01*
X73699000Y-54704500D02*
X73699000Y-56654500D01*
%TD*%
%LPC*%
D13*
%TO.C,S34*%
X173829000Y-104157000D03*
D14*
X172559000Y-106697000D03*
D15*
X168749000Y-104157000D03*
D14*
X166209000Y-109237000D03*
D13*
X163669000Y-104157000D03*
%TD*%
%TO.C,S17*%
X102429000Y-66067000D03*
D14*
X101159000Y-68607000D03*
D15*
X97349000Y-66067000D03*
D14*
X94809000Y-71147000D03*
D13*
X92269000Y-66067000D03*
%TD*%
%TO.C,S8*%
X64349000Y-66067000D03*
D14*
X63079000Y-68607000D03*
D15*
X59269000Y-66067000D03*
D14*
X56729000Y-71147000D03*
D13*
X54189000Y-66067000D03*
%TD*%
D16*
%TO.C,H9*%
X116379000Y-47017000D03*
%TD*%
D13*
%TO.C,S3*%
X42927750Y-85107000D03*
D14*
X41657750Y-87647000D03*
D15*
X37847750Y-85107000D03*
D14*
X35307750Y-90187000D03*
D13*
X32767750Y-85107000D03*
%TD*%
%TO.C,S11*%
X78629000Y-104157000D03*
D14*
X77359000Y-106697000D03*
D15*
X73549000Y-104157000D03*
D14*
X71009000Y-109237000D03*
D13*
X68469000Y-104157000D03*
%TD*%
D16*
%TO.C,H6*%
X44979000Y-123187000D03*
%TD*%
D13*
%TO.C,S4*%
X38165250Y-123187000D03*
D14*
X36895250Y-125727000D03*
D15*
X33085250Y-123187000D03*
D14*
X30545250Y-128267000D03*
D13*
X28005250Y-123187000D03*
%TD*%
%TO.C,S13*%
X85765250Y-123187000D03*
D14*
X84495250Y-125727000D03*
D15*
X80685250Y-123187000D03*
D14*
X78145250Y-128267000D03*
D13*
X75605250Y-123187000D03*
%TD*%
%TO.C,S16*%
X97669000Y-104157000D03*
D14*
X96399000Y-106697000D03*
D15*
X92589000Y-104157000D03*
D14*
X90049000Y-109237000D03*
D13*
X87509000Y-104157000D03*
%TD*%
D16*
%TO.C,H7*%
X111619000Y-85107000D03*
%TD*%
D17*
%TO.C,H13*%
X90949000Y-139825000D03*
%TD*%
D16*
%TO.C,H4*%
X171724000Y-125187000D03*
%TD*%
%TO.C,H11*%
X103949000Y-141202000D03*
%TD*%
D13*
%TO.C,S21*%
X109565250Y-123187000D03*
D14*
X108295250Y-125727000D03*
D15*
X104485250Y-123187000D03*
D14*
X101945250Y-128267000D03*
D13*
X99405250Y-123187000D03*
%TD*%
D16*
%TO.C,H5*%
X146127000Y-123187000D03*
%TD*%
D18*
%TO.C,J1*%
X101417158Y-27421526D03*
X99846012Y-19965260D03*
D19*
X94820093Y-26910781D03*
X93772663Y-21939937D03*
D20*
X92072816Y-26191785D03*
X94296379Y-24425357D03*
X91549100Y-23706363D03*
%TD*%
D13*
%TO.C,S22*%
X116709000Y-104157000D03*
D14*
X115439000Y-106697000D03*
D15*
X111629000Y-104157000D03*
D14*
X109089000Y-109237000D03*
D13*
X106549000Y-104157000D03*
%TD*%
D16*
%TO.C,H8*%
X50935750Y-85107000D03*
%TD*%
D21*
%TO.C,J2*%
X70524000Y-32677000D03*
D22*
X70524000Y-30137000D03*
X70524000Y-27597000D03*
X70524000Y-25057000D03*
%TD*%
D16*
%TO.C,H10*%
X59269000Y-47017000D03*
%TD*%
D13*
%TO.C,S7*%
X61965250Y-123187000D03*
D14*
X60695250Y-125727000D03*
D15*
X56885250Y-123187000D03*
D14*
X54345250Y-128267000D03*
D13*
X51805250Y-123187000D03*
%TD*%
%TO.C,S5*%
X47690250Y-104157000D03*
D14*
X46420250Y-106697000D03*
D15*
X42610250Y-104157000D03*
D14*
X40070250Y-109237000D03*
D13*
X37530250Y-104157000D03*
%TD*%
%TO.C,S27*%
X135749000Y-104157000D03*
D14*
X134479000Y-106697000D03*
D15*
X130669000Y-104157000D03*
D14*
X128129000Y-109237000D03*
D13*
X125589000Y-104157000D03*
%TD*%
%TO.C,S28*%
X140509000Y-66067000D03*
D14*
X139239000Y-68607000D03*
D15*
X135429000Y-66067000D03*
D14*
X132889000Y-71147000D03*
D13*
X130349000Y-66067000D03*
%TD*%
D23*
%TO.C,S29*%
X146199000Y-141202000D03*
D24*
X140699000Y-141202000D03*
D23*
X135199000Y-141202000D03*
D25*
X140699000Y-147102000D03*
X135699000Y-145002000D03*
%TD*%
D23*
%TO.C,S20*%
X121449000Y-141202000D03*
D24*
X115949000Y-141202000D03*
D23*
X110449000Y-141202000D03*
D25*
X115949000Y-147102000D03*
X110949000Y-145002000D03*
%TD*%
D17*
%TO.C,H3*%
X62621000Y-104157000D03*
%TD*%
D13*
%TO.C,S23*%
X121469000Y-66067000D03*
D14*
X120199000Y-68607000D03*
D15*
X116389000Y-66067000D03*
D14*
X113849000Y-71147000D03*
D13*
X111309000Y-66067000D03*
%TD*%
%TO.C,S32*%
X154789000Y-104157000D03*
D14*
X153519000Y-106697000D03*
D15*
X149709000Y-104157000D03*
D14*
X147169000Y-109237000D03*
D13*
X144629000Y-104157000D03*
%TD*%
%TO.C,S9*%
X69104000Y-85107000D03*
D14*
X67834000Y-87647000D03*
D15*
X64024000Y-85107000D03*
D14*
X61484000Y-90187000D03*
D13*
X58944000Y-85107000D03*
%TD*%
%TO.C,S2*%
X40546500Y-66057000D03*
D14*
X39276500Y-68597000D03*
D15*
X35466500Y-66057000D03*
D14*
X32926500Y-71137000D03*
D13*
X30386500Y-66057000D03*
%TD*%
D17*
%TO.C,H2*%
X125914000Y-65067000D03*
%TD*%
D21*
%TO.C,TP3*%
X96859000Y-145062000D03*
%TD*%
D17*
%TO.C,H1*%
X47367500Y-66057000D03*
%TD*%
D26*
%TO.C,D6*%
X53774000Y-55537000D03*
D27*
X51724000Y-55537000D03*
D28*
X47874000Y-55537000D03*
D29*
X45774000Y-55537000D03*
%TD*%
D13*
%TO.C,S19*%
X111944000Y-47017000D03*
D14*
X110674000Y-49557000D03*
D15*
X106864000Y-47017000D03*
D14*
X104324000Y-52097000D03*
D13*
X101784000Y-47017000D03*
%TD*%
D21*
%TO.C,TP1*%
X40774000Y-41757000D03*
%TD*%
D13*
%TO.C,S18*%
X107184000Y-85107000D03*
D14*
X105914000Y-87647000D03*
D15*
X102104000Y-85107000D03*
D14*
X99564000Y-90187000D03*
D13*
X97024000Y-85107000D03*
%TD*%
D17*
%TO.C,H12*%
X173224000Y-120187000D03*
%TD*%
D13*
%TO.C,S12*%
X83389000Y-66067000D03*
D14*
X82119000Y-68607000D03*
D15*
X78309000Y-66067000D03*
D14*
X75769000Y-71147000D03*
D13*
X73229000Y-66067000D03*
%TD*%
%TO.C,S10*%
X73864000Y-47017000D03*
D14*
X72594000Y-49557000D03*
D15*
X68784000Y-47017000D03*
D14*
X66244000Y-52097000D03*
D13*
X63704000Y-47017000D03*
%TD*%
%TO.C,S15*%
X92904000Y-47017000D03*
D14*
X91634000Y-49557000D03*
D15*
X87824000Y-47017000D03*
D14*
X85284000Y-52097000D03*
D13*
X82744000Y-47017000D03*
%TD*%
%TO.C,S26*%
X138127750Y-123187000D03*
D14*
X136857750Y-125727000D03*
D15*
X133047750Y-123187000D03*
D14*
X130507750Y-128267000D03*
D13*
X127967750Y-123187000D03*
%TD*%
%TO.C,S25*%
X130984000Y-47017000D03*
D14*
X129714000Y-49557000D03*
D15*
X125904000Y-47017000D03*
D14*
X123364000Y-52097000D03*
D13*
X120824000Y-47017000D03*
%TD*%
D17*
%TO.C,H14*%
X107025400Y-34488774D03*
%TD*%
D13*
%TO.C,S30*%
X145264000Y-85107000D03*
D14*
X143994000Y-87647000D03*
D15*
X140184000Y-85107000D03*
D14*
X137644000Y-90187000D03*
D13*
X135104000Y-85107000D03*
%TD*%
%TO.C,S1*%
X35784000Y-47017000D03*
D14*
X34514000Y-49557000D03*
D15*
X30704000Y-47017000D03*
D14*
X28164000Y-52097000D03*
D13*
X25624000Y-47017000D03*
%TD*%
%TO.C,S33*%
X164304000Y-123187000D03*
D14*
X163034000Y-125727000D03*
D15*
X159224000Y-123187000D03*
D14*
X156684000Y-128267000D03*
D13*
X154144000Y-123187000D03*
%TD*%
%TO.C,S14*%
X88144000Y-85107000D03*
D14*
X86874000Y-87647000D03*
D15*
X83064000Y-85107000D03*
D14*
X80524000Y-90187000D03*
D13*
X77984000Y-85107000D03*
%TD*%
%TO.C,S6*%
X54824000Y-47017000D03*
D14*
X53554000Y-49557000D03*
D15*
X49744000Y-47017000D03*
D14*
X47204000Y-52097000D03*
D13*
X44664000Y-47017000D03*
%TD*%
D21*
%TO.C,TP2*%
X59274000Y-41757000D03*
%TD*%
D13*
%TO.C,S24*%
X126224000Y-85107000D03*
D14*
X124954000Y-87647000D03*
D15*
X121144000Y-85107000D03*
D14*
X118604000Y-90187000D03*
D13*
X116064000Y-85107000D03*
%TD*%
%TO.C,S35*%
X189185409Y-132165000D03*
D14*
X186815557Y-133729705D03*
D15*
X184786000Y-129625000D03*
D14*
X180046295Y-132754409D03*
D13*
X180386591Y-127085000D03*
%TD*%
%TO.C,S31*%
X150024000Y-47017000D03*
D14*
X148754000Y-49557000D03*
D15*
X144944000Y-47017000D03*
D14*
X142404000Y-52097000D03*
D13*
X139864000Y-47017000D03*
%TD*%
D26*
%TO.C,D12*%
X82314000Y-74787000D03*
D28*
X80214000Y-74787000D03*
X76414000Y-74787000D03*
D29*
X74314000Y-74787000D03*
%TD*%
D26*
%TO.C,D33*%
X163814000Y-132467000D03*
D28*
X161714000Y-132467000D03*
X157914000Y-132467000D03*
D29*
X155814000Y-132467000D03*
%TD*%
D22*
%TO.C,U2*%
X74734000Y-152547000D03*
X72194000Y-152547000D03*
D21*
X69654000Y-152547000D03*
D22*
X67114000Y-152547000D03*
X64574000Y-152547000D03*
X62034000Y-152547000D03*
X59494000Y-152547000D03*
D21*
X56954000Y-152547000D03*
D22*
X54414000Y-152547000D03*
X51874000Y-152547000D03*
X49334000Y-152547000D03*
X46794000Y-152547000D03*
D21*
X44254000Y-152547000D03*
D22*
X41714000Y-152547000D03*
X39174000Y-152547000D03*
X36634000Y-152547000D03*
X34094000Y-152547000D03*
D21*
X31554000Y-152547000D03*
D22*
X29014000Y-152547000D03*
X26474000Y-152547000D03*
X26474000Y-134767000D03*
X29014000Y-134767000D03*
D21*
X31554000Y-134767000D03*
D22*
X34094000Y-134767000D03*
X36634000Y-134767000D03*
X39174000Y-134767000D03*
X41714000Y-134767000D03*
D21*
X44254000Y-134767000D03*
D22*
X46794000Y-134767000D03*
X49334000Y-134767000D03*
X51874000Y-134767000D03*
X54414000Y-134767000D03*
D21*
X56954000Y-134767000D03*
D22*
X59494000Y-134767000D03*
X62034000Y-134767000D03*
X64574000Y-134767000D03*
X67114000Y-134767000D03*
D21*
X69654000Y-134767000D03*
D22*
X72194000Y-134767000D03*
X74734000Y-134767000D03*
X26704000Y-146197000D03*
D21*
X26704000Y-143657000D03*
D22*
X26704000Y-141117000D03*
D30*
X75004000Y-144557000D03*
X75004000Y-142757000D03*
%TD*%
D26*
%TO.C,D16*%
X95344000Y-112767000D03*
D28*
X93244000Y-112767000D03*
X89444000Y-112767000D03*
D29*
X87344000Y-112767000D03*
%TD*%
D26*
%TO.C,D15*%
X90651500Y-55768250D03*
D28*
X88551500Y-55768250D03*
X84751500Y-55768250D03*
D29*
X82651500Y-55768250D03*
%TD*%
D26*
%TO.C,D28*%
X139734000Y-74697000D03*
D28*
X137634000Y-74697000D03*
X133834000Y-74697000D03*
D29*
X131734000Y-74697000D03*
%TD*%
D26*
%TO.C,D9*%
X67904000Y-93697000D03*
D28*
X65804000Y-93697000D03*
X62004000Y-93697000D03*
D29*
X59904000Y-93697000D03*
%TD*%
D26*
%TO.C,D30*%
X144251500Y-93728250D03*
D28*
X142151500Y-93728250D03*
X138351500Y-93728250D03*
D29*
X136251500Y-93728250D03*
%TD*%
D26*
%TO.C,D3*%
X41644000Y-93727000D03*
D28*
X39544000Y-93727000D03*
X35744000Y-93727000D03*
D29*
X33644000Y-93727000D03*
%TD*%
D26*
%TO.C,D27*%
X134364000Y-112817000D03*
D28*
X132264000Y-112817000D03*
X128464000Y-112817000D03*
D29*
X126364000Y-112817000D03*
%TD*%
D26*
%TO.C,D11*%
X77244000Y-112847000D03*
D28*
X75144000Y-112847000D03*
X71344000Y-112847000D03*
D29*
X69244000Y-112847000D03*
%TD*%
D26*
%TO.C,D2*%
X39431500Y-74788250D03*
D28*
X37331500Y-74788250D03*
X33531500Y-74788250D03*
D29*
X31431500Y-74788250D03*
%TD*%
D31*
%TO.C,D35*%
X181958102Y-140457000D03*
D32*
X180139448Y-139407000D03*
X176848552Y-137507000D03*
D29*
X175029898Y-136457000D03*
%TD*%
D26*
%TO.C,D22*%
X115151500Y-112768250D03*
D28*
X113051500Y-112768250D03*
X109251500Y-112768250D03*
D29*
X107151500Y-112768250D03*
%TD*%
D26*
%TO.C,D18*%
X106114000Y-93677000D03*
D28*
X104014000Y-93677000D03*
X100214000Y-93677000D03*
D29*
X98114000Y-93677000D03*
%TD*%
D26*
%TO.C,D26*%
X135001500Y-132088250D03*
D28*
X132901500Y-132088250D03*
X129101500Y-132088250D03*
D29*
X127001500Y-132088250D03*
%TD*%
D33*
%TO.C,J4*%
X88204000Y-32687000D03*
D34*
X88727715Y-35172422D03*
%TD*%
D26*
%TO.C,D14*%
X87064000Y-93767000D03*
D28*
X84964000Y-93767000D03*
X81164000Y-93767000D03*
D29*
X79064000Y-93767000D03*
%TD*%
D26*
%TO.C,D17*%
X98494000Y-74877000D03*
D28*
X96394000Y-74877000D03*
X92594000Y-74877000D03*
D29*
X90494000Y-74877000D03*
%TD*%
D26*
%TO.C,D32*%
X153384000Y-112817000D03*
D28*
X151284000Y-112817000D03*
X147484000Y-112817000D03*
D29*
X145384000Y-112817000D03*
%TD*%
D34*
%TO.C,J3*%
X85872101Y-21674435D03*
X86375197Y-24062006D03*
X86898913Y-26547428D03*
X87422628Y-29032850D03*
%TD*%
D26*
%TO.C,D1*%
X34354000Y-55567000D03*
D28*
X32254000Y-55567000D03*
X28454000Y-55567000D03*
D29*
X26354000Y-55567000D03*
%TD*%
D26*
%TO.C,D8*%
X62544000Y-74787000D03*
D28*
X60444000Y-74787000D03*
X56644000Y-74787000D03*
D29*
X54544000Y-74787000D03*
%TD*%
D26*
%TO.C,D13*%
X93054000Y-120887000D03*
D35*
X93054000Y-122987000D03*
X93054000Y-126787000D03*
D29*
X93054000Y-128887000D03*
%TD*%
D26*
%TO.C,D7*%
X71285250Y-121039500D03*
D35*
X71285250Y-123139500D03*
X71285250Y-126939500D03*
D29*
X71285250Y-129039500D03*
%TD*%
D26*
%TO.C,D24*%
X128094000Y-93757000D03*
D28*
X125994000Y-93757000D03*
X122194000Y-93757000D03*
D29*
X120094000Y-93757000D03*
%TD*%
D26*
%TO.C,D4*%
X67285250Y-121039500D03*
D35*
X67285250Y-123139500D03*
X67285250Y-126939500D03*
D29*
X67285250Y-129039500D03*
%TD*%
D26*
%TO.C,D25*%
X125564000Y-55687000D03*
D28*
X123464000Y-55687000D03*
X119664000Y-55687000D03*
D29*
X117564000Y-55687000D03*
%TD*%
D26*
%TO.C,D29*%
X130244000Y-139557000D03*
D35*
X130244000Y-141657000D03*
X130244000Y-145457000D03*
D29*
X130244000Y-147557000D03*
%TD*%
D26*
%TO.C,D23*%
X119934000Y-74597000D03*
D28*
X117834000Y-74597000D03*
X114034000Y-74597000D03*
D29*
X111934000Y-74597000D03*
%TD*%
D26*
%TO.C,D5*%
X54044000Y-112787000D03*
D28*
X51944000Y-112787000D03*
X48144000Y-112787000D03*
D29*
X46044000Y-112787000D03*
%TD*%
D26*
%TO.C,D21*%
X107774000Y-131697000D03*
D28*
X105674000Y-131697000D03*
X101874000Y-131697000D03*
D29*
X99774000Y-131697000D03*
%TD*%
D26*
%TO.C,D20*%
X126244000Y-139517000D03*
D35*
X126244000Y-141617000D03*
X126244000Y-145417000D03*
D29*
X126244000Y-147517000D03*
%TD*%
D26*
%TO.C,D31*%
X138161500Y-55628250D03*
D28*
X136061500Y-55628250D03*
X132261500Y-55628250D03*
D29*
X130161500Y-55628250D03*
%TD*%
D26*
%TO.C,D19*%
X110024000Y-55707000D03*
D28*
X107924000Y-55707000D03*
X104124000Y-55707000D03*
D29*
X102024000Y-55707000D03*
%TD*%
D26*
%TO.C,D34*%
X172181500Y-112818250D03*
D28*
X170081500Y-112818250D03*
X166281500Y-112818250D03*
D29*
X164181500Y-112818250D03*
%TD*%
D26*
%TO.C,D10*%
X72704000Y-55667000D03*
D28*
X70604000Y-55667000D03*
X66804000Y-55667000D03*
D29*
X64704000Y-55667000D03*
%TD*%
%LPD*%
M02*
