%TF.GenerationSoftware,KiCad,Pcbnew,8.0.7*%
%TF.CreationDate,2025-05-09T14:19:32+02:00*%
%TF.ProjectId,plate6_dx,706c6174-6536-45f6-9478-2e6b69636164,rev?*%
%TF.SameCoordinates,Original*%
%TF.FileFunction,Profile,NP*%
%FSLAX46Y46*%
G04 Gerber Fmt 4.6, Leading zero omitted, Abs format (unit mm)*
G04 Created by KiCad (PCBNEW 8.0.7) date 2025-05-09 14:19:32*
%MOMM*%
%LPD*%
G01*
G04 APERTURE LIST*
%TA.AperFunction,Profile*%
%ADD10C,0.000000*%
%TD*%
G04 APERTURE END LIST*
D10*
X88285000Y-122848600D02*
X88285000Y-160875050D01*
X98348000Y-122848600D02*
X88285000Y-122848600D01*
X98348000Y-105801300D02*
X98348000Y-122848600D01*
X88823000Y-105801300D02*
X98348000Y-105801300D01*
X88823000Y-86751300D02*
X88823000Y-105801300D01*
X84060000Y-86751300D02*
X88823000Y-86751300D01*
X84060000Y-65700000D02*
X84060000Y-86751300D01*
X93585000Y-65700000D02*
X84060000Y-65700000D01*
X93585000Y-47651756D02*
X93585000Y-65700000D01*
X247613000Y-47651756D02*
X93585000Y-47651756D01*
X247613000Y-144581165D02*
X247613000Y-47651756D01*
X141035000Y-144581165D02*
X247613000Y-144581165D01*
X141035000Y-160875050D02*
X141035000Y-144581165D01*
X88285000Y-160875050D02*
X141035000Y-160875050D01*
X106285000Y-144375050D02*
X106285000Y-158375050D01*
X92285000Y-144375050D02*
X106285000Y-144375050D01*
X92285000Y-158375050D02*
X92285000Y-144375050D01*
X106285000Y-158375050D02*
X92285000Y-158375050D01*
X131035000Y-144375050D02*
X131035000Y-158375050D01*
X117035000Y-144375050D02*
X131035000Y-144375050D01*
X117035000Y-158375050D02*
X117035000Y-144375050D01*
X131035000Y-158375050D02*
X117035000Y-158375050D01*
X219029000Y-92976500D02*
X219029000Y-88276000D01*
X217504000Y-92976500D02*
X219029000Y-92976500D01*
X217504000Y-89746400D02*
X217504000Y-92976500D01*
X210754000Y-89746400D02*
X217504000Y-89746400D01*
X210754000Y-92976500D02*
X210754000Y-89746400D01*
X209928000Y-92976500D02*
X210754000Y-92976500D01*
X209928000Y-95775400D02*
X209928000Y-92976500D01*
X210754000Y-95775400D02*
X209928000Y-95775400D01*
X210754000Y-102045300D02*
X210754000Y-95775400D01*
X212479000Y-102045300D02*
X210754000Y-102045300D01*
X212479000Y-103245500D02*
X212479000Y-102045300D01*
X215778000Y-103245500D02*
X212479000Y-103245500D01*
X215778000Y-102045300D02*
X215778000Y-103245500D01*
X217504000Y-102045300D02*
X215778000Y-102045300D01*
X217504000Y-97576300D02*
X217504000Y-102045300D01*
X219029000Y-97576300D02*
X217504000Y-97576300D01*
X219029000Y-102275300D02*
X219029000Y-97576300D01*
X233028000Y-102275300D02*
X219029000Y-102275300D01*
X233028000Y-97576300D02*
X233028000Y-102275300D01*
X234553000Y-97576300D02*
X233028000Y-97576300D01*
X234553000Y-102045300D02*
X234553000Y-97576300D01*
X236278000Y-102045300D02*
X234553000Y-102045300D01*
X236278000Y-103245500D02*
X236278000Y-102045300D01*
X239580000Y-103245500D02*
X236278000Y-103245500D01*
X239580000Y-102045300D02*
X239580000Y-103245500D01*
X241305000Y-102045300D02*
X239580000Y-102045300D01*
X241305000Y-95775400D02*
X241305000Y-102045300D01*
X242130000Y-95775400D02*
X241305000Y-95775400D01*
X242130000Y-92976500D02*
X242130000Y-95775400D01*
X241305000Y-92976500D02*
X242130000Y-92976500D01*
X241305000Y-89746400D02*
X241305000Y-92976500D01*
X234553000Y-89746400D02*
X241305000Y-89746400D01*
X234553000Y-92976500D02*
X234553000Y-89746400D01*
X233028000Y-92976500D02*
X234553000Y-92976500D01*
X233028000Y-88276000D02*
X233028000Y-92976500D01*
X219029000Y-88276000D02*
X233028000Y-88276000D01*
X159210000Y-69226000D02*
X159210000Y-83225300D01*
X145210000Y-69226000D02*
X159210000Y-69226000D01*
X145210000Y-83225300D02*
X145210000Y-69226000D01*
X159210000Y-83225300D02*
X145210000Y-83225300D01*
X140160000Y-69226000D02*
X140160000Y-83225300D01*
X126160000Y-69226000D02*
X140160000Y-69226000D01*
X126160000Y-83225300D02*
X126160000Y-69226000D01*
X140160000Y-83225300D02*
X126160000Y-83225300D01*
X197310000Y-69226000D02*
X197310000Y-83225300D01*
X183310000Y-69226000D02*
X197310000Y-69226000D01*
X183310000Y-83225300D02*
X183310000Y-69226000D01*
X197310000Y-83225300D02*
X183310000Y-83225300D01*
X163972000Y-88276000D02*
X163972000Y-102275300D01*
X149973000Y-88276000D02*
X163972000Y-88276000D01*
X149973000Y-102275300D02*
X149973000Y-88276000D01*
X163972000Y-102275300D02*
X149973000Y-102275300D01*
X149685000Y-50176100D02*
X149685000Y-64175300D01*
X135685000Y-50176100D02*
X149685000Y-50176100D01*
X135685000Y-64175300D02*
X135685000Y-50176100D01*
X149685000Y-64175300D02*
X135685000Y-64175300D01*
X113966000Y-126374600D02*
X113966000Y-140375500D01*
X99965000Y-126374600D02*
X113966000Y-126374600D01*
X99965000Y-140375500D02*
X99965000Y-126374600D01*
X113966000Y-140375500D02*
X99965000Y-140375500D01*
X111585000Y-50176100D02*
X111585000Y-64175300D01*
X97585000Y-50176100D02*
X111585000Y-50176100D01*
X97585000Y-64175300D02*
X97585000Y-50176100D01*
X111585000Y-64175300D02*
X97585000Y-64175300D01*
X242554000Y-126374600D02*
X242554000Y-140375500D01*
X228554000Y-126374600D02*
X242554000Y-126374600D01*
X228554000Y-140375500D02*
X228554000Y-126374600D01*
X242554000Y-140375500D02*
X228554000Y-140375500D01*
X221410000Y-54876100D02*
X221410000Y-50176100D01*
X219885000Y-54876100D02*
X221410000Y-54876100D01*
X219885000Y-51646100D02*
X219885000Y-54876100D01*
X213135000Y-51646100D02*
X219885000Y-51646100D01*
X213135000Y-54876100D02*
X213135000Y-51646100D01*
X212310000Y-54876100D02*
X213135000Y-54876100D01*
X212310000Y-57675100D02*
X212310000Y-54876100D01*
X213135000Y-57675100D02*
X212310000Y-57675100D01*
X213135000Y-63945300D02*
X213135000Y-57675100D01*
X214859000Y-63945300D02*
X213135000Y-63945300D01*
X214859000Y-65145500D02*
X214859000Y-63945300D01*
X218159000Y-65145500D02*
X214859000Y-65145500D01*
X218159000Y-63945300D02*
X218159000Y-65145500D01*
X219885000Y-63945300D02*
X218159000Y-63945300D01*
X219885000Y-59476100D02*
X219885000Y-63945300D01*
X221410000Y-59476100D02*
X219885000Y-59476100D01*
X221410000Y-64175300D02*
X221410000Y-59476100D01*
X235410000Y-64175300D02*
X221410000Y-64175300D01*
X235410000Y-59476100D02*
X235410000Y-64175300D01*
X236934000Y-59476100D02*
X235410000Y-59476100D01*
X236934000Y-63945300D02*
X236934000Y-59476100D01*
X238659000Y-63945300D02*
X236934000Y-63945300D01*
X238659000Y-65145500D02*
X238659000Y-63945300D01*
X241961000Y-65145500D02*
X238659000Y-65145500D01*
X241961000Y-63945300D02*
X241961000Y-65145500D01*
X243686000Y-63945300D02*
X241961000Y-63945300D01*
X243686000Y-57675100D02*
X243686000Y-63945300D01*
X244508000Y-57675100D02*
X243686000Y-57675100D01*
X244508000Y-54876100D02*
X244508000Y-57675100D01*
X243686000Y-54876100D02*
X244508000Y-54876100D01*
X243686000Y-51646100D02*
X243686000Y-54876100D01*
X236934000Y-51646100D02*
X243686000Y-51646100D01*
X236934000Y-54876100D02*
X236934000Y-51646100D01*
X235410000Y-54876100D02*
X236934000Y-54876100D01*
X235410000Y-50176100D02*
X235410000Y-54876100D01*
X221410000Y-50176100D02*
X235410000Y-50176100D01*
X168735000Y-50176100D02*
X168735000Y-64175300D01*
X154735000Y-50176100D02*
X168735000Y-50176100D01*
X154735000Y-64175300D02*
X154735000Y-50176100D01*
X168735000Y-64175300D02*
X154735000Y-64175300D01*
X206722500Y-95275650D02*
G75*
G02*
X204422500Y-95275650I-1150000J0D01*
G01*
X204422500Y-95275650D02*
G75*
G02*
X206722500Y-95275650I1150000J0D01*
G01*
X129547500Y-95275650D02*
G75*
G02*
X127247500Y-95275650I-1150000J0D01*
G01*
X127247500Y-95275650D02*
G75*
G02*
X129547500Y-95275650I1150000J0D01*
G01*
X200984000Y-133375050D02*
G75*
G02*
X198684000Y-133375050I-1150000J0D01*
G01*
X198684000Y-133375050D02*
G75*
G02*
X200984000Y-133375050I1150000J0D01*
G01*
X123594500Y-130375050D02*
G75*
G02*
X121294500Y-130375050I-1150000J0D01*
G01*
X121294500Y-130375050D02*
G75*
G02*
X123594500Y-130375050I1150000J0D01*
G01*
X224797500Y-133375050D02*
G75*
G02*
X222497500Y-133375050I-1150000J0D01*
G01*
X222497500Y-133375050D02*
G75*
G02*
X224797500Y-133375050I1150000J0D01*
G01*
X134310000Y-57175700D02*
G75*
G02*
X132010000Y-57175700I-1150000J0D01*
G01*
X132010000Y-57175700D02*
G75*
G02*
X134310000Y-57175700I1150000J0D01*
G01*
X216360000Y-69226000D02*
X216360000Y-83225300D01*
X202360000Y-69226000D02*
X216360000Y-69226000D01*
X202360000Y-83225300D02*
X202360000Y-69226000D01*
X216360000Y-83225300D02*
X202360000Y-83225300D01*
X130635000Y-50176100D02*
X130635000Y-64175300D01*
X116635000Y-50176100D02*
X130635000Y-50176100D01*
X116635000Y-64175300D02*
X116635000Y-50176100D01*
X130635000Y-64175300D02*
X116635000Y-64175300D01*
X137185000Y-151375050D02*
G75*
G02*
X134885000Y-151375050I-1150000J0D01*
G01*
X134885000Y-151375050D02*
G75*
G02*
X137185000Y-151375050I1150000J0D01*
G01*
X123594500Y-137375050D02*
G75*
G02*
X121294500Y-137375050I-1150000J0D01*
G01*
X121294500Y-137375050D02*
G75*
G02*
X123594500Y-137375050I1150000J0D01*
G01*
X222416500Y-76225650D02*
G75*
G02*
X220116500Y-76225650I-1150000J0D01*
G01*
X220116500Y-76225650D02*
G75*
G02*
X222416500Y-76225650I1150000J0D01*
G01*
X191460000Y-57175700D02*
G75*
G02*
X189160000Y-57175700I-1150000J0D01*
G01*
X189160000Y-57175700D02*
G75*
G02*
X191460000Y-57175700I1150000J0D01*
G01*
X240172000Y-69226000D02*
X240172000Y-83225300D01*
X226173000Y-69226000D02*
X240172000Y-69226000D01*
X226173000Y-83225300D02*
X226173000Y-69226000D01*
X240172000Y-83225300D02*
X226173000Y-83225300D01*
X121110000Y-69226000D02*
X121110000Y-83225300D01*
X107110000Y-69226000D02*
X121110000Y-69226000D01*
X107110000Y-83225300D02*
X107110000Y-69226000D01*
X121110000Y-83225300D02*
X107110000Y-83225300D01*
X214265000Y-112026500D02*
X214265000Y-107326000D01*
X212741000Y-112026500D02*
X214265000Y-112026500D01*
X212741000Y-108796400D02*
X212741000Y-112026500D01*
X205990000Y-108796400D02*
X212741000Y-108796400D01*
X205990000Y-112026500D02*
X205990000Y-108796400D01*
X205166000Y-112026500D02*
X205990000Y-112026500D01*
X205166000Y-114825400D02*
X205166000Y-112026500D01*
X205990000Y-114825400D02*
X205166000Y-114825400D01*
X205990000Y-121095300D02*
X205990000Y-114825400D01*
X207715000Y-121095300D02*
X205990000Y-121095300D01*
X207715000Y-122295500D02*
X207715000Y-121095300D01*
X211016000Y-122295500D02*
X207715000Y-122295500D01*
X211016000Y-121095300D02*
X211016000Y-122295500D01*
X212741000Y-121095300D02*
X211016000Y-121095300D01*
X212741000Y-116624900D02*
X212741000Y-121095300D01*
X214265000Y-116624900D02*
X212741000Y-116624900D01*
X214265000Y-121325300D02*
X214265000Y-116624900D01*
X228266000Y-121325300D02*
X214265000Y-121325300D01*
X228266000Y-116624900D02*
X228266000Y-121325300D01*
X229790000Y-116624900D02*
X228266000Y-116624900D01*
X229790000Y-121095300D02*
X229790000Y-116624900D01*
X231515000Y-121095300D02*
X229790000Y-121095300D01*
X231515000Y-122295500D02*
X231515000Y-121095300D01*
X234817000Y-122295500D02*
X231515000Y-122295500D01*
X234817000Y-121095300D02*
X234817000Y-122295500D01*
X236542000Y-121095300D02*
X234817000Y-121095300D01*
X236542000Y-114825400D02*
X236542000Y-121095300D01*
X237364000Y-114825400D02*
X236542000Y-114825400D01*
X237364000Y-112026500D02*
X237364000Y-114825400D01*
X236542000Y-112026500D02*
X237364000Y-112026500D01*
X236542000Y-108796400D02*
X236542000Y-112026500D01*
X229790000Y-108796400D02*
X236542000Y-108796400D01*
X229790000Y-112026500D02*
X229790000Y-108796400D01*
X228266000Y-112026500D02*
X229790000Y-112026500D01*
X228266000Y-107326000D02*
X228266000Y-112026500D01*
X214265000Y-107326000D02*
X228266000Y-107326000D01*
X194928000Y-126374600D02*
X194928000Y-140375500D01*
X180929000Y-126374600D02*
X194928000Y-126374600D01*
X180929000Y-140375500D02*
X180929000Y-126374600D01*
X194928000Y-140375500D02*
X180929000Y-140375500D01*
X183022000Y-88276000D02*
X183022000Y-102275300D01*
X169023000Y-88276000D02*
X183022000Y-88276000D01*
X169023000Y-102275300D02*
X169023000Y-88276000D01*
X183022000Y-102275300D02*
X169023000Y-102275300D01*
X144922000Y-126374600D02*
X144922000Y-140375500D01*
X130923000Y-126374600D02*
X144922000Y-126374600D01*
X130923000Y-140375500D02*
X130923000Y-126374600D01*
X144922000Y-140375500D02*
X130923000Y-140375500D01*
X171116000Y-126374600D02*
X171116000Y-140375500D01*
X157115000Y-126374600D02*
X171116000Y-126374600D01*
X157115000Y-140375500D02*
X157115000Y-126374600D01*
X171116000Y-140375500D02*
X157115000Y-140375500D01*
X144922000Y-88276000D02*
X144922000Y-102275300D01*
X130923000Y-88276000D02*
X144922000Y-88276000D01*
X130923000Y-102275300D02*
X130923000Y-88276000D01*
X144922000Y-102275300D02*
X130923000Y-102275300D01*
X125872000Y-88276000D02*
X125872000Y-102275300D01*
X111873000Y-88276000D02*
X125872000Y-88276000D01*
X111873000Y-102275300D02*
X111873000Y-88276000D01*
X125872000Y-102275300D02*
X111873000Y-102275300D01*
X102060000Y-69226000D02*
X102060000Y-83225300D01*
X88060000Y-69226000D02*
X102060000Y-69226000D01*
X88060000Y-83225300D02*
X88060000Y-69226000D01*
X102060000Y-83225300D02*
X88060000Y-83225300D01*
X106822000Y-88276000D02*
X106822000Y-102275300D01*
X92823000Y-88276000D02*
X106822000Y-88276000D01*
X92823000Y-102275300D02*
X92823000Y-88276000D01*
X106822000Y-102275300D02*
X92823000Y-102275300D01*
X154447000Y-107326000D02*
X154447000Y-121325300D01*
X140448000Y-107326000D02*
X154447000Y-107326000D01*
X140448000Y-121325300D02*
X140448000Y-107326000D01*
X154447000Y-121325300D02*
X140448000Y-121325300D01*
X116347000Y-107326000D02*
X116347000Y-121325300D01*
X102348000Y-107326000D02*
X116347000Y-107326000D01*
X102348000Y-121325300D02*
X102348000Y-107326000D01*
X116347000Y-121325300D02*
X102348000Y-121325300D01*
X135397000Y-107326000D02*
X135397000Y-121325300D01*
X121398000Y-107326000D02*
X135397000Y-107326000D01*
X121398000Y-121325300D02*
X121398000Y-107326000D01*
X135397000Y-121325300D02*
X121398000Y-121325300D01*
X218741000Y-126374600D02*
X218741000Y-140375500D01*
X204740000Y-126374600D02*
X218741000Y-126374600D01*
X204740000Y-140375500D02*
X204740000Y-126374600D01*
X218741000Y-140375500D02*
X204740000Y-140375500D01*
X192547000Y-107326000D02*
X192547000Y-121325300D01*
X178548000Y-107326000D02*
X192547000Y-107326000D01*
X178548000Y-121325300D02*
X178548000Y-107326000D01*
X192547000Y-121325300D02*
X178548000Y-121325300D01*
X173497000Y-107326000D02*
X173497000Y-121325300D01*
X159498000Y-107326000D02*
X173497000Y-107326000D01*
X159498000Y-121325300D02*
X159498000Y-107326000D01*
X173497000Y-121325300D02*
X159498000Y-121325300D01*
X206835000Y-50176100D02*
X206835000Y-64175300D01*
X192835000Y-50176100D02*
X206835000Y-50176100D01*
X192835000Y-64175300D02*
X192835000Y-50176100D01*
X206835000Y-64175300D02*
X192835000Y-64175300D01*
X178260000Y-69226000D02*
X178260000Y-83225300D01*
X164260000Y-69226000D02*
X178260000Y-69226000D01*
X164260000Y-83225300D02*
X164260000Y-69226000D01*
X178260000Y-83225300D02*
X164260000Y-83225300D01*
X187785000Y-50176100D02*
X187785000Y-64175300D01*
X173785000Y-50176100D02*
X187785000Y-50176100D01*
X173785000Y-64175300D02*
X173785000Y-50176100D01*
X187785000Y-64175300D02*
X173785000Y-64175300D01*
X202072000Y-88276000D02*
X202072000Y-102275300D01*
X188073000Y-88276000D02*
X202072000Y-88276000D01*
X188073000Y-102275300D02*
X188073000Y-88276000D01*
X202072000Y-102275300D02*
X188073000Y-102275300D01*
M02*
