%TF.GenerationSoftware,KiCad,Pcbnew,8.0.7*%
%TF.CreationDate,2025-05-09T14:19:32+02:00*%
%TF.ProjectId,plate6_dx,706c6174-6536-45f6-9478-2e6b69636164,rev?*%
%TF.SameCoordinates,Original*%
%TF.FileFunction,Copper,L1,Top*%
%TF.FilePolarity,Positive*%
%FSLAX46Y46*%
G04 Gerber Fmt 4.6, Leading zero omitted, Abs format (unit mm)*
G04 Created by KiCad (PCBNEW 8.0.7) date 2025-05-09 14:19:32*
%MOMM*%
%LPD*%
G01*
G04 APERTURE LIST*
G04 APERTURE END LIST*
%TA.AperFunction,NonConductor*%
G36*
X247055539Y-48171941D02*
G01*
X247101294Y-48224745D01*
X247112500Y-48276256D01*
X247112500Y-143956665D01*
X247092815Y-144023704D01*
X247040011Y-144069459D01*
X246988500Y-144080665D01*
X140969108Y-144080665D01*
X140841812Y-144114773D01*
X140727686Y-144180665D01*
X140727683Y-144180667D01*
X140634502Y-144273848D01*
X140634500Y-144273851D01*
X140568608Y-144387977D01*
X140534500Y-144515273D01*
X140534500Y-160250550D01*
X140514815Y-160317589D01*
X140462011Y-160363344D01*
X140410500Y-160374550D01*
X88909500Y-160374550D01*
X88842461Y-160354865D01*
X88796706Y-160302061D01*
X88785500Y-160250550D01*
X88785500Y-144309158D01*
X91784500Y-144309158D01*
X91784500Y-158440941D01*
X91818608Y-158568237D01*
X91851554Y-158625300D01*
X91884500Y-158682364D01*
X91977686Y-158775550D01*
X92091814Y-158841442D01*
X92219108Y-158875550D01*
X92219110Y-158875550D01*
X106350890Y-158875550D01*
X106350892Y-158875550D01*
X106478186Y-158841442D01*
X106592314Y-158775550D01*
X106685500Y-158682364D01*
X106751392Y-158568236D01*
X106785500Y-158440942D01*
X106785500Y-144309158D01*
X116534500Y-144309158D01*
X116534500Y-158440941D01*
X116568608Y-158568237D01*
X116601554Y-158625300D01*
X116634500Y-158682364D01*
X116727686Y-158775550D01*
X116841814Y-158841442D01*
X116969108Y-158875550D01*
X116969110Y-158875550D01*
X131100890Y-158875550D01*
X131100892Y-158875550D01*
X131228186Y-158841442D01*
X131342314Y-158775550D01*
X131435500Y-158682364D01*
X131501392Y-158568236D01*
X131535500Y-158440942D01*
X131535500Y-151375050D01*
X134379396Y-151375050D01*
X134399778Y-151634040D01*
X134460427Y-151886660D01*
X134559843Y-152126673D01*
X134559845Y-152126677D01*
X134559846Y-152126678D01*
X134695588Y-152348190D01*
X134864311Y-152545739D01*
X135061860Y-152714462D01*
X135283372Y-152850204D01*
X135283374Y-152850204D01*
X135283376Y-152850206D01*
X135344693Y-152875604D01*
X135523390Y-152949623D01*
X135776006Y-153010271D01*
X136035000Y-153030654D01*
X136293994Y-153010271D01*
X136546610Y-152949623D01*
X136786628Y-152850204D01*
X137008140Y-152714462D01*
X137205689Y-152545739D01*
X137374412Y-152348190D01*
X137510154Y-152126678D01*
X137609573Y-151886660D01*
X137670221Y-151634044D01*
X137690604Y-151375050D01*
X137670221Y-151116056D01*
X137609573Y-150863440D01*
X137510154Y-150623422D01*
X137374412Y-150401910D01*
X137205689Y-150204361D01*
X137008140Y-150035638D01*
X136786628Y-149899896D01*
X136786627Y-149899895D01*
X136786623Y-149899893D01*
X136620627Y-149831136D01*
X136546610Y-149800477D01*
X136546611Y-149800477D01*
X136408921Y-149767420D01*
X136293994Y-149739829D01*
X136293992Y-149739828D01*
X136293991Y-149739828D01*
X136035000Y-149719446D01*
X135776009Y-149739828D01*
X135523389Y-149800477D01*
X135283376Y-149899893D01*
X135061859Y-150035638D01*
X134864311Y-150204361D01*
X134695588Y-150401909D01*
X134559843Y-150623426D01*
X134460427Y-150863439D01*
X134399778Y-151116059D01*
X134379396Y-151375050D01*
X131535500Y-151375050D01*
X131535500Y-144309158D01*
X131501392Y-144181864D01*
X131435500Y-144067736D01*
X131342314Y-143974550D01*
X131285250Y-143941604D01*
X131228187Y-143908658D01*
X131164539Y-143891604D01*
X131100892Y-143874550D01*
X117100892Y-143874550D01*
X116969108Y-143874550D01*
X116841812Y-143908658D01*
X116727686Y-143974550D01*
X116727683Y-143974552D01*
X116634502Y-144067733D01*
X116634500Y-144067736D01*
X116568608Y-144181862D01*
X116534500Y-144309158D01*
X106785500Y-144309158D01*
X106751392Y-144181864D01*
X106685500Y-144067736D01*
X106592314Y-143974550D01*
X106535250Y-143941604D01*
X106478187Y-143908658D01*
X106414539Y-143891604D01*
X106350892Y-143874550D01*
X92350892Y-143874550D01*
X92219108Y-143874550D01*
X92091812Y-143908658D01*
X91977686Y-143974550D01*
X91977683Y-143974552D01*
X91884502Y-144067733D01*
X91884500Y-144067736D01*
X91818608Y-144181862D01*
X91784500Y-144309158D01*
X88785500Y-144309158D01*
X88785500Y-126308708D01*
X99464500Y-126308708D01*
X99464500Y-140441391D01*
X99498608Y-140568687D01*
X99531554Y-140625750D01*
X99564500Y-140682814D01*
X99657686Y-140776000D01*
X99771814Y-140841892D01*
X99899108Y-140876000D01*
X99899110Y-140876000D01*
X114031890Y-140876000D01*
X114031892Y-140876000D01*
X114159186Y-140841892D01*
X114273314Y-140776000D01*
X114366500Y-140682814D01*
X114432392Y-140568686D01*
X114466500Y-140441392D01*
X114466500Y-137375050D01*
X120788896Y-137375050D01*
X120809278Y-137634040D01*
X120869927Y-137886660D01*
X120969343Y-138126673D01*
X120969345Y-138126677D01*
X120969346Y-138126678D01*
X121105088Y-138348190D01*
X121273811Y-138545739D01*
X121471360Y-138714462D01*
X121692872Y-138850204D01*
X121692874Y-138850204D01*
X121692876Y-138850206D01*
X121754193Y-138875604D01*
X121932890Y-138949623D01*
X122185506Y-139010271D01*
X122444500Y-139030654D01*
X122703494Y-139010271D01*
X122956110Y-138949623D01*
X123196128Y-138850204D01*
X123417640Y-138714462D01*
X123615189Y-138545739D01*
X123783912Y-138348190D01*
X123919654Y-138126678D01*
X124019073Y-137886660D01*
X124079721Y-137634044D01*
X124100104Y-137375050D01*
X124079721Y-137116056D01*
X124019073Y-136863440D01*
X123919654Y-136623422D01*
X123783912Y-136401910D01*
X123615189Y-136204361D01*
X123417640Y-136035638D01*
X123196128Y-135899896D01*
X123196127Y-135899895D01*
X123196123Y-135899893D01*
X123030127Y-135831136D01*
X122956110Y-135800477D01*
X122956111Y-135800477D01*
X122818421Y-135767420D01*
X122703494Y-135739829D01*
X122703492Y-135739828D01*
X122703491Y-135739828D01*
X122444500Y-135719446D01*
X122185509Y-135739828D01*
X121932889Y-135800477D01*
X121692876Y-135899893D01*
X121471359Y-136035638D01*
X121273811Y-136204361D01*
X121105088Y-136401909D01*
X120969343Y-136623426D01*
X120869927Y-136863439D01*
X120809278Y-137116059D01*
X120788896Y-137375050D01*
X114466500Y-137375050D01*
X114466500Y-130375050D01*
X120788896Y-130375050D01*
X120809278Y-130634040D01*
X120869927Y-130886660D01*
X120969343Y-131126673D01*
X120969345Y-131126677D01*
X120969346Y-131126678D01*
X121105088Y-131348190D01*
X121273811Y-131545739D01*
X121471360Y-131714462D01*
X121692872Y-131850204D01*
X121692874Y-131850204D01*
X121692876Y-131850206D01*
X121754193Y-131875604D01*
X121932890Y-131949623D01*
X122185506Y-132010271D01*
X122444500Y-132030654D01*
X122703494Y-132010271D01*
X122956110Y-131949623D01*
X123196128Y-131850204D01*
X123417640Y-131714462D01*
X123615189Y-131545739D01*
X123783912Y-131348190D01*
X123919654Y-131126678D01*
X124019073Y-130886660D01*
X124079721Y-130634044D01*
X124100104Y-130375050D01*
X124079721Y-130116056D01*
X124019073Y-129863440D01*
X123919654Y-129623422D01*
X123783912Y-129401910D01*
X123615189Y-129204361D01*
X123417640Y-129035638D01*
X123196128Y-128899896D01*
X123196127Y-128899895D01*
X123196123Y-128899893D01*
X123030127Y-128831136D01*
X122956110Y-128800477D01*
X122956111Y-128800477D01*
X122818421Y-128767420D01*
X122703494Y-128739829D01*
X122703492Y-128739828D01*
X122703491Y-128739828D01*
X122444500Y-128719446D01*
X122185509Y-128739828D01*
X121932889Y-128800477D01*
X121692876Y-128899893D01*
X121471359Y-129035638D01*
X121273811Y-129204361D01*
X121105088Y-129401909D01*
X120969343Y-129623426D01*
X120869927Y-129863439D01*
X120809278Y-130116059D01*
X120788896Y-130375050D01*
X114466500Y-130375050D01*
X114466500Y-126308708D01*
X130422500Y-126308708D01*
X130422500Y-140441391D01*
X130456608Y-140568687D01*
X130489554Y-140625750D01*
X130522500Y-140682814D01*
X130615686Y-140776000D01*
X130729814Y-140841892D01*
X130857108Y-140876000D01*
X130857110Y-140876000D01*
X144987890Y-140876000D01*
X144987892Y-140876000D01*
X145115186Y-140841892D01*
X145229314Y-140776000D01*
X145322500Y-140682814D01*
X145388392Y-140568686D01*
X145422500Y-140441392D01*
X145422500Y-126308708D01*
X156614500Y-126308708D01*
X156614500Y-140441391D01*
X156648608Y-140568687D01*
X156681554Y-140625750D01*
X156714500Y-140682814D01*
X156807686Y-140776000D01*
X156921814Y-140841892D01*
X157049108Y-140876000D01*
X157049110Y-140876000D01*
X171181890Y-140876000D01*
X171181892Y-140876000D01*
X171309186Y-140841892D01*
X171423314Y-140776000D01*
X171516500Y-140682814D01*
X171582392Y-140568686D01*
X171616500Y-140441392D01*
X171616500Y-126308708D01*
X180428500Y-126308708D01*
X180428500Y-140441391D01*
X180462608Y-140568687D01*
X180495554Y-140625750D01*
X180528500Y-140682814D01*
X180621686Y-140776000D01*
X180735814Y-140841892D01*
X180863108Y-140876000D01*
X180863110Y-140876000D01*
X194993890Y-140876000D01*
X194993892Y-140876000D01*
X195121186Y-140841892D01*
X195235314Y-140776000D01*
X195328500Y-140682814D01*
X195394392Y-140568686D01*
X195428500Y-140441392D01*
X195428500Y-133375050D01*
X198178396Y-133375050D01*
X198198778Y-133634040D01*
X198259427Y-133886660D01*
X198358843Y-134126673D01*
X198358845Y-134126677D01*
X198358846Y-134126678D01*
X198494588Y-134348190D01*
X198663311Y-134545739D01*
X198860860Y-134714462D01*
X199082372Y-134850204D01*
X199082374Y-134850204D01*
X199082376Y-134850206D01*
X199143693Y-134875604D01*
X199322390Y-134949623D01*
X199575006Y-135010271D01*
X199834000Y-135030654D01*
X200092994Y-135010271D01*
X200345610Y-134949623D01*
X200585628Y-134850204D01*
X200807140Y-134714462D01*
X201004689Y-134545739D01*
X201173412Y-134348190D01*
X201309154Y-134126678D01*
X201408573Y-133886660D01*
X201469221Y-133634044D01*
X201489604Y-133375050D01*
X201469221Y-133116056D01*
X201408573Y-132863440D01*
X201309154Y-132623422D01*
X201173412Y-132401910D01*
X201004689Y-132204361D01*
X200807140Y-132035638D01*
X200585628Y-131899896D01*
X200585627Y-131899895D01*
X200585623Y-131899893D01*
X200419627Y-131831136D01*
X200345610Y-131800477D01*
X200345611Y-131800477D01*
X200207921Y-131767420D01*
X200092994Y-131739829D01*
X200092992Y-131739828D01*
X200092991Y-131739828D01*
X199834000Y-131719446D01*
X199575009Y-131739828D01*
X199322389Y-131800477D01*
X199082376Y-131899893D01*
X198860859Y-132035638D01*
X198663311Y-132204361D01*
X198494588Y-132401909D01*
X198358843Y-132623426D01*
X198259427Y-132863439D01*
X198198778Y-133116059D01*
X198178396Y-133375050D01*
X195428500Y-133375050D01*
X195428500Y-126308708D01*
X204239500Y-126308708D01*
X204239500Y-140441391D01*
X204273608Y-140568687D01*
X204306554Y-140625750D01*
X204339500Y-140682814D01*
X204432686Y-140776000D01*
X204546814Y-140841892D01*
X204674108Y-140876000D01*
X204674110Y-140876000D01*
X218806890Y-140876000D01*
X218806892Y-140876000D01*
X218934186Y-140841892D01*
X219048314Y-140776000D01*
X219141500Y-140682814D01*
X219207392Y-140568686D01*
X219241500Y-140441392D01*
X219241500Y-133375050D01*
X221991896Y-133375050D01*
X222012278Y-133634040D01*
X222072927Y-133886660D01*
X222172343Y-134126673D01*
X222172345Y-134126677D01*
X222172346Y-134126678D01*
X222308088Y-134348190D01*
X222476811Y-134545739D01*
X222674360Y-134714462D01*
X222895872Y-134850204D01*
X222895874Y-134850204D01*
X222895876Y-134850206D01*
X222957193Y-134875604D01*
X223135890Y-134949623D01*
X223388506Y-135010271D01*
X223647500Y-135030654D01*
X223906494Y-135010271D01*
X224159110Y-134949623D01*
X224399128Y-134850204D01*
X224620640Y-134714462D01*
X224818189Y-134545739D01*
X224986912Y-134348190D01*
X225122654Y-134126678D01*
X225222073Y-133886660D01*
X225282721Y-133634044D01*
X225303104Y-133375050D01*
X225282721Y-133116056D01*
X225222073Y-132863440D01*
X225122654Y-132623422D01*
X224986912Y-132401910D01*
X224818189Y-132204361D01*
X224620640Y-132035638D01*
X224399128Y-131899896D01*
X224399127Y-131899895D01*
X224399123Y-131899893D01*
X224233127Y-131831136D01*
X224159110Y-131800477D01*
X224159111Y-131800477D01*
X224021421Y-131767420D01*
X223906494Y-131739829D01*
X223906492Y-131739828D01*
X223906491Y-131739828D01*
X223647500Y-131719446D01*
X223388509Y-131739828D01*
X223135889Y-131800477D01*
X222895876Y-131899893D01*
X222674359Y-132035638D01*
X222476811Y-132204361D01*
X222308088Y-132401909D01*
X222172343Y-132623426D01*
X222072927Y-132863439D01*
X222012278Y-133116059D01*
X221991896Y-133375050D01*
X219241500Y-133375050D01*
X219241500Y-126308708D01*
X228053500Y-126308708D01*
X228053500Y-140441391D01*
X228087608Y-140568687D01*
X228120554Y-140625750D01*
X228153500Y-140682814D01*
X228246686Y-140776000D01*
X228360814Y-140841892D01*
X228488108Y-140876000D01*
X228488110Y-140876000D01*
X242619890Y-140876000D01*
X242619892Y-140876000D01*
X242747186Y-140841892D01*
X242861314Y-140776000D01*
X242954500Y-140682814D01*
X243020392Y-140568686D01*
X243054500Y-140441392D01*
X243054500Y-126308708D01*
X243020392Y-126181414D01*
X242954500Y-126067286D01*
X242861314Y-125974100D01*
X242804250Y-125941154D01*
X242747187Y-125908208D01*
X242683539Y-125891154D01*
X242619892Y-125874100D01*
X228619892Y-125874100D01*
X228488108Y-125874100D01*
X228360812Y-125908208D01*
X228246686Y-125974100D01*
X228246683Y-125974102D01*
X228153502Y-126067283D01*
X228153500Y-126067286D01*
X228087608Y-126181412D01*
X228053500Y-126308708D01*
X219241500Y-126308708D01*
X219207392Y-126181414D01*
X219141500Y-126067286D01*
X219048314Y-125974100D01*
X218991250Y-125941154D01*
X218934187Y-125908208D01*
X218870539Y-125891154D01*
X218806892Y-125874100D01*
X204805892Y-125874100D01*
X204674108Y-125874100D01*
X204546812Y-125908208D01*
X204432686Y-125974100D01*
X204432683Y-125974102D01*
X204339502Y-126067283D01*
X204339500Y-126067286D01*
X204273608Y-126181412D01*
X204239500Y-126308708D01*
X195428500Y-126308708D01*
X195394392Y-126181414D01*
X195328500Y-126067286D01*
X195235314Y-125974100D01*
X195178250Y-125941154D01*
X195121187Y-125908208D01*
X195057539Y-125891154D01*
X194993892Y-125874100D01*
X180994892Y-125874100D01*
X180863108Y-125874100D01*
X180735812Y-125908208D01*
X180621686Y-125974100D01*
X180621683Y-125974102D01*
X180528502Y-126067283D01*
X180528500Y-126067286D01*
X180462608Y-126181412D01*
X180428500Y-126308708D01*
X171616500Y-126308708D01*
X171582392Y-126181414D01*
X171516500Y-126067286D01*
X171423314Y-125974100D01*
X171366250Y-125941154D01*
X171309187Y-125908208D01*
X171245539Y-125891154D01*
X171181892Y-125874100D01*
X157180892Y-125874100D01*
X157049108Y-125874100D01*
X156921812Y-125908208D01*
X156807686Y-125974100D01*
X156807683Y-125974102D01*
X156714502Y-126067283D01*
X156714500Y-126067286D01*
X156648608Y-126181412D01*
X156614500Y-126308708D01*
X145422500Y-126308708D01*
X145388392Y-126181414D01*
X145322500Y-126067286D01*
X145229314Y-125974100D01*
X145172250Y-125941154D01*
X145115187Y-125908208D01*
X145051539Y-125891154D01*
X144987892Y-125874100D01*
X130988892Y-125874100D01*
X130857108Y-125874100D01*
X130729812Y-125908208D01*
X130615686Y-125974100D01*
X130615683Y-125974102D01*
X130522502Y-126067283D01*
X130522500Y-126067286D01*
X130456608Y-126181412D01*
X130422500Y-126308708D01*
X114466500Y-126308708D01*
X114432392Y-126181414D01*
X114366500Y-126067286D01*
X114273314Y-125974100D01*
X114216250Y-125941154D01*
X114159187Y-125908208D01*
X114095539Y-125891154D01*
X114031892Y-125874100D01*
X100030892Y-125874100D01*
X99899108Y-125874100D01*
X99771812Y-125908208D01*
X99657686Y-125974100D01*
X99657683Y-125974102D01*
X99564502Y-126067283D01*
X99564500Y-126067286D01*
X99498608Y-126181412D01*
X99464500Y-126308708D01*
X88785500Y-126308708D01*
X88785500Y-123473100D01*
X88805185Y-123406061D01*
X88857989Y-123360306D01*
X88909500Y-123349100D01*
X98413890Y-123349100D01*
X98413892Y-123349100D01*
X98541186Y-123314992D01*
X98655314Y-123249100D01*
X98748500Y-123155914D01*
X98814392Y-123041786D01*
X98848500Y-122914492D01*
X98848500Y-107260108D01*
X101847500Y-107260108D01*
X101847500Y-121259408D01*
X101847500Y-121391192D01*
X101850561Y-121402616D01*
X101881608Y-121518487D01*
X101906552Y-121561691D01*
X101947500Y-121632614D01*
X102040686Y-121725800D01*
X102154814Y-121791692D01*
X102282108Y-121825800D01*
X102282110Y-121825800D01*
X116412890Y-121825800D01*
X116412892Y-121825800D01*
X116540186Y-121791692D01*
X116654314Y-121725800D01*
X116747500Y-121632614D01*
X116813392Y-121518486D01*
X116847500Y-121391192D01*
X116847500Y-107260108D01*
X120897500Y-107260108D01*
X120897500Y-121259408D01*
X120897500Y-121391192D01*
X120900561Y-121402616D01*
X120931608Y-121518487D01*
X120956552Y-121561691D01*
X120997500Y-121632614D01*
X121090686Y-121725800D01*
X121204814Y-121791692D01*
X121332108Y-121825800D01*
X121332110Y-121825800D01*
X135462890Y-121825800D01*
X135462892Y-121825800D01*
X135590186Y-121791692D01*
X135704314Y-121725800D01*
X135797500Y-121632614D01*
X135863392Y-121518486D01*
X135897500Y-121391192D01*
X135897500Y-107260108D01*
X139947500Y-107260108D01*
X139947500Y-121259408D01*
X139947500Y-121391192D01*
X139950561Y-121402616D01*
X139981608Y-121518487D01*
X140006552Y-121561691D01*
X140047500Y-121632614D01*
X140140686Y-121725800D01*
X140254814Y-121791692D01*
X140382108Y-121825800D01*
X140382110Y-121825800D01*
X154512890Y-121825800D01*
X154512892Y-121825800D01*
X154640186Y-121791692D01*
X154754314Y-121725800D01*
X154847500Y-121632614D01*
X154913392Y-121518486D01*
X154947500Y-121391192D01*
X154947500Y-107260108D01*
X158997500Y-107260108D01*
X158997500Y-121259408D01*
X158997500Y-121391192D01*
X159000561Y-121402616D01*
X159031608Y-121518487D01*
X159056552Y-121561691D01*
X159097500Y-121632614D01*
X159190686Y-121725800D01*
X159304814Y-121791692D01*
X159432108Y-121825800D01*
X159432110Y-121825800D01*
X173562890Y-121825800D01*
X173562892Y-121825800D01*
X173690186Y-121791692D01*
X173804314Y-121725800D01*
X173897500Y-121632614D01*
X173963392Y-121518486D01*
X173997500Y-121391192D01*
X173997500Y-107260108D01*
X178047500Y-107260108D01*
X178047500Y-121259408D01*
X178047500Y-121391192D01*
X178050561Y-121402616D01*
X178081608Y-121518487D01*
X178106552Y-121561691D01*
X178147500Y-121632614D01*
X178240686Y-121725800D01*
X178354814Y-121791692D01*
X178482108Y-121825800D01*
X178482110Y-121825800D01*
X192612890Y-121825800D01*
X192612892Y-121825800D01*
X192740186Y-121791692D01*
X192854314Y-121725800D01*
X192947500Y-121632614D01*
X193013392Y-121518486D01*
X193047500Y-121391192D01*
X193047500Y-111960608D01*
X204665500Y-111960608D01*
X204665500Y-114891291D01*
X204699608Y-115018587D01*
X204732554Y-115075650D01*
X204765500Y-115132714D01*
X204858686Y-115225900D01*
X204972814Y-115291792D01*
X205100108Y-115325900D01*
X205365500Y-115325900D01*
X205432539Y-115345585D01*
X205478294Y-115398389D01*
X205489500Y-115449900D01*
X205489500Y-121161191D01*
X205523608Y-121288487D01*
X205556554Y-121345550D01*
X205589500Y-121402614D01*
X205682686Y-121495800D01*
X205796814Y-121561692D01*
X205924108Y-121595800D01*
X207090500Y-121595800D01*
X207157539Y-121615485D01*
X207203294Y-121668289D01*
X207214500Y-121719800D01*
X207214500Y-122361391D01*
X207248608Y-122488687D01*
X207278977Y-122541286D01*
X207314500Y-122602814D01*
X207407686Y-122696000D01*
X207521814Y-122761892D01*
X207649108Y-122796000D01*
X207649110Y-122796000D01*
X211081890Y-122796000D01*
X211081892Y-122796000D01*
X211209186Y-122761892D01*
X211323314Y-122696000D01*
X211416500Y-122602814D01*
X211482392Y-122488686D01*
X211516500Y-122361392D01*
X211516500Y-121719800D01*
X211536185Y-121652761D01*
X211588989Y-121607006D01*
X211640500Y-121595800D01*
X212806890Y-121595800D01*
X212806892Y-121595800D01*
X212934186Y-121561692D01*
X213048314Y-121495800D01*
X213141500Y-121402614D01*
X213207392Y-121288486D01*
X213241500Y-121161192D01*
X213241500Y-117249400D01*
X213261185Y-117182361D01*
X213313989Y-117136606D01*
X213365500Y-117125400D01*
X213640500Y-117125400D01*
X213707539Y-117145085D01*
X213753294Y-117197889D01*
X213764500Y-117249400D01*
X213764500Y-121259408D01*
X213764500Y-121391192D01*
X213767561Y-121402616D01*
X213798608Y-121518487D01*
X213823552Y-121561691D01*
X213864500Y-121632614D01*
X213957686Y-121725800D01*
X214071814Y-121791692D01*
X214199108Y-121825800D01*
X214199110Y-121825800D01*
X228331890Y-121825800D01*
X228331892Y-121825800D01*
X228459186Y-121791692D01*
X228573314Y-121725800D01*
X228666500Y-121632614D01*
X228732392Y-121518486D01*
X228766500Y-121391192D01*
X228766500Y-117249400D01*
X228786185Y-117182361D01*
X228838989Y-117136606D01*
X228890500Y-117125400D01*
X229165500Y-117125400D01*
X229232539Y-117145085D01*
X229278294Y-117197889D01*
X229289500Y-117249400D01*
X229289500Y-121161191D01*
X229323608Y-121288487D01*
X229356554Y-121345550D01*
X229389500Y-121402614D01*
X229482686Y-121495800D01*
X229596814Y-121561692D01*
X229724108Y-121595800D01*
X230890500Y-121595800D01*
X230957539Y-121615485D01*
X231003294Y-121668289D01*
X231014500Y-121719800D01*
X231014500Y-122361391D01*
X231048608Y-122488687D01*
X231078977Y-122541286D01*
X231114500Y-122602814D01*
X231207686Y-122696000D01*
X231321814Y-122761892D01*
X231449108Y-122796000D01*
X231449110Y-122796000D01*
X234882890Y-122796000D01*
X234882892Y-122796000D01*
X235010186Y-122761892D01*
X235124314Y-122696000D01*
X235217500Y-122602814D01*
X235283392Y-122488686D01*
X235317500Y-122361392D01*
X235317500Y-121719800D01*
X235337185Y-121652761D01*
X235389989Y-121607006D01*
X235441500Y-121595800D01*
X236607890Y-121595800D01*
X236607892Y-121595800D01*
X236735186Y-121561692D01*
X236849314Y-121495800D01*
X236942500Y-121402614D01*
X237008392Y-121288486D01*
X237042500Y-121161192D01*
X237042500Y-115449900D01*
X237062185Y-115382861D01*
X237114989Y-115337106D01*
X237166500Y-115325900D01*
X237429890Y-115325900D01*
X237429892Y-115325900D01*
X237557186Y-115291792D01*
X237671314Y-115225900D01*
X237764500Y-115132714D01*
X237830392Y-115018586D01*
X237864500Y-114891292D01*
X237864500Y-111960608D01*
X237830392Y-111833314D01*
X237764500Y-111719186D01*
X237671314Y-111626000D01*
X237614250Y-111593054D01*
X237557187Y-111560108D01*
X237493539Y-111543054D01*
X237429892Y-111526000D01*
X237429891Y-111526000D01*
X237166500Y-111526000D01*
X237099461Y-111506315D01*
X237053706Y-111453511D01*
X237042500Y-111402000D01*
X237042500Y-108730510D01*
X237042500Y-108730508D01*
X237008392Y-108603214D01*
X236942500Y-108489086D01*
X236849314Y-108395900D01*
X236792250Y-108362954D01*
X236735187Y-108330008D01*
X236671539Y-108312954D01*
X236607892Y-108295900D01*
X229855892Y-108295900D01*
X229724108Y-108295900D01*
X229596812Y-108330008D01*
X229482686Y-108395900D01*
X229482683Y-108395902D01*
X229389502Y-108489083D01*
X229389500Y-108489086D01*
X229323608Y-108603212D01*
X229289500Y-108730508D01*
X229289500Y-111402000D01*
X229269815Y-111469039D01*
X229217011Y-111514794D01*
X229165500Y-111526000D01*
X228890500Y-111526000D01*
X228823461Y-111506315D01*
X228777706Y-111453511D01*
X228766500Y-111402000D01*
X228766500Y-107260110D01*
X228766500Y-107260108D01*
X228732392Y-107132814D01*
X228666500Y-107018686D01*
X228573314Y-106925500D01*
X228516250Y-106892554D01*
X228459187Y-106859608D01*
X228395539Y-106842554D01*
X228331892Y-106825500D01*
X214330892Y-106825500D01*
X214199108Y-106825500D01*
X214071812Y-106859608D01*
X213957686Y-106925500D01*
X213957683Y-106925502D01*
X213864502Y-107018683D01*
X213864500Y-107018686D01*
X213798608Y-107132812D01*
X213764500Y-107260108D01*
X213764500Y-111402000D01*
X213744815Y-111469039D01*
X213692011Y-111514794D01*
X213640500Y-111526000D01*
X213365500Y-111526000D01*
X213298461Y-111506315D01*
X213252706Y-111453511D01*
X213241500Y-111402000D01*
X213241500Y-108730510D01*
X213241500Y-108730508D01*
X213207392Y-108603214D01*
X213141500Y-108489086D01*
X213048314Y-108395900D01*
X212991250Y-108362954D01*
X212934187Y-108330008D01*
X212870539Y-108312954D01*
X212806892Y-108295900D01*
X206055892Y-108295900D01*
X205924108Y-108295900D01*
X205796812Y-108330008D01*
X205682686Y-108395900D01*
X205682683Y-108395902D01*
X205589502Y-108489083D01*
X205589500Y-108489086D01*
X205523608Y-108603212D01*
X205489500Y-108730508D01*
X205489500Y-111402000D01*
X205469815Y-111469039D01*
X205417011Y-111514794D01*
X205365500Y-111526000D01*
X205100108Y-111526000D01*
X204972812Y-111560108D01*
X204858686Y-111626000D01*
X204858683Y-111626002D01*
X204765502Y-111719183D01*
X204765500Y-111719186D01*
X204699608Y-111833312D01*
X204665500Y-111960608D01*
X193047500Y-111960608D01*
X193047500Y-107260108D01*
X193013392Y-107132814D01*
X192947500Y-107018686D01*
X192854314Y-106925500D01*
X192797250Y-106892554D01*
X192740187Y-106859608D01*
X192676539Y-106842554D01*
X192612892Y-106825500D01*
X178613892Y-106825500D01*
X178482108Y-106825500D01*
X178354812Y-106859608D01*
X178240686Y-106925500D01*
X178240683Y-106925502D01*
X178147502Y-107018683D01*
X178147500Y-107018686D01*
X178081608Y-107132812D01*
X178047500Y-107260108D01*
X173997500Y-107260108D01*
X173963392Y-107132814D01*
X173897500Y-107018686D01*
X173804314Y-106925500D01*
X173747250Y-106892554D01*
X173690187Y-106859608D01*
X173626539Y-106842554D01*
X173562892Y-106825500D01*
X159563892Y-106825500D01*
X159432108Y-106825500D01*
X159304812Y-106859608D01*
X159190686Y-106925500D01*
X159190683Y-106925502D01*
X159097502Y-107018683D01*
X159097500Y-107018686D01*
X159031608Y-107132812D01*
X158997500Y-107260108D01*
X154947500Y-107260108D01*
X154913392Y-107132814D01*
X154847500Y-107018686D01*
X154754314Y-106925500D01*
X154697250Y-106892554D01*
X154640187Y-106859608D01*
X154576539Y-106842554D01*
X154512892Y-106825500D01*
X140513892Y-106825500D01*
X140382108Y-106825500D01*
X140254812Y-106859608D01*
X140140686Y-106925500D01*
X140140683Y-106925502D01*
X140047502Y-107018683D01*
X140047500Y-107018686D01*
X139981608Y-107132812D01*
X139947500Y-107260108D01*
X135897500Y-107260108D01*
X135863392Y-107132814D01*
X135797500Y-107018686D01*
X135704314Y-106925500D01*
X135647250Y-106892554D01*
X135590187Y-106859608D01*
X135526539Y-106842554D01*
X135462892Y-106825500D01*
X121463892Y-106825500D01*
X121332108Y-106825500D01*
X121204812Y-106859608D01*
X121090686Y-106925500D01*
X121090683Y-106925502D01*
X120997502Y-107018683D01*
X120997500Y-107018686D01*
X120931608Y-107132812D01*
X120897500Y-107260108D01*
X116847500Y-107260108D01*
X116813392Y-107132814D01*
X116747500Y-107018686D01*
X116654314Y-106925500D01*
X116597250Y-106892554D01*
X116540187Y-106859608D01*
X116476539Y-106842554D01*
X116412892Y-106825500D01*
X102413892Y-106825500D01*
X102282108Y-106825500D01*
X102154812Y-106859608D01*
X102040686Y-106925500D01*
X102040683Y-106925502D01*
X101947502Y-107018683D01*
X101947500Y-107018686D01*
X101881608Y-107132812D01*
X101847500Y-107260108D01*
X98848500Y-107260108D01*
X98848500Y-105735408D01*
X98814392Y-105608114D01*
X98748500Y-105493986D01*
X98655314Y-105400800D01*
X98598250Y-105367854D01*
X98541187Y-105334908D01*
X98477539Y-105317854D01*
X98413892Y-105300800D01*
X98413891Y-105300800D01*
X89447500Y-105300800D01*
X89380461Y-105281115D01*
X89334706Y-105228311D01*
X89323500Y-105176800D01*
X89323500Y-88210108D01*
X92322500Y-88210108D01*
X92322500Y-102209408D01*
X92322500Y-102341192D01*
X92325561Y-102352616D01*
X92356608Y-102468487D01*
X92381552Y-102511691D01*
X92422500Y-102582614D01*
X92515686Y-102675800D01*
X92629814Y-102741692D01*
X92757108Y-102775800D01*
X92757110Y-102775800D01*
X106887890Y-102775800D01*
X106887892Y-102775800D01*
X107015186Y-102741692D01*
X107129314Y-102675800D01*
X107222500Y-102582614D01*
X107288392Y-102468486D01*
X107322500Y-102341192D01*
X107322500Y-88210108D01*
X111372500Y-88210108D01*
X111372500Y-102209408D01*
X111372500Y-102341192D01*
X111375561Y-102352616D01*
X111406608Y-102468487D01*
X111431552Y-102511691D01*
X111472500Y-102582614D01*
X111565686Y-102675800D01*
X111679814Y-102741692D01*
X111807108Y-102775800D01*
X111807110Y-102775800D01*
X125937890Y-102775800D01*
X125937892Y-102775800D01*
X126065186Y-102741692D01*
X126179314Y-102675800D01*
X126272500Y-102582614D01*
X126338392Y-102468486D01*
X126372500Y-102341192D01*
X126372500Y-95275650D01*
X126741896Y-95275650D01*
X126762278Y-95534640D01*
X126822927Y-95787260D01*
X126922343Y-96027273D01*
X126922345Y-96027277D01*
X126922346Y-96027278D01*
X127058088Y-96248790D01*
X127226811Y-96446339D01*
X127424360Y-96615062D01*
X127645872Y-96750804D01*
X127645874Y-96750804D01*
X127645876Y-96750806D01*
X127707193Y-96776204D01*
X127885890Y-96850223D01*
X128138506Y-96910871D01*
X128397500Y-96931254D01*
X128656494Y-96910871D01*
X128909110Y-96850223D01*
X129149128Y-96750804D01*
X129370640Y-96615062D01*
X129568189Y-96446339D01*
X129736912Y-96248790D01*
X129872654Y-96027278D01*
X129972073Y-95787260D01*
X130032721Y-95534644D01*
X130053104Y-95275650D01*
X130032721Y-95016656D01*
X129972073Y-94764040D01*
X129872654Y-94524022D01*
X129736912Y-94302510D01*
X129568189Y-94104961D01*
X129370640Y-93936238D01*
X129149128Y-93800496D01*
X129149127Y-93800495D01*
X129149123Y-93800493D01*
X128983127Y-93731736D01*
X128909110Y-93701077D01*
X128909111Y-93701077D01*
X128771421Y-93668020D01*
X128656494Y-93640429D01*
X128656492Y-93640428D01*
X128656491Y-93640428D01*
X128397500Y-93620046D01*
X128138509Y-93640428D01*
X127885889Y-93701077D01*
X127645876Y-93800493D01*
X127424359Y-93936238D01*
X127226811Y-94104961D01*
X127058088Y-94302509D01*
X126922343Y-94524026D01*
X126822927Y-94764039D01*
X126762278Y-95016659D01*
X126741896Y-95275650D01*
X126372500Y-95275650D01*
X126372500Y-88210108D01*
X130422500Y-88210108D01*
X130422500Y-102209408D01*
X130422500Y-102341192D01*
X130425561Y-102352616D01*
X130456608Y-102468487D01*
X130481552Y-102511691D01*
X130522500Y-102582614D01*
X130615686Y-102675800D01*
X130729814Y-102741692D01*
X130857108Y-102775800D01*
X130857110Y-102775800D01*
X144987890Y-102775800D01*
X144987892Y-102775800D01*
X145115186Y-102741692D01*
X145229314Y-102675800D01*
X145322500Y-102582614D01*
X145388392Y-102468486D01*
X145422500Y-102341192D01*
X145422500Y-88210108D01*
X149472500Y-88210108D01*
X149472500Y-102209408D01*
X149472500Y-102341192D01*
X149475561Y-102352616D01*
X149506608Y-102468487D01*
X149531552Y-102511691D01*
X149572500Y-102582614D01*
X149665686Y-102675800D01*
X149779814Y-102741692D01*
X149907108Y-102775800D01*
X149907110Y-102775800D01*
X164037890Y-102775800D01*
X164037892Y-102775800D01*
X164165186Y-102741692D01*
X164279314Y-102675800D01*
X164372500Y-102582614D01*
X164438392Y-102468486D01*
X164472500Y-102341192D01*
X164472500Y-88210108D01*
X168522500Y-88210108D01*
X168522500Y-102209408D01*
X168522500Y-102341192D01*
X168525561Y-102352616D01*
X168556608Y-102468487D01*
X168581552Y-102511691D01*
X168622500Y-102582614D01*
X168715686Y-102675800D01*
X168829814Y-102741692D01*
X168957108Y-102775800D01*
X168957110Y-102775800D01*
X183087890Y-102775800D01*
X183087892Y-102775800D01*
X183215186Y-102741692D01*
X183329314Y-102675800D01*
X183422500Y-102582614D01*
X183488392Y-102468486D01*
X183522500Y-102341192D01*
X183522500Y-88210108D01*
X187572500Y-88210108D01*
X187572500Y-102209408D01*
X187572500Y-102341192D01*
X187575561Y-102352616D01*
X187606608Y-102468487D01*
X187631552Y-102511691D01*
X187672500Y-102582614D01*
X187765686Y-102675800D01*
X187879814Y-102741692D01*
X188007108Y-102775800D01*
X188007110Y-102775800D01*
X202137890Y-102775800D01*
X202137892Y-102775800D01*
X202265186Y-102741692D01*
X202379314Y-102675800D01*
X202472500Y-102582614D01*
X202538392Y-102468486D01*
X202572500Y-102341192D01*
X202572500Y-95275650D01*
X203916896Y-95275650D01*
X203937278Y-95534640D01*
X203997927Y-95787260D01*
X204097343Y-96027273D01*
X204097345Y-96027277D01*
X204097346Y-96027278D01*
X204233088Y-96248790D01*
X204401811Y-96446339D01*
X204599360Y-96615062D01*
X204820872Y-96750804D01*
X204820874Y-96750804D01*
X204820876Y-96750806D01*
X204882193Y-96776204D01*
X205060890Y-96850223D01*
X205313506Y-96910871D01*
X205572500Y-96931254D01*
X205831494Y-96910871D01*
X206084110Y-96850223D01*
X206324128Y-96750804D01*
X206545640Y-96615062D01*
X206743189Y-96446339D01*
X206911912Y-96248790D01*
X207047654Y-96027278D01*
X207147073Y-95787260D01*
X207207721Y-95534644D01*
X207228104Y-95275650D01*
X207207721Y-95016656D01*
X207147073Y-94764040D01*
X207047654Y-94524022D01*
X206911912Y-94302510D01*
X206743189Y-94104961D01*
X206545640Y-93936238D01*
X206324128Y-93800496D01*
X206324127Y-93800495D01*
X206324123Y-93800493D01*
X206158127Y-93731736D01*
X206084110Y-93701077D01*
X206084111Y-93701077D01*
X205946421Y-93668020D01*
X205831494Y-93640429D01*
X205831492Y-93640428D01*
X205831491Y-93640428D01*
X205572500Y-93620046D01*
X205313509Y-93640428D01*
X205060889Y-93701077D01*
X204820876Y-93800493D01*
X204599359Y-93936238D01*
X204401811Y-94104961D01*
X204233088Y-94302509D01*
X204097343Y-94524026D01*
X203997927Y-94764039D01*
X203937278Y-95016659D01*
X203916896Y-95275650D01*
X202572500Y-95275650D01*
X202572500Y-92910608D01*
X209427500Y-92910608D01*
X209427500Y-95841291D01*
X209461608Y-95968587D01*
X209494554Y-96025650D01*
X209527500Y-96082714D01*
X209620686Y-96175900D01*
X209734814Y-96241792D01*
X209862108Y-96275900D01*
X210129500Y-96275900D01*
X210196539Y-96295585D01*
X210242294Y-96348389D01*
X210253500Y-96399900D01*
X210253500Y-102111191D01*
X210287608Y-102238487D01*
X210320554Y-102295550D01*
X210353500Y-102352614D01*
X210446686Y-102445800D01*
X210560814Y-102511692D01*
X210688108Y-102545800D01*
X211854500Y-102545800D01*
X211921539Y-102565485D01*
X211967294Y-102618289D01*
X211978500Y-102669800D01*
X211978500Y-103311391D01*
X212012608Y-103438687D01*
X212045554Y-103495750D01*
X212078500Y-103552814D01*
X212171686Y-103646000D01*
X212285814Y-103711892D01*
X212413108Y-103746000D01*
X212413110Y-103746000D01*
X215843890Y-103746000D01*
X215843892Y-103746000D01*
X215971186Y-103711892D01*
X216085314Y-103646000D01*
X216178500Y-103552814D01*
X216244392Y-103438686D01*
X216278500Y-103311392D01*
X216278500Y-102669800D01*
X216298185Y-102602761D01*
X216350989Y-102557006D01*
X216402500Y-102545800D01*
X217569890Y-102545800D01*
X217569892Y-102545800D01*
X217697186Y-102511692D01*
X217811314Y-102445800D01*
X217904500Y-102352614D01*
X217970392Y-102238486D01*
X218004500Y-102111192D01*
X218004500Y-98200800D01*
X218024185Y-98133761D01*
X218076989Y-98088006D01*
X218128500Y-98076800D01*
X218404500Y-98076800D01*
X218471539Y-98096485D01*
X218517294Y-98149289D01*
X218528500Y-98200800D01*
X218528500Y-102209408D01*
X218528500Y-102341192D01*
X218531561Y-102352616D01*
X218562608Y-102468487D01*
X218587552Y-102511691D01*
X218628500Y-102582614D01*
X218721686Y-102675800D01*
X218835814Y-102741692D01*
X218963108Y-102775800D01*
X218963110Y-102775800D01*
X233093890Y-102775800D01*
X233093892Y-102775800D01*
X233221186Y-102741692D01*
X233335314Y-102675800D01*
X233428500Y-102582614D01*
X233494392Y-102468486D01*
X233528500Y-102341192D01*
X233528500Y-98200800D01*
X233548185Y-98133761D01*
X233600989Y-98088006D01*
X233652500Y-98076800D01*
X233928500Y-98076800D01*
X233995539Y-98096485D01*
X234041294Y-98149289D01*
X234052500Y-98200800D01*
X234052500Y-102111191D01*
X234086608Y-102238487D01*
X234119554Y-102295550D01*
X234152500Y-102352614D01*
X234245686Y-102445800D01*
X234359814Y-102511692D01*
X234487108Y-102545800D01*
X235653500Y-102545800D01*
X235720539Y-102565485D01*
X235766294Y-102618289D01*
X235777500Y-102669800D01*
X235777500Y-103311391D01*
X235811608Y-103438687D01*
X235844554Y-103495750D01*
X235877500Y-103552814D01*
X235970686Y-103646000D01*
X236084814Y-103711892D01*
X236212108Y-103746000D01*
X236212110Y-103746000D01*
X239645890Y-103746000D01*
X239645892Y-103746000D01*
X239773186Y-103711892D01*
X239887314Y-103646000D01*
X239980500Y-103552814D01*
X240046392Y-103438686D01*
X240080500Y-103311392D01*
X240080500Y-102669800D01*
X240100185Y-102602761D01*
X240152989Y-102557006D01*
X240204500Y-102545800D01*
X241370890Y-102545800D01*
X241370892Y-102545800D01*
X241498186Y-102511692D01*
X241612314Y-102445800D01*
X241705500Y-102352614D01*
X241771392Y-102238486D01*
X241805500Y-102111192D01*
X241805500Y-96399900D01*
X241825185Y-96332861D01*
X241877989Y-96287106D01*
X241929500Y-96275900D01*
X242195890Y-96275900D01*
X242195892Y-96275900D01*
X242323186Y-96241792D01*
X242437314Y-96175900D01*
X242530500Y-96082714D01*
X242596392Y-95968586D01*
X242630500Y-95841292D01*
X242630500Y-92910608D01*
X242596392Y-92783314D01*
X242530500Y-92669186D01*
X242437314Y-92576000D01*
X242380250Y-92543054D01*
X242323187Y-92510108D01*
X242259539Y-92493054D01*
X242195892Y-92476000D01*
X242195891Y-92476000D01*
X241929500Y-92476000D01*
X241862461Y-92456315D01*
X241816706Y-92403511D01*
X241805500Y-92352000D01*
X241805500Y-89680510D01*
X241805500Y-89680508D01*
X241771392Y-89553214D01*
X241705500Y-89439086D01*
X241612314Y-89345900D01*
X241555250Y-89312954D01*
X241498187Y-89280008D01*
X241434539Y-89262954D01*
X241370892Y-89245900D01*
X234618892Y-89245900D01*
X234487108Y-89245900D01*
X234359812Y-89280008D01*
X234245686Y-89345900D01*
X234245683Y-89345902D01*
X234152502Y-89439083D01*
X234152500Y-89439086D01*
X234086608Y-89553212D01*
X234052500Y-89680508D01*
X234052500Y-92352000D01*
X234032815Y-92419039D01*
X233980011Y-92464794D01*
X233928500Y-92476000D01*
X233652500Y-92476000D01*
X233585461Y-92456315D01*
X233539706Y-92403511D01*
X233528500Y-92352000D01*
X233528500Y-88210110D01*
X233528500Y-88210108D01*
X233494392Y-88082814D01*
X233428500Y-87968686D01*
X233335314Y-87875500D01*
X233278250Y-87842554D01*
X233221187Y-87809608D01*
X233157539Y-87792554D01*
X233093892Y-87775500D01*
X219094892Y-87775500D01*
X218963108Y-87775500D01*
X218835812Y-87809608D01*
X218721686Y-87875500D01*
X218721683Y-87875502D01*
X218628502Y-87968683D01*
X218628500Y-87968686D01*
X218562608Y-88082812D01*
X218528500Y-88210108D01*
X218528500Y-92352000D01*
X218508815Y-92419039D01*
X218456011Y-92464794D01*
X218404500Y-92476000D01*
X218128500Y-92476000D01*
X218061461Y-92456315D01*
X218015706Y-92403511D01*
X218004500Y-92352000D01*
X218004500Y-89680510D01*
X218004500Y-89680508D01*
X217970392Y-89553214D01*
X217904500Y-89439086D01*
X217811314Y-89345900D01*
X217754250Y-89312954D01*
X217697187Y-89280008D01*
X217633539Y-89262954D01*
X217569892Y-89245900D01*
X210819892Y-89245900D01*
X210688108Y-89245900D01*
X210560812Y-89280008D01*
X210446686Y-89345900D01*
X210446683Y-89345902D01*
X210353502Y-89439083D01*
X210353500Y-89439086D01*
X210287608Y-89553212D01*
X210253500Y-89680508D01*
X210253500Y-92352000D01*
X210233815Y-92419039D01*
X210181011Y-92464794D01*
X210129500Y-92476000D01*
X209862108Y-92476000D01*
X209734812Y-92510108D01*
X209620686Y-92576000D01*
X209620683Y-92576002D01*
X209527502Y-92669183D01*
X209527500Y-92669186D01*
X209461608Y-92783312D01*
X209427500Y-92910608D01*
X202572500Y-92910608D01*
X202572500Y-88210108D01*
X202538392Y-88082814D01*
X202472500Y-87968686D01*
X202379314Y-87875500D01*
X202322250Y-87842554D01*
X202265187Y-87809608D01*
X202201539Y-87792554D01*
X202137892Y-87775500D01*
X188138892Y-87775500D01*
X188007108Y-87775500D01*
X187879812Y-87809608D01*
X187765686Y-87875500D01*
X187765683Y-87875502D01*
X187672502Y-87968683D01*
X187672500Y-87968686D01*
X187606608Y-88082812D01*
X187572500Y-88210108D01*
X183522500Y-88210108D01*
X183488392Y-88082814D01*
X183422500Y-87968686D01*
X183329314Y-87875500D01*
X183272250Y-87842554D01*
X183215187Y-87809608D01*
X183151539Y-87792554D01*
X183087892Y-87775500D01*
X169088892Y-87775500D01*
X168957108Y-87775500D01*
X168829812Y-87809608D01*
X168715686Y-87875500D01*
X168715683Y-87875502D01*
X168622502Y-87968683D01*
X168622500Y-87968686D01*
X168556608Y-88082812D01*
X168522500Y-88210108D01*
X164472500Y-88210108D01*
X164438392Y-88082814D01*
X164372500Y-87968686D01*
X164279314Y-87875500D01*
X164222250Y-87842554D01*
X164165187Y-87809608D01*
X164101539Y-87792554D01*
X164037892Y-87775500D01*
X150038892Y-87775500D01*
X149907108Y-87775500D01*
X149779812Y-87809608D01*
X149665686Y-87875500D01*
X149665683Y-87875502D01*
X149572502Y-87968683D01*
X149572500Y-87968686D01*
X149506608Y-88082812D01*
X149472500Y-88210108D01*
X145422500Y-88210108D01*
X145388392Y-88082814D01*
X145322500Y-87968686D01*
X145229314Y-87875500D01*
X145172250Y-87842554D01*
X145115187Y-87809608D01*
X145051539Y-87792554D01*
X144987892Y-87775500D01*
X130988892Y-87775500D01*
X130857108Y-87775500D01*
X130729812Y-87809608D01*
X130615686Y-87875500D01*
X130615683Y-87875502D01*
X130522502Y-87968683D01*
X130522500Y-87968686D01*
X130456608Y-88082812D01*
X130422500Y-88210108D01*
X126372500Y-88210108D01*
X126338392Y-88082814D01*
X126272500Y-87968686D01*
X126179314Y-87875500D01*
X126122250Y-87842554D01*
X126065187Y-87809608D01*
X126001539Y-87792554D01*
X125937892Y-87775500D01*
X111938892Y-87775500D01*
X111807108Y-87775500D01*
X111679812Y-87809608D01*
X111565686Y-87875500D01*
X111565683Y-87875502D01*
X111472502Y-87968683D01*
X111472500Y-87968686D01*
X111406608Y-88082812D01*
X111372500Y-88210108D01*
X107322500Y-88210108D01*
X107288392Y-88082814D01*
X107222500Y-87968686D01*
X107129314Y-87875500D01*
X107072250Y-87842554D01*
X107015187Y-87809608D01*
X106951539Y-87792554D01*
X106887892Y-87775500D01*
X92888892Y-87775500D01*
X92757108Y-87775500D01*
X92629812Y-87809608D01*
X92515686Y-87875500D01*
X92515683Y-87875502D01*
X92422502Y-87968683D01*
X92422500Y-87968686D01*
X92356608Y-88082812D01*
X92322500Y-88210108D01*
X89323500Y-88210108D01*
X89323500Y-86685410D01*
X89323500Y-86685408D01*
X89289392Y-86558114D01*
X89223500Y-86443986D01*
X89130314Y-86350800D01*
X89073250Y-86317854D01*
X89016187Y-86284908D01*
X88952539Y-86267854D01*
X88888892Y-86250800D01*
X88888891Y-86250800D01*
X84684500Y-86250800D01*
X84617461Y-86231115D01*
X84571706Y-86178311D01*
X84560500Y-86126800D01*
X84560500Y-69160108D01*
X87559500Y-69160108D01*
X87559500Y-83291191D01*
X87593608Y-83418487D01*
X87626554Y-83475550D01*
X87659500Y-83532614D01*
X87752686Y-83625800D01*
X87866814Y-83691692D01*
X87994108Y-83725800D01*
X87994110Y-83725800D01*
X102125890Y-83725800D01*
X102125892Y-83725800D01*
X102253186Y-83691692D01*
X102367314Y-83625800D01*
X102460500Y-83532614D01*
X102526392Y-83418486D01*
X102560500Y-83291192D01*
X102560500Y-69160108D01*
X106609500Y-69160108D01*
X106609500Y-83291191D01*
X106643608Y-83418487D01*
X106676554Y-83475550D01*
X106709500Y-83532614D01*
X106802686Y-83625800D01*
X106916814Y-83691692D01*
X107044108Y-83725800D01*
X107044110Y-83725800D01*
X121175890Y-83725800D01*
X121175892Y-83725800D01*
X121303186Y-83691692D01*
X121417314Y-83625800D01*
X121510500Y-83532614D01*
X121576392Y-83418486D01*
X121610500Y-83291192D01*
X121610500Y-69160108D01*
X125659500Y-69160108D01*
X125659500Y-83291191D01*
X125693608Y-83418487D01*
X125726554Y-83475550D01*
X125759500Y-83532614D01*
X125852686Y-83625800D01*
X125966814Y-83691692D01*
X126094108Y-83725800D01*
X126094110Y-83725800D01*
X140225890Y-83725800D01*
X140225892Y-83725800D01*
X140353186Y-83691692D01*
X140467314Y-83625800D01*
X140560500Y-83532614D01*
X140626392Y-83418486D01*
X140660500Y-83291192D01*
X140660500Y-69160108D01*
X144709500Y-69160108D01*
X144709500Y-83291191D01*
X144743608Y-83418487D01*
X144776554Y-83475550D01*
X144809500Y-83532614D01*
X144902686Y-83625800D01*
X145016814Y-83691692D01*
X145144108Y-83725800D01*
X145144110Y-83725800D01*
X159275890Y-83725800D01*
X159275892Y-83725800D01*
X159403186Y-83691692D01*
X159517314Y-83625800D01*
X159610500Y-83532614D01*
X159676392Y-83418486D01*
X159710500Y-83291192D01*
X159710500Y-69160108D01*
X163759500Y-69160108D01*
X163759500Y-83291191D01*
X163793608Y-83418487D01*
X163826554Y-83475550D01*
X163859500Y-83532614D01*
X163952686Y-83625800D01*
X164066814Y-83691692D01*
X164194108Y-83725800D01*
X164194110Y-83725800D01*
X178325890Y-83725800D01*
X178325892Y-83725800D01*
X178453186Y-83691692D01*
X178567314Y-83625800D01*
X178660500Y-83532614D01*
X178726392Y-83418486D01*
X178760500Y-83291192D01*
X178760500Y-69160108D01*
X182809500Y-69160108D01*
X182809500Y-83291191D01*
X182843608Y-83418487D01*
X182876554Y-83475550D01*
X182909500Y-83532614D01*
X183002686Y-83625800D01*
X183116814Y-83691692D01*
X183244108Y-83725800D01*
X183244110Y-83725800D01*
X197375890Y-83725800D01*
X197375892Y-83725800D01*
X197503186Y-83691692D01*
X197617314Y-83625800D01*
X197710500Y-83532614D01*
X197776392Y-83418486D01*
X197810500Y-83291192D01*
X197810500Y-69160108D01*
X201859500Y-69160108D01*
X201859500Y-83291191D01*
X201893608Y-83418487D01*
X201926554Y-83475550D01*
X201959500Y-83532614D01*
X202052686Y-83625800D01*
X202166814Y-83691692D01*
X202294108Y-83725800D01*
X202294110Y-83725800D01*
X216425890Y-83725800D01*
X216425892Y-83725800D01*
X216553186Y-83691692D01*
X216667314Y-83625800D01*
X216760500Y-83532614D01*
X216826392Y-83418486D01*
X216860500Y-83291192D01*
X216860500Y-76225650D01*
X219610896Y-76225650D01*
X219631278Y-76484640D01*
X219691927Y-76737260D01*
X219791343Y-76977273D01*
X219791345Y-76977277D01*
X219791346Y-76977278D01*
X219927088Y-77198790D01*
X220095811Y-77396339D01*
X220293360Y-77565062D01*
X220514872Y-77700804D01*
X220514874Y-77700804D01*
X220514876Y-77700806D01*
X220576193Y-77726204D01*
X220754890Y-77800223D01*
X221007506Y-77860871D01*
X221266500Y-77881254D01*
X221525494Y-77860871D01*
X221778110Y-77800223D01*
X222018128Y-77700804D01*
X222239640Y-77565062D01*
X222437189Y-77396339D01*
X222605912Y-77198790D01*
X222741654Y-76977278D01*
X222841073Y-76737260D01*
X222901721Y-76484644D01*
X222922104Y-76225650D01*
X222901721Y-75966656D01*
X222841073Y-75714040D01*
X222741654Y-75474022D01*
X222605912Y-75252510D01*
X222437189Y-75054961D01*
X222239640Y-74886238D01*
X222018128Y-74750496D01*
X222018127Y-74750495D01*
X222018123Y-74750493D01*
X221852127Y-74681736D01*
X221778110Y-74651077D01*
X221778111Y-74651077D01*
X221640421Y-74618020D01*
X221525494Y-74590429D01*
X221525492Y-74590428D01*
X221525491Y-74590428D01*
X221266500Y-74570046D01*
X221007509Y-74590428D01*
X220754889Y-74651077D01*
X220514876Y-74750493D01*
X220293359Y-74886238D01*
X220095811Y-75054961D01*
X219927088Y-75252509D01*
X219791343Y-75474026D01*
X219691927Y-75714039D01*
X219631278Y-75966659D01*
X219610896Y-76225650D01*
X216860500Y-76225650D01*
X216860500Y-69160108D01*
X225672500Y-69160108D01*
X225672500Y-83291191D01*
X225706608Y-83418487D01*
X225739554Y-83475550D01*
X225772500Y-83532614D01*
X225865686Y-83625800D01*
X225979814Y-83691692D01*
X226107108Y-83725800D01*
X226107110Y-83725800D01*
X240237890Y-83725800D01*
X240237892Y-83725800D01*
X240365186Y-83691692D01*
X240479314Y-83625800D01*
X240572500Y-83532614D01*
X240638392Y-83418486D01*
X240672500Y-83291192D01*
X240672500Y-69160108D01*
X240638392Y-69032814D01*
X240572500Y-68918686D01*
X240479314Y-68825500D01*
X240422250Y-68792554D01*
X240365187Y-68759608D01*
X240301539Y-68742554D01*
X240237892Y-68725500D01*
X226238892Y-68725500D01*
X226107108Y-68725500D01*
X225979812Y-68759608D01*
X225865686Y-68825500D01*
X225865683Y-68825502D01*
X225772502Y-68918683D01*
X225772500Y-68918686D01*
X225706608Y-69032812D01*
X225672500Y-69160108D01*
X216860500Y-69160108D01*
X216826392Y-69032814D01*
X216760500Y-68918686D01*
X216667314Y-68825500D01*
X216610250Y-68792554D01*
X216553187Y-68759608D01*
X216489539Y-68742554D01*
X216425892Y-68725500D01*
X202425892Y-68725500D01*
X202294108Y-68725500D01*
X202166812Y-68759608D01*
X202052686Y-68825500D01*
X202052683Y-68825502D01*
X201959502Y-68918683D01*
X201959500Y-68918686D01*
X201893608Y-69032812D01*
X201859500Y-69160108D01*
X197810500Y-69160108D01*
X197776392Y-69032814D01*
X197710500Y-68918686D01*
X197617314Y-68825500D01*
X197560250Y-68792554D01*
X197503187Y-68759608D01*
X197439539Y-68742554D01*
X197375892Y-68725500D01*
X183375892Y-68725500D01*
X183244108Y-68725500D01*
X183116812Y-68759608D01*
X183002686Y-68825500D01*
X183002683Y-68825502D01*
X182909502Y-68918683D01*
X182909500Y-68918686D01*
X182843608Y-69032812D01*
X182809500Y-69160108D01*
X178760500Y-69160108D01*
X178726392Y-69032814D01*
X178660500Y-68918686D01*
X178567314Y-68825500D01*
X178510250Y-68792554D01*
X178453187Y-68759608D01*
X178389539Y-68742554D01*
X178325892Y-68725500D01*
X164325892Y-68725500D01*
X164194108Y-68725500D01*
X164066812Y-68759608D01*
X163952686Y-68825500D01*
X163952683Y-68825502D01*
X163859502Y-68918683D01*
X163859500Y-68918686D01*
X163793608Y-69032812D01*
X163759500Y-69160108D01*
X159710500Y-69160108D01*
X159676392Y-69032814D01*
X159610500Y-68918686D01*
X159517314Y-68825500D01*
X159460250Y-68792554D01*
X159403187Y-68759608D01*
X159339539Y-68742554D01*
X159275892Y-68725500D01*
X145275892Y-68725500D01*
X145144108Y-68725500D01*
X145016812Y-68759608D01*
X144902686Y-68825500D01*
X144902683Y-68825502D01*
X144809502Y-68918683D01*
X144809500Y-68918686D01*
X144743608Y-69032812D01*
X144709500Y-69160108D01*
X140660500Y-69160108D01*
X140626392Y-69032814D01*
X140560500Y-68918686D01*
X140467314Y-68825500D01*
X140410250Y-68792554D01*
X140353187Y-68759608D01*
X140289539Y-68742554D01*
X140225892Y-68725500D01*
X126225892Y-68725500D01*
X126094108Y-68725500D01*
X125966812Y-68759608D01*
X125852686Y-68825500D01*
X125852683Y-68825502D01*
X125759502Y-68918683D01*
X125759500Y-68918686D01*
X125693608Y-69032812D01*
X125659500Y-69160108D01*
X121610500Y-69160108D01*
X121576392Y-69032814D01*
X121510500Y-68918686D01*
X121417314Y-68825500D01*
X121360250Y-68792554D01*
X121303187Y-68759608D01*
X121239539Y-68742554D01*
X121175892Y-68725500D01*
X107175892Y-68725500D01*
X107044108Y-68725500D01*
X106916812Y-68759608D01*
X106802686Y-68825500D01*
X106802683Y-68825502D01*
X106709502Y-68918683D01*
X106709500Y-68918686D01*
X106643608Y-69032812D01*
X106609500Y-69160108D01*
X102560500Y-69160108D01*
X102526392Y-69032814D01*
X102460500Y-68918686D01*
X102367314Y-68825500D01*
X102310250Y-68792554D01*
X102253187Y-68759608D01*
X102189539Y-68742554D01*
X102125892Y-68725500D01*
X88125892Y-68725500D01*
X87994108Y-68725500D01*
X87866812Y-68759608D01*
X87752686Y-68825500D01*
X87752683Y-68825502D01*
X87659502Y-68918683D01*
X87659500Y-68918686D01*
X87593608Y-69032812D01*
X87559500Y-69160108D01*
X84560500Y-69160108D01*
X84560500Y-66324500D01*
X84580185Y-66257461D01*
X84632989Y-66211706D01*
X84684500Y-66200500D01*
X93650890Y-66200500D01*
X93650892Y-66200500D01*
X93778186Y-66166392D01*
X93892314Y-66100500D01*
X93985500Y-66007314D01*
X94051392Y-65893186D01*
X94085500Y-65765892D01*
X94085500Y-50110208D01*
X97084500Y-50110208D01*
X97084500Y-64109408D01*
X97084500Y-64241192D01*
X97087561Y-64252616D01*
X97118608Y-64368487D01*
X97143552Y-64411691D01*
X97184500Y-64482614D01*
X97277686Y-64575800D01*
X97391814Y-64641692D01*
X97519108Y-64675800D01*
X97519110Y-64675800D01*
X111650890Y-64675800D01*
X111650892Y-64675800D01*
X111778186Y-64641692D01*
X111892314Y-64575800D01*
X111985500Y-64482614D01*
X112051392Y-64368486D01*
X112085500Y-64241192D01*
X112085500Y-50110208D01*
X116134500Y-50110208D01*
X116134500Y-64109408D01*
X116134500Y-64241192D01*
X116137561Y-64252616D01*
X116168608Y-64368487D01*
X116193552Y-64411691D01*
X116234500Y-64482614D01*
X116327686Y-64575800D01*
X116441814Y-64641692D01*
X116569108Y-64675800D01*
X116569110Y-64675800D01*
X130700890Y-64675800D01*
X130700892Y-64675800D01*
X130828186Y-64641692D01*
X130942314Y-64575800D01*
X131035500Y-64482614D01*
X131101392Y-64368486D01*
X131135500Y-64241192D01*
X131135500Y-57175700D01*
X131504396Y-57175700D01*
X131524778Y-57434690D01*
X131585427Y-57687310D01*
X131684843Y-57927323D01*
X131684845Y-57927327D01*
X131684846Y-57927328D01*
X131820588Y-58148840D01*
X131989311Y-58346389D01*
X132186860Y-58515112D01*
X132408372Y-58650854D01*
X132408374Y-58650854D01*
X132408376Y-58650856D01*
X132469693Y-58676254D01*
X132648390Y-58750273D01*
X132901006Y-58810921D01*
X133160000Y-58831304D01*
X133418994Y-58810921D01*
X133671610Y-58750273D01*
X133911628Y-58650854D01*
X134133140Y-58515112D01*
X134330689Y-58346389D01*
X134499412Y-58148840D01*
X134635154Y-57927328D01*
X134734573Y-57687310D01*
X134795221Y-57434694D01*
X134815604Y-57175700D01*
X134795221Y-56916706D01*
X134734573Y-56664090D01*
X134635154Y-56424072D01*
X134499412Y-56202560D01*
X134330689Y-56005011D01*
X134133140Y-55836288D01*
X133911628Y-55700546D01*
X133911627Y-55700545D01*
X133911623Y-55700543D01*
X133745627Y-55631786D01*
X133671610Y-55601127D01*
X133671611Y-55601127D01*
X133533921Y-55568070D01*
X133418994Y-55540479D01*
X133418992Y-55540478D01*
X133418991Y-55540478D01*
X133160000Y-55520096D01*
X132901009Y-55540478D01*
X132648389Y-55601127D01*
X132408376Y-55700543D01*
X132186859Y-55836288D01*
X131989311Y-56005011D01*
X131820588Y-56202559D01*
X131684843Y-56424076D01*
X131585427Y-56664089D01*
X131524778Y-56916709D01*
X131504396Y-57175700D01*
X131135500Y-57175700D01*
X131135500Y-50110208D01*
X135184500Y-50110208D01*
X135184500Y-64109408D01*
X135184500Y-64241192D01*
X135187561Y-64252616D01*
X135218608Y-64368487D01*
X135243552Y-64411691D01*
X135284500Y-64482614D01*
X135377686Y-64575800D01*
X135491814Y-64641692D01*
X135619108Y-64675800D01*
X135619110Y-64675800D01*
X149750890Y-64675800D01*
X149750892Y-64675800D01*
X149878186Y-64641692D01*
X149992314Y-64575800D01*
X150085500Y-64482614D01*
X150151392Y-64368486D01*
X150185500Y-64241192D01*
X150185500Y-50110208D01*
X154234500Y-50110208D01*
X154234500Y-64109408D01*
X154234500Y-64241192D01*
X154237561Y-64252616D01*
X154268608Y-64368487D01*
X154293552Y-64411691D01*
X154334500Y-64482614D01*
X154427686Y-64575800D01*
X154541814Y-64641692D01*
X154669108Y-64675800D01*
X154669110Y-64675800D01*
X168800890Y-64675800D01*
X168800892Y-64675800D01*
X168928186Y-64641692D01*
X169042314Y-64575800D01*
X169135500Y-64482614D01*
X169201392Y-64368486D01*
X169235500Y-64241192D01*
X169235500Y-50110208D01*
X173284500Y-50110208D01*
X173284500Y-64109408D01*
X173284500Y-64241192D01*
X173287561Y-64252616D01*
X173318608Y-64368487D01*
X173343552Y-64411691D01*
X173384500Y-64482614D01*
X173477686Y-64575800D01*
X173591814Y-64641692D01*
X173719108Y-64675800D01*
X173719110Y-64675800D01*
X187850890Y-64675800D01*
X187850892Y-64675800D01*
X187978186Y-64641692D01*
X188092314Y-64575800D01*
X188185500Y-64482614D01*
X188251392Y-64368486D01*
X188285500Y-64241192D01*
X188285500Y-57175700D01*
X188654396Y-57175700D01*
X188674778Y-57434690D01*
X188735427Y-57687310D01*
X188834843Y-57927323D01*
X188834845Y-57927327D01*
X188834846Y-57927328D01*
X188970588Y-58148840D01*
X189139311Y-58346389D01*
X189336860Y-58515112D01*
X189558372Y-58650854D01*
X189558374Y-58650854D01*
X189558376Y-58650856D01*
X189619693Y-58676254D01*
X189798390Y-58750273D01*
X190051006Y-58810921D01*
X190310000Y-58831304D01*
X190568994Y-58810921D01*
X190821610Y-58750273D01*
X191061628Y-58650854D01*
X191283140Y-58515112D01*
X191480689Y-58346389D01*
X191649412Y-58148840D01*
X191785154Y-57927328D01*
X191884573Y-57687310D01*
X191945221Y-57434694D01*
X191965604Y-57175700D01*
X191945221Y-56916706D01*
X191884573Y-56664090D01*
X191785154Y-56424072D01*
X191649412Y-56202560D01*
X191480689Y-56005011D01*
X191283140Y-55836288D01*
X191061628Y-55700546D01*
X191061627Y-55700545D01*
X191061623Y-55700543D01*
X190895627Y-55631786D01*
X190821610Y-55601127D01*
X190821611Y-55601127D01*
X190683921Y-55568070D01*
X190568994Y-55540479D01*
X190568992Y-55540478D01*
X190568991Y-55540478D01*
X190310000Y-55520096D01*
X190051009Y-55540478D01*
X189798389Y-55601127D01*
X189558376Y-55700543D01*
X189336859Y-55836288D01*
X189139311Y-56005011D01*
X188970588Y-56202559D01*
X188834843Y-56424076D01*
X188735427Y-56664089D01*
X188674778Y-56916709D01*
X188654396Y-57175700D01*
X188285500Y-57175700D01*
X188285500Y-50110208D01*
X192334500Y-50110208D01*
X192334500Y-64109408D01*
X192334500Y-64241192D01*
X192337561Y-64252616D01*
X192368608Y-64368487D01*
X192393552Y-64411691D01*
X192434500Y-64482614D01*
X192527686Y-64575800D01*
X192641814Y-64641692D01*
X192769108Y-64675800D01*
X192769110Y-64675800D01*
X206900890Y-64675800D01*
X206900892Y-64675800D01*
X207028186Y-64641692D01*
X207142314Y-64575800D01*
X207235500Y-64482614D01*
X207301392Y-64368486D01*
X207335500Y-64241192D01*
X207335500Y-54810208D01*
X211809500Y-54810208D01*
X211809500Y-57740991D01*
X211843608Y-57868287D01*
X211876554Y-57925350D01*
X211909500Y-57982414D01*
X212002686Y-58075600D01*
X212116814Y-58141492D01*
X212244108Y-58175600D01*
X212510500Y-58175600D01*
X212577539Y-58195285D01*
X212623294Y-58248089D01*
X212634500Y-58299600D01*
X212634500Y-64011191D01*
X212668608Y-64138487D01*
X212701554Y-64195550D01*
X212734500Y-64252614D01*
X212827686Y-64345800D01*
X212941814Y-64411692D01*
X213069108Y-64445800D01*
X214234500Y-64445800D01*
X214301539Y-64465485D01*
X214347294Y-64518289D01*
X214358500Y-64569800D01*
X214358500Y-65211391D01*
X214392608Y-65338687D01*
X214423785Y-65392686D01*
X214458500Y-65452814D01*
X214551686Y-65546000D01*
X214665814Y-65611892D01*
X214793108Y-65646000D01*
X214793110Y-65646000D01*
X218224890Y-65646000D01*
X218224892Y-65646000D01*
X218352186Y-65611892D01*
X218466314Y-65546000D01*
X218559500Y-65452814D01*
X218625392Y-65338686D01*
X218659500Y-65211392D01*
X218659500Y-64569800D01*
X218679185Y-64502761D01*
X218731989Y-64457006D01*
X218783500Y-64445800D01*
X219950890Y-64445800D01*
X219950892Y-64445800D01*
X220078186Y-64411692D01*
X220192314Y-64345800D01*
X220285500Y-64252614D01*
X220351392Y-64138486D01*
X220385500Y-64011192D01*
X220385500Y-60100600D01*
X220405185Y-60033561D01*
X220457989Y-59987806D01*
X220509500Y-59976600D01*
X220785500Y-59976600D01*
X220852539Y-59996285D01*
X220898294Y-60049089D01*
X220909500Y-60100600D01*
X220909500Y-64109408D01*
X220909500Y-64241192D01*
X220912561Y-64252616D01*
X220943608Y-64368487D01*
X220968552Y-64411691D01*
X221009500Y-64482614D01*
X221102686Y-64575800D01*
X221216814Y-64641692D01*
X221344108Y-64675800D01*
X221344110Y-64675800D01*
X235475890Y-64675800D01*
X235475892Y-64675800D01*
X235603186Y-64641692D01*
X235717314Y-64575800D01*
X235810500Y-64482614D01*
X235876392Y-64368486D01*
X235910500Y-64241192D01*
X235910500Y-60100600D01*
X235930185Y-60033561D01*
X235982989Y-59987806D01*
X236034500Y-59976600D01*
X236309500Y-59976600D01*
X236376539Y-59996285D01*
X236422294Y-60049089D01*
X236433500Y-60100600D01*
X236433500Y-64011191D01*
X236467608Y-64138487D01*
X236500554Y-64195550D01*
X236533500Y-64252614D01*
X236626686Y-64345800D01*
X236740814Y-64411692D01*
X236868108Y-64445800D01*
X238034500Y-64445800D01*
X238101539Y-64465485D01*
X238147294Y-64518289D01*
X238158500Y-64569800D01*
X238158500Y-65211391D01*
X238192608Y-65338687D01*
X238223785Y-65392686D01*
X238258500Y-65452814D01*
X238351686Y-65546000D01*
X238465814Y-65611892D01*
X238593108Y-65646000D01*
X238593110Y-65646000D01*
X242026890Y-65646000D01*
X242026892Y-65646000D01*
X242154186Y-65611892D01*
X242268314Y-65546000D01*
X242361500Y-65452814D01*
X242427392Y-65338686D01*
X242461500Y-65211392D01*
X242461500Y-64569800D01*
X242481185Y-64502761D01*
X242533989Y-64457006D01*
X242585500Y-64445800D01*
X243751890Y-64445800D01*
X243751892Y-64445800D01*
X243879186Y-64411692D01*
X243993314Y-64345800D01*
X244086500Y-64252614D01*
X244152392Y-64138486D01*
X244186500Y-64011192D01*
X244186500Y-58299600D01*
X244206185Y-58232561D01*
X244258989Y-58186806D01*
X244310500Y-58175600D01*
X244573890Y-58175600D01*
X244573892Y-58175600D01*
X244701186Y-58141492D01*
X244815314Y-58075600D01*
X244908500Y-57982414D01*
X244974392Y-57868286D01*
X245008500Y-57740992D01*
X245008500Y-54810208D01*
X244974392Y-54682914D01*
X244908500Y-54568786D01*
X244815314Y-54475600D01*
X244758250Y-54442654D01*
X244701187Y-54409708D01*
X244637539Y-54392654D01*
X244573892Y-54375600D01*
X244573891Y-54375600D01*
X244310500Y-54375600D01*
X244243461Y-54355915D01*
X244197706Y-54303111D01*
X244186500Y-54251600D01*
X244186500Y-51580210D01*
X244186500Y-51580208D01*
X244152392Y-51452914D01*
X244086500Y-51338786D01*
X243993314Y-51245600D01*
X243936250Y-51212654D01*
X243879187Y-51179708D01*
X243815539Y-51162654D01*
X243751892Y-51145600D01*
X236999892Y-51145600D01*
X236868108Y-51145600D01*
X236740812Y-51179708D01*
X236626686Y-51245600D01*
X236626683Y-51245602D01*
X236533502Y-51338783D01*
X236533500Y-51338786D01*
X236467608Y-51452912D01*
X236433500Y-51580208D01*
X236433500Y-54251600D01*
X236413815Y-54318639D01*
X236361011Y-54364394D01*
X236309500Y-54375600D01*
X236034500Y-54375600D01*
X235967461Y-54355915D01*
X235921706Y-54303111D01*
X235910500Y-54251600D01*
X235910500Y-50110210D01*
X235910500Y-50110208D01*
X235876392Y-49982914D01*
X235810500Y-49868786D01*
X235717314Y-49775600D01*
X235660250Y-49742654D01*
X235603187Y-49709708D01*
X235539539Y-49692654D01*
X235475892Y-49675600D01*
X221475892Y-49675600D01*
X221344108Y-49675600D01*
X221216812Y-49709708D01*
X221102686Y-49775600D01*
X221102683Y-49775602D01*
X221009502Y-49868783D01*
X221009500Y-49868786D01*
X220943608Y-49982912D01*
X220909500Y-50110208D01*
X220909500Y-54251600D01*
X220889815Y-54318639D01*
X220837011Y-54364394D01*
X220785500Y-54375600D01*
X220509500Y-54375600D01*
X220442461Y-54355915D01*
X220396706Y-54303111D01*
X220385500Y-54251600D01*
X220385500Y-51580210D01*
X220385500Y-51580208D01*
X220351392Y-51452914D01*
X220285500Y-51338786D01*
X220192314Y-51245600D01*
X220135250Y-51212654D01*
X220078187Y-51179708D01*
X220014539Y-51162654D01*
X219950892Y-51145600D01*
X213200892Y-51145600D01*
X213069108Y-51145600D01*
X212941812Y-51179708D01*
X212827686Y-51245600D01*
X212827683Y-51245602D01*
X212734502Y-51338783D01*
X212734500Y-51338786D01*
X212668608Y-51452912D01*
X212634500Y-51580208D01*
X212634500Y-54251600D01*
X212614815Y-54318639D01*
X212562011Y-54364394D01*
X212510500Y-54375600D01*
X212244108Y-54375600D01*
X212116812Y-54409708D01*
X212002686Y-54475600D01*
X212002683Y-54475602D01*
X211909502Y-54568783D01*
X211909500Y-54568786D01*
X211843608Y-54682912D01*
X211809500Y-54810208D01*
X207335500Y-54810208D01*
X207335500Y-50110208D01*
X207301392Y-49982914D01*
X207235500Y-49868786D01*
X207142314Y-49775600D01*
X207085250Y-49742654D01*
X207028187Y-49709708D01*
X206964539Y-49692654D01*
X206900892Y-49675600D01*
X192900892Y-49675600D01*
X192769108Y-49675600D01*
X192641812Y-49709708D01*
X192527686Y-49775600D01*
X192527683Y-49775602D01*
X192434502Y-49868783D01*
X192434500Y-49868786D01*
X192368608Y-49982912D01*
X192334500Y-50110208D01*
X188285500Y-50110208D01*
X188251392Y-49982914D01*
X188185500Y-49868786D01*
X188092314Y-49775600D01*
X188035250Y-49742654D01*
X187978187Y-49709708D01*
X187914539Y-49692654D01*
X187850892Y-49675600D01*
X173850892Y-49675600D01*
X173719108Y-49675600D01*
X173591812Y-49709708D01*
X173477686Y-49775600D01*
X173477683Y-49775602D01*
X173384502Y-49868783D01*
X173384500Y-49868786D01*
X173318608Y-49982912D01*
X173284500Y-50110208D01*
X169235500Y-50110208D01*
X169201392Y-49982914D01*
X169135500Y-49868786D01*
X169042314Y-49775600D01*
X168985250Y-49742654D01*
X168928187Y-49709708D01*
X168864539Y-49692654D01*
X168800892Y-49675600D01*
X154800892Y-49675600D01*
X154669108Y-49675600D01*
X154541812Y-49709708D01*
X154427686Y-49775600D01*
X154427683Y-49775602D01*
X154334502Y-49868783D01*
X154334500Y-49868786D01*
X154268608Y-49982912D01*
X154234500Y-50110208D01*
X150185500Y-50110208D01*
X150151392Y-49982914D01*
X150085500Y-49868786D01*
X149992314Y-49775600D01*
X149935250Y-49742654D01*
X149878187Y-49709708D01*
X149814539Y-49692654D01*
X149750892Y-49675600D01*
X135750892Y-49675600D01*
X135619108Y-49675600D01*
X135491812Y-49709708D01*
X135377686Y-49775600D01*
X135377683Y-49775602D01*
X135284502Y-49868783D01*
X135284500Y-49868786D01*
X135218608Y-49982912D01*
X135184500Y-50110208D01*
X131135500Y-50110208D01*
X131101392Y-49982914D01*
X131035500Y-49868786D01*
X130942314Y-49775600D01*
X130885250Y-49742654D01*
X130828187Y-49709708D01*
X130764539Y-49692654D01*
X130700892Y-49675600D01*
X116700892Y-49675600D01*
X116569108Y-49675600D01*
X116441812Y-49709708D01*
X116327686Y-49775600D01*
X116327683Y-49775602D01*
X116234502Y-49868783D01*
X116234500Y-49868786D01*
X116168608Y-49982912D01*
X116134500Y-50110208D01*
X112085500Y-50110208D01*
X112051392Y-49982914D01*
X111985500Y-49868786D01*
X111892314Y-49775600D01*
X111835250Y-49742654D01*
X111778187Y-49709708D01*
X111714539Y-49692654D01*
X111650892Y-49675600D01*
X97650892Y-49675600D01*
X97519108Y-49675600D01*
X97391812Y-49709708D01*
X97277686Y-49775600D01*
X97277683Y-49775602D01*
X97184502Y-49868783D01*
X97184500Y-49868786D01*
X97118608Y-49982912D01*
X97084500Y-50110208D01*
X94085500Y-50110208D01*
X94085500Y-48276256D01*
X94105185Y-48209217D01*
X94157989Y-48163462D01*
X94209500Y-48152256D01*
X246988500Y-48152256D01*
X247055539Y-48171941D01*
G37*
%TD.AperFunction*%
M02*
