%TF.GenerationSoftware,KiCad,Pcbnew,8.0.7*%
%TF.CreationDate,2025-08-07T20:29:27+02:00*%
%TF.ProjectId,plate6_dx,706c6174-6536-45f6-9478-2e6b69636164,rev?*%
%TF.SameCoordinates,Original*%
%TF.FileFunction,Profile,NP*%
%FSLAX46Y46*%
G04 Gerber Fmt 4.6, Leading zero omitted, Abs format (unit mm)*
G04 Created by KiCad (PCBNEW 8.0.7) date 2025-08-07 20:29:27*
%MOMM*%
%LPD*%
G01*
G04 APERTURE LIST*
%TA.AperFunction,Profile*%
%ADD10C,0.000000*%
%TD*%
G04 APERTURE END LIST*
D10*
X89775000Y-132988600D02*
X89775000Y-171015050D01*
X99838000Y-132988600D02*
X89775000Y-132988600D01*
X99838000Y-115941300D02*
X99838000Y-132988600D01*
X90313000Y-115941300D02*
X99838000Y-115941300D01*
X90313000Y-96891300D02*
X90313000Y-115941300D01*
X85550000Y-96891300D02*
X90313000Y-96891300D01*
X85550000Y-75840000D02*
X85550000Y-96891300D01*
X95075000Y-75840000D02*
X85550000Y-75840000D01*
X95075000Y-57791756D02*
X95075000Y-75840000D01*
X249103000Y-57791756D02*
X95075000Y-57791756D01*
X249103000Y-154638595D02*
X249103000Y-57791756D01*
X142525000Y-154638595D02*
X249103000Y-154638595D01*
X142525000Y-171015050D02*
X142525000Y-154638595D01*
X89775000Y-171015050D02*
X142525000Y-171015050D01*
X108312000Y-98416000D02*
X108312000Y-112415300D01*
X94313000Y-98416000D02*
X108312000Y-98416000D01*
X94313000Y-112415300D02*
X94313000Y-98416000D01*
X108312000Y-112415300D02*
X94313000Y-112415300D01*
X208325000Y-60316100D02*
X208325000Y-74315300D01*
X194325000Y-60316100D02*
X208325000Y-60316100D01*
X194325000Y-74315300D02*
X194325000Y-60316100D01*
X208325000Y-74315300D02*
X194325000Y-74315300D01*
X215755000Y-122166500D02*
X215755000Y-117466000D01*
X214231000Y-122166500D02*
X215755000Y-122166500D01*
X214231000Y-118936400D02*
X214231000Y-122166500D01*
X207480000Y-118936400D02*
X214231000Y-118936400D01*
X207480000Y-122166500D02*
X207480000Y-118936400D01*
X206656000Y-122166500D02*
X207480000Y-122166500D01*
X206656000Y-124965400D02*
X206656000Y-122166500D01*
X207480000Y-124965400D02*
X206656000Y-124965400D01*
X207480000Y-131235300D02*
X207480000Y-124965400D01*
X209205000Y-131235300D02*
X207480000Y-131235300D01*
X209205000Y-132435500D02*
X209205000Y-131235300D01*
X212506000Y-132435500D02*
X209205000Y-132435500D01*
X212506000Y-131235300D02*
X212506000Y-132435500D01*
X214231000Y-131235300D02*
X212506000Y-131235300D01*
X214231000Y-126764900D02*
X214231000Y-131235300D01*
X215755000Y-126764900D02*
X214231000Y-126764900D01*
X215755000Y-131465300D02*
X215755000Y-126764900D01*
X229756000Y-131465300D02*
X215755000Y-131465300D01*
X229756000Y-126764900D02*
X229756000Y-131465300D01*
X231280000Y-126764900D02*
X229756000Y-126764900D01*
X231280000Y-131235300D02*
X231280000Y-126764900D01*
X233005000Y-131235300D02*
X231280000Y-131235300D01*
X233005000Y-132435500D02*
X233005000Y-131235300D01*
X236307000Y-132435500D02*
X233005000Y-132435500D01*
X236307000Y-131235300D02*
X236307000Y-132435500D01*
X238032000Y-131235300D02*
X236307000Y-131235300D01*
X238032000Y-124965400D02*
X238032000Y-131235300D01*
X238854000Y-124965400D02*
X238032000Y-124965400D01*
X238854000Y-122166500D02*
X238854000Y-124965400D01*
X238032000Y-122166500D02*
X238854000Y-122166500D01*
X238032000Y-118936400D02*
X238032000Y-122166500D01*
X231280000Y-118936400D02*
X238032000Y-118936400D01*
X231280000Y-122166500D02*
X231280000Y-118936400D01*
X229756000Y-122166500D02*
X231280000Y-122166500D01*
X229756000Y-117466000D02*
X229756000Y-122166500D01*
X215755000Y-117466000D02*
X229756000Y-117466000D01*
X172606000Y-136514600D02*
X172606000Y-150515500D01*
X158605000Y-136514600D02*
X172606000Y-136514600D01*
X158605000Y-150515500D02*
X158605000Y-136514600D01*
X172606000Y-150515500D02*
X158605000Y-150515500D01*
X196418000Y-136514600D02*
X196418000Y-150515500D01*
X182419000Y-136514600D02*
X196418000Y-136514600D01*
X182419000Y-150515500D02*
X182419000Y-136514600D01*
X196418000Y-150515500D02*
X182419000Y-150515500D01*
X244044000Y-136514600D02*
X244044000Y-150515500D01*
X230044000Y-136514600D02*
X244044000Y-136514600D01*
X230044000Y-150515500D02*
X230044000Y-136514600D01*
X244044000Y-150515500D02*
X230044000Y-150515500D01*
X146412000Y-136514600D02*
X146412000Y-150515500D01*
X132413000Y-136514600D02*
X146412000Y-136514600D01*
X132413000Y-150515500D02*
X132413000Y-136514600D01*
X146412000Y-150515500D02*
X132413000Y-150515500D01*
X220231000Y-136514600D02*
X220231000Y-150515500D01*
X206230000Y-136514600D02*
X220231000Y-136514600D01*
X206230000Y-150515500D02*
X206230000Y-136514600D01*
X220231000Y-150515500D02*
X206230000Y-150515500D01*
X179750000Y-79366000D02*
X179750000Y-93365300D01*
X165750000Y-79366000D02*
X179750000Y-79366000D01*
X165750000Y-93365300D02*
X165750000Y-79366000D01*
X179750000Y-93365300D02*
X165750000Y-93365300D01*
X198800000Y-79366000D02*
X198800000Y-93365300D01*
X184800000Y-79366000D02*
X198800000Y-79366000D01*
X184800000Y-93365300D02*
X184800000Y-79366000D01*
X198800000Y-93365300D02*
X184800000Y-93365300D01*
X115456000Y-136514600D02*
X115456000Y-150515500D01*
X101455000Y-136514600D02*
X115456000Y-136514600D01*
X101455000Y-150515500D02*
X101455000Y-136514600D01*
X115456000Y-150515500D02*
X101455000Y-150515500D01*
X203562000Y-98416000D02*
X203562000Y-112415300D01*
X189563000Y-98416000D02*
X203562000Y-98416000D01*
X189563000Y-112415300D02*
X189563000Y-98416000D01*
X203562000Y-112415300D02*
X189563000Y-112415300D01*
X107775000Y-154515050D02*
X107775000Y-168515050D01*
X93775000Y-154515050D02*
X107775000Y-154515050D01*
X93775000Y-168515050D02*
X93775000Y-154515050D01*
X107775000Y-168515050D02*
X93775000Y-168515050D01*
X189275000Y-60316100D02*
X189275000Y-74315300D01*
X175275000Y-60316100D02*
X189275000Y-60316100D01*
X175275000Y-74315300D02*
X175275000Y-60316100D01*
X189275000Y-74315300D02*
X175275000Y-74315300D01*
X194037000Y-117466000D02*
X194037000Y-131465300D01*
X180038000Y-117466000D02*
X194037000Y-117466000D01*
X180038000Y-131465300D02*
X180038000Y-117466000D01*
X194037000Y-131465300D02*
X180038000Y-131465300D01*
X246428500Y-124465650D02*
G75*
G02*
X244128500Y-124465650I-1150000J0D01*
G01*
X244128500Y-124465650D02*
G75*
G02*
X246428500Y-124465650I1150000J0D01*
G01*
X127362000Y-98416000D02*
X127362000Y-112415300D01*
X113363000Y-98416000D02*
X127362000Y-98416000D01*
X113363000Y-112415300D02*
X113363000Y-98416000D01*
X127362000Y-112415300D02*
X113363000Y-112415300D01*
X155937000Y-117466000D02*
X155937000Y-131465300D01*
X141938000Y-117466000D02*
X155937000Y-117466000D01*
X141938000Y-131465300D02*
X141938000Y-117466000D01*
X155937000Y-131465300D02*
X141938000Y-131465300D01*
X220519000Y-103116500D02*
X220519000Y-98416000D01*
X218994000Y-103116500D02*
X220519000Y-103116500D01*
X218994000Y-99886400D02*
X218994000Y-103116500D01*
X212244000Y-99886400D02*
X218994000Y-99886400D01*
X212244000Y-103116500D02*
X212244000Y-99886400D01*
X211418000Y-103116500D02*
X212244000Y-103116500D01*
X211418000Y-105915400D02*
X211418000Y-103116500D01*
X212244000Y-105915400D02*
X211418000Y-105915400D01*
X212244000Y-112185300D02*
X212244000Y-105915400D01*
X213969000Y-112185300D02*
X212244000Y-112185300D01*
X213969000Y-113385500D02*
X213969000Y-112185300D01*
X217268000Y-113385500D02*
X213969000Y-113385500D01*
X217268000Y-112185300D02*
X217268000Y-113385500D01*
X218994000Y-112185300D02*
X217268000Y-112185300D01*
X218994000Y-107716300D02*
X218994000Y-112185300D01*
X220519000Y-107716300D02*
X218994000Y-107716300D01*
X220519000Y-112415300D02*
X220519000Y-107716300D01*
X234518000Y-112415300D02*
X220519000Y-112415300D01*
X234518000Y-107716300D02*
X234518000Y-112415300D01*
X236043000Y-107716300D02*
X234518000Y-107716300D01*
X236043000Y-112185300D02*
X236043000Y-107716300D01*
X237768000Y-112185300D02*
X236043000Y-112185300D01*
X237768000Y-113385500D02*
X237768000Y-112185300D01*
X241070000Y-113385500D02*
X237768000Y-113385500D01*
X241070000Y-112185300D02*
X241070000Y-113385500D01*
X242795000Y-112185300D02*
X241070000Y-112185300D01*
X242795000Y-105915400D02*
X242795000Y-112185300D01*
X243620000Y-105915400D02*
X242795000Y-105915400D01*
X243620000Y-103116500D02*
X243620000Y-105915400D01*
X242795000Y-103116500D02*
X243620000Y-103116500D01*
X242795000Y-99886400D02*
X242795000Y-103116500D01*
X236043000Y-99886400D02*
X242795000Y-99886400D01*
X236043000Y-103116500D02*
X236043000Y-99886400D01*
X234518000Y-103116500D02*
X236043000Y-103116500D01*
X234518000Y-98416000D02*
X234518000Y-103116500D01*
X220519000Y-98416000D02*
X234518000Y-98416000D01*
X136887000Y-117466000D02*
X136887000Y-131465300D01*
X122888000Y-117466000D02*
X136887000Y-117466000D01*
X122888000Y-131465300D02*
X122888000Y-117466000D01*
X136887000Y-131465300D02*
X122888000Y-131465300D01*
X117837000Y-117466000D02*
X117837000Y-131465300D01*
X103838000Y-117466000D02*
X117837000Y-117466000D01*
X103838000Y-131465300D02*
X103838000Y-117466000D01*
X117837000Y-131465300D02*
X103838000Y-131465300D01*
X222900000Y-65016100D02*
X222900000Y-60316100D01*
X221375000Y-65016100D02*
X222900000Y-65016100D01*
X221375000Y-61786100D02*
X221375000Y-65016100D01*
X214625000Y-61786100D02*
X221375000Y-61786100D01*
X214625000Y-65016100D02*
X214625000Y-61786100D01*
X213800000Y-65016100D02*
X214625000Y-65016100D01*
X213800000Y-67815100D02*
X213800000Y-65016100D01*
X214625000Y-67815100D02*
X213800000Y-67815100D01*
X214625000Y-74085300D02*
X214625000Y-67815100D01*
X216349000Y-74085300D02*
X214625000Y-74085300D01*
X216349000Y-75285500D02*
X216349000Y-74085300D01*
X219649000Y-75285500D02*
X216349000Y-75285500D01*
X219649000Y-74085300D02*
X219649000Y-75285500D01*
X221375000Y-74085300D02*
X219649000Y-74085300D01*
X221375000Y-69616100D02*
X221375000Y-74085300D01*
X222900000Y-69616100D02*
X221375000Y-69616100D01*
X222900000Y-74315300D02*
X222900000Y-69616100D01*
X236900000Y-74315300D02*
X222900000Y-74315300D01*
X236900000Y-69616100D02*
X236900000Y-74315300D01*
X238424000Y-69616100D02*
X236900000Y-69616100D01*
X238424000Y-74085300D02*
X238424000Y-69616100D01*
X240149000Y-74085300D02*
X238424000Y-74085300D01*
X240149000Y-75285500D02*
X240149000Y-74085300D01*
X243451000Y-75285500D02*
X240149000Y-75285500D01*
X243451000Y-74085300D02*
X243451000Y-75285500D01*
X245176000Y-74085300D02*
X243451000Y-74085300D01*
X245176000Y-67815100D02*
X245176000Y-74085300D01*
X245998000Y-67815100D02*
X245176000Y-67815100D01*
X245998000Y-65016100D02*
X245998000Y-67815100D01*
X245176000Y-65016100D02*
X245998000Y-65016100D01*
X245176000Y-61786100D02*
X245176000Y-65016100D01*
X238424000Y-61786100D02*
X245176000Y-61786100D01*
X238424000Y-65016100D02*
X238424000Y-61786100D01*
X236900000Y-65016100D02*
X238424000Y-65016100D01*
X236900000Y-60316100D02*
X236900000Y-65016100D01*
X222900000Y-60316100D02*
X236900000Y-60316100D01*
X241662000Y-79366000D02*
X241662000Y-93365300D01*
X227663000Y-79366000D02*
X241662000Y-79366000D01*
X227663000Y-93365300D02*
X227663000Y-79366000D01*
X241662000Y-93365300D02*
X227663000Y-93365300D01*
X122600000Y-79366000D02*
X122600000Y-93365300D01*
X108600000Y-79366000D02*
X122600000Y-79366000D01*
X108600000Y-93365300D02*
X108600000Y-79366000D01*
X122600000Y-93365300D02*
X108600000Y-93365300D01*
X103550000Y-79366000D02*
X103550000Y-93365300D01*
X89550000Y-79366000D02*
X103550000Y-79366000D01*
X89550000Y-93365300D02*
X89550000Y-79366000D01*
X103550000Y-93365300D02*
X89550000Y-93365300D01*
X141650000Y-79366000D02*
X141650000Y-93365300D01*
X127650000Y-79366000D02*
X141650000Y-79366000D01*
X127650000Y-93365300D02*
X127650000Y-79366000D01*
X141650000Y-93365300D02*
X127650000Y-93365300D01*
X217850000Y-79366000D02*
X217850000Y-93365300D01*
X203850000Y-79366000D02*
X217850000Y-79366000D01*
X203850000Y-93365300D02*
X203850000Y-79366000D01*
X217850000Y-93365300D02*
X203850000Y-93365300D01*
X151175000Y-60316100D02*
X151175000Y-74315300D01*
X137175000Y-60316100D02*
X151175000Y-60316100D01*
X137175000Y-74315300D02*
X137175000Y-60316100D01*
X151175000Y-74315300D02*
X137175000Y-74315300D01*
X132525000Y-154515050D02*
X132525000Y-168515050D01*
X118525000Y-154515050D02*
X132525000Y-154515050D01*
X118525000Y-168515050D02*
X118525000Y-154515050D01*
X132525000Y-168515050D02*
X118525000Y-168515050D01*
X160700000Y-79366000D02*
X160700000Y-93365300D01*
X146700000Y-79366000D02*
X160700000Y-79366000D01*
X146700000Y-93365300D02*
X146700000Y-79366000D01*
X160700000Y-93365300D02*
X146700000Y-93365300D01*
X170225000Y-60316100D02*
X170225000Y-74315300D01*
X156225000Y-60316100D02*
X170225000Y-60316100D01*
X156225000Y-74315300D02*
X156225000Y-60316100D01*
X170225000Y-74315300D02*
X156225000Y-74315300D01*
X146412000Y-98416000D02*
X146412000Y-112415300D01*
X132413000Y-98416000D02*
X146412000Y-98416000D01*
X132413000Y-112415300D02*
X132413000Y-98416000D01*
X146412000Y-112415300D02*
X132413000Y-112415300D01*
X138675000Y-161515050D02*
G75*
G02*
X136375000Y-161515050I-1150000J0D01*
G01*
X136375000Y-161515050D02*
G75*
G02*
X138675000Y-161515050I1150000J0D01*
G01*
X131037500Y-105415650D02*
G75*
G02*
X128737500Y-105415650I-1150000J0D01*
G01*
X128737500Y-105415650D02*
G75*
G02*
X131037500Y-105415650I1150000J0D01*
G01*
X165462000Y-98416000D02*
X165462000Y-112415300D01*
X151463000Y-98416000D02*
X165462000Y-98416000D01*
X151463000Y-112415300D02*
X151463000Y-98416000D01*
X165462000Y-112415300D02*
X151463000Y-112415300D01*
X132125000Y-60316100D02*
X132125000Y-74315300D01*
X118125000Y-60316100D02*
X132125000Y-60316100D01*
X118125000Y-74315300D02*
X118125000Y-60316100D01*
X132125000Y-74315300D02*
X118125000Y-74315300D01*
X135800000Y-67315700D02*
G75*
G02*
X133500000Y-67315700I-1150000J0D01*
G01*
X133500000Y-67315700D02*
G75*
G02*
X135800000Y-67315700I1150000J0D01*
G01*
X192950000Y-67315700D02*
G75*
G02*
X190650000Y-67315700I-1150000J0D01*
G01*
X190650000Y-67315700D02*
G75*
G02*
X192950000Y-67315700I1150000J0D01*
G01*
X95465000Y-142752050D02*
G75*
G02*
X93165000Y-142752050I-1150000J0D01*
G01*
X93165000Y-142752050D02*
G75*
G02*
X95465000Y-142752050I1150000J0D01*
G01*
X184512000Y-98416000D02*
X184512000Y-112415300D01*
X170513000Y-98416000D02*
X184512000Y-98416000D01*
X170513000Y-112415300D02*
X170513000Y-98416000D01*
X184512000Y-112415300D02*
X170513000Y-112415300D01*
X174987000Y-117466000D02*
X174987000Y-131465300D01*
X160988000Y-117466000D02*
X174987000Y-117466000D01*
X160988000Y-131465300D02*
X160988000Y-117466000D01*
X174987000Y-131465300D02*
X160988000Y-131465300D01*
X113075000Y-60316100D02*
X113075000Y-74315300D01*
X99075000Y-60316100D02*
X113075000Y-60316100D01*
X99075000Y-74315300D02*
X99075000Y-60316100D01*
X113075000Y-74315300D02*
X99075000Y-74315300D01*
X202474000Y-143515050D02*
G75*
G02*
X200174000Y-143515050I-1150000J0D01*
G01*
X200174000Y-143515050D02*
G75*
G02*
X202474000Y-143515050I1150000J0D01*
G01*
X208212500Y-105415650D02*
G75*
G02*
X205912500Y-105415650I-1150000J0D01*
G01*
X205912500Y-105415650D02*
G75*
G02*
X208212500Y-105415650I1150000J0D01*
G01*
M02*
