%TF.GenerationSoftware,KiCad,Pcbnew,8.0.7*%
%TF.CreationDate,2025-08-07T20:18:05+02:00*%
%TF.ProjectId,pcb_keyboard_dx_rj11,7063625f-6b65-4796-926f-6172645f6478,rev?*%
%TF.SameCoordinates,Original*%
%TF.FileFunction,Soldermask,Bot*%
%TF.FilePolarity,Negative*%
%FSLAX46Y46*%
G04 Gerber Fmt 4.6, Leading zero omitted, Abs format (unit mm)*
G04 Created by KiCad (PCBNEW 8.0.7) date 2025-08-07 20:18:05*
%MOMM*%
%LPD*%
G01*
G04 APERTURE LIST*
G04 Aperture macros list*
%AMRoundRect*
0 Rectangle with rounded corners*
0 $1 Rounding radius*
0 $2 $3 $4 $5 $6 $7 $8 $9 X,Y pos of 4 corners*
0 Add a 4 corners polygon primitive as box body*
4,1,4,$2,$3,$4,$5,$6,$7,$8,$9,$2,$3,0*
0 Add four circle primitives for the rounded corners*
1,1,$1+$1,$2,$3*
1,1,$1+$1,$4,$5*
1,1,$1+$1,$6,$7*
1,1,$1+$1,$8,$9*
0 Add four rect primitives between the rounded corners*
20,1,$1+$1,$2,$3,$4,$5,0*
20,1,$1+$1,$4,$5,$6,$7,0*
20,1,$1+$1,$6,$7,$8,$9,0*
20,1,$1+$1,$8,$9,$2,$3,0*%
%AMRotRect*
0 Rectangle, with rotation*
0 The origin of the aperture is its center*
0 $1 length*
0 $2 width*
0 $3 Rotation angle, in degrees counterclockwise*
0 Add horizontal line*
21,1,$1,$2,0,0,$3*%
G04 Aperture macros list end*
%ADD10C,1.900000*%
%ADD11C,3.450000*%
%ADD12C,2.200000*%
%ADD13C,1.200000*%
%ADD14C,3.200000*%
%ADD15C,1.750000*%
%ADD16C,3.050000*%
%ADD17C,4.000000*%
%ADD18RoundRect,0.250000X1.025000X1.000000X-1.025000X1.000000X-1.025000X-1.000000X1.025000X-1.000000X0*%
%ADD19R,1.700000X1.700000*%
%ADD20C,3.250000*%
%ADD21RotRect,1.520000X1.520000X258.400000*%
%ADD22C,1.520000*%
%ADD23RotRect,2.000000X2.000000X168.400000*%
%ADD24C,2.000000*%
%ADD25RotRect,3.200000X2.000000X168.400000*%
%ADD26R,1.400000X1.400000*%
%ADD27RoundRect,0.300000X-0.300000X0.450000X-0.300000X-0.450000X0.300000X-0.450000X0.300000X0.450000X0*%
%ADD28RoundRect,0.300000X-0.300000X0.400000X-0.300000X-0.400000X0.300000X-0.400000X0.300000X0.400000X0*%
%ADD29C,1.400000*%
%ADD30R,1.000000X1.500000*%
%ADD31R,1.500000X1.000000*%
%ADD32RoundRect,0.205000X-0.495000X-0.205000X0.495000X-0.205000X0.495000X0.205000X-0.495000X0.205000X0*%
%ADD33RoundRect,0.300000X0.450000X0.300000X-0.450000X0.300000X-0.450000X-0.300000X0.450000X-0.300000X0*%
%ADD34RoundRect,0.300000X0.400000X0.300000X-0.400000X0.300000X-0.400000X-0.300000X0.400000X-0.300000X0*%
%ADD35O,1.700000X1.700000*%
%ADD36R,1.700000X3.500000*%
%ADD37R,3.500000X1.700000*%
%ADD38O,1.700000X1.400000*%
%ADD39RoundRect,0.205000X0.495000X0.205000X-0.495000X0.205000X-0.495000X-0.205000X0.495000X-0.205000X0*%
%ADD40RotRect,1.400000X1.400000X168.400000*%
%ADD41RoundRect,0.300000X0.501132X0.203388X-0.380485X0.384358X-0.501132X-0.203388X0.380485X-0.384358X0*%
%ADD42RoundRect,0.300000X0.452153X0.213441X-0.331507X0.374304X-0.452153X-0.213441X0.331507X-0.374304X0*%
%ADD43RoundRect,0.100000X0.100000X-0.650000X0.100000X0.650000X-0.100000X0.650000X-0.100000X-0.650000X0*%
%ADD44RoundRect,0.250000X-1.450000X0.537500X-1.450000X-0.537500X1.450000X-0.537500X1.450000X0.537500X0*%
G04 APERTURE END LIST*
D10*
%TO.C,S3*%
X47075669Y-149882000D03*
D11*
X41575669Y-149882000D03*
D10*
X36075669Y-149882000D03*
D12*
X41575669Y-155782000D03*
X36575669Y-153682000D03*
%TD*%
D13*
%TO.C,H2*%
X101983169Y-43163000D03*
%TD*%
D14*
%TO.C,H8*%
X142108169Y-131877000D03*
%TD*%
D15*
%TO.C,S8*%
X54324419Y-131857000D03*
D16*
X53054419Y-134397000D03*
D17*
X49244419Y-131857000D03*
D16*
X46704419Y-136937000D03*
D15*
X44164419Y-131857000D03*
D18*
X56329419Y-134397000D03*
X43402419Y-136937000D03*
%TD*%
D14*
%TO.C,H6*%
X75418169Y-55687000D03*
%TD*%
D15*
%TO.C,S18*%
X94788169Y-112817000D03*
D16*
X93518169Y-115357000D03*
D17*
X89708169Y-112817000D03*
D16*
X87168169Y-117897000D03*
D15*
X84628169Y-112817000D03*
D18*
X96793169Y-115357000D03*
X83866169Y-117897000D03*
%TD*%
D13*
%TO.C,H3*%
X163494669Y-74737000D03*
%TD*%
D15*
%TO.C,S6*%
X66228169Y-93777000D03*
D16*
X64958169Y-96317000D03*
D17*
X61148169Y-93777000D03*
D16*
X58608169Y-98857000D03*
D15*
X56068169Y-93777000D03*
D18*
X68233169Y-96317000D03*
X55306169Y-98857000D03*
%TD*%
D15*
%TO.C,S32*%
X175718169Y-55687000D03*
D16*
X174448169Y-58227000D03*
D17*
X170638169Y-55687000D03*
D16*
X168098169Y-60767000D03*
D15*
X165558169Y-55687000D03*
D18*
X177723169Y-58227000D03*
X164796169Y-60767000D03*
%TD*%
D15*
%TO.C,S33*%
X180480669Y-74737000D03*
D16*
X179210669Y-77277000D03*
D17*
X175400669Y-74737000D03*
D16*
X172860669Y-79817000D03*
D15*
X170320669Y-74737000D03*
D18*
X182485669Y-77277000D03*
X169558669Y-79817000D03*
%TD*%
D15*
%TO.C,S25*%
X137628169Y-74737000D03*
D16*
X136358169Y-77277000D03*
D17*
X132548169Y-74737000D03*
D16*
X130008169Y-79817000D03*
D15*
X127468169Y-74737000D03*
D18*
X139633169Y-77277000D03*
X126706169Y-79817000D03*
%TD*%
D14*
%TO.C,H12*%
X78325669Y-149882000D03*
%TD*%
D15*
%TO.C,S5*%
X61468169Y-74737000D03*
D16*
X60198169Y-77277000D03*
D17*
X56388169Y-74737000D03*
D16*
X53848169Y-79817000D03*
D15*
X51308169Y-74737000D03*
D18*
X63473169Y-77277000D03*
X50546169Y-79817000D03*
%TD*%
D15*
%TO.C,S7*%
X56708169Y-112817000D03*
D16*
X55438169Y-115357000D03*
D17*
X51628169Y-112817000D03*
D16*
X49088169Y-117897000D03*
D15*
X46548169Y-112817000D03*
D18*
X58713169Y-115357000D03*
X45786169Y-117897000D03*
%TD*%
D15*
%TO.C,S36*%
X182861919Y-131857000D03*
D16*
X181591919Y-134397000D03*
D17*
X177781919Y-131857000D03*
D16*
X175241919Y-136937000D03*
D15*
X172701919Y-131857000D03*
D18*
X184866919Y-134397000D03*
X171939919Y-136937000D03*
%TD*%
D15*
%TO.C,S30*%
X156668169Y-74737000D03*
D16*
X155398169Y-77277000D03*
D17*
X151588169Y-74737000D03*
D16*
X149048169Y-79817000D03*
D15*
X146508169Y-74737000D03*
D18*
X158673169Y-77277000D03*
X145746169Y-79817000D03*
%TD*%
D15*
%TO.C,S2*%
X47188169Y-93777000D03*
D16*
X45918169Y-96317000D03*
D17*
X42108169Y-93777000D03*
D16*
X39568169Y-98857000D03*
D15*
X37028169Y-93777000D03*
D18*
X49193169Y-96317000D03*
X36266169Y-98857000D03*
%TD*%
D13*
%TO.C,H13*%
X141097169Y-112817000D03*
%TD*%
D15*
%TO.C,S27*%
X132868169Y-112817000D03*
D16*
X131598169Y-115357000D03*
D17*
X127788169Y-112817000D03*
D16*
X125248169Y-117897000D03*
D15*
X122708169Y-112817000D03*
D18*
X134873169Y-115357000D03*
X121946169Y-117897000D03*
%TD*%
D15*
%TO.C,S9*%
X70983169Y-55687000D03*
D16*
X69713169Y-58227000D03*
D17*
X65903169Y-55687000D03*
D16*
X63363169Y-60767000D03*
D15*
X60823169Y-55687000D03*
D18*
X72988169Y-58227000D03*
X60061169Y-60767000D03*
%TD*%
D15*
%TO.C,S10*%
X80508169Y-74737000D03*
D16*
X79238169Y-77277000D03*
D17*
X75428169Y-74737000D03*
D16*
X72888169Y-79817000D03*
D15*
X70348169Y-74737000D03*
D18*
X82513169Y-77277000D03*
X69586169Y-79817000D03*
%TD*%
D15*
%TO.C,S1*%
X42428169Y-74737000D03*
D16*
X41158169Y-77277000D03*
D17*
X37348169Y-74737000D03*
D16*
X34808169Y-79817000D03*
D15*
X32268169Y-74737000D03*
D18*
X44433169Y-77277000D03*
X31506169Y-79817000D03*
%TD*%
D19*
%TO.C,TP1*%
X100758169Y-151317000D03*
%TD*%
D15*
%TO.C,S13*%
X85265669Y-131857000D03*
D16*
X83995669Y-134397000D03*
D17*
X80185669Y-131857000D03*
D16*
X77645669Y-136937000D03*
D15*
X75105669Y-131857000D03*
D18*
X87270669Y-134397000D03*
X74343669Y-136937000D03*
%TD*%
D15*
%TO.C,S17*%
X104308169Y-93777000D03*
D16*
X103038169Y-96317000D03*
D17*
X99228169Y-93777000D03*
D16*
X96688169Y-98857000D03*
D15*
X94148169Y-93777000D03*
D18*
X106313169Y-96317000D03*
X93386169Y-98857000D03*
%TD*%
D14*
%TO.C,H10*%
X70663169Y-93777000D03*
%TD*%
%TO.C,H9*%
X147808169Y-93777000D03*
%TD*%
%TO.C,H7*%
X132548169Y-55687000D03*
%TD*%
D15*
%TO.C,S23*%
X111446919Y-131857000D03*
D16*
X110176919Y-134397000D03*
D17*
X106366919Y-131857000D03*
D16*
X103826919Y-136937000D03*
D15*
X101286919Y-131857000D03*
D18*
X113451919Y-134397000D03*
X100524919Y-136937000D03*
%TD*%
D15*
%TO.C,S21*%
X123348169Y-93777000D03*
D16*
X122078169Y-96317000D03*
D17*
X118268169Y-93777000D03*
D16*
X115728169Y-98857000D03*
D15*
X113188169Y-93777000D03*
D18*
X125353169Y-96317000D03*
X112426169Y-98857000D03*
%TD*%
D15*
%TO.C,S31*%
X159046919Y-131857000D03*
D16*
X157776919Y-134397000D03*
D17*
X153966919Y-131857000D03*
D16*
X151426919Y-136937000D03*
D15*
X148886919Y-131857000D03*
D18*
X161051919Y-134397000D03*
X148124919Y-136937000D03*
%TD*%
D15*
%TO.C,S28*%
X135246919Y-131857000D03*
D16*
X133976919Y-134397000D03*
D17*
X130166919Y-131857000D03*
D16*
X127626919Y-136937000D03*
D15*
X125086919Y-131857000D03*
D18*
X137251919Y-134397000D03*
X124324919Y-136937000D03*
%TD*%
D15*
%TO.C,S24*%
X128103169Y-55687000D03*
D16*
X126833169Y-58227000D03*
D17*
X123023169Y-55687000D03*
D16*
X120483169Y-60767000D03*
D15*
X117943169Y-55687000D03*
D18*
X130108169Y-58227000D03*
X117181169Y-60767000D03*
%TD*%
D15*
%TO.C,S35*%
X168574419Y-112817000D03*
D16*
X167304419Y-115357000D03*
D17*
X163494419Y-112817000D03*
D16*
X160954419Y-117897000D03*
D15*
X158414419Y-112817000D03*
D18*
X170579419Y-115357000D03*
X157652419Y-117897000D03*
%TD*%
D20*
%TO.C,J1*%
X109894419Y-28667000D03*
X108362206Y-36131364D03*
D21*
X115740719Y-31765855D03*
X114719243Y-36742098D03*
D22*
X117973469Y-33520656D03*
X115229980Y-34253978D03*
X117462732Y-36008775D03*
%TD*%
D15*
%TO.C,S26*%
X142388169Y-93777000D03*
D16*
X141118169Y-96317000D03*
D17*
X137308169Y-93777000D03*
D16*
X134768169Y-98857000D03*
D15*
X132228169Y-93777000D03*
D18*
X144393169Y-96317000D03*
X131466169Y-98857000D03*
%TD*%
D15*
%TO.C,S11*%
X85268169Y-93777000D03*
D16*
X83998169Y-96317000D03*
D17*
X80188169Y-93777000D03*
D16*
X77648169Y-98857000D03*
D15*
X75108169Y-93777000D03*
D18*
X87273169Y-96317000D03*
X74346169Y-98857000D03*
%TD*%
D13*
%TO.C,H11*%
X108325669Y-148506000D03*
%TD*%
D15*
%TO.C,S4*%
X51943169Y-55687000D03*
D16*
X50673169Y-58227000D03*
D17*
X46863169Y-55687000D03*
D16*
X44323169Y-60767000D03*
D15*
X41783169Y-55687000D03*
D18*
X53948169Y-58227000D03*
X41021169Y-60767000D03*
%TD*%
D13*
%TO.C,H4*%
X64723419Y-131857000D03*
%TD*%
D15*
%TO.C,S12*%
X75748169Y-112817000D03*
D16*
X74478169Y-115357000D03*
D17*
X70668169Y-112817000D03*
D16*
X68128169Y-117897000D03*
D15*
X65588169Y-112817000D03*
D18*
X77753169Y-115357000D03*
X64826169Y-117897000D03*
%TD*%
D10*
%TO.C,S14*%
X71825669Y-149882000D03*
D11*
X66325669Y-149882000D03*
D10*
X60825669Y-149882000D03*
D12*
X66325669Y-155782000D03*
X61325669Y-153682000D03*
%TD*%
D15*
%TO.C,S20*%
X118588169Y-74737000D03*
D16*
X117318169Y-77277000D03*
D17*
X113508169Y-74737000D03*
D16*
X110968169Y-79817000D03*
D15*
X108428169Y-74737000D03*
D18*
X120593169Y-77277000D03*
X107666169Y-79817000D03*
%TD*%
D15*
%TO.C,S19*%
X109063169Y-55687000D03*
D16*
X107793169Y-58227000D03*
D17*
X103983169Y-55687000D03*
D16*
X101443169Y-60767000D03*
D15*
X98903169Y-55687000D03*
D18*
X111068169Y-58227000D03*
X98141169Y-60767000D03*
%TD*%
D15*
%TO.C,S22*%
X113828169Y-112817000D03*
D16*
X112558169Y-115357000D03*
D17*
X108748169Y-112817000D03*
D16*
X106208169Y-117897000D03*
D15*
X103668169Y-112817000D03*
D18*
X115833169Y-115357000D03*
X102906169Y-117897000D03*
%TD*%
D15*
%TO.C,S15*%
X90023169Y-55687000D03*
D16*
X88753169Y-58227000D03*
D17*
X84943169Y-55687000D03*
D16*
X82403169Y-60767000D03*
D15*
X79863169Y-55687000D03*
D18*
X92028169Y-58227000D03*
X79101169Y-60767000D03*
%TD*%
D15*
%TO.C,S16*%
X99548169Y-74737000D03*
D16*
X98278169Y-77277000D03*
D17*
X94468169Y-74737000D03*
D16*
X91928169Y-79817000D03*
D15*
X89388169Y-74737000D03*
D18*
X101553169Y-77277000D03*
X88626169Y-79817000D03*
%TD*%
D23*
%TO.C,SW2*%
X136754362Y-40344877D03*
D24*
X137759750Y-35447000D03*
X137257055Y-37895938D03*
D25*
X128784205Y-41873475D03*
X131036277Y-30902233D03*
D24*
X123555909Y-32531370D03*
X122550519Y-37429247D03*
%TD*%
D15*
%TO.C,S29*%
X147143169Y-55687000D03*
D16*
X145873169Y-58227000D03*
D17*
X142063169Y-55687000D03*
D16*
X139523169Y-60767000D03*
D15*
X136983169Y-55687000D03*
D18*
X149148169Y-58227000D03*
X136221169Y-60767000D03*
%TD*%
D13*
%TO.C,H1*%
X65903169Y-73737000D03*
%TD*%
D15*
%TO.C,S34*%
X173336919Y-93777000D03*
D16*
X172066919Y-96317000D03*
D17*
X168256919Y-93777000D03*
D16*
X165716919Y-98857000D03*
D15*
X163176919Y-93777000D03*
D18*
X175341919Y-96317000D03*
X162414919Y-98857000D03*
%TD*%
D26*
%TO.C,D31*%
X164473169Y-127787000D03*
D27*
X164473169Y-129837000D03*
D28*
X164473169Y-133687000D03*
D29*
X164473169Y-135787000D03*
%TD*%
D30*
%TO.C,JP3*%
X78535669Y-144852000D03*
X79835669Y-144852000D03*
%TD*%
D31*
%TO.C,JP2*%
X109733169Y-157437000D03*
X109733169Y-158737000D03*
%TD*%
D32*
%TO.C,LED21*%
X120968169Y-89588000D03*
X120968169Y-88088000D03*
X115568169Y-88088000D03*
X115568169Y-89588000D03*
%TD*%
D26*
%TO.C,D11*%
X81593169Y-102427000D03*
D33*
X79543169Y-102427000D03*
D34*
X75693169Y-102427000D03*
D29*
X73593169Y-102427000D03*
%TD*%
D32*
%TO.C,LED32*%
X173338169Y-51498000D03*
X173338169Y-49998000D03*
X167938169Y-49998000D03*
X167938169Y-51498000D03*
%TD*%
%TO.C,LED36*%
X180481919Y-127668000D03*
X180481919Y-126168000D03*
X175081919Y-126168000D03*
X175081919Y-127668000D03*
%TD*%
D26*
%TO.C,D9*%
X69413169Y-64317000D03*
D33*
X67363169Y-64317000D03*
D34*
X63513169Y-64317000D03*
D29*
X61413169Y-64317000D03*
%TD*%
D32*
%TO.C,LED24*%
X125723169Y-51498000D03*
X125723169Y-49998000D03*
X120323169Y-49998000D03*
X120323169Y-51498000D03*
%TD*%
D35*
%TO.C,U1*%
X135303169Y-143407000D03*
D36*
X135303169Y-142507000D03*
D35*
X137843169Y-143407000D03*
D36*
X137843169Y-142507000D03*
D19*
X140383169Y-143407000D03*
D36*
X140383169Y-142507000D03*
D35*
X142923169Y-143407000D03*
D36*
X142923169Y-142507000D03*
D35*
X145463169Y-143407000D03*
D36*
X145463169Y-142507000D03*
D35*
X148003169Y-143407000D03*
D36*
X148003169Y-142507000D03*
D35*
X150543169Y-143407000D03*
D36*
X150543169Y-142507000D03*
D19*
X153083169Y-143407000D03*
D36*
X153083169Y-142507000D03*
D35*
X155623169Y-143407000D03*
D36*
X155623169Y-142507000D03*
D35*
X158163169Y-143407000D03*
D36*
X158163169Y-142507000D03*
D35*
X160703169Y-143407000D03*
D36*
X160703169Y-142507000D03*
D35*
X163243169Y-143407000D03*
D36*
X163243169Y-142507000D03*
D19*
X165783169Y-143407000D03*
D36*
X165783169Y-142507000D03*
D35*
X168323169Y-143407000D03*
D36*
X168323169Y-142507000D03*
D35*
X170863169Y-143407000D03*
D36*
X170863169Y-142507000D03*
D35*
X173403169Y-143407000D03*
D36*
X173403169Y-142507000D03*
D35*
X175943169Y-143407000D03*
D36*
X175943169Y-142507000D03*
D19*
X178483169Y-143407000D03*
D36*
X178483169Y-142507000D03*
D35*
X181023169Y-143407000D03*
D36*
X181023169Y-142507000D03*
D35*
X183563169Y-143407000D03*
D36*
X183563169Y-142507000D03*
D35*
X183563169Y-161187000D03*
D36*
X183563169Y-162087000D03*
D35*
X181023169Y-161187000D03*
D36*
X181023169Y-162087000D03*
D19*
X178483169Y-161187000D03*
D36*
X178483169Y-162087000D03*
D35*
X175943169Y-161187000D03*
D36*
X175943169Y-162087000D03*
D35*
X173403169Y-161187000D03*
D36*
X173403169Y-162087000D03*
D35*
X170863169Y-161187000D03*
D36*
X170863169Y-162087000D03*
D35*
X168323169Y-161187000D03*
D36*
X168323169Y-162087000D03*
D19*
X165783169Y-161187000D03*
D36*
X165783169Y-162087000D03*
D35*
X163243169Y-161187000D03*
D36*
X163243169Y-162087000D03*
D35*
X160703169Y-161187000D03*
D36*
X160703169Y-162087000D03*
D35*
X158163169Y-161187000D03*
D36*
X158163169Y-162087000D03*
D35*
X155623169Y-161187000D03*
D36*
X155623169Y-162087000D03*
D19*
X153083169Y-161187000D03*
D36*
X153083169Y-162087000D03*
D35*
X150543169Y-161187000D03*
D36*
X150543169Y-162087000D03*
D35*
X148003169Y-161187000D03*
D36*
X148003169Y-162087000D03*
D35*
X145463169Y-161187000D03*
D36*
X145463169Y-162087000D03*
D35*
X142923169Y-161187000D03*
D36*
X142923169Y-162087000D03*
D19*
X140383169Y-161187000D03*
D36*
X140383169Y-162087000D03*
D35*
X137843169Y-161187000D03*
D36*
X137843169Y-162087000D03*
D35*
X135303169Y-161187000D03*
D36*
X135303169Y-162087000D03*
D35*
X183333169Y-149757000D03*
D37*
X184233169Y-149757000D03*
D19*
X183333169Y-152297000D03*
D37*
X184233169Y-152297000D03*
D35*
X183333169Y-154837000D03*
D37*
X184233169Y-154837000D03*
D38*
X135033169Y-151397000D03*
X135033169Y-153197000D03*
%TD*%
D26*
%TO.C,D24*%
X126563169Y-64337000D03*
D33*
X124513169Y-64337000D03*
D34*
X120663169Y-64337000D03*
D29*
X118563169Y-64337000D03*
%TD*%
D39*
%TO.C,LED5*%
X53688169Y-69048000D03*
X53688169Y-70548000D03*
X59088169Y-70548000D03*
X59088169Y-69048000D03*
%TD*%
D26*
%TO.C,D28*%
X117253169Y-129717000D03*
D27*
X117253169Y-131767000D03*
D28*
X117253169Y-135617000D03*
D29*
X117253169Y-137717000D03*
%TD*%
D32*
%TO.C,LED2*%
X44808169Y-89588000D03*
X44808169Y-88088000D03*
X39408169Y-88088000D03*
X39408169Y-89588000D03*
%TD*%
D39*
%TO.C,LED12*%
X67968169Y-107128000D03*
X67968169Y-108628000D03*
X73368169Y-108628000D03*
X73368169Y-107128000D03*
%TD*%
D26*
%TO.C,D36*%
X168473169Y-127787000D03*
D27*
X168473169Y-129837000D03*
D28*
X168473169Y-133687000D03*
D29*
X168473169Y-135787000D03*
%TD*%
D26*
%TO.C,D12*%
X74520669Y-121398250D03*
D33*
X72470669Y-121398250D03*
D34*
X68620669Y-121398250D03*
D29*
X66520669Y-121398250D03*
%TD*%
D32*
%TO.C,LED31*%
X156666919Y-127668000D03*
X156666919Y-126168000D03*
X151266919Y-126168000D03*
X151266919Y-127668000D03*
%TD*%
D26*
%TO.C,D25*%
X137543169Y-83317000D03*
D33*
X135493169Y-83317000D03*
D34*
X131643169Y-83317000D03*
D29*
X129543169Y-83317000D03*
%TD*%
D26*
%TO.C,D3*%
X52133169Y-146317000D03*
D27*
X52133169Y-148367000D03*
D28*
X52133169Y-152217000D03*
D29*
X52133169Y-154317000D03*
%TD*%
D26*
%TO.C,D22*%
X111473169Y-121447000D03*
D33*
X109423169Y-121447000D03*
D34*
X105573169Y-121447000D03*
D29*
X103473169Y-121447000D03*
%TD*%
D26*
%TO.C,D33*%
X178003169Y-83377000D03*
D33*
X175953169Y-83377000D03*
D34*
X172103169Y-83377000D03*
D29*
X170003169Y-83377000D03*
%TD*%
D26*
%TO.C,D7*%
X56253169Y-121577000D03*
D33*
X54203169Y-121577000D03*
D34*
X50353169Y-121577000D03*
D29*
X48253169Y-121577000D03*
%TD*%
D26*
%TO.C,D30*%
X156143169Y-83357000D03*
D33*
X154093169Y-83357000D03*
D34*
X150243169Y-83357000D03*
D29*
X148143169Y-83357000D03*
%TD*%
D32*
%TO.C,LED13*%
X82885669Y-127668000D03*
X82885669Y-126168000D03*
X77485669Y-126168000D03*
X77485669Y-127668000D03*
%TD*%
D39*
%TO.C,LED35*%
X160794419Y-107128000D03*
X160794419Y-108628000D03*
X166194419Y-108628000D03*
X166194419Y-107128000D03*
%TD*%
D26*
%TO.C,D14*%
X55941919Y-146354500D03*
D27*
X55941919Y-148404500D03*
D28*
X55941919Y-152254500D03*
D29*
X55941919Y-154354500D03*
%TD*%
D32*
%TO.C,LED28*%
X132866919Y-127668000D03*
X132866919Y-126168000D03*
X127466919Y-126168000D03*
X127466919Y-127668000D03*
%TD*%
D26*
%TO.C,D15*%
X87883169Y-64307000D03*
D33*
X85833169Y-64307000D03*
D34*
X81983169Y-64307000D03*
D29*
X79883169Y-64307000D03*
%TD*%
D26*
%TO.C,D16*%
X98443169Y-83197000D03*
D33*
X96393169Y-83197000D03*
D34*
X92543169Y-83197000D03*
D29*
X90443169Y-83197000D03*
%TD*%
D39*
%TO.C,LED22*%
X106048169Y-107128000D03*
X106048169Y-108628000D03*
X111448169Y-108628000D03*
X111448169Y-107128000D03*
%TD*%
D32*
%TO.C,LED26*%
X140008169Y-89588000D03*
X140008169Y-88088000D03*
X134608169Y-88088000D03*
X134608169Y-89588000D03*
%TD*%
D39*
%TO.C,LED20*%
X110808169Y-69048000D03*
X110808169Y-70548000D03*
X116208169Y-70548000D03*
X116208169Y-69048000D03*
%TD*%
D26*
%TO.C,D1*%
X45133169Y-83397000D03*
D33*
X43083169Y-83397000D03*
D34*
X39233169Y-83397000D03*
D29*
X37133169Y-83397000D03*
%TD*%
D32*
%TO.C,LED34*%
X170956919Y-89588000D03*
X170956919Y-88088000D03*
X165556919Y-88088000D03*
X165556919Y-89588000D03*
%TD*%
D39*
%TO.C,LED10*%
X72728169Y-69048000D03*
X72728169Y-70548000D03*
X78128169Y-70548000D03*
X78128169Y-69048000D03*
%TD*%
D32*
%TO.C,LED11*%
X82888169Y-89588000D03*
X82888169Y-88088000D03*
X77488169Y-88088000D03*
X77488169Y-89588000D03*
%TD*%
D19*
%TO.C,J4*%
X160093169Y-65702000D03*
D35*
X157553169Y-65702000D03*
X155013169Y-65702000D03*
X152473169Y-65702000D03*
%TD*%
D32*
%TO.C,LED15*%
X87643169Y-51498000D03*
X87643169Y-49998000D03*
X82243169Y-49998000D03*
X82243169Y-51498000D03*
%TD*%
D26*
%TO.C,D6*%
X68764419Y-102357000D03*
D33*
X66714419Y-102357000D03*
D34*
X62864419Y-102357000D03*
D29*
X60764419Y-102357000D03*
%TD*%
D39*
%TO.C,LED30*%
X148888169Y-69048000D03*
X148888169Y-70548000D03*
X154288169Y-70548000D03*
X154288169Y-69048000D03*
%TD*%
D32*
%TO.C,LED4*%
X49563169Y-51498000D03*
X49563169Y-49998000D03*
X44163169Y-49998000D03*
X44163169Y-51498000D03*
%TD*%
D26*
%TO.C,D17*%
X102373169Y-102357000D03*
D33*
X100323169Y-102357000D03*
D34*
X96473169Y-102357000D03*
D29*
X94373169Y-102357000D03*
%TD*%
D40*
%TO.C,D37*%
X128201470Y-45181312D03*
D41*
X126193341Y-44769102D03*
D42*
X122421976Y-43994952D03*
D29*
X120364868Y-43572688D03*
%TD*%
D26*
%TO.C,D18*%
X95183169Y-121527000D03*
D33*
X93133169Y-121527000D03*
D34*
X89283169Y-121527000D03*
D29*
X87183169Y-121527000D03*
%TD*%
D39*
%TO.C,LED25*%
X129848169Y-69048000D03*
X129848169Y-70548000D03*
X135248169Y-70548000D03*
X135248169Y-69048000D03*
%TD*%
D26*
%TO.C,D34*%
X171943169Y-102377000D03*
D33*
X169893169Y-102377000D03*
D34*
X166043169Y-102377000D03*
D29*
X163943169Y-102377000D03*
%TD*%
D26*
%TO.C,D21*%
X119813169Y-102537000D03*
D33*
X117763169Y-102537000D03*
D34*
X113913169Y-102537000D03*
D29*
X111813169Y-102537000D03*
%TD*%
D26*
%TO.C,D19*%
X107663169Y-64270419D03*
D33*
X105613169Y-64270419D03*
D34*
X101763169Y-64270419D03*
D29*
X99663169Y-64270419D03*
%TD*%
D31*
%TO.C,JP1*%
X105443169Y-157407000D03*
X105443169Y-158707000D03*
%TD*%
D39*
%TO.C,LED16*%
X91768169Y-69048000D03*
X91768169Y-70548000D03*
X97168169Y-70548000D03*
X97168169Y-69048000D03*
%TD*%
D32*
%TO.C,LED17*%
X101928169Y-89588000D03*
X101928169Y-88088000D03*
X96528169Y-88088000D03*
X96528169Y-89588000D03*
%TD*%
D43*
%TO.C,U2*%
X97335669Y-147157000D03*
X96685669Y-147157000D03*
X96035669Y-147157000D03*
X96035669Y-144497000D03*
X97335669Y-144497000D03*
%TD*%
D26*
%TO.C,D35*%
X167843169Y-121477000D03*
D33*
X165793169Y-121477000D03*
D34*
X161943169Y-121477000D03*
D29*
X159843169Y-121477000D03*
%TD*%
D32*
%TO.C,LED29*%
X144763169Y-51498000D03*
X144763169Y-49998000D03*
X139363169Y-49998000D03*
X139363169Y-51498000D03*
%TD*%
D26*
%TO.C,D10*%
X78693169Y-83317000D03*
D33*
X76643169Y-83317000D03*
D34*
X72793169Y-83317000D03*
D29*
X70693169Y-83317000D03*
%TD*%
D30*
%TO.C,JP4*%
X89063169Y-151457000D03*
X90363169Y-151457000D03*
%TD*%
D39*
%TO.C,LED7*%
X48928169Y-107128000D03*
X48928169Y-108628000D03*
X54328169Y-108628000D03*
X54328169Y-107128000D03*
%TD*%
D26*
%TO.C,D23*%
X107933169Y-140567000D03*
D33*
X105883169Y-140567000D03*
D34*
X102033169Y-140567000D03*
D29*
X99933169Y-140567000D03*
%TD*%
D39*
%TO.C,LED1*%
X34648169Y-69048000D03*
X34648169Y-70548000D03*
X40048169Y-70548000D03*
X40048169Y-69048000D03*
%TD*%
%TO.C,LED3*%
X38875669Y-144193000D03*
X38875669Y-145693000D03*
X44275669Y-145693000D03*
X44275669Y-144193000D03*
%TD*%
D26*
%TO.C,D29*%
X145923169Y-64270419D03*
D33*
X143873169Y-64270419D03*
D34*
X140023169Y-64270419D03*
D29*
X137923169Y-64270419D03*
%TD*%
D26*
%TO.C,D4*%
X50183169Y-64367000D03*
D33*
X48133169Y-64367000D03*
D34*
X44283169Y-64367000D03*
D29*
X42183169Y-64367000D03*
%TD*%
D39*
%TO.C,LED27*%
X125088169Y-107128000D03*
X125088169Y-108628000D03*
X130488169Y-108628000D03*
X130488169Y-107128000D03*
%TD*%
D26*
%TO.C,D20*%
X117763169Y-83257000D03*
D33*
X115713169Y-83257000D03*
D34*
X111863169Y-83257000D03*
D29*
X109763169Y-83257000D03*
%TD*%
D32*
%TO.C,LED19*%
X106683169Y-51498000D03*
X106683169Y-49998000D03*
X101283169Y-49998000D03*
X101283169Y-51498000D03*
%TD*%
D39*
%TO.C,LED14*%
X63625669Y-144193000D03*
X63625669Y-145693000D03*
X69025669Y-145693000D03*
X69025669Y-144193000D03*
%TD*%
D26*
%TO.C,D8*%
X52980669Y-140468250D03*
D33*
X50930669Y-140468250D03*
D34*
X47080669Y-140468250D03*
D29*
X44980669Y-140468250D03*
%TD*%
D26*
%TO.C,D27*%
X131103169Y-121547000D03*
D33*
X129053169Y-121547000D03*
D34*
X125203169Y-121547000D03*
D29*
X123103169Y-121547000D03*
%TD*%
D26*
%TO.C,D26*%
X140143169Y-102397000D03*
D33*
X138093169Y-102397000D03*
D34*
X134243169Y-102397000D03*
D29*
X132143169Y-102397000D03*
%TD*%
D32*
%TO.C,LED8*%
X51944419Y-127668000D03*
X51944419Y-126168000D03*
X46544419Y-126168000D03*
X46544419Y-127668000D03*
%TD*%
D39*
%TO.C,LED18*%
X87008169Y-107128000D03*
X87008169Y-108628000D03*
X92408169Y-108628000D03*
X92408169Y-107128000D03*
%TD*%
D26*
%TO.C,D2*%
X54973169Y-102467000D03*
D33*
X52923169Y-102467000D03*
D34*
X49073169Y-102467000D03*
D29*
X46973169Y-102467000D03*
%TD*%
D32*
%TO.C,LED9*%
X68603169Y-51498000D03*
X68603169Y-49998000D03*
X63203169Y-49998000D03*
X63203169Y-51498000D03*
%TD*%
D44*
%TO.C,C1*%
X94573169Y-129349500D03*
X94573169Y-133624500D03*
%TD*%
D32*
%TO.C,LED23*%
X109066919Y-127668000D03*
X109066919Y-126168000D03*
X103666919Y-126168000D03*
X103666919Y-127668000D03*
%TD*%
D26*
%TO.C,D32*%
X174893169Y-64277000D03*
D33*
X172843169Y-64277000D03*
D34*
X168993169Y-64277000D03*
D29*
X166893169Y-64277000D03*
%TD*%
D26*
%TO.C,D5*%
X60023169Y-83257000D03*
D33*
X57973169Y-83257000D03*
D34*
X54123169Y-83257000D03*
D29*
X52023169Y-83257000D03*
%TD*%
D44*
%TO.C,C2*%
X128623169Y-34309500D03*
X128623169Y-38584500D03*
%TD*%
D39*
%TO.C,LED33*%
X172700669Y-69048000D03*
X172700669Y-70548000D03*
X178100669Y-70548000D03*
X178100669Y-69048000D03*
%TD*%
D26*
%TO.C,D13*%
X83840669Y-140598250D03*
D33*
X81790669Y-140598250D03*
D34*
X77940669Y-140598250D03*
D29*
X75840669Y-140598250D03*
%TD*%
D32*
%TO.C,LED6*%
X63848169Y-89588000D03*
X63848169Y-88088000D03*
X58448169Y-88088000D03*
X58448169Y-89588000D03*
%TD*%
M02*
