0
SECTION
2
HEADER
9
$INSUNITS
70
4
9
$ACADVER
1
AC1014
9
$HANDSEED
5
FFFF
0
ENDSEC
0
SECTION
2
TABLES
0
TABLE
2
VPORT
5
8
100
AcDbSymbolTable
0
ENDTAB
0
TABLE
2
LTYPE
5
5
100
AcDbSymbolTable
0
LTYPE
5
14
100
AcDbSymbolTableRecord
100
AcDbLinetypeTableRecord
2
BYBLOCK
70
0
0
LTYPE
5
15
100
AcDbSymbolTableRecord
100
AcDbLinetypeTableRecord
2
BYLAYER
70
0
0
LTYPE
5
16
100
AcDbSymbolTableRecord
100
AcDbLinetypeTableRecord
2
DASHED
70
0
3
Dashed __ __ __ __ __ __ __ __ __ __ __ __ __ _
72
65
73
2
40
0.75
49
0.5
74
0
49
-0.25
74
0
0
ENDTAB
0
TABLE
2
LAYER
5
2
100
AcDbSymbolTable
70
2
0
LAYER
5
50
100
AcDbSymbolTableRecord
100
AcDbLayerTableRecord
2
0
70
0
62
7
6
CONTINUOUS
0
ENDTAB
0
TABLE
2
STYLE
5
3
100
AcDbSymbolTable
70
1
0
STYLE
5
11
100
AcDbSymbolTableRecord
100
AcDbTextStyleTableRecord
2
STANDARD
70
0
0
ENDTAB
0
TABLE
2
VIEW
5
6
100
AcDbSymbolTable
70
0
0
ENDTAB
0
TABLE
2
UCS
5
7
100
AcDbSymbolTable
70
0
0
ENDTAB
0
TABLE
2
APPID
5
9
100
AcDbSymbolTable
70
2
0
APPID
5
12
100
AcDbSymbolTableRecord
100
AcDbRegAppTableRecord
2
ACAD
70
0
0
ENDTAB
0
TABLE
2
DIMSTYLE
5
A
100
AcDbSymbolTable
70
1
0
ENDTAB
0
TABLE
2
BLOCK_RECORD
5
1
100
AcDbSymbolTable
70
1
0
BLOCK_RECORD
5
1F
100
AcDbSymbolTableRecord
100
AcDbBlockTableRecord
2
*MODEL_SPACE
0
BLOCK_RECORD
5
1B
100
AcDbSymbolTableRecord
100
AcDbBlockTableRecord
2
*PAPER_SPACE
0
ENDTAB
0
ENDSEC
0
SECTION
2
BLOCKS
0
BLOCK
5
20
100
AcDbEntity
100
AcDbBlockBegin
2
*MODEL_SPACE
0
ENDBLK
5
21
100
AcDbEntity
100
AcDbBlockEnd
0
BLOCK
5
1C
100
AcDbEntity
100
AcDbBlockBegin
2
*PAPER_SPACE
0
ENDBLK
5
1D
100
AcDbEntity
100
AcDbBlockEnd
0
ENDSEC
0
SECTION
2
ENTITIES
0
LWPOLYLINE
5
100
100
AcDbEntity
8
0
100
AcDbPolyline
90
22
70
1
43
0.0
10
-130.15700000000004
20
-59.08309999997946
10
-130.15700000000004
20
-77.459100000000007
10
-125.39400000000001
20
-77.459100000000007
10
-125.39400000000001
20
-94.033799999999999
10
-134.91899999999998
20
-94.033799999999999
10
-134.91899999999998
20
-114.55900000003555
10
0.080349999999960176
20
-114.55900000003555
10
0.080349999999995703
20
-17.71050470902054
10
-77.744999999990412
20
-17.710504709020512
10
-77.744999999981545
20
-1.3340500000001665
10
-129.68300000007051
20
-1.3340500000001398
10
-129.68300000007054
20
-17.633700000000001
42
-0.41421356237308982
10
-131.18300000007054
20
-19.133700000000001
10
-146.70620000004538
20
-19.133700000000001
42
0.41421356237309509
10
-148.20620000004541
20
-20.633699999999997
10
-148.20620000004536
20
-36.068443706494918
42
-0.41421356237309759
10
-149.70620000004538
20
-37.568443706494918
10
-155.98861875193293
20
-37.568443706494918
42
0.41421356237309509
10
-157.48861875193293
20
-39.068443706494918
10
-157.4886187519329
20
-56.083099999979453
42
0.41421356237309509
10
-155.9886187519329
20
-57.583099999979453
10
-131.65700000000001
20
-57.583099999979474
42
-0.4142135623730881
0
LWPOLYLINE
5
101
100
AcDbEntity
8
0
100
AcDbPolyline
90
4
70
1
43
0.0
10
-119.01220000004469
20
-21.833438871411104
10
-105.01220000000001
20
-21.833438871410912
10
-105.01220000000001
20
-35.833438871411062
10
-119.01220000004466
20
-35.833438871411104
0
LWPOLYLINE
5
102
100
AcDbEntity
8
0
100
AcDbPolyline
90
4
70
1
43
0.0
10
-90.437100000000015
20
-21.833438871410916
10
-76.437099997462354
20
-21.83343887141088
10
-76.437099997462383
20
-35.833438871410884
10
-90.437100000000029
20
-35.83343887141092
0
LWPOLYLINE
5
103
100
AcDbEntity
8
0
100
AcDbPolyline
90
4
70
1
43
0.0
10
-92.819000000000003
20
-98.033800000000014
10
-78.819699999999997
20
-98.033800000000014
10
-78.819699999999997
20
-112.03299999999999
10
-92.819000000000003
20
-112.03299999999999
0
LWPOLYLINE
5
104
100
AcDbEntity
8
0
100
AcDbPolyline
90
4
70
1
43
0.0
10
-130.91899999999998
20
-98.033800000000014
10
-116.91800000000001
20
-98.033800000000014
10
-116.91800000000001
20
-112.03299999999999
10
-130.91899999999998
20
-112.03299999999999
0
LWPOLYLINE
5
105
100
AcDbEntity
8
0
100
AcDbPolyline
90
4
70
1
43
0.0
10
-73.768999999999991
20
-98.033800000000014
10
-59.769700000000014
20
-98.033800000000014
10
-59.769700000000014
20
-112.03299999999999
10
-73.768999999999991
20
-112.03299999999999
0
LWPOLYLINE
5
106
100
AcDbEntity
8
0
100
AcDbPolyline
90
4
70
1
43
0.0
10
-111.86900000000001
20
-98.033800000000014
10
-97.868300000000019
20
-98.033800000000014
10
-97.868300000000019
20
-112.03299999999999
10
-111.86900000000001
20
-112.03299999999999
0
CIRCLE
5
107
100
AcDbEntity
8
0
100
AcDbCircle
10
-23.905933400059514
20
-28.833448327153729
30
0
40
1.1499999999999977
210
0
220
-0
230
1
0
CIRCLE
5
108
100
AcDbEntity
8
0
100
AcDbCircle
10
-29.860050000000001
20
-66.933449999999993
30
0
40
1.1499999999999977
210
0
220
-0
230
1
0
CIRCLE
5
109
100
AcDbEntity
8
0
100
AcDbCircle
10
-82.744999999984103
20
-10.833438871413614
30
0
40
1.1500000000000021
210
0
220
-0
230
1
0
LWPOLYLINE
5
110
100
AcDbEntity
8
0
100
AcDbPolyline
90
4
70
1
43
0.0
10
-126.49499999998153
20
-3.8334388714109036
10
-112.49499999998152
20
-3.8334388714109036
10
-112.49499999998152
20
-17.833438871410902
10
-126.49499999998153
20
-17.833438871410905
0
CIRCLE
5
111
100
AcDbEntity
8
0
100
AcDbCircle
10
-90.581850000000017
20
-66.933449999999993
30
0
40
1.1500000000000021
210
0
220
-0
230
1
0
LWPOLYLINE
5
112
100
AcDbEntity
8
0
100
AcDbPolyline
90
4
70
1
43
0.0
10
-101.74499999998153
20
-3.8334388714109036
10
-87.74499999998153
20
-3.8334388714109036
10
-87.74499999998153
20
-17.833438871410902
10
-101.74499999998153
20
-17.833438871410902
0
CIRCLE
5
113
100
AcDbEntity
8
0
100
AcDbCircle
10
-41.554050000000004
20
-47.883449999999996
30
0
40
1.1499999999999932
210
0
220
-0
230
1
0
CIRCLE
5
114
100
AcDbEntity
8
0
100
AcDbCircle
10
-95.343650000000011
20
-105.0334
30
0
40
1.1500000000000021
210
0
220
-0
230
1
0
CIRCLE
5
115
100
AcDbEntity
8
0
100
AcDbCircle
10
-38.19435
20
-105.0334
30
0
40
1.1500000000000021
210
0
220
-0
230
1
0
LWPOLYLINE
5
116
100
AcDbEntity
8
0
100
AcDbPolyline
90
4
70
1
43
0.0
10
-121.39400000000001
20
-78.983800000000002
10
-107.395
20
-78.983800000000002
10
-107.395
20
-92.983099999999993
10
-121.39400000000001
20
-92.983099999999993
0
LWPOLYLINE
5
117
100
AcDbEntity
8
0
100
AcDbPolyline
90
4
70
1
43
0.0
10
-21.381700000000006
20
-78.983800000000002
10
-7.3821599999999954
20
-78.983800000000002
10
-7.3821599999999954
20
-92.983099999999993
10
-21.381700000000006
20
-92.983099999999993
0
LWPOLYLINE
5
118
100
AcDbEntity
8
0
100
AcDbPolyline
90
4
70
1
43
0.0
10
-126.15700000000002
20
-59.933800000000005
10
-112.15700000000001
20
-59.933800000000005
10
-112.15700000000001
20
-73.933099999999996
10
-126.15700000000002
20
-73.933099999999996
0
LWPOLYLINE
5
119
100
AcDbEntity
8
0
100
AcDbPolyline
90
4
70
1
43
0.0
10
-54.718999999999994
20
-98.033800000000014
10
-40.719700000000003
20
-98.033800000000014
10
-40.719700000000003
20
-112.03299999999999
10
-54.718999999999994
20
-112.03299999999999
0
CIRCLE
5
120
100
AcDbEntity
8
0
100
AcDbCircle
10
-125.10920000004484
20
-28.833438871411108
30
0
40
1.1500000000000021
210
0
220
-0
230
1
0
LWPOLYLINE
5
121
100
AcDbEntity
8
0
100
AcDbPolyline
90
4
70
1
43
0.0
10
-45.19400000000001
20
-78.983800000000002
10
-31.194699999999997
20
-78.983800000000002
10
-31.194699999999997
20
-92.983099999999993
10
-45.19400000000001
20
-92.983099999999993
0
LWPOLYLINE
5
122
100
AcDbEntity
8
0
100
AcDbPolyline
90
4
70
1
43
0.0
10
-35.669000000000004
20
-98.033800000000014
10
-21.669699999999992
20
-98.033800000000014
10
-21.669699999999992
20
-112.03299999999999
10
-35.669000000000004
20
-112.03299999999999
0
LWPOLYLINE
5
123
100
AcDbEntity
8
0
100
AcDbPolyline
90
4
70
1
43
0.0
10
-23.762900000000009
20
-59.933800000000005
10
-9.7620299999999993
20
-59.933800000000005
10
-9.7620299999999993
20
-73.933099999999996
10
-23.762900000000009
20
-73.933099999999996
0
LWPOLYLINE
5
124
100
AcDbEntity
8
0
100
AcDbPolyline
90
4
70
1
43
0.0
10
-135.68200000000002
20
-40.883800000000001
10
-121.682
20
-40.883800000000001
10
-121.682
20
-54.883099999999999
10
-135.68200000000002
20
-54.883099999999999
0
LWPOLYLINE
5
125
100
AcDbEntity
8
0
100
AcDbPolyline
90
4
70
1
43
0.0
10
-154.72973953853315
20
-54.880458021738825
10
-154.72779769485527
20
-40.881158156322137
10
-140.72979239197966
20
-40.88309982043117
10
-140.72979239197969
20
-54.880458021645573
0
LWPOLYLINE
5
126
100
AcDbEntity
8
0
100
AcDbPolyline
90
4
70
1
43
0.0
10
-116.63200000000002
20
-40.883800000000001
10
-102.63200000000001
20
-40.883800000000001
10
-102.63200000000001
20
-54.883099999999999
10
-116.63200000000002
20
-54.883099999999999
0
LWPOLYLINE
5
127
100
AcDbEntity
8
0
100
AcDbPolyline
90
4
70
1
43
0.0
10
-102.34400000000001
20
-78.983800000000002
10
-88.344700000000017
20
-78.983800000000002
10
-88.344700000000017
20
-92.983099999999993
10
-102.34400000000001
20
-92.983099999999993
0
LWPOLYLINE
5
128
100
AcDbEntity
8
0
100
AcDbPolyline
90
4
70
1
43
0.0
10
-83.293999999999997
20
-78.983800000000002
10
-69.29470000000002
20
-78.983800000000002
10
-69.29470000000002
20
-92.983099999999993
10
-83.293999999999997
20
-92.983099999999993
0
LWPOLYLINE
5
129
100
AcDbEntity
8
0
100
AcDbPolyline
90
4
70
1
43
0.0
10
-64.244
20
-78.983800000000002
10
-50.244700000000009
20
-78.983800000000002
10
-50.244700000000009
20
-92.983099999999993
10
-64.244
20
-92.983099999999993
0
LWPOLYLINE
5
130
100
AcDbEntity
8
0
100
AcDbPolyline
90
36
70
1
43
0.0
10
-14.525900000000007
20
-54.883099999999999
10
-28.525400000000012
20
-54.883099999999999
10
-28.525400000000012
20
-50.182600000000008
10
-30.050899999999992
20
-50.182600000000008
10
-30.050899999999992
20
-53.412700000000008
10
-36.800399999999996
20
-53.412700000000008
10
-36.800399999999996
20
-50.182600000000008
10
-37.625899999999994
20
-50.182600000000008
10
-37.625899999999994
20
-47.383699999999997
10
-36.800399999999996
20
-47.383699999999997
10
-36.800399999999996
20
-41.113799999999998
10
-35.075199999999995
20
-41.113799999999998
10
-35.075199999999995
20
-39.913600000000002
10
-31.774799999999992
20
-39.913600000000002
10
-31.774799999999992
20
-41.113799999999998
10
-30.050899999999992
20
-41.113799999999998
10
-30.050899999999992
20
-45.58420000000001
10
-28.525400000000012
20
-45.58420000000001
10
-28.525400000000012
20
-40.883800000000001
10
-14.525900000000007
20
-40.883800000000001
10
-14.525900000000007
20
-45.58420000000001
10
-13.000399999999992
20
-45.58420000000001
10
-13.000399999999992
20
-41.113799999999998
10
-11.275100000000009
20
-41.113799999999998
10
-11.275100000000009
20
-39.913600000000002
10
-7.9760899999999957
20
-39.913600000000002
10
-7.9760899999999957
20
-41.113799999999998
10
-6.2508000000000052
20
-41.113799999999998
10
-6.2508000000000052
20
-47.383699999999997
10
-5.425330000000006
20
-47.383699999999997
10
-5.425330000000006
20
-50.182600000000008
10
-6.2508000000000052
20
-50.182600000000008
10
-6.2508000000000052
20
-53.412700000000008
10
-13.000399999999992
20
-53.412700000000008
10
-13.000399999999992
20
-50.182600000000008
10
-14.525900000000007
20
-50.182600000000008
0
LWPOLYLINE
5
131
100
AcDbEntity
8
0
100
AcDbPolyline
90
4
70
1
43
0.0
10
-88.0565
20
-59.933800000000005
10
-74.057199999999995
20
-59.933800000000005
10
-74.057199999999995
20
-73.933099999999996
10
-88.0565
20
-73.933099999999996
0
LWPOLYLINE
5
132
100
AcDbEntity
8
0
100
AcDbPolyline
90
4
70
1
43
0.0
10
-49.956500000000013
20
-59.933800000000005
10
-35.9572
20
-59.933800000000005
10
-35.9572
20
-73.933099999999996
10
-49.956500000000013
20
-73.933099999999996
0
CIRCLE
5
133
100
AcDbEntity
8
0
100
AcDbCircle
10
-3.6408400000000132
20
-64.677404261985714
30
0
40
1.1499999999999986
210
0
220
-0
230
1
0
LWPOLYLINE
5
134
100
AcDbEntity
8
0
100
AcDbPolyline
90
4
70
1
43
0.0
10
-59.481499999999997
20
-40.883800000000001
10
-45.482200000000006
20
-40.883800000000001
10
-45.482200000000006
20
-54.883099999999999
10
-59.481499999999997
20
-54.883099999999999
0
LWPOLYLINE
5
135
100
AcDbEntity
8
0
100
AcDbPolyline
90
4
70
1
43
0.0
10
-69.006500000000003
20
-59.933800000000005
10
-55.007200000000012
20
-59.933800000000005
10
-55.007200000000012
20
-73.933099999999996
10
-69.006500000000003
20
-73.933099999999996
0
LWPOLYLINE
5
136
100
AcDbEntity
8
0
100
AcDbPolyline
90
4
70
1
43
0.0
10
-107.10700000000003
20
-59.933800000000005
10
-93.10720000000002
20
-59.933800000000005
10
-93.10720000000002
20
-73.933099999999996
10
-107.10700000000003
20
-73.933099999999996
0
LWPOLYLINE
5
137
100
AcDbEntity
8
0
100
AcDbPolyline
90
4
70
1
43
0.0
10
-97.581500000000005
20
-40.883800000000001
10
-83.582200000000014
20
-40.883800000000001
10
-83.582200000000014
20
-54.883099999999999
10
-97.581500000000005
20
-54.883099999999999
0
LWPOLYLINE
5
138
100
AcDbEntity
8
0
100
AcDbPolyline
90
4
70
1
43
0.0
10
-16.619200000000003
20
-98.033800000000014
10
-2.61965
20
-98.033800000000014
10
-2.61965
20
-112.03299999999999
10
-16.619200000000003
20
-112.03299999999999
0
LWPOLYLINE
5
139
100
AcDbEntity
8
0
100
AcDbPolyline
90
4
70
1
43
0.0
10
-78.531499999999994
20
-40.883800000000001
10
-64.532200000000017
20
-40.883800000000001
10
-64.532200000000017
20
-54.883099999999999
10
-78.531499999999994
20
-54.883099999999999
0
LWPOLYLINE
5
140
100
AcDbEntity
8
0
100
AcDbPolyline
90
4
70
1
43
0.0
10
-42.812018405862311
20
-21.833448327153732
10
-28.812018413936435
20
-21.833448327153725
10
-28.812018413936435
20
-35.833448327153732
10
-42.812018405862311
20
-35.833448327153732
0
LWPOLYLINE
5
141
100
AcDbEntity
8
0
100
AcDbPolyline
90
4
70
1
43
0.0
10
-66.626091346962369
20
-21.833438871410877
10
-52.626091346962326
20
-21.833448327153732
10
-52.626091346962355
20
-35.8334483110023
10
-66.626091346962369
20
-35.833448311002286
0
LWPOLYLINE
5
142
100
AcDbEntity
8
0
100
AcDbPolyline
90
4
70
1
43
0.0
10
-18.999848386182574
20
-21.833448327153725
10
-4.9998483861825704
20
-21.833448327153725
10
-4.9998483861825704
20
-35.833448327153725
10
-18.999848386182574
20
-35.833448327153732
0
LWPOLYLINE
5
143
100
AcDbEntity
8
0
100
AcDbPolyline
90
4
70
1
43
0.0
10
-145.20620000004521
20
-21.833438871411481
10
-131.2062000000447
20
-21.833438871411101
10
-131.20620000004533
20
-35.833438871411104
10
-145.2062000000453
20
-35.833438871409257
0
ENDSEC
0
SECTION
2
OBJECTS
0
DICTIONARY
5
C
100
AcDbDictionary
3
ACAD_GROUP
350
D
3
ACAD_MLINESTYLE
350
17
0
DICTIONARY
5
D
100
AcDbDictionary
0
DICTIONARY
5
1A
330
C
100
AcDbDictionary
0
DICTIONARY
5
17
100
AcDbDictionary
0
ENDSEC
0
EOF
