%TF.GenerationSoftware,KiCad,Pcbnew,8.0.7*%
%TF.CreationDate,2025-05-31T19:51:50+02:00*%
%TF.ProjectId,pcb_keyboard_dx,7063625f-6b65-4796-926f-6172645f6478,rev?*%
%TF.SameCoordinates,Original*%
%TF.FileFunction,Profile,NP*%
%FSLAX46Y46*%
G04 Gerber Fmt 4.6, Leading zero omitted, Abs format (unit mm)*
G04 Created by KiCad (PCBNEW 8.0.7) date 2025-05-31 19:51:50*
%MOMM*%
%LPD*%
G01*
G04 APERTURE LIST*
%TA.AperFunction,Profile*%
%ADD10C,0.100000*%
%TD*%
%TA.AperFunction,Profile*%
%ADD11C,0.050000*%
%TD*%
%TA.AperFunction,Profile*%
%ADD12C,0.120000*%
%TD*%
G04 APERTURE END LIST*
D10*
X102964254Y-22871195D02*
X93463964Y-22871195D01*
X173366112Y-28243203D02*
G75*
G02*
X174963957Y-30202355I-402212J-1959197D01*
G01*
X92463964Y-21371195D02*
X86463964Y-21371195D01*
D11*
X120559750Y-143167000D02*
G75*
G02*
X116959750Y-143167000I-1800000J0D01*
G01*
X116959750Y-143167000D02*
G75*
G02*
X120559750Y-143167000I1800000J0D01*
G01*
D10*
X38363964Y-39571214D02*
X38363964Y-55514714D01*
X85963964Y-36371214D02*
G75*
G02*
X84757212Y-37571145I-1199964J14D01*
G01*
X116338890Y-16932736D02*
G75*
G02*
X117575729Y-16791114I834610J-1817264D01*
G01*
X36164064Y-90714764D02*
G75*
G02*
X34163987Y-88728856I36J2000164D01*
G01*
X31164064Y-71714764D02*
X32963964Y-71714764D01*
X185963964Y-135164614D02*
X185963964Y-39571194D01*
X173366112Y-28243203D02*
X117575736Y-16791084D01*
X31164064Y-71714764D02*
G75*
G02*
X29163987Y-69728856I36J2000164D01*
G01*
X40363964Y-37571214D02*
X40363964Y-37571195D01*
X167963964Y-135664614D02*
X185463964Y-135664614D01*
X185963964Y-157164614D02*
X185963964Y-151164614D01*
X183963964Y-37571195D02*
G75*
G02*
X185964005Y-39571194I36J-2000005D01*
G01*
X42152910Y-114114764D02*
X35363964Y-114114764D01*
X43363964Y-91914764D02*
X43363964Y-112914714D01*
X36164064Y-90714764D02*
X42163964Y-90714764D01*
X33363964Y-116114714D02*
G75*
G02*
X35363964Y-114114764I1999986J-36D01*
G01*
X174963964Y-37571195D02*
X174963964Y-30202355D01*
X38363964Y-55514714D02*
G75*
G02*
X37152910Y-56714715I-1200164J114D01*
G01*
X183963964Y-37571195D02*
X174963964Y-37571195D01*
X84757212Y-37571195D02*
X40363964Y-37571195D01*
X86463964Y-21371214D02*
X86463964Y-21371195D01*
D11*
X76814750Y-45657000D02*
G75*
G02*
X73214750Y-45657000I-1800000J0D01*
G01*
X73214750Y-45657000D02*
G75*
G02*
X76814750Y-45657000I1800000J0D01*
G01*
D10*
X35363964Y-157164614D02*
G75*
G02*
X33363986Y-155164614I36J2000014D01*
G01*
X103806141Y-22688699D02*
G75*
G02*
X102964254Y-22871178I-834641J1817399D01*
G01*
X185463964Y-150664614D02*
G75*
G02*
X185963986Y-151164614I36J-499986D01*
G01*
X43363964Y-112914714D02*
G75*
G02*
X42152910Y-114114715I-1200164J114D01*
G01*
X93463964Y-22871195D02*
G75*
G02*
X92964005Y-22371195I36J499995D01*
G01*
D11*
X79712250Y-139852000D02*
G75*
G02*
X76112250Y-139852000I-1800000J0D01*
G01*
X76112250Y-139852000D02*
G75*
G02*
X79712250Y-139852000I1800000J0D01*
G01*
X108929750Y-24137000D02*
X137999750Y-24137000D01*
X137999750Y-30497000D01*
X108929750Y-30497000D01*
X108929750Y-24137000D01*
X133934750Y-45657000D02*
G75*
G02*
X130334750Y-45657000I-1800000J0D01*
G01*
X130334750Y-45657000D02*
G75*
G02*
X133934750Y-45657000I1800000J0D01*
G01*
D10*
X92463964Y-21371195D02*
G75*
G02*
X92963987Y-21866972I36J-500005D01*
G01*
X167963964Y-150664614D02*
G75*
G02*
X167463986Y-150164614I36J500014D01*
G01*
X85963964Y-21871214D02*
X85963964Y-36371214D01*
D11*
X97379750Y-143297000D02*
G75*
G02*
X93779750Y-143297000I-1800000J0D01*
G01*
X93779750Y-143297000D02*
G75*
G02*
X97379750Y-143297000I1800000J0D01*
G01*
D10*
X167463964Y-136164614D02*
G75*
G02*
X167963964Y-135664564I500036J14D01*
G01*
X42163964Y-90714764D02*
G75*
G02*
X43363936Y-91914764I-64J-1200036D01*
G01*
X167463964Y-150164614D02*
X167463964Y-136164614D01*
X34163964Y-72914764D02*
X34163964Y-88728856D01*
X32963964Y-71714764D02*
G75*
G02*
X34163936Y-72914764I-64J-1200036D01*
G01*
X116338890Y-16932736D02*
X103806141Y-22688699D01*
X29163964Y-58714714D02*
X29163964Y-69728856D01*
X37152910Y-56714764D02*
X31163964Y-56714764D01*
X185963964Y-135164614D02*
G75*
G02*
X185463964Y-135664564I-499964J14D01*
G01*
X33363964Y-116114714D02*
X33363964Y-155164614D01*
D11*
X66101000Y-125827000D02*
G75*
G02*
X62501000Y-125827000I-1800000J0D01*
G01*
X62501000Y-125827000D02*
G75*
G02*
X66101000Y-125827000I1800000J0D01*
G01*
D10*
X92963964Y-22371195D02*
X92963964Y-21866972D01*
X38363964Y-39571214D02*
G75*
G02*
X40363964Y-37571164I2000036J14D01*
G01*
D11*
X143494750Y-121847000D02*
G75*
G02*
X139894750Y-121847000I-1800000J0D01*
G01*
X139894750Y-121847000D02*
G75*
G02*
X143494750Y-121847000I1800000J0D01*
G01*
D10*
X85963964Y-21871214D02*
G75*
G02*
X86463964Y-21371164I500036J14D01*
G01*
X185463964Y-150664614D02*
X167963964Y-150664614D01*
D11*
X72059750Y-83747000D02*
G75*
G02*
X68459750Y-83747000I-1800000J0D01*
G01*
X68459750Y-83747000D02*
G75*
G02*
X72059750Y-83747000I1800000J0D01*
G01*
D10*
X117575733Y-16791097D02*
X117575736Y-16791084D01*
X29163964Y-58714714D02*
G75*
G02*
X31163964Y-56714764I1999986J-36D01*
G01*
D11*
X149194750Y-83747000D02*
G75*
G02*
X145594750Y-83747000I-1800000J0D01*
G01*
X145594750Y-83747000D02*
G75*
G02*
X149194750Y-83747000I1800000J0D01*
G01*
D10*
X35363964Y-157164614D02*
X185963964Y-157164614D01*
D12*
%TO.C,LED21*%
X116154750Y-77308000D02*
X116154750Y-80308000D01*
X116154750Y-80308000D02*
X119554750Y-80308000D01*
X119554750Y-77308000D02*
X116154750Y-77308000D01*
X119554750Y-80308000D02*
X119554750Y-77308000D01*
%TO.C,LED32*%
X168524750Y-39218000D02*
X168524750Y-42218000D01*
X168524750Y-42218000D02*
X171924750Y-42218000D01*
X171924750Y-39218000D02*
X168524750Y-39218000D01*
X171924750Y-42218000D02*
X171924750Y-39218000D01*
%TO.C,LED36*%
X175668500Y-115388000D02*
X175668500Y-118388000D01*
X175668500Y-118388000D02*
X179068500Y-118388000D01*
X179068500Y-115388000D02*
X175668500Y-115388000D01*
X179068500Y-118388000D02*
X179068500Y-115388000D01*
%TO.C,LED24*%
X120909750Y-39218000D02*
X120909750Y-42218000D01*
X120909750Y-42218000D02*
X124309750Y-42218000D01*
X124309750Y-39218000D02*
X120909750Y-39218000D01*
X124309750Y-42218000D02*
X124309750Y-39218000D01*
%TO.C,LED5*%
X54274750Y-58268000D02*
X54274750Y-61268000D01*
X54274750Y-61268000D02*
X57674750Y-61268000D01*
X57674750Y-58268000D02*
X54274750Y-58268000D01*
X57674750Y-61268000D02*
X57674750Y-58268000D01*
%TO.C,LED2*%
X39994750Y-77308000D02*
X39994750Y-80308000D01*
X39994750Y-80308000D02*
X43394750Y-80308000D01*
X43394750Y-77308000D02*
X39994750Y-77308000D01*
X43394750Y-80308000D02*
X43394750Y-77308000D01*
%TO.C,LED12*%
X68554750Y-96348000D02*
X68554750Y-99348000D01*
X68554750Y-99348000D02*
X71954750Y-99348000D01*
X71954750Y-96348000D02*
X68554750Y-96348000D01*
X71954750Y-99348000D02*
X71954750Y-96348000D01*
%TO.C,LED31*%
X151853500Y-115388000D02*
X151853500Y-118388000D01*
X151853500Y-118388000D02*
X155253500Y-118388000D01*
X155253500Y-115388000D02*
X151853500Y-115388000D01*
X155253500Y-118388000D02*
X155253500Y-115388000D01*
%TO.C,LED13*%
X78072250Y-115388000D02*
X78072250Y-118388000D01*
X78072250Y-118388000D02*
X81472250Y-118388000D01*
X81472250Y-115388000D02*
X78072250Y-115388000D01*
X81472250Y-118388000D02*
X81472250Y-115388000D01*
%TO.C,LED35*%
X161381000Y-96348000D02*
X161381000Y-99348000D01*
X161381000Y-99348000D02*
X164781000Y-99348000D01*
X164781000Y-96348000D02*
X161381000Y-96348000D01*
X164781000Y-99348000D02*
X164781000Y-96348000D01*
%TO.C,LED28*%
X128053500Y-115388000D02*
X128053500Y-118388000D01*
X128053500Y-118388000D02*
X131453500Y-118388000D01*
X131453500Y-115388000D02*
X128053500Y-115388000D01*
X131453500Y-118388000D02*
X131453500Y-115388000D01*
%TO.C,LED22*%
X106634750Y-96348000D02*
X106634750Y-99348000D01*
X106634750Y-99348000D02*
X110034750Y-99348000D01*
X110034750Y-96348000D02*
X106634750Y-96348000D01*
X110034750Y-99348000D02*
X110034750Y-96348000D01*
%TO.C,LED26*%
X135194750Y-77308000D02*
X135194750Y-80308000D01*
X135194750Y-80308000D02*
X138594750Y-80308000D01*
X138594750Y-77308000D02*
X135194750Y-77308000D01*
X138594750Y-80308000D02*
X138594750Y-77308000D01*
%TO.C,LED20*%
X111394750Y-58268000D02*
X111394750Y-61268000D01*
X111394750Y-61268000D02*
X114794750Y-61268000D01*
X114794750Y-58268000D02*
X111394750Y-58268000D01*
X114794750Y-61268000D02*
X114794750Y-58268000D01*
%TO.C,LED34*%
X166143500Y-77308000D02*
X166143500Y-80308000D01*
X166143500Y-80308000D02*
X169543500Y-80308000D01*
X169543500Y-77308000D02*
X166143500Y-77308000D01*
X169543500Y-80308000D02*
X169543500Y-77308000D01*
%TO.C,LED10*%
X73314750Y-58268000D02*
X73314750Y-61268000D01*
X73314750Y-61268000D02*
X76714750Y-61268000D01*
X76714750Y-58268000D02*
X73314750Y-58268000D01*
X76714750Y-61268000D02*
X76714750Y-58268000D01*
%TO.C,LED11*%
X78074750Y-77308000D02*
X78074750Y-80308000D01*
X78074750Y-80308000D02*
X81474750Y-80308000D01*
X81474750Y-77308000D02*
X78074750Y-77308000D01*
X81474750Y-80308000D02*
X81474750Y-77308000D01*
%TO.C,LED15*%
X82829750Y-39218000D02*
X82829750Y-42218000D01*
X82829750Y-42218000D02*
X86229750Y-42218000D01*
X86229750Y-39218000D02*
X82829750Y-39218000D01*
X86229750Y-42218000D02*
X86229750Y-39218000D01*
%TO.C,LED30*%
X149474750Y-58268000D02*
X149474750Y-61268000D01*
X149474750Y-61268000D02*
X152874750Y-61268000D01*
X152874750Y-58268000D02*
X149474750Y-58268000D01*
X152874750Y-61268000D02*
X152874750Y-58268000D01*
%TO.C,LED4*%
X44749750Y-39218000D02*
X44749750Y-42218000D01*
X44749750Y-42218000D02*
X48149750Y-42218000D01*
X48149750Y-39218000D02*
X44749750Y-39218000D01*
X48149750Y-42218000D02*
X48149750Y-39218000D01*
%TO.C,LED25*%
X130434750Y-58268000D02*
X130434750Y-61268000D01*
X130434750Y-61268000D02*
X133834750Y-61268000D01*
X133834750Y-58268000D02*
X130434750Y-58268000D01*
X133834750Y-61268000D02*
X133834750Y-58268000D01*
%TO.C,LED16*%
X92354750Y-58268000D02*
X92354750Y-61268000D01*
X92354750Y-61268000D02*
X95754750Y-61268000D01*
X95754750Y-58268000D02*
X92354750Y-58268000D01*
X95754750Y-61268000D02*
X95754750Y-58268000D01*
%TO.C,LED17*%
X97114750Y-77308000D02*
X97114750Y-80308000D01*
X97114750Y-80308000D02*
X100514750Y-80308000D01*
X100514750Y-77308000D02*
X97114750Y-77308000D01*
X100514750Y-80308000D02*
X100514750Y-77308000D01*
%TO.C,LED29*%
X139949750Y-39218000D02*
X139949750Y-42218000D01*
X139949750Y-42218000D02*
X143349750Y-42218000D01*
X143349750Y-39218000D02*
X139949750Y-39218000D01*
X143349750Y-42218000D02*
X143349750Y-39218000D01*
%TO.C,LED7*%
X49514750Y-96348000D02*
X49514750Y-99348000D01*
X49514750Y-99348000D02*
X52914750Y-99348000D01*
X52914750Y-96348000D02*
X49514750Y-96348000D01*
X52914750Y-99348000D02*
X52914750Y-96348000D01*
%TO.C,LED1*%
X35234750Y-58268000D02*
X35234750Y-61268000D01*
X35234750Y-61268000D02*
X38634750Y-61268000D01*
X38634750Y-58268000D02*
X35234750Y-58268000D01*
X38634750Y-61268000D02*
X38634750Y-58268000D01*
%TO.C,LED3*%
X39462250Y-133413000D02*
X39462250Y-136413000D01*
X39462250Y-136413000D02*
X42862250Y-136413000D01*
X42862250Y-133413000D02*
X39462250Y-133413000D01*
X42862250Y-136413000D02*
X42862250Y-133413000D01*
%TO.C,LED27*%
X125674750Y-96348000D02*
X125674750Y-99348000D01*
X125674750Y-99348000D02*
X129074750Y-99348000D01*
X129074750Y-96348000D02*
X125674750Y-96348000D01*
X129074750Y-99348000D02*
X129074750Y-96348000D01*
%TO.C,LED19*%
X101869750Y-39218000D02*
X101869750Y-42218000D01*
X101869750Y-42218000D02*
X105269750Y-42218000D01*
X105269750Y-39218000D02*
X101869750Y-39218000D01*
X105269750Y-42218000D02*
X105269750Y-39218000D01*
%TO.C,LED14*%
X64212250Y-133413000D02*
X64212250Y-136413000D01*
X64212250Y-136413000D02*
X67612250Y-136413000D01*
X67612250Y-133413000D02*
X64212250Y-133413000D01*
X67612250Y-136413000D02*
X67612250Y-133413000D01*
%TO.C,LED8*%
X47131000Y-115388000D02*
X47131000Y-118388000D01*
X47131000Y-118388000D02*
X50531000Y-118388000D01*
X50531000Y-115388000D02*
X47131000Y-115388000D01*
X50531000Y-118388000D02*
X50531000Y-115388000D01*
%TO.C,LED18*%
X87594750Y-96348000D02*
X87594750Y-99348000D01*
X87594750Y-99348000D02*
X90994750Y-99348000D01*
X90994750Y-96348000D02*
X87594750Y-96348000D01*
X90994750Y-99348000D02*
X90994750Y-96348000D01*
%TO.C,LED9*%
X63789750Y-39218000D02*
X63789750Y-42218000D01*
X63789750Y-42218000D02*
X67189750Y-42218000D01*
X67189750Y-39218000D02*
X63789750Y-39218000D01*
X67189750Y-42218000D02*
X67189750Y-39218000D01*
%TO.C,LED23*%
X104253500Y-115388000D02*
X104253500Y-118388000D01*
X104253500Y-118388000D02*
X107653500Y-118388000D01*
X107653500Y-115388000D02*
X104253500Y-115388000D01*
X107653500Y-118388000D02*
X107653500Y-115388000D01*
%TO.C,LED33*%
X173287250Y-58268000D02*
X173287250Y-61268000D01*
X173287250Y-61268000D02*
X176687250Y-61268000D01*
X176687250Y-58268000D02*
X173287250Y-58268000D01*
X176687250Y-61268000D02*
X176687250Y-58268000D01*
%TO.C,LED6*%
X59034750Y-77308000D02*
X59034750Y-80308000D01*
X59034750Y-80308000D02*
X62434750Y-80308000D01*
X62434750Y-77308000D02*
X59034750Y-77308000D01*
X62434750Y-80308000D02*
X62434750Y-77308000D01*
%TD*%
M02*
