%TF.GenerationSoftware,KiCad,Pcbnew,8.0.7*%
%TF.CreationDate,2025-05-31T19:51:50+02:00*%
%TF.ProjectId,pcb_keyboard_dx,7063625f-6b65-4796-926f-6172645f6478,rev?*%
%TF.SameCoordinates,Original*%
%TF.FileFunction,Soldermask,Top*%
%TF.FilePolarity,Negative*%
%FSLAX46Y46*%
G04 Gerber Fmt 4.6, Leading zero omitted, Abs format (unit mm)*
G04 Created by KiCad (PCBNEW 8.0.7) date 2025-05-31 19:51:50*
%MOMM*%
%LPD*%
G01*
G04 APERTURE LIST*
G04 Aperture macros list*
%AMRoundRect*
0 Rectangle with rounded corners*
0 $1 Rounding radius*
0 $2 $3 $4 $5 $6 $7 $8 $9 X,Y pos of 4 corners*
0 Add a 4 corners polygon primitive as box body*
4,1,4,$2,$3,$4,$5,$6,$7,$8,$9,$2,$3,0*
0 Add four circle primitives for the rounded corners*
1,1,$1+$1,$2,$3*
1,1,$1+$1,$4,$5*
1,1,$1+$1,$6,$7*
1,1,$1+$1,$8,$9*
0 Add four rect primitives between the rounded corners*
20,1,$1+$1,$2,$3,$4,$5,0*
20,1,$1+$1,$4,$5,$6,$7,0*
20,1,$1+$1,$6,$7,$8,$9,0*
20,1,$1+$1,$8,$9,$2,$3,0*%
G04 Aperture macros list end*
%ADD10C,1.900000*%
%ADD11C,3.450000*%
%ADD12C,2.200000*%
%ADD13C,1.750000*%
%ADD14C,3.050000*%
%ADD15C,4.000000*%
%ADD16O,1.800000X1.800000*%
%ADD17O,1.500000X1.500000*%
%ADD18O,1.700000X1.700000*%
%ADD19R,1.700000X3.500000*%
%ADD20R,1.700000X1.700000*%
%ADD21R,3.500000X1.700000*%
%ADD22C,0.800000*%
%ADD23O,1.600000X2.000000*%
%ADD24R,1.400000X1.400000*%
%ADD25RoundRect,0.300000X0.400000X0.300000X-0.400000X0.300000X-0.400000X-0.300000X0.400000X-0.300000X0*%
%ADD26C,1.400000*%
%ADD27RoundRect,0.300000X0.300000X-0.400000X0.300000X0.400000X-0.300000X0.400000X-0.300000X-0.400000X0*%
G04 APERTURE END LIST*
D10*
%TO.C,S3*%
X46662250Y-139852000D03*
D11*
X41162250Y-139852000D03*
D10*
X35662250Y-139852000D03*
D12*
X41162250Y-145752000D03*
X36162250Y-143652000D03*
%TD*%
D13*
%TO.C,S8*%
X53911000Y-121827000D03*
D14*
X52641000Y-124367000D03*
D15*
X48831000Y-121827000D03*
D14*
X46291000Y-126907000D03*
D13*
X43751000Y-121827000D03*
%TD*%
%TO.C,S18*%
X94374750Y-102787000D03*
D14*
X93104750Y-105327000D03*
D15*
X89294750Y-102787000D03*
D14*
X86754750Y-107867000D03*
D13*
X84214750Y-102787000D03*
%TD*%
D16*
%TO.C,U1*%
X184549750Y-140525419D03*
D17*
X181519750Y-140825419D03*
X181519750Y-145675419D03*
D16*
X184549750Y-145975419D03*
D18*
X184679750Y-134360419D03*
D19*
X184679750Y-133460419D03*
D18*
X182139750Y-134360419D03*
D19*
X182139750Y-133460419D03*
D20*
X179599750Y-134360419D03*
D19*
X179599750Y-133460419D03*
D18*
X177059750Y-134360419D03*
D19*
X177059750Y-133460419D03*
D18*
X174519750Y-134360419D03*
D19*
X174519750Y-133460419D03*
D18*
X171979750Y-134360419D03*
D19*
X171979750Y-133460419D03*
D18*
X169439750Y-134360419D03*
D19*
X169439750Y-133460419D03*
D20*
X166899750Y-134360419D03*
D19*
X166899750Y-133460419D03*
D18*
X164359750Y-134360419D03*
D19*
X164359750Y-133460419D03*
D18*
X161819750Y-134360419D03*
D19*
X161819750Y-133460419D03*
D18*
X159279750Y-134360419D03*
D19*
X159279750Y-133460419D03*
D18*
X156739750Y-134360419D03*
D19*
X156739750Y-133460419D03*
D20*
X154199750Y-134360419D03*
D19*
X154199750Y-133460419D03*
D18*
X151659750Y-134360419D03*
D19*
X151659750Y-133460419D03*
D18*
X149119750Y-134360419D03*
D19*
X149119750Y-133460419D03*
D18*
X146579750Y-134360419D03*
D19*
X146579750Y-133460419D03*
D18*
X144039750Y-134360419D03*
D19*
X144039750Y-133460419D03*
D20*
X141499750Y-134360419D03*
D19*
X141499750Y-133460419D03*
D18*
X138959750Y-134360419D03*
D19*
X138959750Y-133460419D03*
D18*
X136419750Y-134360419D03*
D19*
X136419750Y-133460419D03*
D18*
X136419750Y-152140419D03*
D19*
X136419750Y-153040419D03*
D18*
X138959750Y-152140419D03*
D19*
X138959750Y-153040419D03*
D20*
X141499750Y-152140419D03*
D19*
X141499750Y-153040419D03*
D18*
X144039750Y-152140419D03*
D19*
X144039750Y-153040419D03*
D18*
X146579750Y-152140419D03*
D19*
X146579750Y-153040419D03*
D18*
X149119750Y-152140419D03*
D19*
X149119750Y-153040419D03*
D18*
X151659750Y-152140419D03*
D19*
X151659750Y-153040419D03*
D20*
X154199750Y-152140419D03*
D19*
X154199750Y-153040419D03*
D18*
X156739750Y-152140419D03*
D19*
X156739750Y-153040419D03*
D18*
X159279750Y-152140419D03*
D19*
X159279750Y-153040419D03*
D18*
X161819750Y-152140419D03*
D19*
X161819750Y-153040419D03*
D18*
X164359750Y-152140419D03*
D19*
X164359750Y-153040419D03*
D20*
X166899750Y-152140419D03*
D19*
X166899750Y-153040419D03*
D18*
X169439750Y-152140419D03*
D19*
X169439750Y-153040419D03*
D18*
X171979750Y-152140419D03*
D19*
X171979750Y-153040419D03*
D18*
X174519750Y-152140419D03*
D19*
X174519750Y-153040419D03*
D18*
X177059750Y-152140419D03*
D19*
X177059750Y-153040419D03*
D20*
X179599750Y-152140419D03*
D19*
X179599750Y-153040419D03*
D18*
X182139750Y-152140419D03*
D19*
X182139750Y-153040419D03*
D18*
X184679750Y-152140419D03*
D19*
X184679750Y-153040419D03*
D18*
X136649750Y-140710419D03*
D21*
X135749750Y-140710419D03*
D20*
X136649750Y-143250419D03*
D21*
X135749750Y-143250419D03*
D18*
X136649750Y-145790419D03*
D21*
X135749750Y-145790419D03*
%TD*%
D13*
%TO.C,S6*%
X65814750Y-83747000D03*
D14*
X64544750Y-86287000D03*
D15*
X60734750Y-83747000D03*
D14*
X58194750Y-88827000D03*
D13*
X55654750Y-83747000D03*
%TD*%
%TO.C,S32*%
X175304750Y-45657000D03*
D14*
X174034750Y-48197000D03*
D15*
X170224750Y-45657000D03*
D14*
X167684750Y-50737000D03*
D13*
X165144750Y-45657000D03*
%TD*%
D22*
%TO.C,U3*%
X89449750Y-23518600D03*
X89449750Y-30518600D03*
D23*
X87149750Y-33218600D03*
X91749750Y-32118600D03*
X91749750Y-28118600D03*
X91749750Y-25118600D03*
%TD*%
D13*
%TO.C,S33*%
X180067250Y-64707000D03*
D14*
X178797250Y-67247000D03*
D15*
X174987250Y-64707000D03*
D14*
X172447250Y-69787000D03*
D13*
X169907250Y-64707000D03*
%TD*%
%TO.C,S25*%
X137214750Y-64707000D03*
D14*
X135944750Y-67247000D03*
D15*
X132134750Y-64707000D03*
D14*
X129594750Y-69787000D03*
D13*
X127054750Y-64707000D03*
%TD*%
%TO.C,S5*%
X61054750Y-64707000D03*
D14*
X59784750Y-67247000D03*
D15*
X55974750Y-64707000D03*
D14*
X53434750Y-69787000D03*
D13*
X50894750Y-64707000D03*
%TD*%
%TO.C,S7*%
X56294750Y-102787000D03*
D14*
X55024750Y-105327000D03*
D15*
X51214750Y-102787000D03*
D14*
X48674750Y-107867000D03*
D13*
X46134750Y-102787000D03*
%TD*%
%TO.C,S36*%
X182448500Y-121827000D03*
D14*
X181178500Y-124367000D03*
D15*
X177368500Y-121827000D03*
D14*
X174828500Y-126907000D03*
D13*
X172288500Y-121827000D03*
%TD*%
%TO.C,S30*%
X156254750Y-64707000D03*
D14*
X154984750Y-67247000D03*
D15*
X151174750Y-64707000D03*
D14*
X148634750Y-69787000D03*
D13*
X146094750Y-64707000D03*
%TD*%
%TO.C,S2*%
X46774750Y-83747000D03*
D14*
X45504750Y-86287000D03*
D15*
X41694750Y-83747000D03*
D14*
X39154750Y-88827000D03*
D13*
X36614750Y-83747000D03*
%TD*%
%TO.C,S27*%
X132454750Y-102787000D03*
D14*
X131184750Y-105327000D03*
D15*
X127374750Y-102787000D03*
D14*
X124834750Y-107867000D03*
D13*
X122294750Y-102787000D03*
%TD*%
%TO.C,S9*%
X70569750Y-45657000D03*
D14*
X69299750Y-48197000D03*
D15*
X65489750Y-45657000D03*
D14*
X62949750Y-50737000D03*
D13*
X60409750Y-45657000D03*
%TD*%
%TO.C,S10*%
X80094750Y-64707000D03*
D14*
X78824750Y-67247000D03*
D15*
X75014750Y-64707000D03*
D14*
X72474750Y-69787000D03*
D13*
X69934750Y-64707000D03*
%TD*%
%TO.C,S1*%
X42014750Y-64707000D03*
D14*
X40744750Y-67247000D03*
D15*
X36934750Y-64707000D03*
D14*
X34394750Y-69787000D03*
D13*
X31854750Y-64707000D03*
%TD*%
%TO.C,S13*%
X84852250Y-121827000D03*
D14*
X83582250Y-124367000D03*
D15*
X79772250Y-121827000D03*
D14*
X77232250Y-126907000D03*
D13*
X74692250Y-121827000D03*
%TD*%
%TO.C,S17*%
X103894750Y-83747000D03*
D14*
X102624750Y-86287000D03*
D15*
X98814750Y-83747000D03*
D14*
X96274750Y-88827000D03*
D13*
X93734750Y-83747000D03*
%TD*%
D20*
%TO.C,TP6*%
X113463964Y-145664614D03*
%TD*%
D13*
%TO.C,S23*%
X111033500Y-121827000D03*
D14*
X109763500Y-124367000D03*
D15*
X105953500Y-121827000D03*
D14*
X103413500Y-126907000D03*
D13*
X100873500Y-121827000D03*
%TD*%
D20*
%TO.C,TP4*%
X134339750Y-32827000D03*
%TD*%
D13*
%TO.C,S21*%
X122934750Y-83747000D03*
D14*
X121664750Y-86287000D03*
D15*
X117854750Y-83747000D03*
D14*
X115314750Y-88827000D03*
D13*
X112774750Y-83747000D03*
%TD*%
%TO.C,S31*%
X158633500Y-121827000D03*
D14*
X157363500Y-124367000D03*
D15*
X153553500Y-121827000D03*
D14*
X151013500Y-126907000D03*
D13*
X148473500Y-121827000D03*
%TD*%
%TO.C,S28*%
X134833500Y-121827000D03*
D14*
X133563500Y-124367000D03*
D15*
X129753500Y-121827000D03*
D14*
X127213500Y-126907000D03*
D13*
X124673500Y-121827000D03*
%TD*%
%TO.C,S24*%
X127689750Y-45657000D03*
D14*
X126419750Y-48197000D03*
D15*
X122609750Y-45657000D03*
D14*
X120069750Y-50737000D03*
D13*
X117529750Y-45657000D03*
%TD*%
%TO.C,S35*%
X168161000Y-102787000D03*
D14*
X166891000Y-105327000D03*
D15*
X163081000Y-102787000D03*
D14*
X160541000Y-107867000D03*
D13*
X158001000Y-102787000D03*
%TD*%
%TO.C,S26*%
X141974750Y-83747000D03*
D14*
X140704750Y-86287000D03*
D15*
X136894750Y-83747000D03*
D14*
X134354750Y-88827000D03*
D13*
X131814750Y-83747000D03*
%TD*%
D12*
%TO.C,H3*%
X165402250Y-121832000D03*
%TD*%
D20*
%TO.C,TP5*%
X139269750Y-32857000D03*
%TD*%
D13*
%TO.C,S11*%
X84854750Y-83747000D03*
D14*
X83584750Y-86287000D03*
D15*
X79774750Y-83747000D03*
D14*
X77234750Y-88827000D03*
D13*
X74694750Y-83747000D03*
%TD*%
D20*
%TO.C,TP2*%
X121969750Y-32777000D03*
%TD*%
D13*
%TO.C,S4*%
X51529750Y-45657000D03*
D14*
X50259750Y-48197000D03*
D15*
X46449750Y-45657000D03*
D14*
X43909750Y-50737000D03*
D13*
X41369750Y-45657000D03*
%TD*%
D20*
%TO.C,TP3*%
X129309750Y-32867000D03*
%TD*%
D12*
%TO.C,H4*%
X64301000Y-118827000D03*
%TD*%
D13*
%TO.C,S12*%
X75334750Y-102787000D03*
D14*
X74064750Y-105327000D03*
D15*
X70254750Y-102787000D03*
D14*
X67714750Y-107867000D03*
D13*
X65174750Y-102787000D03*
%TD*%
D10*
%TO.C,S14*%
X71412250Y-139852000D03*
D11*
X65912250Y-139852000D03*
D10*
X60412250Y-139852000D03*
D12*
X65912250Y-145752000D03*
X60912250Y-143652000D03*
%TD*%
D13*
%TO.C,S20*%
X118174750Y-64707000D03*
D14*
X116904750Y-67247000D03*
D15*
X113094750Y-64707000D03*
D14*
X110554750Y-69787000D03*
D13*
X108014750Y-64707000D03*
%TD*%
%TO.C,S19*%
X108649750Y-45657000D03*
D14*
X107379750Y-48197000D03*
D15*
X103569750Y-45657000D03*
D14*
X101029750Y-50737000D03*
D13*
X98489750Y-45657000D03*
%TD*%
D12*
%TO.C,H2*%
X163080750Y-64707000D03*
%TD*%
D20*
%TO.C,TP1*%
X117419750Y-32747000D03*
%TD*%
D13*
%TO.C,S22*%
X113414750Y-102787000D03*
D14*
X112144750Y-105327000D03*
D15*
X108334750Y-102787000D03*
D14*
X105794750Y-107867000D03*
D13*
X103254750Y-102787000D03*
%TD*%
%TO.C,S15*%
X89609750Y-45657000D03*
D14*
X88339750Y-48197000D03*
D15*
X84529750Y-45657000D03*
D14*
X81989750Y-50737000D03*
D13*
X79449750Y-45657000D03*
%TD*%
%TO.C,S16*%
X99134750Y-64707000D03*
D14*
X97864750Y-67247000D03*
D15*
X94054750Y-64707000D03*
D14*
X91514750Y-69787000D03*
D13*
X88974750Y-64707000D03*
%TD*%
%TO.C,S29*%
X146729750Y-45657000D03*
D14*
X145459750Y-48197000D03*
D15*
X141649750Y-45657000D03*
D14*
X139109750Y-50737000D03*
D13*
X136569750Y-45657000D03*
%TD*%
D12*
%TO.C,H1*%
X65472250Y-64052000D03*
%TD*%
D13*
%TO.C,S34*%
X172923500Y-83747000D03*
D14*
X171653500Y-86287000D03*
D15*
X167843500Y-83747000D03*
D14*
X165303500Y-88827000D03*
D13*
X162763500Y-83747000D03*
%TD*%
D24*
%TO.C,D11*%
X81179750Y-92397000D03*
D25*
X79079750Y-92397000D03*
X75279750Y-92397000D03*
D26*
X73179750Y-92397000D03*
%TD*%
D24*
%TO.C,D9*%
X68999750Y-54287000D03*
D25*
X66899750Y-54287000D03*
X63099750Y-54287000D03*
D26*
X60999750Y-54287000D03*
%TD*%
D24*
%TO.C,D24*%
X126149750Y-54307000D03*
D25*
X124049750Y-54307000D03*
X120249750Y-54307000D03*
D26*
X118149750Y-54307000D03*
%TD*%
D24*
%TO.C,D12*%
X74107250Y-111368250D03*
D25*
X72007250Y-111368250D03*
X68207250Y-111368250D03*
D26*
X66107250Y-111368250D03*
%TD*%
D24*
%TO.C,D25*%
X137129750Y-73287000D03*
D25*
X135029750Y-73287000D03*
X131229750Y-73287000D03*
D26*
X129129750Y-73287000D03*
%TD*%
D24*
%TO.C,D3*%
X45249750Y-149317000D03*
D25*
X43149750Y-149317000D03*
X39349750Y-149317000D03*
D26*
X37249750Y-149317000D03*
%TD*%
D24*
%TO.C,D38*%
X82299750Y-143157000D03*
D25*
X80199750Y-143157000D03*
X76399750Y-143157000D03*
D26*
X74299750Y-143157000D03*
%TD*%
D24*
%TO.C,D22*%
X111059750Y-111417000D03*
D25*
X108959750Y-111417000D03*
X105159750Y-111417000D03*
D26*
X103059750Y-111417000D03*
%TD*%
D24*
%TO.C,D33*%
X177589750Y-73347000D03*
D25*
X175489750Y-73347000D03*
X171689750Y-73347000D03*
D26*
X169589750Y-73347000D03*
%TD*%
D24*
%TO.C,D7*%
X55839750Y-111547000D03*
D25*
X53739750Y-111547000D03*
X49939750Y-111547000D03*
D26*
X47839750Y-111547000D03*
%TD*%
D24*
%TO.C,D30*%
X155729750Y-73327000D03*
D25*
X153629750Y-73327000D03*
X149829750Y-73327000D03*
D26*
X147729750Y-73327000D03*
%TD*%
D24*
%TO.C,D14*%
X69569750Y-149127000D03*
D25*
X67469750Y-149127000D03*
X63669750Y-149127000D03*
D26*
X61569750Y-149127000D03*
%TD*%
D24*
%TO.C,D15*%
X87469750Y-54277000D03*
D25*
X85369750Y-54277000D03*
X81569750Y-54277000D03*
D26*
X79469750Y-54277000D03*
%TD*%
D24*
%TO.C,D16*%
X98029750Y-73167000D03*
D25*
X95929750Y-73167000D03*
X92129750Y-73167000D03*
D26*
X90029750Y-73167000D03*
%TD*%
D24*
%TO.C,D1*%
X44719750Y-73367000D03*
D25*
X42619750Y-73367000D03*
X38819750Y-73367000D03*
D26*
X36719750Y-73367000D03*
%TD*%
D24*
%TO.C,D6*%
X64629750Y-92347000D03*
D25*
X62529750Y-92347000D03*
X58729750Y-92347000D03*
D26*
X56629750Y-92347000D03*
%TD*%
D24*
%TO.C,D17*%
X101959750Y-92327000D03*
D25*
X99859750Y-92327000D03*
X96059750Y-92327000D03*
D26*
X93959750Y-92327000D03*
%TD*%
D24*
%TO.C,D37*%
X114238500Y-47854500D03*
D27*
X114238500Y-45754500D03*
X114238500Y-41954500D03*
D26*
X114238500Y-39854500D03*
%TD*%
D24*
%TO.C,D28*%
X130847250Y-130548250D03*
D25*
X128747250Y-130548250D03*
X124947250Y-130548250D03*
D26*
X122847250Y-130548250D03*
%TD*%
D24*
%TO.C,D36*%
X179169750Y-130329419D03*
D25*
X177069750Y-130329419D03*
X173269750Y-130329419D03*
D26*
X171169750Y-130329419D03*
%TD*%
D24*
%TO.C,D18*%
X94769750Y-111497000D03*
D25*
X92669750Y-111497000D03*
X88869750Y-111497000D03*
D26*
X86769750Y-111497000D03*
%TD*%
D24*
%TO.C,D34*%
X171529750Y-92347000D03*
D25*
X169429750Y-92347000D03*
X165629750Y-92347000D03*
D26*
X163529750Y-92347000D03*
%TD*%
D24*
%TO.C,D21*%
X119399750Y-92507000D03*
D25*
X117299750Y-92507000D03*
X113499750Y-92507000D03*
D26*
X111399750Y-92507000D03*
%TD*%
D24*
%TO.C,D19*%
X107249750Y-54240419D03*
D25*
X105149750Y-54240419D03*
X101349750Y-54240419D03*
D26*
X99249750Y-54240419D03*
%TD*%
D24*
%TO.C,D35*%
X167429750Y-111447000D03*
D25*
X165329750Y-111447000D03*
X161529750Y-111447000D03*
D26*
X159429750Y-111447000D03*
%TD*%
D24*
%TO.C,D10*%
X78279750Y-73287000D03*
D25*
X76179750Y-73287000D03*
X72379750Y-73287000D03*
D26*
X70279750Y-73287000D03*
%TD*%
D24*
%TO.C,D31*%
X157579750Y-130367000D03*
D25*
X155479750Y-130367000D03*
X151679750Y-130367000D03*
D26*
X149579750Y-130367000D03*
%TD*%
D24*
%TO.C,D23*%
X109889750Y-130527000D03*
D25*
X107789750Y-130527000D03*
X103989750Y-130527000D03*
D26*
X101889750Y-130527000D03*
%TD*%
D24*
%TO.C,D29*%
X145509750Y-54240419D03*
D25*
X143409750Y-54240419D03*
X139609750Y-54240419D03*
D26*
X137509750Y-54240419D03*
%TD*%
D24*
%TO.C,D4*%
X49769750Y-54337000D03*
D25*
X47669750Y-54337000D03*
X43869750Y-54337000D03*
D26*
X41769750Y-54337000D03*
%TD*%
D24*
%TO.C,D20*%
X117349750Y-73227000D03*
D25*
X115249750Y-73227000D03*
X111449750Y-73227000D03*
D26*
X109349750Y-73227000D03*
%TD*%
D24*
%TO.C,D8*%
X52567250Y-130438250D03*
D25*
X50467250Y-130438250D03*
X46667250Y-130438250D03*
D26*
X44567250Y-130438250D03*
%TD*%
D24*
%TO.C,D27*%
X130689750Y-111517000D03*
D25*
X128589750Y-111517000D03*
X124789750Y-111517000D03*
D26*
X122689750Y-111517000D03*
%TD*%
D24*
%TO.C,D26*%
X139729750Y-92367000D03*
D25*
X137629750Y-92367000D03*
X133829750Y-92367000D03*
D26*
X131729750Y-92367000D03*
%TD*%
D24*
%TO.C,D2*%
X53559750Y-92437000D03*
D25*
X51459750Y-92437000D03*
X47659750Y-92437000D03*
D26*
X45559750Y-92437000D03*
%TD*%
D24*
%TO.C,D32*%
X174479750Y-54247000D03*
D25*
X172379750Y-54247000D03*
X168579750Y-54247000D03*
D26*
X166479750Y-54247000D03*
%TD*%
D24*
%TO.C,D5*%
X59609750Y-73227000D03*
D25*
X57509750Y-73227000D03*
X53709750Y-73227000D03*
D26*
X51609750Y-73227000D03*
%TD*%
D24*
%TO.C,D13*%
X83427250Y-130568250D03*
D25*
X81327250Y-130568250D03*
X77527250Y-130568250D03*
D26*
X75427250Y-130568250D03*
%TD*%
M02*
