%TF.GenerationSoftware,KiCad,Pcbnew,8.0.7*%
%TF.CreationDate,2025-05-31T19:51:50+02:00*%
%TF.ProjectId,pcb_keyboard_dx,7063625f-6b65-4796-926f-6172645f6478,rev?*%
%TF.SameCoordinates,Original*%
%TF.FileFunction,Legend,Bot*%
%TF.FilePolarity,Positive*%
%FSLAX46Y46*%
G04 Gerber Fmt 4.6, Leading zero omitted, Abs format (unit mm)*
G04 Created by KiCad (PCBNEW 8.0.7) date 2025-05-31 19:51:50*
%MOMM*%
%LPD*%
G01*
G04 APERTURE LIST*
G04 Aperture macros list*
%AMRoundRect*
0 Rectangle with rounded corners*
0 $1 Rounding radius*
0 $2 $3 $4 $5 $6 $7 $8 $9 X,Y pos of 4 corners*
0 Add a 4 corners polygon primitive as box body*
4,1,4,$2,$3,$4,$5,$6,$7,$8,$9,$2,$3,0*
0 Add four circle primitives for the rounded corners*
1,1,$1+$1,$2,$3*
1,1,$1+$1,$4,$5*
1,1,$1+$1,$6,$7*
1,1,$1+$1,$8,$9*
0 Add four rect primitives between the rounded corners*
20,1,$1+$1,$2,$3,$4,$5,0*
20,1,$1+$1,$4,$5,$6,$7,0*
20,1,$1+$1,$6,$7,$8,$9,0*
20,1,$1+$1,$8,$9,$2,$3,0*%
G04 Aperture macros list end*
%ADD10C,0.200000*%
%ADD11C,0.150000*%
%ADD12C,0.120000*%
%ADD13C,0.250000*%
%ADD14C,1.900000*%
%ADD15C,3.450000*%
%ADD16C,2.200000*%
%ADD17C,1.750000*%
%ADD18C,3.050000*%
%ADD19C,4.000000*%
%ADD20RoundRect,0.250000X1.025000X1.000000X-1.025000X1.000000X-1.025000X-1.000000X1.025000X-1.000000X0*%
%ADD21O,1.800000X1.800000*%
%ADD22O,1.500000X1.500000*%
%ADD23O,1.700000X1.700000*%
%ADD24R,1.700000X1.700000*%
%ADD25C,0.800000*%
%ADD26O,1.600000X2.000000*%
%ADD27R,1.500000X1.000000*%
%ADD28RoundRect,0.205000X-0.495000X-0.205000X0.495000X-0.205000X0.495000X0.205000X-0.495000X0.205000X0*%
%ADD29R,1.400000X1.400000*%
%ADD30RoundRect,0.300000X0.450000X0.300000X-0.450000X0.300000X-0.450000X-0.300000X0.450000X-0.300000X0*%
%ADD31RoundRect,0.300000X0.400000X0.300000X-0.400000X0.300000X-0.400000X-0.300000X0.400000X-0.300000X0*%
%ADD32C,1.400000*%
%ADD33RoundRect,0.205000X0.495000X0.205000X-0.495000X0.205000X-0.495000X-0.205000X0.495000X-0.205000X0*%
%ADD34R,1.700000X1.000000*%
%ADD35R,1.000000X1.500000*%
%ADD36RoundRect,0.300000X0.300000X-0.450000X0.300000X0.450000X-0.300000X0.450000X-0.300000X-0.450000X0*%
%ADD37RoundRect,0.300000X0.300000X-0.400000X0.300000X0.400000X-0.300000X0.400000X-0.300000X-0.400000X0*%
G04 APERTURE END LIST*
D10*
X71682933Y-136654219D02*
X71349600Y-137654219D01*
X71349600Y-137654219D02*
X71016267Y-136654219D01*
X70730552Y-137606600D02*
X70587695Y-137654219D01*
X70587695Y-137654219D02*
X70349600Y-137654219D01*
X70349600Y-137654219D02*
X70254362Y-137606600D01*
X70254362Y-137606600D02*
X70206743Y-137558980D01*
X70206743Y-137558980D02*
X70159124Y-137463742D01*
X70159124Y-137463742D02*
X70159124Y-137368504D01*
X70159124Y-137368504D02*
X70206743Y-137273266D01*
X70206743Y-137273266D02*
X70254362Y-137225647D01*
X70254362Y-137225647D02*
X70349600Y-137178028D01*
X70349600Y-137178028D02*
X70540076Y-137130409D01*
X70540076Y-137130409D02*
X70635314Y-137082790D01*
X70635314Y-137082790D02*
X70682933Y-137035171D01*
X70682933Y-137035171D02*
X70730552Y-136939933D01*
X70730552Y-136939933D02*
X70730552Y-136844695D01*
X70730552Y-136844695D02*
X70682933Y-136749457D01*
X70682933Y-136749457D02*
X70635314Y-136701838D01*
X70635314Y-136701838D02*
X70540076Y-136654219D01*
X70540076Y-136654219D02*
X70301981Y-136654219D01*
X70301981Y-136654219D02*
X70159124Y-136701838D01*
X69778171Y-137606600D02*
X69635314Y-137654219D01*
X69635314Y-137654219D02*
X69397219Y-137654219D01*
X69397219Y-137654219D02*
X69301981Y-137606600D01*
X69301981Y-137606600D02*
X69254362Y-137558980D01*
X69254362Y-137558980D02*
X69206743Y-137463742D01*
X69206743Y-137463742D02*
X69206743Y-137368504D01*
X69206743Y-137368504D02*
X69254362Y-137273266D01*
X69254362Y-137273266D02*
X69301981Y-137225647D01*
X69301981Y-137225647D02*
X69397219Y-137178028D01*
X69397219Y-137178028D02*
X69587695Y-137130409D01*
X69587695Y-137130409D02*
X69682933Y-137082790D01*
X69682933Y-137082790D02*
X69730552Y-137035171D01*
X69730552Y-137035171D02*
X69778171Y-136939933D01*
X69778171Y-136939933D02*
X69778171Y-136844695D01*
X69778171Y-136844695D02*
X69730552Y-136749457D01*
X69730552Y-136749457D02*
X69682933Y-136701838D01*
X69682933Y-136701838D02*
X69587695Y-136654219D01*
X69587695Y-136654219D02*
X69349600Y-136654219D01*
X69349600Y-136654219D02*
X69206743Y-136701838D01*
X173642933Y-114454219D02*
X173309600Y-115454219D01*
X173309600Y-115454219D02*
X172976267Y-114454219D01*
X172690552Y-115406600D02*
X172547695Y-115454219D01*
X172547695Y-115454219D02*
X172309600Y-115454219D01*
X172309600Y-115454219D02*
X172214362Y-115406600D01*
X172214362Y-115406600D02*
X172166743Y-115358980D01*
X172166743Y-115358980D02*
X172119124Y-115263742D01*
X172119124Y-115263742D02*
X172119124Y-115168504D01*
X172119124Y-115168504D02*
X172166743Y-115073266D01*
X172166743Y-115073266D02*
X172214362Y-115025647D01*
X172214362Y-115025647D02*
X172309600Y-114978028D01*
X172309600Y-114978028D02*
X172500076Y-114930409D01*
X172500076Y-114930409D02*
X172595314Y-114882790D01*
X172595314Y-114882790D02*
X172642933Y-114835171D01*
X172642933Y-114835171D02*
X172690552Y-114739933D01*
X172690552Y-114739933D02*
X172690552Y-114644695D01*
X172690552Y-114644695D02*
X172642933Y-114549457D01*
X172642933Y-114549457D02*
X172595314Y-114501838D01*
X172595314Y-114501838D02*
X172500076Y-114454219D01*
X172500076Y-114454219D02*
X172261981Y-114454219D01*
X172261981Y-114454219D02*
X172119124Y-114501838D01*
X171738171Y-115406600D02*
X171595314Y-115454219D01*
X171595314Y-115454219D02*
X171357219Y-115454219D01*
X171357219Y-115454219D02*
X171261981Y-115406600D01*
X171261981Y-115406600D02*
X171214362Y-115358980D01*
X171214362Y-115358980D02*
X171166743Y-115263742D01*
X171166743Y-115263742D02*
X171166743Y-115168504D01*
X171166743Y-115168504D02*
X171214362Y-115073266D01*
X171214362Y-115073266D02*
X171261981Y-115025647D01*
X171261981Y-115025647D02*
X171357219Y-114978028D01*
X171357219Y-114978028D02*
X171547695Y-114930409D01*
X171547695Y-114930409D02*
X171642933Y-114882790D01*
X171642933Y-114882790D02*
X171690552Y-114835171D01*
X171690552Y-114835171D02*
X171738171Y-114739933D01*
X171738171Y-114739933D02*
X171738171Y-114644695D01*
X171738171Y-114644695D02*
X171690552Y-114549457D01*
X171690552Y-114549457D02*
X171642933Y-114501838D01*
X171642933Y-114501838D02*
X171547695Y-114454219D01*
X171547695Y-114454219D02*
X171309600Y-114454219D01*
X171309600Y-114454219D02*
X171166743Y-114501838D01*
X123293886Y-146127638D02*
X123770076Y-146127638D01*
X123770076Y-146127638D02*
X123770076Y-145127638D01*
X122770076Y-145127638D02*
X122579600Y-145127638D01*
X122579600Y-145127638D02*
X122484362Y-145175257D01*
X122484362Y-145175257D02*
X122389124Y-145270495D01*
X122389124Y-145270495D02*
X122341505Y-145460971D01*
X122341505Y-145460971D02*
X122341505Y-145794304D01*
X122341505Y-145794304D02*
X122389124Y-145984780D01*
X122389124Y-145984780D02*
X122484362Y-146080019D01*
X122484362Y-146080019D02*
X122579600Y-146127638D01*
X122579600Y-146127638D02*
X122770076Y-146127638D01*
X122770076Y-146127638D02*
X122865314Y-146080019D01*
X122865314Y-146080019D02*
X122960552Y-145984780D01*
X122960552Y-145984780D02*
X123008171Y-145794304D01*
X123008171Y-145794304D02*
X123008171Y-145460971D01*
X123008171Y-145460971D02*
X122960552Y-145270495D01*
X122960552Y-145270495D02*
X122865314Y-145175257D01*
X122865314Y-145175257D02*
X122770076Y-145127638D01*
X122008171Y-145127638D02*
X121770076Y-146127638D01*
X121770076Y-146127638D02*
X121579600Y-145413352D01*
X121579600Y-145413352D02*
X121389124Y-146127638D01*
X121389124Y-146127638D02*
X121151029Y-145127638D01*
X168672933Y-99424219D02*
X168339600Y-100424219D01*
X168339600Y-100424219D02*
X168006267Y-99424219D01*
X167720552Y-100376600D02*
X167577695Y-100424219D01*
X167577695Y-100424219D02*
X167339600Y-100424219D01*
X167339600Y-100424219D02*
X167244362Y-100376600D01*
X167244362Y-100376600D02*
X167196743Y-100328980D01*
X167196743Y-100328980D02*
X167149124Y-100233742D01*
X167149124Y-100233742D02*
X167149124Y-100138504D01*
X167149124Y-100138504D02*
X167196743Y-100043266D01*
X167196743Y-100043266D02*
X167244362Y-99995647D01*
X167244362Y-99995647D02*
X167339600Y-99948028D01*
X167339600Y-99948028D02*
X167530076Y-99900409D01*
X167530076Y-99900409D02*
X167625314Y-99852790D01*
X167625314Y-99852790D02*
X167672933Y-99805171D01*
X167672933Y-99805171D02*
X167720552Y-99709933D01*
X167720552Y-99709933D02*
X167720552Y-99614695D01*
X167720552Y-99614695D02*
X167672933Y-99519457D01*
X167672933Y-99519457D02*
X167625314Y-99471838D01*
X167625314Y-99471838D02*
X167530076Y-99424219D01*
X167530076Y-99424219D02*
X167291981Y-99424219D01*
X167291981Y-99424219D02*
X167149124Y-99471838D01*
X166768171Y-100376600D02*
X166625314Y-100424219D01*
X166625314Y-100424219D02*
X166387219Y-100424219D01*
X166387219Y-100424219D02*
X166291981Y-100376600D01*
X166291981Y-100376600D02*
X166244362Y-100328980D01*
X166244362Y-100328980D02*
X166196743Y-100233742D01*
X166196743Y-100233742D02*
X166196743Y-100138504D01*
X166196743Y-100138504D02*
X166244362Y-100043266D01*
X166244362Y-100043266D02*
X166291981Y-99995647D01*
X166291981Y-99995647D02*
X166387219Y-99948028D01*
X166387219Y-99948028D02*
X166577695Y-99900409D01*
X166577695Y-99900409D02*
X166672933Y-99852790D01*
X166672933Y-99852790D02*
X166720552Y-99805171D01*
X166720552Y-99805171D02*
X166768171Y-99709933D01*
X166768171Y-99709933D02*
X166768171Y-99614695D01*
X166768171Y-99614695D02*
X166720552Y-99519457D01*
X166720552Y-99519457D02*
X166672933Y-99471838D01*
X166672933Y-99471838D02*
X166577695Y-99424219D01*
X166577695Y-99424219D02*
X166339600Y-99424219D01*
X166339600Y-99424219D02*
X166196743Y-99471838D01*
X166202933Y-38884219D02*
X165869600Y-39884219D01*
X165869600Y-39884219D02*
X165536267Y-38884219D01*
X165250552Y-39836600D02*
X165107695Y-39884219D01*
X165107695Y-39884219D02*
X164869600Y-39884219D01*
X164869600Y-39884219D02*
X164774362Y-39836600D01*
X164774362Y-39836600D02*
X164726743Y-39788980D01*
X164726743Y-39788980D02*
X164679124Y-39693742D01*
X164679124Y-39693742D02*
X164679124Y-39598504D01*
X164679124Y-39598504D02*
X164726743Y-39503266D01*
X164726743Y-39503266D02*
X164774362Y-39455647D01*
X164774362Y-39455647D02*
X164869600Y-39408028D01*
X164869600Y-39408028D02*
X165060076Y-39360409D01*
X165060076Y-39360409D02*
X165155314Y-39312790D01*
X165155314Y-39312790D02*
X165202933Y-39265171D01*
X165202933Y-39265171D02*
X165250552Y-39169933D01*
X165250552Y-39169933D02*
X165250552Y-39074695D01*
X165250552Y-39074695D02*
X165202933Y-38979457D01*
X165202933Y-38979457D02*
X165155314Y-38931838D01*
X165155314Y-38931838D02*
X165060076Y-38884219D01*
X165060076Y-38884219D02*
X164821981Y-38884219D01*
X164821981Y-38884219D02*
X164679124Y-38931838D01*
X164298171Y-39836600D02*
X164155314Y-39884219D01*
X164155314Y-39884219D02*
X163917219Y-39884219D01*
X163917219Y-39884219D02*
X163821981Y-39836600D01*
X163821981Y-39836600D02*
X163774362Y-39788980D01*
X163774362Y-39788980D02*
X163726743Y-39693742D01*
X163726743Y-39693742D02*
X163726743Y-39598504D01*
X163726743Y-39598504D02*
X163774362Y-39503266D01*
X163774362Y-39503266D02*
X163821981Y-39455647D01*
X163821981Y-39455647D02*
X163917219Y-39408028D01*
X163917219Y-39408028D02*
X164107695Y-39360409D01*
X164107695Y-39360409D02*
X164202933Y-39312790D01*
X164202933Y-39312790D02*
X164250552Y-39265171D01*
X164250552Y-39265171D02*
X164298171Y-39169933D01*
X164298171Y-39169933D02*
X164298171Y-39074695D01*
X164298171Y-39074695D02*
X164250552Y-38979457D01*
X164250552Y-38979457D02*
X164202933Y-38931838D01*
X164202933Y-38931838D02*
X164107695Y-38884219D01*
X164107695Y-38884219D02*
X163869600Y-38884219D01*
X163869600Y-38884219D02*
X163726743Y-38931838D01*
X179742933Y-62074219D02*
X179409600Y-63074219D01*
X179409600Y-63074219D02*
X179076267Y-62074219D01*
X178790552Y-63026600D02*
X178647695Y-63074219D01*
X178647695Y-63074219D02*
X178409600Y-63074219D01*
X178409600Y-63074219D02*
X178314362Y-63026600D01*
X178314362Y-63026600D02*
X178266743Y-62978980D01*
X178266743Y-62978980D02*
X178219124Y-62883742D01*
X178219124Y-62883742D02*
X178219124Y-62788504D01*
X178219124Y-62788504D02*
X178266743Y-62693266D01*
X178266743Y-62693266D02*
X178314362Y-62645647D01*
X178314362Y-62645647D02*
X178409600Y-62598028D01*
X178409600Y-62598028D02*
X178600076Y-62550409D01*
X178600076Y-62550409D02*
X178695314Y-62502790D01*
X178695314Y-62502790D02*
X178742933Y-62455171D01*
X178742933Y-62455171D02*
X178790552Y-62359933D01*
X178790552Y-62359933D02*
X178790552Y-62264695D01*
X178790552Y-62264695D02*
X178742933Y-62169457D01*
X178742933Y-62169457D02*
X178695314Y-62121838D01*
X178695314Y-62121838D02*
X178600076Y-62074219D01*
X178600076Y-62074219D02*
X178361981Y-62074219D01*
X178361981Y-62074219D02*
X178219124Y-62121838D01*
X177838171Y-63026600D02*
X177695314Y-63074219D01*
X177695314Y-63074219D02*
X177457219Y-63074219D01*
X177457219Y-63074219D02*
X177361981Y-63026600D01*
X177361981Y-63026600D02*
X177314362Y-62978980D01*
X177314362Y-62978980D02*
X177266743Y-62883742D01*
X177266743Y-62883742D02*
X177266743Y-62788504D01*
X177266743Y-62788504D02*
X177314362Y-62693266D01*
X177314362Y-62693266D02*
X177361981Y-62645647D01*
X177361981Y-62645647D02*
X177457219Y-62598028D01*
X177457219Y-62598028D02*
X177647695Y-62550409D01*
X177647695Y-62550409D02*
X177742933Y-62502790D01*
X177742933Y-62502790D02*
X177790552Y-62455171D01*
X177790552Y-62455171D02*
X177838171Y-62359933D01*
X177838171Y-62359933D02*
X177838171Y-62264695D01*
X177838171Y-62264695D02*
X177790552Y-62169457D01*
X177790552Y-62169457D02*
X177742933Y-62121838D01*
X177742933Y-62121838D02*
X177647695Y-62074219D01*
X177647695Y-62074219D02*
X177409600Y-62074219D01*
X177409600Y-62074219D02*
X177266743Y-62121838D01*
X92086267Y-143624331D02*
X92657695Y-143624331D01*
X92371981Y-143624331D02*
X92371981Y-142624331D01*
X92371981Y-142624331D02*
X92467219Y-142767188D01*
X92467219Y-142767188D02*
X92562457Y-142862426D01*
X92562457Y-142862426D02*
X92657695Y-142910045D01*
X91514838Y-142624331D02*
X91610076Y-142671950D01*
X91610076Y-142671950D02*
X91657695Y-142767188D01*
X91657695Y-142767188D02*
X91610076Y-142862426D01*
X91610076Y-142862426D02*
X91514838Y-142910045D01*
X91514838Y-142910045D02*
X91419600Y-142862426D01*
X91419600Y-142862426D02*
X91371981Y-142767188D01*
X91371981Y-142767188D02*
X91419600Y-142671950D01*
X91419600Y-142671950D02*
X91514838Y-142624331D01*
X89991028Y-143624331D02*
X90086266Y-143576712D01*
X90086266Y-143576712D02*
X90133885Y-143481473D01*
X90133885Y-143481473D02*
X90133885Y-142624331D01*
X89229123Y-143576712D02*
X89324361Y-143624331D01*
X89324361Y-143624331D02*
X89514837Y-143624331D01*
X89514837Y-143624331D02*
X89610075Y-143576712D01*
X89610075Y-143576712D02*
X89657694Y-143481473D01*
X89657694Y-143481473D02*
X89657694Y-143100521D01*
X89657694Y-143100521D02*
X89610075Y-143005283D01*
X89610075Y-143005283D02*
X89514837Y-142957664D01*
X89514837Y-142957664D02*
X89324361Y-142957664D01*
X89324361Y-142957664D02*
X89229123Y-143005283D01*
X89229123Y-143005283D02*
X89181504Y-143100521D01*
X89181504Y-143100521D02*
X89181504Y-143195759D01*
X89181504Y-143195759D02*
X89657694Y-143290997D01*
X88324361Y-143624331D02*
X88324361Y-142624331D01*
X88324361Y-143576712D02*
X88419599Y-143624331D01*
X88419599Y-143624331D02*
X88610075Y-143624331D01*
X88610075Y-143624331D02*
X88705313Y-143576712D01*
X88705313Y-143576712D02*
X88752932Y-143529092D01*
X88752932Y-143529092D02*
X88800551Y-143433854D01*
X88800551Y-143433854D02*
X88800551Y-143148140D01*
X88800551Y-143148140D02*
X88752932Y-143052902D01*
X88752932Y-143052902D02*
X88705313Y-143005283D01*
X88705313Y-143005283D02*
X88610075Y-142957664D01*
X88610075Y-142957664D02*
X88419599Y-142957664D01*
X88419599Y-142957664D02*
X88324361Y-143005283D01*
X87181503Y-142624331D02*
X86562456Y-142624331D01*
X86562456Y-142624331D02*
X86895789Y-143005283D01*
X86895789Y-143005283D02*
X86752932Y-143005283D01*
X86752932Y-143005283D02*
X86657694Y-143052902D01*
X86657694Y-143052902D02*
X86610075Y-143100521D01*
X86610075Y-143100521D02*
X86562456Y-143195759D01*
X86562456Y-143195759D02*
X86562456Y-143433854D01*
X86562456Y-143433854D02*
X86610075Y-143529092D01*
X86610075Y-143529092D02*
X86657694Y-143576712D01*
X86657694Y-143576712D02*
X86752932Y-143624331D01*
X86752932Y-143624331D02*
X87038646Y-143624331D01*
X87038646Y-143624331D02*
X87133884Y-143576712D01*
X87133884Y-143576712D02*
X87181503Y-143529092D01*
X86086265Y-143576712D02*
X86086265Y-143624331D01*
X86086265Y-143624331D02*
X86133884Y-143719569D01*
X86133884Y-143719569D02*
X86181503Y-143767188D01*
X85229123Y-142957664D02*
X85229123Y-143624331D01*
X85467218Y-142576712D02*
X85705313Y-143290997D01*
X85705313Y-143290997D02*
X85086266Y-143290997D01*
X84848170Y-142624331D02*
X84514837Y-143624331D01*
X84514837Y-143624331D02*
X84181504Y-142624331D01*
X92467219Y-145234275D02*
X92562457Y-145186656D01*
X92562457Y-145186656D02*
X92610076Y-145139036D01*
X92610076Y-145139036D02*
X92657695Y-145043798D01*
X92657695Y-145043798D02*
X92657695Y-144758084D01*
X92657695Y-144758084D02*
X92610076Y-144662846D01*
X92610076Y-144662846D02*
X92562457Y-144615227D01*
X92562457Y-144615227D02*
X92467219Y-144567608D01*
X92467219Y-144567608D02*
X92324362Y-144567608D01*
X92324362Y-144567608D02*
X92229124Y-144615227D01*
X92229124Y-144615227D02*
X92181505Y-144662846D01*
X92181505Y-144662846D02*
X92133886Y-144758084D01*
X92133886Y-144758084D02*
X92133886Y-145043798D01*
X92133886Y-145043798D02*
X92181505Y-145139036D01*
X92181505Y-145139036D02*
X92229124Y-145186656D01*
X92229124Y-145186656D02*
X92324362Y-145234275D01*
X92324362Y-145234275D02*
X92467219Y-145234275D01*
X91705314Y-145234275D02*
X91705314Y-144567608D01*
X91705314Y-144758084D02*
X91657695Y-144662846D01*
X91657695Y-144662846D02*
X91610076Y-144615227D01*
X91610076Y-144615227D02*
X91514838Y-144567608D01*
X91514838Y-144567608D02*
X91419600Y-144567608D01*
X92086267Y-146844219D02*
X92657695Y-146844219D01*
X92371981Y-146844219D02*
X92371981Y-145844219D01*
X92371981Y-145844219D02*
X92467219Y-145987076D01*
X92467219Y-145987076D02*
X92562457Y-146082314D01*
X92562457Y-146082314D02*
X92657695Y-146129933D01*
X91514838Y-145844219D02*
X91610076Y-145891838D01*
X91610076Y-145891838D02*
X91657695Y-145987076D01*
X91657695Y-145987076D02*
X91610076Y-146082314D01*
X91610076Y-146082314D02*
X91514838Y-146129933D01*
X91514838Y-146129933D02*
X91419600Y-146082314D01*
X91419600Y-146082314D02*
X91371981Y-145987076D01*
X91371981Y-145987076D02*
X91419600Y-145891838D01*
X91419600Y-145891838D02*
X91514838Y-145844219D01*
X89991028Y-146844219D02*
X90086266Y-146796600D01*
X90086266Y-146796600D02*
X90133885Y-146701361D01*
X90133885Y-146701361D02*
X90133885Y-145844219D01*
X89229123Y-146796600D02*
X89324361Y-146844219D01*
X89324361Y-146844219D02*
X89514837Y-146844219D01*
X89514837Y-146844219D02*
X89610075Y-146796600D01*
X89610075Y-146796600D02*
X89657694Y-146701361D01*
X89657694Y-146701361D02*
X89657694Y-146320409D01*
X89657694Y-146320409D02*
X89610075Y-146225171D01*
X89610075Y-146225171D02*
X89514837Y-146177552D01*
X89514837Y-146177552D02*
X89324361Y-146177552D01*
X89324361Y-146177552D02*
X89229123Y-146225171D01*
X89229123Y-146225171D02*
X89181504Y-146320409D01*
X89181504Y-146320409D02*
X89181504Y-146415647D01*
X89181504Y-146415647D02*
X89657694Y-146510885D01*
X88324361Y-146844219D02*
X88324361Y-145844219D01*
X88324361Y-146796600D02*
X88419599Y-146844219D01*
X88419599Y-146844219D02*
X88610075Y-146844219D01*
X88610075Y-146844219D02*
X88705313Y-146796600D01*
X88705313Y-146796600D02*
X88752932Y-146748980D01*
X88752932Y-146748980D02*
X88800551Y-146653742D01*
X88800551Y-146653742D02*
X88800551Y-146368028D01*
X88800551Y-146368028D02*
X88752932Y-146272790D01*
X88752932Y-146272790D02*
X88705313Y-146225171D01*
X88705313Y-146225171D02*
X88610075Y-146177552D01*
X88610075Y-146177552D02*
X88419599Y-146177552D01*
X88419599Y-146177552D02*
X88324361Y-146225171D01*
X86610075Y-145844219D02*
X87086265Y-145844219D01*
X87086265Y-145844219D02*
X87133884Y-146320409D01*
X87133884Y-146320409D02*
X87086265Y-146272790D01*
X87086265Y-146272790D02*
X86991027Y-146225171D01*
X86991027Y-146225171D02*
X86752932Y-146225171D01*
X86752932Y-146225171D02*
X86657694Y-146272790D01*
X86657694Y-146272790D02*
X86610075Y-146320409D01*
X86610075Y-146320409D02*
X86562456Y-146415647D01*
X86562456Y-146415647D02*
X86562456Y-146653742D01*
X86562456Y-146653742D02*
X86610075Y-146748980D01*
X86610075Y-146748980D02*
X86657694Y-146796600D01*
X86657694Y-146796600D02*
X86752932Y-146844219D01*
X86752932Y-146844219D02*
X86991027Y-146844219D01*
X86991027Y-146844219D02*
X87086265Y-146796600D01*
X87086265Y-146796600D02*
X87133884Y-146748980D01*
X86276741Y-145844219D02*
X85943408Y-146844219D01*
X85943408Y-146844219D02*
X85610075Y-145844219D01*
X114822933Y-148617638D02*
X114251505Y-148617638D01*
X114537219Y-149617638D02*
X114537219Y-148617638D01*
X113918171Y-149617638D02*
X113918171Y-148617638D01*
X113918171Y-148617638D02*
X113537219Y-148617638D01*
X113537219Y-148617638D02*
X113441981Y-148665257D01*
X113441981Y-148665257D02*
X113394362Y-148712876D01*
X113394362Y-148712876D02*
X113346743Y-148808114D01*
X113346743Y-148808114D02*
X113346743Y-148950971D01*
X113346743Y-148950971D02*
X113394362Y-149046209D01*
X113394362Y-149046209D02*
X113441981Y-149093828D01*
X113441981Y-149093828D02*
X113537219Y-149141447D01*
X113537219Y-149141447D02*
X113918171Y-149141447D01*
X112489600Y-148617638D02*
X112680076Y-148617638D01*
X112680076Y-148617638D02*
X112775314Y-148665257D01*
X112775314Y-148665257D02*
X112822933Y-148712876D01*
X112822933Y-148712876D02*
X112918171Y-148855733D01*
X112918171Y-148855733D02*
X112965790Y-149046209D01*
X112965790Y-149046209D02*
X112965790Y-149427161D01*
X112965790Y-149427161D02*
X112918171Y-149522399D01*
X112918171Y-149522399D02*
X112870552Y-149570019D01*
X112870552Y-149570019D02*
X112775314Y-149617638D01*
X112775314Y-149617638D02*
X112584838Y-149617638D01*
X112584838Y-149617638D02*
X112489600Y-149570019D01*
X112489600Y-149570019D02*
X112441981Y-149522399D01*
X112441981Y-149522399D02*
X112394362Y-149427161D01*
X112394362Y-149427161D02*
X112394362Y-149189066D01*
X112394362Y-149189066D02*
X112441981Y-149093828D01*
X112441981Y-149093828D02*
X112489600Y-149046209D01*
X112489600Y-149046209D02*
X112584838Y-148998590D01*
X112584838Y-148998590D02*
X112775314Y-148998590D01*
X112775314Y-148998590D02*
X112870552Y-149046209D01*
X112870552Y-149046209D02*
X112918171Y-149093828D01*
X112918171Y-149093828D02*
X112965790Y-149189066D01*
X118317695Y-35966600D02*
X118174838Y-36014219D01*
X118174838Y-36014219D02*
X117936743Y-36014219D01*
X117936743Y-36014219D02*
X117841505Y-35966600D01*
X117841505Y-35966600D02*
X117793886Y-35918980D01*
X117793886Y-35918980D02*
X117746267Y-35823742D01*
X117746267Y-35823742D02*
X117746267Y-35728504D01*
X117746267Y-35728504D02*
X117793886Y-35633266D01*
X117793886Y-35633266D02*
X117841505Y-35585647D01*
X117841505Y-35585647D02*
X117936743Y-35538028D01*
X117936743Y-35538028D02*
X118127219Y-35490409D01*
X118127219Y-35490409D02*
X118222457Y-35442790D01*
X118222457Y-35442790D02*
X118270076Y-35395171D01*
X118270076Y-35395171D02*
X118317695Y-35299933D01*
X118317695Y-35299933D02*
X118317695Y-35204695D01*
X118317695Y-35204695D02*
X118270076Y-35109457D01*
X118270076Y-35109457D02*
X118222457Y-35061838D01*
X118222457Y-35061838D02*
X118127219Y-35014219D01*
X118127219Y-35014219D02*
X117889124Y-35014219D01*
X117889124Y-35014219D02*
X117746267Y-35061838D01*
X117412933Y-35014219D02*
X117174838Y-36014219D01*
X117174838Y-36014219D02*
X116984362Y-35299933D01*
X116984362Y-35299933D02*
X116793886Y-36014219D01*
X116793886Y-36014219D02*
X116555791Y-35014219D01*
X115651029Y-36014219D02*
X116222457Y-36014219D01*
X115936743Y-36014219D02*
X115936743Y-35014219D01*
X115936743Y-35014219D02*
X116031981Y-35157076D01*
X116031981Y-35157076D02*
X116127219Y-35252314D01*
X116127219Y-35252314D02*
X116222457Y-35299933D01*
X129070076Y-146177638D02*
X129070076Y-145177638D01*
X129070076Y-145653828D02*
X128498648Y-145653828D01*
X128498648Y-146177638D02*
X128498648Y-145177638D01*
X128022457Y-146177638D02*
X128022457Y-145177638D01*
X127022458Y-145225257D02*
X127117696Y-145177638D01*
X127117696Y-145177638D02*
X127260553Y-145177638D01*
X127260553Y-145177638D02*
X127403410Y-145225257D01*
X127403410Y-145225257D02*
X127498648Y-145320495D01*
X127498648Y-145320495D02*
X127546267Y-145415733D01*
X127546267Y-145415733D02*
X127593886Y-145606209D01*
X127593886Y-145606209D02*
X127593886Y-145749066D01*
X127593886Y-145749066D02*
X127546267Y-145939542D01*
X127546267Y-145939542D02*
X127498648Y-146034780D01*
X127498648Y-146034780D02*
X127403410Y-146130019D01*
X127403410Y-146130019D02*
X127260553Y-146177638D01*
X127260553Y-146177638D02*
X127165315Y-146177638D01*
X127165315Y-146177638D02*
X127022458Y-146130019D01*
X127022458Y-146130019D02*
X126974839Y-146082399D01*
X126974839Y-146082399D02*
X126974839Y-145749066D01*
X126974839Y-145749066D02*
X127165315Y-145749066D01*
X126546267Y-146177638D02*
X126546267Y-145177638D01*
X126546267Y-145653828D02*
X125974839Y-145653828D01*
X125974839Y-146177638D02*
X125974839Y-145177638D01*
X125641505Y-145177638D02*
X125070077Y-145177638D01*
X125355791Y-146177638D02*
X125355791Y-145177638D01*
X130200076Y-35520409D02*
X129866743Y-35520409D01*
X129723886Y-36044219D02*
X130200076Y-36044219D01*
X130200076Y-36044219D02*
X130200076Y-35044219D01*
X130200076Y-35044219D02*
X129723886Y-35044219D01*
X128961981Y-35520409D02*
X128819124Y-35568028D01*
X128819124Y-35568028D02*
X128771505Y-35615647D01*
X128771505Y-35615647D02*
X128723886Y-35710885D01*
X128723886Y-35710885D02*
X128723886Y-35853742D01*
X128723886Y-35853742D02*
X128771505Y-35948980D01*
X128771505Y-35948980D02*
X128819124Y-35996600D01*
X128819124Y-35996600D02*
X128914362Y-36044219D01*
X128914362Y-36044219D02*
X129295314Y-36044219D01*
X129295314Y-36044219D02*
X129295314Y-35044219D01*
X129295314Y-35044219D02*
X128961981Y-35044219D01*
X128961981Y-35044219D02*
X128866743Y-35091838D01*
X128866743Y-35091838D02*
X128819124Y-35139457D01*
X128819124Y-35139457D02*
X128771505Y-35234695D01*
X128771505Y-35234695D02*
X128771505Y-35329933D01*
X128771505Y-35329933D02*
X128819124Y-35425171D01*
X128819124Y-35425171D02*
X128866743Y-35472790D01*
X128866743Y-35472790D02*
X128961981Y-35520409D01*
X128961981Y-35520409D02*
X129295314Y-35520409D01*
X164862933Y-75644219D02*
X164529600Y-76644219D01*
X164529600Y-76644219D02*
X164196267Y-75644219D01*
X163910552Y-76596600D02*
X163767695Y-76644219D01*
X163767695Y-76644219D02*
X163529600Y-76644219D01*
X163529600Y-76644219D02*
X163434362Y-76596600D01*
X163434362Y-76596600D02*
X163386743Y-76548980D01*
X163386743Y-76548980D02*
X163339124Y-76453742D01*
X163339124Y-76453742D02*
X163339124Y-76358504D01*
X163339124Y-76358504D02*
X163386743Y-76263266D01*
X163386743Y-76263266D02*
X163434362Y-76215647D01*
X163434362Y-76215647D02*
X163529600Y-76168028D01*
X163529600Y-76168028D02*
X163720076Y-76120409D01*
X163720076Y-76120409D02*
X163815314Y-76072790D01*
X163815314Y-76072790D02*
X163862933Y-76025171D01*
X163862933Y-76025171D02*
X163910552Y-75929933D01*
X163910552Y-75929933D02*
X163910552Y-75834695D01*
X163910552Y-75834695D02*
X163862933Y-75739457D01*
X163862933Y-75739457D02*
X163815314Y-75691838D01*
X163815314Y-75691838D02*
X163720076Y-75644219D01*
X163720076Y-75644219D02*
X163481981Y-75644219D01*
X163481981Y-75644219D02*
X163339124Y-75691838D01*
X162958171Y-76596600D02*
X162815314Y-76644219D01*
X162815314Y-76644219D02*
X162577219Y-76644219D01*
X162577219Y-76644219D02*
X162481981Y-76596600D01*
X162481981Y-76596600D02*
X162434362Y-76548980D01*
X162434362Y-76548980D02*
X162386743Y-76453742D01*
X162386743Y-76453742D02*
X162386743Y-76358504D01*
X162386743Y-76358504D02*
X162434362Y-76263266D01*
X162434362Y-76263266D02*
X162481981Y-76215647D01*
X162481981Y-76215647D02*
X162577219Y-76168028D01*
X162577219Y-76168028D02*
X162767695Y-76120409D01*
X162767695Y-76120409D02*
X162862933Y-76072790D01*
X162862933Y-76072790D02*
X162910552Y-76025171D01*
X162910552Y-76025171D02*
X162958171Y-75929933D01*
X162958171Y-75929933D02*
X162958171Y-75834695D01*
X162958171Y-75834695D02*
X162910552Y-75739457D01*
X162910552Y-75739457D02*
X162862933Y-75691838D01*
X162862933Y-75691838D02*
X162767695Y-75644219D01*
X162767695Y-75644219D02*
X162529600Y-75644219D01*
X162529600Y-75644219D02*
X162386743Y-75691838D01*
X123407695Y-35996600D02*
X123264838Y-36044219D01*
X123264838Y-36044219D02*
X123026743Y-36044219D01*
X123026743Y-36044219D02*
X122931505Y-35996600D01*
X122931505Y-35996600D02*
X122883886Y-35948980D01*
X122883886Y-35948980D02*
X122836267Y-35853742D01*
X122836267Y-35853742D02*
X122836267Y-35758504D01*
X122836267Y-35758504D02*
X122883886Y-35663266D01*
X122883886Y-35663266D02*
X122931505Y-35615647D01*
X122931505Y-35615647D02*
X123026743Y-35568028D01*
X123026743Y-35568028D02*
X123217219Y-35520409D01*
X123217219Y-35520409D02*
X123312457Y-35472790D01*
X123312457Y-35472790D02*
X123360076Y-35425171D01*
X123360076Y-35425171D02*
X123407695Y-35329933D01*
X123407695Y-35329933D02*
X123407695Y-35234695D01*
X123407695Y-35234695D02*
X123360076Y-35139457D01*
X123360076Y-35139457D02*
X123312457Y-35091838D01*
X123312457Y-35091838D02*
X123217219Y-35044219D01*
X123217219Y-35044219D02*
X122979124Y-35044219D01*
X122979124Y-35044219D02*
X122836267Y-35091838D01*
X122502933Y-35044219D02*
X122264838Y-36044219D01*
X122264838Y-36044219D02*
X122074362Y-35329933D01*
X122074362Y-35329933D02*
X121883886Y-36044219D01*
X121883886Y-36044219D02*
X121645791Y-35044219D01*
X121312457Y-35139457D02*
X121264838Y-35091838D01*
X121264838Y-35091838D02*
X121169600Y-35044219D01*
X121169600Y-35044219D02*
X120931505Y-35044219D01*
X120931505Y-35044219D02*
X120836267Y-35091838D01*
X120836267Y-35091838D02*
X120788648Y-35139457D01*
X120788648Y-35139457D02*
X120741029Y-35234695D01*
X120741029Y-35234695D02*
X120741029Y-35329933D01*
X120741029Y-35329933D02*
X120788648Y-35472790D01*
X120788648Y-35472790D02*
X121360076Y-36044219D01*
X121360076Y-36044219D02*
X120741029Y-36044219D01*
X140230076Y-35540409D02*
X139896743Y-35540409D01*
X139753886Y-36064219D02*
X140230076Y-36064219D01*
X140230076Y-36064219D02*
X140230076Y-35064219D01*
X140230076Y-35064219D02*
X139753886Y-35064219D01*
X139372933Y-35778504D02*
X138896743Y-35778504D01*
X139468171Y-36064219D02*
X139134838Y-35064219D01*
X139134838Y-35064219D02*
X138801505Y-36064219D01*
X135296267Y-35061838D02*
X135391505Y-35014219D01*
X135391505Y-35014219D02*
X135534362Y-35014219D01*
X135534362Y-35014219D02*
X135677219Y-35061838D01*
X135677219Y-35061838D02*
X135772457Y-35157076D01*
X135772457Y-35157076D02*
X135820076Y-35252314D01*
X135820076Y-35252314D02*
X135867695Y-35442790D01*
X135867695Y-35442790D02*
X135867695Y-35585647D01*
X135867695Y-35585647D02*
X135820076Y-35776123D01*
X135820076Y-35776123D02*
X135772457Y-35871361D01*
X135772457Y-35871361D02*
X135677219Y-35966600D01*
X135677219Y-35966600D02*
X135534362Y-36014219D01*
X135534362Y-36014219D02*
X135439124Y-36014219D01*
X135439124Y-36014219D02*
X135296267Y-35966600D01*
X135296267Y-35966600D02*
X135248648Y-35918980D01*
X135248648Y-35918980D02*
X135248648Y-35585647D01*
X135248648Y-35585647D02*
X135439124Y-35585647D01*
X134820076Y-36014219D02*
X134820076Y-35014219D01*
X134820076Y-35014219D02*
X134248648Y-36014219D01*
X134248648Y-36014219D02*
X134248648Y-35014219D01*
X133772457Y-36014219D02*
X133772457Y-35014219D01*
X133772457Y-35014219D02*
X133534362Y-35014219D01*
X133534362Y-35014219D02*
X133391505Y-35061838D01*
X133391505Y-35061838D02*
X133296267Y-35157076D01*
X133296267Y-35157076D02*
X133248648Y-35252314D01*
X133248648Y-35252314D02*
X133201029Y-35442790D01*
X133201029Y-35442790D02*
X133201029Y-35585647D01*
X133201029Y-35585647D02*
X133248648Y-35776123D01*
X133248648Y-35776123D02*
X133296267Y-35871361D01*
X133296267Y-35871361D02*
X133391505Y-35966600D01*
X133391505Y-35966600D02*
X133534362Y-36014219D01*
X133534362Y-36014219D02*
X133772457Y-36014219D01*
D11*
X114663319Y-36209149D02*
X113663319Y-36209149D01*
X113663319Y-36209149D02*
X113663319Y-36447244D01*
X113663319Y-36447244D02*
X113710938Y-36590101D01*
X113710938Y-36590101D02*
X113806176Y-36685339D01*
X113806176Y-36685339D02*
X113901414Y-36732958D01*
X113901414Y-36732958D02*
X114091890Y-36780577D01*
X114091890Y-36780577D02*
X114234747Y-36780577D01*
X114234747Y-36780577D02*
X114425223Y-36732958D01*
X114425223Y-36732958D02*
X114520461Y-36685339D01*
X114520461Y-36685339D02*
X114615700Y-36590101D01*
X114615700Y-36590101D02*
X114663319Y-36447244D01*
X114663319Y-36447244D02*
X114663319Y-36209149D01*
X113663319Y-37113911D02*
X113663319Y-37732958D01*
X113663319Y-37732958D02*
X114044271Y-37399625D01*
X114044271Y-37399625D02*
X114044271Y-37542482D01*
X114044271Y-37542482D02*
X114091890Y-37637720D01*
X114091890Y-37637720D02*
X114139509Y-37685339D01*
X114139509Y-37685339D02*
X114234747Y-37732958D01*
X114234747Y-37732958D02*
X114472842Y-37732958D01*
X114472842Y-37732958D02*
X114568080Y-37685339D01*
X114568080Y-37685339D02*
X114615700Y-37637720D01*
X114615700Y-37637720D02*
X114663319Y-37542482D01*
X114663319Y-37542482D02*
X114663319Y-37256768D01*
X114663319Y-37256768D02*
X114615700Y-37161530D01*
X114615700Y-37161530D02*
X114568080Y-37113911D01*
X113663319Y-38066292D02*
X113663319Y-38732958D01*
X113663319Y-38732958D02*
X114663319Y-38304387D01*
D12*
%TO.C,S8*%
X49031000Y-124527000D02*
X43931000Y-124527000D01*
X52931000Y-128727000D02*
X47831000Y-128727000D01*
X51031000Y-122527000D02*
G75*
G02*
X49031000Y-124527000I-1999999J-1D01*
G01*
X54931000Y-126727000D02*
G75*
G02*
X52931000Y-128727000I-1999999J-1D01*
G01*
%TO.C,S18*%
X89494750Y-105487000D02*
X84394750Y-105487000D01*
X93394750Y-109687000D02*
X88294750Y-109687000D01*
X91494750Y-103487000D02*
G75*
G02*
X89494750Y-105487000I-1999999J-1D01*
G01*
X95394750Y-107687000D02*
G75*
G02*
X93394750Y-109687000I-1999999J-1D01*
G01*
%TO.C,S6*%
X60934750Y-86447000D02*
X55834750Y-86447000D01*
X64834750Y-90647000D02*
X59734750Y-90647000D01*
X62934750Y-84447000D02*
G75*
G02*
X60934750Y-86447000I-1999999J-1D01*
G01*
X66834750Y-88647000D02*
G75*
G02*
X64834750Y-90647000I-1999999J-1D01*
G01*
%TO.C,S32*%
X170424750Y-48357000D02*
X165324750Y-48357000D01*
X174324750Y-52557000D02*
X169224750Y-52557000D01*
X172424750Y-46357000D02*
G75*
G02*
X170424750Y-48357000I-1999999J-1D01*
G01*
X176324750Y-50557000D02*
G75*
G02*
X174324750Y-52557000I-1999999J-1D01*
G01*
%TO.C,S33*%
X175187250Y-67407000D02*
X170087250Y-67407000D01*
X179087250Y-71607000D02*
X173987250Y-71607000D01*
X177187250Y-65407000D02*
G75*
G02*
X175187250Y-67407000I-1999999J-1D01*
G01*
X181087250Y-69607000D02*
G75*
G02*
X179087250Y-71607000I-1999999J-1D01*
G01*
%TO.C,S25*%
X132334750Y-67407000D02*
X127234750Y-67407000D01*
X136234750Y-71607000D02*
X131134750Y-71607000D01*
X134334750Y-65407000D02*
G75*
G02*
X132334750Y-67407000I-1999999J-1D01*
G01*
X138234750Y-69607000D02*
G75*
G02*
X136234750Y-71607000I-1999999J-1D01*
G01*
%TO.C,S5*%
X56174750Y-67407000D02*
X51074750Y-67407000D01*
X60074750Y-71607000D02*
X54974750Y-71607000D01*
X58174750Y-65407000D02*
G75*
G02*
X56174750Y-67407000I-1999999J-1D01*
G01*
X62074750Y-69607000D02*
G75*
G02*
X60074750Y-71607000I-1999999J-1D01*
G01*
%TO.C,S7*%
X51414750Y-105487000D02*
X46314750Y-105487000D01*
X55314750Y-109687000D02*
X50214750Y-109687000D01*
X53414750Y-103487000D02*
G75*
G02*
X51414750Y-105487000I-1999999J-1D01*
G01*
X57314750Y-107687000D02*
G75*
G02*
X55314750Y-109687000I-1999999J-1D01*
G01*
%TO.C,S36*%
X177568500Y-124527000D02*
X172468500Y-124527000D01*
X181468500Y-128727000D02*
X176368500Y-128727000D01*
X179568500Y-122527000D02*
G75*
G02*
X177568500Y-124527000I-1999999J-1D01*
G01*
X183468500Y-126727000D02*
G75*
G02*
X181468500Y-128727000I-1999999J-1D01*
G01*
%TO.C,S30*%
X151374750Y-67407000D02*
X146274750Y-67407000D01*
X155274750Y-71607000D02*
X150174750Y-71607000D01*
X153374750Y-65407000D02*
G75*
G02*
X151374750Y-67407000I-1999999J-1D01*
G01*
X157274750Y-69607000D02*
G75*
G02*
X155274750Y-71607000I-1999999J-1D01*
G01*
%TO.C,S2*%
X41894750Y-86447000D02*
X36794750Y-86447000D01*
X45794750Y-90647000D02*
X40694750Y-90647000D01*
X43894750Y-84447000D02*
G75*
G02*
X41894750Y-86447000I-1999999J-1D01*
G01*
X47794750Y-88647000D02*
G75*
G02*
X45794750Y-90647000I-1999999J-1D01*
G01*
%TO.C,S27*%
X127574750Y-105487000D02*
X122474750Y-105487000D01*
X131474750Y-109687000D02*
X126374750Y-109687000D01*
X129574750Y-103487000D02*
G75*
G02*
X127574750Y-105487000I-1999999J-1D01*
G01*
X133474750Y-107687000D02*
G75*
G02*
X131474750Y-109687000I-1999999J-1D01*
G01*
%TO.C,S9*%
X65689750Y-48357000D02*
X60589750Y-48357000D01*
X69589750Y-52557000D02*
X64489750Y-52557000D01*
X67689750Y-46357000D02*
G75*
G02*
X65689750Y-48357000I-1999999J-1D01*
G01*
X71589750Y-50557000D02*
G75*
G02*
X69589750Y-52557000I-1999999J-1D01*
G01*
%TO.C,S10*%
X75214750Y-67407000D02*
X70114750Y-67407000D01*
X79114750Y-71607000D02*
X74014750Y-71607000D01*
X77214750Y-65407000D02*
G75*
G02*
X75214750Y-67407000I-1999999J-1D01*
G01*
X81114750Y-69607000D02*
G75*
G02*
X79114750Y-71607000I-1999999J-1D01*
G01*
%TO.C,S1*%
X37134750Y-67407000D02*
X32034750Y-67407000D01*
X41034750Y-71607000D02*
X35934750Y-71607000D01*
X39134750Y-65407000D02*
G75*
G02*
X37134750Y-67407000I-1999999J-1D01*
G01*
X43034750Y-69607000D02*
G75*
G02*
X41034750Y-71607000I-1999999J-1D01*
G01*
%TO.C,S13*%
X79972250Y-124527000D02*
X74872250Y-124527000D01*
X83872250Y-128727000D02*
X78772250Y-128727000D01*
X81972250Y-122527000D02*
G75*
G02*
X79972250Y-124527000I-1999999J-1D01*
G01*
X85872250Y-126727000D02*
G75*
G02*
X83872250Y-128727000I-1999999J-1D01*
G01*
%TO.C,S17*%
X99014750Y-86447000D02*
X93914750Y-86447000D01*
X102914750Y-90647000D02*
X97814750Y-90647000D01*
X101014750Y-84447000D02*
G75*
G02*
X99014750Y-86447000I-1999999J-1D01*
G01*
X104914750Y-88647000D02*
G75*
G02*
X102914750Y-90647000I-1999999J-1D01*
G01*
%TO.C,S23*%
X106153500Y-124527000D02*
X101053500Y-124527000D01*
X110053500Y-128727000D02*
X104953500Y-128727000D01*
X108153500Y-122527000D02*
G75*
G02*
X106153500Y-124527000I-1999999J-1D01*
G01*
X112053500Y-126727000D02*
G75*
G02*
X110053500Y-128727000I-1999999J-1D01*
G01*
%TO.C,S21*%
X118054750Y-86447000D02*
X112954750Y-86447000D01*
X121954750Y-90647000D02*
X116854750Y-90647000D01*
X120054750Y-84447000D02*
G75*
G02*
X118054750Y-86447000I-1999999J-1D01*
G01*
X123954750Y-88647000D02*
G75*
G02*
X121954750Y-90647000I-1999999J-1D01*
G01*
%TO.C,S31*%
X153753500Y-124527000D02*
X148653500Y-124527000D01*
X157653500Y-128727000D02*
X152553500Y-128727000D01*
X155753500Y-122527000D02*
G75*
G02*
X153753500Y-124527000I-1999999J-1D01*
G01*
X159653500Y-126727000D02*
G75*
G02*
X157653500Y-128727000I-1999999J-1D01*
G01*
%TO.C,S28*%
X129953500Y-124527000D02*
X124853500Y-124527000D01*
X133853500Y-128727000D02*
X128753500Y-128727000D01*
X131953500Y-122527000D02*
G75*
G02*
X129953500Y-124527000I-1999999J-1D01*
G01*
X135853500Y-126727000D02*
G75*
G02*
X133853500Y-128727000I-1999999J-1D01*
G01*
%TO.C,S24*%
X122809750Y-48357000D02*
X117709750Y-48357000D01*
X126709750Y-52557000D02*
X121609750Y-52557000D01*
X124809750Y-46357000D02*
G75*
G02*
X122809750Y-48357000I-1999999J-1D01*
G01*
X128709750Y-50557000D02*
G75*
G02*
X126709750Y-52557000I-1999999J-1D01*
G01*
%TO.C,S35*%
X163281000Y-105487000D02*
X158181000Y-105487000D01*
X167181000Y-109687000D02*
X162081000Y-109687000D01*
X165281000Y-103487000D02*
G75*
G02*
X163281000Y-105487000I-1999999J-1D01*
G01*
X169181000Y-107687000D02*
G75*
G02*
X167181000Y-109687000I-1999999J-1D01*
G01*
%TO.C,S26*%
X137094750Y-86447000D02*
X131994750Y-86447000D01*
X140994750Y-90647000D02*
X135894750Y-90647000D01*
X139094750Y-84447000D02*
G75*
G02*
X137094750Y-86447000I-1999999J-1D01*
G01*
X142994750Y-88647000D02*
G75*
G02*
X140994750Y-90647000I-1999999J-1D01*
G01*
%TO.C,S11*%
X79974750Y-86447000D02*
X74874750Y-86447000D01*
X83874750Y-90647000D02*
X78774750Y-90647000D01*
X81974750Y-84447000D02*
G75*
G02*
X79974750Y-86447000I-1999999J-1D01*
G01*
X85874750Y-88647000D02*
G75*
G02*
X83874750Y-90647000I-1999999J-1D01*
G01*
%TO.C,S4*%
X46649750Y-48357000D02*
X41549750Y-48357000D01*
X50549750Y-52557000D02*
X45449750Y-52557000D01*
X48649750Y-46357000D02*
G75*
G02*
X46649750Y-48357000I-1999999J-1D01*
G01*
X52549750Y-50557000D02*
G75*
G02*
X50549750Y-52557000I-1999999J-1D01*
G01*
%TO.C,S12*%
X70454750Y-105487000D02*
X65354750Y-105487000D01*
X74354750Y-109687000D02*
X69254750Y-109687000D01*
X72454750Y-103487000D02*
G75*
G02*
X70454750Y-105487000I-1999999J-1D01*
G01*
X76354750Y-107687000D02*
G75*
G02*
X74354750Y-109687000I-1999999J-1D01*
G01*
%TO.C,S20*%
X113294750Y-67407000D02*
X108194750Y-67407000D01*
X117194750Y-71607000D02*
X112094750Y-71607000D01*
X115294750Y-65407000D02*
G75*
G02*
X113294750Y-67407000I-1999999J-1D01*
G01*
X119194750Y-69607000D02*
G75*
G02*
X117194750Y-71607000I-1999999J-1D01*
G01*
%TO.C,S19*%
X103769750Y-48357000D02*
X98669750Y-48357000D01*
X107669750Y-52557000D02*
X102569750Y-52557000D01*
X105769750Y-46357000D02*
G75*
G02*
X103769750Y-48357000I-1999999J-1D01*
G01*
X109669750Y-50557000D02*
G75*
G02*
X107669750Y-52557000I-1999999J-1D01*
G01*
%TO.C,S22*%
X108534750Y-105487000D02*
X103434750Y-105487000D01*
X112434750Y-109687000D02*
X107334750Y-109687000D01*
X110534750Y-103487000D02*
G75*
G02*
X108534750Y-105487000I-1999999J-1D01*
G01*
X114434750Y-107687000D02*
G75*
G02*
X112434750Y-109687000I-1999999J-1D01*
G01*
%TO.C,S15*%
X84729750Y-48357000D02*
X79629750Y-48357000D01*
X88629750Y-52557000D02*
X83529750Y-52557000D01*
X86729750Y-46357000D02*
G75*
G02*
X84729750Y-48357000I-1999999J-1D01*
G01*
X90629750Y-50557000D02*
G75*
G02*
X88629750Y-52557000I-1999999J-1D01*
G01*
%TO.C,S16*%
X94254750Y-67407000D02*
X89154750Y-67407000D01*
X98154750Y-71607000D02*
X93054750Y-71607000D01*
X96254750Y-65407000D02*
G75*
G02*
X94254750Y-67407000I-1999999J-1D01*
G01*
X100154750Y-69607000D02*
G75*
G02*
X98154750Y-71607000I-1999999J-1D01*
G01*
%TO.C,S29*%
X141849750Y-48357000D02*
X136749750Y-48357000D01*
X145749750Y-52557000D02*
X140649750Y-52557000D01*
X143849750Y-46357000D02*
G75*
G02*
X141849750Y-48357000I-1999999J-1D01*
G01*
X147749750Y-50557000D02*
G75*
G02*
X145749750Y-52557000I-1999999J-1D01*
G01*
%TO.C,S34*%
X168043500Y-86447000D02*
X162943500Y-86447000D01*
X171943500Y-90647000D02*
X166843500Y-90647000D01*
X170043500Y-84447000D02*
G75*
G02*
X168043500Y-86447000I-1999999J-1D01*
G01*
X173943500Y-88647000D02*
G75*
G02*
X171943500Y-90647000I-1999999J-1D01*
G01*
%TO.C,JP2*%
X125889750Y-141810419D02*
X127889750Y-141810419D01*
X125889750Y-144610419D02*
X125889750Y-141810419D01*
X127889750Y-141810419D02*
X127889750Y-144610419D01*
X127889750Y-144610419D02*
X125889750Y-144610419D01*
D10*
%TO.C,D11*%
X76629750Y-91747000D02*
X77799750Y-92402000D01*
X76629750Y-93077000D02*
X76629750Y-91747000D01*
X77799750Y-92402000D02*
X76629750Y-93077000D01*
X77799750Y-93067000D02*
X77799750Y-91737000D01*
D13*
X80459750Y-93367000D02*
X82169750Y-93367000D01*
X80479750Y-91407000D02*
X82179750Y-91407000D01*
X82179750Y-93357000D02*
X82179750Y-91407000D01*
D10*
%TO.C,D9*%
X64449750Y-53637000D02*
X65619750Y-54292000D01*
X64449750Y-54967000D02*
X64449750Y-53637000D01*
X65619750Y-54292000D02*
X64449750Y-54967000D01*
X65619750Y-54957000D02*
X65619750Y-53627000D01*
D13*
X68279750Y-55257000D02*
X69989750Y-55257000D01*
X68299750Y-53297000D02*
X69999750Y-53297000D01*
X69999750Y-55247000D02*
X69999750Y-53297000D01*
D10*
%TO.C,D24*%
X121599750Y-53657000D02*
X122769750Y-54312000D01*
X121599750Y-54987000D02*
X121599750Y-53657000D01*
X122769750Y-54312000D02*
X121599750Y-54987000D01*
X122769750Y-54977000D02*
X122769750Y-53647000D01*
D13*
X125429750Y-55277000D02*
X127139750Y-55277000D01*
X125449750Y-53317000D02*
X127149750Y-53317000D01*
X127149750Y-55267000D02*
X127149750Y-53317000D01*
D10*
%TO.C,D12*%
X69557250Y-110718250D02*
X70727250Y-111373250D01*
X69557250Y-112048250D02*
X69557250Y-110718250D01*
X70727250Y-111373250D02*
X69557250Y-112048250D01*
X70727250Y-112038250D02*
X70727250Y-110708250D01*
D13*
X73387250Y-112338250D02*
X75097250Y-112338250D01*
X73407250Y-110378250D02*
X75107250Y-110378250D01*
X75107250Y-112328250D02*
X75107250Y-110378250D01*
D10*
%TO.C,D25*%
X132579750Y-72637000D02*
X133749750Y-73292000D01*
X132579750Y-73967000D02*
X132579750Y-72637000D01*
X133749750Y-73292000D02*
X132579750Y-73967000D01*
X133749750Y-73957000D02*
X133749750Y-72627000D01*
D13*
X136409750Y-74257000D02*
X138119750Y-74257000D01*
X136429750Y-72297000D02*
X138129750Y-72297000D01*
X138129750Y-74247000D02*
X138129750Y-72297000D01*
D10*
%TO.C,D3*%
X40699750Y-148667000D02*
X41869750Y-149322000D01*
X40699750Y-149997000D02*
X40699750Y-148667000D01*
X41869750Y-149322000D02*
X40699750Y-149997000D01*
X41869750Y-149987000D02*
X41869750Y-148657000D01*
D13*
X44529750Y-150287000D02*
X46239750Y-150287000D01*
X44549750Y-148327000D02*
X46249750Y-148327000D01*
X46249750Y-150277000D02*
X46249750Y-148327000D01*
D10*
%TO.C,D38*%
X77749750Y-142507000D02*
X78919750Y-143162000D01*
X77749750Y-143837000D02*
X77749750Y-142507000D01*
X78919750Y-143162000D02*
X77749750Y-143837000D01*
X78919750Y-143827000D02*
X78919750Y-142497000D01*
D13*
X81579750Y-144127000D02*
X83289750Y-144127000D01*
X81599750Y-142167000D02*
X83299750Y-142167000D01*
X83299750Y-144117000D02*
X83299750Y-142167000D01*
D10*
%TO.C,D22*%
X106509750Y-110767000D02*
X107679750Y-111422000D01*
X106509750Y-112097000D02*
X106509750Y-110767000D01*
X107679750Y-111422000D02*
X106509750Y-112097000D01*
X107679750Y-112087000D02*
X107679750Y-110757000D01*
D13*
X110339750Y-112387000D02*
X112049750Y-112387000D01*
X110359750Y-110427000D02*
X112059750Y-110427000D01*
X112059750Y-112377000D02*
X112059750Y-110427000D01*
D10*
%TO.C,D33*%
X173039750Y-72697000D02*
X174209750Y-73352000D01*
X173039750Y-74027000D02*
X173039750Y-72697000D01*
X174209750Y-73352000D02*
X173039750Y-74027000D01*
X174209750Y-74017000D02*
X174209750Y-72687000D01*
D13*
X176869750Y-74317000D02*
X178579750Y-74317000D01*
X176889750Y-72357000D02*
X178589750Y-72357000D01*
X178589750Y-74307000D02*
X178589750Y-72357000D01*
D10*
%TO.C,D7*%
X51289750Y-110897000D02*
X52459750Y-111552000D01*
X51289750Y-112227000D02*
X51289750Y-110897000D01*
X52459750Y-111552000D02*
X51289750Y-112227000D01*
X52459750Y-112217000D02*
X52459750Y-110887000D01*
D13*
X55119750Y-112517000D02*
X56829750Y-112517000D01*
X55139750Y-110557000D02*
X56839750Y-110557000D01*
X56839750Y-112507000D02*
X56839750Y-110557000D01*
D10*
%TO.C,D30*%
X151179750Y-72677000D02*
X152349750Y-73332000D01*
X151179750Y-74007000D02*
X151179750Y-72677000D01*
X152349750Y-73332000D02*
X151179750Y-74007000D01*
X152349750Y-73997000D02*
X152349750Y-72667000D01*
D13*
X155009750Y-74297000D02*
X156719750Y-74297000D01*
X155029750Y-72337000D02*
X156729750Y-72337000D01*
X156729750Y-74287000D02*
X156729750Y-72337000D01*
D10*
%TO.C,D14*%
X65019750Y-148477000D02*
X66189750Y-149132000D01*
X65019750Y-149807000D02*
X65019750Y-148477000D01*
X66189750Y-149132000D02*
X65019750Y-149807000D01*
X66189750Y-149797000D02*
X66189750Y-148467000D01*
D13*
X68849750Y-150097000D02*
X70559750Y-150097000D01*
X68869750Y-148137000D02*
X70569750Y-148137000D01*
X70569750Y-150087000D02*
X70569750Y-148137000D01*
D10*
%TO.C,D15*%
X82919750Y-53627000D02*
X84089750Y-54282000D01*
X82919750Y-54957000D02*
X82919750Y-53627000D01*
X84089750Y-54282000D02*
X82919750Y-54957000D01*
X84089750Y-54947000D02*
X84089750Y-53617000D01*
D13*
X86749750Y-55247000D02*
X88459750Y-55247000D01*
X86769750Y-53287000D02*
X88469750Y-53287000D01*
X88469750Y-55237000D02*
X88469750Y-53287000D01*
D10*
%TO.C,D16*%
X93479750Y-72517000D02*
X94649750Y-73172000D01*
X93479750Y-73847000D02*
X93479750Y-72517000D01*
X94649750Y-73172000D02*
X93479750Y-73847000D01*
X94649750Y-73837000D02*
X94649750Y-72507000D01*
D13*
X97309750Y-74137000D02*
X99019750Y-74137000D01*
X97329750Y-72177000D02*
X99029750Y-72177000D01*
X99029750Y-74127000D02*
X99029750Y-72177000D01*
D12*
%TO.C,JP3*%
X76989750Y-145107000D02*
X79789750Y-145107000D01*
X76989750Y-147107000D02*
X76989750Y-145107000D01*
X79789750Y-145107000D02*
X79789750Y-147107000D01*
X79789750Y-147107000D02*
X76989750Y-147107000D01*
D10*
%TO.C,D1*%
X40169750Y-72717000D02*
X41339750Y-73372000D01*
X40169750Y-74047000D02*
X40169750Y-72717000D01*
X41339750Y-73372000D02*
X40169750Y-74047000D01*
X41339750Y-74037000D02*
X41339750Y-72707000D01*
D13*
X43999750Y-74337000D02*
X45709750Y-74337000D01*
X44019750Y-72377000D02*
X45719750Y-72377000D01*
X45719750Y-74327000D02*
X45719750Y-72377000D01*
D10*
%TO.C,D6*%
X60079750Y-91697000D02*
X61249750Y-92352000D01*
X60079750Y-93027000D02*
X60079750Y-91697000D01*
X61249750Y-92352000D02*
X60079750Y-93027000D01*
X61249750Y-93017000D02*
X61249750Y-91687000D01*
D13*
X63909750Y-93317000D02*
X65619750Y-93317000D01*
X63929750Y-91357000D02*
X65629750Y-91357000D01*
X65629750Y-93307000D02*
X65629750Y-91357000D01*
D10*
%TO.C,D17*%
X97409750Y-91677000D02*
X98579750Y-92332000D01*
X97409750Y-93007000D02*
X97409750Y-91677000D01*
X98579750Y-92332000D02*
X97409750Y-93007000D01*
X98579750Y-92997000D02*
X98579750Y-91667000D01*
D13*
X101239750Y-93297000D02*
X102949750Y-93297000D01*
X101259750Y-91337000D02*
X102959750Y-91337000D01*
X102959750Y-93287000D02*
X102959750Y-91337000D01*
%TO.C,D37*%
X113268500Y-47134500D02*
X113268500Y-48844500D01*
X113278500Y-48854500D02*
X115228500Y-48854500D01*
D10*
X113558500Y-43304500D02*
X114888500Y-43304500D01*
X113568500Y-44474500D02*
X114898500Y-44474500D01*
X114233500Y-44474500D02*
X113558500Y-43304500D01*
X114888500Y-43304500D02*
X114233500Y-44474500D01*
D13*
X115228500Y-47154500D02*
X115228500Y-48854500D01*
D10*
%TO.C,D28*%
X126297250Y-129898250D02*
X127467250Y-130553250D01*
X126297250Y-131228250D02*
X126297250Y-129898250D01*
X127467250Y-130553250D02*
X126297250Y-131228250D01*
X127467250Y-131218250D02*
X127467250Y-129888250D01*
D13*
X130127250Y-131518250D02*
X131837250Y-131518250D01*
X130147250Y-129558250D02*
X131847250Y-129558250D01*
X131847250Y-131508250D02*
X131847250Y-129558250D01*
D10*
%TO.C,D36*%
X174619750Y-129679419D02*
X175789750Y-130334419D01*
X174619750Y-131009419D02*
X174619750Y-129679419D01*
X175789750Y-130334419D02*
X174619750Y-131009419D01*
X175789750Y-130999419D02*
X175789750Y-129669419D01*
D13*
X178449750Y-131299419D02*
X180159750Y-131299419D01*
X178469750Y-129339419D02*
X180169750Y-129339419D01*
X180169750Y-131289419D02*
X180169750Y-129339419D01*
D10*
%TO.C,D18*%
X90219750Y-110847000D02*
X91389750Y-111502000D01*
X90219750Y-112177000D02*
X90219750Y-110847000D01*
X91389750Y-111502000D02*
X90219750Y-112177000D01*
X91389750Y-112167000D02*
X91389750Y-110837000D01*
D13*
X94049750Y-112467000D02*
X95759750Y-112467000D01*
X94069750Y-110507000D02*
X95769750Y-110507000D01*
X95769750Y-112457000D02*
X95769750Y-110507000D01*
D10*
%TO.C,D34*%
X166979750Y-91697000D02*
X168149750Y-92352000D01*
X166979750Y-93027000D02*
X166979750Y-91697000D01*
X168149750Y-92352000D02*
X166979750Y-93027000D01*
X168149750Y-93017000D02*
X168149750Y-91687000D01*
D13*
X170809750Y-93317000D02*
X172519750Y-93317000D01*
X170829750Y-91357000D02*
X172529750Y-91357000D01*
X172529750Y-93307000D02*
X172529750Y-91357000D01*
D10*
%TO.C,D21*%
X114849750Y-91857000D02*
X116019750Y-92512000D01*
X114849750Y-93187000D02*
X114849750Y-91857000D01*
X116019750Y-92512000D02*
X114849750Y-93187000D01*
X116019750Y-93177000D02*
X116019750Y-91847000D01*
D13*
X118679750Y-93477000D02*
X120389750Y-93477000D01*
X118699750Y-91517000D02*
X120399750Y-91517000D01*
X120399750Y-93467000D02*
X120399750Y-91517000D01*
D10*
%TO.C,D19*%
X102699750Y-53590419D02*
X103869750Y-54245419D01*
X102699750Y-54920419D02*
X102699750Y-53590419D01*
X103869750Y-54245419D02*
X102699750Y-54920419D01*
X103869750Y-54910419D02*
X103869750Y-53580419D01*
D13*
X106529750Y-55210419D02*
X108239750Y-55210419D01*
X106549750Y-53250419D02*
X108249750Y-53250419D01*
X108249750Y-55200419D02*
X108249750Y-53250419D01*
D12*
%TO.C,JP1*%
X121599750Y-141780419D02*
X123599750Y-141780419D01*
X121599750Y-144580419D02*
X121599750Y-141780419D01*
X123599750Y-141780419D02*
X123599750Y-144580419D01*
X123599750Y-144580419D02*
X121599750Y-144580419D01*
D10*
%TO.C,D35*%
X162879750Y-110797000D02*
X164049750Y-111452000D01*
X162879750Y-112127000D02*
X162879750Y-110797000D01*
X164049750Y-111452000D02*
X162879750Y-112127000D01*
X164049750Y-112117000D02*
X164049750Y-110787000D01*
D13*
X166709750Y-112417000D02*
X168419750Y-112417000D01*
X166729750Y-110457000D02*
X168429750Y-110457000D01*
X168429750Y-112407000D02*
X168429750Y-110457000D01*
D10*
%TO.C,D10*%
X73729750Y-72637000D02*
X74899750Y-73292000D01*
X73729750Y-73967000D02*
X73729750Y-72637000D01*
X74899750Y-73292000D02*
X73729750Y-73967000D01*
X74899750Y-73957000D02*
X74899750Y-72627000D01*
D13*
X77559750Y-74257000D02*
X79269750Y-74257000D01*
X77579750Y-72297000D02*
X79279750Y-72297000D01*
X79279750Y-74247000D02*
X79279750Y-72297000D01*
D10*
%TO.C,D31*%
X153029750Y-129717000D02*
X154199750Y-130372000D01*
X153029750Y-131047000D02*
X153029750Y-129717000D01*
X154199750Y-130372000D02*
X153029750Y-131047000D01*
X154199750Y-131037000D02*
X154199750Y-129707000D01*
D13*
X156859750Y-131337000D02*
X158569750Y-131337000D01*
X156879750Y-129377000D02*
X158579750Y-129377000D01*
X158579750Y-131327000D02*
X158579750Y-129377000D01*
D10*
%TO.C,D23*%
X105339750Y-129877000D02*
X106509750Y-130532000D01*
X105339750Y-131207000D02*
X105339750Y-129877000D01*
X106509750Y-130532000D02*
X105339750Y-131207000D01*
X106509750Y-131197000D02*
X106509750Y-129867000D01*
D13*
X109169750Y-131497000D02*
X110879750Y-131497000D01*
X109189750Y-129537000D02*
X110889750Y-129537000D01*
X110889750Y-131487000D02*
X110889750Y-129537000D01*
D10*
%TO.C,D29*%
X140959750Y-53590419D02*
X142129750Y-54245419D01*
X140959750Y-54920419D02*
X140959750Y-53590419D01*
X142129750Y-54245419D02*
X140959750Y-54920419D01*
X142129750Y-54910419D02*
X142129750Y-53580419D01*
D13*
X144789750Y-55210419D02*
X146499750Y-55210419D01*
X144809750Y-53250419D02*
X146509750Y-53250419D01*
X146509750Y-55200419D02*
X146509750Y-53250419D01*
D10*
%TO.C,D4*%
X45219750Y-53687000D02*
X46389750Y-54342000D01*
X45219750Y-55017000D02*
X45219750Y-53687000D01*
X46389750Y-54342000D02*
X45219750Y-55017000D01*
X46389750Y-55007000D02*
X46389750Y-53677000D01*
D13*
X49049750Y-55307000D02*
X50759750Y-55307000D01*
X49069750Y-53347000D02*
X50769750Y-53347000D01*
X50769750Y-55297000D02*
X50769750Y-53347000D01*
D10*
%TO.C,D20*%
X112799750Y-72577000D02*
X113969750Y-73232000D01*
X112799750Y-73907000D02*
X112799750Y-72577000D01*
X113969750Y-73232000D02*
X112799750Y-73907000D01*
X113969750Y-73897000D02*
X113969750Y-72567000D01*
D13*
X116629750Y-74197000D02*
X118339750Y-74197000D01*
X116649750Y-72237000D02*
X118349750Y-72237000D01*
X118349750Y-74187000D02*
X118349750Y-72237000D01*
D10*
%TO.C,D8*%
X48017250Y-129788250D02*
X49187250Y-130443250D01*
X48017250Y-131118250D02*
X48017250Y-129788250D01*
X49187250Y-130443250D02*
X48017250Y-131118250D01*
X49187250Y-131108250D02*
X49187250Y-129778250D01*
D13*
X51847250Y-131408250D02*
X53557250Y-131408250D01*
X51867250Y-129448250D02*
X53567250Y-129448250D01*
X53567250Y-131398250D02*
X53567250Y-129448250D01*
D10*
%TO.C,D27*%
X126139750Y-110867000D02*
X127309750Y-111522000D01*
X126139750Y-112197000D02*
X126139750Y-110867000D01*
X127309750Y-111522000D02*
X126139750Y-112197000D01*
X127309750Y-112187000D02*
X127309750Y-110857000D01*
D13*
X129969750Y-112487000D02*
X131679750Y-112487000D01*
X129989750Y-110527000D02*
X131689750Y-110527000D01*
X131689750Y-112477000D02*
X131689750Y-110527000D01*
D10*
%TO.C,D26*%
X135179750Y-91717000D02*
X136349750Y-92372000D01*
X135179750Y-93047000D02*
X135179750Y-91717000D01*
X136349750Y-92372000D02*
X135179750Y-93047000D01*
X136349750Y-93037000D02*
X136349750Y-91707000D01*
D13*
X139009750Y-93337000D02*
X140719750Y-93337000D01*
X139029750Y-91377000D02*
X140729750Y-91377000D01*
X140729750Y-93327000D02*
X140729750Y-91377000D01*
D10*
%TO.C,D2*%
X49009750Y-91787000D02*
X50179750Y-92442000D01*
X49009750Y-93117000D02*
X49009750Y-91787000D01*
X50179750Y-92442000D02*
X49009750Y-93117000D01*
X50179750Y-93107000D02*
X50179750Y-91777000D01*
D13*
X52839750Y-93407000D02*
X54549750Y-93407000D01*
X52859750Y-91447000D02*
X54559750Y-91447000D01*
X54559750Y-93397000D02*
X54559750Y-91447000D01*
D10*
%TO.C,D32*%
X169929750Y-53597000D02*
X171099750Y-54252000D01*
X169929750Y-54927000D02*
X169929750Y-53597000D01*
X171099750Y-54252000D02*
X169929750Y-54927000D01*
X171099750Y-54917000D02*
X171099750Y-53587000D01*
D13*
X173759750Y-55217000D02*
X175469750Y-55217000D01*
X173779750Y-53257000D02*
X175479750Y-53257000D01*
X175479750Y-55207000D02*
X175479750Y-53257000D01*
D10*
%TO.C,D5*%
X55059750Y-72577000D02*
X56229750Y-73232000D01*
X55059750Y-73907000D02*
X55059750Y-72577000D01*
X56229750Y-73232000D02*
X55059750Y-73907000D01*
X56229750Y-73897000D02*
X56229750Y-72567000D01*
D13*
X58889750Y-74197000D02*
X60599750Y-74197000D01*
X58909750Y-72237000D02*
X60609750Y-72237000D01*
X60609750Y-74187000D02*
X60609750Y-72237000D01*
D10*
%TO.C,D13*%
X78877250Y-129918250D02*
X80047250Y-130573250D01*
X78877250Y-131248250D02*
X78877250Y-129918250D01*
X80047250Y-130573250D02*
X78877250Y-131248250D01*
X80047250Y-131238250D02*
X80047250Y-129908250D01*
D13*
X82707250Y-131538250D02*
X84417250Y-131538250D01*
X82727250Y-129578250D02*
X84427250Y-129578250D01*
X84427250Y-131528250D02*
X84427250Y-129578250D01*
%TD*%
%LPC*%
D14*
%TO.C,S3*%
X46662250Y-139852000D03*
D15*
X41162250Y-139852000D03*
D14*
X35662250Y-139852000D03*
D16*
X41162250Y-145752000D03*
X36162250Y-143652000D03*
%TD*%
D17*
%TO.C,S8*%
X53911000Y-121827000D03*
D18*
X52641000Y-124367000D03*
D19*
X48831000Y-121827000D03*
D18*
X46291000Y-126907000D03*
D17*
X43751000Y-121827000D03*
D20*
X55916000Y-124367000D03*
X42989000Y-126907000D03*
%TD*%
D17*
%TO.C,S18*%
X94374750Y-102787000D03*
D18*
X93104750Y-105327000D03*
D19*
X89294750Y-102787000D03*
D18*
X86754750Y-107867000D03*
D17*
X84214750Y-102787000D03*
D20*
X96379750Y-105327000D03*
X83452750Y-107867000D03*
%TD*%
D21*
%TO.C,U1*%
X184549750Y-140525419D03*
D22*
X181519750Y-140825419D03*
X181519750Y-145675419D03*
D21*
X184549750Y-145975419D03*
D23*
X184679750Y-134360419D03*
X182139750Y-134360419D03*
D24*
X179599750Y-134360419D03*
D23*
X177059750Y-134360419D03*
X174519750Y-134360419D03*
X171979750Y-134360419D03*
X169439750Y-134360419D03*
D24*
X166899750Y-134360419D03*
D23*
X164359750Y-134360419D03*
X161819750Y-134360419D03*
X159279750Y-134360419D03*
X156739750Y-134360419D03*
D24*
X154199750Y-134360419D03*
D23*
X151659750Y-134360419D03*
X149119750Y-134360419D03*
X146579750Y-134360419D03*
X144039750Y-134360419D03*
D24*
X141499750Y-134360419D03*
D23*
X138959750Y-134360419D03*
X136419750Y-134360419D03*
X136419750Y-152140419D03*
X138959750Y-152140419D03*
D24*
X141499750Y-152140419D03*
D23*
X144039750Y-152140419D03*
X146579750Y-152140419D03*
X149119750Y-152140419D03*
X151659750Y-152140419D03*
D24*
X154199750Y-152140419D03*
D23*
X156739750Y-152140419D03*
X159279750Y-152140419D03*
X161819750Y-152140419D03*
X164359750Y-152140419D03*
D24*
X166899750Y-152140419D03*
D23*
X169439750Y-152140419D03*
X171979750Y-152140419D03*
X174519750Y-152140419D03*
X177059750Y-152140419D03*
D24*
X179599750Y-152140419D03*
D23*
X182139750Y-152140419D03*
X184679750Y-152140419D03*
X136649750Y-140710419D03*
D24*
X136649750Y-143250419D03*
D23*
X136649750Y-145790419D03*
%TD*%
D17*
%TO.C,S6*%
X65814750Y-83747000D03*
D18*
X64544750Y-86287000D03*
D19*
X60734750Y-83747000D03*
D18*
X58194750Y-88827000D03*
D17*
X55654750Y-83747000D03*
D20*
X67819750Y-86287000D03*
X54892750Y-88827000D03*
%TD*%
D17*
%TO.C,S32*%
X175304750Y-45657000D03*
D18*
X174034750Y-48197000D03*
D19*
X170224750Y-45657000D03*
D18*
X167684750Y-50737000D03*
D17*
X165144750Y-45657000D03*
D20*
X177309750Y-48197000D03*
X164382750Y-50737000D03*
%TD*%
D25*
%TO.C,U3*%
X89449750Y-23518600D03*
X89449750Y-30518600D03*
D26*
X87149750Y-33218600D03*
X91749750Y-32118600D03*
X91749750Y-28118600D03*
X91749750Y-25118600D03*
%TD*%
D17*
%TO.C,S33*%
X180067250Y-64707000D03*
D18*
X178797250Y-67247000D03*
D19*
X174987250Y-64707000D03*
D18*
X172447250Y-69787000D03*
D17*
X169907250Y-64707000D03*
D20*
X182072250Y-67247000D03*
X169145250Y-69787000D03*
%TD*%
D17*
%TO.C,S25*%
X137214750Y-64707000D03*
D18*
X135944750Y-67247000D03*
D19*
X132134750Y-64707000D03*
D18*
X129594750Y-69787000D03*
D17*
X127054750Y-64707000D03*
D20*
X139219750Y-67247000D03*
X126292750Y-69787000D03*
%TD*%
D17*
%TO.C,S5*%
X61054750Y-64707000D03*
D18*
X59784750Y-67247000D03*
D19*
X55974750Y-64707000D03*
D18*
X53434750Y-69787000D03*
D17*
X50894750Y-64707000D03*
D20*
X63059750Y-67247000D03*
X50132750Y-69787000D03*
%TD*%
D17*
%TO.C,S7*%
X56294750Y-102787000D03*
D18*
X55024750Y-105327000D03*
D19*
X51214750Y-102787000D03*
D18*
X48674750Y-107867000D03*
D17*
X46134750Y-102787000D03*
D20*
X58299750Y-105327000D03*
X45372750Y-107867000D03*
%TD*%
D17*
%TO.C,S36*%
X182448500Y-121827000D03*
D18*
X181178500Y-124367000D03*
D19*
X177368500Y-121827000D03*
D18*
X174828500Y-126907000D03*
D17*
X172288500Y-121827000D03*
D20*
X184453500Y-124367000D03*
X171526500Y-126907000D03*
%TD*%
D17*
%TO.C,S30*%
X156254750Y-64707000D03*
D18*
X154984750Y-67247000D03*
D19*
X151174750Y-64707000D03*
D18*
X148634750Y-69787000D03*
D17*
X146094750Y-64707000D03*
D20*
X158259750Y-67247000D03*
X145332750Y-69787000D03*
%TD*%
D17*
%TO.C,S2*%
X46774750Y-83747000D03*
D18*
X45504750Y-86287000D03*
D19*
X41694750Y-83747000D03*
D18*
X39154750Y-88827000D03*
D17*
X36614750Y-83747000D03*
D20*
X48779750Y-86287000D03*
X35852750Y-88827000D03*
%TD*%
D17*
%TO.C,S27*%
X132454750Y-102787000D03*
D18*
X131184750Y-105327000D03*
D19*
X127374750Y-102787000D03*
D18*
X124834750Y-107867000D03*
D17*
X122294750Y-102787000D03*
D20*
X134459750Y-105327000D03*
X121532750Y-107867000D03*
%TD*%
D17*
%TO.C,S9*%
X70569750Y-45657000D03*
D18*
X69299750Y-48197000D03*
D19*
X65489750Y-45657000D03*
D18*
X62949750Y-50737000D03*
D17*
X60409750Y-45657000D03*
D20*
X72574750Y-48197000D03*
X59647750Y-50737000D03*
%TD*%
D17*
%TO.C,S10*%
X80094750Y-64707000D03*
D18*
X78824750Y-67247000D03*
D19*
X75014750Y-64707000D03*
D18*
X72474750Y-69787000D03*
D17*
X69934750Y-64707000D03*
D20*
X82099750Y-67247000D03*
X69172750Y-69787000D03*
%TD*%
D17*
%TO.C,S1*%
X42014750Y-64707000D03*
D18*
X40744750Y-67247000D03*
D19*
X36934750Y-64707000D03*
D18*
X34394750Y-69787000D03*
D17*
X31854750Y-64707000D03*
D20*
X44019750Y-67247000D03*
X31092750Y-69787000D03*
%TD*%
D17*
%TO.C,S13*%
X84852250Y-121827000D03*
D18*
X83582250Y-124367000D03*
D19*
X79772250Y-121827000D03*
D18*
X77232250Y-126907000D03*
D17*
X74692250Y-121827000D03*
D20*
X86857250Y-124367000D03*
X73930250Y-126907000D03*
%TD*%
D17*
%TO.C,S17*%
X103894750Y-83747000D03*
D18*
X102624750Y-86287000D03*
D19*
X98814750Y-83747000D03*
D18*
X96274750Y-88827000D03*
D17*
X93734750Y-83747000D03*
D20*
X105899750Y-86287000D03*
X92972750Y-88827000D03*
%TD*%
D24*
%TO.C,TP6*%
X113463964Y-145664614D03*
%TD*%
D17*
%TO.C,S23*%
X111033500Y-121827000D03*
D18*
X109763500Y-124367000D03*
D19*
X105953500Y-121827000D03*
D18*
X103413500Y-126907000D03*
D17*
X100873500Y-121827000D03*
D20*
X113038500Y-124367000D03*
X100111500Y-126907000D03*
%TD*%
D24*
%TO.C,TP4*%
X134339750Y-32827000D03*
%TD*%
D17*
%TO.C,S21*%
X122934750Y-83747000D03*
D18*
X121664750Y-86287000D03*
D19*
X117854750Y-83747000D03*
D18*
X115314750Y-88827000D03*
D17*
X112774750Y-83747000D03*
D20*
X124939750Y-86287000D03*
X112012750Y-88827000D03*
%TD*%
D17*
%TO.C,S31*%
X158633500Y-121827000D03*
D18*
X157363500Y-124367000D03*
D19*
X153553500Y-121827000D03*
D18*
X151013500Y-126907000D03*
D17*
X148473500Y-121827000D03*
D20*
X160638500Y-124367000D03*
X147711500Y-126907000D03*
%TD*%
D17*
%TO.C,S28*%
X134833500Y-121827000D03*
D18*
X133563500Y-124367000D03*
D19*
X129753500Y-121827000D03*
D18*
X127213500Y-126907000D03*
D17*
X124673500Y-121827000D03*
D20*
X136838500Y-124367000D03*
X123911500Y-126907000D03*
%TD*%
D17*
%TO.C,S24*%
X127689750Y-45657000D03*
D18*
X126419750Y-48197000D03*
D19*
X122609750Y-45657000D03*
D18*
X120069750Y-50737000D03*
D17*
X117529750Y-45657000D03*
D20*
X129694750Y-48197000D03*
X116767750Y-50737000D03*
%TD*%
D17*
%TO.C,S35*%
X168161000Y-102787000D03*
D18*
X166891000Y-105327000D03*
D19*
X163081000Y-102787000D03*
D18*
X160541000Y-107867000D03*
D17*
X158001000Y-102787000D03*
D20*
X170166000Y-105327000D03*
X157239000Y-107867000D03*
%TD*%
D17*
%TO.C,S26*%
X141974750Y-83747000D03*
D18*
X140704750Y-86287000D03*
D19*
X136894750Y-83747000D03*
D18*
X134354750Y-88827000D03*
D17*
X131814750Y-83747000D03*
D20*
X143979750Y-86287000D03*
X131052750Y-88827000D03*
%TD*%
D16*
%TO.C,H3*%
X165402250Y-121832000D03*
%TD*%
D24*
%TO.C,TP5*%
X139269750Y-32857000D03*
%TD*%
D17*
%TO.C,S11*%
X84854750Y-83747000D03*
D18*
X83584750Y-86287000D03*
D19*
X79774750Y-83747000D03*
D18*
X77234750Y-88827000D03*
D17*
X74694750Y-83747000D03*
D20*
X86859750Y-86287000D03*
X73932750Y-88827000D03*
%TD*%
D24*
%TO.C,TP2*%
X121969750Y-32777000D03*
%TD*%
D17*
%TO.C,S4*%
X51529750Y-45657000D03*
D18*
X50259750Y-48197000D03*
D19*
X46449750Y-45657000D03*
D18*
X43909750Y-50737000D03*
D17*
X41369750Y-45657000D03*
D20*
X53534750Y-48197000D03*
X40607750Y-50737000D03*
%TD*%
D24*
%TO.C,TP3*%
X129309750Y-32867000D03*
%TD*%
D16*
%TO.C,H4*%
X64301000Y-118827000D03*
%TD*%
D17*
%TO.C,S12*%
X75334750Y-102787000D03*
D18*
X74064750Y-105327000D03*
D19*
X70254750Y-102787000D03*
D18*
X67714750Y-107867000D03*
D17*
X65174750Y-102787000D03*
D20*
X77339750Y-105327000D03*
X64412750Y-107867000D03*
%TD*%
D14*
%TO.C,S14*%
X71412250Y-139852000D03*
D15*
X65912250Y-139852000D03*
D14*
X60412250Y-139852000D03*
D16*
X65912250Y-145752000D03*
X60912250Y-143652000D03*
%TD*%
D17*
%TO.C,S20*%
X118174750Y-64707000D03*
D18*
X116904750Y-67247000D03*
D19*
X113094750Y-64707000D03*
D18*
X110554750Y-69787000D03*
D17*
X108014750Y-64707000D03*
D20*
X120179750Y-67247000D03*
X107252750Y-69787000D03*
%TD*%
D17*
%TO.C,S19*%
X108649750Y-45657000D03*
D18*
X107379750Y-48197000D03*
D19*
X103569750Y-45657000D03*
D18*
X101029750Y-50737000D03*
D17*
X98489750Y-45657000D03*
D20*
X110654750Y-48197000D03*
X97727750Y-50737000D03*
%TD*%
D16*
%TO.C,H2*%
X163080750Y-64707000D03*
%TD*%
D24*
%TO.C,TP1*%
X117419750Y-32747000D03*
%TD*%
D17*
%TO.C,S22*%
X113414750Y-102787000D03*
D18*
X112144750Y-105327000D03*
D19*
X108334750Y-102787000D03*
D18*
X105794750Y-107867000D03*
D17*
X103254750Y-102787000D03*
D20*
X115419750Y-105327000D03*
X102492750Y-107867000D03*
%TD*%
D17*
%TO.C,S15*%
X89609750Y-45657000D03*
D18*
X88339750Y-48197000D03*
D19*
X84529750Y-45657000D03*
D18*
X81989750Y-50737000D03*
D17*
X79449750Y-45657000D03*
D20*
X91614750Y-48197000D03*
X78687750Y-50737000D03*
%TD*%
D17*
%TO.C,S16*%
X99134750Y-64707000D03*
D18*
X97864750Y-67247000D03*
D19*
X94054750Y-64707000D03*
D18*
X91514750Y-69787000D03*
D17*
X88974750Y-64707000D03*
D20*
X101139750Y-67247000D03*
X88212750Y-69787000D03*
%TD*%
D17*
%TO.C,S29*%
X146729750Y-45657000D03*
D18*
X145459750Y-48197000D03*
D19*
X141649750Y-45657000D03*
D18*
X139109750Y-50737000D03*
D17*
X136569750Y-45657000D03*
D20*
X148734750Y-48197000D03*
X135807750Y-50737000D03*
%TD*%
D16*
%TO.C,H1*%
X65472250Y-64052000D03*
%TD*%
D17*
%TO.C,S34*%
X172923500Y-83747000D03*
D18*
X171653500Y-86287000D03*
D19*
X167843500Y-83747000D03*
D18*
X165303500Y-88827000D03*
D17*
X162763500Y-83747000D03*
D20*
X174928500Y-86287000D03*
X162001500Y-88827000D03*
%TD*%
D27*
%TO.C,JP2*%
X126889750Y-142560419D03*
X126889750Y-143860419D03*
%TD*%
D28*
%TO.C,LED21*%
X120554750Y-79558000D03*
X120554750Y-78058000D03*
X115154750Y-78058000D03*
X115154750Y-79558000D03*
%TD*%
D29*
%TO.C,D11*%
X81179750Y-92397000D03*
D30*
X79129750Y-92397000D03*
D31*
X75279750Y-92397000D03*
D32*
X73179750Y-92397000D03*
%TD*%
D28*
%TO.C,LED32*%
X172924750Y-41468000D03*
X172924750Y-39968000D03*
X167524750Y-39968000D03*
X167524750Y-41468000D03*
%TD*%
%TO.C,LED36*%
X180068500Y-117638000D03*
X180068500Y-116138000D03*
X174668500Y-116138000D03*
X174668500Y-117638000D03*
%TD*%
D29*
%TO.C,D9*%
X68999750Y-54287000D03*
D30*
X66949750Y-54287000D03*
D31*
X63099750Y-54287000D03*
D32*
X60999750Y-54287000D03*
%TD*%
D28*
%TO.C,LED24*%
X125309750Y-41468000D03*
X125309750Y-39968000D03*
X119909750Y-39968000D03*
X119909750Y-41468000D03*
%TD*%
D29*
%TO.C,D24*%
X126149750Y-54307000D03*
D30*
X124099750Y-54307000D03*
D31*
X120249750Y-54307000D03*
D32*
X118149750Y-54307000D03*
%TD*%
D33*
%TO.C,LED5*%
X53274750Y-59018000D03*
X53274750Y-60518000D03*
X58674750Y-60518000D03*
X58674750Y-59018000D03*
%TD*%
D28*
%TO.C,LED2*%
X44394750Y-79558000D03*
X44394750Y-78058000D03*
X38994750Y-78058000D03*
X38994750Y-79558000D03*
%TD*%
D33*
%TO.C,LED12*%
X67554750Y-97098000D03*
X67554750Y-98598000D03*
X72954750Y-98598000D03*
X72954750Y-97098000D03*
%TD*%
D29*
%TO.C,D12*%
X74107250Y-111368250D03*
D30*
X72057250Y-111368250D03*
D31*
X68207250Y-111368250D03*
D32*
X66107250Y-111368250D03*
%TD*%
D28*
%TO.C,LED31*%
X156253500Y-117638000D03*
X156253500Y-116138000D03*
X150853500Y-116138000D03*
X150853500Y-117638000D03*
%TD*%
D29*
%TO.C,D25*%
X137129750Y-73287000D03*
D30*
X135079750Y-73287000D03*
D31*
X131229750Y-73287000D03*
D32*
X129129750Y-73287000D03*
%TD*%
D29*
%TO.C,D3*%
X45249750Y-149317000D03*
D30*
X43199750Y-149317000D03*
D31*
X39349750Y-149317000D03*
D32*
X37249750Y-149317000D03*
%TD*%
D29*
%TO.C,D38*%
X82299750Y-143157000D03*
D30*
X80249750Y-143157000D03*
D31*
X76399750Y-143157000D03*
D32*
X74299750Y-143157000D03*
%TD*%
D29*
%TO.C,D22*%
X111059750Y-111417000D03*
D30*
X109009750Y-111417000D03*
D31*
X105159750Y-111417000D03*
D32*
X103059750Y-111417000D03*
%TD*%
D29*
%TO.C,D33*%
X177589750Y-73347000D03*
D30*
X175539750Y-73347000D03*
D31*
X171689750Y-73347000D03*
D32*
X169589750Y-73347000D03*
%TD*%
D29*
%TO.C,D7*%
X55839750Y-111547000D03*
D30*
X53789750Y-111547000D03*
D31*
X49939750Y-111547000D03*
D32*
X47839750Y-111547000D03*
%TD*%
D29*
%TO.C,D30*%
X155729750Y-73327000D03*
D30*
X153679750Y-73327000D03*
D31*
X149829750Y-73327000D03*
D32*
X147729750Y-73327000D03*
%TD*%
D28*
%TO.C,LED13*%
X82472250Y-117638000D03*
X82472250Y-116138000D03*
X77072250Y-116138000D03*
X77072250Y-117638000D03*
%TD*%
D33*
%TO.C,LED35*%
X160381000Y-97098000D03*
X160381000Y-98598000D03*
X165781000Y-98598000D03*
X165781000Y-97098000D03*
%TD*%
D29*
%TO.C,D14*%
X69569750Y-149127000D03*
D30*
X67519750Y-149127000D03*
D31*
X63669750Y-149127000D03*
D32*
X61569750Y-149127000D03*
%TD*%
D28*
%TO.C,LED28*%
X132453500Y-117638000D03*
X132453500Y-116138000D03*
X127053500Y-116138000D03*
X127053500Y-117638000D03*
%TD*%
D34*
%TO.C,SW1*%
X101399750Y-145150419D03*
X107699750Y-145150419D03*
X101399750Y-141350419D03*
X107699750Y-141350419D03*
%TD*%
D29*
%TO.C,D15*%
X87469750Y-54277000D03*
D30*
X85419750Y-54277000D03*
D31*
X81569750Y-54277000D03*
D32*
X79469750Y-54277000D03*
%TD*%
D29*
%TO.C,D16*%
X98029750Y-73167000D03*
D30*
X95979750Y-73167000D03*
D31*
X92129750Y-73167000D03*
D32*
X90029750Y-73167000D03*
%TD*%
D33*
%TO.C,LED22*%
X105634750Y-97098000D03*
X105634750Y-98598000D03*
X111034750Y-98598000D03*
X111034750Y-97098000D03*
%TD*%
D28*
%TO.C,LED26*%
X139594750Y-79558000D03*
X139594750Y-78058000D03*
X134194750Y-78058000D03*
X134194750Y-79558000D03*
%TD*%
D35*
%TO.C,JP3*%
X79039750Y-146107000D03*
X77739750Y-146107000D03*
%TD*%
D33*
%TO.C,LED20*%
X110394750Y-59018000D03*
X110394750Y-60518000D03*
X115794750Y-60518000D03*
X115794750Y-59018000D03*
%TD*%
D29*
%TO.C,D1*%
X44719750Y-73367000D03*
D30*
X42669750Y-73367000D03*
D31*
X38819750Y-73367000D03*
D32*
X36719750Y-73367000D03*
%TD*%
D28*
%TO.C,LED34*%
X170543500Y-79558000D03*
X170543500Y-78058000D03*
X165143500Y-78058000D03*
X165143500Y-79558000D03*
%TD*%
D33*
%TO.C,LED10*%
X72314750Y-59018000D03*
X72314750Y-60518000D03*
X77714750Y-60518000D03*
X77714750Y-59018000D03*
%TD*%
D28*
%TO.C,LED11*%
X82474750Y-79558000D03*
X82474750Y-78058000D03*
X77074750Y-78058000D03*
X77074750Y-79558000D03*
%TD*%
%TO.C,LED15*%
X87229750Y-41468000D03*
X87229750Y-39968000D03*
X81829750Y-39968000D03*
X81829750Y-41468000D03*
%TD*%
D29*
%TO.C,D6*%
X64629750Y-92347000D03*
D30*
X62579750Y-92347000D03*
D31*
X58729750Y-92347000D03*
D32*
X56629750Y-92347000D03*
%TD*%
D33*
%TO.C,LED30*%
X148474750Y-59018000D03*
X148474750Y-60518000D03*
X153874750Y-60518000D03*
X153874750Y-59018000D03*
%TD*%
D28*
%TO.C,LED4*%
X49149750Y-41468000D03*
X49149750Y-39968000D03*
X43749750Y-39968000D03*
X43749750Y-41468000D03*
%TD*%
D29*
%TO.C,D17*%
X101959750Y-92327000D03*
D30*
X99909750Y-92327000D03*
D31*
X96059750Y-92327000D03*
D32*
X93959750Y-92327000D03*
%TD*%
D29*
%TO.C,D37*%
X114238500Y-47854500D03*
D36*
X114238500Y-45804500D03*
D37*
X114238500Y-41954500D03*
D32*
X114238500Y-39854500D03*
%TD*%
D29*
%TO.C,D28*%
X130847250Y-130548250D03*
D30*
X128797250Y-130548250D03*
D31*
X124947250Y-130548250D03*
D32*
X122847250Y-130548250D03*
%TD*%
D29*
%TO.C,D36*%
X179169750Y-130329419D03*
D30*
X177119750Y-130329419D03*
D31*
X173269750Y-130329419D03*
D32*
X171169750Y-130329419D03*
%TD*%
D29*
%TO.C,D18*%
X94769750Y-111497000D03*
D30*
X92719750Y-111497000D03*
D31*
X88869750Y-111497000D03*
D32*
X86769750Y-111497000D03*
%TD*%
D33*
%TO.C,LED25*%
X129434750Y-59018000D03*
X129434750Y-60518000D03*
X134834750Y-60518000D03*
X134834750Y-59018000D03*
%TD*%
D29*
%TO.C,D34*%
X171529750Y-92347000D03*
D30*
X169479750Y-92347000D03*
D31*
X165629750Y-92347000D03*
D32*
X163529750Y-92347000D03*
%TD*%
D29*
%TO.C,D21*%
X119399750Y-92507000D03*
D30*
X117349750Y-92507000D03*
D31*
X113499750Y-92507000D03*
D32*
X111399750Y-92507000D03*
%TD*%
D29*
%TO.C,D19*%
X107249750Y-54240419D03*
D30*
X105199750Y-54240419D03*
D31*
X101349750Y-54240419D03*
D32*
X99249750Y-54240419D03*
%TD*%
D27*
%TO.C,JP1*%
X122599750Y-142530419D03*
X122599750Y-143830419D03*
%TD*%
D33*
%TO.C,LED16*%
X91354750Y-59018000D03*
X91354750Y-60518000D03*
X96754750Y-60518000D03*
X96754750Y-59018000D03*
%TD*%
D28*
%TO.C,LED17*%
X101514750Y-79558000D03*
X101514750Y-78058000D03*
X96114750Y-78058000D03*
X96114750Y-79558000D03*
%TD*%
D29*
%TO.C,D35*%
X167429750Y-111447000D03*
D30*
X165379750Y-111447000D03*
D31*
X161529750Y-111447000D03*
D32*
X159429750Y-111447000D03*
%TD*%
D28*
%TO.C,LED29*%
X144349750Y-41468000D03*
X144349750Y-39968000D03*
X138949750Y-39968000D03*
X138949750Y-41468000D03*
%TD*%
D29*
%TO.C,D10*%
X78279750Y-73287000D03*
D30*
X76229750Y-73287000D03*
D31*
X72379750Y-73287000D03*
D32*
X70279750Y-73287000D03*
%TD*%
D29*
%TO.C,D31*%
X157579750Y-130367000D03*
D30*
X155529750Y-130367000D03*
D31*
X151679750Y-130367000D03*
D32*
X149579750Y-130367000D03*
%TD*%
D33*
%TO.C,LED7*%
X48514750Y-97098000D03*
X48514750Y-98598000D03*
X53914750Y-98598000D03*
X53914750Y-97098000D03*
%TD*%
D29*
%TO.C,D23*%
X109889750Y-130527000D03*
D30*
X107839750Y-130527000D03*
D31*
X103989750Y-130527000D03*
D32*
X101889750Y-130527000D03*
%TD*%
D33*
%TO.C,LED1*%
X34234750Y-59018000D03*
X34234750Y-60518000D03*
X39634750Y-60518000D03*
X39634750Y-59018000D03*
%TD*%
%TO.C,LED3*%
X38462250Y-134163000D03*
X38462250Y-135663000D03*
X43862250Y-135663000D03*
X43862250Y-134163000D03*
%TD*%
D29*
%TO.C,D29*%
X145509750Y-54240419D03*
D30*
X143459750Y-54240419D03*
D31*
X139609750Y-54240419D03*
D32*
X137509750Y-54240419D03*
%TD*%
D29*
%TO.C,D4*%
X49769750Y-54337000D03*
D30*
X47719750Y-54337000D03*
D31*
X43869750Y-54337000D03*
D32*
X41769750Y-54337000D03*
%TD*%
D33*
%TO.C,LED27*%
X124674750Y-97098000D03*
X124674750Y-98598000D03*
X130074750Y-98598000D03*
X130074750Y-97098000D03*
%TD*%
D29*
%TO.C,D20*%
X117349750Y-73227000D03*
D30*
X115299750Y-73227000D03*
D31*
X111449750Y-73227000D03*
D32*
X109349750Y-73227000D03*
%TD*%
D28*
%TO.C,LED19*%
X106269750Y-41468000D03*
X106269750Y-39968000D03*
X100869750Y-39968000D03*
X100869750Y-41468000D03*
%TD*%
D33*
%TO.C,LED14*%
X63212250Y-134163000D03*
X63212250Y-135663000D03*
X68612250Y-135663000D03*
X68612250Y-134163000D03*
%TD*%
D29*
%TO.C,D8*%
X52567250Y-130438250D03*
D30*
X50517250Y-130438250D03*
D31*
X46667250Y-130438250D03*
D32*
X44567250Y-130438250D03*
%TD*%
D29*
%TO.C,D27*%
X130689750Y-111517000D03*
D30*
X128639750Y-111517000D03*
D31*
X124789750Y-111517000D03*
D32*
X122689750Y-111517000D03*
%TD*%
D29*
%TO.C,D26*%
X139729750Y-92367000D03*
D30*
X137679750Y-92367000D03*
D31*
X133829750Y-92367000D03*
D32*
X131729750Y-92367000D03*
%TD*%
D28*
%TO.C,LED8*%
X51531000Y-117638000D03*
X51531000Y-116138000D03*
X46131000Y-116138000D03*
X46131000Y-117638000D03*
%TD*%
D33*
%TO.C,LED18*%
X86594750Y-97098000D03*
X86594750Y-98598000D03*
X91994750Y-98598000D03*
X91994750Y-97098000D03*
%TD*%
D29*
%TO.C,D2*%
X53559750Y-92437000D03*
D30*
X51509750Y-92437000D03*
D31*
X47659750Y-92437000D03*
D32*
X45559750Y-92437000D03*
%TD*%
D28*
%TO.C,LED9*%
X68189750Y-41468000D03*
X68189750Y-39968000D03*
X62789750Y-39968000D03*
X62789750Y-41468000D03*
%TD*%
%TO.C,LED23*%
X108653500Y-117638000D03*
X108653500Y-116138000D03*
X103253500Y-116138000D03*
X103253500Y-117638000D03*
%TD*%
D29*
%TO.C,D32*%
X174479750Y-54247000D03*
D30*
X172429750Y-54247000D03*
D31*
X168579750Y-54247000D03*
D32*
X166479750Y-54247000D03*
%TD*%
D29*
%TO.C,D5*%
X59609750Y-73227000D03*
D30*
X57559750Y-73227000D03*
D31*
X53709750Y-73227000D03*
D32*
X51609750Y-73227000D03*
%TD*%
D33*
%TO.C,LED33*%
X172287250Y-59018000D03*
X172287250Y-60518000D03*
X177687250Y-60518000D03*
X177687250Y-59018000D03*
%TD*%
D29*
%TO.C,D13*%
X83427250Y-130568250D03*
D30*
X81377250Y-130568250D03*
D31*
X77527250Y-130568250D03*
D32*
X75427250Y-130568250D03*
%TD*%
D28*
%TO.C,LED6*%
X63434750Y-79558000D03*
X63434750Y-78058000D03*
X58034750Y-78058000D03*
X58034750Y-79558000D03*
%TD*%
%LPD*%
M02*
