M48
; DRILL file {KiCad 8.0.7} date 2025-05-31T19:51:50+0200
; FORMAT={-:-/ absolute / inch / decimal}
; #@! TF.CreationDate,2025-05-31T19:51:50+02:00
; #@! TF.GenerationSoftware,Kicad,Pcbnew,8.0.7
; #@! TF.FileFunction,Plated,1,2,PTH
FMAT,2
INCH
; #@! TA.AperFunction,Plated,PTH,ViaDrill
T1C0.0138
; #@! TA.AperFunction,Plated,PTH,ComponentDrill
T2C0.0354
; #@! TA.AperFunction,Plated,PTH,ComponentDrill
T3C0.0394
; #@! TA.AperFunction,Plated,PTH,ComponentDrill
T4C0.0402
; #@! TA.AperFunction,Plated,PTH,ComponentDrill
T5C0.0472
%
G90
G05
T1
X1.2441Y-2.3268
X1.3937Y-5.3386
X1.4134Y-5.9894
X1.4331Y-3.1043
X1.4386Y-3.0095
X1.5079Y-4.5984
X1.5587Y-4.9644
X1.6122Y-1.6772
X1.6319Y-4.6099
X1.6421Y-3.5315
X1.774Y-2.3193
X1.7819Y-3.9365
X1.7835Y-3.7185
X1.7988Y-2.4709
X1.8157Y-3.0122
X1.8315Y-2.0516
X1.8642Y-2.5692
X1.939Y-3.5101
X1.9745Y-3.307
X2.0118Y-2.437
X2.0212Y-3.128
X2.0827Y-5.278
X2.0984Y-5.7858
X2.1122Y-2.0731
X2.1437Y-2.2026
X2.1807Y-4.2725
X2.2017Y-5.0613
X2.2027Y-3.9449
X2.2165Y-1.8681
X2.2398Y-5.344
X2.2468Y-1.6288
X2.2634Y-6.0924
X2.2716Y-5.1351
X2.2728Y-4.7803
X2.2779Y-5.0142
X2.2795Y-3.3622
X2.3524Y-3.824
X2.3752Y-4.3457
X2.4087Y-4.0428
X2.4197Y-5.344
X2.4571Y-1.8606
X2.4828Y-2.7975
X2.5331Y-3.2563
X2.5435Y-5.1392
X2.6179Y-2.805
X2.6531Y-2.3256
X2.6685Y-3.6126
X2.6823Y-4.6012
X2.715Y-5.557
X2.7303Y-5.002
X2.7827Y-3.1406
X2.7968Y-5.6865
X2.7976Y-3.591
X2.8036Y-3.458
X2.8563Y-2.0849
X2.9043Y-1.6209
X2.9338Y-5.5243
X2.9496Y-4.513
X2.959Y-5.929
X3.0079Y-3.9488
X3.1024Y-4.3445
X3.1398Y-2.4193
X3.1425Y-3.8303
X3.1579Y-4.2597
X3.1673Y-3.9599
X3.1752Y-2.8642
X3.2287Y-3.5213
X3.2323Y-2.766
X3.2417Y-3.7173
X3.2992Y-4.137
X3.3043Y-2.5563
X3.3063Y-3.9402
X3.315Y-5.4173
X3.3508Y-2.3229
X3.3646Y-3.128
X3.3653Y-6.0554
X3.4196Y-5.0613
X3.4744Y-1.061
X3.4795Y-5.4916
X3.4978Y-5.0172
X3.5047Y-2.9634
X3.5492Y-3.2854
X3.5492Y-3.6043
X3.5512Y-4.527
X3.5634Y-1.6319
X3.6012Y-5.1196
X3.6043Y-2.0967
X3.7191Y-5.4396
X3.7472Y-4.6337
X3.752Y-1.7815
X3.761Y-1.2294
X3.8405Y-4.3251
X3.8496Y-0.9849
X3.8535Y-1.5114
X3.876Y-2.4567
X3.8819Y-3.9154
X3.9016Y-4.2933
X3.9075Y-3.833
X3.965Y-3.5259
X4.0342Y-2.7929
X4.1004Y-2.3205
X4.1036Y-3.0011
X4.1311Y-2.0343
X4.1693Y-3.5889
X4.2925Y-3.1205
X4.315Y-3.0079
X4.3193Y-1.6461
X4.3228Y-3.376
X4.3563Y-2.0613
X4.4503Y-5.0416
X4.5441Y-4.3251
X4.5567Y-5.5038
X4.565Y-2.1339
X4.5768Y-4.624
X4.6004Y-4.0118
X4.613Y-1.8784
X4.615Y-1.6707
X4.6157Y-3.8333
X4.6248Y-5.3036
X4.6712Y-0.7396
X4.7815Y-2.8445
X4.7929Y-5.5022
X4.8062Y-2.7688
X4.8425Y-2.5217
X4.8441Y-2.3158
X4.8468Y-3.5185
X4.8602Y-3.1394
X4.8842Y-5.9898
X4.9244Y-2.211
X4.9587Y-3.5866
X4.9807Y-2.3221
X4.9854Y-5.2696
X4.9957Y-5.5534
X4.9992Y-6.0571
X5.0512Y-3.3209
X5.063Y-3.0217
X5.1161Y-2.0495
X5.1646Y-1.6314
X5.2071Y-5.7337
X5.2212Y-5.5026
X5.2488Y-6.0571
X5.2689Y-5.0118
X5.3873Y-4.2542
X5.3873Y-4.7818
X5.4008Y-1.4772
X5.4674Y-4.4641
X5.4705Y-4.5724
X5.4705Y-5.1341
X5.5448Y-2.7744
X5.561Y-5.7225
X5.576Y-4.0133
X5.5811Y-2.45
X5.609Y-2.3303
X5.6299Y-5.1416
X5.6685Y-3.5236
X5.7067Y-4.5724
X5.7152Y-4.4641
X5.722Y-3.8815
X5.7681Y-1.563
X5.7951Y-4.1908
X5.8122Y-4.266
X5.8439Y-3.686
X5.8819Y-4.3759
X5.8972Y-3.018
X5.9048Y-3.1249
X5.9311Y-2.1278
X6.0484Y-3.0736
X6.0524Y-1.4534
X6.0646Y-2.0071
X6.0673Y-5.0314
X6.0693Y-1.5638
X6.1027Y-3.6862
X6.1059Y-3.8818
X6.1193Y-2.963
X6.1295Y-3.3337
X6.1346Y-2.211
X6.1417Y-1.7776
X6.1657Y-1.6221
X6.2035Y-5.6459
X6.2287Y-5.8908
X6.2327Y-2.7314
X6.239Y-3.1394
X6.259Y-2.3858
X6.2606Y-2.5114
X6.265Y-3.6223
X6.3169Y-1.5051
X6.3244Y-4.7778
X6.3492Y-1.924
X6.353Y-3.1322
X6.3988Y-3.0593
X6.4524Y-2.9638
X6.489Y-4.6272
X6.5272Y-5.8138
X6.6224Y-2.3126
X6.6614Y-2.4591
X6.6622Y-4.7739
X6.6638Y-2.3827
X6.6842Y-1.4689
X6.687Y-2.2138
X6.8008Y-4.3782
X6.8331Y-4.1467
X6.8838Y-3.5613
X6.8878Y-4.0471
X6.8968Y-2.7882
X6.9673Y-3.9436
X6.9781Y-4.4613
X6.9858Y-5.0402
X6.9882Y-3.1473
X6.9901Y-2.126
X6.9913Y-4.0696
X7.0327Y-3.6259
X7.0461Y-2.4244
X7.0858Y-1.7345
X7.0909Y-2.0078
X7.0953Y-2.2555
X7.1114Y-4.7433
X7.1682Y-2.8211
X7.1744Y-3.7487
X7.1976Y-1.5861
X7.2232Y-3.4755
X7.2338Y-4.5538
T2
X1.4457Y-2.8885
X1.4665Y-5.8786
X1.6445Y-2.1393
X1.7546Y-5.1354
X1.7606Y-2.8885
X1.7815Y-5.8786
X1.7937Y-3.6393
X1.8835Y-4.3916
X1.9594Y-2.1393
X2.0319Y-2.883
X2.0696Y-5.1354
X2.1087Y-3.6393
X2.1984Y-4.3916
X2.2295Y-3.6357
X2.3468Y-2.883
X2.4016Y-2.1373
X2.424Y-5.8711
X2.5445Y-3.6357
X2.6026Y-4.3846
X2.7165Y-2.1373
X2.739Y-5.8711
X2.7669Y-2.8853
X2.8811Y-3.6377
X2.9176Y-4.3846
X2.9252Y-5.6361
X2.9696Y-5.1405
X3.0819Y-2.8853
X3.1287Y-2.1369
X3.1961Y-3.6377
X3.2401Y-5.6361
X3.2845Y-5.1405
X3.4161Y-4.3896
X3.4437Y-2.1369
X3.5445Y-2.8806
X3.6992Y-3.6349
X3.7311Y-4.3896
X3.8594Y-2.8806
X3.9075Y-2.1354
X4.0114Y-5.1389
X4.0142Y-3.6349
X4.0575Y-4.3865
X4.2224Y-2.1354
X4.3051Y-2.883
X4.3264Y-5.1389
X4.3724Y-4.3865
X4.3858Y-3.642
X4.4976Y-1.5691
X4.4976Y-1.884
X4.6201Y-2.883
X4.6516Y-2.1381
X4.7008Y-3.642
X4.8303Y-4.3904
X4.8365Y-5.1397
X4.9665Y-2.1381
X5.0838Y-2.8853
X5.1453Y-4.3904
X5.1515Y-5.1397
X5.1862Y-3.6365
X5.3988Y-2.8853
X5.4138Y-2.1354
X5.5012Y-3.6365
X5.7287Y-2.1354
X5.8161Y-2.8869
X5.889Y-5.1326
X6.1311Y-2.8869
X6.2039Y-5.1326
X6.2768Y-4.3877
X6.4382Y-3.6357
X6.5543Y-2.1357
X6.5917Y-4.3877
X6.6768Y-2.8877
X6.739Y-5.1311
X6.7531Y-3.6357
X6.8693Y-2.1357
X6.9917Y-2.8877
X7.0539Y-5.1311
T3
X4.4671Y-5.7348
X4.6228Y-1.2893
X4.802Y-1.2904
X5.0909Y-1.294
X5.289Y-1.2924
X5.4831Y-1.2936
T4
X5.3709Y-5.2898
X5.3709Y-5.9898
X5.3799Y-5.5398
X5.3799Y-5.6398
X5.3799Y-5.7398
X5.4709Y-5.2898
X5.4709Y-5.9898
X5.5709Y-5.2898
X5.5709Y-5.9898
X5.6709Y-5.2898
X5.6709Y-5.9898
X5.7709Y-5.2898
X5.7709Y-5.9898
X5.8709Y-5.2898
X5.8709Y-5.9898
X5.9709Y-5.2898
X5.9709Y-5.9898
X6.0709Y-5.2898
X6.0709Y-5.9898
X6.1709Y-5.2898
X6.1709Y-5.9898
X6.2709Y-5.2898
X6.2709Y-5.9898
X6.3709Y-5.2898
X6.3709Y-5.9898
X6.4709Y-5.2898
X6.4709Y-5.9898
X6.5709Y-5.2898
X6.5709Y-5.9898
X6.6709Y-5.2898
X6.6709Y-5.9898
X6.7709Y-5.2898
X6.7709Y-5.9898
X6.8709Y-5.2898
X6.8709Y-5.9898
X6.9709Y-5.2898
X6.9709Y-5.9898
X7.0709Y-5.2898
X7.0709Y-5.9898
X7.1709Y-5.2898
X7.1709Y-5.9898
X7.2709Y-5.2898
X7.2709Y-5.9898
T5
X1.4237Y-5.6556
X1.6206Y-5.7383
X2.3981Y-5.6556
X2.595Y-5.7383
T2
G00X3.4311Y-1.2999
M15
G01X3.4311Y-1.3157
M16
G05
G00X3.6122Y-0.981
M15
G01X3.6122Y-0.9968
M16
G05
G00X3.6122Y-1.0992
M15
G01X3.6122Y-1.1149
M16
G05
G00X3.6122Y-1.2566
M15
G01X3.6122Y-1.2724
M16
G05
M30
