M48
; DRILL file {KiCad 8.0.7} date 2025-05-31T19:51:50+0200
; FORMAT={-:-/ absolute / inch / decimal}
; #@! TF.CreationDate,2025-05-31T19:51:50+02:00
; #@! TF.GenerationSoftware,Kicad,Pcbnew,8.0.7
; #@! TF.FileFunction,NonPlated,1,2,NPTH
FMAT,2
INCH
; #@! TA.AperFunction,NonPlated,NPTH,ComponentDrill
T1C0.0315
; #@! TA.AperFunction,NonPlated,NPTH,ComponentDrill
T2C0.0591
; #@! TA.AperFunction,NonPlated,NPTH,ComponentDrill
T3C0.0689
; #@! TA.AperFunction,NonPlated,NPTH,ComponentDrill
T4C0.0709
; #@! TA.AperFunction,NonPlated,NPTH,ComponentDrill
T5C0.0748
; #@! TA.AperFunction,NonPlated,NPTH,ComponentDrill
T6C0.0866
; #@! TA.AperFunction,NonPlated,NPTH,ComponentDrill
T7C0.1201
; #@! TA.AperFunction,NonPlated,NPTH,ComponentDrill
T8C0.1358
; #@! TA.AperFunction,NonPlated,NPTH,ComponentDrill
T9C0.1575
%
G90
G05
T1
X3.5216Y-0.9259
X3.5216Y-1.2015
T2
X7.1464Y-5.5443
X7.1464Y-5.7353
T3
X1.2541Y-2.5475
X1.4415Y-3.2971
X1.6287Y-1.7975
X1.6541Y-2.5475
X1.7225Y-4.7963
X1.8163Y-4.0467
X1.8415Y-3.2971
X2.0037Y-2.5475
X2.0287Y-1.7975
X2.1225Y-4.7963
X2.1911Y-3.2971
X2.2163Y-4.0467
X2.3783Y-1.7975
X2.4037Y-2.5475
X2.5659Y-4.0467
X2.5911Y-3.2971
X2.7533Y-2.5475
X2.7783Y-1.7975
X2.9406Y-4.7963
X2.9407Y-3.2971
X2.9659Y-4.0467
X3.1279Y-1.7975
X3.1533Y-2.5475
X3.3155Y-4.0467
X3.3406Y-4.7963
X3.3407Y-3.2971
X3.5029Y-2.5475
X3.5279Y-1.7975
X3.6903Y-3.2971
X3.7155Y-4.0467
X3.8775Y-1.7975
X3.9029Y-2.5475
X3.9714Y-4.7963
X4.0651Y-4.0467
X4.0903Y-3.2971
X4.2525Y-2.5475
X4.2775Y-1.7975
X4.3714Y-4.7963
X4.44Y-3.2971
X4.4651Y-4.0467
X4.6272Y-1.7975
X4.6525Y-2.5475
X4.8148Y-4.0467
X4.84Y-3.2971
X4.9084Y-4.7963
X5.0022Y-2.5475
X5.0272Y-1.7975
X5.1896Y-3.2971
X5.2148Y-4.0467
X5.3084Y-4.7963
X5.3768Y-1.7975
X5.4022Y-2.5475
X5.5896Y-3.2971
X5.7518Y-2.5475
X5.7768Y-1.7975
X5.8454Y-4.7963
X6.1518Y-2.5475
X6.2205Y-4.0467
X6.2454Y-4.7963
X6.408Y-3.2971
X6.5018Y-1.7975
X6.6205Y-4.0467
X6.6893Y-2.5475
X6.783Y-4.7963
X6.808Y-3.2971
X6.9018Y-1.7975
X7.0893Y-2.5475
X7.183Y-4.7963
T4
X7.2657Y-5.5325
X7.2657Y-5.7471
T5
X1.404Y-5.506
X1.8371Y-5.506
X2.3784Y-5.506
X2.8115Y-5.506
T6
X2.5315Y-4.6782
X2.5776Y-2.5217
X6.4205Y-2.5475
X6.5119Y-4.7965
T7
X1.3541Y-2.7475
X1.5415Y-3.4971
X1.6041Y-2.6475
X1.7287Y-1.9975
X1.7915Y-3.3971
X1.8225Y-4.9963
X1.9163Y-4.2467
X1.9787Y-1.8975
X2.0725Y-4.8963
X2.1037Y-2.7475
X2.1663Y-4.1467
X2.2911Y-3.4971
X2.3537Y-2.6475
X2.4783Y-1.9975
X2.5411Y-3.3971
X2.6659Y-4.2467
X2.7283Y-1.8975
X2.8533Y-2.7475
X2.9159Y-4.1467
X3.0406Y-4.9963
X3.0407Y-3.4971
X3.1033Y-2.6475
X3.2279Y-1.9975
X3.2906Y-4.8963
X3.2907Y-3.3971
X3.4155Y-4.2467
X3.4779Y-1.8975
X3.6029Y-2.7475
X3.6655Y-4.1467
X3.7903Y-3.4971
X3.8529Y-2.6475
X3.9775Y-1.9975
X4.0403Y-3.3971
X4.0714Y-4.9963
X4.1651Y-4.2467
X4.2275Y-1.8975
X4.3214Y-4.8963
X4.3525Y-2.7475
X4.4151Y-4.1467
X4.54Y-3.4971
X4.6025Y-2.6475
X4.7272Y-1.9975
X4.79Y-3.3971
X4.9148Y-4.2467
X4.9772Y-1.8975
X5.0084Y-4.9963
X5.1022Y-2.7475
X5.1648Y-4.1467
X5.2584Y-4.8963
X5.2896Y-3.4971
X5.3522Y-2.6475
X5.4768Y-1.9975
X5.5396Y-3.3971
X5.7268Y-1.8975
X5.8518Y-2.7475
X5.9454Y-4.9963
X6.1018Y-2.6475
X6.1954Y-4.8963
X6.3205Y-4.2467
X6.508Y-3.4971
X6.5705Y-4.1467
X6.6018Y-1.9975
X6.758Y-3.3971
X6.7893Y-2.7475
X6.8518Y-1.8975
X6.883Y-4.9963
X7.0393Y-2.6475
X7.133Y-4.8963
T8
X1.6206Y-5.506
X2.595Y-5.506
T9
X1.4541Y-2.5475
X1.6415Y-3.2971
X1.8287Y-1.7975
X1.9225Y-4.7963
X2.0163Y-4.0467
X2.2037Y-2.5475
X2.3911Y-3.2971
X2.5783Y-1.7975
X2.7659Y-4.0467
X2.9533Y-2.5475
X3.1406Y-4.7963
X3.1407Y-3.2971
X3.3279Y-1.7975
X3.5155Y-4.0467
X3.7029Y-2.5475
X3.8903Y-3.2971
X4.0775Y-1.7975
X4.1714Y-4.7963
X4.2651Y-4.0467
X4.4525Y-2.5475
X4.64Y-3.2971
X4.8272Y-1.7975
X5.0148Y-4.0467
X5.1084Y-4.7963
X5.2022Y-2.5475
X5.3896Y-3.2971
X5.5768Y-1.7975
X5.9518Y-2.5475
X6.0454Y-4.7963
X6.4205Y-4.0467
X6.608Y-3.2971
X6.7018Y-1.7975
X6.8893Y-2.5475
X6.983Y-4.7963
M30
