%TF.GenerationSoftware,KiCad,Pcbnew,8.0.7*%
%TF.CreationDate,2025-06-02T16:21:18+02:00*%
%TF.ProjectId,pcb_keyboard_sx,7063625f-6b65-4796-926f-6172645f7378,rev?*%
%TF.SameCoordinates,Original*%
%TF.FileFunction,Soldermask,Top*%
%TF.FilePolarity,Negative*%
%FSLAX46Y46*%
G04 Gerber Fmt 4.6, Leading zero omitted, Abs format (unit mm)*
G04 Created by KiCad (PCBNEW 8.0.7) date 2025-06-02 16:21:18*
%MOMM*%
%LPD*%
G01*
G04 APERTURE LIST*
G04 Aperture macros list*
%AMRoundRect*
0 Rectangle with rounded corners*
0 $1 Rounding radius*
0 $2 $3 $4 $5 $6 $7 $8 $9 X,Y pos of 4 corners*
0 Add a 4 corners polygon primitive as box body*
4,1,4,$2,$3,$4,$5,$6,$7,$8,$9,$2,$3,0*
0 Add four circle primitives for the rounded corners*
1,1,$1+$1,$2,$3*
1,1,$1+$1,$4,$5*
1,1,$1+$1,$6,$7*
1,1,$1+$1,$8,$9*
0 Add four rect primitives between the rounded corners*
20,1,$1+$1,$2,$3,$4,$5,0*
20,1,$1+$1,$4,$5,$6,$7,0*
20,1,$1+$1,$6,$7,$8,$9,0*
20,1,$1+$1,$8,$9,$2,$3,0*%
%AMRotRect*
0 Rectangle, with rotation*
0 The origin of the aperture is its center*
0 $1 length*
0 $2 width*
0 $3 Rotation angle, in degrees counterclockwise*
0 Add horizontal line*
21,1,$1,$2,0,0,$3*%
G04 Aperture macros list end*
%ADD10R,1.700000X1.700000*%
%ADD11C,1.750000*%
%ADD12C,3.050000*%
%ADD13C,4.000000*%
%ADD14O,1.800000X1.800000*%
%ADD15O,1.500000X1.500000*%
%ADD16O,1.700000X1.700000*%
%ADD17R,1.700000X3.500000*%
%ADD18R,3.500000X1.700000*%
%ADD19C,0.800000*%
%ADD20O,1.600000X2.000000*%
%ADD21C,1.900000*%
%ADD22C,3.450000*%
%ADD23C,2.200000*%
%ADD24R,1.400000X1.400000*%
%ADD25RoundRect,0.300000X0.450000X0.300000X-0.450000X0.300000X-0.450000X-0.300000X0.450000X-0.300000X0*%
%ADD26RoundRect,0.300000X0.400000X0.300000X-0.400000X0.300000X-0.400000X-0.300000X0.400000X-0.300000X0*%
%ADD27C,1.400000*%
%ADD28RotRect,1.400000X1.400000X150.000000*%
%ADD29RoundRect,0.300000X0.496410X0.059808X-0.196410X0.459808X-0.496410X-0.059808X0.196410X-0.459808X0*%
%ADD30RoundRect,0.300000X-0.400000X-0.300000X0.400000X-0.300000X0.400000X0.300000X-0.400000X0.300000X0*%
%ADD31RoundRect,0.300000X0.300000X-0.400000X0.300000X0.400000X-0.300000X0.400000X-0.300000X-0.400000X0*%
G04 APERTURE END LIST*
D10*
%TO.C,TP2*%
X69744000Y-36747000D03*
%TD*%
D11*
%TO.C,S34*%
X173829000Y-104157000D03*
D12*
X172559000Y-106697000D03*
D13*
X168749000Y-104157000D03*
D12*
X166209000Y-109237000D03*
D11*
X163669000Y-104157000D03*
%TD*%
D10*
%TO.C,TP4*%
X89495000Y-36788000D03*
%TD*%
D11*
%TO.C,S17*%
X102429000Y-66067000D03*
D12*
X101159000Y-68607000D03*
D13*
X97349000Y-66067000D03*
D12*
X94809000Y-71147000D03*
D11*
X92269000Y-66067000D03*
%TD*%
%TO.C,S8*%
X64349000Y-66067000D03*
D12*
X63079000Y-68607000D03*
D13*
X59269000Y-66067000D03*
D12*
X56729000Y-71147000D03*
D11*
X54189000Y-66067000D03*
%TD*%
%TO.C,S3*%
X42927750Y-85107000D03*
D12*
X41657750Y-87647000D03*
D13*
X37847750Y-85107000D03*
D12*
X35307750Y-90187000D03*
D11*
X32767750Y-85107000D03*
%TD*%
%TO.C,S11*%
X78629000Y-104157000D03*
D12*
X77359000Y-106697000D03*
D13*
X73549000Y-104157000D03*
D12*
X71009000Y-109237000D03*
D11*
X68469000Y-104157000D03*
%TD*%
%TO.C,S4*%
X38165250Y-123187000D03*
D12*
X36895250Y-125727000D03*
D13*
X33085250Y-123187000D03*
D12*
X30545250Y-128267000D03*
D11*
X28005250Y-123187000D03*
%TD*%
%TO.C,S13*%
X85765250Y-123187000D03*
D12*
X84495250Y-125727000D03*
D13*
X80685250Y-123187000D03*
D12*
X78145250Y-128267000D03*
D11*
X75605250Y-123187000D03*
%TD*%
%TO.C,S16*%
X97669000Y-104157000D03*
D12*
X96399000Y-106697000D03*
D13*
X92589000Y-104157000D03*
D12*
X90049000Y-109237000D03*
D11*
X87509000Y-104157000D03*
%TD*%
D14*
%TO.C,U1*%
X25004000Y-147242000D03*
D15*
X28034000Y-146942000D03*
X28034000Y-142092000D03*
D14*
X25004000Y-141792000D03*
D16*
X24874000Y-153407000D03*
D17*
X24874000Y-154307000D03*
D16*
X27414000Y-153407000D03*
D17*
X27414000Y-154307000D03*
D10*
X29954000Y-153407000D03*
D17*
X29954000Y-154307000D03*
D16*
X32494000Y-153407000D03*
D17*
X32494000Y-154307000D03*
D16*
X35034000Y-153407000D03*
D17*
X35034000Y-154307000D03*
D16*
X37574000Y-153407000D03*
D17*
X37574000Y-154307000D03*
D16*
X40114000Y-153407000D03*
D17*
X40114000Y-154307000D03*
D10*
X42654000Y-153407000D03*
D17*
X42654000Y-154307000D03*
D16*
X45194000Y-153407000D03*
D17*
X45194000Y-154307000D03*
D16*
X47734000Y-153407000D03*
D17*
X47734000Y-154307000D03*
D16*
X50274000Y-153407000D03*
D17*
X50274000Y-154307000D03*
D16*
X52814000Y-153407000D03*
D17*
X52814000Y-154307000D03*
D10*
X55354000Y-153407000D03*
D17*
X55354000Y-154307000D03*
D16*
X57894000Y-153407000D03*
D17*
X57894000Y-154307000D03*
D16*
X60434000Y-153407000D03*
D17*
X60434000Y-154307000D03*
D16*
X62974000Y-153407000D03*
D17*
X62974000Y-154307000D03*
D16*
X65514000Y-153407000D03*
D17*
X65514000Y-154307000D03*
D10*
X68054000Y-153407000D03*
D17*
X68054000Y-154307000D03*
D16*
X70594000Y-153407000D03*
D17*
X70594000Y-154307000D03*
D16*
X73134000Y-153407000D03*
D17*
X73134000Y-154307000D03*
D16*
X73134000Y-135627000D03*
D17*
X73134000Y-134727000D03*
D16*
X70594000Y-135627000D03*
D17*
X70594000Y-134727000D03*
D10*
X68054000Y-135627000D03*
D17*
X68054000Y-134727000D03*
D16*
X65514000Y-135627000D03*
D17*
X65514000Y-134727000D03*
D16*
X62974000Y-135627000D03*
D17*
X62974000Y-134727000D03*
D16*
X60434000Y-135627000D03*
D17*
X60434000Y-134727000D03*
D16*
X57894000Y-135627000D03*
D17*
X57894000Y-134727000D03*
D10*
X55354000Y-135627000D03*
D17*
X55354000Y-134727000D03*
D16*
X52814000Y-135627000D03*
D17*
X52814000Y-134727000D03*
D16*
X50274000Y-135627000D03*
D17*
X50274000Y-134727000D03*
D16*
X47734000Y-135627000D03*
D17*
X47734000Y-134727000D03*
D16*
X45194000Y-135627000D03*
D17*
X45194000Y-134727000D03*
D10*
X42654000Y-135627000D03*
D17*
X42654000Y-134727000D03*
D16*
X40114000Y-135627000D03*
D17*
X40114000Y-134727000D03*
D16*
X37574000Y-135627000D03*
D17*
X37574000Y-134727000D03*
D16*
X35034000Y-135627000D03*
D17*
X35034000Y-134727000D03*
D16*
X32494000Y-135627000D03*
D17*
X32494000Y-134727000D03*
D10*
X29954000Y-135627000D03*
D17*
X29954000Y-134727000D03*
D16*
X27414000Y-135627000D03*
D17*
X27414000Y-134727000D03*
D16*
X24874000Y-135627000D03*
D17*
X24874000Y-134727000D03*
D16*
X72904000Y-147057000D03*
D18*
X73804000Y-147057000D03*
D10*
X72904000Y-144517000D03*
D18*
X73804000Y-144517000D03*
D16*
X72904000Y-141977000D03*
D18*
X73804000Y-141977000D03*
%TD*%
D11*
%TO.C,S21*%
X109565250Y-123187000D03*
D12*
X108295250Y-125727000D03*
D13*
X104485250Y-123187000D03*
D12*
X101945250Y-128267000D03*
D11*
X99405250Y-123187000D03*
%TD*%
%TO.C,S22*%
X116709000Y-104157000D03*
D12*
X115439000Y-106697000D03*
D13*
X111629000Y-104157000D03*
D12*
X109089000Y-109237000D03*
D11*
X106549000Y-104157000D03*
%TD*%
%TO.C,S7*%
X61965250Y-123187000D03*
D12*
X60695250Y-125727000D03*
D13*
X56885250Y-123187000D03*
D12*
X54345250Y-128267000D03*
D11*
X51805250Y-123187000D03*
%TD*%
%TO.C,S5*%
X47690250Y-104157000D03*
D12*
X46420250Y-106697000D03*
D13*
X42610250Y-104157000D03*
D12*
X40070250Y-109237000D03*
D11*
X37530250Y-104157000D03*
%TD*%
%TO.C,S27*%
X135749000Y-104157000D03*
D12*
X134479000Y-106697000D03*
D13*
X130669000Y-104157000D03*
D12*
X128129000Y-109237000D03*
D11*
X125589000Y-104157000D03*
%TD*%
%TO.C,S28*%
X140509000Y-66067000D03*
D12*
X139239000Y-68607000D03*
D13*
X135429000Y-66067000D03*
D12*
X132889000Y-71147000D03*
D11*
X130349000Y-66067000D03*
%TD*%
D19*
%TO.C,U2*%
X118599000Y-24102000D03*
X118599000Y-31102000D03*
D20*
X116299000Y-33802000D03*
X120899000Y-32702000D03*
X120899000Y-28702000D03*
X120899000Y-25702000D03*
%TD*%
D21*
%TO.C,S29*%
X146199000Y-141202000D03*
D22*
X140699000Y-141202000D03*
D21*
X135199000Y-141202000D03*
D23*
X140699000Y-147102000D03*
X135699000Y-145002000D03*
%TD*%
D21*
%TO.C,S20*%
X121449000Y-141202000D03*
D22*
X115949000Y-141202000D03*
D21*
X110449000Y-141202000D03*
D23*
X115949000Y-147102000D03*
X110949000Y-145002000D03*
%TD*%
%TO.C,H3*%
X62621000Y-104157000D03*
%TD*%
D11*
%TO.C,S23*%
X121469000Y-66067000D03*
D12*
X120199000Y-68607000D03*
D13*
X116389000Y-66067000D03*
D12*
X113849000Y-71147000D03*
D11*
X111309000Y-66067000D03*
%TD*%
%TO.C,S32*%
X154789000Y-104157000D03*
D12*
X153519000Y-106697000D03*
D13*
X149709000Y-104157000D03*
D12*
X147169000Y-109237000D03*
D11*
X144629000Y-104157000D03*
%TD*%
%TO.C,S9*%
X69104000Y-85107000D03*
D12*
X67834000Y-87647000D03*
D13*
X64024000Y-85107000D03*
D12*
X61484000Y-90187000D03*
D11*
X58944000Y-85107000D03*
%TD*%
%TO.C,S2*%
X40546500Y-66057000D03*
D12*
X39276500Y-68597000D03*
D13*
X35466500Y-66057000D03*
D12*
X32926500Y-71137000D03*
D11*
X30386500Y-66057000D03*
%TD*%
D23*
%TO.C,H2*%
X125914000Y-65067000D03*
%TD*%
%TO.C,H1*%
X47367500Y-66057000D03*
%TD*%
D24*
%TO.C,D6*%
X53774000Y-55537000D03*
D25*
X51724000Y-55537000D03*
D26*
X47874000Y-55537000D03*
D27*
X45774000Y-55537000D03*
%TD*%
D11*
%TO.C,S19*%
X111944000Y-47017000D03*
D12*
X110674000Y-49557000D03*
D13*
X106864000Y-47017000D03*
D12*
X104324000Y-52097000D03*
D11*
X101784000Y-47017000D03*
%TD*%
%TO.C,S18*%
X107184000Y-85107000D03*
D12*
X105914000Y-87647000D03*
D13*
X102104000Y-85107000D03*
D12*
X99564000Y-90187000D03*
D11*
X97024000Y-85107000D03*
%TD*%
%TO.C,S12*%
X83389000Y-66067000D03*
D12*
X82119000Y-68607000D03*
D13*
X78309000Y-66067000D03*
D12*
X75769000Y-71147000D03*
D11*
X73229000Y-66067000D03*
%TD*%
%TO.C,S10*%
X73864000Y-47017000D03*
D12*
X72594000Y-49557000D03*
D13*
X68784000Y-47017000D03*
D12*
X66244000Y-52097000D03*
D11*
X63704000Y-47017000D03*
%TD*%
%TO.C,S15*%
X92904000Y-47017000D03*
D12*
X91634000Y-49557000D03*
D13*
X87824000Y-47017000D03*
D12*
X85284000Y-52097000D03*
D11*
X82744000Y-47017000D03*
%TD*%
%TO.C,S26*%
X138127750Y-123187000D03*
D12*
X136857750Y-125727000D03*
D13*
X133047750Y-123187000D03*
D12*
X130507750Y-128267000D03*
D11*
X127967750Y-123187000D03*
%TD*%
%TO.C,S25*%
X130984000Y-47017000D03*
D12*
X129714000Y-49557000D03*
D13*
X125904000Y-47017000D03*
D12*
X123364000Y-52097000D03*
D11*
X120824000Y-47017000D03*
%TD*%
%TO.C,S30*%
X145264000Y-85107000D03*
D12*
X143994000Y-87647000D03*
D13*
X140184000Y-85107000D03*
D12*
X137644000Y-90187000D03*
D11*
X135104000Y-85107000D03*
%TD*%
%TO.C,S1*%
X35784000Y-47017000D03*
D12*
X34514000Y-49557000D03*
D13*
X30704000Y-47017000D03*
D12*
X28164000Y-52097000D03*
D11*
X25624000Y-47017000D03*
%TD*%
%TO.C,S33*%
X164304000Y-123187000D03*
D12*
X163034000Y-125727000D03*
D13*
X159224000Y-123187000D03*
D12*
X156684000Y-128267000D03*
D11*
X154144000Y-123187000D03*
%TD*%
%TO.C,S14*%
X88144000Y-85107000D03*
D12*
X86874000Y-87647000D03*
D13*
X83064000Y-85107000D03*
D12*
X80524000Y-90187000D03*
D11*
X77984000Y-85107000D03*
%TD*%
D10*
%TO.C,TP1*%
X76674000Y-36767000D03*
%TD*%
%TO.C,TP3*%
X83845000Y-36788000D03*
%TD*%
D11*
%TO.C,S6*%
X54824000Y-47017000D03*
D12*
X53554000Y-49557000D03*
D13*
X49744000Y-47017000D03*
D12*
X47204000Y-52097000D03*
D11*
X44664000Y-47017000D03*
%TD*%
%TO.C,S24*%
X126224000Y-85107000D03*
D12*
X124954000Y-87647000D03*
D13*
X121144000Y-85107000D03*
D12*
X118604000Y-90187000D03*
D11*
X116064000Y-85107000D03*
%TD*%
D23*
%TO.C,H4*%
X146135750Y-123187000D03*
%TD*%
D11*
%TO.C,S35*%
X189185409Y-132165000D03*
D12*
X186815557Y-133729705D03*
D13*
X184786000Y-129625000D03*
D12*
X180046295Y-132754409D03*
D11*
X180386591Y-127085000D03*
%TD*%
%TO.C,S31*%
X150024000Y-47017000D03*
D12*
X148754000Y-49557000D03*
D13*
X144944000Y-47017000D03*
D12*
X142404000Y-52097000D03*
D11*
X139864000Y-47017000D03*
%TD*%
D24*
%TO.C,D36*%
X36111500Y-131418250D03*
D26*
X34011500Y-131418250D03*
X30211500Y-131418250D03*
D27*
X28111500Y-131418250D03*
%TD*%
D24*
%TO.C,D12*%
X82314000Y-74787000D03*
D26*
X80214000Y-74787000D03*
X76414000Y-74787000D03*
D27*
X74314000Y-74787000D03*
%TD*%
D24*
%TO.C,D33*%
X165914000Y-132657000D03*
D26*
X163814000Y-132657000D03*
X160014000Y-132657000D03*
D27*
X157914000Y-132657000D03*
%TD*%
D24*
%TO.C,D16*%
X95344000Y-112767000D03*
D26*
X93244000Y-112767000D03*
X89444000Y-112767000D03*
D27*
X87344000Y-112767000D03*
%TD*%
D24*
%TO.C,D15*%
X90651500Y-55768250D03*
D26*
X88551500Y-55768250D03*
X84751500Y-55768250D03*
D27*
X82651500Y-55768250D03*
%TD*%
D24*
%TO.C,D28*%
X139734000Y-74697000D03*
D26*
X137634000Y-74697000D03*
X133834000Y-74697000D03*
D27*
X131734000Y-74697000D03*
%TD*%
D24*
%TO.C,D9*%
X67904000Y-93697000D03*
D26*
X65804000Y-93697000D03*
X62004000Y-93697000D03*
D27*
X59904000Y-93697000D03*
%TD*%
D24*
%TO.C,D30*%
X144251500Y-93728250D03*
D26*
X142151500Y-93728250D03*
X138351500Y-93728250D03*
D27*
X136251500Y-93728250D03*
%TD*%
D24*
%TO.C,D3*%
X41644000Y-93727000D03*
D26*
X39544000Y-93727000D03*
X35744000Y-93727000D03*
D27*
X33644000Y-93727000D03*
%TD*%
D24*
%TO.C,D27*%
X134364000Y-112817000D03*
D26*
X132264000Y-112817000D03*
X128464000Y-112817000D03*
D27*
X126364000Y-112817000D03*
%TD*%
D24*
%TO.C,D11*%
X77244000Y-112847000D03*
D26*
X75144000Y-112847000D03*
X71344000Y-112847000D03*
D27*
X69244000Y-112847000D03*
%TD*%
D24*
%TO.C,D2*%
X39431500Y-74788250D03*
D26*
X37331500Y-74788250D03*
X33531500Y-74788250D03*
D27*
X31431500Y-74788250D03*
%TD*%
D28*
%TO.C,D35*%
X177733550Y-137957000D03*
D29*
X175914896Y-136907000D03*
X172624000Y-135007000D03*
D27*
X170805346Y-133957000D03*
%TD*%
D24*
%TO.C,D22*%
X115151500Y-112768250D03*
D26*
X113051500Y-112768250D03*
X109251500Y-112768250D03*
D27*
X107151500Y-112768250D03*
%TD*%
D24*
%TO.C,D18*%
X106114000Y-93677000D03*
D26*
X104014000Y-93677000D03*
X100214000Y-93677000D03*
D27*
X98114000Y-93677000D03*
%TD*%
D24*
%TO.C,D26*%
X135001500Y-132088250D03*
D26*
X132901500Y-132088250D03*
X129101500Y-132088250D03*
D27*
X127001500Y-132088250D03*
%TD*%
D24*
%TO.C,D14*%
X87064000Y-93767000D03*
D26*
X84964000Y-93767000D03*
X81164000Y-93767000D03*
D27*
X79064000Y-93767000D03*
%TD*%
D24*
%TO.C,D17*%
X98494000Y-74877000D03*
D26*
X96394000Y-74877000D03*
X92594000Y-74877000D03*
D27*
X90494000Y-74877000D03*
%TD*%
D24*
%TO.C,D32*%
X153384000Y-112817000D03*
D26*
X151284000Y-112817000D03*
X147484000Y-112817000D03*
D27*
X145384000Y-112817000D03*
%TD*%
D24*
%TO.C,D1*%
X34354000Y-55567000D03*
D26*
X32254000Y-55567000D03*
X28454000Y-55567000D03*
D27*
X26354000Y-55567000D03*
%TD*%
D24*
%TO.C,D8*%
X62544000Y-74787000D03*
D26*
X60444000Y-74787000D03*
X56644000Y-74787000D03*
D27*
X54544000Y-74787000D03*
%TD*%
D24*
%TO.C,D13*%
X78884000Y-131957000D03*
D30*
X80984000Y-131957000D03*
X84784000Y-131957000D03*
D27*
X86884000Y-131957000D03*
%TD*%
D24*
%TO.C,D7*%
X68532750Y-129114500D03*
D31*
X68532750Y-127014500D03*
X68532750Y-123214500D03*
D27*
X68532750Y-121114500D03*
%TD*%
D24*
%TO.C,D24*%
X125284000Y-93797000D03*
D26*
X123184000Y-93797000D03*
X119384000Y-93797000D03*
D27*
X117284000Y-93797000D03*
%TD*%
D24*
%TO.C,D4*%
X47561500Y-131068250D03*
D26*
X45461500Y-131068250D03*
X41661500Y-131068250D03*
D27*
X39561500Y-131068250D03*
%TD*%
D24*
%TO.C,D25*%
X125564000Y-55687000D03*
D26*
X123464000Y-55687000D03*
X119664000Y-55687000D03*
D27*
X117564000Y-55687000D03*
%TD*%
D24*
%TO.C,D29*%
X136374000Y-151307000D03*
D26*
X134274000Y-151307000D03*
X130474000Y-151307000D03*
D27*
X128374000Y-151307000D03*
%TD*%
D24*
%TO.C,D23*%
X119934000Y-74597000D03*
D26*
X117834000Y-74597000D03*
X114034000Y-74597000D03*
D27*
X111934000Y-74597000D03*
%TD*%
D24*
%TO.C,D5*%
X46531699Y-112935035D03*
D26*
X44431699Y-112935035D03*
X40631699Y-112935035D03*
D27*
X38531699Y-112935035D03*
%TD*%
D24*
%TO.C,D21*%
X100403000Y-132267000D03*
D26*
X98303000Y-132267000D03*
X94503000Y-132267000D03*
D27*
X92403000Y-132267000D03*
%TD*%
D24*
%TO.C,D20*%
X115541500Y-151918250D03*
D26*
X113441500Y-151918250D03*
X109641500Y-151918250D03*
D27*
X107541500Y-151918250D03*
%TD*%
D24*
%TO.C,D31*%
X138161500Y-55628250D03*
D26*
X136061500Y-55628250D03*
X132261500Y-55628250D03*
D27*
X130161500Y-55628250D03*
%TD*%
D24*
%TO.C,D19*%
X110024000Y-55707000D03*
D26*
X107924000Y-55707000D03*
X104124000Y-55707000D03*
D27*
X102024000Y-55707000D03*
%TD*%
D10*
%TO.C,TP5*%
X88254000Y-148517000D03*
%TD*%
D24*
%TO.C,D34*%
X172181500Y-112818250D03*
D26*
X170081500Y-112818250D03*
X166281500Y-112818250D03*
D27*
X164181500Y-112818250D03*
%TD*%
D24*
%TO.C,D10*%
X72704000Y-55667000D03*
D26*
X70604000Y-55667000D03*
X66804000Y-55667000D03*
D27*
X64704000Y-55667000D03*
%TD*%
M02*
