%TF.GenerationSoftware,KiCad,Pcbnew,8.0.7*%
%TF.CreationDate,2025-06-02T16:21:18+02:00*%
%TF.ProjectId,pcb_keyboard_sx,7063625f-6b65-4796-926f-6172645f7378,rev?*%
%TF.SameCoordinates,Original*%
%TF.FileFunction,Profile,NP*%
%FSLAX46Y46*%
G04 Gerber Fmt 4.6, Leading zero omitted, Abs format (unit mm)*
G04 Created by KiCad (PCBNEW 8.0.7) date 2025-06-02 16:21:18*
%MOMM*%
%LPD*%
G01*
G04 APERTURE LIST*
%TA.AperFunction,Profile*%
%ADD10C,0.100000*%
%TD*%
%TA.AperFunction,Profile*%
%ADD11C,0.050000*%
%TD*%
%TA.AperFunction,Profile*%
%ADD12C,0.120000*%
%TD*%
G04 APERTURE END LIST*
D10*
X194835535Y-126185626D02*
X194835535Y-126185625D01*
X23482486Y-156431214D02*
X23482459Y-156431214D01*
X149608786Y-95831114D02*
G75*
G02*
X148408810Y-94623525I14J1200014D01*
G01*
D11*
X120566250Y-123187000D02*
G75*
G02*
X116966250Y-123187000I-1800000J0D01*
G01*
X116966250Y-123187000D02*
G75*
G02*
X120566250Y-123187000I1800000J0D01*
G01*
D10*
X174908786Y-95831114D02*
G75*
G02*
X176908786Y-97831114I14J-1999986D01*
G01*
X176908809Y-114680924D02*
X176908809Y-97831114D01*
X34482459Y-37331214D02*
G75*
G02*
X33282459Y-38531259I-1200059J14D01*
G01*
X23482459Y-152631214D02*
X23482459Y-156431214D01*
X146408786Y-77831114D02*
X144908786Y-77831114D01*
X106236786Y-24231214D02*
G75*
G02*
X105418335Y-24056031I114J2000014D01*
G01*
X123629786Y-38931214D02*
G75*
G02*
X122429801Y-37725215I14J1200014D01*
G01*
X144908786Y-77831114D02*
G75*
G02*
X143708810Y-76623525I14J1200014D01*
G01*
X120429786Y-22731214D02*
G75*
G02*
X122429786Y-24731214I14J-1999986D01*
G01*
X187127371Y-143536556D02*
G75*
G02*
X184777268Y-144438709I-1732071J999956D01*
G01*
X177908756Y-116412944D02*
G75*
G02*
X176908820Y-114680924I999944J1731944D01*
G01*
D11*
X113419000Y-85107000D02*
G75*
G02*
X109819000Y-85107000I-1800000J0D01*
G01*
X109819000Y-85107000D02*
G75*
G02*
X113419000Y-85107000I1800000J0D01*
G01*
D10*
X36080325Y-29803237D02*
X36080321Y-29803220D01*
D11*
X73004000Y-23977000D02*
X98334000Y-23977000D01*
X98334000Y-32377000D01*
X73004000Y-32377000D01*
X73004000Y-23977000D01*
D10*
X148408809Y-94623525D02*
X148408809Y-79831114D01*
X120429786Y-22731214D02*
X117366292Y-22731214D01*
X144908809Y-54931214D02*
X151037269Y-54931214D01*
X33282459Y-38531214D02*
X25472288Y-38531214D01*
X23482486Y-136631214D02*
X23482459Y-136631214D01*
X91709266Y-18384237D02*
X36080321Y-29803220D01*
X34482459Y-31762414D02*
X34482459Y-37331214D01*
X174908786Y-95831114D02*
X149608786Y-95831114D01*
X91709266Y-18384237D02*
G75*
G02*
X92917882Y-18513225I402134J-1958863D01*
G01*
D11*
X46785250Y-123187000D02*
G75*
G02*
X43185250Y-123187000I-1800000J0D01*
G01*
X43185250Y-123187000D02*
G75*
G02*
X46785250Y-123187000I1800000J0D01*
G01*
D10*
X38982459Y-151631214D02*
G75*
G02*
X38482459Y-152131259I-500059J14D01*
G01*
X23982486Y-137131214D02*
X38482486Y-137131214D01*
X153029786Y-40931214D02*
X153029800Y-40931214D01*
X115554104Y-23885060D02*
G75*
G02*
X115010386Y-24231191I-543704J253960D01*
G01*
X34482459Y-31762414D02*
G75*
G02*
X36080320Y-29803213I2000041J14D01*
G01*
X176908786Y-97831114D02*
X176908809Y-97831114D01*
X147982459Y-156431214D02*
X147982459Y-134135014D01*
X151029786Y-38931214D02*
G75*
G02*
X153029786Y-40931214I14J-1999986D01*
G01*
X187127371Y-143536556D02*
X195567587Y-128917674D01*
X153029800Y-52931214D02*
X153029800Y-40931214D01*
X153029800Y-52931214D02*
G75*
G02*
X151037269Y-54931186I-2000000J14D01*
G01*
X143708809Y-56131214D02*
G75*
G02*
X144908809Y-54931209I1199991J14D01*
G01*
X105418334Y-24056033D02*
X92917879Y-18513233D01*
X25482486Y-158431214D02*
G75*
G02*
X23482486Y-156431214I14J2000014D01*
G01*
X147982459Y-134135014D02*
G75*
G02*
X149553325Y-132993690I1200041J14D01*
G01*
X23482459Y-40531214D02*
X23482459Y-136631214D01*
X122429800Y-37725215D02*
X122429800Y-24731214D01*
X38482486Y-137131214D02*
G75*
G02*
X38982460Y-137636312I14J-499986D01*
G01*
X23482459Y-152631214D02*
G75*
G02*
X23977387Y-152131185I500041J14D01*
G01*
X25482486Y-158431214D02*
X145982459Y-158431214D01*
X23482459Y-40531214D02*
G75*
G02*
X25472288Y-38531185I2000041J14D01*
G01*
D11*
X61069000Y-47017000D02*
G75*
G02*
X57469000Y-47017000I-1800000J0D01*
G01*
X57469000Y-47017000D02*
G75*
G02*
X61069000Y-47017000I1800000J0D01*
G01*
D10*
X146408786Y-77831114D02*
G75*
G02*
X148408786Y-79831114I14J-1999986D01*
G01*
X149553318Y-132993710D02*
X184777281Y-144438670D01*
D11*
X105749000Y-141202000D02*
G75*
G02*
X102149000Y-141202000I-1800000J0D01*
G01*
X102149000Y-141202000D02*
G75*
G02*
X105749000Y-141202000I1800000J0D01*
G01*
D10*
X151029786Y-38931214D02*
X123629786Y-38931214D01*
X194835535Y-126185625D02*
X177908756Y-116412944D01*
X194835535Y-126185626D02*
G75*
G02*
X195567604Y-128917684I-1000035J-1732074D01*
G01*
X147982459Y-156431214D02*
G75*
G02*
X145982459Y-158431259I-2000059J14D01*
G01*
X115554104Y-23885060D02*
G75*
G02*
X117366292Y-22731198I1812196J-846140D01*
G01*
X149553315Y-132993720D02*
X149553318Y-132993710D01*
X115010386Y-24231214D02*
X106236786Y-24231214D01*
X38482459Y-152131214D02*
X23977387Y-152131214D01*
D11*
X118179000Y-47017000D02*
G75*
G02*
X114579000Y-47017000I-1800000J0D01*
G01*
X114579000Y-47017000D02*
G75*
G02*
X118179000Y-47017000I1800000J0D01*
G01*
D10*
X122429786Y-24731214D02*
X122429800Y-24731214D01*
X143708809Y-76623525D02*
X143708809Y-56131214D01*
X38982459Y-137636312D02*
X38982459Y-151631214D01*
X23982486Y-137131214D02*
G75*
G02*
X23482486Y-136631214I14J500014D01*
G01*
D11*
X52735750Y-85107000D02*
G75*
G02*
X49135750Y-85107000I-1800000J0D01*
G01*
X49135750Y-85107000D02*
G75*
G02*
X52735750Y-85107000I1800000J0D01*
G01*
X84499000Y-141202000D02*
G75*
G02*
X80899000Y-141202000I-1800000J0D01*
G01*
X80899000Y-141202000D02*
G75*
G02*
X84499000Y-141202000I1800000J0D01*
G01*
D10*
X148408786Y-79831114D02*
X148408809Y-79831114D01*
D12*
%TO.C,LED9*%
X62324000Y-78658000D02*
X62324000Y-81658000D01*
X62324000Y-81658000D02*
X65724000Y-81658000D01*
X65724000Y-78658000D02*
X62324000Y-78658000D01*
X65724000Y-81658000D02*
X65724000Y-78658000D01*
%TO.C,LED21*%
X102785250Y-116748000D02*
X102785250Y-119748000D01*
X102785250Y-119748000D02*
X106185250Y-119748000D01*
X106185250Y-116748000D02*
X102785250Y-116748000D01*
X106185250Y-119748000D02*
X106185250Y-116748000D01*
%TO.C,LED35*%
X185033257Y-125796739D02*
X187977743Y-127496739D01*
X186533257Y-123198663D02*
X185033257Y-125796739D01*
X187977743Y-127496739D02*
X189477743Y-124898663D01*
X189477743Y-124898663D02*
X186533257Y-123198663D01*
%TO.C,LED8*%
X57564000Y-59618000D02*
X57564000Y-62618000D01*
X57564000Y-62618000D02*
X60964000Y-62618000D01*
X60964000Y-59618000D02*
X57564000Y-59618000D01*
X60964000Y-62618000D02*
X60964000Y-59618000D01*
%TO.C,LED30*%
X138484000Y-78658000D02*
X138484000Y-81658000D01*
X138484000Y-81658000D02*
X141884000Y-81658000D01*
X141884000Y-78658000D02*
X138484000Y-78658000D01*
X141884000Y-81658000D02*
X141884000Y-78658000D01*
%TO.C,LED31*%
X143244000Y-40578000D02*
X143244000Y-43578000D01*
X143244000Y-43578000D02*
X146644000Y-43578000D01*
X146644000Y-40578000D02*
X143244000Y-40578000D01*
X146644000Y-43578000D02*
X146644000Y-40578000D01*
%TO.C,LED3*%
X36147750Y-78668000D02*
X36147750Y-81668000D01*
X36147750Y-81668000D02*
X39547750Y-81668000D01*
X39547750Y-78668000D02*
X36147750Y-78668000D01*
X39547750Y-81668000D02*
X39547750Y-78668000D01*
%TO.C,LED14*%
X81364000Y-78658000D02*
X81364000Y-81658000D01*
X81364000Y-81658000D02*
X84764000Y-81658000D01*
X84764000Y-78658000D02*
X81364000Y-78658000D01*
X84764000Y-81658000D02*
X84764000Y-78658000D01*
%TO.C,LED12*%
X76604000Y-59618000D02*
X76604000Y-62618000D01*
X76604000Y-62618000D02*
X80004000Y-62618000D01*
X80004000Y-59618000D02*
X76604000Y-59618000D01*
X80004000Y-62618000D02*
X80004000Y-59618000D01*
%TO.C,LED10*%
X67084000Y-40578000D02*
X67084000Y-43578000D01*
X67084000Y-43578000D02*
X70484000Y-43578000D01*
X70484000Y-40578000D02*
X67084000Y-40578000D01*
X70484000Y-43578000D02*
X70484000Y-40578000D01*
%TO.C,LED7*%
X55185250Y-116748000D02*
X55185250Y-119748000D01*
X55185250Y-119748000D02*
X58585250Y-119748000D01*
X58585250Y-116748000D02*
X55185250Y-116748000D01*
X58585250Y-119748000D02*
X58585250Y-116748000D01*
%TO.C,LED20*%
X114249000Y-134763000D02*
X114249000Y-137763000D01*
X114249000Y-137763000D02*
X117649000Y-137763000D01*
X117649000Y-134763000D02*
X114249000Y-134763000D01*
X117649000Y-137763000D02*
X117649000Y-134763000D01*
%TO.C,LED28*%
X133724000Y-59618000D02*
X133724000Y-62618000D01*
X133724000Y-62618000D02*
X137124000Y-62618000D01*
X137124000Y-59618000D02*
X133724000Y-59618000D01*
X137124000Y-62618000D02*
X137124000Y-59618000D01*
%TO.C,LED11*%
X71849000Y-97718000D02*
X71849000Y-100718000D01*
X71849000Y-100718000D02*
X75249000Y-100718000D01*
X75249000Y-97718000D02*
X71849000Y-97718000D01*
X75249000Y-100718000D02*
X75249000Y-97718000D01*
%TO.C,LED2*%
X33764000Y-59618000D02*
X33764000Y-62618000D01*
X33764000Y-62618000D02*
X37164000Y-62618000D01*
X37164000Y-59618000D02*
X33764000Y-59618000D01*
X37164000Y-62618000D02*
X37164000Y-59618000D01*
%TO.C,LED18*%
X100404000Y-78658000D02*
X100404000Y-81658000D01*
X100404000Y-81658000D02*
X103804000Y-81658000D01*
X103804000Y-78658000D02*
X100404000Y-78658000D01*
X103804000Y-81658000D02*
X103804000Y-78658000D01*
%TO.C,LED4*%
X31385250Y-116748000D02*
X31385250Y-119748000D01*
X31385250Y-119748000D02*
X34785250Y-119748000D01*
X34785250Y-116748000D02*
X31385250Y-116748000D01*
X34785250Y-119748000D02*
X34785250Y-116748000D01*
%TO.C,LED19*%
X105164000Y-40578000D02*
X105164000Y-43578000D01*
X105164000Y-43578000D02*
X108564000Y-43578000D01*
X108564000Y-40578000D02*
X105164000Y-40578000D01*
X108564000Y-43578000D02*
X108564000Y-40578000D01*
%TO.C,LED32*%
X148009000Y-97718000D02*
X148009000Y-100718000D01*
X148009000Y-100718000D02*
X151409000Y-100718000D01*
X151409000Y-97718000D02*
X148009000Y-97718000D01*
X151409000Y-100718000D02*
X151409000Y-97718000D01*
%TO.C,LED13*%
X78985250Y-116748000D02*
X78985250Y-119748000D01*
X78985250Y-119748000D02*
X82385250Y-119748000D01*
X82385250Y-116748000D02*
X78985250Y-116748000D01*
X82385250Y-119748000D02*
X82385250Y-116748000D01*
%TO.C,LED25*%
X124204000Y-40578000D02*
X124204000Y-43578000D01*
X124204000Y-43578000D02*
X127604000Y-43578000D01*
X127604000Y-40578000D02*
X124204000Y-40578000D01*
X127604000Y-43578000D02*
X127604000Y-40578000D01*
%TO.C,LED15*%
X86124000Y-40578000D02*
X86124000Y-43578000D01*
X86124000Y-43578000D02*
X89524000Y-43578000D01*
X89524000Y-40578000D02*
X86124000Y-40578000D01*
X89524000Y-43578000D02*
X89524000Y-40578000D01*
%TO.C,LED27*%
X128969000Y-97718000D02*
X128969000Y-100718000D01*
X128969000Y-100718000D02*
X132369000Y-100718000D01*
X132369000Y-97718000D02*
X128969000Y-97718000D01*
X132369000Y-100718000D02*
X132369000Y-97718000D01*
%TO.C,LED6*%
X48044000Y-40578000D02*
X48044000Y-43578000D01*
X48044000Y-43578000D02*
X51444000Y-43578000D01*
X51444000Y-40578000D02*
X48044000Y-40578000D01*
X51444000Y-43578000D02*
X51444000Y-40578000D01*
%TO.C,LED26*%
X131345250Y-116748000D02*
X131345250Y-119748000D01*
X131345250Y-119748000D02*
X134745250Y-119748000D01*
X134745250Y-116748000D02*
X131345250Y-116748000D01*
X134745250Y-119748000D02*
X134745250Y-116748000D01*
%TO.C,LED5*%
X40910250Y-97718000D02*
X40910250Y-100718000D01*
X40910250Y-100718000D02*
X44310250Y-100718000D01*
X44310250Y-97718000D02*
X40910250Y-97718000D01*
X44310250Y-100718000D02*
X44310250Y-97718000D01*
%TO.C,LED33*%
X157524000Y-116748000D02*
X157524000Y-119748000D01*
X157524000Y-119748000D02*
X160924000Y-119748000D01*
X160924000Y-116748000D02*
X157524000Y-116748000D01*
X160924000Y-119748000D02*
X160924000Y-116748000D01*
%TO.C,LED23*%
X114684000Y-59618000D02*
X114684000Y-62618000D01*
X114684000Y-62618000D02*
X118084000Y-62618000D01*
X118084000Y-59618000D02*
X114684000Y-59618000D01*
X118084000Y-62618000D02*
X118084000Y-59618000D01*
%TO.C,LED24*%
X119444000Y-78658000D02*
X119444000Y-81658000D01*
X119444000Y-81658000D02*
X122844000Y-81658000D01*
X122844000Y-78658000D02*
X119444000Y-78658000D01*
X122844000Y-81658000D02*
X122844000Y-78658000D01*
%TO.C,LED16*%
X90889000Y-97718000D02*
X90889000Y-100718000D01*
X90889000Y-100718000D02*
X94289000Y-100718000D01*
X94289000Y-97718000D02*
X90889000Y-97718000D01*
X94289000Y-100718000D02*
X94289000Y-97718000D01*
%TO.C,LED29*%
X138999000Y-134763000D02*
X138999000Y-137763000D01*
X138999000Y-137763000D02*
X142399000Y-137763000D01*
X142399000Y-134763000D02*
X138999000Y-134763000D01*
X142399000Y-137763000D02*
X142399000Y-134763000D01*
%TO.C,LED34*%
X167049000Y-97718000D02*
X167049000Y-100718000D01*
X167049000Y-100718000D02*
X170449000Y-100718000D01*
X170449000Y-97718000D02*
X167049000Y-97718000D01*
X170449000Y-100718000D02*
X170449000Y-97718000D01*
%TO.C,LED1*%
X29004000Y-40578000D02*
X29004000Y-43578000D01*
X29004000Y-43578000D02*
X32404000Y-43578000D01*
X32404000Y-40578000D02*
X29004000Y-40578000D01*
X32404000Y-43578000D02*
X32404000Y-40578000D01*
%TO.C,LED22*%
X109929000Y-97718000D02*
X109929000Y-100718000D01*
X109929000Y-100718000D02*
X113329000Y-100718000D01*
X113329000Y-97718000D02*
X109929000Y-97718000D01*
X113329000Y-100718000D02*
X113329000Y-97718000D01*
%TO.C,LED17*%
X95644000Y-59618000D02*
X95644000Y-62618000D01*
X95644000Y-62618000D02*
X99044000Y-62618000D01*
X99044000Y-59618000D02*
X95644000Y-59618000D01*
X99044000Y-62618000D02*
X99044000Y-59618000D01*
%TD*%
M02*
