%TF.GenerationSoftware,KiCad,Pcbnew,8.0.7*%
%TF.CreationDate,2025-06-02T16:21:18+02:00*%
%TF.ProjectId,pcb_keyboard_sx,7063625f-6b65-4796-926f-6172645f7378,rev?*%
%TF.SameCoordinates,Original*%
%TF.FileFunction,Legend,Top*%
%TF.FilePolarity,Positive*%
%FSLAX46Y46*%
G04 Gerber Fmt 4.6, Leading zero omitted, Abs format (unit mm)*
G04 Created by KiCad (PCBNEW 8.0.7) date 2025-06-02 16:21:18*
%MOMM*%
%LPD*%
G01*
G04 APERTURE LIST*
G04 Aperture macros list*
%AMRoundRect*
0 Rectangle with rounded corners*
0 $1 Rounding radius*
0 $2 $3 $4 $5 $6 $7 $8 $9 X,Y pos of 4 corners*
0 Add a 4 corners polygon primitive as box body*
4,1,4,$2,$3,$4,$5,$6,$7,$8,$9,$2,$3,0*
0 Add four circle primitives for the rounded corners*
1,1,$1+$1,$2,$3*
1,1,$1+$1,$4,$5*
1,1,$1+$1,$6,$7*
1,1,$1+$1,$8,$9*
0 Add four rect primitives between the rounded corners*
20,1,$1+$1,$2,$3,$4,$5,0*
20,1,$1+$1,$4,$5,$6,$7,0*
20,1,$1+$1,$6,$7,$8,$9,0*
20,1,$1+$1,$8,$9,$2,$3,0*%
%AMRotRect*
0 Rectangle, with rotation*
0 The origin of the aperture is its center*
0 $1 length*
0 $2 width*
0 $3 Rotation angle, in degrees counterclockwise*
0 Add horizontal line*
21,1,$1,$2,0,0,$3*%
G04 Aperture macros list end*
%ADD10C,0.200000*%
%ADD11C,0.150000*%
%ADD12C,0.120000*%
%ADD13C,0.250000*%
%ADD14R,1.700000X1.700000*%
%ADD15C,1.750000*%
%ADD16C,3.050000*%
%ADD17C,4.000000*%
%ADD18O,1.800000X1.800000*%
%ADD19O,1.500000X1.500000*%
%ADD20O,1.700000X1.700000*%
%ADD21R,1.700000X3.500000*%
%ADD22R,3.500000X1.700000*%
%ADD23C,0.800000*%
%ADD24O,1.600000X2.000000*%
%ADD25C,1.900000*%
%ADD26C,3.450000*%
%ADD27C,2.200000*%
%ADD28R,1.400000X1.400000*%
%ADD29RoundRect,0.300000X0.450000X0.300000X-0.450000X0.300000X-0.450000X-0.300000X0.450000X-0.300000X0*%
%ADD30RoundRect,0.300000X0.400000X0.300000X-0.400000X0.300000X-0.400000X-0.300000X0.400000X-0.300000X0*%
%ADD31C,1.400000*%
%ADD32RotRect,1.400000X1.400000X150.000000*%
%ADD33RoundRect,0.300000X0.496410X0.059808X-0.196410X0.459808X-0.496410X-0.059808X0.196410X-0.459808X0*%
%ADD34RoundRect,0.300000X-0.400000X-0.300000X0.400000X-0.300000X0.400000X0.300000X-0.400000X0.300000X0*%
%ADD35RoundRect,0.300000X0.300000X-0.400000X0.300000X0.400000X-0.300000X0.400000X-0.300000X-0.400000X0*%
G04 APERTURE END LIST*
D10*
X68401816Y-33875219D02*
X68735149Y-34875219D01*
X68735149Y-34875219D02*
X69068482Y-33875219D01*
X69973244Y-34779980D02*
X69925625Y-34827600D01*
X69925625Y-34827600D02*
X69782768Y-34875219D01*
X69782768Y-34875219D02*
X69687530Y-34875219D01*
X69687530Y-34875219D02*
X69544673Y-34827600D01*
X69544673Y-34827600D02*
X69449435Y-34732361D01*
X69449435Y-34732361D02*
X69401816Y-34637123D01*
X69401816Y-34637123D02*
X69354197Y-34446647D01*
X69354197Y-34446647D02*
X69354197Y-34303790D01*
X69354197Y-34303790D02*
X69401816Y-34113314D01*
X69401816Y-34113314D02*
X69449435Y-34018076D01*
X69449435Y-34018076D02*
X69544673Y-33922838D01*
X69544673Y-33922838D02*
X69687530Y-33875219D01*
X69687530Y-33875219D02*
X69782768Y-33875219D01*
X69782768Y-33875219D02*
X69925625Y-33922838D01*
X69925625Y-33922838D02*
X69973244Y-33970457D01*
X70973244Y-34779980D02*
X70925625Y-34827600D01*
X70925625Y-34827600D02*
X70782768Y-34875219D01*
X70782768Y-34875219D02*
X70687530Y-34875219D01*
X70687530Y-34875219D02*
X70544673Y-34827600D01*
X70544673Y-34827600D02*
X70449435Y-34732361D01*
X70449435Y-34732361D02*
X70401816Y-34637123D01*
X70401816Y-34637123D02*
X70354197Y-34446647D01*
X70354197Y-34446647D02*
X70354197Y-34303790D01*
X70354197Y-34303790D02*
X70401816Y-34113314D01*
X70401816Y-34113314D02*
X70449435Y-34018076D01*
X70449435Y-34018076D02*
X70544673Y-33922838D01*
X70544673Y-33922838D02*
X70687530Y-33875219D01*
X70687530Y-33875219D02*
X70782768Y-33875219D01*
X70782768Y-33875219D02*
X70925625Y-33922838D01*
X70925625Y-33922838D02*
X70973244Y-33970457D01*
X88586054Y-34646600D02*
X88728911Y-34694219D01*
X88728911Y-34694219D02*
X88967006Y-34694219D01*
X88967006Y-34694219D02*
X89062244Y-34646600D01*
X89062244Y-34646600D02*
X89109863Y-34598980D01*
X89109863Y-34598980D02*
X89157482Y-34503742D01*
X89157482Y-34503742D02*
X89157482Y-34408504D01*
X89157482Y-34408504D02*
X89109863Y-34313266D01*
X89109863Y-34313266D02*
X89062244Y-34265647D01*
X89062244Y-34265647D02*
X88967006Y-34218028D01*
X88967006Y-34218028D02*
X88776530Y-34170409D01*
X88776530Y-34170409D02*
X88681292Y-34122790D01*
X88681292Y-34122790D02*
X88633673Y-34075171D01*
X88633673Y-34075171D02*
X88586054Y-33979933D01*
X88586054Y-33979933D02*
X88586054Y-33884695D01*
X88586054Y-33884695D02*
X88633673Y-33789457D01*
X88633673Y-33789457D02*
X88681292Y-33741838D01*
X88681292Y-33741838D02*
X88776530Y-33694219D01*
X88776530Y-33694219D02*
X89014625Y-33694219D01*
X89014625Y-33694219D02*
X89157482Y-33741838D01*
X90157482Y-34598980D02*
X90109863Y-34646600D01*
X90109863Y-34646600D02*
X89967006Y-34694219D01*
X89967006Y-34694219D02*
X89871768Y-34694219D01*
X89871768Y-34694219D02*
X89728911Y-34646600D01*
X89728911Y-34646600D02*
X89633673Y-34551361D01*
X89633673Y-34551361D02*
X89586054Y-34456123D01*
X89586054Y-34456123D02*
X89538435Y-34265647D01*
X89538435Y-34265647D02*
X89538435Y-34122790D01*
X89538435Y-34122790D02*
X89586054Y-33932314D01*
X89586054Y-33932314D02*
X89633673Y-33837076D01*
X89633673Y-33837076D02*
X89728911Y-33741838D01*
X89728911Y-33741838D02*
X89871768Y-33694219D01*
X89871768Y-33694219D02*
X89967006Y-33694219D01*
X89967006Y-33694219D02*
X90109863Y-33741838D01*
X90109863Y-33741838D02*
X90157482Y-33789457D01*
X91062244Y-34694219D02*
X90586054Y-34694219D01*
X90586054Y-34694219D02*
X90586054Y-33694219D01*
X82866054Y-34736600D02*
X83008911Y-34784219D01*
X83008911Y-34784219D02*
X83247006Y-34784219D01*
X83247006Y-34784219D02*
X83342244Y-34736600D01*
X83342244Y-34736600D02*
X83389863Y-34688980D01*
X83389863Y-34688980D02*
X83437482Y-34593742D01*
X83437482Y-34593742D02*
X83437482Y-34498504D01*
X83437482Y-34498504D02*
X83389863Y-34403266D01*
X83389863Y-34403266D02*
X83342244Y-34355647D01*
X83342244Y-34355647D02*
X83247006Y-34308028D01*
X83247006Y-34308028D02*
X83056530Y-34260409D01*
X83056530Y-34260409D02*
X82961292Y-34212790D01*
X82961292Y-34212790D02*
X82913673Y-34165171D01*
X82913673Y-34165171D02*
X82866054Y-34069933D01*
X82866054Y-34069933D02*
X82866054Y-33974695D01*
X82866054Y-33974695D02*
X82913673Y-33879457D01*
X82913673Y-33879457D02*
X82961292Y-33831838D01*
X82961292Y-33831838D02*
X83056530Y-33784219D01*
X83056530Y-33784219D02*
X83294625Y-33784219D01*
X83294625Y-33784219D02*
X83437482Y-33831838D01*
X83866054Y-34784219D02*
X83866054Y-33784219D01*
X83866054Y-33784219D02*
X84104149Y-33784219D01*
X84104149Y-33784219D02*
X84247006Y-33831838D01*
X84247006Y-33831838D02*
X84342244Y-33927076D01*
X84342244Y-33927076D02*
X84389863Y-34022314D01*
X84389863Y-34022314D02*
X84437482Y-34212790D01*
X84437482Y-34212790D02*
X84437482Y-34355647D01*
X84437482Y-34355647D02*
X84389863Y-34546123D01*
X84389863Y-34546123D02*
X84342244Y-34641361D01*
X84342244Y-34641361D02*
X84247006Y-34736600D01*
X84247006Y-34736600D02*
X84104149Y-34784219D01*
X84104149Y-34784219D02*
X83866054Y-34784219D01*
X84818435Y-34498504D02*
X85294625Y-34498504D01*
X84723197Y-34784219D02*
X85056530Y-33784219D01*
X85056530Y-33784219D02*
X85389863Y-34784219D01*
X75877482Y-33911838D02*
X75782244Y-33864219D01*
X75782244Y-33864219D02*
X75639387Y-33864219D01*
X75639387Y-33864219D02*
X75496530Y-33911838D01*
X75496530Y-33911838D02*
X75401292Y-34007076D01*
X75401292Y-34007076D02*
X75353673Y-34102314D01*
X75353673Y-34102314D02*
X75306054Y-34292790D01*
X75306054Y-34292790D02*
X75306054Y-34435647D01*
X75306054Y-34435647D02*
X75353673Y-34626123D01*
X75353673Y-34626123D02*
X75401292Y-34721361D01*
X75401292Y-34721361D02*
X75496530Y-34816600D01*
X75496530Y-34816600D02*
X75639387Y-34864219D01*
X75639387Y-34864219D02*
X75734625Y-34864219D01*
X75734625Y-34864219D02*
X75877482Y-34816600D01*
X75877482Y-34816600D02*
X75925101Y-34768980D01*
X75925101Y-34768980D02*
X75925101Y-34435647D01*
X75925101Y-34435647D02*
X75734625Y-34435647D01*
X76353673Y-34864219D02*
X76353673Y-33864219D01*
X76353673Y-33864219D02*
X76925101Y-34864219D01*
X76925101Y-34864219D02*
X76925101Y-33864219D01*
X77401292Y-34864219D02*
X77401292Y-33864219D01*
X77401292Y-33864219D02*
X77639387Y-33864219D01*
X77639387Y-33864219D02*
X77782244Y-33911838D01*
X77782244Y-33911838D02*
X77877482Y-34007076D01*
X77877482Y-34007076D02*
X77925101Y-34102314D01*
X77925101Y-34102314D02*
X77972720Y-34292790D01*
X77972720Y-34292790D02*
X77972720Y-34435647D01*
X77972720Y-34435647D02*
X77925101Y-34626123D01*
X77925101Y-34626123D02*
X77877482Y-34721361D01*
X77877482Y-34721361D02*
X77782244Y-34816600D01*
X77782244Y-34816600D02*
X77639387Y-34864219D01*
X77639387Y-34864219D02*
X77401292Y-34864219D01*
X86980816Y-150884219D02*
X87552244Y-150884219D01*
X87266530Y-151884219D02*
X87266530Y-150884219D01*
X87885578Y-151884219D02*
X87885578Y-150884219D01*
X87885578Y-150884219D02*
X88266530Y-150884219D01*
X88266530Y-150884219D02*
X88361768Y-150931838D01*
X88361768Y-150931838D02*
X88409387Y-150979457D01*
X88409387Y-150979457D02*
X88457006Y-151074695D01*
X88457006Y-151074695D02*
X88457006Y-151217552D01*
X88457006Y-151217552D02*
X88409387Y-151312790D01*
X88409387Y-151312790D02*
X88361768Y-151360409D01*
X88361768Y-151360409D02*
X88266530Y-151408028D01*
X88266530Y-151408028D02*
X87885578Y-151408028D01*
X89314149Y-150884219D02*
X89123673Y-150884219D01*
X89123673Y-150884219D02*
X89028435Y-150931838D01*
X89028435Y-150931838D02*
X88980816Y-150979457D01*
X88980816Y-150979457D02*
X88885578Y-151122314D01*
X88885578Y-151122314D02*
X88837959Y-151312790D01*
X88837959Y-151312790D02*
X88837959Y-151693742D01*
X88837959Y-151693742D02*
X88885578Y-151788980D01*
X88885578Y-151788980D02*
X88933197Y-151836600D01*
X88933197Y-151836600D02*
X89028435Y-151884219D01*
X89028435Y-151884219D02*
X89218911Y-151884219D01*
X89218911Y-151884219D02*
X89314149Y-151836600D01*
X89314149Y-151836600D02*
X89361768Y-151788980D01*
X89361768Y-151788980D02*
X89409387Y-151693742D01*
X89409387Y-151693742D02*
X89409387Y-151455647D01*
X89409387Y-151455647D02*
X89361768Y-151360409D01*
X89361768Y-151360409D02*
X89314149Y-151312790D01*
X89314149Y-151312790D02*
X89218911Y-151265171D01*
X89218911Y-151265171D02*
X89028435Y-151265171D01*
X89028435Y-151265171D02*
X88933197Y-151312790D01*
X88933197Y-151312790D02*
X88885578Y-151360409D01*
X88885578Y-151360409D02*
X88837959Y-151455647D01*
D11*
X103995905Y-129514200D02*
X104138762Y-129561819D01*
X104138762Y-129561819D02*
X104376857Y-129561819D01*
X104376857Y-129561819D02*
X104472095Y-129514200D01*
X104472095Y-129514200D02*
X104519714Y-129466580D01*
X104519714Y-129466580D02*
X104567333Y-129371342D01*
X104567333Y-129371342D02*
X104567333Y-129276104D01*
X104567333Y-129276104D02*
X104519714Y-129180866D01*
X104519714Y-129180866D02*
X104472095Y-129133247D01*
X104472095Y-129133247D02*
X104376857Y-129085628D01*
X104376857Y-129085628D02*
X104186381Y-129038009D01*
X104186381Y-129038009D02*
X104091143Y-128990390D01*
X104091143Y-128990390D02*
X104043524Y-128942771D01*
X104043524Y-128942771D02*
X103995905Y-128847533D01*
X103995905Y-128847533D02*
X103995905Y-128752295D01*
X103995905Y-128752295D02*
X104043524Y-128657057D01*
X104043524Y-128657057D02*
X104091143Y-128609438D01*
X104091143Y-128609438D02*
X104186381Y-128561819D01*
X104186381Y-128561819D02*
X104424476Y-128561819D01*
X104424476Y-128561819D02*
X104567333Y-128609438D01*
X104948286Y-128657057D02*
X104995905Y-128609438D01*
X104995905Y-128609438D02*
X105091143Y-128561819D01*
X105091143Y-128561819D02*
X105329238Y-128561819D01*
X105329238Y-128561819D02*
X105424476Y-128609438D01*
X105424476Y-128609438D02*
X105472095Y-128657057D01*
X105472095Y-128657057D02*
X105519714Y-128752295D01*
X105519714Y-128752295D02*
X105519714Y-128847533D01*
X105519714Y-128847533D02*
X105472095Y-128990390D01*
X105472095Y-128990390D02*
X104900667Y-129561819D01*
X104900667Y-129561819D02*
X105519714Y-129561819D01*
X106472095Y-129561819D02*
X105900667Y-129561819D01*
X106186381Y-129561819D02*
X106186381Y-128561819D01*
X106186381Y-128561819D02*
X106091143Y-128704676D01*
X106091143Y-128704676D02*
X105995905Y-128799914D01*
X105995905Y-128799914D02*
X105900667Y-128847533D01*
X61859095Y-101411819D02*
X61859095Y-100411819D01*
X61859095Y-100888009D02*
X62430523Y-100888009D01*
X62430523Y-101411819D02*
X62430523Y-100411819D01*
X62811476Y-100411819D02*
X63430523Y-100411819D01*
X63430523Y-100411819D02*
X63097190Y-100792771D01*
X63097190Y-100792771D02*
X63240047Y-100792771D01*
X63240047Y-100792771D02*
X63335285Y-100840390D01*
X63335285Y-100840390D02*
X63382904Y-100888009D01*
X63382904Y-100888009D02*
X63430523Y-100983247D01*
X63430523Y-100983247D02*
X63430523Y-101221342D01*
X63430523Y-101221342D02*
X63382904Y-101316580D01*
X63382904Y-101316580D02*
X63335285Y-101364200D01*
X63335285Y-101364200D02*
X63240047Y-101411819D01*
X63240047Y-101411819D02*
X62954333Y-101411819D01*
X62954333Y-101411819D02*
X62859095Y-101364200D01*
X62859095Y-101364200D02*
X62811476Y-101316580D01*
X125152095Y-62321819D02*
X125152095Y-61321819D01*
X125152095Y-61798009D02*
X125723523Y-61798009D01*
X125723523Y-62321819D02*
X125723523Y-61321819D01*
X126152095Y-61417057D02*
X126199714Y-61369438D01*
X126199714Y-61369438D02*
X126294952Y-61321819D01*
X126294952Y-61321819D02*
X126533047Y-61321819D01*
X126533047Y-61321819D02*
X126628285Y-61369438D01*
X126628285Y-61369438D02*
X126675904Y-61417057D01*
X126675904Y-61417057D02*
X126723523Y-61512295D01*
X126723523Y-61512295D02*
X126723523Y-61607533D01*
X126723523Y-61607533D02*
X126675904Y-61750390D01*
X126675904Y-61750390D02*
X126104476Y-62321819D01*
X126104476Y-62321819D02*
X126723523Y-62321819D01*
X46605595Y-63311819D02*
X46605595Y-62311819D01*
X46605595Y-62788009D02*
X47177023Y-62788009D01*
X47177023Y-63311819D02*
X47177023Y-62311819D01*
X48177023Y-63311819D02*
X47605595Y-63311819D01*
X47891309Y-63311819D02*
X47891309Y-62311819D01*
X47891309Y-62311819D02*
X47796071Y-62454676D01*
X47796071Y-62454676D02*
X47700833Y-62549914D01*
X47700833Y-62549914D02*
X47605595Y-62597533D01*
X145373845Y-120441819D02*
X145373845Y-119441819D01*
X145373845Y-119918009D02*
X145945273Y-119918009D01*
X145945273Y-120441819D02*
X145945273Y-119441819D01*
X146850035Y-119775152D02*
X146850035Y-120441819D01*
X146611940Y-119394200D02*
X146373845Y-120108485D01*
X146373845Y-120108485D02*
X146992892Y-120108485D01*
D12*
%TO.C,TP2*%
X68414000Y-38077000D02*
X68414000Y-36747000D01*
X69744000Y-38077000D02*
X68414000Y-38077000D01*
X71014000Y-35417000D02*
X71074000Y-35417000D01*
X71014000Y-38077000D02*
X71014000Y-35417000D01*
X71014000Y-38077000D02*
X71074000Y-38077000D01*
X71074000Y-38077000D02*
X71074000Y-35417000D01*
%TO.C,S34*%
X161649000Y-97057000D02*
X161649000Y-111257000D01*
X161649000Y-111257000D02*
X175849000Y-111257000D01*
X175849000Y-97057000D02*
X161649000Y-97057000D01*
X175849000Y-111257000D02*
X175849000Y-97057000D01*
%TO.C,TP4*%
X88165000Y-38118000D02*
X88165000Y-36788000D01*
X89495000Y-38118000D02*
X88165000Y-38118000D01*
X90765000Y-35458000D02*
X90825000Y-35458000D01*
X90765000Y-38118000D02*
X90765000Y-35458000D01*
X90765000Y-38118000D02*
X90825000Y-38118000D01*
X90825000Y-38118000D02*
X90825000Y-35458000D01*
%TO.C,S17*%
X90249000Y-58967000D02*
X90249000Y-73167000D01*
X90249000Y-73167000D02*
X104449000Y-73167000D01*
X104449000Y-58967000D02*
X90249000Y-58967000D01*
X104449000Y-73167000D02*
X104449000Y-58967000D01*
%TO.C,S8*%
X52169000Y-58967000D02*
X52169000Y-73167000D01*
X52169000Y-73167000D02*
X66369000Y-73167000D01*
X66369000Y-58967000D02*
X52169000Y-58967000D01*
X66369000Y-73167000D02*
X66369000Y-58967000D01*
%TO.C,S3*%
X30747750Y-78007000D02*
X30747750Y-92207000D01*
X30747750Y-92207000D02*
X44947750Y-92207000D01*
X44947750Y-78007000D02*
X30747750Y-78007000D01*
X44947750Y-92207000D02*
X44947750Y-78007000D01*
%TO.C,S11*%
X66449000Y-97057000D02*
X66449000Y-111257000D01*
X66449000Y-111257000D02*
X80649000Y-111257000D01*
X80649000Y-97057000D02*
X66449000Y-97057000D01*
X80649000Y-111257000D02*
X80649000Y-97057000D01*
%TO.C,S4*%
X25985250Y-116087000D02*
X25985250Y-130287000D01*
X25985250Y-130287000D02*
X40185250Y-130287000D01*
X40185250Y-116087000D02*
X25985250Y-116087000D01*
X40185250Y-130287000D02*
X40185250Y-116087000D01*
%TO.C,S13*%
X73585250Y-116087000D02*
X73585250Y-130287000D01*
X73585250Y-130287000D02*
X87785250Y-130287000D01*
X87785250Y-116087000D02*
X73585250Y-116087000D01*
X87785250Y-130287000D02*
X87785250Y-116087000D01*
%TO.C,S16*%
X85489000Y-97057000D02*
X85489000Y-111257000D01*
X85489000Y-111257000D02*
X99689000Y-111257000D01*
X99689000Y-97057000D02*
X85489000Y-97057000D01*
X99689000Y-111257000D02*
X99689000Y-97057000D01*
%TO.C,U1*%
X23504000Y-134017000D02*
X23804000Y-134017000D01*
X23504000Y-155017000D02*
X23504000Y-134017000D01*
X23504000Y-155017000D02*
X23804000Y-155017000D01*
X25904000Y-134017000D02*
X26304000Y-134017000D01*
X25904000Y-155017000D02*
X26304000Y-155017000D01*
X26171000Y-152010000D02*
X23504000Y-152010000D01*
X26171000Y-155017000D02*
X26171000Y-152010000D01*
X28504000Y-134017000D02*
X28904000Y-134017000D01*
X28504000Y-155017000D02*
X28904000Y-155017000D01*
X31004000Y-134017000D02*
X31404000Y-134017000D01*
X31004000Y-155017000D02*
X31404000Y-155017000D01*
X33604000Y-134017000D02*
X34004000Y-134017000D01*
X33604000Y-155017000D02*
X34004000Y-155017000D01*
X36104000Y-134017000D02*
X36504000Y-134017000D01*
X36104000Y-155017000D02*
X36504000Y-155017000D01*
X38604000Y-134017000D02*
X39004000Y-134017000D01*
X38604000Y-155017000D02*
X39004000Y-155017000D01*
X41204000Y-134017000D02*
X41604000Y-134017000D01*
X41204000Y-155017000D02*
X41604000Y-155017000D01*
X43704000Y-134017000D02*
X44104000Y-134017000D01*
X43704000Y-155017000D02*
X44104000Y-155017000D01*
X46304000Y-134017000D02*
X46704000Y-134017000D01*
X46304000Y-155017000D02*
X46704000Y-155017000D01*
X48804000Y-134017000D02*
X49204000Y-134017000D01*
X48804000Y-155017000D02*
X49204000Y-155017000D01*
X51304000Y-134017000D02*
X51704000Y-134017000D01*
X51304000Y-155017000D02*
X51704000Y-155017000D01*
X53904000Y-134017000D02*
X54304000Y-134017000D01*
X53904000Y-155017000D02*
X54304000Y-155017000D01*
X56404000Y-134017000D02*
X56804000Y-134017000D01*
X56404000Y-155017000D02*
X56804000Y-155017000D01*
X59004000Y-134017000D02*
X59404000Y-134017000D01*
X59004000Y-155017000D02*
X59404000Y-155017000D01*
X61504000Y-134017000D02*
X61904000Y-134017000D01*
X61504000Y-155017000D02*
X61904000Y-155017000D01*
X64104000Y-134017000D02*
X64504000Y-134017000D01*
X64104000Y-155017000D02*
X64504000Y-155017000D01*
X66604000Y-134017000D02*
X67004000Y-134017000D01*
X66604000Y-155017000D02*
X67004000Y-155017000D01*
X69104000Y-134017000D02*
X69504000Y-134017000D01*
X69104000Y-155017000D02*
X69504000Y-155017000D01*
X71704000Y-134017000D02*
X72104000Y-134017000D01*
X71704000Y-155017000D02*
X72104000Y-155017000D01*
X74504000Y-134017000D02*
X74504000Y-140817000D01*
X74504000Y-143417000D02*
X74504000Y-143017000D01*
X74504000Y-146017000D02*
X74504000Y-145617000D01*
X74504000Y-148217000D02*
X74504000Y-155017000D01*
%TO.C,S21*%
X97385250Y-116087000D02*
X97385250Y-130287000D01*
X97385250Y-130287000D02*
X111585250Y-130287000D01*
X111585250Y-116087000D02*
X97385250Y-116087000D01*
X111585250Y-130287000D02*
X111585250Y-116087000D01*
%TO.C,S22*%
X104529000Y-97057000D02*
X104529000Y-111257000D01*
X104529000Y-111257000D02*
X118729000Y-111257000D01*
X118729000Y-97057000D02*
X104529000Y-97057000D01*
X118729000Y-111257000D02*
X118729000Y-97057000D01*
%TO.C,S7*%
X49785250Y-116087000D02*
X49785250Y-130287000D01*
X49785250Y-130287000D02*
X63985250Y-130287000D01*
X63985250Y-116087000D02*
X49785250Y-116087000D01*
X63985250Y-130287000D02*
X63985250Y-116087000D01*
%TO.C,S5*%
X35510250Y-97057000D02*
X35510250Y-111257000D01*
X35510250Y-111257000D02*
X49710250Y-111257000D01*
X49710250Y-97057000D02*
X35510250Y-97057000D01*
X49710250Y-111257000D02*
X49710250Y-97057000D01*
%TO.C,S27*%
X123569000Y-97057000D02*
X123569000Y-111257000D01*
X123569000Y-111257000D02*
X137769000Y-111257000D01*
X137769000Y-97057000D02*
X123569000Y-97057000D01*
X137769000Y-111257000D02*
X137769000Y-97057000D01*
%TO.C,S28*%
X128329000Y-58967000D02*
X128329000Y-73167000D01*
X128329000Y-73167000D02*
X142529000Y-73167000D01*
X142529000Y-58967000D02*
X128329000Y-58967000D01*
X142529000Y-73167000D02*
X142529000Y-58967000D01*
D11*
%TO.C,U2*%
X115549000Y-22502000D02*
X115549000Y-34602000D01*
X115799000Y-22502000D02*
X115799000Y-20502000D01*
X121399000Y-20502000D02*
X115799000Y-20502000D01*
X121399000Y-22502000D02*
X121399000Y-20502000D01*
X121649000Y-22502000D02*
X115549000Y-22502000D01*
X121649000Y-22502000D02*
X121649000Y-34602000D01*
X121649000Y-34602000D02*
X115549000Y-34602000D01*
D12*
%TO.C,S29*%
X133099000Y-133602000D02*
X133099000Y-148802000D01*
X133099000Y-148802000D02*
X148299000Y-148802000D01*
X148299000Y-133602000D02*
X133099000Y-133602000D01*
X148299000Y-148802000D02*
X148299000Y-133602000D01*
%TO.C,S20*%
X108349000Y-133602000D02*
X108349000Y-148802000D01*
X108349000Y-148802000D02*
X123549000Y-148802000D01*
X123549000Y-133602000D02*
X108349000Y-133602000D01*
X123549000Y-148802000D02*
X123549000Y-133602000D01*
%TO.C,S23*%
X109289000Y-58967000D02*
X109289000Y-73167000D01*
X109289000Y-73167000D02*
X123489000Y-73167000D01*
X123489000Y-58967000D02*
X109289000Y-58967000D01*
X123489000Y-73167000D02*
X123489000Y-58967000D01*
%TO.C,S32*%
X142609000Y-97057000D02*
X142609000Y-111257000D01*
X142609000Y-111257000D02*
X156809000Y-111257000D01*
X156809000Y-97057000D02*
X142609000Y-97057000D01*
X156809000Y-111257000D02*
X156809000Y-97057000D01*
%TO.C,S9*%
X56924000Y-78007000D02*
X56924000Y-92207000D01*
X56924000Y-92207000D02*
X71124000Y-92207000D01*
X71124000Y-78007000D02*
X56924000Y-78007000D01*
X71124000Y-92207000D02*
X71124000Y-78007000D01*
%TO.C,S2*%
X28366500Y-58957000D02*
X28366500Y-73157000D01*
X28366500Y-73157000D02*
X42566500Y-73157000D01*
X42566500Y-58957000D02*
X28366500Y-58957000D01*
X42566500Y-73157000D02*
X42566500Y-58957000D01*
D10*
%TO.C,D6*%
X49224000Y-54857000D02*
X50394000Y-55532000D01*
X49224000Y-56187000D02*
X49224000Y-54857000D01*
X50394000Y-55532000D02*
X49224000Y-56187000D01*
X50394000Y-56197000D02*
X50394000Y-54867000D01*
D13*
X54764000Y-54567000D02*
X53054000Y-54567000D01*
X54774000Y-56527000D02*
X53074000Y-56527000D01*
X54774000Y-56527000D02*
X54774000Y-54577000D01*
D12*
%TO.C,S19*%
X99764000Y-39917000D02*
X99764000Y-54117000D01*
X99764000Y-54117000D02*
X113964000Y-54117000D01*
X113964000Y-39917000D02*
X99764000Y-39917000D01*
X113964000Y-54117000D02*
X113964000Y-39917000D01*
%TO.C,S18*%
X95004000Y-78007000D02*
X95004000Y-92207000D01*
X95004000Y-92207000D02*
X109204000Y-92207000D01*
X109204000Y-78007000D02*
X95004000Y-78007000D01*
X109204000Y-92207000D02*
X109204000Y-78007000D01*
%TO.C,S12*%
X71209000Y-58967000D02*
X71209000Y-73167000D01*
X71209000Y-73167000D02*
X85409000Y-73167000D01*
X85409000Y-58967000D02*
X71209000Y-58967000D01*
X85409000Y-73167000D02*
X85409000Y-58967000D01*
%TO.C,S10*%
X61684000Y-39917000D02*
X61684000Y-54117000D01*
X61684000Y-54117000D02*
X75884000Y-54117000D01*
X75884000Y-39917000D02*
X61684000Y-39917000D01*
X75884000Y-54117000D02*
X75884000Y-39917000D01*
%TO.C,S15*%
X80724000Y-39917000D02*
X80724000Y-54117000D01*
X80724000Y-54117000D02*
X94924000Y-54117000D01*
X94924000Y-39917000D02*
X80724000Y-39917000D01*
X94924000Y-54117000D02*
X94924000Y-39917000D01*
%TO.C,S26*%
X125947750Y-116087000D02*
X125947750Y-130287000D01*
X125947750Y-130287000D02*
X140147750Y-130287000D01*
X140147750Y-116087000D02*
X125947750Y-116087000D01*
X140147750Y-130287000D02*
X140147750Y-116087000D01*
%TO.C,S25*%
X118804000Y-39917000D02*
X118804000Y-54117000D01*
X118804000Y-54117000D02*
X133004000Y-54117000D01*
X133004000Y-39917000D02*
X118804000Y-39917000D01*
X133004000Y-54117000D02*
X133004000Y-39917000D01*
%TO.C,S30*%
X133084000Y-78007000D02*
X133084000Y-92207000D01*
X133084000Y-92207000D02*
X147284000Y-92207000D01*
X147284000Y-78007000D02*
X133084000Y-78007000D01*
X147284000Y-92207000D02*
X147284000Y-78007000D01*
%TO.C,S1*%
X23604000Y-39917000D02*
X23604000Y-54117000D01*
X23604000Y-54117000D02*
X37804000Y-54117000D01*
X37804000Y-39917000D02*
X23604000Y-39917000D01*
X37804000Y-54117000D02*
X37804000Y-39917000D01*
%TO.C,S33*%
X152124000Y-116087000D02*
X152124000Y-130287000D01*
X152124000Y-130287000D02*
X166324000Y-130287000D01*
X166324000Y-116087000D02*
X152124000Y-116087000D01*
X166324000Y-130287000D02*
X166324000Y-116087000D01*
%TO.C,S14*%
X75964000Y-78007000D02*
X75964000Y-92207000D01*
X75964000Y-92207000D02*
X90164000Y-92207000D01*
X90164000Y-78007000D02*
X75964000Y-78007000D01*
X90164000Y-92207000D02*
X90164000Y-78007000D01*
%TO.C,TP1*%
X75344000Y-38097000D02*
X75344000Y-36767000D01*
X76674000Y-38097000D02*
X75344000Y-38097000D01*
X77944000Y-35437000D02*
X78004000Y-35437000D01*
X77944000Y-38097000D02*
X77944000Y-35437000D01*
X77944000Y-38097000D02*
X78004000Y-38097000D01*
X78004000Y-38097000D02*
X78004000Y-35437000D01*
%TO.C,TP3*%
X82515000Y-38118000D02*
X82515000Y-36788000D01*
X83845000Y-38118000D02*
X82515000Y-38118000D01*
X85115000Y-35458000D02*
X85175000Y-35458000D01*
X85115000Y-38118000D02*
X85115000Y-35458000D01*
X85115000Y-38118000D02*
X85175000Y-38118000D01*
X85175000Y-38118000D02*
X85175000Y-35458000D01*
%TO.C,S6*%
X42644000Y-39917000D02*
X42644000Y-54117000D01*
X42644000Y-54117000D02*
X56844000Y-54117000D01*
X56844000Y-39917000D02*
X42644000Y-39917000D01*
X56844000Y-54117000D02*
X56844000Y-39917000D01*
%TO.C,S24*%
X114044000Y-78007000D02*
X114044000Y-92207000D01*
X114044000Y-92207000D02*
X128244000Y-92207000D01*
X128244000Y-78007000D02*
X114044000Y-78007000D01*
X128244000Y-92207000D02*
X128244000Y-78007000D01*
%TO.C,S35*%
X175087220Y-132223780D02*
X187384780Y-139323780D01*
X182187220Y-119926220D02*
X175087220Y-132223780D01*
X187384780Y-139323780D02*
X194484780Y-127026220D01*
X194484780Y-127026220D02*
X182187220Y-119926220D01*
%TO.C,S31*%
X137844000Y-39917000D02*
X137844000Y-54117000D01*
X137844000Y-54117000D02*
X152044000Y-54117000D01*
X152044000Y-39917000D02*
X137844000Y-39917000D01*
X152044000Y-54117000D02*
X152044000Y-39917000D01*
D10*
%TO.C,D36*%
X31556500Y-130735750D02*
X31556500Y-132065750D01*
X31556500Y-132065750D02*
X32726500Y-131410750D01*
X32726500Y-130745750D02*
X32726500Y-132075750D01*
X32726500Y-131410750D02*
X31556500Y-130735750D01*
D13*
X35386500Y-130445750D02*
X37096500Y-130445750D01*
X35406500Y-132405750D02*
X37106500Y-132405750D01*
X37106500Y-130455750D02*
X37106500Y-132405750D01*
D10*
%TO.C,D12*%
X77759000Y-74104500D02*
X77759000Y-75434500D01*
X77759000Y-75434500D02*
X78929000Y-74779500D01*
X78929000Y-74114500D02*
X78929000Y-75444500D01*
X78929000Y-74779500D02*
X77759000Y-74104500D01*
D13*
X81589000Y-73814500D02*
X83299000Y-73814500D01*
X81609000Y-75774500D02*
X83309000Y-75774500D01*
X83309000Y-73824500D02*
X83309000Y-75774500D01*
D10*
%TO.C,D33*%
X161359000Y-131974500D02*
X161359000Y-133304500D01*
X161359000Y-133304500D02*
X162529000Y-132649500D01*
X162529000Y-131984500D02*
X162529000Y-133314500D01*
X162529000Y-132649500D02*
X161359000Y-131974500D01*
D13*
X165189000Y-131684500D02*
X166899000Y-131684500D01*
X165209000Y-133644500D02*
X166909000Y-133644500D01*
X166909000Y-131694500D02*
X166909000Y-133644500D01*
D10*
%TO.C,D16*%
X90789000Y-112084500D02*
X90789000Y-113414500D01*
X90789000Y-113414500D02*
X91959000Y-112759500D01*
X91959000Y-112094500D02*
X91959000Y-113424500D01*
X91959000Y-112759500D02*
X90789000Y-112084500D01*
D13*
X94619000Y-111794500D02*
X96329000Y-111794500D01*
X94639000Y-113754500D02*
X96339000Y-113754500D01*
X96339000Y-111804500D02*
X96339000Y-113754500D01*
D10*
%TO.C,D15*%
X86096500Y-55085750D02*
X86096500Y-56415750D01*
X86096500Y-56415750D02*
X87266500Y-55760750D01*
X87266500Y-55095750D02*
X87266500Y-56425750D01*
X87266500Y-55760750D02*
X86096500Y-55085750D01*
D13*
X89926500Y-54795750D02*
X91636500Y-54795750D01*
X89946500Y-56755750D02*
X91646500Y-56755750D01*
X91646500Y-54805750D02*
X91646500Y-56755750D01*
D10*
%TO.C,D28*%
X135179000Y-74014500D02*
X135179000Y-75344500D01*
X135179000Y-75344500D02*
X136349000Y-74689500D01*
X136349000Y-74024500D02*
X136349000Y-75354500D01*
X136349000Y-74689500D02*
X135179000Y-74014500D01*
D13*
X139009000Y-73724500D02*
X140719000Y-73724500D01*
X139029000Y-75684500D02*
X140729000Y-75684500D01*
X140729000Y-73734500D02*
X140729000Y-75684500D01*
D10*
%TO.C,D9*%
X63349000Y-93014500D02*
X63349000Y-94344500D01*
X63349000Y-94344500D02*
X64519000Y-93689500D01*
X64519000Y-93024500D02*
X64519000Y-94354500D01*
X64519000Y-93689500D02*
X63349000Y-93014500D01*
D13*
X67179000Y-92724500D02*
X68889000Y-92724500D01*
X67199000Y-94684500D02*
X68899000Y-94684500D01*
X68899000Y-92734500D02*
X68899000Y-94684500D01*
D10*
%TO.C,D30*%
X139696500Y-93045750D02*
X139696500Y-94375750D01*
X139696500Y-94375750D02*
X140866500Y-93720750D01*
X140866500Y-93055750D02*
X140866500Y-94385750D01*
X140866500Y-93720750D02*
X139696500Y-93045750D01*
D13*
X143526500Y-92755750D02*
X145236500Y-92755750D01*
X143546500Y-94715750D02*
X145246500Y-94715750D01*
X145246500Y-92765750D02*
X145246500Y-94715750D01*
D10*
%TO.C,D3*%
X37089000Y-93044500D02*
X37089000Y-94374500D01*
X37089000Y-94374500D02*
X38259000Y-93719500D01*
X38259000Y-93054500D02*
X38259000Y-94384500D01*
X38259000Y-93719500D02*
X37089000Y-93044500D01*
D13*
X40919000Y-92754500D02*
X42629000Y-92754500D01*
X40939000Y-94714500D02*
X42639000Y-94714500D01*
X42639000Y-92764500D02*
X42639000Y-94714500D01*
D10*
%TO.C,D27*%
X129809000Y-112134500D02*
X129809000Y-113464500D01*
X129809000Y-113464500D02*
X130979000Y-112809500D01*
X130979000Y-112144500D02*
X130979000Y-113474500D01*
X130979000Y-112809500D02*
X129809000Y-112134500D01*
D13*
X133639000Y-111844500D02*
X135349000Y-111844500D01*
X133659000Y-113804500D02*
X135359000Y-113804500D01*
X135359000Y-111854500D02*
X135359000Y-113804500D01*
D10*
%TO.C,D11*%
X72689000Y-112164500D02*
X72689000Y-113494500D01*
X72689000Y-113494500D02*
X73859000Y-112839500D01*
X73859000Y-112174500D02*
X73859000Y-113504500D01*
X73859000Y-112839500D02*
X72689000Y-112164500D01*
D13*
X76519000Y-111874500D02*
X78229000Y-111874500D01*
X76539000Y-113834500D02*
X78239000Y-113834500D01*
X78239000Y-111884500D02*
X78239000Y-113834500D01*
D10*
%TO.C,D2*%
X34876500Y-74105750D02*
X34876500Y-75435750D01*
X34876500Y-75435750D02*
X36046500Y-74780750D01*
X36046500Y-74115750D02*
X36046500Y-75445750D01*
X36046500Y-74780750D02*
X34876500Y-74105750D01*
D13*
X38706500Y-73815750D02*
X40416500Y-73815750D01*
X38726500Y-75775750D02*
X40426500Y-75775750D01*
X40426500Y-73825750D02*
X40426500Y-75775750D01*
D10*
%TO.C,D35*%
X173465054Y-136240251D02*
X174805804Y-136258005D01*
X174130054Y-135088438D02*
X173465054Y-136240251D01*
X174805804Y-136258005D02*
X174130054Y-135088438D01*
X175138304Y-135682098D02*
X174473304Y-136833912D01*
D13*
X176629252Y-138459700D02*
X178101495Y-139309700D01*
X177591931Y-136752290D02*
X179072835Y-137607290D01*
X179076495Y-137620951D02*
X178101495Y-139309700D01*
D10*
%TO.C,D22*%
X110596500Y-112085750D02*
X110596500Y-113415750D01*
X110596500Y-113415750D02*
X111766500Y-112760750D01*
X111766500Y-112095750D02*
X111766500Y-113425750D01*
X111766500Y-112760750D02*
X110596500Y-112085750D01*
D13*
X114426500Y-111795750D02*
X116136500Y-111795750D01*
X114446500Y-113755750D02*
X116146500Y-113755750D01*
X116146500Y-111805750D02*
X116146500Y-113755750D01*
D10*
%TO.C,D18*%
X101559000Y-92994500D02*
X101559000Y-94324500D01*
X101559000Y-94324500D02*
X102729000Y-93669500D01*
X102729000Y-93004500D02*
X102729000Y-94334500D01*
X102729000Y-93669500D02*
X101559000Y-92994500D01*
D13*
X105389000Y-92704500D02*
X107099000Y-92704500D01*
X105409000Y-94664500D02*
X107109000Y-94664500D01*
X107109000Y-92714500D02*
X107109000Y-94664500D01*
D10*
%TO.C,D26*%
X130446500Y-131405750D02*
X130446500Y-132735750D01*
X130446500Y-132735750D02*
X131616500Y-132080750D01*
X131616500Y-131415750D02*
X131616500Y-132745750D01*
X131616500Y-132080750D02*
X130446500Y-131405750D01*
D13*
X134276500Y-131115750D02*
X135986500Y-131115750D01*
X134296500Y-133075750D02*
X135996500Y-133075750D01*
X135996500Y-131125750D02*
X135996500Y-133075750D01*
D10*
%TO.C,D14*%
X82509000Y-93084500D02*
X82509000Y-94414500D01*
X82509000Y-94414500D02*
X83679000Y-93759500D01*
X83679000Y-93094500D02*
X83679000Y-94424500D01*
X83679000Y-93759500D02*
X82509000Y-93084500D01*
D13*
X86339000Y-92794500D02*
X88049000Y-92794500D01*
X86359000Y-94754500D02*
X88059000Y-94754500D01*
X88059000Y-92804500D02*
X88059000Y-94754500D01*
D10*
%TO.C,D17*%
X93939000Y-74194500D02*
X93939000Y-75524500D01*
X93939000Y-75524500D02*
X95109000Y-74869500D01*
X95109000Y-74204500D02*
X95109000Y-75534500D01*
X95109000Y-74869500D02*
X93939000Y-74194500D01*
D13*
X97769000Y-73904500D02*
X99479000Y-73904500D01*
X97789000Y-75864500D02*
X99489000Y-75864500D01*
X99489000Y-73914500D02*
X99489000Y-75864500D01*
D10*
%TO.C,D32*%
X148829000Y-112134500D02*
X148829000Y-113464500D01*
X148829000Y-113464500D02*
X149999000Y-112809500D01*
X149999000Y-112144500D02*
X149999000Y-113474500D01*
X149999000Y-112809500D02*
X148829000Y-112134500D01*
D13*
X152659000Y-111844500D02*
X154369000Y-111844500D01*
X152679000Y-113804500D02*
X154379000Y-113804500D01*
X154379000Y-111854500D02*
X154379000Y-113804500D01*
D10*
%TO.C,D1*%
X29799000Y-54884500D02*
X29799000Y-56214500D01*
X29799000Y-56214500D02*
X30969000Y-55559500D01*
X30969000Y-54894500D02*
X30969000Y-56224500D01*
X30969000Y-55559500D02*
X29799000Y-54884500D01*
D13*
X33629000Y-54594500D02*
X35339000Y-54594500D01*
X33649000Y-56554500D02*
X35349000Y-56554500D01*
X35349000Y-54604500D02*
X35349000Y-56554500D01*
D10*
%TO.C,D8*%
X57989000Y-74104500D02*
X57989000Y-75434500D01*
X57989000Y-75434500D02*
X59159000Y-74779500D01*
X59159000Y-74114500D02*
X59159000Y-75444500D01*
X59159000Y-74779500D02*
X57989000Y-74104500D01*
D13*
X61819000Y-73814500D02*
X63529000Y-73814500D01*
X61839000Y-75774500D02*
X63539000Y-75774500D01*
X63539000Y-73824500D02*
X63539000Y-75774500D01*
%TO.C,D13*%
X77889000Y-132919500D02*
X77889000Y-130969500D01*
X79589000Y-130969500D02*
X77889000Y-130969500D01*
X79609000Y-132929500D02*
X77899000Y-132929500D01*
D10*
X82269000Y-131964500D02*
X83439000Y-132639500D01*
X82269000Y-132629500D02*
X82269000Y-131299500D01*
X83439000Y-131309500D02*
X82269000Y-131964500D01*
X83439000Y-132639500D02*
X83439000Y-131309500D01*
D13*
%TO.C,D7*%
X67545250Y-128409500D02*
X67545250Y-130109500D01*
D10*
X67885250Y-124559500D02*
X68540250Y-125729500D01*
X68540250Y-125729500D02*
X69215250Y-124559500D01*
X69205250Y-125729500D02*
X67875250Y-125729500D01*
X69215250Y-124559500D02*
X67885250Y-124559500D01*
D13*
X69495250Y-130109500D02*
X67545250Y-130109500D01*
X69505250Y-128389500D02*
X69505250Y-130099500D01*
D10*
%TO.C,D24*%
X120729000Y-93114500D02*
X120729000Y-94444500D01*
X120729000Y-94444500D02*
X121899000Y-93789500D01*
X121899000Y-93124500D02*
X121899000Y-94454500D01*
X121899000Y-93789500D02*
X120729000Y-93114500D01*
D13*
X124559000Y-92824500D02*
X126269000Y-92824500D01*
X124579000Y-94784500D02*
X126279000Y-94784500D01*
X126279000Y-92834500D02*
X126279000Y-94784500D01*
D10*
%TO.C,D4*%
X43006500Y-130385750D02*
X43006500Y-131715750D01*
X43006500Y-131715750D02*
X44176500Y-131060750D01*
X44176500Y-130395750D02*
X44176500Y-131725750D01*
X44176500Y-131060750D02*
X43006500Y-130385750D01*
D13*
X46836500Y-130095750D02*
X48546500Y-130095750D01*
X46856500Y-132055750D02*
X48556500Y-132055750D01*
X48556500Y-130105750D02*
X48556500Y-132055750D01*
D10*
%TO.C,D25*%
X121009000Y-55004500D02*
X121009000Y-56334500D01*
X121009000Y-56334500D02*
X122179000Y-55679500D01*
X122179000Y-55014500D02*
X122179000Y-56344500D01*
X122179000Y-55679500D02*
X121009000Y-55004500D01*
D13*
X124839000Y-54714500D02*
X126549000Y-54714500D01*
X124859000Y-56674500D02*
X126559000Y-56674500D01*
X126559000Y-54724500D02*
X126559000Y-56674500D01*
D10*
%TO.C,D29*%
X131819000Y-150624500D02*
X131819000Y-151954500D01*
X131819000Y-151954500D02*
X132989000Y-151299500D01*
X132989000Y-150634500D02*
X132989000Y-151964500D01*
X132989000Y-151299500D02*
X131819000Y-150624500D01*
D13*
X135649000Y-150334500D02*
X137359000Y-150334500D01*
X135669000Y-152294500D02*
X137369000Y-152294500D01*
X137369000Y-150344500D02*
X137369000Y-152294500D01*
D10*
%TO.C,D23*%
X115379000Y-73914500D02*
X115379000Y-75244500D01*
X115379000Y-75244500D02*
X116549000Y-74589500D01*
X116549000Y-73924500D02*
X116549000Y-75254500D01*
X116549000Y-74589500D02*
X115379000Y-73914500D01*
D13*
X119209000Y-73624500D02*
X120919000Y-73624500D01*
X119229000Y-75584500D02*
X120929000Y-75584500D01*
X120929000Y-73634500D02*
X120929000Y-75584500D01*
D10*
%TO.C,D5*%
X41976699Y-112252535D02*
X41976699Y-113582535D01*
X41976699Y-113582535D02*
X43146699Y-112927535D01*
X43146699Y-112262535D02*
X43146699Y-113592535D01*
X43146699Y-112927535D02*
X41976699Y-112252535D01*
D13*
X45806699Y-111962535D02*
X47516699Y-111962535D01*
X45826699Y-113922535D02*
X47526699Y-113922535D01*
X47526699Y-111972535D02*
X47526699Y-113922535D01*
D10*
%TO.C,D21*%
X95848000Y-131584500D02*
X95848000Y-132914500D01*
X95848000Y-132914500D02*
X97018000Y-132259500D01*
X97018000Y-131594500D02*
X97018000Y-132924500D01*
X97018000Y-132259500D02*
X95848000Y-131584500D01*
D13*
X99678000Y-131294500D02*
X101388000Y-131294500D01*
X99698000Y-133254500D02*
X101398000Y-133254500D01*
X101398000Y-131304500D02*
X101398000Y-133254500D01*
D10*
%TO.C,D20*%
X110986500Y-151235750D02*
X110986500Y-152565750D01*
X110986500Y-152565750D02*
X112156500Y-151910750D01*
X112156500Y-151245750D02*
X112156500Y-152575750D01*
X112156500Y-151910750D02*
X110986500Y-151235750D01*
D13*
X114816500Y-150945750D02*
X116526500Y-150945750D01*
X114836500Y-152905750D02*
X116536500Y-152905750D01*
X116536500Y-150955750D02*
X116536500Y-152905750D01*
D10*
%TO.C,D31*%
X133606500Y-54945750D02*
X133606500Y-56275750D01*
X133606500Y-56275750D02*
X134776500Y-55620750D01*
X134776500Y-54955750D02*
X134776500Y-56285750D01*
X134776500Y-55620750D02*
X133606500Y-54945750D01*
D13*
X137436500Y-54655750D02*
X139146500Y-54655750D01*
X137456500Y-56615750D02*
X139156500Y-56615750D01*
X139156500Y-54665750D02*
X139156500Y-56615750D01*
D10*
%TO.C,D19*%
X105469000Y-55024500D02*
X105469000Y-56354500D01*
X105469000Y-56354500D02*
X106639000Y-55699500D01*
X106639000Y-55034500D02*
X106639000Y-56364500D01*
X106639000Y-55699500D02*
X105469000Y-55024500D01*
D13*
X109299000Y-54734500D02*
X111009000Y-54734500D01*
X109319000Y-56694500D02*
X111019000Y-56694500D01*
X111019000Y-54744500D02*
X111019000Y-56694500D01*
D10*
%TO.C,D34*%
X167626500Y-112135750D02*
X167626500Y-113465750D01*
X167626500Y-113465750D02*
X168796500Y-112810750D01*
X168796500Y-112145750D02*
X168796500Y-113475750D01*
X168796500Y-112810750D02*
X167626500Y-112135750D01*
D13*
X171456500Y-111845750D02*
X173166500Y-111845750D01*
X171476500Y-113805750D02*
X173176500Y-113805750D01*
X173176500Y-111855750D02*
X173176500Y-113805750D01*
D10*
%TO.C,D10*%
X68149000Y-54984500D02*
X68149000Y-56314500D01*
X68149000Y-56314500D02*
X69319000Y-55659500D01*
X69319000Y-54994500D02*
X69319000Y-56324500D01*
X69319000Y-55659500D02*
X68149000Y-54984500D01*
D13*
X71979000Y-54694500D02*
X73689000Y-54694500D01*
X71999000Y-56654500D02*
X73699000Y-56654500D01*
X73699000Y-54704500D02*
X73699000Y-56654500D01*
%TD*%
%LPC*%
D14*
%TO.C,TP2*%
X69744000Y-36747000D03*
%TD*%
D15*
%TO.C,S34*%
X173829000Y-104157000D03*
D16*
X172559000Y-106697000D03*
D17*
X168749000Y-104157000D03*
D16*
X166209000Y-109237000D03*
D15*
X163669000Y-104157000D03*
%TD*%
D14*
%TO.C,TP4*%
X89495000Y-36788000D03*
%TD*%
D15*
%TO.C,S17*%
X102429000Y-66067000D03*
D16*
X101159000Y-68607000D03*
D17*
X97349000Y-66067000D03*
D16*
X94809000Y-71147000D03*
D15*
X92269000Y-66067000D03*
%TD*%
%TO.C,S8*%
X64349000Y-66067000D03*
D16*
X63079000Y-68607000D03*
D17*
X59269000Y-66067000D03*
D16*
X56729000Y-71147000D03*
D15*
X54189000Y-66067000D03*
%TD*%
%TO.C,S3*%
X42927750Y-85107000D03*
D16*
X41657750Y-87647000D03*
D17*
X37847750Y-85107000D03*
D16*
X35307750Y-90187000D03*
D15*
X32767750Y-85107000D03*
%TD*%
%TO.C,S11*%
X78629000Y-104157000D03*
D16*
X77359000Y-106697000D03*
D17*
X73549000Y-104157000D03*
D16*
X71009000Y-109237000D03*
D15*
X68469000Y-104157000D03*
%TD*%
%TO.C,S4*%
X38165250Y-123187000D03*
D16*
X36895250Y-125727000D03*
D17*
X33085250Y-123187000D03*
D16*
X30545250Y-128267000D03*
D15*
X28005250Y-123187000D03*
%TD*%
%TO.C,S13*%
X85765250Y-123187000D03*
D16*
X84495250Y-125727000D03*
D17*
X80685250Y-123187000D03*
D16*
X78145250Y-128267000D03*
D15*
X75605250Y-123187000D03*
%TD*%
%TO.C,S16*%
X97669000Y-104157000D03*
D16*
X96399000Y-106697000D03*
D17*
X92589000Y-104157000D03*
D16*
X90049000Y-109237000D03*
D15*
X87509000Y-104157000D03*
%TD*%
D18*
%TO.C,U1*%
X25004000Y-147242000D03*
D19*
X28034000Y-146942000D03*
X28034000Y-142092000D03*
D18*
X25004000Y-141792000D03*
D20*
X24874000Y-153407000D03*
D21*
X24874000Y-154307000D03*
D20*
X27414000Y-153407000D03*
D21*
X27414000Y-154307000D03*
D14*
X29954000Y-153407000D03*
D21*
X29954000Y-154307000D03*
D20*
X32494000Y-153407000D03*
D21*
X32494000Y-154307000D03*
D20*
X35034000Y-153407000D03*
D21*
X35034000Y-154307000D03*
D20*
X37574000Y-153407000D03*
D21*
X37574000Y-154307000D03*
D20*
X40114000Y-153407000D03*
D21*
X40114000Y-154307000D03*
D14*
X42654000Y-153407000D03*
D21*
X42654000Y-154307000D03*
D20*
X45194000Y-153407000D03*
D21*
X45194000Y-154307000D03*
D20*
X47734000Y-153407000D03*
D21*
X47734000Y-154307000D03*
D20*
X50274000Y-153407000D03*
D21*
X50274000Y-154307000D03*
D20*
X52814000Y-153407000D03*
D21*
X52814000Y-154307000D03*
D14*
X55354000Y-153407000D03*
D21*
X55354000Y-154307000D03*
D20*
X57894000Y-153407000D03*
D21*
X57894000Y-154307000D03*
D20*
X60434000Y-153407000D03*
D21*
X60434000Y-154307000D03*
D20*
X62974000Y-153407000D03*
D21*
X62974000Y-154307000D03*
D20*
X65514000Y-153407000D03*
D21*
X65514000Y-154307000D03*
D14*
X68054000Y-153407000D03*
D21*
X68054000Y-154307000D03*
D20*
X70594000Y-153407000D03*
D21*
X70594000Y-154307000D03*
D20*
X73134000Y-153407000D03*
D21*
X73134000Y-154307000D03*
D20*
X73134000Y-135627000D03*
D21*
X73134000Y-134727000D03*
D20*
X70594000Y-135627000D03*
D21*
X70594000Y-134727000D03*
D14*
X68054000Y-135627000D03*
D21*
X68054000Y-134727000D03*
D20*
X65514000Y-135627000D03*
D21*
X65514000Y-134727000D03*
D20*
X62974000Y-135627000D03*
D21*
X62974000Y-134727000D03*
D20*
X60434000Y-135627000D03*
D21*
X60434000Y-134727000D03*
D20*
X57894000Y-135627000D03*
D21*
X57894000Y-134727000D03*
D14*
X55354000Y-135627000D03*
D21*
X55354000Y-134727000D03*
D20*
X52814000Y-135627000D03*
D21*
X52814000Y-134727000D03*
D20*
X50274000Y-135627000D03*
D21*
X50274000Y-134727000D03*
D20*
X47734000Y-135627000D03*
D21*
X47734000Y-134727000D03*
D20*
X45194000Y-135627000D03*
D21*
X45194000Y-134727000D03*
D14*
X42654000Y-135627000D03*
D21*
X42654000Y-134727000D03*
D20*
X40114000Y-135627000D03*
D21*
X40114000Y-134727000D03*
D20*
X37574000Y-135627000D03*
D21*
X37574000Y-134727000D03*
D20*
X35034000Y-135627000D03*
D21*
X35034000Y-134727000D03*
D20*
X32494000Y-135627000D03*
D21*
X32494000Y-134727000D03*
D14*
X29954000Y-135627000D03*
D21*
X29954000Y-134727000D03*
D20*
X27414000Y-135627000D03*
D21*
X27414000Y-134727000D03*
D20*
X24874000Y-135627000D03*
D21*
X24874000Y-134727000D03*
D20*
X72904000Y-147057000D03*
D22*
X73804000Y-147057000D03*
D14*
X72904000Y-144517000D03*
D22*
X73804000Y-144517000D03*
D20*
X72904000Y-141977000D03*
D22*
X73804000Y-141977000D03*
%TD*%
D15*
%TO.C,S21*%
X109565250Y-123187000D03*
D16*
X108295250Y-125727000D03*
D17*
X104485250Y-123187000D03*
D16*
X101945250Y-128267000D03*
D15*
X99405250Y-123187000D03*
%TD*%
%TO.C,S22*%
X116709000Y-104157000D03*
D16*
X115439000Y-106697000D03*
D17*
X111629000Y-104157000D03*
D16*
X109089000Y-109237000D03*
D15*
X106549000Y-104157000D03*
%TD*%
%TO.C,S7*%
X61965250Y-123187000D03*
D16*
X60695250Y-125727000D03*
D17*
X56885250Y-123187000D03*
D16*
X54345250Y-128267000D03*
D15*
X51805250Y-123187000D03*
%TD*%
%TO.C,S5*%
X47690250Y-104157000D03*
D16*
X46420250Y-106697000D03*
D17*
X42610250Y-104157000D03*
D16*
X40070250Y-109237000D03*
D15*
X37530250Y-104157000D03*
%TD*%
%TO.C,S27*%
X135749000Y-104157000D03*
D16*
X134479000Y-106697000D03*
D17*
X130669000Y-104157000D03*
D16*
X128129000Y-109237000D03*
D15*
X125589000Y-104157000D03*
%TD*%
%TO.C,S28*%
X140509000Y-66067000D03*
D16*
X139239000Y-68607000D03*
D17*
X135429000Y-66067000D03*
D16*
X132889000Y-71147000D03*
D15*
X130349000Y-66067000D03*
%TD*%
D23*
%TO.C,U2*%
X118599000Y-24102000D03*
X118599000Y-31102000D03*
D24*
X116299000Y-33802000D03*
X120899000Y-32702000D03*
X120899000Y-28702000D03*
X120899000Y-25702000D03*
%TD*%
D25*
%TO.C,S29*%
X146199000Y-141202000D03*
D26*
X140699000Y-141202000D03*
D25*
X135199000Y-141202000D03*
D27*
X140699000Y-147102000D03*
X135699000Y-145002000D03*
%TD*%
D25*
%TO.C,S20*%
X121449000Y-141202000D03*
D26*
X115949000Y-141202000D03*
D25*
X110449000Y-141202000D03*
D27*
X115949000Y-147102000D03*
X110949000Y-145002000D03*
%TD*%
%TO.C,H3*%
X62621000Y-104157000D03*
%TD*%
D15*
%TO.C,S23*%
X121469000Y-66067000D03*
D16*
X120199000Y-68607000D03*
D17*
X116389000Y-66067000D03*
D16*
X113849000Y-71147000D03*
D15*
X111309000Y-66067000D03*
%TD*%
%TO.C,S32*%
X154789000Y-104157000D03*
D16*
X153519000Y-106697000D03*
D17*
X149709000Y-104157000D03*
D16*
X147169000Y-109237000D03*
D15*
X144629000Y-104157000D03*
%TD*%
%TO.C,S9*%
X69104000Y-85107000D03*
D16*
X67834000Y-87647000D03*
D17*
X64024000Y-85107000D03*
D16*
X61484000Y-90187000D03*
D15*
X58944000Y-85107000D03*
%TD*%
%TO.C,S2*%
X40546500Y-66057000D03*
D16*
X39276500Y-68597000D03*
D17*
X35466500Y-66057000D03*
D16*
X32926500Y-71137000D03*
D15*
X30386500Y-66057000D03*
%TD*%
D27*
%TO.C,H2*%
X125914000Y-65067000D03*
%TD*%
%TO.C,H1*%
X47367500Y-66057000D03*
%TD*%
D28*
%TO.C,D6*%
X53774000Y-55537000D03*
D29*
X51724000Y-55537000D03*
D30*
X47874000Y-55537000D03*
D31*
X45774000Y-55537000D03*
%TD*%
D15*
%TO.C,S19*%
X111944000Y-47017000D03*
D16*
X110674000Y-49557000D03*
D17*
X106864000Y-47017000D03*
D16*
X104324000Y-52097000D03*
D15*
X101784000Y-47017000D03*
%TD*%
%TO.C,S18*%
X107184000Y-85107000D03*
D16*
X105914000Y-87647000D03*
D17*
X102104000Y-85107000D03*
D16*
X99564000Y-90187000D03*
D15*
X97024000Y-85107000D03*
%TD*%
%TO.C,S12*%
X83389000Y-66067000D03*
D16*
X82119000Y-68607000D03*
D17*
X78309000Y-66067000D03*
D16*
X75769000Y-71147000D03*
D15*
X73229000Y-66067000D03*
%TD*%
%TO.C,S10*%
X73864000Y-47017000D03*
D16*
X72594000Y-49557000D03*
D17*
X68784000Y-47017000D03*
D16*
X66244000Y-52097000D03*
D15*
X63704000Y-47017000D03*
%TD*%
%TO.C,S15*%
X92904000Y-47017000D03*
D16*
X91634000Y-49557000D03*
D17*
X87824000Y-47017000D03*
D16*
X85284000Y-52097000D03*
D15*
X82744000Y-47017000D03*
%TD*%
%TO.C,S26*%
X138127750Y-123187000D03*
D16*
X136857750Y-125727000D03*
D17*
X133047750Y-123187000D03*
D16*
X130507750Y-128267000D03*
D15*
X127967750Y-123187000D03*
%TD*%
%TO.C,S25*%
X130984000Y-47017000D03*
D16*
X129714000Y-49557000D03*
D17*
X125904000Y-47017000D03*
D16*
X123364000Y-52097000D03*
D15*
X120824000Y-47017000D03*
%TD*%
%TO.C,S30*%
X145264000Y-85107000D03*
D16*
X143994000Y-87647000D03*
D17*
X140184000Y-85107000D03*
D16*
X137644000Y-90187000D03*
D15*
X135104000Y-85107000D03*
%TD*%
%TO.C,S1*%
X35784000Y-47017000D03*
D16*
X34514000Y-49557000D03*
D17*
X30704000Y-47017000D03*
D16*
X28164000Y-52097000D03*
D15*
X25624000Y-47017000D03*
%TD*%
%TO.C,S33*%
X164304000Y-123187000D03*
D16*
X163034000Y-125727000D03*
D17*
X159224000Y-123187000D03*
D16*
X156684000Y-128267000D03*
D15*
X154144000Y-123187000D03*
%TD*%
%TO.C,S14*%
X88144000Y-85107000D03*
D16*
X86874000Y-87647000D03*
D17*
X83064000Y-85107000D03*
D16*
X80524000Y-90187000D03*
D15*
X77984000Y-85107000D03*
%TD*%
D14*
%TO.C,TP1*%
X76674000Y-36767000D03*
%TD*%
%TO.C,TP3*%
X83845000Y-36788000D03*
%TD*%
D15*
%TO.C,S6*%
X54824000Y-47017000D03*
D16*
X53554000Y-49557000D03*
D17*
X49744000Y-47017000D03*
D16*
X47204000Y-52097000D03*
D15*
X44664000Y-47017000D03*
%TD*%
%TO.C,S24*%
X126224000Y-85107000D03*
D16*
X124954000Y-87647000D03*
D17*
X121144000Y-85107000D03*
D16*
X118604000Y-90187000D03*
D15*
X116064000Y-85107000D03*
%TD*%
D27*
%TO.C,H4*%
X146135750Y-123187000D03*
%TD*%
D15*
%TO.C,S35*%
X189185409Y-132165000D03*
D16*
X186815557Y-133729705D03*
D17*
X184786000Y-129625000D03*
D16*
X180046295Y-132754409D03*
D15*
X180386591Y-127085000D03*
%TD*%
%TO.C,S31*%
X150024000Y-47017000D03*
D16*
X148754000Y-49557000D03*
D17*
X144944000Y-47017000D03*
D16*
X142404000Y-52097000D03*
D15*
X139864000Y-47017000D03*
%TD*%
D28*
%TO.C,D36*%
X36111500Y-131418250D03*
D30*
X34011500Y-131418250D03*
X30211500Y-131418250D03*
D31*
X28111500Y-131418250D03*
%TD*%
D28*
%TO.C,D12*%
X82314000Y-74787000D03*
D30*
X80214000Y-74787000D03*
X76414000Y-74787000D03*
D31*
X74314000Y-74787000D03*
%TD*%
D28*
%TO.C,D33*%
X165914000Y-132657000D03*
D30*
X163814000Y-132657000D03*
X160014000Y-132657000D03*
D31*
X157914000Y-132657000D03*
%TD*%
D28*
%TO.C,D16*%
X95344000Y-112767000D03*
D30*
X93244000Y-112767000D03*
X89444000Y-112767000D03*
D31*
X87344000Y-112767000D03*
%TD*%
D28*
%TO.C,D15*%
X90651500Y-55768250D03*
D30*
X88551500Y-55768250D03*
X84751500Y-55768250D03*
D31*
X82651500Y-55768250D03*
%TD*%
D28*
%TO.C,D28*%
X139734000Y-74697000D03*
D30*
X137634000Y-74697000D03*
X133834000Y-74697000D03*
D31*
X131734000Y-74697000D03*
%TD*%
D28*
%TO.C,D9*%
X67904000Y-93697000D03*
D30*
X65804000Y-93697000D03*
X62004000Y-93697000D03*
D31*
X59904000Y-93697000D03*
%TD*%
D28*
%TO.C,D30*%
X144251500Y-93728250D03*
D30*
X142151500Y-93728250D03*
X138351500Y-93728250D03*
D31*
X136251500Y-93728250D03*
%TD*%
D28*
%TO.C,D3*%
X41644000Y-93727000D03*
D30*
X39544000Y-93727000D03*
X35744000Y-93727000D03*
D31*
X33644000Y-93727000D03*
%TD*%
D28*
%TO.C,D27*%
X134364000Y-112817000D03*
D30*
X132264000Y-112817000D03*
X128464000Y-112817000D03*
D31*
X126364000Y-112817000D03*
%TD*%
D28*
%TO.C,D11*%
X77244000Y-112847000D03*
D30*
X75144000Y-112847000D03*
X71344000Y-112847000D03*
D31*
X69244000Y-112847000D03*
%TD*%
D28*
%TO.C,D2*%
X39431500Y-74788250D03*
D30*
X37331500Y-74788250D03*
X33531500Y-74788250D03*
D31*
X31431500Y-74788250D03*
%TD*%
D32*
%TO.C,D35*%
X177733550Y-137957000D03*
D33*
X175914896Y-136907000D03*
X172624000Y-135007000D03*
D31*
X170805346Y-133957000D03*
%TD*%
D28*
%TO.C,D22*%
X115151500Y-112768250D03*
D30*
X113051500Y-112768250D03*
X109251500Y-112768250D03*
D31*
X107151500Y-112768250D03*
%TD*%
D28*
%TO.C,D18*%
X106114000Y-93677000D03*
D30*
X104014000Y-93677000D03*
X100214000Y-93677000D03*
D31*
X98114000Y-93677000D03*
%TD*%
D28*
%TO.C,D26*%
X135001500Y-132088250D03*
D30*
X132901500Y-132088250D03*
X129101500Y-132088250D03*
D31*
X127001500Y-132088250D03*
%TD*%
D28*
%TO.C,D14*%
X87064000Y-93767000D03*
D30*
X84964000Y-93767000D03*
X81164000Y-93767000D03*
D31*
X79064000Y-93767000D03*
%TD*%
D28*
%TO.C,D17*%
X98494000Y-74877000D03*
D30*
X96394000Y-74877000D03*
X92594000Y-74877000D03*
D31*
X90494000Y-74877000D03*
%TD*%
D28*
%TO.C,D32*%
X153384000Y-112817000D03*
D30*
X151284000Y-112817000D03*
X147484000Y-112817000D03*
D31*
X145384000Y-112817000D03*
%TD*%
D28*
%TO.C,D1*%
X34354000Y-55567000D03*
D30*
X32254000Y-55567000D03*
X28454000Y-55567000D03*
D31*
X26354000Y-55567000D03*
%TD*%
D28*
%TO.C,D8*%
X62544000Y-74787000D03*
D30*
X60444000Y-74787000D03*
X56644000Y-74787000D03*
D31*
X54544000Y-74787000D03*
%TD*%
D28*
%TO.C,D13*%
X78884000Y-131957000D03*
D34*
X80984000Y-131957000D03*
X84784000Y-131957000D03*
D31*
X86884000Y-131957000D03*
%TD*%
D28*
%TO.C,D7*%
X68532750Y-129114500D03*
D35*
X68532750Y-127014500D03*
X68532750Y-123214500D03*
D31*
X68532750Y-121114500D03*
%TD*%
D28*
%TO.C,D24*%
X125284000Y-93797000D03*
D30*
X123184000Y-93797000D03*
X119384000Y-93797000D03*
D31*
X117284000Y-93797000D03*
%TD*%
D28*
%TO.C,D4*%
X47561500Y-131068250D03*
D30*
X45461500Y-131068250D03*
X41661500Y-131068250D03*
D31*
X39561500Y-131068250D03*
%TD*%
D28*
%TO.C,D25*%
X125564000Y-55687000D03*
D30*
X123464000Y-55687000D03*
X119664000Y-55687000D03*
D31*
X117564000Y-55687000D03*
%TD*%
D28*
%TO.C,D29*%
X136374000Y-151307000D03*
D30*
X134274000Y-151307000D03*
X130474000Y-151307000D03*
D31*
X128374000Y-151307000D03*
%TD*%
D28*
%TO.C,D23*%
X119934000Y-74597000D03*
D30*
X117834000Y-74597000D03*
X114034000Y-74597000D03*
D31*
X111934000Y-74597000D03*
%TD*%
D28*
%TO.C,D5*%
X46531699Y-112935035D03*
D30*
X44431699Y-112935035D03*
X40631699Y-112935035D03*
D31*
X38531699Y-112935035D03*
%TD*%
D28*
%TO.C,D21*%
X100403000Y-132267000D03*
D30*
X98303000Y-132267000D03*
X94503000Y-132267000D03*
D31*
X92403000Y-132267000D03*
%TD*%
D28*
%TO.C,D20*%
X115541500Y-151918250D03*
D30*
X113441500Y-151918250D03*
X109641500Y-151918250D03*
D31*
X107541500Y-151918250D03*
%TD*%
D28*
%TO.C,D31*%
X138161500Y-55628250D03*
D30*
X136061500Y-55628250D03*
X132261500Y-55628250D03*
D31*
X130161500Y-55628250D03*
%TD*%
D28*
%TO.C,D19*%
X110024000Y-55707000D03*
D30*
X107924000Y-55707000D03*
X104124000Y-55707000D03*
D31*
X102024000Y-55707000D03*
%TD*%
D14*
%TO.C,TP5*%
X88254000Y-148517000D03*
%TD*%
D28*
%TO.C,D34*%
X172181500Y-112818250D03*
D30*
X170081500Y-112818250D03*
X166281500Y-112818250D03*
D31*
X164181500Y-112818250D03*
%TD*%
D28*
%TO.C,D10*%
X72704000Y-55667000D03*
D30*
X70604000Y-55667000D03*
X66804000Y-55667000D03*
D31*
X64704000Y-55667000D03*
%TD*%
%LPD*%
M02*
