%TF.GenerationSoftware,KiCad,Pcbnew,8.0.7*%
%TF.CreationDate,2025-06-02T16:21:18+02:00*%
%TF.ProjectId,pcb_keyboard_sx,7063625f-6b65-4796-926f-6172645f7378,rev?*%
%TF.SameCoordinates,Original*%
%TF.FileFunction,Legend,Bot*%
%TF.FilePolarity,Positive*%
%FSLAX46Y46*%
G04 Gerber Fmt 4.6, Leading zero omitted, Abs format (unit mm)*
G04 Created by KiCad (PCBNEW 8.0.7) date 2025-06-02 16:21:18*
%MOMM*%
%LPD*%
G01*
G04 APERTURE LIST*
G04 Aperture macros list*
%AMRoundRect*
0 Rectangle with rounded corners*
0 $1 Rounding radius*
0 $2 $3 $4 $5 $6 $7 $8 $9 X,Y pos of 4 corners*
0 Add a 4 corners polygon primitive as box body*
4,1,4,$2,$3,$4,$5,$6,$7,$8,$9,$2,$3,0*
0 Add four circle primitives for the rounded corners*
1,1,$1+$1,$2,$3*
1,1,$1+$1,$4,$5*
1,1,$1+$1,$6,$7*
1,1,$1+$1,$8,$9*
0 Add four rect primitives between the rounded corners*
20,1,$1+$1,$2,$3,$4,$5,0*
20,1,$1+$1,$4,$5,$6,$7,0*
20,1,$1+$1,$6,$7,$8,$9,0*
20,1,$1+$1,$8,$9,$2,$3,0*%
%AMRotRect*
0 Rectangle, with rotation*
0 The origin of the aperture is its center*
0 $1 length*
0 $2 width*
0 $3 Rotation angle, in degrees counterclockwise*
0 Add horizontal line*
21,1,$1,$2,0,0,$3*%
G04 Aperture macros list end*
%ADD10C,0.200000*%
%ADD11C,0.150000*%
%ADD12C,0.120000*%
%ADD13C,0.250000*%
%ADD14R,1.700000X1.700000*%
%ADD15C,1.750000*%
%ADD16C,3.050000*%
%ADD17C,4.000000*%
%ADD18RoundRect,0.250000X1.025000X1.000000X-1.025000X1.000000X-1.025000X-1.000000X1.025000X-1.000000X0*%
%ADD19O,1.800000X1.800000*%
%ADD20O,1.500000X1.500000*%
%ADD21O,1.700000X1.700000*%
%ADD22C,0.800000*%
%ADD23O,1.600000X2.000000*%
%ADD24C,1.900000*%
%ADD25C,3.450000*%
%ADD26C,2.200000*%
%ADD27R,1.400000X1.400000*%
%ADD28RoundRect,0.300000X0.400000X0.300000X-0.400000X0.300000X-0.400000X-0.300000X0.400000X-0.300000X0*%
%ADD29C,1.400000*%
%ADD30RoundRect,0.250000X1.387676X0.353525X-0.387676X1.378525X-1.387676X-0.353525X0.387676X-1.378525X0*%
%ADD31RoundRect,0.300000X0.450000X0.300000X-0.450000X0.300000X-0.450000X-0.300000X0.450000X-0.300000X0*%
%ADD32RoundRect,0.205000X0.495000X0.205000X-0.495000X0.205000X-0.495000X-0.205000X0.495000X-0.205000X0*%
%ADD33R,1.500000X1.000000*%
%ADD34RoundRect,0.205000X0.531183X-0.069965X-0.326183X0.425035X-0.531183X0.069965X0.326183X-0.425035X0*%
%ADD35R,1.000000X1.500000*%
%ADD36RoundRect,0.205000X-0.495000X-0.205000X0.495000X-0.205000X0.495000X0.205000X-0.495000X0.205000X0*%
%ADD37RotRect,1.400000X1.400000X150.000000*%
%ADD38RoundRect,0.300000X0.539711X0.034808X-0.239711X0.484808X-0.539711X-0.034808X0.239711X-0.484808X0*%
%ADD39RoundRect,0.300000X0.496410X0.059808X-0.196410X0.459808X-0.496410X-0.059808X0.196410X-0.459808X0*%
%ADD40RoundRect,0.250000X-1.450000X0.537500X-1.450000X-0.537500X1.450000X-0.537500X1.450000X0.537500X0*%
%ADD41RoundRect,0.300000X-0.450000X-0.300000X0.450000X-0.300000X0.450000X0.300000X-0.450000X0.300000X0*%
%ADD42RoundRect,0.300000X-0.400000X-0.300000X0.400000X-0.300000X0.400000X0.300000X-0.400000X0.300000X0*%
%ADD43RoundRect,0.300000X0.300000X-0.450000X0.300000X0.450000X-0.300000X0.450000X-0.300000X-0.450000X0*%
%ADD44RoundRect,0.300000X0.300000X-0.400000X0.300000X0.400000X-0.300000X0.400000X-0.300000X-0.400000X0*%
%ADD45RoundRect,0.250000X1.450000X-0.537500X1.450000X0.537500X-1.450000X0.537500X-1.450000X-0.537500X0*%
%ADD46R,1.700000X1.000000*%
G04 APERTURE END LIST*
D10*
X52211945Y-138656656D02*
X52069088Y-138704275D01*
X52069088Y-138704275D02*
X51830993Y-138704275D01*
X51830993Y-138704275D02*
X51735755Y-138656656D01*
X51735755Y-138656656D02*
X51688136Y-138609036D01*
X51688136Y-138609036D02*
X51640517Y-138513798D01*
X51640517Y-138513798D02*
X51640517Y-138418560D01*
X51640517Y-138418560D02*
X51688136Y-138323322D01*
X51688136Y-138323322D02*
X51735755Y-138275703D01*
X51735755Y-138275703D02*
X51830993Y-138228084D01*
X51830993Y-138228084D02*
X52021469Y-138180465D01*
X52021469Y-138180465D02*
X52116707Y-138132846D01*
X52116707Y-138132846D02*
X52164326Y-138085227D01*
X52164326Y-138085227D02*
X52211945Y-137989989D01*
X52211945Y-137989989D02*
X52211945Y-137894751D01*
X52211945Y-137894751D02*
X52164326Y-137799513D01*
X52164326Y-137799513D02*
X52116707Y-137751894D01*
X52116707Y-137751894D02*
X52021469Y-137704275D01*
X52021469Y-137704275D02*
X51783374Y-137704275D01*
X51783374Y-137704275D02*
X51640517Y-137751894D01*
X50783374Y-138656656D02*
X50878612Y-138704275D01*
X50878612Y-138704275D02*
X51069088Y-138704275D01*
X51069088Y-138704275D02*
X51164326Y-138656656D01*
X51164326Y-138656656D02*
X51211945Y-138609036D01*
X51211945Y-138609036D02*
X51259564Y-138513798D01*
X51259564Y-138513798D02*
X51259564Y-138228084D01*
X51259564Y-138228084D02*
X51211945Y-138132846D01*
X51211945Y-138132846D02*
X51164326Y-138085227D01*
X51164326Y-138085227D02*
X51069088Y-138037608D01*
X51069088Y-138037608D02*
X50878612Y-138037608D01*
X50878612Y-138037608D02*
X50783374Y-138085227D01*
X50354802Y-138704275D02*
X50354802Y-137704275D01*
X49926231Y-138704275D02*
X49926231Y-138180465D01*
X49926231Y-138180465D02*
X49973850Y-138085227D01*
X49973850Y-138085227D02*
X50069088Y-138037608D01*
X50069088Y-138037608D02*
X50211945Y-138037608D01*
X50211945Y-138037608D02*
X50307183Y-138085227D01*
X50307183Y-138085227D02*
X50354802Y-138132846D01*
X49307183Y-138704275D02*
X49402421Y-138656656D01*
X49402421Y-138656656D02*
X49450040Y-138609036D01*
X49450040Y-138609036D02*
X49497659Y-138513798D01*
X49497659Y-138513798D02*
X49497659Y-138228084D01*
X49497659Y-138228084D02*
X49450040Y-138132846D01*
X49450040Y-138132846D02*
X49402421Y-138085227D01*
X49402421Y-138085227D02*
X49307183Y-138037608D01*
X49307183Y-138037608D02*
X49164326Y-138037608D01*
X49164326Y-138037608D02*
X49069088Y-138085227D01*
X49069088Y-138085227D02*
X49021469Y-138132846D01*
X49021469Y-138132846D02*
X48973850Y-138228084D01*
X48973850Y-138228084D02*
X48973850Y-138513798D01*
X48973850Y-138513798D02*
X49021469Y-138609036D01*
X49021469Y-138609036D02*
X49069088Y-138656656D01*
X49069088Y-138656656D02*
X49164326Y-138704275D01*
X49164326Y-138704275D02*
X49307183Y-138704275D01*
X48688135Y-138037608D02*
X48307183Y-138037608D01*
X48545278Y-137704275D02*
X48545278Y-138561417D01*
X48545278Y-138561417D02*
X48497659Y-138656656D01*
X48497659Y-138656656D02*
X48402421Y-138704275D01*
X48402421Y-138704275D02*
X48307183Y-138704275D01*
X48116706Y-138037608D02*
X47735754Y-138037608D01*
X47973849Y-137704275D02*
X47973849Y-138561417D01*
X47973849Y-138561417D02*
X47926230Y-138656656D01*
X47926230Y-138656656D02*
X47830992Y-138704275D01*
X47830992Y-138704275D02*
X47735754Y-138704275D01*
X47402420Y-138704275D02*
X47402420Y-137704275D01*
X47307182Y-138323322D02*
X47021468Y-138704275D01*
X47021468Y-138037608D02*
X47402420Y-138418560D01*
X46688134Y-138037608D02*
X46450039Y-138704275D01*
X46211944Y-138037608D02*
X46450039Y-138704275D01*
X46450039Y-138704275D02*
X46545277Y-138942370D01*
X46545277Y-138942370D02*
X46592896Y-138989989D01*
X46592896Y-138989989D02*
X46688134Y-139037608D01*
X44545277Y-138704275D02*
X45116705Y-138704275D01*
X44830991Y-138704275D02*
X44830991Y-137704275D01*
X44830991Y-137704275D02*
X44926229Y-137847132D01*
X44926229Y-137847132D02*
X45021467Y-137942370D01*
X45021467Y-137942370D02*
X45116705Y-137989989D01*
X44116705Y-138704275D02*
X44116705Y-137704275D01*
X44116705Y-137704275D02*
X43545277Y-138704275D01*
X43545277Y-138704275D02*
X43545277Y-137704275D01*
X42592896Y-137704275D02*
X43069086Y-137704275D01*
X43069086Y-137704275D02*
X43116705Y-138180465D01*
X43116705Y-138180465D02*
X43069086Y-138132846D01*
X43069086Y-138132846D02*
X42973848Y-138085227D01*
X42973848Y-138085227D02*
X42735753Y-138085227D01*
X42735753Y-138085227D02*
X42640515Y-138132846D01*
X42640515Y-138132846D02*
X42592896Y-138180465D01*
X42592896Y-138180465D02*
X42545277Y-138275703D01*
X42545277Y-138275703D02*
X42545277Y-138513798D01*
X42545277Y-138513798D02*
X42592896Y-138609036D01*
X42592896Y-138609036D02*
X42640515Y-138656656D01*
X42640515Y-138656656D02*
X42735753Y-138704275D01*
X42735753Y-138704275D02*
X42973848Y-138704275D01*
X42973848Y-138704275D02*
X43069086Y-138656656D01*
X43069086Y-138656656D02*
X43116705Y-138609036D01*
X41973848Y-138132846D02*
X42069086Y-138085227D01*
X42069086Y-138085227D02*
X42116705Y-138037608D01*
X42116705Y-138037608D02*
X42164324Y-137942370D01*
X42164324Y-137942370D02*
X42164324Y-137894751D01*
X42164324Y-137894751D02*
X42116705Y-137799513D01*
X42116705Y-137799513D02*
X42069086Y-137751894D01*
X42069086Y-137751894D02*
X41973848Y-137704275D01*
X41973848Y-137704275D02*
X41783372Y-137704275D01*
X41783372Y-137704275D02*
X41688134Y-137751894D01*
X41688134Y-137751894D02*
X41640515Y-137799513D01*
X41640515Y-137799513D02*
X41592896Y-137894751D01*
X41592896Y-137894751D02*
X41592896Y-137942370D01*
X41592896Y-137942370D02*
X41640515Y-138037608D01*
X41640515Y-138037608D02*
X41688134Y-138085227D01*
X41688134Y-138085227D02*
X41783372Y-138132846D01*
X41783372Y-138132846D02*
X41973848Y-138132846D01*
X41973848Y-138132846D02*
X42069086Y-138180465D01*
X42069086Y-138180465D02*
X42116705Y-138228084D01*
X42116705Y-138228084D02*
X42164324Y-138323322D01*
X42164324Y-138323322D02*
X42164324Y-138513798D01*
X42164324Y-138513798D02*
X42116705Y-138609036D01*
X42116705Y-138609036D02*
X42069086Y-138656656D01*
X42069086Y-138656656D02*
X41973848Y-138704275D01*
X41973848Y-138704275D02*
X41783372Y-138704275D01*
X41783372Y-138704275D02*
X41688134Y-138656656D01*
X41688134Y-138656656D02*
X41640515Y-138609036D01*
X41640515Y-138609036D02*
X41592896Y-138513798D01*
X41592896Y-138513798D02*
X41592896Y-138323322D01*
X41592896Y-138323322D02*
X41640515Y-138228084D01*
X41640515Y-138228084D02*
X41688134Y-138180465D01*
X41688134Y-138180465D02*
X41783372Y-138132846D01*
X40640515Y-138704275D02*
X41211943Y-138704275D01*
X40926229Y-138704275D02*
X40926229Y-137704275D01*
X40926229Y-137704275D02*
X41021467Y-137847132D01*
X41021467Y-137847132D02*
X41116705Y-137942370D01*
X41116705Y-137942370D02*
X41211943Y-137989989D01*
X40307181Y-137704275D02*
X39640515Y-137704275D01*
X39640515Y-137704275D02*
X40069086Y-138704275D01*
X51878612Y-140695171D02*
X51926231Y-140647552D01*
X51926231Y-140647552D02*
X52021469Y-140504695D01*
X52021469Y-140504695D02*
X52069088Y-140409457D01*
X52069088Y-140409457D02*
X52116707Y-140266600D01*
X52116707Y-140266600D02*
X52164326Y-140028504D01*
X52164326Y-140028504D02*
X52164326Y-139838028D01*
X52164326Y-139838028D02*
X52116707Y-139599933D01*
X52116707Y-139599933D02*
X52069088Y-139457076D01*
X52069088Y-139457076D02*
X52021469Y-139361838D01*
X52021469Y-139361838D02*
X51926231Y-139218980D01*
X51926231Y-139218980D02*
X51878612Y-139171361D01*
X51354802Y-140314219D02*
X51450040Y-140266600D01*
X51450040Y-140266600D02*
X51497659Y-140218980D01*
X51497659Y-140218980D02*
X51545278Y-140123742D01*
X51545278Y-140123742D02*
X51545278Y-139838028D01*
X51545278Y-139838028D02*
X51497659Y-139742790D01*
X51497659Y-139742790D02*
X51450040Y-139695171D01*
X51450040Y-139695171D02*
X51354802Y-139647552D01*
X51354802Y-139647552D02*
X51211945Y-139647552D01*
X51211945Y-139647552D02*
X51116707Y-139695171D01*
X51116707Y-139695171D02*
X51069088Y-139742790D01*
X51069088Y-139742790D02*
X51021469Y-139838028D01*
X51021469Y-139838028D02*
X51021469Y-140123742D01*
X51021469Y-140123742D02*
X51069088Y-140218980D01*
X51069088Y-140218980D02*
X51116707Y-140266600D01*
X51116707Y-140266600D02*
X51211945Y-140314219D01*
X51211945Y-140314219D02*
X51354802Y-140314219D01*
X50592897Y-139647552D02*
X50592897Y-140647552D01*
X50592897Y-139695171D02*
X50497659Y-139647552D01*
X50497659Y-139647552D02*
X50307183Y-139647552D01*
X50307183Y-139647552D02*
X50211945Y-139695171D01*
X50211945Y-139695171D02*
X50164326Y-139742790D01*
X50164326Y-139742790D02*
X50116707Y-139838028D01*
X50116707Y-139838028D02*
X50116707Y-140123742D01*
X50116707Y-140123742D02*
X50164326Y-140218980D01*
X50164326Y-140218980D02*
X50211945Y-140266600D01*
X50211945Y-140266600D02*
X50307183Y-140314219D01*
X50307183Y-140314219D02*
X50497659Y-140314219D01*
X50497659Y-140314219D02*
X50592897Y-140266600D01*
X49830992Y-139647552D02*
X49450040Y-139647552D01*
X49688135Y-139314219D02*
X49688135Y-140171361D01*
X49688135Y-140171361D02*
X49640516Y-140266600D01*
X49640516Y-140266600D02*
X49545278Y-140314219D01*
X49545278Y-140314219D02*
X49450040Y-140314219D01*
X49116706Y-140314219D02*
X49116706Y-139647552D01*
X49116706Y-139314219D02*
X49164325Y-139361838D01*
X49164325Y-139361838D02*
X49116706Y-139409457D01*
X49116706Y-139409457D02*
X49069087Y-139361838D01*
X49069087Y-139361838D02*
X49116706Y-139314219D01*
X49116706Y-139314219D02*
X49116706Y-139409457D01*
X48497659Y-140314219D02*
X48592897Y-140266600D01*
X48592897Y-140266600D02*
X48640516Y-140218980D01*
X48640516Y-140218980D02*
X48688135Y-140123742D01*
X48688135Y-140123742D02*
X48688135Y-139838028D01*
X48688135Y-139838028D02*
X48640516Y-139742790D01*
X48640516Y-139742790D02*
X48592897Y-139695171D01*
X48592897Y-139695171D02*
X48497659Y-139647552D01*
X48497659Y-139647552D02*
X48354802Y-139647552D01*
X48354802Y-139647552D02*
X48259564Y-139695171D01*
X48259564Y-139695171D02*
X48211945Y-139742790D01*
X48211945Y-139742790D02*
X48164326Y-139838028D01*
X48164326Y-139838028D02*
X48164326Y-140123742D01*
X48164326Y-140123742D02*
X48211945Y-140218980D01*
X48211945Y-140218980D02*
X48259564Y-140266600D01*
X48259564Y-140266600D02*
X48354802Y-140314219D01*
X48354802Y-140314219D02*
X48497659Y-140314219D01*
X47735754Y-139647552D02*
X47735754Y-140314219D01*
X47735754Y-139742790D02*
X47688135Y-139695171D01*
X47688135Y-139695171D02*
X47592897Y-139647552D01*
X47592897Y-139647552D02*
X47450040Y-139647552D01*
X47450040Y-139647552D02*
X47354802Y-139695171D01*
X47354802Y-139695171D02*
X47307183Y-139790409D01*
X47307183Y-139790409D02*
X47307183Y-140314219D01*
X46402421Y-140314219D02*
X46402421Y-139790409D01*
X46402421Y-139790409D02*
X46450040Y-139695171D01*
X46450040Y-139695171D02*
X46545278Y-139647552D01*
X46545278Y-139647552D02*
X46735754Y-139647552D01*
X46735754Y-139647552D02*
X46830992Y-139695171D01*
X46402421Y-140266600D02*
X46497659Y-140314219D01*
X46497659Y-140314219D02*
X46735754Y-140314219D01*
X46735754Y-140314219D02*
X46830992Y-140266600D01*
X46830992Y-140266600D02*
X46878611Y-140171361D01*
X46878611Y-140171361D02*
X46878611Y-140076123D01*
X46878611Y-140076123D02*
X46830992Y-139980885D01*
X46830992Y-139980885D02*
X46735754Y-139933266D01*
X46735754Y-139933266D02*
X46497659Y-139933266D01*
X46497659Y-139933266D02*
X46402421Y-139885647D01*
X45783373Y-140314219D02*
X45878611Y-140266600D01*
X45878611Y-140266600D02*
X45926230Y-140171361D01*
X45926230Y-140171361D02*
X45926230Y-139314219D01*
X45497658Y-140695171D02*
X45450039Y-140647552D01*
X45450039Y-140647552D02*
X45354801Y-140504695D01*
X45354801Y-140504695D02*
X45307182Y-140409457D01*
X45307182Y-140409457D02*
X45259563Y-140266600D01*
X45259563Y-140266600D02*
X45211944Y-140028504D01*
X45211944Y-140028504D02*
X45211944Y-139838028D01*
X45211944Y-139838028D02*
X45259563Y-139599933D01*
X45259563Y-139599933D02*
X45307182Y-139457076D01*
X45307182Y-139457076D02*
X45354801Y-139361838D01*
X45354801Y-139361838D02*
X45450039Y-139218980D01*
X45450039Y-139218980D02*
X45497658Y-139171361D01*
X35897183Y-43904219D02*
X35563850Y-44904219D01*
X35563850Y-44904219D02*
X35230517Y-43904219D01*
X34944802Y-44856600D02*
X34801945Y-44904219D01*
X34801945Y-44904219D02*
X34563850Y-44904219D01*
X34563850Y-44904219D02*
X34468612Y-44856600D01*
X34468612Y-44856600D02*
X34420993Y-44808980D01*
X34420993Y-44808980D02*
X34373374Y-44713742D01*
X34373374Y-44713742D02*
X34373374Y-44618504D01*
X34373374Y-44618504D02*
X34420993Y-44523266D01*
X34420993Y-44523266D02*
X34468612Y-44475647D01*
X34468612Y-44475647D02*
X34563850Y-44428028D01*
X34563850Y-44428028D02*
X34754326Y-44380409D01*
X34754326Y-44380409D02*
X34849564Y-44332790D01*
X34849564Y-44332790D02*
X34897183Y-44285171D01*
X34897183Y-44285171D02*
X34944802Y-44189933D01*
X34944802Y-44189933D02*
X34944802Y-44094695D01*
X34944802Y-44094695D02*
X34897183Y-43999457D01*
X34897183Y-43999457D02*
X34849564Y-43951838D01*
X34849564Y-43951838D02*
X34754326Y-43904219D01*
X34754326Y-43904219D02*
X34516231Y-43904219D01*
X34516231Y-43904219D02*
X34373374Y-43951838D01*
X33992421Y-44856600D02*
X33849564Y-44904219D01*
X33849564Y-44904219D02*
X33611469Y-44904219D01*
X33611469Y-44904219D02*
X33516231Y-44856600D01*
X33516231Y-44856600D02*
X33468612Y-44808980D01*
X33468612Y-44808980D02*
X33420993Y-44713742D01*
X33420993Y-44713742D02*
X33420993Y-44618504D01*
X33420993Y-44618504D02*
X33468612Y-44523266D01*
X33468612Y-44523266D02*
X33516231Y-44475647D01*
X33516231Y-44475647D02*
X33611469Y-44428028D01*
X33611469Y-44428028D02*
X33801945Y-44380409D01*
X33801945Y-44380409D02*
X33897183Y-44332790D01*
X33897183Y-44332790D02*
X33944802Y-44285171D01*
X33944802Y-44285171D02*
X33992421Y-44189933D01*
X33992421Y-44189933D02*
X33992421Y-44094695D01*
X33992421Y-44094695D02*
X33944802Y-43999457D01*
X33944802Y-43999457D02*
X33897183Y-43951838D01*
X33897183Y-43951838D02*
X33801945Y-43904219D01*
X33801945Y-43904219D02*
X33563850Y-43904219D01*
X33563850Y-43904219D02*
X33420993Y-43951838D01*
X85824326Y-148984219D02*
X85824326Y-147984219D01*
X85395755Y-148984219D02*
X85395755Y-148460409D01*
X85395755Y-148460409D02*
X85443374Y-148365171D01*
X85443374Y-148365171D02*
X85538612Y-148317552D01*
X85538612Y-148317552D02*
X85681469Y-148317552D01*
X85681469Y-148317552D02*
X85776707Y-148365171D01*
X85776707Y-148365171D02*
X85824326Y-148412790D01*
X84919564Y-148984219D02*
X84919564Y-148317552D01*
X84919564Y-147984219D02*
X84967183Y-148031838D01*
X84967183Y-148031838D02*
X84919564Y-148079457D01*
X84919564Y-148079457D02*
X84871945Y-148031838D01*
X84871945Y-148031838D02*
X84919564Y-147984219D01*
X84919564Y-147984219D02*
X84919564Y-148079457D01*
X84014803Y-148317552D02*
X84014803Y-149127076D01*
X84014803Y-149127076D02*
X84062422Y-149222314D01*
X84062422Y-149222314D02*
X84110041Y-149269933D01*
X84110041Y-149269933D02*
X84205279Y-149317552D01*
X84205279Y-149317552D02*
X84348136Y-149317552D01*
X84348136Y-149317552D02*
X84443374Y-149269933D01*
X84014803Y-148936600D02*
X84110041Y-148984219D01*
X84110041Y-148984219D02*
X84300517Y-148984219D01*
X84300517Y-148984219D02*
X84395755Y-148936600D01*
X84395755Y-148936600D02*
X84443374Y-148888980D01*
X84443374Y-148888980D02*
X84490993Y-148793742D01*
X84490993Y-148793742D02*
X84490993Y-148508028D01*
X84490993Y-148508028D02*
X84443374Y-148412790D01*
X84443374Y-148412790D02*
X84395755Y-148365171D01*
X84395755Y-148365171D02*
X84300517Y-148317552D01*
X84300517Y-148317552D02*
X84110041Y-148317552D01*
X84110041Y-148317552D02*
X84014803Y-148365171D01*
X83538612Y-148984219D02*
X83538612Y-147984219D01*
X83110041Y-148984219D02*
X83110041Y-148460409D01*
X83110041Y-148460409D02*
X83157660Y-148365171D01*
X83157660Y-148365171D02*
X83252898Y-148317552D01*
X83252898Y-148317552D02*
X83395755Y-148317552D01*
X83395755Y-148317552D02*
X83490993Y-148365171D01*
X83490993Y-148365171D02*
X83538612Y-148412790D01*
X82776707Y-148317552D02*
X82395755Y-148317552D01*
X82633850Y-147984219D02*
X82633850Y-148841361D01*
X82633850Y-148841361D02*
X82586231Y-148936600D01*
X82586231Y-148936600D02*
X82490993Y-148984219D01*
X82490993Y-148984219D02*
X82395755Y-148984219D01*
X77279517Y-33910838D02*
X77374755Y-33863219D01*
X77374755Y-33863219D02*
X77517612Y-33863219D01*
X77517612Y-33863219D02*
X77660469Y-33910838D01*
X77660469Y-33910838D02*
X77755707Y-34006076D01*
X77755707Y-34006076D02*
X77803326Y-34101314D01*
X77803326Y-34101314D02*
X77850945Y-34291790D01*
X77850945Y-34291790D02*
X77850945Y-34434647D01*
X77850945Y-34434647D02*
X77803326Y-34625123D01*
X77803326Y-34625123D02*
X77755707Y-34720361D01*
X77755707Y-34720361D02*
X77660469Y-34815600D01*
X77660469Y-34815600D02*
X77517612Y-34863219D01*
X77517612Y-34863219D02*
X77422374Y-34863219D01*
X77422374Y-34863219D02*
X77279517Y-34815600D01*
X77279517Y-34815600D02*
X77231898Y-34767980D01*
X77231898Y-34767980D02*
X77231898Y-34434647D01*
X77231898Y-34434647D02*
X77422374Y-34434647D01*
X76803326Y-34863219D02*
X76803326Y-33863219D01*
X76803326Y-33863219D02*
X76231898Y-34863219D01*
X76231898Y-34863219D02*
X76231898Y-33863219D01*
X75755707Y-34863219D02*
X75755707Y-33863219D01*
X75755707Y-33863219D02*
X75517612Y-33863219D01*
X75517612Y-33863219D02*
X75374755Y-33910838D01*
X75374755Y-33910838D02*
X75279517Y-34006076D01*
X75279517Y-34006076D02*
X75231898Y-34101314D01*
X75231898Y-34101314D02*
X75184279Y-34291790D01*
X75184279Y-34291790D02*
X75184279Y-34434647D01*
X75184279Y-34434647D02*
X75231898Y-34625123D01*
X75231898Y-34625123D02*
X75279517Y-34720361D01*
X75279517Y-34720361D02*
X75374755Y-34815600D01*
X75374755Y-34815600D02*
X75517612Y-34863219D01*
X75517612Y-34863219D02*
X75755707Y-34863219D01*
X116827183Y-35934219D02*
X116493850Y-36934219D01*
X116493850Y-36934219D02*
X116160517Y-35934219D01*
X115255755Y-36838980D02*
X115303374Y-36886600D01*
X115303374Y-36886600D02*
X115446231Y-36934219D01*
X115446231Y-36934219D02*
X115541469Y-36934219D01*
X115541469Y-36934219D02*
X115684326Y-36886600D01*
X115684326Y-36886600D02*
X115779564Y-36791361D01*
X115779564Y-36791361D02*
X115827183Y-36696123D01*
X115827183Y-36696123D02*
X115874802Y-36505647D01*
X115874802Y-36505647D02*
X115874802Y-36362790D01*
X115874802Y-36362790D02*
X115827183Y-36172314D01*
X115827183Y-36172314D02*
X115779564Y-36077076D01*
X115779564Y-36077076D02*
X115684326Y-35981838D01*
X115684326Y-35981838D02*
X115541469Y-35934219D01*
X115541469Y-35934219D02*
X115446231Y-35934219D01*
X115446231Y-35934219D02*
X115303374Y-35981838D01*
X115303374Y-35981838D02*
X115255755Y-36029457D01*
X114255755Y-36838980D02*
X114303374Y-36886600D01*
X114303374Y-36886600D02*
X114446231Y-36934219D01*
X114446231Y-36934219D02*
X114541469Y-36934219D01*
X114541469Y-36934219D02*
X114684326Y-36886600D01*
X114684326Y-36886600D02*
X114779564Y-36791361D01*
X114779564Y-36791361D02*
X114827183Y-36696123D01*
X114827183Y-36696123D02*
X114874802Y-36505647D01*
X114874802Y-36505647D02*
X114874802Y-36362790D01*
X114874802Y-36362790D02*
X114827183Y-36172314D01*
X114827183Y-36172314D02*
X114779564Y-36077076D01*
X114779564Y-36077076D02*
X114684326Y-35981838D01*
X114684326Y-35981838D02*
X114541469Y-35934219D01*
X114541469Y-35934219D02*
X114446231Y-35934219D01*
X114446231Y-35934219D02*
X114303374Y-35981838D01*
X114303374Y-35981838D02*
X114255755Y-36029457D01*
X89527183Y-151384219D02*
X88955755Y-151384219D01*
X89241469Y-152384219D02*
X89241469Y-151384219D01*
X88622421Y-152384219D02*
X88622421Y-151384219D01*
X88622421Y-151384219D02*
X88241469Y-151384219D01*
X88241469Y-151384219D02*
X88146231Y-151431838D01*
X88146231Y-151431838D02*
X88098612Y-151479457D01*
X88098612Y-151479457D02*
X88050993Y-151574695D01*
X88050993Y-151574695D02*
X88050993Y-151717552D01*
X88050993Y-151717552D02*
X88098612Y-151812790D01*
X88098612Y-151812790D02*
X88146231Y-151860409D01*
X88146231Y-151860409D02*
X88241469Y-151908028D01*
X88241469Y-151908028D02*
X88622421Y-151908028D01*
X87193850Y-151384219D02*
X87384326Y-151384219D01*
X87384326Y-151384219D02*
X87479564Y-151431838D01*
X87479564Y-151431838D02*
X87527183Y-151479457D01*
X87527183Y-151479457D02*
X87622421Y-151622314D01*
X87622421Y-151622314D02*
X87670040Y-151812790D01*
X87670040Y-151812790D02*
X87670040Y-152193742D01*
X87670040Y-152193742D02*
X87622421Y-152288980D01*
X87622421Y-152288980D02*
X87574802Y-152336600D01*
X87574802Y-152336600D02*
X87479564Y-152384219D01*
X87479564Y-152384219D02*
X87289088Y-152384219D01*
X87289088Y-152384219D02*
X87193850Y-152336600D01*
X87193850Y-152336600D02*
X87146231Y-152288980D01*
X87146231Y-152288980D02*
X87098612Y-152193742D01*
X87098612Y-152193742D02*
X87098612Y-151955647D01*
X87098612Y-151955647D02*
X87146231Y-151860409D01*
X87146231Y-151860409D02*
X87193850Y-151812790D01*
X87193850Y-151812790D02*
X87289088Y-151765171D01*
X87289088Y-151765171D02*
X87479564Y-151765171D01*
X87479564Y-151765171D02*
X87574802Y-151812790D01*
X87574802Y-151812790D02*
X87622421Y-151860409D01*
X87622421Y-151860409D02*
X87670040Y-151955647D01*
X118917183Y-25144219D02*
X118345755Y-25144219D01*
X118631469Y-26144219D02*
X118631469Y-25144219D01*
X118107659Y-25144219D02*
X117440993Y-26144219D01*
X117440993Y-25144219D02*
X118107659Y-26144219D01*
X79511469Y-148964219D02*
X79606707Y-148916600D01*
X79606707Y-148916600D02*
X79654326Y-148821361D01*
X79654326Y-148821361D02*
X79654326Y-147964219D01*
X78987659Y-148964219D02*
X79082897Y-148916600D01*
X79082897Y-148916600D02*
X79130516Y-148868980D01*
X79130516Y-148868980D02*
X79178135Y-148773742D01*
X79178135Y-148773742D02*
X79178135Y-148488028D01*
X79178135Y-148488028D02*
X79130516Y-148392790D01*
X79130516Y-148392790D02*
X79082897Y-148345171D01*
X79082897Y-148345171D02*
X78987659Y-148297552D01*
X78987659Y-148297552D02*
X78844802Y-148297552D01*
X78844802Y-148297552D02*
X78749564Y-148345171D01*
X78749564Y-148345171D02*
X78701945Y-148392790D01*
X78701945Y-148392790D02*
X78654326Y-148488028D01*
X78654326Y-148488028D02*
X78654326Y-148773742D01*
X78654326Y-148773742D02*
X78701945Y-148868980D01*
X78701945Y-148868980D02*
X78749564Y-148916600D01*
X78749564Y-148916600D02*
X78844802Y-148964219D01*
X78844802Y-148964219D02*
X78987659Y-148964219D01*
X78320992Y-148297552D02*
X78130516Y-148964219D01*
X78130516Y-148964219D02*
X77940040Y-148488028D01*
X77940040Y-148488028D02*
X77749564Y-148964219D01*
X77749564Y-148964219D02*
X77559088Y-148297552D01*
X113251945Y-27736656D02*
X113109088Y-27784275D01*
X113109088Y-27784275D02*
X112870993Y-27784275D01*
X112870993Y-27784275D02*
X112775755Y-27736656D01*
X112775755Y-27736656D02*
X112728136Y-27689036D01*
X112728136Y-27689036D02*
X112680517Y-27593798D01*
X112680517Y-27593798D02*
X112680517Y-27498560D01*
X112680517Y-27498560D02*
X112728136Y-27403322D01*
X112728136Y-27403322D02*
X112775755Y-27355703D01*
X112775755Y-27355703D02*
X112870993Y-27308084D01*
X112870993Y-27308084D02*
X113061469Y-27260465D01*
X113061469Y-27260465D02*
X113156707Y-27212846D01*
X113156707Y-27212846D02*
X113204326Y-27165227D01*
X113204326Y-27165227D02*
X113251945Y-27069989D01*
X113251945Y-27069989D02*
X113251945Y-26974751D01*
X113251945Y-26974751D02*
X113204326Y-26879513D01*
X113204326Y-26879513D02*
X113156707Y-26831894D01*
X113156707Y-26831894D02*
X113061469Y-26784275D01*
X113061469Y-26784275D02*
X112823374Y-26784275D01*
X112823374Y-26784275D02*
X112680517Y-26831894D01*
X111870993Y-27736656D02*
X111966231Y-27784275D01*
X111966231Y-27784275D02*
X112156707Y-27784275D01*
X112156707Y-27784275D02*
X112251945Y-27736656D01*
X112251945Y-27736656D02*
X112299564Y-27641417D01*
X112299564Y-27641417D02*
X112299564Y-27260465D01*
X112299564Y-27260465D02*
X112251945Y-27165227D01*
X112251945Y-27165227D02*
X112156707Y-27117608D01*
X112156707Y-27117608D02*
X111966231Y-27117608D01*
X111966231Y-27117608D02*
X111870993Y-27165227D01*
X111870993Y-27165227D02*
X111823374Y-27260465D01*
X111823374Y-27260465D02*
X111823374Y-27355703D01*
X111823374Y-27355703D02*
X112299564Y-27450941D01*
X111394802Y-27784275D02*
X111394802Y-27117608D01*
X111394802Y-27308084D02*
X111347183Y-27212846D01*
X111347183Y-27212846D02*
X111299564Y-27165227D01*
X111299564Y-27165227D02*
X111204326Y-27117608D01*
X111204326Y-27117608D02*
X111109088Y-27117608D01*
X110775754Y-27784275D02*
X110775754Y-27117608D01*
X110775754Y-26784275D02*
X110823373Y-26831894D01*
X110823373Y-26831894D02*
X110775754Y-26879513D01*
X110775754Y-26879513D02*
X110728135Y-26831894D01*
X110728135Y-26831894D02*
X110775754Y-26784275D01*
X110775754Y-26784275D02*
X110775754Y-26879513D01*
X109870993Y-27784275D02*
X109870993Y-27260465D01*
X109870993Y-27260465D02*
X109918612Y-27165227D01*
X109918612Y-27165227D02*
X110013850Y-27117608D01*
X110013850Y-27117608D02*
X110204326Y-27117608D01*
X110204326Y-27117608D02*
X110299564Y-27165227D01*
X109870993Y-27736656D02*
X109966231Y-27784275D01*
X109966231Y-27784275D02*
X110204326Y-27784275D01*
X110204326Y-27784275D02*
X110299564Y-27736656D01*
X110299564Y-27736656D02*
X110347183Y-27641417D01*
X110347183Y-27641417D02*
X110347183Y-27546179D01*
X110347183Y-27546179D02*
X110299564Y-27450941D01*
X110299564Y-27450941D02*
X110204326Y-27403322D01*
X110204326Y-27403322D02*
X109966231Y-27403322D01*
X109966231Y-27403322D02*
X109870993Y-27355703D01*
X109251945Y-27784275D02*
X109347183Y-27736656D01*
X109347183Y-27736656D02*
X109394802Y-27641417D01*
X109394802Y-27641417D02*
X109394802Y-26784275D01*
X113347183Y-28727552D02*
X112966231Y-28727552D01*
X113204326Y-29394219D02*
X113204326Y-28537076D01*
X113204326Y-28537076D02*
X113156707Y-28441838D01*
X113156707Y-28441838D02*
X113061469Y-28394219D01*
X113061469Y-28394219D02*
X112966231Y-28394219D01*
X112204326Y-28727552D02*
X112204326Y-29394219D01*
X112632897Y-28727552D02*
X112632897Y-29251361D01*
X112632897Y-29251361D02*
X112585278Y-29346600D01*
X112585278Y-29346600D02*
X112490040Y-29394219D01*
X112490040Y-29394219D02*
X112347183Y-29394219D01*
X112347183Y-29394219D02*
X112251945Y-29346600D01*
X112251945Y-29346600D02*
X112204326Y-29298980D01*
X111585278Y-29394219D02*
X111680516Y-29346600D01*
X111680516Y-29346600D02*
X111728135Y-29251361D01*
X111728135Y-29251361D02*
X111728135Y-28394219D01*
X111061468Y-29394219D02*
X111156706Y-29346600D01*
X111156706Y-29346600D02*
X111204325Y-29251361D01*
X111204325Y-29251361D02*
X111204325Y-28394219D01*
X109490039Y-29394219D02*
X109490039Y-28394219D01*
X109490039Y-29346600D02*
X109585277Y-29394219D01*
X109585277Y-29394219D02*
X109775753Y-29394219D01*
X109775753Y-29394219D02*
X109870991Y-29346600D01*
X109870991Y-29346600D02*
X109918610Y-29298980D01*
X109918610Y-29298980D02*
X109966229Y-29203742D01*
X109966229Y-29203742D02*
X109966229Y-28918028D01*
X109966229Y-28918028D02*
X109918610Y-28822790D01*
X109918610Y-28822790D02*
X109870991Y-28775171D01*
X109870991Y-28775171D02*
X109775753Y-28727552D01*
X109775753Y-28727552D02*
X109585277Y-28727552D01*
X109585277Y-28727552D02*
X109490039Y-28775171D01*
X108585277Y-28727552D02*
X108585277Y-29394219D01*
X109013848Y-28727552D02*
X109013848Y-29251361D01*
X109013848Y-29251361D02*
X108966229Y-29346600D01*
X108966229Y-29346600D02*
X108870991Y-29394219D01*
X108870991Y-29394219D02*
X108728134Y-29394219D01*
X108728134Y-29394219D02*
X108632896Y-29346600D01*
X108632896Y-29346600D02*
X108585277Y-29298980D01*
X108109086Y-28727552D02*
X108109086Y-29727552D01*
X108109086Y-28775171D02*
X108013848Y-28727552D01*
X108013848Y-28727552D02*
X107823372Y-28727552D01*
X107823372Y-28727552D02*
X107728134Y-28775171D01*
X107728134Y-28775171D02*
X107680515Y-28822790D01*
X107680515Y-28822790D02*
X107632896Y-28918028D01*
X107632896Y-28918028D02*
X107632896Y-29203742D01*
X107632896Y-29203742D02*
X107680515Y-29298980D01*
X107680515Y-29298980D02*
X107728134Y-29346600D01*
X107728134Y-29346600D02*
X107823372Y-29394219D01*
X107823372Y-29394219D02*
X108013848Y-29394219D01*
X108013848Y-29394219D02*
X108109086Y-29346600D01*
X107061467Y-29394219D02*
X107156705Y-29346600D01*
X107156705Y-29346600D02*
X107204324Y-29251361D01*
X107204324Y-29251361D02*
X107204324Y-28394219D01*
X106299562Y-29346600D02*
X106394800Y-29394219D01*
X106394800Y-29394219D02*
X106585276Y-29394219D01*
X106585276Y-29394219D02*
X106680514Y-29346600D01*
X106680514Y-29346600D02*
X106728133Y-29251361D01*
X106728133Y-29251361D02*
X106728133Y-28870409D01*
X106728133Y-28870409D02*
X106680514Y-28775171D01*
X106680514Y-28775171D02*
X106585276Y-28727552D01*
X106585276Y-28727552D02*
X106394800Y-28727552D01*
X106394800Y-28727552D02*
X106299562Y-28775171D01*
X106299562Y-28775171D02*
X106251943Y-28870409D01*
X106251943Y-28870409D02*
X106251943Y-28965647D01*
X106251943Y-28965647D02*
X106728133Y-29060885D01*
X105918609Y-29394219D02*
X105394800Y-28727552D01*
X105918609Y-28727552D02*
X105394800Y-29394219D01*
X120710517Y-35351838D02*
X120805755Y-35304219D01*
X120805755Y-35304219D02*
X120948612Y-35304219D01*
X120948612Y-35304219D02*
X121091469Y-35351838D01*
X121091469Y-35351838D02*
X121186707Y-35447076D01*
X121186707Y-35447076D02*
X121234326Y-35542314D01*
X121234326Y-35542314D02*
X121281945Y-35732790D01*
X121281945Y-35732790D02*
X121281945Y-35875647D01*
X121281945Y-35875647D02*
X121234326Y-36066123D01*
X121234326Y-36066123D02*
X121186707Y-36161361D01*
X121186707Y-36161361D02*
X121091469Y-36256600D01*
X121091469Y-36256600D02*
X120948612Y-36304219D01*
X120948612Y-36304219D02*
X120853374Y-36304219D01*
X120853374Y-36304219D02*
X120710517Y-36256600D01*
X120710517Y-36256600D02*
X120662898Y-36208980D01*
X120662898Y-36208980D02*
X120662898Y-35875647D01*
X120662898Y-35875647D02*
X120853374Y-35875647D01*
X120234326Y-36304219D02*
X120234326Y-35304219D01*
X120234326Y-35304219D02*
X119662898Y-36304219D01*
X119662898Y-36304219D02*
X119662898Y-35304219D01*
X119186707Y-36304219D02*
X119186707Y-35304219D01*
X119186707Y-35304219D02*
X118948612Y-35304219D01*
X118948612Y-35304219D02*
X118805755Y-35351838D01*
X118805755Y-35351838D02*
X118710517Y-35447076D01*
X118710517Y-35447076D02*
X118662898Y-35542314D01*
X118662898Y-35542314D02*
X118615279Y-35732790D01*
X118615279Y-35732790D02*
X118615279Y-35875647D01*
X118615279Y-35875647D02*
X118662898Y-36066123D01*
X118662898Y-36066123D02*
X118710517Y-36161361D01*
X118710517Y-36161361D02*
X118805755Y-36256600D01*
X118805755Y-36256600D02*
X118948612Y-36304219D01*
X118948612Y-36304219D02*
X119186707Y-36304219D01*
X38257183Y-97514219D02*
X37923850Y-98514219D01*
X37923850Y-98514219D02*
X37590517Y-97514219D01*
X37304802Y-98466600D02*
X37161945Y-98514219D01*
X37161945Y-98514219D02*
X36923850Y-98514219D01*
X36923850Y-98514219D02*
X36828612Y-98466600D01*
X36828612Y-98466600D02*
X36780993Y-98418980D01*
X36780993Y-98418980D02*
X36733374Y-98323742D01*
X36733374Y-98323742D02*
X36733374Y-98228504D01*
X36733374Y-98228504D02*
X36780993Y-98133266D01*
X36780993Y-98133266D02*
X36828612Y-98085647D01*
X36828612Y-98085647D02*
X36923850Y-98038028D01*
X36923850Y-98038028D02*
X37114326Y-97990409D01*
X37114326Y-97990409D02*
X37209564Y-97942790D01*
X37209564Y-97942790D02*
X37257183Y-97895171D01*
X37257183Y-97895171D02*
X37304802Y-97799933D01*
X37304802Y-97799933D02*
X37304802Y-97704695D01*
X37304802Y-97704695D02*
X37257183Y-97609457D01*
X37257183Y-97609457D02*
X37209564Y-97561838D01*
X37209564Y-97561838D02*
X37114326Y-97514219D01*
X37114326Y-97514219D02*
X36876231Y-97514219D01*
X36876231Y-97514219D02*
X36733374Y-97561838D01*
X36352421Y-98466600D02*
X36209564Y-98514219D01*
X36209564Y-98514219D02*
X35971469Y-98514219D01*
X35971469Y-98514219D02*
X35876231Y-98466600D01*
X35876231Y-98466600D02*
X35828612Y-98418980D01*
X35828612Y-98418980D02*
X35780993Y-98323742D01*
X35780993Y-98323742D02*
X35780993Y-98228504D01*
X35780993Y-98228504D02*
X35828612Y-98133266D01*
X35828612Y-98133266D02*
X35876231Y-98085647D01*
X35876231Y-98085647D02*
X35971469Y-98038028D01*
X35971469Y-98038028D02*
X36161945Y-97990409D01*
X36161945Y-97990409D02*
X36257183Y-97942790D01*
X36257183Y-97942790D02*
X36304802Y-97895171D01*
X36304802Y-97895171D02*
X36352421Y-97799933D01*
X36352421Y-97799933D02*
X36352421Y-97704695D01*
X36352421Y-97704695D02*
X36304802Y-97609457D01*
X36304802Y-97609457D02*
X36257183Y-97561838D01*
X36257183Y-97561838D02*
X36161945Y-97514219D01*
X36161945Y-97514219D02*
X35923850Y-97514219D01*
X35923850Y-97514219D02*
X35780993Y-97561838D01*
X118172898Y-29264219D02*
X118506231Y-28788028D01*
X118744326Y-29264219D02*
X118744326Y-28264219D01*
X118744326Y-28264219D02*
X118363374Y-28264219D01*
X118363374Y-28264219D02*
X118268136Y-28311838D01*
X118268136Y-28311838D02*
X118220517Y-28359457D01*
X118220517Y-28359457D02*
X118172898Y-28454695D01*
X118172898Y-28454695D02*
X118172898Y-28597552D01*
X118172898Y-28597552D02*
X118220517Y-28692790D01*
X118220517Y-28692790D02*
X118268136Y-28740409D01*
X118268136Y-28740409D02*
X118363374Y-28788028D01*
X118363374Y-28788028D02*
X118744326Y-28788028D01*
X117839564Y-28264219D02*
X117172898Y-29264219D01*
X117172898Y-28264219D02*
X117839564Y-29264219D01*
X39207183Y-119624219D02*
X38873850Y-120624219D01*
X38873850Y-120624219D02*
X38540517Y-119624219D01*
X38254802Y-120576600D02*
X38111945Y-120624219D01*
X38111945Y-120624219D02*
X37873850Y-120624219D01*
X37873850Y-120624219D02*
X37778612Y-120576600D01*
X37778612Y-120576600D02*
X37730993Y-120528980D01*
X37730993Y-120528980D02*
X37683374Y-120433742D01*
X37683374Y-120433742D02*
X37683374Y-120338504D01*
X37683374Y-120338504D02*
X37730993Y-120243266D01*
X37730993Y-120243266D02*
X37778612Y-120195647D01*
X37778612Y-120195647D02*
X37873850Y-120148028D01*
X37873850Y-120148028D02*
X38064326Y-120100409D01*
X38064326Y-120100409D02*
X38159564Y-120052790D01*
X38159564Y-120052790D02*
X38207183Y-120005171D01*
X38207183Y-120005171D02*
X38254802Y-119909933D01*
X38254802Y-119909933D02*
X38254802Y-119814695D01*
X38254802Y-119814695D02*
X38207183Y-119719457D01*
X38207183Y-119719457D02*
X38159564Y-119671838D01*
X38159564Y-119671838D02*
X38064326Y-119624219D01*
X38064326Y-119624219D02*
X37826231Y-119624219D01*
X37826231Y-119624219D02*
X37683374Y-119671838D01*
X37302421Y-120576600D02*
X37159564Y-120624219D01*
X37159564Y-120624219D02*
X36921469Y-120624219D01*
X36921469Y-120624219D02*
X36826231Y-120576600D01*
X36826231Y-120576600D02*
X36778612Y-120528980D01*
X36778612Y-120528980D02*
X36730993Y-120433742D01*
X36730993Y-120433742D02*
X36730993Y-120338504D01*
X36730993Y-120338504D02*
X36778612Y-120243266D01*
X36778612Y-120243266D02*
X36826231Y-120195647D01*
X36826231Y-120195647D02*
X36921469Y-120148028D01*
X36921469Y-120148028D02*
X37111945Y-120100409D01*
X37111945Y-120100409D02*
X37207183Y-120052790D01*
X37207183Y-120052790D02*
X37254802Y-120005171D01*
X37254802Y-120005171D02*
X37302421Y-119909933D01*
X37302421Y-119909933D02*
X37302421Y-119814695D01*
X37302421Y-119814695D02*
X37254802Y-119719457D01*
X37254802Y-119719457D02*
X37207183Y-119671838D01*
X37207183Y-119671838D02*
X37111945Y-119624219D01*
X37111945Y-119624219D02*
X36873850Y-119624219D01*
X36873850Y-119624219D02*
X36730993Y-119671838D01*
X70867183Y-33854219D02*
X70533850Y-34854219D01*
X70533850Y-34854219D02*
X70200517Y-33854219D01*
X69295755Y-34758980D02*
X69343374Y-34806600D01*
X69343374Y-34806600D02*
X69486231Y-34854219D01*
X69486231Y-34854219D02*
X69581469Y-34854219D01*
X69581469Y-34854219D02*
X69724326Y-34806600D01*
X69724326Y-34806600D02*
X69819564Y-34711361D01*
X69819564Y-34711361D02*
X69867183Y-34616123D01*
X69867183Y-34616123D02*
X69914802Y-34425647D01*
X69914802Y-34425647D02*
X69914802Y-34282790D01*
X69914802Y-34282790D02*
X69867183Y-34092314D01*
X69867183Y-34092314D02*
X69819564Y-33997076D01*
X69819564Y-33997076D02*
X69724326Y-33901838D01*
X69724326Y-33901838D02*
X69581469Y-33854219D01*
X69581469Y-33854219D02*
X69486231Y-33854219D01*
X69486231Y-33854219D02*
X69343374Y-33901838D01*
X69343374Y-33901838D02*
X69295755Y-33949457D01*
X68295755Y-34758980D02*
X68343374Y-34806600D01*
X68343374Y-34806600D02*
X68486231Y-34854219D01*
X68486231Y-34854219D02*
X68581469Y-34854219D01*
X68581469Y-34854219D02*
X68724326Y-34806600D01*
X68724326Y-34806600D02*
X68819564Y-34711361D01*
X68819564Y-34711361D02*
X68867183Y-34616123D01*
X68867183Y-34616123D02*
X68914802Y-34425647D01*
X68914802Y-34425647D02*
X68914802Y-34282790D01*
X68914802Y-34282790D02*
X68867183Y-34092314D01*
X68867183Y-34092314D02*
X68819564Y-33997076D01*
X68819564Y-33997076D02*
X68724326Y-33901838D01*
X68724326Y-33901838D02*
X68581469Y-33854219D01*
X68581469Y-33854219D02*
X68486231Y-33854219D01*
X68486231Y-33854219D02*
X68343374Y-33901838D01*
X68343374Y-33901838D02*
X68295755Y-33949457D01*
X90521945Y-34636600D02*
X90379088Y-34684219D01*
X90379088Y-34684219D02*
X90140993Y-34684219D01*
X90140993Y-34684219D02*
X90045755Y-34636600D01*
X90045755Y-34636600D02*
X89998136Y-34588980D01*
X89998136Y-34588980D02*
X89950517Y-34493742D01*
X89950517Y-34493742D02*
X89950517Y-34398504D01*
X89950517Y-34398504D02*
X89998136Y-34303266D01*
X89998136Y-34303266D02*
X90045755Y-34255647D01*
X90045755Y-34255647D02*
X90140993Y-34208028D01*
X90140993Y-34208028D02*
X90331469Y-34160409D01*
X90331469Y-34160409D02*
X90426707Y-34112790D01*
X90426707Y-34112790D02*
X90474326Y-34065171D01*
X90474326Y-34065171D02*
X90521945Y-33969933D01*
X90521945Y-33969933D02*
X90521945Y-33874695D01*
X90521945Y-33874695D02*
X90474326Y-33779457D01*
X90474326Y-33779457D02*
X90426707Y-33731838D01*
X90426707Y-33731838D02*
X90331469Y-33684219D01*
X90331469Y-33684219D02*
X90093374Y-33684219D01*
X90093374Y-33684219D02*
X89950517Y-33731838D01*
X88950517Y-34588980D02*
X88998136Y-34636600D01*
X88998136Y-34636600D02*
X89140993Y-34684219D01*
X89140993Y-34684219D02*
X89236231Y-34684219D01*
X89236231Y-34684219D02*
X89379088Y-34636600D01*
X89379088Y-34636600D02*
X89474326Y-34541361D01*
X89474326Y-34541361D02*
X89521945Y-34446123D01*
X89521945Y-34446123D02*
X89569564Y-34255647D01*
X89569564Y-34255647D02*
X89569564Y-34112790D01*
X89569564Y-34112790D02*
X89521945Y-33922314D01*
X89521945Y-33922314D02*
X89474326Y-33827076D01*
X89474326Y-33827076D02*
X89379088Y-33731838D01*
X89379088Y-33731838D02*
X89236231Y-33684219D01*
X89236231Y-33684219D02*
X89140993Y-33684219D01*
X89140993Y-33684219D02*
X88998136Y-33731838D01*
X88998136Y-33731838D02*
X88950517Y-33779457D01*
X88045755Y-34684219D02*
X88521945Y-34684219D01*
X88521945Y-34684219D02*
X88521945Y-33684219D01*
X85021945Y-34736600D02*
X84879088Y-34784219D01*
X84879088Y-34784219D02*
X84640993Y-34784219D01*
X84640993Y-34784219D02*
X84545755Y-34736600D01*
X84545755Y-34736600D02*
X84498136Y-34688980D01*
X84498136Y-34688980D02*
X84450517Y-34593742D01*
X84450517Y-34593742D02*
X84450517Y-34498504D01*
X84450517Y-34498504D02*
X84498136Y-34403266D01*
X84498136Y-34403266D02*
X84545755Y-34355647D01*
X84545755Y-34355647D02*
X84640993Y-34308028D01*
X84640993Y-34308028D02*
X84831469Y-34260409D01*
X84831469Y-34260409D02*
X84926707Y-34212790D01*
X84926707Y-34212790D02*
X84974326Y-34165171D01*
X84974326Y-34165171D02*
X85021945Y-34069933D01*
X85021945Y-34069933D02*
X85021945Y-33974695D01*
X85021945Y-33974695D02*
X84974326Y-33879457D01*
X84974326Y-33879457D02*
X84926707Y-33831838D01*
X84926707Y-33831838D02*
X84831469Y-33784219D01*
X84831469Y-33784219D02*
X84593374Y-33784219D01*
X84593374Y-33784219D02*
X84450517Y-33831838D01*
X84021945Y-34784219D02*
X84021945Y-33784219D01*
X84021945Y-33784219D02*
X83783850Y-33784219D01*
X83783850Y-33784219D02*
X83640993Y-33831838D01*
X83640993Y-33831838D02*
X83545755Y-33927076D01*
X83545755Y-33927076D02*
X83498136Y-34022314D01*
X83498136Y-34022314D02*
X83450517Y-34212790D01*
X83450517Y-34212790D02*
X83450517Y-34355647D01*
X83450517Y-34355647D02*
X83498136Y-34546123D01*
X83498136Y-34546123D02*
X83545755Y-34641361D01*
X83545755Y-34641361D02*
X83640993Y-34736600D01*
X83640993Y-34736600D02*
X83783850Y-34784219D01*
X83783850Y-34784219D02*
X84021945Y-34784219D01*
X83069564Y-34498504D02*
X82593374Y-34498504D01*
X83164802Y-34784219D02*
X82831469Y-33784219D01*
X82831469Y-33784219D02*
X82498136Y-34784219D01*
X44187183Y-80484219D02*
X43853850Y-81484219D01*
X43853850Y-81484219D02*
X43520517Y-80484219D01*
X43234802Y-81436600D02*
X43091945Y-81484219D01*
X43091945Y-81484219D02*
X42853850Y-81484219D01*
X42853850Y-81484219D02*
X42758612Y-81436600D01*
X42758612Y-81436600D02*
X42710993Y-81388980D01*
X42710993Y-81388980D02*
X42663374Y-81293742D01*
X42663374Y-81293742D02*
X42663374Y-81198504D01*
X42663374Y-81198504D02*
X42710993Y-81103266D01*
X42710993Y-81103266D02*
X42758612Y-81055647D01*
X42758612Y-81055647D02*
X42853850Y-81008028D01*
X42853850Y-81008028D02*
X43044326Y-80960409D01*
X43044326Y-80960409D02*
X43139564Y-80912790D01*
X43139564Y-80912790D02*
X43187183Y-80865171D01*
X43187183Y-80865171D02*
X43234802Y-80769933D01*
X43234802Y-80769933D02*
X43234802Y-80674695D01*
X43234802Y-80674695D02*
X43187183Y-80579457D01*
X43187183Y-80579457D02*
X43139564Y-80531838D01*
X43139564Y-80531838D02*
X43044326Y-80484219D01*
X43044326Y-80484219D02*
X42806231Y-80484219D01*
X42806231Y-80484219D02*
X42663374Y-80531838D01*
X42282421Y-81436600D02*
X42139564Y-81484219D01*
X42139564Y-81484219D02*
X41901469Y-81484219D01*
X41901469Y-81484219D02*
X41806231Y-81436600D01*
X41806231Y-81436600D02*
X41758612Y-81388980D01*
X41758612Y-81388980D02*
X41710993Y-81293742D01*
X41710993Y-81293742D02*
X41710993Y-81198504D01*
X41710993Y-81198504D02*
X41758612Y-81103266D01*
X41758612Y-81103266D02*
X41806231Y-81055647D01*
X41806231Y-81055647D02*
X41901469Y-81008028D01*
X41901469Y-81008028D02*
X42091945Y-80960409D01*
X42091945Y-80960409D02*
X42187183Y-80912790D01*
X42187183Y-80912790D02*
X42234802Y-80865171D01*
X42234802Y-80865171D02*
X42282421Y-80769933D01*
X42282421Y-80769933D02*
X42282421Y-80674695D01*
X42282421Y-80674695D02*
X42234802Y-80579457D01*
X42234802Y-80579457D02*
X42187183Y-80531838D01*
X42187183Y-80531838D02*
X42091945Y-80484219D01*
X42091945Y-80484219D02*
X41853850Y-80484219D01*
X41853850Y-80484219D02*
X41710993Y-80531838D01*
X106358136Y-135364219D02*
X106834326Y-135364219D01*
X106834326Y-135364219D02*
X106834326Y-134364219D01*
X106024802Y-134840409D02*
X105691469Y-134840409D01*
X105548612Y-135364219D02*
X106024802Y-135364219D01*
X106024802Y-135364219D02*
X106024802Y-134364219D01*
X106024802Y-134364219D02*
X105548612Y-134364219D01*
X105120040Y-135364219D02*
X105120040Y-134364219D01*
X105120040Y-134364219D02*
X104881945Y-134364219D01*
X104881945Y-134364219D02*
X104739088Y-134411838D01*
X104739088Y-134411838D02*
X104643850Y-134507076D01*
X104643850Y-134507076D02*
X104596231Y-134602314D01*
X104596231Y-134602314D02*
X104548612Y-134792790D01*
X104548612Y-134792790D02*
X104548612Y-134935647D01*
X104548612Y-134935647D02*
X104596231Y-135126123D01*
X104596231Y-135126123D02*
X104643850Y-135221361D01*
X104643850Y-135221361D02*
X104739088Y-135316600D01*
X104739088Y-135316600D02*
X104881945Y-135364219D01*
X104881945Y-135364219D02*
X105120040Y-135364219D01*
X102929564Y-135364219D02*
X102929564Y-134364219D01*
X102929564Y-135316600D02*
X103024802Y-135364219D01*
X103024802Y-135364219D02*
X103215278Y-135364219D01*
X103215278Y-135364219D02*
X103310516Y-135316600D01*
X103310516Y-135316600D02*
X103358135Y-135268980D01*
X103358135Y-135268980D02*
X103405754Y-135173742D01*
X103405754Y-135173742D02*
X103405754Y-134888028D01*
X103405754Y-134888028D02*
X103358135Y-134792790D01*
X103358135Y-134792790D02*
X103310516Y-134745171D01*
X103310516Y-134745171D02*
X103215278Y-134697552D01*
X103215278Y-134697552D02*
X103024802Y-134697552D01*
X103024802Y-134697552D02*
X102929564Y-134745171D01*
X102024802Y-135364219D02*
X102024802Y-134840409D01*
X102024802Y-134840409D02*
X102072421Y-134745171D01*
X102072421Y-134745171D02*
X102167659Y-134697552D01*
X102167659Y-134697552D02*
X102358135Y-134697552D01*
X102358135Y-134697552D02*
X102453373Y-134745171D01*
X102024802Y-135316600D02*
X102120040Y-135364219D01*
X102120040Y-135364219D02*
X102358135Y-135364219D01*
X102358135Y-135364219D02*
X102453373Y-135316600D01*
X102453373Y-135316600D02*
X102500992Y-135221361D01*
X102500992Y-135221361D02*
X102500992Y-135126123D01*
X102500992Y-135126123D02*
X102453373Y-135030885D01*
X102453373Y-135030885D02*
X102358135Y-134983266D01*
X102358135Y-134983266D02*
X102120040Y-134983266D01*
X102120040Y-134983266D02*
X102024802Y-134935647D01*
X101691468Y-134697552D02*
X101310516Y-134697552D01*
X101548611Y-134364219D02*
X101548611Y-135221361D01*
X101548611Y-135221361D02*
X101500992Y-135316600D01*
X101500992Y-135316600D02*
X101405754Y-135364219D01*
X101405754Y-135364219D02*
X101310516Y-135364219D01*
X100548611Y-135364219D02*
X100548611Y-134840409D01*
X100548611Y-134840409D02*
X100596230Y-134745171D01*
X100596230Y-134745171D02*
X100691468Y-134697552D01*
X100691468Y-134697552D02*
X100881944Y-134697552D01*
X100881944Y-134697552D02*
X100977182Y-134745171D01*
X100548611Y-135316600D02*
X100643849Y-135364219D01*
X100643849Y-135364219D02*
X100881944Y-135364219D01*
X100881944Y-135364219D02*
X100977182Y-135316600D01*
X100977182Y-135316600D02*
X101024801Y-135221361D01*
X101024801Y-135221361D02*
X101024801Y-135126123D01*
X101024801Y-135126123D02*
X100977182Y-135030885D01*
X100977182Y-135030885D02*
X100881944Y-134983266D01*
X100881944Y-134983266D02*
X100643849Y-134983266D01*
X100643849Y-134983266D02*
X100548611Y-134935647D01*
X31037183Y-59074219D02*
X30703850Y-60074219D01*
X30703850Y-60074219D02*
X30370517Y-59074219D01*
X30084802Y-60026600D02*
X29941945Y-60074219D01*
X29941945Y-60074219D02*
X29703850Y-60074219D01*
X29703850Y-60074219D02*
X29608612Y-60026600D01*
X29608612Y-60026600D02*
X29560993Y-59978980D01*
X29560993Y-59978980D02*
X29513374Y-59883742D01*
X29513374Y-59883742D02*
X29513374Y-59788504D01*
X29513374Y-59788504D02*
X29560993Y-59693266D01*
X29560993Y-59693266D02*
X29608612Y-59645647D01*
X29608612Y-59645647D02*
X29703850Y-59598028D01*
X29703850Y-59598028D02*
X29894326Y-59550409D01*
X29894326Y-59550409D02*
X29989564Y-59502790D01*
X29989564Y-59502790D02*
X30037183Y-59455171D01*
X30037183Y-59455171D02*
X30084802Y-59359933D01*
X30084802Y-59359933D02*
X30084802Y-59264695D01*
X30084802Y-59264695D02*
X30037183Y-59169457D01*
X30037183Y-59169457D02*
X29989564Y-59121838D01*
X29989564Y-59121838D02*
X29894326Y-59074219D01*
X29894326Y-59074219D02*
X29656231Y-59074219D01*
X29656231Y-59074219D02*
X29513374Y-59121838D01*
X29132421Y-60026600D02*
X28989564Y-60074219D01*
X28989564Y-60074219D02*
X28751469Y-60074219D01*
X28751469Y-60074219D02*
X28656231Y-60026600D01*
X28656231Y-60026600D02*
X28608612Y-59978980D01*
X28608612Y-59978980D02*
X28560993Y-59883742D01*
X28560993Y-59883742D02*
X28560993Y-59788504D01*
X28560993Y-59788504D02*
X28608612Y-59693266D01*
X28608612Y-59693266D02*
X28656231Y-59645647D01*
X28656231Y-59645647D02*
X28751469Y-59598028D01*
X28751469Y-59598028D02*
X28941945Y-59550409D01*
X28941945Y-59550409D02*
X29037183Y-59502790D01*
X29037183Y-59502790D02*
X29084802Y-59455171D01*
X29084802Y-59455171D02*
X29132421Y-59359933D01*
X29132421Y-59359933D02*
X29132421Y-59264695D01*
X29132421Y-59264695D02*
X29084802Y-59169457D01*
X29084802Y-59169457D02*
X29037183Y-59121838D01*
X29037183Y-59121838D02*
X28941945Y-59074219D01*
X28941945Y-59074219D02*
X28703850Y-59074219D01*
X28703850Y-59074219D02*
X28560993Y-59121838D01*
D11*
X104807333Y-138291819D02*
X104807333Y-139006104D01*
X104807333Y-139006104D02*
X104854952Y-139148961D01*
X104854952Y-139148961D02*
X104950190Y-139244200D01*
X104950190Y-139244200D02*
X105093047Y-139291819D01*
X105093047Y-139291819D02*
X105188285Y-139291819D01*
X104331142Y-139291819D02*
X104331142Y-138291819D01*
X104331142Y-138291819D02*
X103950190Y-138291819D01*
X103950190Y-138291819D02*
X103854952Y-138339438D01*
X103854952Y-138339438D02*
X103807333Y-138387057D01*
X103807333Y-138387057D02*
X103759714Y-138482295D01*
X103759714Y-138482295D02*
X103759714Y-138625152D01*
X103759714Y-138625152D02*
X103807333Y-138720390D01*
X103807333Y-138720390D02*
X103854952Y-138768009D01*
X103854952Y-138768009D02*
X103950190Y-138815628D01*
X103950190Y-138815628D02*
X104331142Y-138815628D01*
X103426380Y-138291819D02*
X102807333Y-138291819D01*
X102807333Y-138291819D02*
X103140666Y-138672771D01*
X103140666Y-138672771D02*
X102997809Y-138672771D01*
X102997809Y-138672771D02*
X102902571Y-138720390D01*
X102902571Y-138720390D02*
X102854952Y-138768009D01*
X102854952Y-138768009D02*
X102807333Y-138863247D01*
X102807333Y-138863247D02*
X102807333Y-139101342D01*
X102807333Y-139101342D02*
X102854952Y-139196580D01*
X102854952Y-139196580D02*
X102902571Y-139244200D01*
X102902571Y-139244200D02*
X102997809Y-139291819D01*
X102997809Y-139291819D02*
X103283523Y-139291819D01*
X103283523Y-139291819D02*
X103378761Y-139244200D01*
X103378761Y-139244200D02*
X103426380Y-139196580D01*
X68957569Y-118421530D02*
X67957569Y-118421530D01*
X67957569Y-118421530D02*
X67957569Y-118659625D01*
X67957569Y-118659625D02*
X68005188Y-118802482D01*
X68005188Y-118802482D02*
X68100426Y-118897720D01*
X68100426Y-118897720D02*
X68195664Y-118945339D01*
X68195664Y-118945339D02*
X68386140Y-118992958D01*
X68386140Y-118992958D02*
X68528997Y-118992958D01*
X68528997Y-118992958D02*
X68719473Y-118945339D01*
X68719473Y-118945339D02*
X68814711Y-118897720D01*
X68814711Y-118897720D02*
X68909950Y-118802482D01*
X68909950Y-118802482D02*
X68957569Y-118659625D01*
X68957569Y-118659625D02*
X68957569Y-118421530D01*
X67957569Y-119326292D02*
X67957569Y-119992958D01*
X67957569Y-119992958D02*
X68957569Y-119564387D01*
D12*
%TO.C,S34*%
X168949000Y-106857000D02*
X163849000Y-106857000D01*
X172849000Y-111057000D02*
X167749000Y-111057000D01*
X170949000Y-104857000D02*
G75*
G02*
X168949000Y-106857000I-1999999J-1D01*
G01*
X174849000Y-109057000D02*
G75*
G02*
X172849000Y-111057000I-1999999J-1D01*
G01*
%TO.C,S17*%
X97549000Y-68767000D02*
X92449000Y-68767000D01*
X101449000Y-72967000D02*
X96349000Y-72967000D01*
X99549000Y-66767000D02*
G75*
G02*
X97549000Y-68767000I-1999999J-1D01*
G01*
X103449000Y-70967000D02*
G75*
G02*
X101449000Y-72967000I-1999999J-1D01*
G01*
%TO.C,S8*%
X59469000Y-68767000D02*
X54369000Y-68767000D01*
X63369000Y-72967000D02*
X58269000Y-72967000D01*
X61469000Y-66767000D02*
G75*
G02*
X59469000Y-68767000I-1999999J-1D01*
G01*
X65369000Y-70967000D02*
G75*
G02*
X63369000Y-72967000I-1999999J-1D01*
G01*
%TO.C,S3*%
X38047750Y-87807000D02*
X32947750Y-87807000D01*
X41947750Y-92007000D02*
X36847750Y-92007000D01*
X40047750Y-85807000D02*
G75*
G02*
X38047750Y-87807000I-1999999J-1D01*
G01*
X43947750Y-90007000D02*
G75*
G02*
X41947750Y-92007000I-1999999J-1D01*
G01*
%TO.C,S11*%
X73749000Y-106857000D02*
X68649000Y-106857000D01*
X77649000Y-111057000D02*
X72549000Y-111057000D01*
X75749000Y-104857000D02*
G75*
G02*
X73749000Y-106857000I-1999999J-1D01*
G01*
X79649000Y-109057000D02*
G75*
G02*
X77649000Y-111057000I-1999999J-1D01*
G01*
%TO.C,S4*%
X33285250Y-125887000D02*
X28185250Y-125887000D01*
X37185250Y-130087000D02*
X32085250Y-130087000D01*
X35285250Y-123887000D02*
G75*
G02*
X33285250Y-125887000I-1999999J-1D01*
G01*
X39185250Y-128087000D02*
G75*
G02*
X37185250Y-130087000I-1999999J-1D01*
G01*
%TO.C,S13*%
X80885250Y-125887000D02*
X75785250Y-125887000D01*
X84785250Y-130087000D02*
X79685250Y-130087000D01*
X82885250Y-123887000D02*
G75*
G02*
X80885250Y-125887000I-1999999J-1D01*
G01*
X86785250Y-128087000D02*
G75*
G02*
X84785250Y-130087000I-1999999J-1D01*
G01*
%TO.C,S16*%
X92789000Y-106857000D02*
X87689000Y-106857000D01*
X96689000Y-111057000D02*
X91589000Y-111057000D01*
X94789000Y-104857000D02*
G75*
G02*
X92789000Y-106857000I-1999999J-1D01*
G01*
X98689000Y-109057000D02*
G75*
G02*
X96689000Y-111057000I-1999999J-1D01*
G01*
%TO.C,S21*%
X104685250Y-125887000D02*
X99585250Y-125887000D01*
X108585250Y-130087000D02*
X103485250Y-130087000D01*
X106685250Y-123887000D02*
G75*
G02*
X104685250Y-125887000I-1999999J-1D01*
G01*
X110585250Y-128087000D02*
G75*
G02*
X108585250Y-130087000I-1999999J-1D01*
G01*
%TO.C,S22*%
X111829000Y-106857000D02*
X106729000Y-106857000D01*
X115729000Y-111057000D02*
X110629000Y-111057000D01*
X113829000Y-104857000D02*
G75*
G02*
X111829000Y-106857000I-1999999J-1D01*
G01*
X117729000Y-109057000D02*
G75*
G02*
X115729000Y-111057000I-1999999J-1D01*
G01*
%TO.C,S7*%
X57085250Y-125887000D02*
X51985250Y-125887000D01*
X60985250Y-130087000D02*
X55885250Y-130087000D01*
X59085250Y-123887000D02*
G75*
G02*
X57085250Y-125887000I-1999999J-1D01*
G01*
X62985250Y-128087000D02*
G75*
G02*
X60985250Y-130087000I-1999999J-1D01*
G01*
%TO.C,S5*%
X42810250Y-106857000D02*
X37710250Y-106857000D01*
X46710250Y-111057000D02*
X41610250Y-111057000D01*
X44810250Y-104857000D02*
G75*
G02*
X42810250Y-106857000I-1999999J-1D01*
G01*
X48710250Y-109057000D02*
G75*
G02*
X46710250Y-111057000I-1999999J-1D01*
G01*
%TO.C,S27*%
X130869000Y-106857000D02*
X125769000Y-106857000D01*
X134769000Y-111057000D02*
X129669000Y-111057000D01*
X132869000Y-104857000D02*
G75*
G02*
X130869000Y-106857000I-1999999J-1D01*
G01*
X136769000Y-109057000D02*
G75*
G02*
X134769000Y-111057000I-1999999J-1D01*
G01*
%TO.C,S28*%
X135629000Y-68767000D02*
X130529000Y-68767000D01*
X139529000Y-72967000D02*
X134429000Y-72967000D01*
X137629000Y-66767000D02*
G75*
G02*
X135629000Y-68767000I-1999999J-1D01*
G01*
X141529000Y-70967000D02*
G75*
G02*
X139529000Y-72967000I-1999999J-1D01*
G01*
%TO.C,S23*%
X116589000Y-68767000D02*
X111489000Y-68767000D01*
X120489000Y-72967000D02*
X115389000Y-72967000D01*
X118589000Y-66767000D02*
G75*
G02*
X116589000Y-68767000I-1999999J-1D01*
G01*
X122489000Y-70967000D02*
G75*
G02*
X120489000Y-72967000I-1999999J-1D01*
G01*
%TO.C,S32*%
X149909000Y-106857000D02*
X144809000Y-106857000D01*
X153809000Y-111057000D02*
X148709000Y-111057000D01*
X151909000Y-104857000D02*
G75*
G02*
X149909000Y-106857000I-1999999J-1D01*
G01*
X155809000Y-109057000D02*
G75*
G02*
X153809000Y-111057000I-1999999J-1D01*
G01*
%TO.C,S9*%
X64224000Y-87807000D02*
X59124000Y-87807000D01*
X68124000Y-92007000D02*
X63024000Y-92007000D01*
X66224000Y-85807000D02*
G75*
G02*
X64224000Y-87807000I-1999999J-1D01*
G01*
X70124000Y-90007000D02*
G75*
G02*
X68124000Y-92007000I-1999999J-1D01*
G01*
%TO.C,S2*%
X35666500Y-68757000D02*
X30566500Y-68757000D01*
X39566500Y-72957000D02*
X34466500Y-72957000D01*
X37666500Y-66757000D02*
G75*
G02*
X35666500Y-68757000I-1999999J-1D01*
G01*
X41566500Y-70957000D02*
G75*
G02*
X39566500Y-72957000I-1999999J-1D01*
G01*
D10*
%TO.C,D6*%
X49219000Y-54889500D02*
X49219000Y-56219500D01*
X49219000Y-56219500D02*
X50389000Y-55544500D01*
X50389000Y-54879500D02*
X50389000Y-56209500D01*
X50389000Y-55544500D02*
X49219000Y-54889500D01*
D13*
X54759000Y-56509500D02*
X53049000Y-56509500D01*
X54769000Y-54549500D02*
X53069000Y-54549500D01*
X54769000Y-54549500D02*
X54769000Y-56499500D01*
D12*
%TO.C,S19*%
X107064000Y-49717000D02*
X101964000Y-49717000D01*
X110964000Y-53917000D02*
X105864000Y-53917000D01*
X109064000Y-47717000D02*
G75*
G02*
X107064000Y-49717000I-1999999J-1D01*
G01*
X112964000Y-51917000D02*
G75*
G02*
X110964000Y-53917000I-1999999J-1D01*
G01*
%TO.C,S18*%
X102304000Y-87807000D02*
X97204000Y-87807000D01*
X106204000Y-92007000D02*
X101104000Y-92007000D01*
X104304000Y-85807000D02*
G75*
G02*
X102304000Y-87807000I-1999999J-1D01*
G01*
X108204000Y-90007000D02*
G75*
G02*
X106204000Y-92007000I-1999999J-1D01*
G01*
%TO.C,S12*%
X78509000Y-68767000D02*
X73409000Y-68767000D01*
X82409000Y-72967000D02*
X77309000Y-72967000D01*
X80509000Y-66767000D02*
G75*
G02*
X78509000Y-68767000I-1999999J-1D01*
G01*
X84409000Y-70967000D02*
G75*
G02*
X82409000Y-72967000I-1999999J-1D01*
G01*
%TO.C,S10*%
X68984000Y-49717000D02*
X63884000Y-49717000D01*
X72884000Y-53917000D02*
X67784000Y-53917000D01*
X70984000Y-47717000D02*
G75*
G02*
X68984000Y-49717000I-1999999J-1D01*
G01*
X74884000Y-51917000D02*
G75*
G02*
X72884000Y-53917000I-1999999J-1D01*
G01*
%TO.C,S15*%
X88024000Y-49717000D02*
X82924000Y-49717000D01*
X91924000Y-53917000D02*
X86824000Y-53917000D01*
X90024000Y-47717000D02*
G75*
G02*
X88024000Y-49717000I-1999999J-1D01*
G01*
X93924000Y-51917000D02*
G75*
G02*
X91924000Y-53917000I-1999999J-1D01*
G01*
%TO.C,S26*%
X133247750Y-125887000D02*
X128147750Y-125887000D01*
X137147750Y-130087000D02*
X132047750Y-130087000D01*
X135247750Y-123887000D02*
G75*
G02*
X133247750Y-125887000I-1999999J-1D01*
G01*
X139147750Y-128087000D02*
G75*
G02*
X137147750Y-130087000I-1999999J-1D01*
G01*
%TO.C,S25*%
X126104000Y-49717000D02*
X121004000Y-49717000D01*
X130004000Y-53917000D02*
X124904000Y-53917000D01*
X128104000Y-47717000D02*
G75*
G02*
X126104000Y-49717000I-1999999J-1D01*
G01*
X132004000Y-51917000D02*
G75*
G02*
X130004000Y-53917000I-1999999J-1D01*
G01*
%TO.C,S30*%
X140384000Y-87807000D02*
X135284000Y-87807000D01*
X144284000Y-92007000D02*
X139184000Y-92007000D01*
X142384000Y-85807000D02*
G75*
G02*
X140384000Y-87807000I-1999999J-1D01*
G01*
X146284000Y-90007000D02*
G75*
G02*
X144284000Y-92007000I-1999999J-1D01*
G01*
%TO.C,S1*%
X30904000Y-49717000D02*
X25804000Y-49717000D01*
X34804000Y-53917000D02*
X29704000Y-53917000D01*
X32904000Y-47717000D02*
G75*
G02*
X30904000Y-49717000I-1999999J-1D01*
G01*
X36804000Y-51917000D02*
G75*
G02*
X34804000Y-53917000I-1999999J-1D01*
G01*
%TO.C,S33*%
X159424000Y-125887000D02*
X154324000Y-125887000D01*
X163324000Y-130087000D02*
X158224000Y-130087000D01*
X161424000Y-123887000D02*
G75*
G02*
X159424000Y-125887000I-1999999J-1D01*
G01*
X165324000Y-128087000D02*
G75*
G02*
X163324000Y-130087000I-1999999J-1D01*
G01*
%TO.C,S14*%
X83264000Y-87807000D02*
X78164000Y-87807000D01*
X87164000Y-92007000D02*
X82064000Y-92007000D01*
X85264000Y-85807000D02*
G75*
G02*
X83264000Y-87807000I-1999999J-1D01*
G01*
X89164000Y-90007000D02*
G75*
G02*
X87164000Y-92007000I-1999999J-1D01*
G01*
%TO.C,S6*%
X49944000Y-49717000D02*
X44844000Y-49717000D01*
X53844000Y-53917000D02*
X48744000Y-53917000D01*
X51944000Y-47717000D02*
G75*
G02*
X49944000Y-49717000I-1999999J-1D01*
G01*
X55844000Y-51917000D02*
G75*
G02*
X53844000Y-53917000I-1999999J-1D01*
G01*
%TO.C,S24*%
X121344000Y-87807000D02*
X116244000Y-87807000D01*
X125244000Y-92007000D02*
X120144000Y-92007000D01*
X123344000Y-85807000D02*
G75*
G02*
X121344000Y-87807000I-1999999J-1D01*
G01*
X127244000Y-90007000D02*
G75*
G02*
X125244000Y-92007000I-1999999J-1D01*
G01*
%TO.C,S35*%
X183609205Y-132063269D02*
X179192476Y-129513269D01*
X184886704Y-137650575D02*
X180469975Y-135100575D01*
X186341256Y-131331218D02*
G75*
G02*
X183609205Y-132063269I-1732051J999999D01*
G01*
X187618755Y-136918524D02*
G75*
G02*
X184886704Y-137650575I-1732051J1000000D01*
G01*
%TO.C,S31*%
X145144000Y-49717000D02*
X140044000Y-49717000D01*
X149044000Y-53917000D02*
X143944000Y-53917000D01*
X147144000Y-47717000D02*
G75*
G02*
X145144000Y-49717000I-1999999J-1D01*
G01*
X151044000Y-51917000D02*
G75*
G02*
X149044000Y-53917000I-1999999J-1D01*
G01*
D10*
%TO.C,D36*%
X31561500Y-130768250D02*
X32731500Y-131423250D01*
X31561500Y-132098250D02*
X31561500Y-130768250D01*
X32731500Y-131423250D02*
X31561500Y-132098250D01*
X32731500Y-132088250D02*
X32731500Y-130758250D01*
D13*
X35391500Y-132388250D02*
X37101500Y-132388250D01*
X35411500Y-130428250D02*
X37111500Y-130428250D01*
X37111500Y-132378250D02*
X37111500Y-130428250D01*
D10*
%TO.C,D12*%
X77764000Y-74137000D02*
X78934000Y-74792000D01*
X77764000Y-75467000D02*
X77764000Y-74137000D01*
X78934000Y-74792000D02*
X77764000Y-75467000D01*
X78934000Y-75457000D02*
X78934000Y-74127000D01*
D13*
X81594000Y-75757000D02*
X83304000Y-75757000D01*
X81614000Y-73797000D02*
X83314000Y-73797000D01*
X83314000Y-75747000D02*
X83314000Y-73797000D01*
D10*
%TO.C,D33*%
X161364000Y-132007000D02*
X162534000Y-132662000D01*
X161364000Y-133337000D02*
X161364000Y-132007000D01*
X162534000Y-132662000D02*
X161364000Y-133337000D01*
X162534000Y-133327000D02*
X162534000Y-131997000D01*
D13*
X165194000Y-133627000D02*
X166904000Y-133627000D01*
X165214000Y-131667000D02*
X166914000Y-131667000D01*
X166914000Y-133617000D02*
X166914000Y-131667000D01*
D12*
%TO.C,JP2*%
X82964000Y-144647000D02*
X84964000Y-144647000D01*
X82964000Y-147447000D02*
X82964000Y-144647000D01*
X84964000Y-144647000D02*
X84964000Y-147447000D01*
X84964000Y-147447000D02*
X82964000Y-147447000D01*
D10*
%TO.C,D16*%
X90794000Y-112117000D02*
X91964000Y-112772000D01*
X90794000Y-113447000D02*
X90794000Y-112117000D01*
X91964000Y-112772000D02*
X90794000Y-113447000D01*
X91964000Y-113437000D02*
X91964000Y-112107000D01*
D13*
X94624000Y-113737000D02*
X96334000Y-113737000D01*
X94644000Y-111777000D02*
X96344000Y-111777000D01*
X96344000Y-113727000D02*
X96344000Y-111777000D01*
D12*
%TO.C,JP3*%
X102574000Y-136037000D02*
X105374000Y-136037000D01*
X102574000Y-138037000D02*
X102574000Y-136037000D01*
X105374000Y-136037000D02*
X105374000Y-138037000D01*
X105374000Y-138037000D02*
X102574000Y-138037000D01*
D10*
%TO.C,D15*%
X86101500Y-55118250D02*
X87271500Y-55773250D01*
X86101500Y-56448250D02*
X86101500Y-55118250D01*
X87271500Y-55773250D02*
X86101500Y-56448250D01*
X87271500Y-56438250D02*
X87271500Y-55108250D01*
D13*
X89931500Y-56738250D02*
X91641500Y-56738250D01*
X89951500Y-54778250D02*
X91651500Y-54778250D01*
X91651500Y-56728250D02*
X91651500Y-54778250D01*
D10*
%TO.C,D28*%
X135184000Y-74047000D02*
X136354000Y-74702000D01*
X135184000Y-75377000D02*
X135184000Y-74047000D01*
X136354000Y-74702000D02*
X135184000Y-75377000D01*
X136354000Y-75367000D02*
X136354000Y-74037000D01*
D13*
X139014000Y-75667000D02*
X140724000Y-75667000D01*
X139034000Y-73707000D02*
X140734000Y-73707000D01*
X140734000Y-75657000D02*
X140734000Y-73707000D01*
D10*
%TO.C,D9*%
X63354000Y-93047000D02*
X64524000Y-93702000D01*
X63354000Y-94377000D02*
X63354000Y-93047000D01*
X64524000Y-93702000D02*
X63354000Y-94377000D01*
X64524000Y-94367000D02*
X64524000Y-93037000D01*
D13*
X67184000Y-94667000D02*
X68894000Y-94667000D01*
X67204000Y-92707000D02*
X68904000Y-92707000D01*
X68904000Y-94657000D02*
X68904000Y-92707000D01*
D10*
%TO.C,D30*%
X139701500Y-93078250D02*
X140871500Y-93733250D01*
X139701500Y-94408250D02*
X139701500Y-93078250D01*
X140871500Y-93733250D02*
X139701500Y-94408250D01*
X140871500Y-94398250D02*
X140871500Y-93068250D01*
D13*
X143531500Y-94698250D02*
X145241500Y-94698250D01*
X143551500Y-92738250D02*
X145251500Y-92738250D01*
X145251500Y-94688250D02*
X145251500Y-92738250D01*
D10*
%TO.C,D3*%
X37094000Y-93077000D02*
X38264000Y-93732000D01*
X37094000Y-94407000D02*
X37094000Y-93077000D01*
X38264000Y-93732000D02*
X37094000Y-94407000D01*
X38264000Y-94397000D02*
X38264000Y-93067000D01*
D13*
X40924000Y-94697000D02*
X42634000Y-94697000D01*
X40944000Y-92737000D02*
X42644000Y-92737000D01*
X42644000Y-94687000D02*
X42644000Y-92737000D01*
D10*
%TO.C,D27*%
X129814000Y-112167000D02*
X130984000Y-112822000D01*
X129814000Y-113497000D02*
X129814000Y-112167000D01*
X130984000Y-112822000D02*
X129814000Y-113497000D01*
X130984000Y-113487000D02*
X130984000Y-112157000D01*
D13*
X133644000Y-113787000D02*
X135354000Y-113787000D01*
X133664000Y-111827000D02*
X135364000Y-111827000D01*
X135364000Y-113777000D02*
X135364000Y-111827000D01*
D10*
%TO.C,D11*%
X72694000Y-112197000D02*
X73864000Y-112852000D01*
X72694000Y-113527000D02*
X72694000Y-112197000D01*
X73864000Y-112852000D02*
X72694000Y-113527000D01*
X73864000Y-113517000D02*
X73864000Y-112187000D01*
D13*
X76524000Y-113817000D02*
X78234000Y-113817000D01*
X76544000Y-111857000D02*
X78244000Y-111857000D01*
X78244000Y-113807000D02*
X78244000Y-111857000D01*
D10*
%TO.C,D2*%
X34881500Y-74138250D02*
X36051500Y-74793250D01*
X34881500Y-75468250D02*
X34881500Y-74138250D01*
X36051500Y-74793250D02*
X34881500Y-75468250D01*
X36051500Y-75458250D02*
X36051500Y-74128250D01*
D13*
X38711500Y-75758250D02*
X40421500Y-75758250D01*
X38731500Y-73798250D02*
X40431500Y-73798250D01*
X40431500Y-75748250D02*
X40431500Y-73798250D01*
D10*
%TO.C,D35*%
X173453134Y-136270897D02*
X174118134Y-135119083D01*
X174118134Y-135119083D02*
X174803884Y-136271330D01*
X174471384Y-136847237D02*
X175136384Y-135695423D01*
X174803884Y-136271330D02*
X173453134Y-136270897D01*
D13*
X176625011Y-138437045D02*
X178105915Y-139292045D01*
X177622332Y-136749635D02*
X179094575Y-137599635D01*
X178119575Y-139288384D02*
X179094575Y-137599635D01*
D10*
%TO.C,D22*%
X110601500Y-112118250D02*
X111771500Y-112773250D01*
X110601500Y-113448250D02*
X110601500Y-112118250D01*
X111771500Y-112773250D02*
X110601500Y-113448250D01*
X111771500Y-113438250D02*
X111771500Y-112108250D01*
D13*
X114431500Y-113738250D02*
X116141500Y-113738250D01*
X114451500Y-111778250D02*
X116151500Y-111778250D01*
X116151500Y-113728250D02*
X116151500Y-111778250D01*
D12*
%TO.C,begin1*%
X126974000Y-144528252D02*
X126974000Y-142205748D01*
X130394000Y-144528252D02*
X130394000Y-142205748D01*
D10*
%TO.C,D18*%
X101564000Y-93027000D02*
X102734000Y-93682000D01*
X101564000Y-94357000D02*
X101564000Y-93027000D01*
X102734000Y-93682000D02*
X101564000Y-94357000D01*
X102734000Y-94347000D02*
X102734000Y-93017000D01*
D13*
X105394000Y-94647000D02*
X107104000Y-94647000D01*
X105414000Y-92687000D02*
X107114000Y-92687000D01*
X107114000Y-94637000D02*
X107114000Y-92687000D01*
D10*
%TO.C,D26*%
X130451500Y-131438250D02*
X131621500Y-132093250D01*
X130451500Y-132768250D02*
X130451500Y-131438250D01*
X131621500Y-132093250D02*
X130451500Y-132768250D01*
X131621500Y-132758250D02*
X131621500Y-131428250D01*
D13*
X134281500Y-133058250D02*
X135991500Y-133058250D01*
X134301500Y-131098250D02*
X136001500Y-131098250D01*
X136001500Y-133048250D02*
X136001500Y-131098250D01*
D10*
%TO.C,D14*%
X82514000Y-93117000D02*
X83684000Y-93772000D01*
X82514000Y-94447000D02*
X82514000Y-93117000D01*
X83684000Y-93772000D02*
X82514000Y-94447000D01*
X83684000Y-94437000D02*
X83684000Y-93107000D01*
D13*
X86344000Y-94737000D02*
X88054000Y-94737000D01*
X86364000Y-92777000D02*
X88064000Y-92777000D01*
X88064000Y-94727000D02*
X88064000Y-92777000D01*
D10*
%TO.C,D17*%
X93944000Y-74227000D02*
X95114000Y-74882000D01*
X93944000Y-75557000D02*
X93944000Y-74227000D01*
X95114000Y-74882000D02*
X93944000Y-75557000D01*
X95114000Y-75547000D02*
X95114000Y-74217000D01*
D13*
X97774000Y-75847000D02*
X99484000Y-75847000D01*
X97794000Y-73887000D02*
X99494000Y-73887000D01*
X99494000Y-75837000D02*
X99494000Y-73887000D01*
D10*
%TO.C,D32*%
X148834000Y-112167000D02*
X150004000Y-112822000D01*
X148834000Y-113497000D02*
X148834000Y-112167000D01*
X150004000Y-112822000D02*
X148834000Y-113497000D01*
X150004000Y-113487000D02*
X150004000Y-112157000D01*
D13*
X152664000Y-113787000D02*
X154374000Y-113787000D01*
X152684000Y-111827000D02*
X154384000Y-111827000D01*
X154384000Y-113777000D02*
X154384000Y-111827000D01*
D10*
%TO.C,D1*%
X29804000Y-54917000D02*
X30974000Y-55572000D01*
X29804000Y-56247000D02*
X29804000Y-54917000D01*
X30974000Y-55572000D02*
X29804000Y-56247000D01*
X30974000Y-56237000D02*
X30974000Y-54907000D01*
D13*
X33634000Y-56537000D02*
X35344000Y-56537000D01*
X33654000Y-54577000D02*
X35354000Y-54577000D01*
X35354000Y-56527000D02*
X35354000Y-54577000D01*
D10*
%TO.C,D8*%
X57994000Y-74137000D02*
X59164000Y-74792000D01*
X57994000Y-75467000D02*
X57994000Y-74137000D01*
X59164000Y-74792000D02*
X57994000Y-75467000D01*
X59164000Y-75457000D02*
X59164000Y-74127000D01*
D13*
X61824000Y-75757000D02*
X63534000Y-75757000D01*
X61844000Y-73797000D02*
X63544000Y-73797000D01*
X63544000Y-75747000D02*
X63544000Y-73797000D01*
%TO.C,D13*%
X77884000Y-130997000D02*
X77884000Y-132947000D01*
X79584000Y-132947000D02*
X77884000Y-132947000D01*
X79604000Y-130987000D02*
X77894000Y-130987000D01*
D10*
X82264000Y-131287000D02*
X82264000Y-132617000D01*
X82264000Y-131952000D02*
X83434000Y-131277000D01*
X83434000Y-131277000D02*
X83434000Y-132607000D01*
X83434000Y-132607000D02*
X82264000Y-131952000D01*
D13*
%TO.C,D7*%
X67562750Y-128394500D02*
X67562750Y-130104500D01*
X67572750Y-130114500D02*
X69522750Y-130114500D01*
D10*
X67852750Y-124564500D02*
X69182750Y-124564500D01*
X67862750Y-125734500D02*
X69192750Y-125734500D01*
X68527750Y-125734500D02*
X67852750Y-124564500D01*
X69182750Y-124564500D02*
X68527750Y-125734500D01*
D13*
X69522750Y-128414500D02*
X69522750Y-130114500D01*
D10*
%TO.C,D24*%
X120734000Y-93147000D02*
X121904000Y-93802000D01*
X120734000Y-94477000D02*
X120734000Y-93147000D01*
X121904000Y-93802000D02*
X120734000Y-94477000D01*
X121904000Y-94467000D02*
X121904000Y-93137000D01*
D13*
X124564000Y-94767000D02*
X126274000Y-94767000D01*
X124584000Y-92807000D02*
X126284000Y-92807000D01*
X126284000Y-94757000D02*
X126284000Y-92807000D01*
D10*
%TO.C,D4*%
X43011500Y-130418250D02*
X44181500Y-131073250D01*
X43011500Y-131748250D02*
X43011500Y-130418250D01*
X44181500Y-131073250D02*
X43011500Y-131748250D01*
X44181500Y-131738250D02*
X44181500Y-130408250D01*
D13*
X46841500Y-132038250D02*
X48551500Y-132038250D01*
X46861500Y-130078250D02*
X48561500Y-130078250D01*
X48561500Y-132028250D02*
X48561500Y-130078250D01*
D10*
%TO.C,D25*%
X121014000Y-55037000D02*
X122184000Y-55692000D01*
X121014000Y-56367000D02*
X121014000Y-55037000D01*
X122184000Y-55692000D02*
X121014000Y-56367000D01*
X122184000Y-56357000D02*
X122184000Y-55027000D01*
D13*
X124844000Y-56657000D02*
X126554000Y-56657000D01*
X124864000Y-54697000D02*
X126564000Y-54697000D01*
X126564000Y-56647000D02*
X126564000Y-54697000D01*
D12*
%TO.C,end1*%
X99534000Y-32625748D02*
X99534000Y-34948252D01*
X102954000Y-32625748D02*
X102954000Y-34948252D01*
D10*
%TO.C,D29*%
X131824000Y-150657000D02*
X132994000Y-151312000D01*
X131824000Y-151987000D02*
X131824000Y-150657000D01*
X132994000Y-151312000D02*
X131824000Y-151987000D01*
X132994000Y-151977000D02*
X132994000Y-150647000D01*
D13*
X135654000Y-152277000D02*
X137364000Y-152277000D01*
X135674000Y-150317000D02*
X137374000Y-150317000D01*
X137374000Y-152267000D02*
X137374000Y-150317000D01*
D10*
%TO.C,D23*%
X115384000Y-73947000D02*
X116554000Y-74602000D01*
X115384000Y-75277000D02*
X115384000Y-73947000D01*
X116554000Y-74602000D02*
X115384000Y-75277000D01*
X116554000Y-75267000D02*
X116554000Y-73937000D01*
D13*
X119214000Y-75567000D02*
X120924000Y-75567000D01*
X119234000Y-73607000D02*
X120934000Y-73607000D01*
X120934000Y-75557000D02*
X120934000Y-73607000D01*
D10*
%TO.C,D5*%
X41981699Y-112285035D02*
X43151699Y-112940035D01*
X41981699Y-113615035D02*
X41981699Y-112285035D01*
X43151699Y-112940035D02*
X41981699Y-113615035D01*
X43151699Y-113605035D02*
X43151699Y-112275035D01*
D13*
X45811699Y-113905035D02*
X47521699Y-113905035D01*
X45831699Y-111945035D02*
X47531699Y-111945035D01*
X47531699Y-113895035D02*
X47531699Y-111945035D01*
D10*
%TO.C,D21*%
X95853000Y-131617000D02*
X97023000Y-132272000D01*
X95853000Y-132947000D02*
X95853000Y-131617000D01*
X97023000Y-132272000D02*
X95853000Y-132947000D01*
X97023000Y-132937000D02*
X97023000Y-131607000D01*
D13*
X99683000Y-133237000D02*
X101393000Y-133237000D01*
X99703000Y-131277000D02*
X101403000Y-131277000D01*
X101403000Y-133227000D02*
X101403000Y-131277000D01*
D10*
%TO.C,D20*%
X110991500Y-151268250D02*
X112161500Y-151923250D01*
X110991500Y-152598250D02*
X110991500Y-151268250D01*
X112161500Y-151923250D02*
X110991500Y-152598250D01*
X112161500Y-152588250D02*
X112161500Y-151258250D01*
D13*
X114821500Y-152888250D02*
X116531500Y-152888250D01*
X114841500Y-150928250D02*
X116541500Y-150928250D01*
X116541500Y-152878250D02*
X116541500Y-150928250D01*
D10*
%TO.C,D31*%
X133611500Y-54978250D02*
X134781500Y-55633250D01*
X133611500Y-56308250D02*
X133611500Y-54978250D01*
X134781500Y-55633250D02*
X133611500Y-56308250D01*
X134781500Y-56298250D02*
X134781500Y-54968250D01*
D13*
X137441500Y-56598250D02*
X139151500Y-56598250D01*
X137461500Y-54638250D02*
X139161500Y-54638250D01*
X139161500Y-56588250D02*
X139161500Y-54638250D01*
D10*
%TO.C,D19*%
X105474000Y-55057000D02*
X106644000Y-55712000D01*
X105474000Y-56387000D02*
X105474000Y-55057000D01*
X106644000Y-55712000D02*
X105474000Y-56387000D01*
X106644000Y-56377000D02*
X106644000Y-55047000D01*
D13*
X109304000Y-56677000D02*
X111014000Y-56677000D01*
X109324000Y-54717000D02*
X111024000Y-54717000D01*
X111024000Y-56667000D02*
X111024000Y-54717000D01*
D12*
%TO.C,TP5*%
X86924000Y-147187000D02*
X86924000Y-149847000D01*
X86924000Y-147187000D02*
X86984000Y-147187000D01*
X86924000Y-149847000D02*
X86984000Y-149847000D01*
X86984000Y-147187000D02*
X86984000Y-149847000D01*
X89584000Y-148517000D02*
X89584000Y-149847000D01*
X89584000Y-149847000D02*
X88254000Y-149847000D01*
D10*
%TO.C,D34*%
X167631500Y-112168250D02*
X168801500Y-112823250D01*
X167631500Y-113498250D02*
X167631500Y-112168250D01*
X168801500Y-112823250D02*
X167631500Y-113498250D01*
X168801500Y-113488250D02*
X168801500Y-112158250D01*
D13*
X171461500Y-113788250D02*
X173171500Y-113788250D01*
X171481500Y-111828250D02*
X173181500Y-111828250D01*
X173181500Y-113778250D02*
X173181500Y-111828250D01*
D12*
%TO.C,JP1*%
X78964000Y-144577000D02*
X80964000Y-144577000D01*
X78964000Y-147377000D02*
X78964000Y-144577000D01*
X80964000Y-144577000D02*
X80964000Y-147377000D01*
X80964000Y-147377000D02*
X78964000Y-147377000D01*
D10*
%TO.C,D10*%
X68154000Y-55017000D02*
X69324000Y-55672000D01*
X68154000Y-56347000D02*
X68154000Y-55017000D01*
X69324000Y-55672000D02*
X68154000Y-56347000D01*
X69324000Y-56337000D02*
X69324000Y-55007000D01*
D13*
X71984000Y-56637000D02*
X73694000Y-56637000D01*
X72004000Y-54677000D02*
X73704000Y-54677000D01*
X73704000Y-56627000D02*
X73704000Y-54677000D01*
%TD*%
%LPC*%
D14*
%TO.C,TP2*%
X69744000Y-36747000D03*
%TD*%
D15*
%TO.C,S34*%
X173829000Y-104157000D03*
D16*
X172559000Y-106697000D03*
D17*
X168749000Y-104157000D03*
D16*
X166209000Y-109237000D03*
D15*
X163669000Y-104157000D03*
D18*
X175834000Y-106697000D03*
X162907000Y-109237000D03*
%TD*%
D14*
%TO.C,TP4*%
X89495000Y-36788000D03*
%TD*%
D15*
%TO.C,S17*%
X102429000Y-66067000D03*
D16*
X101159000Y-68607000D03*
D17*
X97349000Y-66067000D03*
D16*
X94809000Y-71147000D03*
D15*
X92269000Y-66067000D03*
D18*
X104434000Y-68607000D03*
X91507000Y-71147000D03*
%TD*%
D15*
%TO.C,S8*%
X64349000Y-66067000D03*
D16*
X63079000Y-68607000D03*
D17*
X59269000Y-66067000D03*
D16*
X56729000Y-71147000D03*
D15*
X54189000Y-66067000D03*
D18*
X66354000Y-68607000D03*
X53427000Y-71147000D03*
%TD*%
D15*
%TO.C,S3*%
X42927750Y-85107000D03*
D16*
X41657750Y-87647000D03*
D17*
X37847750Y-85107000D03*
D16*
X35307750Y-90187000D03*
D15*
X32767750Y-85107000D03*
D18*
X44932750Y-87647000D03*
X32005750Y-90187000D03*
%TD*%
D15*
%TO.C,S11*%
X78629000Y-104157000D03*
D16*
X77359000Y-106697000D03*
D17*
X73549000Y-104157000D03*
D16*
X71009000Y-109237000D03*
D15*
X68469000Y-104157000D03*
D18*
X80634000Y-106697000D03*
X67707000Y-109237000D03*
%TD*%
D15*
%TO.C,S4*%
X38165250Y-123187000D03*
D16*
X36895250Y-125727000D03*
D17*
X33085250Y-123187000D03*
D16*
X30545250Y-128267000D03*
D15*
X28005250Y-123187000D03*
D18*
X40170250Y-125727000D03*
X27243250Y-128267000D03*
%TD*%
D15*
%TO.C,S13*%
X85765250Y-123187000D03*
D16*
X84495250Y-125727000D03*
D17*
X80685250Y-123187000D03*
D16*
X78145250Y-128267000D03*
D15*
X75605250Y-123187000D03*
D18*
X87770250Y-125727000D03*
X74843250Y-128267000D03*
%TD*%
D15*
%TO.C,S16*%
X97669000Y-104157000D03*
D16*
X96399000Y-106697000D03*
D17*
X92589000Y-104157000D03*
D16*
X90049000Y-109237000D03*
D15*
X87509000Y-104157000D03*
D18*
X99674000Y-106697000D03*
X86747000Y-109237000D03*
%TD*%
D19*
%TO.C,U1*%
X25004000Y-147242000D03*
D20*
X28034000Y-146942000D03*
X28034000Y-142092000D03*
D19*
X25004000Y-141792000D03*
D21*
X24874000Y-153407000D03*
X27414000Y-153407000D03*
D14*
X29954000Y-153407000D03*
D21*
X32494000Y-153407000D03*
X35034000Y-153407000D03*
X37574000Y-153407000D03*
X40114000Y-153407000D03*
D14*
X42654000Y-153407000D03*
D21*
X45194000Y-153407000D03*
X47734000Y-153407000D03*
X50274000Y-153407000D03*
X52814000Y-153407000D03*
D14*
X55354000Y-153407000D03*
D21*
X57894000Y-153407000D03*
X60434000Y-153407000D03*
X62974000Y-153407000D03*
X65514000Y-153407000D03*
D14*
X68054000Y-153407000D03*
D21*
X70594000Y-153407000D03*
X73134000Y-153407000D03*
X73134000Y-135627000D03*
X70594000Y-135627000D03*
D14*
X68054000Y-135627000D03*
D21*
X65514000Y-135627000D03*
X62974000Y-135627000D03*
X60434000Y-135627000D03*
X57894000Y-135627000D03*
D14*
X55354000Y-135627000D03*
D21*
X52814000Y-135627000D03*
X50274000Y-135627000D03*
X47734000Y-135627000D03*
X45194000Y-135627000D03*
D14*
X42654000Y-135627000D03*
D21*
X40114000Y-135627000D03*
X37574000Y-135627000D03*
X35034000Y-135627000D03*
X32494000Y-135627000D03*
D14*
X29954000Y-135627000D03*
D21*
X27414000Y-135627000D03*
X24874000Y-135627000D03*
X72904000Y-147057000D03*
D14*
X72904000Y-144517000D03*
D21*
X72904000Y-141977000D03*
%TD*%
D15*
%TO.C,S21*%
X109565250Y-123187000D03*
D16*
X108295250Y-125727000D03*
D17*
X104485250Y-123187000D03*
D16*
X101945250Y-128267000D03*
D15*
X99405250Y-123187000D03*
D18*
X111570250Y-125727000D03*
X98643250Y-128267000D03*
%TD*%
D15*
%TO.C,S22*%
X116709000Y-104157000D03*
D16*
X115439000Y-106697000D03*
D17*
X111629000Y-104157000D03*
D16*
X109089000Y-109237000D03*
D15*
X106549000Y-104157000D03*
D18*
X118714000Y-106697000D03*
X105787000Y-109237000D03*
%TD*%
D15*
%TO.C,S7*%
X61965250Y-123187000D03*
D16*
X60695250Y-125727000D03*
D17*
X56885250Y-123187000D03*
D16*
X54345250Y-128267000D03*
D15*
X51805250Y-123187000D03*
D18*
X63970250Y-125727000D03*
X51043250Y-128267000D03*
%TD*%
D15*
%TO.C,S5*%
X47690250Y-104157000D03*
D16*
X46420250Y-106697000D03*
D17*
X42610250Y-104157000D03*
D16*
X40070250Y-109237000D03*
D15*
X37530250Y-104157000D03*
D18*
X49695250Y-106697000D03*
X36768250Y-109237000D03*
%TD*%
D15*
%TO.C,S27*%
X135749000Y-104157000D03*
D16*
X134479000Y-106697000D03*
D17*
X130669000Y-104157000D03*
D16*
X128129000Y-109237000D03*
D15*
X125589000Y-104157000D03*
D18*
X137754000Y-106697000D03*
X124827000Y-109237000D03*
%TD*%
D15*
%TO.C,S28*%
X140509000Y-66067000D03*
D16*
X139239000Y-68607000D03*
D17*
X135429000Y-66067000D03*
D16*
X132889000Y-71147000D03*
D15*
X130349000Y-66067000D03*
D18*
X142514000Y-68607000D03*
X129587000Y-71147000D03*
%TD*%
D22*
%TO.C,U2*%
X118599000Y-24102000D03*
X118599000Y-31102000D03*
D23*
X116299000Y-33802000D03*
X120899000Y-32702000D03*
X120899000Y-28702000D03*
X120899000Y-25702000D03*
%TD*%
D24*
%TO.C,S29*%
X146199000Y-141202000D03*
D25*
X140699000Y-141202000D03*
D24*
X135199000Y-141202000D03*
D26*
X140699000Y-147102000D03*
X135699000Y-145002000D03*
%TD*%
D24*
%TO.C,S20*%
X121449000Y-141202000D03*
D25*
X115949000Y-141202000D03*
D24*
X110449000Y-141202000D03*
D26*
X115949000Y-147102000D03*
X110949000Y-145002000D03*
%TD*%
%TO.C,H3*%
X62621000Y-104157000D03*
%TD*%
D15*
%TO.C,S23*%
X121469000Y-66067000D03*
D16*
X120199000Y-68607000D03*
D17*
X116389000Y-66067000D03*
D16*
X113849000Y-71147000D03*
D15*
X111309000Y-66067000D03*
D18*
X123474000Y-68607000D03*
X110547000Y-71147000D03*
%TD*%
D15*
%TO.C,S32*%
X154789000Y-104157000D03*
D16*
X153519000Y-106697000D03*
D17*
X149709000Y-104157000D03*
D16*
X147169000Y-109237000D03*
D15*
X144629000Y-104157000D03*
D18*
X156794000Y-106697000D03*
X143867000Y-109237000D03*
%TD*%
D15*
%TO.C,S9*%
X69104000Y-85107000D03*
D16*
X67834000Y-87647000D03*
D17*
X64024000Y-85107000D03*
D16*
X61484000Y-90187000D03*
D15*
X58944000Y-85107000D03*
D18*
X71109000Y-87647000D03*
X58182000Y-90187000D03*
%TD*%
D15*
%TO.C,S2*%
X40546500Y-66057000D03*
D16*
X39276500Y-68597000D03*
D17*
X35466500Y-66057000D03*
D16*
X32926500Y-71137000D03*
D15*
X30386500Y-66057000D03*
D18*
X42551500Y-68597000D03*
X29624500Y-71137000D03*
%TD*%
D26*
%TO.C,H2*%
X125914000Y-65067000D03*
%TD*%
%TO.C,H1*%
X47367500Y-66057000D03*
%TD*%
D27*
%TO.C,D6*%
X53774000Y-55537000D03*
D28*
X51674000Y-55537000D03*
X47874000Y-55537000D03*
D29*
X45774000Y-55537000D03*
%TD*%
D15*
%TO.C,S19*%
X111944000Y-47017000D03*
D16*
X110674000Y-49557000D03*
D17*
X106864000Y-47017000D03*
D16*
X104324000Y-52097000D03*
D15*
X101784000Y-47017000D03*
D18*
X113949000Y-49557000D03*
X101022000Y-52097000D03*
%TD*%
D15*
%TO.C,S18*%
X107184000Y-85107000D03*
D16*
X105914000Y-87647000D03*
D17*
X102104000Y-85107000D03*
D16*
X99564000Y-90187000D03*
D15*
X97024000Y-85107000D03*
D18*
X109189000Y-87647000D03*
X96262000Y-90187000D03*
%TD*%
D15*
%TO.C,S12*%
X83389000Y-66067000D03*
D16*
X82119000Y-68607000D03*
D17*
X78309000Y-66067000D03*
D16*
X75769000Y-71147000D03*
D15*
X73229000Y-66067000D03*
D18*
X85394000Y-68607000D03*
X72467000Y-71147000D03*
%TD*%
D15*
%TO.C,S10*%
X73864000Y-47017000D03*
D16*
X72594000Y-49557000D03*
D17*
X68784000Y-47017000D03*
D16*
X66244000Y-52097000D03*
D15*
X63704000Y-47017000D03*
D18*
X75869000Y-49557000D03*
X62942000Y-52097000D03*
%TD*%
D15*
%TO.C,S15*%
X92904000Y-47017000D03*
D16*
X91634000Y-49557000D03*
D17*
X87824000Y-47017000D03*
D16*
X85284000Y-52097000D03*
D15*
X82744000Y-47017000D03*
D18*
X94909000Y-49557000D03*
X81982000Y-52097000D03*
%TD*%
D15*
%TO.C,S26*%
X138127750Y-123187000D03*
D16*
X136857750Y-125727000D03*
D17*
X133047750Y-123187000D03*
D16*
X130507750Y-128267000D03*
D15*
X127967750Y-123187000D03*
D18*
X140132750Y-125727000D03*
X127205750Y-128267000D03*
%TD*%
D15*
%TO.C,S25*%
X130984000Y-47017000D03*
D16*
X129714000Y-49557000D03*
D17*
X125904000Y-47017000D03*
D16*
X123364000Y-52097000D03*
D15*
X120824000Y-47017000D03*
D18*
X132989000Y-49557000D03*
X120062000Y-52097000D03*
%TD*%
D15*
%TO.C,S30*%
X145264000Y-85107000D03*
D16*
X143994000Y-87647000D03*
D17*
X140184000Y-85107000D03*
D16*
X137644000Y-90187000D03*
D15*
X135104000Y-85107000D03*
D18*
X147269000Y-87647000D03*
X134342000Y-90187000D03*
%TD*%
D15*
%TO.C,S1*%
X35784000Y-47017000D03*
D16*
X34514000Y-49557000D03*
D17*
X30704000Y-47017000D03*
D16*
X28164000Y-52097000D03*
D15*
X25624000Y-47017000D03*
D18*
X37789000Y-49557000D03*
X24862000Y-52097000D03*
%TD*%
D15*
%TO.C,S33*%
X164304000Y-123187000D03*
D16*
X163034000Y-125727000D03*
D17*
X159224000Y-123187000D03*
D16*
X156684000Y-128267000D03*
D15*
X154144000Y-123187000D03*
D18*
X166309000Y-125727000D03*
X153382000Y-128267000D03*
%TD*%
D15*
%TO.C,S14*%
X88144000Y-85107000D03*
D16*
X86874000Y-87647000D03*
D17*
X83064000Y-85107000D03*
D16*
X80524000Y-90187000D03*
D15*
X77984000Y-85107000D03*
D18*
X90149000Y-87647000D03*
X77222000Y-90187000D03*
%TD*%
D14*
%TO.C,TP1*%
X76674000Y-36767000D03*
%TD*%
%TO.C,TP3*%
X83845000Y-36788000D03*
%TD*%
D15*
%TO.C,S6*%
X54824000Y-47017000D03*
D16*
X53554000Y-49557000D03*
D17*
X49744000Y-47017000D03*
D16*
X47204000Y-52097000D03*
D15*
X44664000Y-47017000D03*
D18*
X56829000Y-49557000D03*
X43902000Y-52097000D03*
%TD*%
D15*
%TO.C,S24*%
X126224000Y-85107000D03*
D16*
X124954000Y-87647000D03*
D17*
X121144000Y-85107000D03*
D16*
X118604000Y-90187000D03*
D15*
X116064000Y-85107000D03*
D18*
X128229000Y-87647000D03*
X115302000Y-90187000D03*
%TD*%
D26*
%TO.C,H4*%
X146135750Y-123187000D03*
%TD*%
D15*
%TO.C,S35*%
X189185409Y-132165000D03*
D16*
X186815557Y-133729705D03*
D17*
X184786000Y-129625000D03*
D16*
X180046295Y-132754409D03*
D15*
X180386591Y-127085000D03*
D30*
X189651790Y-135367205D03*
X177186680Y-131103409D03*
%TD*%
D15*
%TO.C,S31*%
X150024000Y-47017000D03*
D16*
X148754000Y-49557000D03*
D17*
X144944000Y-47017000D03*
D16*
X142404000Y-52097000D03*
D15*
X139864000Y-47017000D03*
D18*
X152029000Y-49557000D03*
X139102000Y-52097000D03*
%TD*%
D27*
%TO.C,D36*%
X36111500Y-131418250D03*
D31*
X34061500Y-131418250D03*
D28*
X30211500Y-131418250D03*
D29*
X28111500Y-131418250D03*
%TD*%
D32*
%TO.C,LED9*%
X61324000Y-79408000D03*
X61324000Y-80908000D03*
X66724000Y-80908000D03*
X66724000Y-79408000D03*
%TD*%
D27*
%TO.C,D12*%
X82314000Y-74787000D03*
D31*
X80264000Y-74787000D03*
D28*
X76414000Y-74787000D03*
D29*
X74314000Y-74787000D03*
%TD*%
D27*
%TO.C,D33*%
X165914000Y-132657000D03*
D31*
X163864000Y-132657000D03*
D28*
X160014000Y-132657000D03*
D29*
X157914000Y-132657000D03*
%TD*%
D33*
%TO.C,JP2*%
X83964000Y-146697000D03*
X83964000Y-145397000D03*
%TD*%
D27*
%TO.C,D16*%
X95344000Y-112767000D03*
D31*
X93294000Y-112767000D03*
D28*
X89444000Y-112767000D03*
D29*
X87344000Y-112767000D03*
%TD*%
D32*
%TO.C,LED21*%
X101785250Y-117498000D03*
X101785250Y-118998000D03*
X107185250Y-118998000D03*
X107185250Y-117498000D03*
%TD*%
D34*
%TO.C,LED35*%
X185292231Y-123348182D03*
X184542231Y-124647220D03*
X189218769Y-127347220D03*
X189968769Y-126048182D03*
%TD*%
D35*
%TO.C,JP3*%
X103324000Y-137037000D03*
X104624000Y-137037000D03*
%TD*%
D36*
%TO.C,LED8*%
X61964000Y-61868000D03*
X61964000Y-60368000D03*
X56564000Y-60368000D03*
X56564000Y-61868000D03*
%TD*%
D27*
%TO.C,D15*%
X90651500Y-55768250D03*
D31*
X88601500Y-55768250D03*
D28*
X84751500Y-55768250D03*
D29*
X82651500Y-55768250D03*
%TD*%
D27*
%TO.C,D28*%
X139734000Y-74697000D03*
D31*
X137684000Y-74697000D03*
D28*
X133834000Y-74697000D03*
D29*
X131734000Y-74697000D03*
%TD*%
D27*
%TO.C,D9*%
X67904000Y-93697000D03*
D31*
X65854000Y-93697000D03*
D28*
X62004000Y-93697000D03*
D29*
X59904000Y-93697000D03*
%TD*%
D27*
%TO.C,D30*%
X144251500Y-93728250D03*
D31*
X142201500Y-93728250D03*
D28*
X138351500Y-93728250D03*
D29*
X136251500Y-93728250D03*
%TD*%
D27*
%TO.C,D3*%
X41644000Y-93727000D03*
D31*
X39594000Y-93727000D03*
D28*
X35744000Y-93727000D03*
D29*
X33644000Y-93727000D03*
%TD*%
D27*
%TO.C,D27*%
X134364000Y-112817000D03*
D31*
X132314000Y-112817000D03*
D28*
X128464000Y-112817000D03*
D29*
X126364000Y-112817000D03*
%TD*%
D32*
%TO.C,LED30*%
X137484000Y-79408000D03*
X137484000Y-80908000D03*
X142884000Y-80908000D03*
X142884000Y-79408000D03*
%TD*%
%TO.C,LED31*%
X142244000Y-41328000D03*
X142244000Y-42828000D03*
X147644000Y-42828000D03*
X147644000Y-41328000D03*
%TD*%
D27*
%TO.C,D11*%
X77244000Y-112847000D03*
D31*
X75194000Y-112847000D03*
D28*
X71344000Y-112847000D03*
D29*
X69244000Y-112847000D03*
%TD*%
D32*
%TO.C,LED3*%
X35147750Y-79418000D03*
X35147750Y-80918000D03*
X40547750Y-80918000D03*
X40547750Y-79418000D03*
%TD*%
%TO.C,LED14*%
X80364000Y-79408000D03*
X80364000Y-80908000D03*
X85764000Y-80908000D03*
X85764000Y-79408000D03*
%TD*%
D27*
%TO.C,D2*%
X39431500Y-74788250D03*
D31*
X37381500Y-74788250D03*
D28*
X33531500Y-74788250D03*
D29*
X31431500Y-74788250D03*
%TD*%
D36*
%TO.C,LED12*%
X81004000Y-61868000D03*
X81004000Y-60368000D03*
X75604000Y-60368000D03*
X75604000Y-61868000D03*
%TD*%
D37*
%TO.C,D35*%
X177733550Y-137957000D03*
D38*
X175958198Y-136932000D03*
D39*
X172624000Y-135007000D03*
D29*
X170805346Y-133957000D03*
%TD*%
D27*
%TO.C,D22*%
X115151500Y-112768250D03*
D31*
X113101500Y-112768250D03*
D28*
X109251500Y-112768250D03*
D29*
X107151500Y-112768250D03*
%TD*%
D40*
%TO.C,begin1*%
X128684000Y-141229500D03*
X128684000Y-145504500D03*
%TD*%
D32*
%TO.C,LED10*%
X66084000Y-41328000D03*
X66084000Y-42828000D03*
X71484000Y-42828000D03*
X71484000Y-41328000D03*
%TD*%
D27*
%TO.C,D18*%
X106114000Y-93677000D03*
D31*
X104064000Y-93677000D03*
D28*
X100214000Y-93677000D03*
D29*
X98114000Y-93677000D03*
%TD*%
D32*
%TO.C,LED7*%
X54185250Y-117498000D03*
X54185250Y-118998000D03*
X59585250Y-118998000D03*
X59585250Y-117498000D03*
%TD*%
D27*
%TO.C,D26*%
X135001500Y-132088250D03*
D31*
X132951500Y-132088250D03*
D28*
X129101500Y-132088250D03*
D29*
X127001500Y-132088250D03*
%TD*%
D36*
%TO.C,LED20*%
X118649000Y-137013000D03*
X118649000Y-135513000D03*
X113249000Y-135513000D03*
X113249000Y-137013000D03*
%TD*%
%TO.C,LED28*%
X138124000Y-61868000D03*
X138124000Y-60368000D03*
X132724000Y-60368000D03*
X132724000Y-61868000D03*
%TD*%
D27*
%TO.C,D14*%
X87064000Y-93767000D03*
D31*
X85014000Y-93767000D03*
D28*
X81164000Y-93767000D03*
D29*
X79064000Y-93767000D03*
%TD*%
D27*
%TO.C,D17*%
X98494000Y-74877000D03*
D31*
X96444000Y-74877000D03*
D28*
X92594000Y-74877000D03*
D29*
X90494000Y-74877000D03*
%TD*%
D27*
%TO.C,D32*%
X153384000Y-112817000D03*
D31*
X151334000Y-112817000D03*
D28*
X147484000Y-112817000D03*
D29*
X145384000Y-112817000D03*
%TD*%
D36*
%TO.C,LED11*%
X76249000Y-99968000D03*
X76249000Y-98468000D03*
X70849000Y-98468000D03*
X70849000Y-99968000D03*
%TD*%
%TO.C,LED2*%
X38164000Y-61868000D03*
X38164000Y-60368000D03*
X32764000Y-60368000D03*
X32764000Y-61868000D03*
%TD*%
D27*
%TO.C,D1*%
X34354000Y-55567000D03*
D31*
X32304000Y-55567000D03*
D28*
X28454000Y-55567000D03*
D29*
X26354000Y-55567000D03*
%TD*%
D32*
%TO.C,LED18*%
X99404000Y-79408000D03*
X99404000Y-80908000D03*
X104804000Y-80908000D03*
X104804000Y-79408000D03*
%TD*%
%TO.C,LED4*%
X30385250Y-117498000D03*
X30385250Y-118998000D03*
X35785250Y-118998000D03*
X35785250Y-117498000D03*
%TD*%
D27*
%TO.C,D8*%
X62544000Y-74787000D03*
D31*
X60494000Y-74787000D03*
D28*
X56644000Y-74787000D03*
D29*
X54544000Y-74787000D03*
%TD*%
D27*
%TO.C,D13*%
X78884000Y-131957000D03*
D41*
X80934000Y-131957000D03*
D42*
X84784000Y-131957000D03*
D29*
X86884000Y-131957000D03*
%TD*%
D32*
%TO.C,LED19*%
X104164000Y-41328000D03*
X104164000Y-42828000D03*
X109564000Y-42828000D03*
X109564000Y-41328000D03*
%TD*%
D27*
%TO.C,D7*%
X68532750Y-129114500D03*
D43*
X68532750Y-127064500D03*
D44*
X68532750Y-123214500D03*
D29*
X68532750Y-121114500D03*
%TD*%
D36*
%TO.C,LED32*%
X152409000Y-99968000D03*
X152409000Y-98468000D03*
X147009000Y-98468000D03*
X147009000Y-99968000D03*
%TD*%
D27*
%TO.C,D24*%
X125284000Y-93797000D03*
D31*
X123234000Y-93797000D03*
D28*
X119384000Y-93797000D03*
D29*
X117284000Y-93797000D03*
%TD*%
D32*
%TO.C,LED13*%
X77985250Y-117498000D03*
X77985250Y-118998000D03*
X83385250Y-118998000D03*
X83385250Y-117498000D03*
%TD*%
D27*
%TO.C,D4*%
X47561500Y-131068250D03*
D31*
X45511500Y-131068250D03*
D28*
X41661500Y-131068250D03*
D29*
X39561500Y-131068250D03*
%TD*%
D27*
%TO.C,D25*%
X125564000Y-55687000D03*
D31*
X123514000Y-55687000D03*
D28*
X119664000Y-55687000D03*
D29*
X117564000Y-55687000D03*
%TD*%
D45*
%TO.C,end1*%
X101244000Y-35924500D03*
X101244000Y-31649500D03*
%TD*%
D46*
%TO.C,SW1*%
X91854000Y-146417000D03*
X98154000Y-146417000D03*
X91854000Y-142617000D03*
X98154000Y-142617000D03*
%TD*%
D27*
%TO.C,D29*%
X136374000Y-151307000D03*
D31*
X134324000Y-151307000D03*
D28*
X130474000Y-151307000D03*
D29*
X128374000Y-151307000D03*
%TD*%
D27*
%TO.C,D23*%
X119934000Y-74597000D03*
D31*
X117884000Y-74597000D03*
D28*
X114034000Y-74597000D03*
D29*
X111934000Y-74597000D03*
%TD*%
D32*
%TO.C,LED25*%
X123204000Y-41328000D03*
X123204000Y-42828000D03*
X128604000Y-42828000D03*
X128604000Y-41328000D03*
%TD*%
D27*
%TO.C,D5*%
X46531699Y-112935035D03*
D31*
X44481699Y-112935035D03*
D28*
X40631699Y-112935035D03*
D29*
X38531699Y-112935035D03*
%TD*%
D27*
%TO.C,D21*%
X100403000Y-132267000D03*
D31*
X98353000Y-132267000D03*
D28*
X94503000Y-132267000D03*
D29*
X92403000Y-132267000D03*
%TD*%
D32*
%TO.C,LED15*%
X85124000Y-41328000D03*
X85124000Y-42828000D03*
X90524000Y-42828000D03*
X90524000Y-41328000D03*
%TD*%
D27*
%TO.C,D20*%
X115541500Y-151918250D03*
D31*
X113491500Y-151918250D03*
D28*
X109641500Y-151918250D03*
D29*
X107541500Y-151918250D03*
%TD*%
D27*
%TO.C,D31*%
X138161500Y-55628250D03*
D31*
X136111500Y-55628250D03*
D28*
X132261500Y-55628250D03*
D29*
X130161500Y-55628250D03*
%TD*%
D36*
%TO.C,LED27*%
X133369000Y-99968000D03*
X133369000Y-98468000D03*
X127969000Y-98468000D03*
X127969000Y-99968000D03*
%TD*%
D27*
%TO.C,D19*%
X110024000Y-55707000D03*
D31*
X107974000Y-55707000D03*
D28*
X104124000Y-55707000D03*
D29*
X102024000Y-55707000D03*
%TD*%
D14*
%TO.C,TP5*%
X88254000Y-148517000D03*
%TD*%
D32*
%TO.C,LED6*%
X47044000Y-41328000D03*
X47044000Y-42828000D03*
X52444000Y-42828000D03*
X52444000Y-41328000D03*
%TD*%
%TO.C,LED26*%
X130345250Y-117498000D03*
X130345250Y-118998000D03*
X135745250Y-118998000D03*
X135745250Y-117498000D03*
%TD*%
D36*
%TO.C,LED5*%
X45310250Y-99968000D03*
X45310250Y-98468000D03*
X39910250Y-98468000D03*
X39910250Y-99968000D03*
%TD*%
D32*
%TO.C,LED33*%
X156524000Y-117498000D03*
X156524000Y-118998000D03*
X161924000Y-118998000D03*
X161924000Y-117498000D03*
%TD*%
D27*
%TO.C,D34*%
X172181500Y-112818250D03*
D31*
X170131500Y-112818250D03*
D28*
X166281500Y-112818250D03*
D29*
X164181500Y-112818250D03*
%TD*%
D36*
%TO.C,LED23*%
X119084000Y-61868000D03*
X119084000Y-60368000D03*
X113684000Y-60368000D03*
X113684000Y-61868000D03*
%TD*%
D32*
%TO.C,LED24*%
X118444000Y-79408000D03*
X118444000Y-80908000D03*
X123844000Y-80908000D03*
X123844000Y-79408000D03*
%TD*%
D36*
%TO.C,LED16*%
X95289000Y-99968000D03*
X95289000Y-98468000D03*
X89889000Y-98468000D03*
X89889000Y-99968000D03*
%TD*%
%TO.C,LED29*%
X143399000Y-137013000D03*
X143399000Y-135513000D03*
X137999000Y-135513000D03*
X137999000Y-137013000D03*
%TD*%
D33*
%TO.C,JP1*%
X79964000Y-146627000D03*
X79964000Y-145327000D03*
%TD*%
D36*
%TO.C,LED34*%
X171449000Y-99968000D03*
X171449000Y-98468000D03*
X166049000Y-98468000D03*
X166049000Y-99968000D03*
%TD*%
D32*
%TO.C,LED1*%
X28004000Y-41328000D03*
X28004000Y-42828000D03*
X33404000Y-42828000D03*
X33404000Y-41328000D03*
%TD*%
D36*
%TO.C,LED22*%
X114329000Y-99968000D03*
X114329000Y-98468000D03*
X108929000Y-98468000D03*
X108929000Y-99968000D03*
%TD*%
%TO.C,LED17*%
X100044000Y-61868000D03*
X100044000Y-60368000D03*
X94644000Y-60368000D03*
X94644000Y-61868000D03*
%TD*%
D27*
%TO.C,D10*%
X72704000Y-55667000D03*
D31*
X70654000Y-55667000D03*
D28*
X66804000Y-55667000D03*
D29*
X64704000Y-55667000D03*
%TD*%
%LPD*%
M02*
