M48
; DRILL file {KiCad 8.0.7} date 2025-06-02T16:21:18+0200
; FORMAT={-:-/ absolute / inch / decimal}
; #@! TF.CreationDate,2025-06-02T16:21:18+02:00
; #@! TF.GenerationSoftware,Kicad,Pcbnew,8.0.7
; #@! TF.FileFunction,NonPlated,1,2,NPTH
FMAT,2
INCH
; #@! TA.AperFunction,NonPlated,NPTH,ComponentDrill
T1C0.0315
; #@! TA.AperFunction,NonPlated,NPTH,ComponentDrill
T2C0.0591
; #@! TA.AperFunction,NonPlated,NPTH,ComponentDrill
T3C0.0689
; #@! TA.AperFunction,NonPlated,NPTH,ComponentDrill
T4C0.0709
; #@! TA.AperFunction,NonPlated,NPTH,ComponentDrill
T5C0.0748
; #@! TA.AperFunction,NonPlated,NPTH,ComponentDrill
T6C0.0866
; #@! TA.AperFunction,NonPlated,NPTH,ComponentDrill
T7C0.1201
; #@! TA.AperFunction,NonPlated,NPTH,ComponentDrill
T8C0.1358
; #@! TA.AperFunction,NonPlated,NPTH,ComponentDrill
T9C0.1575
%
G90
G05
T1
X4.6693Y-0.9489
X4.6693Y-1.2245
T2
X1.1037Y-5.5942
X1.1037Y-5.7851
T3
X1.0088Y-1.8511
X1.1026Y-4.8499
X1.1963Y-2.6007
X1.2901Y-3.3507
X1.4088Y-1.8511
X1.4776Y-4.1007
X1.5026Y-4.8499
X1.5963Y-2.6007
X1.6901Y-3.3507
X1.7584Y-1.8511
X1.8776Y-4.1007
X2.0396Y-4.8499
X2.1334Y-2.6011
X2.1584Y-1.8511
X2.3206Y-3.3507
X2.4396Y-4.8499
X2.508Y-1.8511
X2.5334Y-2.6011
X2.6956Y-4.1007
X2.7206Y-3.3507
X2.883Y-2.6011
X2.908Y-1.8511
X2.9766Y-4.8499
X3.0702Y-3.3507
X3.0956Y-4.1007
X3.2576Y-1.8511
X3.283Y-2.6011
X3.3766Y-4.8499
X3.4452Y-4.1007
X3.4702Y-3.3507
X3.6326Y-2.6011
X3.6576Y-1.8511
X3.8198Y-3.3507
X3.8452Y-4.1007
X3.9136Y-4.8499
X4.0072Y-1.8511
X4.0326Y-2.6011
X4.1948Y-4.1007
X4.2198Y-3.3507
X4.3136Y-4.8499
X4.3822Y-2.6011
X4.4072Y-1.8511
X4.5694Y-3.3507
X4.5948Y-4.1007
X4.7569Y-1.8511
X4.7822Y-2.6011
X4.9444Y-4.1007
X4.9694Y-3.3507
X5.0381Y-4.8499
X5.1319Y-2.6011
X5.1569Y-1.8511
X5.3191Y-3.3507
X5.3444Y-4.1007
X5.4381Y-4.8499
X5.5065Y-1.8511
X5.5319Y-2.6011
X5.6941Y-4.1007
X5.7191Y-3.3507
X5.9065Y-1.8511
X6.0687Y-4.8499
X6.0941Y-4.1007
X6.4437Y-4.1007
X6.4687Y-4.8499
X6.8437Y-4.1007
X7.1018Y-5.0033
X7.4482Y-5.2033
T4
X0.9844Y-5.5824
X0.9844Y-5.7969
T5
X4.3484Y-5.5591
X4.7815Y-5.5591
X5.3228Y-5.5591
X5.7559Y-5.5591
T6
X1.8649Y-2.6007
X2.4654Y-4.1007
X4.9572Y-2.5617
X5.7534Y-4.8499
T7
X1.1088Y-2.0511
X1.2026Y-5.0499
X1.2963Y-2.8007
X1.3588Y-1.9511
X1.3901Y-3.5507
X1.4526Y-4.9499
X1.5463Y-2.7007
X1.5776Y-4.3007
X1.6401Y-3.4507
X1.8276Y-4.2007
X1.8584Y-2.0511
X2.1084Y-1.9511
X2.1396Y-5.0499
X2.2334Y-2.8011
X2.3896Y-4.9499
X2.4206Y-3.5507
X2.4834Y-2.7011
X2.608Y-2.0511
X2.6706Y-3.4507
X2.7956Y-4.3007
X2.858Y-1.9511
X2.983Y-2.8011
X3.0456Y-4.2007
X3.0766Y-5.0499
X3.1702Y-3.5507
X3.233Y-2.7011
X3.3266Y-4.9499
X3.3576Y-2.0511
X3.4202Y-3.4507
X3.5452Y-4.3007
X3.6076Y-1.9511
X3.7326Y-2.8011
X3.7952Y-4.2007
X3.9198Y-3.5507
X3.9826Y-2.7011
X4.0136Y-5.0499
X4.1072Y-2.0511
X4.1698Y-3.4507
X4.2636Y-4.9499
X4.2948Y-4.3007
X4.3572Y-1.9511
X4.4822Y-2.8011
X4.5448Y-4.2007
X4.6694Y-3.5507
X4.7322Y-2.7011
X4.8569Y-2.0511
X4.9194Y-3.4507
X5.0444Y-4.3007
X5.1069Y-1.9511
X5.1381Y-5.0499
X5.2319Y-2.8011
X5.2944Y-4.2007
X5.3881Y-4.9499
X5.4191Y-3.5507
X5.4819Y-2.7011
X5.6065Y-2.0511
X5.6691Y-3.4507
X5.7941Y-4.3007
X5.8565Y-1.9511
X6.0441Y-4.2007
X6.1687Y-5.0499
X6.4187Y-4.9499
X6.5437Y-4.3007
X6.7937Y-4.2007
X7.0884Y-5.2266
X7.3549Y-5.2649
T8
X4.5649Y-5.5591
X5.5393Y-5.5591
T9
X1.2088Y-1.8511
X1.3026Y-4.8499
X1.3963Y-2.6007
X1.4901Y-3.3507
X1.6776Y-4.1007
X1.9584Y-1.8511
X2.2396Y-4.8499
X2.3334Y-2.6011
X2.5206Y-3.3507
X2.708Y-1.8511
X2.8956Y-4.1007
X3.083Y-2.6011
X3.1766Y-4.8499
X3.2702Y-3.3507
X3.4576Y-1.8511
X3.6452Y-4.1007
X3.8326Y-2.6011
X4.0198Y-3.3507
X4.1136Y-4.8499
X4.2072Y-1.8511
X4.3948Y-4.1007
X4.5822Y-2.6011
X4.7694Y-3.3507
X4.9569Y-1.8511
X5.1444Y-4.1007
X5.2381Y-4.8499
X5.3319Y-2.6011
X5.5191Y-3.3507
X5.7065Y-1.8511
X5.8941Y-4.1007
X6.2687Y-4.8499
X6.6437Y-4.1007
X7.275Y-5.1033
M30
