M48
; DRILL file {KiCad 8.0.7} date 2025-06-02T16:21:18+0200
; FORMAT={-:-/ absolute / inch / decimal}
; #@! TF.CreationDate,2025-06-02T16:21:18+02:00
; #@! TF.GenerationSoftware,Kicad,Pcbnew,8.0.7
; #@! TF.FileFunction,Plated,1,2,PTH
FMAT,2
INCH
; #@! TA.AperFunction,Plated,PTH,ViaDrill
T1C0.0118
; #@! TA.AperFunction,Plated,PTH,ComponentDrill
T2C0.0354
; #@! TA.AperFunction,Plated,PTH,ComponentDrill
T3C0.0394
; #@! TA.AperFunction,Plated,PTH,ComponentDrill
T4C0.0402
; #@! TA.AperFunction,Plated,PTH,ComponentDrill
T5C0.0472
%
G90
G05
T1
X0.9866Y-1.7355
X0.9881Y-2.3623
X0.9881Y-3.8406
X1.0027Y-2.4564
X1.0285Y-3.2747
X1.0842Y-4.3627
X1.0935Y-4.685
X1.2006Y-4.2448
X1.2202Y-4.3849
X1.2734Y-3.0515
X1.2976Y-4.0587
X1.3065Y-5.0877
X1.4454Y-1.6849
X1.482Y-2.0676
X1.5111Y-3.9357
X1.5232Y-1.8265
X1.5269Y-2.2629
X1.5887Y-2.3767
X1.6238Y-1.2633
X1.6542Y-2.864
X1.6694Y-2.4377
X1.6696Y-4.7507
X1.6854Y-3.2517
X1.7084Y-5.6412
X1.7289Y-5.0743
X1.7301Y-1.6861
X1.736Y-5.9357
X1.797Y-3.5479
X1.8147Y-2.9471
X1.8624Y-4.6231
X1.8816Y-3.1861
X1.9021Y-4.7629
X1.9163Y-3.6885
X1.9441Y-4.4198
X1.9675Y-3.5483
X1.9769Y-2.2652
X2.0277Y-5.7719
X2.0411Y-3.9298
X2.0439Y-2.9495
X2.045Y-4.0833
X2.0769Y-2.3767
X2.115Y-4.4282
X2.1177Y-4.2739
X2.149Y-5.7975
X2.1575Y-3.7622
X2.2076Y-5.4991
X2.2374Y-2.0676
X2.2537Y-4.1503
X2.2573Y-3.1854
X2.2639Y-1.3365
X2.2757Y-5.7432
X2.3013Y-2.0971
X2.3155Y-3.0109
X2.3561Y-3.9416
X2.3655Y-3.2617
X2.396Y-4.7513
X2.4584Y-1.0188
X2.4756Y-4.7197
X2.4872Y-4.2723
X2.4876Y-3.7999
X2.495Y-1.6294
X2.536Y-2.4385
X2.5809Y-3.7622
X2.6569Y-4.5172
X2.6616Y-2.918
X2.6694Y-5.9192
X2.6817Y-4.6361
X2.7313Y-5.9538
X2.7474Y-2.3467
X2.7608Y-3.2444
X2.7675Y-5.7522
X2.7996Y-3.5637
X2.8478Y-3.1333
X2.9246Y-3.2404
X2.9273Y-4.7566
X2.963Y-2.6509
X2.9675Y-2.107
X2.9781Y-6.0396
X2.9805Y-1.7975
X3.0405Y-4.7623
X3.0498Y-5.457
X3.0519Y-3.2414
X3.0596Y-3.1333
X3.0675Y-5.6278
X3.1305Y-4.3672
X3.1403Y-4.2912
X3.158Y-5.0861
X3.2257Y-1.6259
X3.2265Y-5.7739
X3.2407Y-2.2928
X3.295Y-3.829
X3.3084Y-4.4479
X3.3307Y-2.9276
X3.3395Y-2.4381
X3.3478Y-5.6204
X3.3624Y-3.9333
X3.4309Y-2.79
X3.4746Y-5.3924
X3.4836Y-5.5211
X3.5053Y-5.6759
X3.5915Y-4.9066
X3.6069Y-0.7873
X3.6332Y-3.2373
X3.638Y-4.6231
X3.641Y-3.5425
X3.6533Y-3.1377
X3.6848Y-2.0845
X3.6931Y-1.3609
X3.6974Y-5.8692
X3.7015Y-2.5422
X3.7135Y-5.5503
X3.7187Y-4.9648
X3.798Y-1.8221
X3.8151Y-3.2546
X3.8868Y-2.2129
X3.925Y-4.3393
X3.9864Y-3.8207
X3.9978Y-1.6251
X4.0653Y-2.9446
X4.1364Y-3.9377
X4.162Y-1.0188
X4.2025Y-2.792
X4.2185Y-3.2379
X4.2208Y-2.3213
X4.2281Y-5.2109
X4.2734Y-2.5727
X4.2789Y-2.694
X4.3415Y-2.455
X4.3879Y-3.5397
X4.3925Y-4.7841
X4.422Y-1.73
X4.4683Y-1.205
X4.4698Y-3.1223
X4.4862Y-2.0676
X4.5214Y-4.7837
X4.5824Y-1.0121
X4.6435Y-4.9889
X4.6738Y-4.3471
X4.6883Y-5.7751
X4.7029Y-5.1188
X4.7263Y-1.4737
X4.7378Y-5.9757
X4.7391Y-1.629
X4.7478Y-5.3352
X4.7482Y-5.2373
X4.773Y-2.4412
X4.7974Y-3.9361
X4.808Y-4.6853
X4.8801Y-2.3101
X4.9204Y-2.9001
X4.9257Y-5.6393
X4.9582Y-2.8001
X4.982Y-6.0893
X5.0169Y-4.9339
X5.0427Y-4.685
X5.0998Y-5.2936
X5.137Y-1.7536
X5.1445Y-3.5468
X5.1736Y-5.3357
X5.1864Y-3.3247
X5.2029Y-3.1243
X5.2358Y-2.0597
X5.3594Y-1.7699
X5.4171Y-1.6314
X5.4234Y-4.0715
X5.4259Y-5.617
X5.4667Y-3.7617
X5.4714Y-1.9322
X5.4805Y-4.7621
X5.4887Y-3.8215
X5.5163Y-6.0924
X5.5313Y-2.3735
X5.5444Y-2.4765
X5.5528Y-4.4656
X5.5529Y-5.2034
X5.573Y-3.9349
X5.5795Y-4.7446
X5.6108Y-2.8235
X5.635Y-6.0678
X5.7539Y-5.3442
X5.7791Y-5.678
X5.7903Y-3.54
X5.8405Y-4.9465
X5.858Y-4.6168
X5.8789Y-2.055
X5.9037Y-5.0798
X5.9387Y-1.6739
X5.9425Y-1.6083
X6.173Y-4.3204
X6.2687Y-3.9365
X6.2797Y-4.081
X6.4506Y-3.866
X6.4679Y-4.7333
X6.521Y-5.3211
X6.5476Y-4.7881
X6.6923Y-5.1696
X6.7561Y-4.9432
X6.8572Y-4.3444
X6.9072Y-4.6956
X7.2431Y-5.5822
X7.2852Y-5.3654
X7.5383Y-5.1889
T2
X1.0376Y-2.1877
X1.1068Y-5.1739
X1.2375Y-2.9444
X1.3246Y-3.69
X1.3525Y-2.1877
X1.4217Y-5.1739
X1.517Y-4.4463
X1.5524Y-2.9444
X1.5575Y-5.1602
X1.6395Y-3.69
X1.8021Y-2.1865
X1.832Y-4.4463
X1.8725Y-5.1602
X2.1171Y-2.1865
X2.1474Y-2.9444
X2.3584Y-3.6889
X2.4624Y-2.9444
X2.5474Y-2.1916
X2.6734Y-3.6889
X2.6981Y-4.7683
X2.6981Y-5.0832
X2.7261Y-4.4428
X2.8624Y-2.1916
X2.9257Y-2.9444
X3.0411Y-4.4428
X3.1057Y-5.1952
X3.1128Y-3.6916
X3.2407Y-2.9444
X3.254Y-2.1956
X3.4206Y-5.1952
X3.4277Y-3.6916
X3.4387Y-4.4396
X3.5628Y-2.9479
X3.569Y-2.1956
X3.6379Y-5.2074
X3.7537Y-4.4396
X3.8628Y-3.6881
X3.8777Y-2.9479
X3.9529Y-5.2074
X4.0167Y-2.1932
X4.1777Y-3.6881
X4.2186Y-4.4397
X4.2339Y-5.981
X4.3317Y-2.1932
X4.4069Y-2.9369
X4.5335Y-4.4397
X4.5489Y-5.981
X4.6175Y-3.6928
X4.6285Y-2.1924
X4.7218Y-2.9369
X4.9324Y-3.6928
X4.9435Y-2.1924
X4.975Y-4.4416
X5.0001Y-5.2003
X5.0541Y-5.957
X5.1245Y-2.1901
X5.1864Y-2.9408
X5.2899Y-4.4416
X5.315Y-5.2003
X5.3642Y-3.6901
X5.3691Y-5.957
X5.4394Y-2.1901
X5.5013Y-2.9408
X5.6792Y-3.6901
X5.7238Y-4.4416
X6.0387Y-4.4416
X6.2171Y-5.2227
X6.4638Y-4.4417
X6.532Y-5.2227
X6.7246Y-5.2739
X6.7788Y-4.4417
X6.9974Y-5.4314
T3
X2.7458Y-1.4467
X3.0187Y-1.4475
X3.301Y-1.4483
X3.4746Y-5.8471
X3.5234Y-1.4483
T4
X0.9793Y-5.3396
X0.9793Y-6.0396
X1.0793Y-5.3396
X1.0793Y-6.0396
X1.1793Y-5.3396
X1.1793Y-6.0396
X1.2793Y-5.3396
X1.2793Y-6.0396
X1.3793Y-5.3396
X1.3793Y-6.0396
X1.4793Y-5.3396
X1.4793Y-6.0396
X1.5793Y-5.3396
X1.5793Y-6.0396
X1.6793Y-5.3396
X1.6793Y-6.0396
X1.7793Y-5.3396
X1.7793Y-6.0396
X1.8793Y-5.3396
X1.8793Y-6.0396
X1.9793Y-5.3396
X1.9793Y-6.0396
X2.0793Y-5.3396
X2.0793Y-6.0396
X2.1793Y-5.3396
X2.1793Y-6.0396
X2.2793Y-5.3396
X2.2793Y-6.0396
X2.3793Y-5.3396
X2.3793Y-6.0396
X2.4793Y-5.3396
X2.4793Y-6.0396
X2.5793Y-5.3396
X2.5793Y-6.0396
X2.6793Y-5.3396
X2.6793Y-6.0396
X2.7793Y-5.3396
X2.7793Y-6.0396
X2.8702Y-5.5896
X2.8702Y-5.6896
X2.8702Y-5.7896
X2.8793Y-5.3396
X2.8793Y-6.0396
T5
X4.3681Y-5.7087
X4.5649Y-5.7914
X5.3425Y-5.7087
X5.5393Y-5.7914
T2
G00X4.5787Y-1.3229
M15
G01X4.5787Y-1.3387
M16
G05
G00X4.7598Y-1.004
M15
G01X4.7598Y-1.0198
M16
G05
G00X4.7598Y-1.1221
M15
G01X4.7598Y-1.1379
M16
G05
G00X4.7598Y-1.2796
M15
G01X4.7598Y-1.2954
M16
G05
M30
